<svg width="100%" height="100%" viewBox="0 0 153 194" fill="none" xmlns="http://www.w3.org/2000/svg">
<path d="M83.5729 10.4384C83.5729 19.569 82.8276 21.9914 78.7281 25.9045C74.0697 30.1903 73.697 30.1903 71.2746 27.0225C68.1068 22.5504 60.2806 24.4138 58.7899 29.6313C57.8582 33.1717 57.2992 33.358 53.7587 31.122C50.4046 29.0723 49.4729 29.2586 47.0505 32.24C43.8828 36.5258 43.5101 54.0417 46.4915 57.0231C47.9822 58.5138 48.1686 63.1722 47.4232 71.1848C46.3052 81.2471 45.3735 83.4832 41.6467 85.1602C38.1063 86.8373 37.1746 86.6509 36.4292 83.4832C35.3112 79.5701 29.721 78.6384 26.3669 81.9925C24.8762 83.4832 23.9445 83.4832 23.1992 81.9925C21.1495 78.8247 12.7642 79.3837 12.7642 82.7378C12.7642 84.2285 12.0189 85.5329 10.9008 85.5329C9.96912 85.5329 9.03743 84.6012 9.03743 83.4832C9.03743 82.3651 7.17404 81.8061 4.93798 82.1788C1.2112 82.7378 0.652186 84.0422 0.0931694 91.3094C-0.279508 97.2722 0.465847 100.813 2.32923 102.862C4.5653 105.098 5.31065 111.434 5.68333 131.372L6.24235 157.273L14.2549 161C19.8451 163.609 22.0811 165.659 22.0811 168.64C22.0811 171.994 25.9943 174.23 46.8642 183.174C60.4669 188.951 72.3926 193.609 73.697 193.609C74.815 193.609 84.5046 188.578 95.3123 182.429C113.014 172.18 115.623 171.249 125.686 171.249C133.325 171.249 138.543 170.131 142.642 167.522C148.978 163.609 153.45 157.273 151.587 154.478C151.028 153.36 148.419 142.366 145.996 129.882C141.524 107.521 141.524 107.148 145.251 104.539C150.841 100.626 150.096 90.1914 143.947 86.0919C139.288 83.1105 138.916 83.1105 136.493 86.4646C133.884 89.8187 133.698 89.8187 130.158 85.9056C125.686 81.0608 122.89 62.6132 126.245 58.7001C127.363 57.2094 128.853 51.9919 129.599 46.7744C130.53 38.2029 130.344 37.2712 125.686 34.2897C121.959 31.681 120.095 31.4947 118.418 33.1717C115.251 36.3395 111.896 35.5941 110.592 31.4947C109.101 26.8362 101.275 24.6001 97.5483 27.7679C95.1259 29.8176 94.0079 29.4449 91.0265 26.2772C84.8773 19.569 86.1817 15.6559 96.244 11.9291L105.002 8.38866L95.685 4.2892C90.6538 1.86681 85.809 0.00341797 85.0636 0.00341797C84.132 -0.182922 83.5729 4.66188 83.5729 10.4384ZM93.6352 7.08429C94.1942 8.01598 93.4489 9.32034 91.7718 9.87936C87.6724 11.5564 87.2997 11.3701 87.2997 8.20232C87.2997 5.2209 91.9582 4.2892 93.6352 7.08429ZM69.4112 30.563C70.9019 34.4761 77.7964 34.1034 79.4735 30.004C80.4052 27.7679 80.9642 28.8859 81.7095 34.1034C83.0139 44.5384 88.0451 45.8427 86.927 35.5941C86.368 28.6996 86.5544 28.1406 89.3494 30.7493C92.7035 33.7307 97.7347 34.1034 99.4117 31.4947C101.461 28.1406 105.934 29.6313 107.797 34.2897C109.66 38.9482 114.878 40.4389 118.232 37.0848C119.164 36.1531 121.027 35.9668 122.331 36.8985C124.195 38.0165 124.195 39.3209 121.959 43.4203C120.282 46.7744 118.977 47.7061 118.046 46.4018C116.369 43.6067 107.797 45.6564 104.629 49.7559C102.393 52.7373 102.02 52.7373 99.5981 49.5695C96.4303 45.4701 85.6227 45.2837 82.6412 49.5695C80.2188 52.9236 76.1194 51.4329 76.1194 47.1471C76.1194 44.1657 64.0074 43.4203 62.144 46.4018C60.0943 49.5695 57.4855 48.4515 57.4855 44.352C57.4855 42.116 55.9948 40.0662 53.7587 39.5072C51.709 38.9482 50.032 37.6438 50.032 36.7121C50.032 35.5941 51.3363 35.4078 53.0134 35.9668C57.8582 37.8302 63.0757 35.4078 63.0757 31.3083C63.0757 27.2089 67.7341 26.4635 69.4112 30.563ZM53.7587 47.5198C55.6221 51.9919 61.7713 53.669 64.0074 50.1285C65.8708 46.9608 71.2746 48.0788 73.8833 51.9919C76.4921 56.2777 84.5046 57.0231 86.1817 52.9236C86.7407 51.4329 89.1631 50.1285 91.7718 50.1285C94.1942 50.1285 96.6167 51.4329 97.362 52.9236C97.921 54.4143 100.53 55.7187 103.139 55.7187C106.12 55.7187 107.797 54.6007 107.797 52.9236C107.797 49.5695 115.437 49.1968 118.605 52.3646C121.213 54.9733 123.636 52.9236 125.126 47.3335C125.686 45.0974 126.058 45.8427 125.872 49.1968C125.313 57.9548 116.555 60.0045 85.0636 58.8865C55.0631 57.7684 49.4729 55.905 48.5412 46.5881C47.7959 39.5072 50.9637 40.0662 53.7587 47.5198ZM92.1445 62.2406H120.468L121.586 72.3028C122.704 81.0608 122.331 83.1105 118.977 86.2783C115.251 90.005 114.878 90.005 113.201 86.8373C110.965 83.1105 104.257 84.0422 101.648 88.5143C100.902 90.005 98.8527 91.1231 97.362 91.1231C95.1259 91.1231 94.7533 92.4274 95.685 97.0859C96.4303 100.44 98.1074 104.167 99.4117 105.285C101.275 106.776 101.648 110.13 100.902 117.77C100.343 123.546 99.0391 128.391 98.2937 128.391C95.8713 128.391 96.244 117.77 98.6664 113.297C100.343 110.13 98.8527 107.894 88.6041 97.2722L76.6784 84.9739L62.144 92.6138L47.6096 100.254L48.7276 92.4274C49.2866 88.1416 50.4046 79.011 51.15 72.1165L52.4544 59.6318L58.2309 60.9362C61.3986 61.6815 76.6784 62.2406 92.1445 62.2406ZM21.7085 85.9056C23.5719 87.769 24.8762 87.769 27.8576 85.9056C33.2615 82.5515 34.1932 84.2285 30.2801 90.1914C28.4167 92.9865 26.5533 94.4772 26.1806 93.1728C25.0626 90.005 15.1866 90.7504 13.8822 94.1045C13.3232 95.5952 12.0189 96.3405 10.9008 95.7815C8.10574 94.1045 8.66475 89.2597 11.6462 89.2597C13.1369 89.2597 14.6276 87.9553 15.3729 86.4646C16.6773 83.1105 18.727 82.9242 21.7085 85.9056ZM7.17404 87.3963C7.17404 88.328 6.42869 89.2597 5.31065 89.2597C4.37896 89.2597 3.44727 88.328 3.44727 87.3963C3.44727 86.2783 4.37896 85.5329 5.31065 85.5329C6.42869 85.5329 7.17404 86.2783 7.17404 87.3963ZM46.3052 88.328C46.3052 88.7007 44.4418 90.1914 42.2057 91.3094C38.2926 93.3591 38.1063 93.3591 40.5287 90.564C42.9511 87.5826 46.3052 86.2783 46.3052 88.328ZM110.406 90.1914C111.71 93.9181 118.977 93.7318 121.959 89.6324C124.381 86.6509 124.754 86.6509 127.176 89.6324C128.481 91.4957 131.089 92.9865 132.766 92.9865C134.443 92.9865 135.748 93.9181 135.748 94.8498C135.748 98.0176 129.971 99.322 126.245 97.0859C121.772 94.2908 118.046 94.2908 113.387 97.0859C110.219 99.1356 109.288 98.9493 107.797 96.7132C105.561 93.1728 105.375 87.3963 107.611 87.3963C108.542 87.3963 109.66 88.7007 110.406 90.1914ZM94.7533 109.757C94.7533 110.689 73.697 124.664 72.0199 124.664C70.1565 124.664 53.1997 101.558 54.8768 100.999C55.8085 100.626 60.8396 98.0176 65.8708 95.0362L75.1877 89.6324L85.0636 99.1356C90.2811 104.353 94.7533 109.198 94.7533 109.757ZM143.201 91.1231C143.201 92.0548 142.456 92.9865 141.338 92.9865C140.406 92.9865 139.475 92.0548 139.475 91.1231C139.475 90.005 140.406 89.2597 141.338 89.2597C142.456 89.2597 143.201 90.005 143.201 91.1231ZM35.1249 93.7318C35.1249 99.1356 29.5347 102.303 20.0314 102.303C10.5281 102.303 3.44727 99.881 3.44727 96.5269C3.44727 95.5952 5.68333 96.1542 8.29208 98.0176C12.9505 100.999 13.3232 100.999 15.7456 97.6449C17.9817 94.4772 18.727 94.4772 23.1992 96.8996C27.6713 99.322 28.4167 99.1356 31.2117 95.4089C34.7522 90.3777 35.1249 90.3777 35.1249 93.7318ZM42.5784 103.98C39.7833 109.198 36.9882 108.825 36.9882 103.235C36.9882 98.2039 43.1374 93.3591 44.0691 97.6449C44.4418 99.1356 43.6964 101.931 42.5784 103.98ZM110.778 102.303C112.269 102.303 115.064 101.372 117.114 100.067C119.909 98.2039 121.213 98.3903 124.195 100.999C126.99 103.608 128.853 103.794 132.766 102.49C135.375 101.372 137.611 99.6946 137.611 98.7629C137.611 97.8313 139.288 96.7132 141.338 96.1542C147.86 94.4772 145.624 100.44 138.543 103.421C131.089 106.403 117.3 106.776 107.424 103.98C102.02 102.676 100.343 101.185 100.343 98.2039V94.1045L104.07 98.2039C106.306 100.44 109.101 102.303 110.778 102.303ZM33.2615 108.825C33.2615 111.434 32.5161 113.484 31.3981 113.484C30.4664 113.484 29.5347 114.788 29.5347 116.279C29.5347 117.77 30.8391 119.074 32.3298 119.074C33.8205 119.074 35.1249 120.751 35.1249 122.801C35.1249 125.782 34.0068 126.527 29.162 126.155L23.0128 125.596L22.0811 142.739L21.1495 159.696L15.1866 157.273L9.03743 154.665V130.441V106.216L19.8451 105.471C25.6216 105.098 31.0254 104.726 31.9571 104.539C32.7025 104.353 33.2615 106.216 33.2615 108.825ZM64.9391 131.559V141.435L54.3177 136.59C48.3549 133.981 42.3921 131.372 41.274 130.813C39.7833 130.254 38.8516 126.341 38.8516 121.31C38.8516 114.229 39.7833 111.993 44.0691 108.453L49.1003 104.353L56.9265 113.111C64.0074 120.937 64.7527 122.801 64.9391 131.559ZM143.015 134.167L147.487 158.95L142.456 163.236C138.543 166.59 135.189 167.522 127.549 167.522H117.673L116.369 153.919C113.946 128.95 113.387 126.527 108.542 125.409C103.884 124.291 103.325 122.801 105.188 114.229L106.12 108.825L122.331 109.198L138.543 109.571L143.015 134.167ZM94.5669 128.391C94.7533 130.813 73.5106 145.161 69.9702 145.161C69.2249 145.161 68.6658 141.248 68.6658 136.59C68.6658 131.931 69.4112 128.577 70.1565 129.136C70.9019 129.509 76.1194 127.086 81.7095 123.732C91.9582 117.397 91.9582 117.397 93.2626 121.496C93.8216 123.732 94.3806 126.9 94.5669 128.391ZM39.9697 135.472C39.038 136.217 27.6713 130.627 27.6713 129.323C27.6713 128.763 30.6527 129.882 34.1932 131.559C37.7336 133.236 40.3423 134.913 39.9697 135.472ZM105.188 129.882C104.629 130.813 96.9893 135.844 88.0451 141.248L71.8336 151.31L57.2992 144.043C49.2866 140.13 42.9511 136.776 43.3238 136.403C43.6964 136.031 50.2183 138.826 57.8582 142.553L71.8336 149.447L88.4177 139.012C106.306 127.832 106.679 127.645 105.188 129.882ZM111.896 155.224L112.455 168.081L95.1259 178.143C85.4363 183.733 77.2374 188.019 76.8647 187.647C76.4921 187.088 75.933 179.448 75.7467 170.503L75.1877 154.106L91.9582 143.484L108.729 132.863L110.033 137.521C110.778 140.13 111.71 147.956 111.896 155.224ZM48.9139 144.23L70.5292 154.478V163.609C70.5292 168.454 71.0882 176.466 71.6473 181.125C72.7653 189.137 72.5789 189.51 68.8522 188.578C65.3117 187.647 64.9391 186.342 64.9391 175.721C64.9391 165.286 64.38 163.236 59.9079 158.391C54.8768 153.174 54.5041 152.988 48.7276 155.596C42.9511 158.019 42.5784 158.764 42.5784 167.708C42.5784 176.094 42.2057 177.025 39.4106 175.907C37.5473 175.162 33.8205 173.671 31.0254 172.739C25.8079 170.876 25.8079 170.876 25.8079 152.429C25.8079 142.366 26.1806 133.981 26.5533 133.981C26.7396 133.981 36.8019 138.639 48.9139 144.23ZM51.8953 161C51.8953 162.491 50.591 163.795 49.1003 163.795C44.2555 163.795 45.7462 160.068 51.5227 158.391C51.709 158.205 51.8953 159.509 51.8953 161ZM60.8396 166.777C58.9762 168.64 55.6221 165.659 55.6221 162.304C55.6221 159.509 55.8085 159.509 58.7899 162.491C60.4669 164.168 61.3986 166.031 60.8396 166.777ZM51.8953 170.503C51.8953 172.18 50.9637 173.112 49.6593 172.739C46.3052 171.621 45.7462 167.522 48.9139 167.522C50.591 167.522 51.8953 168.826 51.8953 170.503ZM61.2123 174.416C61.2123 178.143 56.7402 176.466 55.9948 172.553C55.6221 170.317 56.1811 169.758 58.2309 170.503C59.9079 171.062 61.2123 172.926 61.2123 174.416ZM50.032 178.889C50.032 180.007 49.2866 180.193 48.1686 179.634C47.2369 179.075 46.3052 177.584 46.3052 176.653C46.3052 175.535 47.2369 175.348 48.1686 175.907C49.2866 176.466 50.032 177.957 50.032 178.889ZM59.3489 180.566C60.8396 181.497 61.585 182.802 61.0259 183.361C59.5352 184.851 53.7587 182.429 53.7587 180.379C53.7587 178.33 55.8085 178.33 59.3489 180.566Z" fill="white"/>
<path d="M44.4414 119.077C44.4414 122.804 50.4042 127.276 52.6403 125.226C54.8764 122.99 53.7583 117.586 50.7769 116.468C45.9321 114.605 44.4414 115.164 44.4414 119.077Z" fill="#FDFF85"/>
<path d="M85.4375 127.463C85.4375 128.953 86.3692 130.258 87.3009 130.258C88.4189 130.258 89.1643 128.953 89.1643 127.463C89.1643 125.972 88.4189 124.668 87.3009 124.668C86.3692 124.668 85.4375 125.972 85.4375 127.463Z" fill="#FDFF85"/>
<path d="M77.2407 131.935C76.4953 133.24 76.309 134.731 76.868 135.29C78.5451 136.967 80.4084 134.544 79.4767 131.935C78.7314 129.886 78.3587 129.886 77.2407 131.935Z" fill="#FDFF85"/>
<path d="M101.647 146.469C101.275 147.215 101.461 149.637 102.206 151.687C103.511 155.227 103.697 155.227 105.001 152.059C106.492 148.705 103.324 143.488 101.647 146.469Z" fill="#FDFF85"/>
<path d="M92.3315 151.875C90.4681 153.925 90.6545 160.074 92.7042 160.074C95.4993 160.074 96.2446 157.652 94.9403 153.925C94.1949 152.062 93.0769 151.13 92.3315 151.875Z" fill="#FDFF85"/>
<path d="M81.707 161.002C81.707 163.61 82.6387 165.66 83.5704 165.66C84.6885 165.66 85.4338 163.61 85.4338 161.002C85.4338 158.393 84.6885 156.343 83.5704 156.343C82.6387 156.343 81.707 158.393 81.707 161.002Z" fill="#FDFF85"/>
<path d="M29.906 150.011C30.2787 152.806 31.5831 155.415 32.8874 155.974C34.7508 156.533 35.3099 155.228 34.7508 151.502C34.3782 148.706 33.0738 146.098 31.7694 145.539C29.906 144.98 29.347 146.284 29.906 150.011Z" fill="#FDFF85"/>
</svg>
