<svg width="100%" height="100%" viewBox="0 0 300 294" fill="none" xmlns="http://www.w3.org/2000/svg">
<g filter="url(#filter0_d_939_5480)">
<path d="M134.469 32.0301C134.469 35.527 136.157 37.2151 138.087 36.0093C139.051 35.2858 141.222 34.8035 142.789 34.8035C145.201 34.8035 145.442 35.0446 144.116 36.6122C143.272 37.6974 141.463 38.3004 140.016 38.1798C137.845 37.818 137.363 38.6621 136.64 43.2443C135.434 51.6851 133.866 56.9907 129.766 65.6727C125.908 73.7517 125.064 78.2133 127.234 78.2133C127.958 78.2133 128.44 81.5896 128.44 86.0512V93.7685L123.375 95.0949C110.232 98.3506 110.352 98.3506 103.238 112.579C99.2589 120.658 97.3295 125.964 98.1736 126.205C98.8971 126.446 99.5 128.255 99.5 130.184V133.681L93.2297 131.149C79.2421 125.482 79.9656 125.602 78.5186 128.135C77.7951 129.461 74.9011 133.923 72.1277 138.143L67.0632 145.86L68.3896 156.713L69.7161 167.565L75.2629 170.7C85.1507 176.247 86.3565 177.212 85.5124 178.418C85.0301 179.141 83.8242 178.9 82.2567 177.694C78.0363 174.68 76.3481 174.197 75.3834 175.885C74.7805 176.85 73.5747 177.091 72.2483 176.609C70.319 175.885 70.319 175.644 71.766 174.559C73.3335 173.594 73.0924 173.112 70.5601 171.062C68.872 169.736 67.0632 168.65 66.5809 168.65C65.978 168.65 65.978 167.565 66.3397 166.239C67.1838 163.465 65.4957 162.983 63.3252 165.636C60.9135 168.53 48.8552 171.424 45.5995 169.977C44.0319 169.253 41.6202 168.65 40.4144 168.65C39.088 168.65 37.5204 167.565 36.7969 166.239C35.4705 163.827 37.1587 162.621 38.6057 165.033C39.8115 167.083 41.6202 166.359 42.8261 163.465C43.429 162.018 43.9113 161.536 43.9113 162.26C44.0319 163.104 45.1172 164.912 46.5641 166.359C48.9758 168.771 49.217 168.771 51.3875 166.721C52.5933 165.636 53.6785 163.948 53.6785 162.983C53.6785 162.139 54.2814 161.415 54.8844 161.415C55.6079 161.415 56.0902 162.139 56.0902 163.104C56.0902 165.998 58.5018 166.601 60.9135 164.43C65.3751 160.33 65.4957 149.719 60.9135 151.166C59.5871 151.528 58.5018 151.166 58.0195 149.96C57.1754 147.548 52.8345 147.669 51.508 150.081C50.5434 151.769 50.3022 151.769 48.9758 150.081C46.6847 147.307 42.8261 147.669 42.8261 150.563C42.8261 152.733 42.5849 152.854 40.2938 151.528C38.2439 150.201 37.641 150.322 36.194 152.251C33.9029 155.266 32.6971 164.189 34.1441 166.962C34.9882 168.53 34.8676 171.906 33.6618 177.694C31.1295 190.597 31.4913 196.746 34.747 199.64C41.2585 205.669 50.061 207.599 58.1401 204.825C61.1547 203.74 62.7222 204.102 69.7161 208.081C77.1922 212.181 79.6038 214.472 76.5893 214.472C74.5394 214.472 75.2629 221.225 77.5539 223.274C78.7598 224.48 80.0862 225.324 80.5685 225.324C80.9303 225.324 86.3565 228.339 92.5062 232.077C98.6559 235.815 103.962 239.071 104.323 239.191C104.685 239.433 107.7 238.588 111.076 237.503L117.226 235.333L123.737 239.191C128.44 241.844 130.249 243.774 130.369 245.703C130.49 247.15 132.54 250.526 135.072 253.058C141.342 259.449 150.386 261.379 160.515 258.485C169.679 255.832 174.261 251.611 174.261 245.823C174.261 241.724 174.623 241.362 183.064 237.141C187.767 234.73 200.91 227.133 212.124 220.26L232.623 207.599L238.411 209.407C243.114 210.734 245.888 210.854 251.676 209.769C259.755 208.322 263.734 206.272 266.628 201.811C268.437 198.917 268.437 198.073 265.422 186.135C263.372 177.694 262.287 170.339 262.287 163.827C262.287 153.457 260.719 149.96 256.619 150.804C255.414 151.045 253.484 150.201 252.399 149.116C249.746 146.463 246.611 146.343 246.611 148.754C246.611 150.925 245.164 151.045 243.235 149.116C242.391 148.272 240.823 147.548 239.738 147.548C237.809 147.548 222.736 129.461 222.615 126.929C222.495 126.205 221.53 124.758 220.445 123.794C218.033 121.744 201.754 115.594 198.74 115.594C197.775 115.594 195.002 117.644 192.831 120.056C190.299 122.829 188.731 123.794 188.731 122.708C188.731 121.623 185.717 114.388 182.099 106.43L175.467 92.0803L169.197 91.2362C165.7 90.7539 160.515 90.0304 157.742 89.6687L152.556 88.9452V82.916C152.556 79.5397 153.159 75.8016 153.762 74.4752C154.606 72.9076 154.606 72.1841 153.762 72.1841C153.159 72.1841 152.556 71.7018 152.556 70.9783C152.556 70.3754 149.542 64.4668 145.924 58.076C142.307 51.5645 139.292 45.1736 139.292 43.8472C139.292 42.159 140.86 40.712 144.719 39.0239C151.833 35.8887 151.712 33.8388 144.116 32.8741C140.739 32.3918 137.725 31.5477 137.363 31.0654C136.278 29.2567 134.469 29.8596 134.469 32.0301ZM145.201 62.0552C148.577 68.4461 151.351 73.8723 151.351 74.1135C151.351 75.5605 142.548 78.2133 137.484 78.2133C128.319 78.2133 127.958 77.1281 132.781 65.9138C135.072 60.6082 136.881 54.9408 136.881 53.3732C136.881 48.0676 139.051 50.3587 145.201 62.0552ZM150.265 82.6749C150.265 85.2071 150.507 89.1863 150.748 91.4774C151.471 98.23 149.421 103.053 144.719 105.224C139.895 107.515 137.363 106.671 133.384 101.606C131.334 98.9535 130.852 96.6625 130.852 89.5481V80.625H137.966C141.945 80.625 145.563 80.022 145.924 79.4191C147.733 76.5251 150.145 78.3339 150.265 82.6749ZM164.856 93.5273C168.956 93.8891 171.85 94.8537 171.85 95.6978C171.85 97.386 166.785 112.459 163.168 121.623C161.721 125.241 160.394 128.376 160.394 128.496C160.033 129.34 143.272 123.552 141.704 122.105C140.739 121.141 140.498 120.417 141.222 120.417C141.945 120.417 142.548 118.126 142.789 115.232C143.03 111.012 143.754 109.444 147.854 105.947C151.712 102.571 152.918 100.642 153.401 96.5419C153.883 92.5627 154.486 91.4774 155.933 92.0803C156.897 92.4421 160.997 93.045 164.856 93.5273ZM130.128 101.124C131.093 104.38 132.66 105.947 136.519 107.756C140.498 109.565 141.463 110.65 141.101 112.579C140.86 113.906 140.378 116.92 140.016 119.211C139.413 122.829 138.328 123.914 132.54 126.929C128.681 128.979 125.425 129.943 124.822 129.34C123.255 127.652 111.558 104.38 111.558 102.692C111.558 101.245 125.425 96.1801 127.716 96.7831C128.319 96.9036 129.405 98.833 130.128 101.124ZM178.361 110.168C180.17 114.75 182.461 120.417 183.546 122.588C185.234 126.085 185.355 127.773 184.149 137.178C183.305 143.087 182.702 150.684 182.702 154.06C182.702 159.486 182.461 160.33 180.652 159.727C173.417 157.557 172.332 157.677 169.559 160.692L166.665 163.827L164.977 160.692C163.891 158.521 163.409 152.733 163.409 142.725C163.409 129.099 163.65 127.049 166.906 118.97C168.835 114.147 170.764 108.48 171.247 106.55C173.176 97.6271 173.779 97.9889 178.361 110.168ZM115.779 117.644C118.19 122.829 121.446 128.738 123.134 130.908C126.028 134.767 126.149 135.249 124.822 144.052C122.893 158.521 122.29 158.642 113.97 146.222C110.594 141.278 106.494 136.575 104.806 135.852C100.585 133.923 101.068 128.135 106.253 117.282C108.544 112.338 110.714 108.359 110.955 108.359C111.076 108.359 113.246 112.579 115.779 117.644ZM184.752 118.85C184.27 119.211 183.908 118.85 183.908 118.006C183.908 117.162 184.27 116.8 184.752 117.162C185.114 117.644 185.114 118.367 184.752 118.85ZM103.118 118.609C103.118 118.97 102.876 119.211 102.515 119.211C102.153 119.211 101.912 118.97 101.912 118.609C101.912 118.247 102.153 118.006 102.515 118.006C102.876 118.006 103.118 118.247 103.118 118.609ZM204.407 118.609C204.407 118.97 204.166 119.211 203.804 119.211C203.442 119.211 203.201 118.97 203.201 118.609C203.201 118.247 203.442 118.006 203.804 118.006C204.166 118.006 204.407 118.247 204.407 118.609ZM210.195 124.879C212.124 125.723 211.401 128.135 205.372 140.072C202.84 145.257 199.946 149.719 199.101 150.081C197.413 150.684 189.455 147.91 186.923 145.74C184.632 143.81 187.405 132.717 191.866 125.602L195.966 119.211L202.237 121.744C205.733 123.191 209.351 124.517 210.195 124.879ZM210.557 121.141C212.607 122.105 213.933 123.311 213.571 123.673C213.21 124.035 211.16 123.191 208.989 121.744C204.286 118.85 205.372 118.367 210.557 121.141ZM187.525 122.226C187.525 122.588 187.284 122.829 186.923 122.829C186.561 122.829 186.32 122.588 186.32 122.226C186.32 121.864 186.561 121.623 186.923 121.623C187.284 121.623 187.525 121.864 187.525 122.226ZM154.606 129.582L161.118 131.631L160.756 143.81L160.394 155.989L154.365 157.316C147.251 159.004 140.136 159.366 140.981 158.039C142.186 155.989 143.151 128.858 141.945 128.858C140.257 128.858 139.172 133.681 140.86 133.802C141.825 133.802 141.825 134.043 140.86 134.525C140.016 134.767 139.292 135.852 139.292 136.817C139.292 137.781 140.016 138.505 140.86 138.505C141.945 138.505 141.945 138.746 140.739 139.59C139.775 140.072 139.172 141.278 139.292 142.243C139.413 143.207 139.534 147.187 139.413 151.166L139.172 158.401L136.76 155.025C134.59 152.131 133.746 151.769 129.887 152.492C126.028 153.216 125.787 153.095 126.631 151.045C127.113 149.84 127.837 144.896 128.078 140.193L128.681 131.631L133.746 129.099C139.413 126.326 144.719 126.446 154.606 129.582ZM220.203 127.532C220.686 127.652 221.409 128.617 221.771 129.702C222.495 131.511 222.253 131.511 220.083 129.461C216.104 125.844 217.309 129.099 223.459 138.022C226.594 142.605 230.574 147.066 232.503 147.91C234.312 148.754 235.759 150.322 235.759 151.286C235.759 152.733 235.397 152.733 233.226 151.528C231.176 150.201 230.574 150.322 229.006 152.251C228.041 153.578 227.318 156.954 227.318 159.727C227.318 163.707 226.715 165.395 224.544 167.083C219.359 171.062 205.854 177.694 204.769 176.729C204.286 176.127 204.407 175.403 205.131 174.921C206.095 174.318 206.216 170.097 205.492 161.415L204.648 148.754L209.592 137.661C213.692 128.135 214.898 126.567 216.948 127.049C218.395 127.291 219.842 127.532 220.203 127.532ZM91.5415 133.078C96.7266 135.37 101.55 137.299 102.394 137.299C103.118 137.299 104.444 137.902 105.167 138.625C106.132 139.59 104.926 142.484 100.465 149.478C97.2089 154.663 94.1944 159.004 93.9532 159.004C93.712 159.004 88.0446 156.351 81.4126 152.975L69.4749 146.946L74.7805 139.228C77.7951 135.008 80.2068 130.908 80.2068 130.184C80.2068 128.135 81.5332 128.496 91.5415 133.078ZM228.524 139.228C231.297 142.846 233.347 146.222 232.985 146.584C232.623 146.825 230.091 143.81 227.438 139.831C224.665 135.731 222.615 132.476 222.856 132.476C223.218 132.476 225.75 135.49 228.524 139.228ZM110.352 145.137C110.352 145.499 110.111 145.74 109.75 145.74C109.388 145.74 109.147 145.499 109.147 145.137C109.147 144.775 109.388 144.534 109.75 144.534C110.111 144.534 110.352 144.775 110.352 145.137ZM110.232 150.201L113.005 154.542L110.232 160.451C107.579 166.239 103.118 169.856 98.8971 169.856C95.2796 169.856 96.606 160.692 101.429 152.854C103.72 148.875 106.011 145.74 106.494 145.74C106.976 145.74 108.664 147.79 110.232 150.201ZM113.367 149.357C113.729 149.96 113.849 150.563 113.488 150.563C113.126 150.563 112.523 149.96 112.161 149.357C111.799 148.634 111.679 148.151 112.041 148.151C112.402 148.151 113.005 148.634 113.367 149.357ZM191.384 150.684C194.278 152.131 197.775 152.975 199.704 152.733C203.201 152.131 203.201 152.251 203.201 158.883C203.201 169.133 202.478 169.495 193.072 165.033L185.114 161.174V154.663C185.114 151.045 185.355 148.151 185.717 148.151C186.078 148.151 188.611 149.237 191.384 150.684ZM47.77 153.095L49.0964 155.627L51.7492 153.095C55.1255 149.96 55.6079 149.96 56.4519 153.095C56.9343 155.025 57.6578 155.386 59.7077 154.783C62.1193 153.939 62.3605 154.18 61.5164 158.039C60.3106 163.707 59.4665 164.671 58.3813 161.657C57.0549 158.16 54.1609 158.28 51.7492 162.018C49.5787 165.395 47.6494 165.998 47.6494 163.224C47.6494 162.139 46.2024 160.692 44.5142 159.968C41.8614 158.642 41.1379 158.763 39.6909 160.813C38.4851 162.501 38.0028 162.621 38.0028 161.295C38.0028 160.33 37.641 158.401 37.2793 156.833C36.5558 154.301 36.7969 154.18 39.6909 154.904C42.3437 155.507 43.0672 155.266 43.6702 153.095C44.5142 149.84 45.9612 149.84 47.77 153.095ZM92.265 160.813C95.2796 162.38 95.8825 163.465 95.8825 166.962C95.8825 170.339 95.5208 171.183 94.0738 170.7C93.1091 170.218 92.0239 170.459 91.6621 171.062C90.2151 173.353 88.6476 172.268 88.6476 169.133C88.6476 166.842 89.1299 166.118 90.4563 166.721C92.7474 167.565 92.868 164.551 90.5769 162.742C88.2858 160.813 86.2359 164.43 86.2359 170.339V174.559L79.3627 170.339C75.6246 168.048 72.1277 165.515 71.5248 164.792C71.0425 163.948 70.5601 160.451 70.5601 156.954V150.684L79.6038 154.783C84.5477 157.074 90.3357 159.848 92.265 160.813ZM242.27 152.372C243.114 154.663 245.888 154.663 247.817 152.372C249.264 150.684 249.746 150.804 252.158 153.095C254.57 155.266 255.293 155.507 256.861 154.18C259.875 151.648 260.478 153.939 257.705 156.954C256.258 158.521 255.052 160.813 255.052 162.139C254.931 164.189 254.811 164.309 253.484 162.38C251.676 160.089 245.405 160.813 245.405 163.345C245.405 166.118 242.873 166.601 242.15 163.948C241.185 160.451 236.241 159.366 233.347 162.018C232.021 163.224 230.935 164.671 230.935 165.274C230.935 167.083 234.915 166.239 236.482 164.189C237.809 162.26 238.05 162.26 239.497 165.395C240.582 167.927 241.788 168.65 243.838 168.409C245.405 168.168 246.732 167.445 246.732 166.842C246.732 166.118 247.335 164.912 248.058 164.068C249.143 162.862 249.867 162.983 251.555 164.551C254.449 167.203 257.464 165.877 257.464 162.018C257.464 160.33 258.066 159.004 258.669 159.004C259.393 159.004 259.875 160.571 259.875 162.621C259.875 167.927 255.896 169.977 244.923 170.097C239.979 170.218 234.312 169.495 232.262 168.65C228.524 167.203 227.438 164.671 229.729 163.224C230.453 162.742 230.694 161.898 230.212 161.295C229.85 160.692 229.971 160.21 230.574 160.33C232.985 160.813 233.226 159.968 231.538 157.316C229.368 154.06 231.056 151.769 233.95 154.18C235.879 155.869 238.17 154.783 238.17 152.251C238.17 149.96 241.305 150.081 242.27 152.372ZM115.779 152.975C116.14 153.578 116.261 154.18 115.899 154.18C115.538 154.18 114.935 153.578 114.573 152.975C114.211 152.251 114.091 151.769 114.452 151.769C114.814 151.769 115.417 152.251 115.779 152.975ZM137.242 165.033C132.781 171.786 125.908 180.709 124.943 180.709C123.737 180.709 115.176 162.38 115.176 159.848C115.176 158.763 117.587 157.677 121.567 156.833C132.54 154.422 132.54 154.422 135.916 158.28C139.051 161.898 139.051 162.139 137.242 165.033ZM166.182 168.409C168.594 173.474 170.644 178.056 170.644 178.538C170.644 179.382 155.45 184.326 152.918 184.326C151.712 184.326 142.186 162.983 143.03 162.139C143.754 161.536 155.209 159.366 158.586 159.124C161.238 159.004 162.203 160.33 166.182 168.409ZM179.929 162.26C183.426 163.345 186.32 164.792 186.32 165.274C186.32 166.721 178.723 178.418 176.191 181.07C174.985 182.156 173.538 183.12 172.935 183.12C171.367 183.12 171.609 179.744 173.297 179.262C174.261 178.9 173.658 176.85 171.488 172.991C167.629 166.118 167.629 165.395 170.282 162.38C172.694 159.727 171.97 159.727 179.929 162.26ZM110.955 165.998C109.75 167.203 109.026 167.445 109.388 166.842C109.75 166.118 110.352 164.551 110.955 163.224C111.558 161.536 112.041 161.295 112.402 162.38C112.764 163.345 112.041 164.912 110.955 165.998ZM117.949 173.715C121.446 181.915 121.808 183.844 120.12 184.809C119.517 185.291 116.985 182.035 114.573 177.694C111.076 171.303 110.473 169.374 111.558 167.927C112.402 167.083 113.367 166.239 113.849 166.239C114.332 166.239 116.14 169.615 117.949 173.715ZM194.158 168.289C198.137 170.218 199.704 172.268 197.172 172.268C196.569 172.268 195.966 174.68 195.966 177.574C195.966 183.12 196.328 182.638 186.923 188.667C184.632 190.114 184.511 189.994 184.993 184.688C185.234 180.468 184.993 179.382 183.787 179.744C182.702 180.106 182.099 182.276 182.099 185.894C182.099 188.908 181.376 192.164 180.532 193.008C179.446 194.093 179.085 193.129 179.085 188.064C179.085 182.638 179.808 180.588 184.149 173.956C186.923 169.736 189.334 166.239 189.575 166.239C189.696 166.239 191.746 167.203 194.158 168.289ZM145.201 175.644C146.768 179.503 147.733 184.809 147.733 189.029C147.733 195.058 147.371 196.143 145.321 196.746C143.995 197.108 142.91 198.314 142.91 199.399C142.91 201.208 142.548 201.208 141.101 200.002C139.534 198.676 138.689 198.917 136.278 201.208C133.504 203.74 133.022 203.861 130.128 202.414C126.993 200.725 121.928 190.717 121.928 186.135C121.808 184.447 122.772 183.603 125.184 183.362C128.44 183 128.44 183 128.44 190.838C128.44 195.179 129.043 199.037 129.646 199.399C130.369 199.881 130.852 197.108 130.852 192.044C130.852 184.567 131.334 183.12 135.795 175.644C138.569 171.062 141.222 167.806 141.825 168.289C142.307 168.771 143.874 172.147 145.201 175.644ZM66.5809 171.303C68.1485 172.75 69.3543 174.559 69.3543 175.282C69.3543 176.006 70.6807 177.935 72.2483 179.382C75.2629 182.276 77.7951 181.915 77.7951 178.779C77.7951 177.332 78.1568 177.332 80.2068 178.538C83.4625 180.588 83.2213 182.035 79.0009 186.135C75.504 189.511 74.1776 194.335 76.5893 195.782C77.4334 196.264 77.5539 205.669 76.7099 208.202C76.5893 208.322 73.3335 206.875 69.4749 204.825L62.2399 201.208L61.8782 185.894C61.3958 166.601 61.5164 166.48 66.5809 171.303ZM230.453 170.097L233.709 171.544L232.865 185.291C231.538 206.755 232.744 204.705 215.38 215.316C195.002 227.736 173.9 239.915 173.417 239.312C173.176 239.191 171.97 234.85 170.644 229.786C167.629 218.331 168.353 211.216 172.694 209.528C174.261 208.925 175.829 207.478 176.311 206.393C177.758 202.414 179.326 200.846 180.411 202.655C181.738 204.825 187.525 201.328 189.696 196.987C190.902 194.576 191.746 194.093 192.952 195.179C195.363 197.108 203.081 191.802 203.201 188.064C203.201 185.773 203.442 185.532 205.01 186.738C207.663 188.908 215.26 183.964 215.26 179.985C215.26 176.85 216.345 176.247 218.515 178.418C219.601 179.503 220.806 179.141 223.58 177.212C228.403 173.715 228.403 171.424 223.7 174.318C221.168 175.765 219.721 176.006 218.756 175.041C217.912 174.197 218.636 173.112 221.53 171.303C226.353 168.289 226.474 168.289 230.453 170.097ZM47.4082 172.268C49.8199 172.268 50.1816 172.63 49.0964 173.715C48.2523 174.559 47.6494 176.729 47.6494 178.659C47.6494 181.312 48.1317 182.035 49.8199 181.673C51.3875 181.312 51.7492 180.226 51.508 176.85C51.1463 172.991 51.508 172.388 54.7638 171.303C58.0195 170.097 58.5018 170.218 58.5018 172.147C58.5018 173.353 58.743 174.559 59.1048 174.921C59.4665 175.282 59.9488 181.432 59.9488 188.667L60.19 201.811L55.1255 202.896C49.217 204.102 42.4643 202.534 37.5204 198.676C33.9029 195.902 33.6618 193.129 35.7117 180.829C37.641 169.374 37.3999 169.736 41.0173 171.062C42.8261 171.786 45.5995 172.268 47.4082 172.268ZM110.955 176.127C112.885 179.623 116.502 185.653 119.034 189.511C121.567 193.37 123.375 196.987 123.014 197.47C122.17 198.917 109.388 202.655 108.061 201.931C107.097 201.328 92.1445 174.8 92.6268 174.68C92.7474 174.68 95.8825 173.594 99.5 172.268C103.118 171.062 106.494 169.977 106.856 169.977C107.217 169.856 109.147 172.75 110.955 176.127ZM262.528 184.688C265.422 196.987 265.543 198.434 263.975 200.967C261.202 205.066 255.052 207.237 245.646 207.237C234.312 207.237 233.347 206.393 234.673 195.782C235.156 191.079 235.638 183.964 235.638 179.744L235.759 172.268L244.561 172.147C249.264 172.147 254.328 171.665 255.655 171.183C256.981 170.58 258.308 170.459 258.669 170.7C259.031 170.942 260.719 177.332 262.528 184.688ZM202.719 172.871C203.684 175.282 202.237 180.709 200.79 180.709C200.066 180.709 199.584 178.538 199.584 175.885C199.584 171.062 201.393 169.374 202.719 172.871ZM132.057 177.694C132.057 178.056 131.816 178.297 131.454 178.297C131.093 178.297 130.852 178.056 130.852 177.694C130.852 177.332 131.093 177.091 131.454 177.091C131.816 177.091 132.057 177.332 132.057 177.694ZM213.571 178.418C214.898 180.709 210.557 183.723 205.854 183.723C202.237 183.723 201.272 184.206 201.031 186.256C200.548 189.994 196.328 193.611 194.64 191.923C192.711 189.994 187.525 192.526 187.525 195.179C187.525 198.193 184.39 200.364 181.496 199.399C178.723 198.555 174.261 201.57 174.261 204.343C174.261 205.187 172.694 206.875 170.764 207.96C168.715 209.166 167.509 210.613 167.87 211.216C170.162 214.954 155.45 221.586 147.974 220.139C140.981 218.813 138.81 218.089 137.001 216.281C134.71 213.99 136.278 212.422 138.81 214.592C140.498 215.919 140.86 215.798 141.825 214.11C143.392 211.457 144.96 211.457 145.924 214.351C146.286 215.678 147.492 217.004 148.457 217.366C150.868 218.331 154.968 216.039 154.968 213.869C154.968 212.904 156.053 212.06 157.38 212.06C158.706 212.06 159.791 211.457 159.791 210.854C159.791 210.131 158.224 209.649 156.295 209.649C153.401 209.649 152.677 210.252 152.074 213.507C151.23 217.245 151.109 217.366 149.542 215.195C148.577 213.869 147.733 212.06 147.733 211.216C147.733 209.407 142.186 209.046 141.101 210.854C139.775 213.025 137.845 212.181 138.689 209.769C139.051 208.443 138.81 207.116 138.087 206.634C135.795 205.187 136.881 203.619 140.257 203.619C142.307 203.619 144.116 202.655 145.201 200.967L146.889 198.314L147.854 200.967C149.06 204.343 153.28 204.464 154.365 201.208C155.33 198.193 157.38 198.073 158.224 201.087C158.947 203.74 161.721 205.308 162.806 203.499C163.288 202.896 164.132 202.655 164.735 203.137C165.459 203.619 165.218 204.946 164.132 206.634C162.685 208.805 162.685 209.649 163.771 210.01C165.459 210.613 168.112 207.478 168.232 204.584C168.232 202.775 190.781 187.944 205.01 180.588C212.124 176.729 212.486 176.729 213.571 178.418ZM98.053 190.355L104.444 201.69L104.082 218.933L103.72 236.177L99.3794 233.283L95.159 230.389L96.2443 220.863C97.5707 209.769 96.0031 202.052 92.0239 199.881C89.974 198.796 89.1299 199.037 86.9594 201.087C84.9095 203.137 84.3066 205.428 84.0654 213.266C83.7037 219.054 83.1007 222.913 82.2567 222.913C80.2068 222.913 76.5893 219.054 76.5893 217.004C76.5893 215.316 76.8304 215.316 77.7951 216.884C78.6392 218.089 79.0009 214.472 79.0009 205.549V192.405L84.5477 186.497C87.5623 183.362 89.6122 180.106 89.2505 179.503C88.7681 178.779 89.1299 178.418 90.0946 178.538C90.9386 178.779 94.5561 184.085 98.053 190.355ZM168.715 192.044C167.991 200.725 167.026 202.896 165.218 200.002C164.615 199.037 163.891 199.037 162.806 200.002C161.6 201.087 160.877 200.725 159.791 198.917C157.983 195.54 152.556 195.42 152.556 198.796C152.556 200.123 151.954 201.208 151.351 201.208C150.507 201.208 150.145 198.555 150.386 194.455L150.748 187.582L159.791 185.05C164.735 183.603 168.956 182.517 169.197 182.638C169.438 182.759 169.197 186.979 168.715 192.044ZM176.673 189.511C176.673 192.044 175.708 194.455 174.261 195.782C171.006 198.676 170.523 197.831 171.367 191.199C171.97 186.738 172.694 185.532 174.382 185.532C176.191 185.532 176.673 186.376 176.673 189.511ZM77.7951 193.37C77.7951 193.732 77.5539 193.973 77.1922 193.973C76.8304 193.973 76.5893 193.732 76.5893 193.37C76.5893 193.008 76.8304 192.767 77.1922 192.767C77.5539 192.767 77.7951 193.008 77.7951 193.37ZM128.199 203.619C130.972 204.946 133.263 206.634 133.263 207.237C133.263 208.925 131.696 208.805 129.887 206.996C128.802 205.911 128.44 206.031 128.44 207.719C128.44 210.613 124.34 209.769 123.737 206.634C123.496 205.308 122.411 203.619 121.326 202.775C118.07 200.243 122.411 200.846 128.199 203.619ZM94.0738 207.719C94.5561 209.89 94.4355 215.798 93.8326 220.863C92.868 229.907 92.868 229.907 90.3357 227.977C88.0446 226.048 87.9241 224.963 88.4064 214.713C88.8887 204.946 89.2505 203.619 91.1798 203.619C92.7474 203.619 93.5915 204.825 94.0738 207.719ZM115.899 205.549C115.538 206.634 115.176 213.025 115.176 220.019V232.439L111.558 234.368C109.629 235.333 107.941 236.177 107.7 236.177C107.458 236.177 107.338 229.424 107.217 221.104L107.097 206.152L110.232 204.946C115.055 203.258 116.743 203.378 115.899 205.549ZM121.928 208.081C122.772 211.096 125.425 214.351 127.355 214.472C127.837 214.472 128.44 213.387 128.802 211.94C129.766 208.081 132.299 209.769 133.866 215.316C135.072 219.416 135.072 222.189 133.504 230.63L131.696 241L127.355 238.347C121.567 234.85 115.899 230.148 117.467 230.148C118.311 230.148 118.793 225.686 118.793 217.486C118.793 205.187 120.24 200.967 121.928 208.081ZM136.278 208.443C136.64 209.046 136.76 209.649 136.398 209.649C136.037 209.649 135.434 209.046 135.072 208.443C134.71 207.719 134.59 207.237 134.951 207.237C135.313 207.237 135.916 207.719 136.278 208.443ZM168.715 231.956C170.403 238.83 171.85 245.582 171.85 246.909C171.85 253.179 157.018 259.088 147.251 256.676C134.107 253.3 132.781 250.767 135.434 233.283C137.363 221.345 137.725 220.38 139.895 220.983C141.222 221.225 144.236 222.069 146.527 222.551C149.662 223.395 152.556 223.154 157.38 221.586C160.997 220.501 164.374 219.536 164.735 219.416C165.218 219.295 166.906 224.963 168.715 231.956Z" fill="#C0C0C0"/>
<path d="M137.727 83.8863C137.245 84.248 136.883 87.2626 136.883 90.5183C136.883 96.3063 137.003 96.4269 140.259 96.0652C142.912 95.824 143.635 95.1005 143.877 91.8448C144.48 85.695 140.741 80.8717 137.727 83.8863ZM141.706 89.6743C141.706 91.9653 141.224 93.8947 140.5 93.8947C139.897 93.8947 139.294 91.9653 139.294 89.6743C139.294 87.3832 139.897 85.4539 140.5 85.4539C141.224 85.4539 141.706 87.3832 141.706 89.6743Z" fill="#84F8FF"/>
<path d="M172.335 112.462C171.974 113.306 171.853 116.441 172.094 119.335L172.577 124.641L174.626 120.058C176.194 116.682 176.435 114.994 175.471 113.185C173.903 110.291 173.179 110.171 172.335 112.462Z" fill="#EFFF8D"/>
<path d="M176.676 136.703C176.676 140.682 177.158 142.129 178.485 142.129C179.57 142.129 180.293 141.044 180.293 139.356C180.293 137.909 180.655 135.497 181.017 133.929C181.62 131.759 181.258 131.276 179.208 131.276C177.038 131.276 176.676 132 176.676 136.703Z" fill="#EFFF8D"/>
<path d="M167.023 139.717C167.023 145.987 168.591 147.796 169.917 142.973C171.244 138.029 170.762 133.688 168.832 133.688C167.506 133.688 167.023 135.135 167.023 139.717Z" fill="#EFFF8D"/>
<path d="M109.388 120.305C108.062 121.15 108.183 127.54 109.75 130.073C111.438 132.846 112.765 131.037 112.765 125.973C112.765 120.305 111.8 118.738 109.388 120.305Z" fill="#EFFF8D"/>
<path d="M132.538 133.931C130.85 136.343 131.212 144.904 133.021 145.386C134.106 145.748 134.468 144.06 134.468 139.237C134.468 132.122 134.227 131.519 132.538 133.931Z" fill="#EFFF8D"/>
<path d="M147.978 137.547C148.219 141.285 148.942 142.852 150.51 143.094C152.198 143.455 152.56 142.611 152.56 138.029C152.56 133.206 152.198 132.482 150.028 132.482C147.857 132.482 147.616 133.085 147.978 137.547Z" fill="#EFFF8D"/>
<path d="M214.051 141.527C214.051 145.506 214.533 146.953 215.86 146.953C217.186 146.953 217.668 145.506 217.668 141.527C217.668 137.548 217.186 136.101 215.86 136.101C214.533 136.101 214.051 137.548 214.051 141.527Z" fill="#EFFF8D"/>
<path d="M220.563 152.255C219.237 155.752 220.684 162.022 222.854 162.384C224.542 162.746 224.904 161.902 224.904 156.717C224.904 152.014 224.422 150.567 223.095 150.567C222.01 150.567 220.925 151.29 220.563 152.255Z" fill="#EFFF8D"/>
<path d="M210.075 156.238C209.592 156.599 209.23 159.132 209.23 161.664C209.23 165.402 209.592 166.246 211.642 166.246C213.692 166.246 214.054 165.402 214.054 160.82C214.054 155.635 212.366 153.826 210.075 156.238Z" fill="#EFFF8D"/>
<path d="M104.324 155.512C104.324 161.782 107.218 161.3 107.701 155.03C107.942 151.653 107.58 150.568 106.254 150.568C104.807 150.568 104.324 151.894 104.324 155.512Z" fill="#EFFF8D"/>
<path d="M191.991 157.684C191.388 160.337 191.991 161.422 194.403 161.422C195.247 161.422 195.97 160.095 195.97 158.407C195.97 154.79 192.956 154.307 191.991 157.684Z" fill="#EFFF8D"/>
<path d="M73.212 159.851C73.4532 161.901 74.4178 163.347 75.7442 163.589C77.553 163.95 77.9147 163.347 77.553 160.574C77.3118 158.524 76.3471 157.077 75.0207 156.836C73.212 156.474 72.8502 157.077 73.212 159.851Z" fill="#EFFF8D"/>
<path d="M80.4486 162.868C80.9309 168.415 83.8249 168.777 83.8249 163.351C83.8249 160.216 83.3426 159.01 81.8956 159.01C80.5692 159.01 80.2074 159.974 80.4486 162.868Z" fill="#EFFF8D"/>
<path d="M189.454 172.514C189.092 174.081 188.73 176.854 188.73 178.663C188.73 183.848 191.624 182.04 192.107 176.493C192.589 171.187 190.66 168.293 189.454 172.514Z" fill="#EFFF8D"/>
<path d="M137.727 179.028C137.245 179.51 136.883 181.198 136.883 182.766C136.883 184.816 137.606 185.539 139.415 185.539C141.344 185.539 141.827 184.936 141.465 182.283C141.103 179.148 139.294 177.581 137.727 179.028Z" fill="#EFFF8D"/>
<path d="M243.237 176.135C240.825 178.547 241.428 183.129 244.201 183.129C246.01 183.129 246.613 182.285 246.613 179.632C246.613 175.532 245.166 174.206 243.237 176.135Z" fill="#EFFF8D"/>
<path d="M158.948 213.875C157.862 216.889 159.189 217.13 162.324 214.598L165.218 212.186L162.445 212.066C160.998 212.066 159.43 212.91 158.948 213.875Z" fill="#C0C0C0"/>
<path d="M87.9254 188.549C87.2019 191.563 89.9753 196.387 92.5075 196.387C93.8339 196.387 93.7134 190.719 92.2664 187.825C90.4576 184.69 88.89 184.931 87.9254 188.549ZM89.8547 190.96C89.8547 191.322 89.6135 191.563 89.2518 191.563C88.89 191.563 88.6489 191.322 88.6489 190.96C88.6489 190.599 88.89 190.358 89.2518 190.358C89.6135 190.358 89.8547 190.599 89.8547 190.96Z" fill="#EFFF8D"/>
<path d="M149.178 229.189C149.419 231.721 150.143 233.168 151.349 233.168C152.434 233.168 153.157 231.721 153.399 229.189C153.64 226.054 153.278 225.33 151.228 225.33C149.178 225.33 148.816 225.933 149.178 229.189Z" fill="#EFFF8D"/>
</g>
<defs>
<filter id="filter0_d_939_5480" x="0.76215" y="0.824054" width="298.339" height="292.273" filterUnits="userSpaceOnUse" color-interpolation-filters="sRGB">
<feFlood flood-opacity="0" result="BackgroundImageFix"/>
<feColorMatrix in="SourceAlpha" type="matrix" values="0 0 0 0 0 0 0 0 0 0 0 0 0 0 0 0 0 0 127 0" result="hardAlpha"/>
<feOffset dy="2.0619"/>
<feGaussianBlur stdDeviation="15.6189"/>
<feComposite in2="hardAlpha" operator="out"/>
<feColorMatrix type="matrix" values="0 0 0 0 0.429375 0 0 0 0 0.954167 0 0 0 0 0.881279 0 0 0 0.66 0"/>
<feBlend mode="normal" in2="BackgroundImageFix" result="effect1_dropShadow_939_5480"/>
<feBlend mode="normal" in="SourceGraphic" in2="effect1_dropShadow_939_5480" result="shape"/>
</filter>
</defs>
</svg>
