<svg width="100%" height="100%" viewBox="0 0 120 175" fill="none" xmlns="http://www.w3.org/2000/svg">
<path d="M38.8397 6.05327C38.8397 14.442 32.286 15.2284 30.1888 7.36401C28.8781 2.64537 27.3052 2.12106 21.2758 3.43181C17.3436 4.48039 11.0521 7.10187 7.64417 9.46118C1.87693 13.1312 1.61478 14.442 3.18767 29.6465C5.0227 44.851 7.11987 48.5211 17.3436 54.5505C19.9651 55.8612 18.1301 66.3471 10.0035 101.737C3.97411 126.641 -0.482392 149.448 0.0419024 152.593C2.13908 166.749 34.121 176.973 68.4623 174.614C93.1041 173.041 118.27 162.031 119.581 152.593C120.105 149.448 115.649 127.165 109.882 103.048L99.1335 59.007L106.736 52.4533C115.649 44.3268 122.727 17.8499 117.484 11.5584C112.241 5.26683 99.3956 3.9561 94.9391 9.46118C92.0555 12.8691 90.4826 13.3934 89.4341 10.7719C84.7154 -1.02469 72.6566 -3.64616 68.2001 6.31543C64.5301 14.442 60.3357 14.7041 59.2871 6.83972C58.7628 2.12106 56.6657 0.810333 48.8013 0.286041C39.6261 -0.500397 38.8397 0.0238953 38.8397 6.05327ZM53.7821 12.8691C55.6171 20.2092 68.7244 19.9471 73.9674 12.3448C76.3267 9.19904 78.4239 7.10187 78.686 7.88831C79.2103 8.4126 80.7832 11.2962 82.3561 14.1798C86.0261 20.7335 94.677 22.3064 99.1335 16.8013C100.969 14.7041 104.114 12.8691 106.474 12.8691C109.095 12.8691 108.571 14.7041 103.852 18.8985C97.5606 24.6657 95.4634 25.19 71.3459 24.1414C56.9278 23.6171 43.034 23.0928 40.1504 22.8307C37.2668 22.8307 32.286 23.6171 29.1402 24.6657C24.6837 25.9765 23.1108 25.4522 23.1108 22.5685C23.1108 20.4714 19.9651 17.8499 16.0329 16.8013L8.69276 14.9663L15.2464 12.3448C20.2272 10.5098 22.3244 11.0341 25.7323 15.2284C30.9753 21.7821 44.0826 19.9471 44.0826 12.6069C44.0826 6.05327 51.947 6.31543 53.7821 12.8691ZM16.8193 31.7437C18.9165 38.5595 21.0137 40.6567 26.5188 41.181C32.0238 41.9674 34.121 40.6567 36.2182 35.1516C39.6261 25.9765 47.7527 27.2872 48.8013 37.2488C49.5877 43.5403 50.8984 44.3268 58.7628 44.3268C66.6273 44.3268 68.4623 43.2782 70.5595 36.4623C73.9674 26.7629 79.9968 26.2386 82.3561 35.4137C83.929 41.181 85.2397 41.9674 93.3663 41.181C101.493 40.3945 103.066 39.3459 104.901 31.7437C108.046 19.9471 112.241 20.9957 109.357 33.0544C108.046 38.5595 106.998 43.8025 106.998 44.5889C106.736 52.4533 49.0634 56.3855 26.2566 49.8318C14.9843 46.6861 10.0035 40.1324 10.0035 28.3358C10.0035 20.4714 14.1978 22.5685 16.8193 31.7437ZM29.6645 33.5787C28.8781 35.1516 26.7809 35.6759 25.208 34.8895C23.6351 33.8409 23.8973 32.5301 25.9945 30.9572C30.1888 28.3358 32.0238 29.9087 29.6645 33.5787ZM64.2679 34.8895C62.695 39.3459 56.1414 38.2974 55.0928 33.3166C54.5685 30.1708 55.6171 29.3844 59.8114 30.433C62.695 31.2194 64.7922 33.3166 64.2679 34.8895ZM97.8228 33.8409C97.0363 35.1516 94.4148 36.4623 92.3177 36.4623C90.2205 36.4623 88.6476 35.1516 88.6476 33.8409C88.6476 32.268 91.0069 31.2194 94.1527 31.2194C97.0363 31.2194 98.6092 32.268 97.8228 33.8409ZM63.4815 60.0556H93.1041L103.59 105.145C113.027 146.04 113.552 151.021 110.144 155.215C104.639 161.506 82.8804 167.536 65.8408 167.536H51.947V147.875C51.947 130.049 51.4227 127.952 45.6555 124.019C39.8883 120.612 38.0532 120.349 31.7617 123.495C26.2566 126.117 23.1108 130.573 19.1786 142.894C15.7707 153.118 12.625 158.361 10.7899 157.836C5.54699 156.001 6.33343 148.661 17.0815 101.213C24.4216 68.4443 27.8295 57.6963 30.451 58.7448C32.5481 59.5313 47.2284 60.0556 63.4815 60.0556ZM32.5481 137.913C29.9267 140.535 27.5673 136.603 29.9267 133.195C31.4995 130.311 32.0238 130.311 33.0724 133.195C33.5967 135.03 33.3346 137.127 32.5481 137.913ZM44.3448 136.865C44.0826 140.01 40.4125 139.224 39.364 135.816C38.5775 134.243 39.6261 133.195 41.4611 133.719C43.034 134.505 44.3448 135.816 44.3448 136.865ZM30.9753 147.875C30.9753 149.972 29.9267 151.807 28.3538 151.807C27.0431 151.807 25.7323 149.972 25.7323 147.875C25.7323 145.778 27.0431 143.943 28.3538 143.943C29.9267 143.943 30.9753 145.778 30.9753 147.875ZM44.0826 150.496C44.0826 152.856 42.5097 153.642 40.1504 152.856C38.0532 151.807 36.2182 150.234 36.2182 148.923C36.2182 147.613 38.0532 146.564 40.1504 146.564C42.2476 146.564 44.0826 148.399 44.0826 150.496ZM28.3538 160.982C28.3538 163.342 26.7809 164.128 24.4216 163.342C22.3244 162.293 21.2758 160.72 22.0623 159.409C24.1594 155.739 28.3538 156.788 28.3538 160.982ZM44.0826 163.866C44.0826 168.322 38.3154 167.536 36.7425 162.817C36.2182 160.982 37.5289 159.671 39.8883 159.671C42.2476 159.671 44.0826 161.506 44.0826 163.866Z" fill="white"/>
<path d="M35.4351 84.1669C32.2893 95.1771 33.3379 96.75 42.5131 96.75C50.1153 96.75 51.4261 95.7014 52.7368 89.4099C54.3097 81.0212 54.834 81.5455 44.8724 79.4483C38.0566 78.1376 36.7458 78.924 35.4351 84.1669ZM46.7074 89.1477C46.7074 90.4585 45.6588 91.5071 44.0859 91.5071C42.7752 91.5071 41.4645 89.672 41.4645 87.3127C41.4645 85.2155 42.7752 84.1669 44.0859 84.9534C45.6588 85.7398 46.7074 87.5749 46.7074 89.1477Z" fill="#FDFF85"/>
<path d="M77.637 80.4902C72.6562 81.0145 70.2969 82.8496 70.2969 86.2575C70.2969 95.6948 72.9183 98.5784 80.7828 97.2677C86.8121 96.4812 88.6472 94.6462 88.6472 90.4518C88.6472 82.3253 85.5014 79.7038 77.637 80.4902ZM83.4042 88.8789C83.4042 90.1897 81.5692 91.5004 79.2099 91.5004C77.1127 91.5004 76.0641 90.1897 76.8506 88.8789C77.637 87.3061 79.472 86.2575 81.0449 86.2575C82.3556 86.2575 83.4042 87.3061 83.4042 88.8789Z" fill="#FDFF85"/>
</svg>
