<svg width="300" height="100%" viewBox="0 0 300 294" fill="none" xmlns="http://www.w3.org/2000/svg">
<g filter="url(#filter0_d_2118_6442)">
<path d="M134.469 32.032C134.469 35.5289 136.157 37.2171 138.087 36.0112C139.051 35.2878 141.222 34.8054 142.789 34.8054C145.201 34.8054 145.442 35.0466 144.116 36.6142C143.272 37.6994 141.463 38.3023 140.016 38.1817C137.845 37.82 137.363 38.6641 136.64 43.2462C135.434 51.687 133.866 56.9927 129.766 65.6746C125.908 73.7537 125.064 78.2152 127.234 78.2152C127.958 78.2152 128.44 81.5916 128.44 86.0531V93.7704L123.375 95.0968C110.232 98.3526 110.352 98.3526 103.238 112.581C99.2589 120.66 97.3295 125.966 98.1736 126.207C98.8971 126.448 99.5 128.257 99.5 130.186V133.683L93.2297 131.151C79.2421 125.484 79.9656 125.604 78.5186 128.137C77.7951 129.463 74.9011 133.925 72.1277 138.145L67.0632 145.862L68.3896 156.715L69.7161 167.567L75.2629 170.702C85.1507 176.249 86.3565 177.214 85.5124 178.42C85.0301 179.143 83.8242 178.902 82.2567 177.696C78.0363 174.682 76.3481 174.199 75.3834 175.887C74.7805 176.852 73.5747 177.093 72.2483 176.611C70.319 175.887 70.319 175.646 71.766 174.561C73.3335 173.596 73.0924 173.114 70.5601 171.064C68.872 169.738 67.0632 168.652 66.5809 168.652C65.978 168.652 65.978 167.567 66.3397 166.241C67.1838 163.467 65.4957 162.985 63.3252 165.638C60.9135 168.532 48.8552 171.426 45.5995 169.979C44.0319 169.255 41.6202 168.652 40.4144 168.652C39.088 168.652 37.5204 167.567 36.7969 166.241C35.4705 163.829 37.1587 162.623 38.6057 165.035C39.8115 167.085 41.6202 166.361 42.8261 163.467C43.429 162.02 43.9113 161.538 43.9113 162.261C44.0319 163.106 45.1172 164.914 46.5641 166.361C48.9758 168.773 49.217 168.773 51.3875 166.723C52.5933 165.638 53.6785 163.95 53.6785 162.985C53.6785 162.141 54.2814 161.417 54.8844 161.417C55.6079 161.417 56.0902 162.141 56.0902 163.106C56.0902 166 58.5018 166.602 60.9135 164.432C65.3751 160.332 65.4957 149.721 60.9135 151.168C59.5871 151.53 58.5018 151.168 58.0195 149.962C57.1754 147.55 52.8345 147.671 51.508 150.083C50.5434 151.771 50.3022 151.771 48.9758 150.083C46.6847 147.309 42.8261 147.671 42.8261 150.565C42.8261 152.735 42.5849 152.856 40.2938 151.53C38.2439 150.203 37.641 150.324 36.194 152.253C33.9029 155.268 32.6971 164.191 34.1441 166.964C34.9882 168.532 34.8676 171.908 33.6618 177.696C31.1295 190.598 31.4913 196.748 34.747 199.642C41.2585 205.671 50.061 207.601 58.1401 204.827C61.1547 203.742 62.7222 204.104 69.7161 208.083C77.1922 212.183 79.6038 214.474 76.5893 214.474C74.5394 214.474 75.2629 221.227 77.5539 223.276C78.7598 224.482 80.0862 225.326 80.5685 225.326C80.9303 225.326 86.3565 228.341 92.5062 232.079C98.6559 235.817 103.962 239.073 104.323 239.193C104.685 239.435 107.7 238.59 111.076 237.505L117.226 235.335L123.737 239.193C128.44 241.846 130.249 243.775 130.369 245.705C130.49 247.152 132.54 250.528 135.072 253.06C141.342 259.451 150.386 261.381 160.515 258.487C169.679 255.834 174.261 251.613 174.261 245.825C174.261 241.726 174.623 241.364 183.064 237.143C187.767 234.732 200.91 227.135 212.124 220.262L232.623 207.601L238.411 209.409C243.114 210.736 245.888 210.856 251.676 209.771C259.755 208.324 263.734 206.274 266.628 201.813C268.437 198.919 268.437 198.075 265.422 186.137C263.372 177.696 262.287 170.341 262.287 163.829C262.287 153.459 260.719 149.962 256.619 150.806C255.414 151.047 253.484 150.203 252.399 149.118C249.746 146.465 246.611 146.345 246.611 148.756C246.611 150.927 245.164 151.047 243.235 149.118C242.391 148.274 240.823 147.55 239.738 147.55C237.809 147.55 222.736 129.463 222.615 126.931C222.495 126.207 221.53 124.76 220.445 123.796C218.033 121.746 201.754 115.596 198.74 115.596C197.775 115.596 195.002 117.646 192.831 120.057C190.299 122.831 188.731 123.796 188.731 122.71C188.731 121.625 185.717 114.39 182.099 106.432L175.467 92.0823L169.197 91.2382C165.7 90.7559 160.515 90.0324 157.742 89.6706L152.556 88.9471V82.918C152.556 79.5417 153.159 75.8036 153.762 74.4772C154.606 72.9096 154.606 72.1861 153.762 72.1861C153.159 72.1861 152.556 71.7038 152.556 70.9803C152.556 70.3774 149.542 64.4688 145.924 58.0779C142.307 51.5664 139.292 45.1756 139.292 43.8491C139.292 42.161 140.86 40.714 144.719 39.0258C151.833 35.8907 151.712 33.8408 144.116 32.8761C140.739 32.3938 137.725 31.5497 137.363 31.0674C136.278 29.2586 134.469 29.8615 134.469 32.032ZM145.201 62.0571C148.577 68.448 151.351 73.8743 151.351 74.1154C151.351 75.5624 142.548 78.2152 137.484 78.2152C128.319 78.2152 127.958 77.13 132.781 65.9158C135.072 60.6102 136.881 54.9427 136.881 53.3752C136.881 48.0695 139.051 50.3606 145.201 62.0571ZM150.265 82.6768C150.265 85.209 150.507 89.1883 150.748 91.4794C151.471 98.232 149.421 103.055 144.719 105.226C139.895 107.517 137.363 106.673 133.384 101.608C131.334 98.9555 130.852 96.6644 130.852 89.55V80.6269H137.966C141.945 80.6269 145.563 80.024 145.924 79.4211C147.733 76.5271 150.145 78.3358 150.265 82.6768ZM164.856 93.5293C168.956 93.891 171.85 94.8557 171.85 95.6998C171.85 97.3879 166.785 112.461 163.168 121.625C161.721 125.243 160.394 128.378 160.394 128.498C160.033 129.342 143.272 123.554 141.704 122.107C140.739 121.143 140.498 120.419 141.222 120.419C141.945 120.419 142.548 118.128 142.789 115.234C143.03 111.014 143.754 109.446 147.854 105.949C151.712 102.573 152.918 100.644 153.401 96.5438C153.883 92.5646 154.486 91.4794 155.933 92.0823C156.897 92.444 160.997 93.0469 164.856 93.5293ZM130.128 101.126C131.093 104.382 132.66 105.949 136.519 107.758C140.498 109.567 141.463 110.652 141.101 112.581C140.86 113.908 140.378 116.922 140.016 119.213C139.413 122.831 138.328 123.916 132.54 126.931C128.681 128.981 125.425 129.945 124.822 129.342C123.255 127.654 111.558 104.382 111.558 102.694C111.558 101.247 125.425 96.1821 127.716 96.785C128.319 96.9056 129.405 98.8349 130.128 101.126ZM178.361 110.17C180.17 114.752 182.461 120.419 183.546 122.59C185.234 126.087 185.355 127.775 184.149 137.18C183.305 143.089 182.702 150.686 182.702 154.062C182.702 159.488 182.461 160.332 180.652 159.729C173.417 157.559 172.332 157.679 169.559 160.694L166.665 163.829L164.977 160.694C163.891 158.523 163.409 152.735 163.409 142.727C163.409 129.101 163.65 127.051 166.906 118.972C168.835 114.149 170.764 108.482 171.247 106.552C173.176 97.6291 173.779 97.9908 178.361 110.17ZM115.779 117.646C118.19 122.831 121.446 128.739 123.134 130.91C126.028 134.769 126.149 135.251 124.822 144.053C122.893 158.523 122.29 158.644 113.97 146.224C110.594 141.28 106.494 136.577 104.806 135.854C100.585 133.925 101.068 128.137 106.253 117.284C108.544 112.34 110.714 108.361 110.955 108.361C111.076 108.361 113.246 112.581 115.779 117.646ZM184.752 118.852C184.27 119.213 183.908 118.852 183.908 118.008C183.908 117.163 184.27 116.802 184.752 117.163C185.114 117.646 185.114 118.369 184.752 118.852ZM103.118 118.61C103.118 118.972 102.876 119.213 102.515 119.213C102.153 119.213 101.912 118.972 101.912 118.61C101.912 118.249 102.153 118.008 102.515 118.008C102.876 118.008 103.118 118.249 103.118 118.61ZM204.407 118.61C204.407 118.972 204.166 119.213 203.804 119.213C203.442 119.213 203.201 118.972 203.201 118.61C203.201 118.249 203.442 118.008 203.804 118.008C204.166 118.008 204.407 118.249 204.407 118.61ZM210.195 124.881C212.124 125.725 211.401 128.137 205.372 140.074C202.84 145.259 199.946 149.721 199.101 150.083C197.413 150.686 189.455 147.912 186.923 145.742C184.632 143.812 187.405 132.719 191.866 125.604L195.966 119.213L202.237 121.746C205.733 123.193 209.351 124.519 210.195 124.881ZM210.557 121.143C212.607 122.107 213.933 123.313 213.571 123.675C213.21 124.037 211.16 123.193 208.989 121.746C204.286 118.852 205.372 118.369 210.557 121.143ZM187.525 122.228C187.525 122.59 187.284 122.831 186.923 122.831C186.561 122.831 186.32 122.59 186.32 122.228C186.32 121.866 186.561 121.625 186.923 121.625C187.284 121.625 187.525 121.866 187.525 122.228ZM154.606 129.584L161.118 131.633L160.756 143.812L160.394 155.991L154.365 157.318C147.251 159.006 140.136 159.368 140.981 158.041C142.186 155.991 143.151 128.86 141.945 128.86C140.257 128.86 139.172 133.683 140.86 133.804C141.825 133.804 141.825 134.045 140.86 134.527C140.016 134.769 139.292 135.854 139.292 136.819C139.292 137.783 140.016 138.507 140.86 138.507C141.945 138.507 141.945 138.748 140.739 139.592C139.775 140.074 139.172 141.28 139.292 142.245C139.413 143.209 139.534 147.189 139.413 151.168L139.172 158.403L136.76 155.027C134.59 152.133 133.746 151.771 129.887 152.494C126.028 153.218 125.787 153.097 126.631 151.047C127.113 149.841 127.837 144.898 128.078 140.195L128.681 131.633L133.746 129.101C139.413 126.328 144.719 126.448 154.606 129.584ZM220.203 127.534C220.686 127.654 221.409 128.619 221.771 129.704C222.495 131.513 222.253 131.513 220.083 129.463C216.104 125.845 217.309 129.101 223.459 138.024C226.594 142.606 230.574 147.068 232.503 147.912C234.312 148.756 235.759 150.324 235.759 151.288C235.759 152.735 235.397 152.735 233.226 151.53C231.176 150.203 230.574 150.324 229.006 152.253C228.041 153.58 227.318 156.956 227.318 159.729C227.318 163.708 226.715 165.397 224.544 167.085C219.359 171.064 205.854 177.696 204.769 176.731C204.286 176.129 204.407 175.405 205.131 174.923C206.095 174.32 206.216 170.099 205.492 161.417L204.648 148.756L209.592 137.663C213.692 128.137 214.898 126.569 216.948 127.051C218.395 127.292 219.842 127.534 220.203 127.534ZM91.5415 133.08C96.7266 135.372 101.55 137.301 102.394 137.301C103.118 137.301 104.444 137.904 105.167 138.627C106.132 139.592 104.926 142.486 100.465 149.48C97.2089 154.665 94.1944 159.006 93.9532 159.006C93.712 159.006 88.0446 156.353 81.4126 152.977L69.4749 146.947L74.7805 139.23C77.7951 135.01 80.2068 130.91 80.2068 130.186C80.2068 128.137 81.5332 128.498 91.5415 133.08ZM228.524 139.23C231.297 142.848 233.347 146.224 232.985 146.586C232.623 146.827 230.091 143.812 227.438 139.833C224.665 135.733 222.615 132.478 222.856 132.478C223.218 132.478 225.75 135.492 228.524 139.23ZM110.352 145.139C110.352 145.5 110.111 145.742 109.75 145.742C109.388 145.742 109.147 145.5 109.147 145.139C109.147 144.777 109.388 144.536 109.75 144.536C110.111 144.536 110.352 144.777 110.352 145.139ZM110.232 150.203L113.005 154.544L110.232 160.453C107.579 166.241 103.118 169.858 98.8971 169.858C95.2796 169.858 96.606 160.694 101.429 152.856C103.72 148.877 106.011 145.742 106.494 145.742C106.976 145.742 108.664 147.792 110.232 150.203ZM113.367 149.359C113.729 149.962 113.849 150.565 113.488 150.565C113.126 150.565 112.523 149.962 112.161 149.359C111.799 148.636 111.679 148.153 112.041 148.153C112.402 148.153 113.005 148.636 113.367 149.359ZM191.384 150.686C194.278 152.133 197.775 152.977 199.704 152.735C203.201 152.133 203.201 152.253 203.201 158.885C203.201 169.135 202.478 169.496 193.072 165.035L185.114 161.176V154.665C185.114 151.047 185.355 148.153 185.717 148.153C186.078 148.153 188.611 149.239 191.384 150.686ZM47.77 153.097L49.0964 155.629L51.7492 153.097C55.1255 149.962 55.6079 149.962 56.4519 153.097C56.9343 155.027 57.6578 155.388 59.7077 154.785C62.1193 153.941 62.3605 154.182 61.5164 158.041C60.3106 163.708 59.4665 164.673 58.3813 161.659C57.0549 158.162 54.1609 158.282 51.7492 162.02C49.5787 165.397 47.6494 166 47.6494 163.226C47.6494 162.141 46.2024 160.694 44.5142 159.97C41.8614 158.644 41.1379 158.765 39.6909 160.814C38.4851 162.503 38.0028 162.623 38.0028 161.297C38.0028 160.332 37.641 158.403 37.2793 156.835C36.5558 154.303 36.7969 154.182 39.6909 154.906C42.3437 155.509 43.0672 155.268 43.6702 153.097C44.5142 149.841 45.9612 149.841 47.77 153.097ZM92.265 160.814C95.2796 162.382 95.8825 163.467 95.8825 166.964C95.8825 170.341 95.5208 171.185 94.0738 170.702C93.1091 170.22 92.0239 170.461 91.6621 171.064C90.2151 173.355 88.6476 172.27 88.6476 169.135C88.6476 166.844 89.1299 166.12 90.4563 166.723C92.7474 167.567 92.868 164.553 90.5769 162.744C88.2858 160.814 86.2359 164.432 86.2359 170.341V174.561L79.3627 170.341C75.6246 168.049 72.1277 165.517 71.5248 164.794C71.0425 163.95 70.5601 160.453 70.5601 156.956V150.686L79.6038 154.785C84.5477 157.076 90.3357 159.85 92.265 160.814ZM242.27 152.374C243.114 154.665 245.888 154.665 247.817 152.374C249.264 150.686 249.746 150.806 252.158 153.097C254.57 155.268 255.293 155.509 256.861 154.182C259.875 151.65 260.478 153.941 257.705 156.956C256.258 158.523 255.052 160.814 255.052 162.141C254.931 164.191 254.811 164.311 253.484 162.382C251.676 160.091 245.405 160.814 245.405 163.347C245.405 166.12 242.873 166.602 242.15 163.95C241.185 160.453 236.241 159.368 233.347 162.02C232.021 163.226 230.935 164.673 230.935 165.276C230.935 167.085 234.915 166.241 236.482 164.191C237.809 162.261 238.05 162.261 239.497 165.397C240.582 167.929 241.788 168.652 243.838 168.411C245.405 168.17 246.732 167.447 246.732 166.844C246.732 166.12 247.335 164.914 248.058 164.07C249.143 162.864 249.867 162.985 251.555 164.553C254.449 167.205 257.464 165.879 257.464 162.02C257.464 160.332 258.066 159.006 258.669 159.006C259.393 159.006 259.875 160.573 259.875 162.623C259.875 167.929 255.896 169.979 244.923 170.099C239.979 170.22 234.312 169.496 232.262 168.652C228.524 167.205 227.438 164.673 229.729 163.226C230.453 162.744 230.694 161.9 230.212 161.297C229.85 160.694 229.971 160.212 230.574 160.332C232.985 160.814 233.226 159.97 231.538 157.318C229.368 154.062 231.056 151.771 233.95 154.182C235.879 155.871 238.17 154.785 238.17 152.253C238.17 149.962 241.305 150.083 242.27 152.374ZM115.779 152.977C116.14 153.58 116.261 154.182 115.899 154.182C115.538 154.182 114.935 153.58 114.573 152.977C114.211 152.253 114.091 151.771 114.452 151.771C114.814 151.771 115.417 152.253 115.779 152.977ZM137.242 165.035C132.781 171.788 125.908 180.711 124.943 180.711C123.737 180.711 115.176 162.382 115.176 159.85C115.176 158.765 117.587 157.679 121.567 156.835C132.54 154.424 132.54 154.424 135.916 158.282C139.051 161.9 139.051 162.141 137.242 165.035ZM166.182 168.411C168.594 173.476 170.644 178.058 170.644 178.54C170.644 179.384 155.45 184.328 152.918 184.328C151.712 184.328 142.186 162.985 143.03 162.141C143.754 161.538 155.209 159.368 158.586 159.126C161.238 159.006 162.203 160.332 166.182 168.411ZM179.929 162.261C183.426 163.347 186.32 164.794 186.32 165.276C186.32 166.723 178.723 178.42 176.191 181.072C174.985 182.158 173.538 183.122 172.935 183.122C171.367 183.122 171.609 179.746 173.297 179.264C174.261 178.902 173.658 176.852 171.488 172.993C167.629 166.12 167.629 165.397 170.282 162.382C172.694 159.729 171.97 159.729 179.929 162.261ZM110.955 166C109.75 167.205 109.026 167.447 109.388 166.844C109.75 166.12 110.352 164.553 110.955 163.226C111.558 161.538 112.041 161.297 112.402 162.382C112.764 163.347 112.041 164.914 110.955 166ZM117.949 173.717C121.446 181.916 121.808 183.846 120.12 184.81C119.517 185.293 116.985 182.037 114.573 177.696C111.076 171.305 110.473 169.376 111.558 167.929C112.402 167.085 113.367 166.241 113.849 166.241C114.332 166.241 116.14 169.617 117.949 173.717ZM194.158 168.291C198.137 170.22 199.704 172.27 197.172 172.27C196.569 172.27 195.966 174.682 195.966 177.576C195.966 183.122 196.328 182.64 186.923 188.669C184.632 190.116 184.511 189.996 184.993 184.69C185.234 180.469 184.993 179.384 183.787 179.746C182.702 180.108 182.099 182.278 182.099 185.896C182.099 188.91 181.376 192.166 180.532 193.01C179.446 194.095 179.085 193.131 179.085 188.066C179.085 182.64 179.808 180.59 184.149 173.958C186.923 169.738 189.334 166.241 189.575 166.241C189.696 166.241 191.746 167.205 194.158 168.291ZM145.201 175.646C146.768 179.505 147.733 184.81 147.733 189.031C147.733 195.06 147.371 196.145 145.321 196.748C143.995 197.11 142.91 198.316 142.91 199.401C142.91 201.21 142.548 201.21 141.101 200.004C139.534 198.678 138.689 198.919 136.278 201.21C133.504 203.742 133.022 203.863 130.128 202.416C126.993 200.727 121.928 190.719 121.928 186.137C121.808 184.449 122.772 183.605 125.184 183.363C128.44 183.002 128.44 183.002 128.44 190.84C128.44 195.181 129.043 199.039 129.646 199.401C130.369 199.883 130.852 197.11 130.852 192.045C130.852 184.569 131.334 183.122 135.795 175.646C138.569 171.064 141.222 167.808 141.825 168.291C142.307 168.773 143.874 172.149 145.201 175.646ZM66.5809 171.305C68.1485 172.752 69.3543 174.561 69.3543 175.284C69.3543 176.008 70.6807 177.937 72.2483 179.384C75.2629 182.278 77.7951 181.916 77.7951 178.781C77.7951 177.334 78.1568 177.334 80.2068 178.54C83.4625 180.59 83.2213 182.037 79.0009 186.137C75.504 189.513 74.1776 194.337 76.5893 195.784C77.4334 196.266 77.5539 205.671 76.7099 208.204C76.5893 208.324 73.3335 206.877 69.4749 204.827L62.2399 201.21L61.8782 185.896C61.3958 166.602 61.5164 166.482 66.5809 171.305ZM230.453 170.099L233.709 171.546L232.865 185.293C231.538 206.757 232.744 204.707 215.38 215.318C195.002 227.738 173.9 239.917 173.417 239.314C173.176 239.193 171.97 234.852 170.644 229.788C167.629 218.333 168.353 211.218 172.694 209.53C174.261 208.927 175.829 207.48 176.311 206.395C177.758 202.416 179.326 200.848 180.411 202.657C181.738 204.827 187.525 201.33 189.696 196.989C190.902 194.578 191.746 194.095 192.952 195.181C195.363 197.11 203.081 191.804 203.201 188.066C203.201 185.775 203.442 185.534 205.01 186.74C207.663 188.91 215.26 183.966 215.26 179.987C215.26 176.852 216.345 176.249 218.515 178.42C219.601 179.505 220.806 179.143 223.58 177.214C228.403 173.717 228.403 171.426 223.7 174.32C221.168 175.767 219.721 176.008 218.756 175.043C217.912 174.199 218.636 173.114 221.53 171.305C226.353 168.291 226.474 168.291 230.453 170.099ZM47.4082 172.27C49.8199 172.27 50.1816 172.632 49.0964 173.717C48.2523 174.561 47.6494 176.731 47.6494 178.661C47.6494 181.314 48.1317 182.037 49.8199 181.675C51.3875 181.314 51.7492 180.228 51.508 176.852C51.1463 172.993 51.508 172.39 54.7638 171.305C58.0195 170.099 58.5018 170.22 58.5018 172.149C58.5018 173.355 58.743 174.561 59.1048 174.923C59.4665 175.284 59.9488 181.434 59.9488 188.669L60.19 201.813L55.1255 202.898C49.217 204.104 42.4643 202.536 37.5204 198.678C33.9029 195.904 33.6618 193.131 35.7117 180.831C37.641 169.376 37.3999 169.738 41.0173 171.064C42.8261 171.788 45.5995 172.27 47.4082 172.27ZM110.955 176.129C112.885 179.625 116.502 185.655 119.034 189.513C121.567 193.372 123.375 196.989 123.014 197.472C122.17 198.919 109.388 202.657 108.061 201.933C107.097 201.33 92.1445 174.802 92.6268 174.682C92.7474 174.682 95.8825 173.596 99.5 172.27C103.118 171.064 106.494 169.979 106.856 169.979C107.217 169.858 109.147 172.752 110.955 176.129ZM262.528 184.69C265.422 196.989 265.543 198.436 263.975 200.969C261.202 205.068 255.052 207.239 245.646 207.239C234.312 207.239 233.347 206.395 234.673 195.784C235.156 191.081 235.638 183.966 235.638 179.746L235.759 172.27L244.561 172.149C249.264 172.149 254.328 171.667 255.655 171.185C256.981 170.582 258.308 170.461 258.669 170.702C259.031 170.943 260.719 177.334 262.528 184.69ZM202.719 172.873C203.684 175.284 202.237 180.711 200.79 180.711C200.066 180.711 199.584 178.54 199.584 175.887C199.584 171.064 201.393 169.376 202.719 172.873ZM132.057 177.696C132.057 178.058 131.816 178.299 131.454 178.299C131.093 178.299 130.852 178.058 130.852 177.696C130.852 177.334 131.093 177.093 131.454 177.093C131.816 177.093 132.057 177.334 132.057 177.696ZM213.571 178.42C214.898 180.711 210.557 183.725 205.854 183.725C202.237 183.725 201.272 184.208 201.031 186.257C200.548 189.996 196.328 193.613 194.64 191.925C192.711 189.996 187.525 192.528 187.525 195.181C187.525 198.195 184.39 200.366 181.496 199.401C178.723 198.557 174.261 201.571 174.261 204.345C174.261 205.189 172.694 206.877 170.764 207.962C168.715 209.168 167.509 210.615 167.87 211.218C170.162 214.956 155.45 221.588 147.974 220.141C140.981 218.815 138.81 218.091 137.001 216.283C134.71 213.992 136.278 212.424 138.81 214.594C140.498 215.921 140.86 215.8 141.825 214.112C143.392 211.459 144.96 211.459 145.924 214.353C146.286 215.68 147.492 217.006 148.457 217.368C150.868 218.333 154.968 216.041 154.968 213.871C154.968 212.906 156.053 212.062 157.38 212.062C158.706 212.062 159.791 211.459 159.791 210.856C159.791 210.133 158.224 209.651 156.295 209.651C153.401 209.651 152.677 210.253 152.074 213.509C151.23 217.247 151.109 217.368 149.542 215.197C148.577 213.871 147.733 212.062 147.733 211.218C147.733 209.409 142.186 209.048 141.101 210.856C139.775 213.027 137.845 212.183 138.689 209.771C139.051 208.445 138.81 207.118 138.087 206.636C135.795 205.189 136.881 203.621 140.257 203.621C142.307 203.621 144.116 202.657 145.201 200.969L146.889 198.316L147.854 200.969C149.06 204.345 153.28 204.465 154.365 201.21C155.33 198.195 157.38 198.075 158.224 201.089C158.947 203.742 161.721 205.31 162.806 203.501C163.288 202.898 164.132 202.657 164.735 203.139C165.459 203.621 165.218 204.948 164.132 206.636C162.685 208.806 162.685 209.651 163.771 210.012C165.459 210.615 168.112 207.48 168.232 204.586C168.232 202.777 190.781 187.946 205.01 180.59C212.124 176.731 212.486 176.731 213.571 178.42ZM98.053 190.357L104.444 201.692L104.082 218.935L103.72 236.179L99.3794 233.285L95.159 230.391L96.2443 220.865C97.5707 209.771 96.0031 202.054 92.0239 199.883C89.974 198.798 89.1299 199.039 86.9594 201.089C84.9095 203.139 84.3066 205.43 84.0654 213.268C83.7037 219.056 83.1007 222.915 82.2567 222.915C80.2068 222.915 76.5893 219.056 76.5893 217.006C76.5893 215.318 76.8304 215.318 77.7951 216.886C78.6392 218.091 79.0009 214.474 79.0009 205.551V192.407L84.5477 186.499C87.5623 183.363 89.6122 180.108 89.2505 179.505C88.7681 178.781 89.1299 178.42 90.0946 178.54C90.9386 178.781 94.5561 184.087 98.053 190.357ZM168.715 192.045C167.991 200.727 167.026 202.898 165.218 200.004C164.615 199.039 163.891 199.039 162.806 200.004C161.6 201.089 160.877 200.727 159.791 198.919C157.983 195.542 152.556 195.422 152.556 198.798C152.556 200.125 151.954 201.21 151.351 201.21C150.507 201.21 150.145 198.557 150.386 194.457L150.748 187.584L159.791 185.052C164.735 183.605 168.956 182.519 169.197 182.64C169.438 182.761 169.197 186.981 168.715 192.045ZM176.673 189.513C176.673 192.045 175.708 194.457 174.261 195.784C171.006 198.678 170.523 197.833 171.367 191.201C171.97 186.74 172.694 185.534 174.382 185.534C176.191 185.534 176.673 186.378 176.673 189.513ZM77.7951 193.372C77.7951 193.734 77.5539 193.975 77.1922 193.975C76.8304 193.975 76.5893 193.734 76.5893 193.372C76.5893 193.01 76.8304 192.769 77.1922 192.769C77.5539 192.769 77.7951 193.01 77.7951 193.372ZM128.199 203.621C130.972 204.948 133.263 206.636 133.263 207.239C133.263 208.927 131.696 208.806 129.887 206.998C128.802 205.912 128.44 206.033 128.44 207.721C128.44 210.615 124.34 209.771 123.737 206.636C123.496 205.31 122.411 203.621 121.326 202.777C118.07 200.245 122.411 200.848 128.199 203.621ZM94.0738 207.721C94.5561 209.892 94.4355 215.8 93.8326 220.865C92.868 229.908 92.868 229.908 90.3357 227.979C88.0446 226.05 87.9241 224.965 88.4064 214.715C88.8887 204.948 89.2505 203.621 91.1798 203.621C92.7474 203.621 93.5915 204.827 94.0738 207.721ZM115.899 205.551C115.538 206.636 115.176 213.027 115.176 220.021V232.441L111.558 234.37C109.629 235.335 107.941 236.179 107.7 236.179C107.458 236.179 107.338 229.426 107.217 221.106L107.097 206.154L110.232 204.948C115.055 203.26 116.743 203.38 115.899 205.551ZM121.928 208.083C122.772 211.098 125.425 214.353 127.355 214.474C127.837 214.474 128.44 213.389 128.802 211.942C129.766 208.083 132.299 209.771 133.866 215.318C135.072 219.418 135.072 222.191 133.504 230.632L131.696 241.002L127.355 238.349C121.567 234.852 115.899 230.15 117.467 230.15C118.311 230.15 118.793 225.688 118.793 217.488C118.793 205.189 120.24 200.969 121.928 208.083ZM136.278 208.445C136.64 209.048 136.76 209.651 136.398 209.651C136.037 209.651 135.434 209.048 135.072 208.445C134.71 207.721 134.59 207.239 134.951 207.239C135.313 207.239 135.916 207.721 136.278 208.445ZM168.715 231.958C170.403 238.832 171.85 245.584 171.85 246.911C171.85 253.181 157.018 259.09 147.251 256.678C134.107 253.302 132.781 250.769 135.434 233.285C137.363 221.347 137.725 220.382 139.895 220.985C141.222 221.227 144.236 222.071 146.527 222.553C149.662 223.397 152.556 223.156 157.38 221.588C160.997 220.503 164.374 219.538 164.735 219.418C165.218 219.297 166.906 224.965 168.715 231.958Z" fill="#C0C0C0"/>
<path d="M137.727 83.8882C137.245 84.25 136.883 87.2646 136.883 90.5203C136.883 96.3083 137.003 96.4289 140.259 96.0671C142.912 95.8259 143.635 95.1024 143.877 91.8467C144.48 85.697 140.741 80.8737 137.727 83.8882ZM141.706 89.6762C141.706 91.9673 141.224 93.8966 140.5 93.8966C139.897 93.8966 139.294 91.9673 139.294 89.6762C139.294 87.3851 139.897 85.4558 140.5 85.4558C141.224 85.4558 141.706 87.3851 141.706 89.6762Z" fill="#84F8FF"/>
<path d="M172.333 112.46C171.972 113.304 171.851 116.439 172.092 119.333L172.575 124.639L174.625 120.057C176.192 116.68 176.433 114.992 175.469 113.183C173.901 110.289 173.178 110.169 172.333 112.46Z" fill="#EFFF8D"/>
<path d="M176.677 136.701C176.677 140.68 177.159 142.127 178.486 142.127C179.571 142.127 180.294 141.042 180.294 139.354C180.294 137.907 180.656 135.495 181.018 133.927C181.621 131.757 181.259 131.274 179.209 131.274C177.039 131.274 176.677 131.998 176.677 136.701Z" fill="#EFFF8D"/>
<path d="M167.023 139.715C167.023 145.985 168.591 147.794 169.917 142.971C171.244 138.027 170.762 133.686 168.832 133.686C167.506 133.686 167.023 135.133 167.023 139.715Z" fill="#EFFF8D"/>
<path d="M109.387 120.305C108.061 121.15 108.182 127.54 109.749 130.073C111.437 132.846 112.764 131.037 112.764 125.973C112.764 120.305 111.799 118.738 109.387 120.305Z" fill="#EFFF8D"/>
<path d="M132.538 133.929C130.85 136.341 131.212 144.902 133.021 145.384C134.106 145.746 134.468 144.058 134.468 139.235C134.468 132.12 134.227 131.517 132.538 133.929Z" fill="#EFFF8D"/>
<path d="M147.978 137.545C148.219 141.283 148.942 142.85 150.51 143.092C152.198 143.453 152.56 142.609 152.56 138.027C152.56 133.204 152.198 132.48 150.028 132.48C147.857 132.48 147.616 133.083 147.978 137.545Z" fill="#EFFF8D"/>
<path d="M214.053 141.527C214.053 145.506 214.535 146.953 215.861 146.953C217.188 146.953 217.67 145.506 217.67 141.527C217.67 137.548 217.188 136.101 215.861 136.101C214.535 136.101 214.053 137.548 214.053 141.527Z" fill="#EFFF8D"/>
<path d="M220.565 152.255C219.239 155.752 220.686 162.022 222.856 162.384C224.544 162.746 224.906 161.902 224.906 156.717C224.906 152.014 224.424 150.567 223.097 150.567C222.012 150.567 220.927 151.29 220.565 152.255Z" fill="#EFFF8D"/>
<path d="M210.076 156.24C209.593 156.601 209.231 159.134 209.231 161.666C209.231 165.404 209.593 166.248 211.643 166.248C213.693 166.248 214.055 165.404 214.055 160.822C214.055 155.637 212.367 153.828 210.076 156.24Z" fill="#EFFF8D"/>
<path d="M104.323 155.51C104.323 161.78 107.217 161.298 107.7 155.028C107.941 151.651 107.579 150.566 106.253 150.566C104.806 150.566 104.323 151.893 104.323 155.51Z" fill="#EFFF8D"/>
<path d="M191.99 157.684C191.387 160.337 191.99 161.422 194.402 161.422C195.246 161.422 195.969 160.095 195.969 158.407C195.969 154.79 192.955 154.307 191.99 157.684Z" fill="#EFFF8D"/>
<path d="M73.21 159.851C73.4512 161.901 74.4159 163.347 75.7423 163.589C77.551 163.95 77.9128 163.347 77.551 160.574C77.3099 158.524 76.3452 157.077 75.0188 156.836C73.21 156.474 72.8483 157.077 73.21 159.851Z" fill="#EFFF8D"/>
<path d="M80.4486 162.868C80.9309 168.415 83.8249 168.777 83.8249 163.351C83.8249 160.216 83.3426 159.01 81.8956 159.01C80.5692 159.01 80.2074 159.974 80.4486 162.868Z" fill="#EFFF8D"/>
<path d="M189.456 172.514C189.094 174.081 188.732 176.854 188.732 178.663C188.732 183.848 191.626 182.04 192.109 176.493C192.591 171.187 190.662 168.293 189.456 172.514Z" fill="#EFFF8D"/>
<path d="M137.727 179.026C137.245 179.508 136.883 181.196 136.883 182.764C136.883 184.814 137.606 185.537 139.415 185.537C141.344 185.537 141.827 184.934 141.465 182.281C141.103 179.146 139.294 177.579 137.727 179.026Z" fill="#EFFF8D"/>
<path d="M243.238 176.133C240.826 178.545 241.429 183.127 244.202 183.127C246.011 183.127 246.614 182.283 246.614 179.63C246.614 175.53 245.167 174.204 243.238 176.133Z" fill="#EFFF8D"/>
<path d="M158.949 213.876C157.863 216.891 159.19 217.132 162.325 214.6L165.219 212.188L162.446 212.068C160.999 212.068 159.431 212.912 158.949 213.876Z" fill="#C0C0C0"/>
<path d="M87.9264 188.549C87.2029 191.563 89.9763 196.387 92.5085 196.387C93.8349 196.387 93.7143 190.719 92.2673 187.825C90.4586 184.69 88.891 184.931 87.9264 188.549ZM89.8557 190.96C89.8557 191.322 89.6145 191.563 89.2528 191.563C88.891 191.563 88.6499 191.322 88.6499 190.96C88.6499 190.599 88.891 190.358 89.2528 190.358C89.6145 190.358 89.8557 190.599 89.8557 190.96Z" fill="#EFFF8D"/>
<path d="M149.176 229.187C149.417 231.719 150.141 233.166 151.347 233.166C152.432 233.166 153.155 231.719 153.397 229.187C153.638 226.052 153.276 225.328 151.226 225.328C149.176 225.328 148.814 225.931 149.176 229.187Z" fill="#EFFF8D"/>
</g>
<defs>
<filter id="filter0_d_2118_6442" x="0.76215" y="0.824054" width="298.338" height="292.275" filterUnits="userSpaceOnUse" color-interpolation-filters="sRGB">
<feFlood flood-opacity="0" result="BackgroundImageFix"/>
<feColorMatrix in="SourceAlpha" type="matrix" values="0 0 0 0 0 0 0 0 0 0 0 0 0 0 0 0 0 0 127 0" result="hardAlpha"/>
<feOffset dy="2.0619"/>
<feGaussianBlur stdDeviation="15.6189"/>
<feComposite in2="hardAlpha" operator="out"/>
<feColorMatrix type="matrix" values="0 0 0 0 0.429375 0 0 0 0 0.954167 0 0 0 0 0.881279 0 0 0 0.66 0"/>
<feBlend mode="normal" in2="BackgroundImageFix" result="effect1_dropShadow_2118_6442"/>
<feBlend mode="normal" in="SourceGraphic" in2="effect1_dropShadow_2118_6442" result="shape"/>
</filter>
</defs>
</svg>
