<svg width="153" height="100%" viewBox="0 0 153 194" fill="none" xmlns="http://www.w3.org/2000/svg">
<path d="M83.5729 10.4403C83.5729 19.5709 82.8276 21.9933 78.7281 25.9064C74.0697 30.1922 73.697 30.1922 71.2746 27.0245C68.1068 22.5524 60.2806 24.4157 58.7899 29.6332C57.8582 33.1737 57.2992 33.36 53.7587 31.1239C50.4046 29.0742 49.4729 29.2605 47.0505 32.242C43.8828 36.5278 43.5101 54.0436 46.4915 57.025C47.9822 58.5157 48.1686 63.1742 47.4232 71.1868C46.3052 81.2491 45.3735 83.4851 41.6467 85.1622C38.1063 86.8392 37.1746 86.6529 36.4292 83.4851C35.3112 79.572 29.721 78.6403 26.3669 81.9944C24.8762 83.4851 23.9445 83.4851 23.1992 81.9944C21.1495 78.8267 12.7642 79.3857 12.7642 82.7398C12.7642 84.2305 12.0189 85.5349 10.9008 85.5349C9.96912 85.5349 9.03743 84.6032 9.03743 83.4851C9.03743 82.3671 7.17404 81.8081 4.93798 82.1808C1.2112 82.7398 0.652186 84.0441 0.0931694 91.3114C-0.279508 97.2742 0.465847 100.815 2.32923 102.864C4.5653 105.1 5.31065 111.436 5.68333 131.374L6.24235 157.275L14.2549 161.002C19.8451 163.611 22.0811 165.661 22.0811 168.642C22.0811 171.996 25.9943 174.232 46.8642 183.176C60.4669 188.953 72.3926 193.611 73.697 193.611C74.815 193.611 84.5046 188.58 95.3123 182.431C113.014 172.182 115.623 171.251 125.686 171.251C133.325 171.251 138.543 170.133 142.642 167.524C148.978 163.611 153.45 157.275 151.587 154.48C151.028 153.362 148.419 142.368 145.996 129.883C141.524 107.523 141.524 107.15 145.251 104.541C150.841 100.628 150.096 90.1933 143.947 86.0939C139.288 83.1124 138.916 83.1124 136.493 86.4665C133.884 89.8206 133.698 89.8206 130.158 85.9075C125.686 81.0627 122.89 62.6152 126.245 58.7021C127.363 57.2114 128.853 51.9939 129.599 46.7764C130.53 38.2048 130.344 37.2731 125.686 34.2917C121.959 31.683 120.095 31.4966 118.418 33.1737C115.251 36.3414 111.896 35.5961 110.592 31.4966C109.101 26.8382 101.275 24.6021 97.5483 27.7698C95.1259 29.8196 94.0079 29.4469 91.0265 26.2791C84.8773 19.5709 86.1817 15.6578 96.244 11.931L105.002 8.39061L95.685 4.29115C90.6538 1.86876 85.809 0.00537109 85.0636 0.00537109C84.132 -0.180969 83.5729 4.66383 83.5729 10.4403ZM93.6352 7.08624C94.1942 8.01793 93.4489 9.3223 91.7718 9.88132C87.6724 11.5584 87.2997 11.372 87.2997 8.20427C87.2997 5.22285 91.9582 4.29115 93.6352 7.08624ZM69.4112 30.5649C70.9019 34.478 77.7964 34.1054 79.4735 30.0059C80.4052 27.7698 80.9642 28.8879 81.7095 34.1054C83.0139 44.5403 88.0451 45.8447 86.927 35.5961C86.368 28.7015 86.5544 28.1425 89.3494 30.7513C92.7035 33.7327 97.7347 34.1054 99.4117 31.4966C101.461 28.1425 105.934 29.6332 107.797 34.2917C109.66 38.9502 114.878 40.4409 118.232 37.0868C119.164 36.1551 121.027 35.9688 122.331 36.9004C124.195 38.0185 124.195 39.3228 121.959 43.4223C120.282 46.7764 118.977 47.7081 118.046 46.4037C116.369 43.6086 107.797 45.6584 104.629 49.7578C102.393 52.7392 102.02 52.7392 99.5981 49.5715C96.4303 45.472 85.6227 45.2857 82.6412 49.5715C80.2188 52.9256 76.1194 51.4349 76.1194 47.1491C76.1194 44.1676 64.0074 43.4223 62.144 46.4037C60.0943 49.5715 57.4855 48.4534 57.4855 44.354C57.4855 42.1179 55.9948 40.0682 53.7587 39.5092C51.709 38.9502 50.032 37.6458 50.032 36.7141C50.032 35.5961 51.3363 35.4097 53.0134 35.9688C57.8582 37.8321 63.0757 35.4097 63.0757 31.3103C63.0757 27.2108 67.7341 26.4655 69.4112 30.5649ZM53.7587 47.5217C55.6221 51.9939 61.7713 53.6709 64.0074 50.1305C65.8708 46.9627 71.2746 48.0808 73.8833 51.9939C76.4921 56.2797 84.5046 57.025 86.1817 52.9256C86.7407 51.4349 89.1631 50.1305 91.7718 50.1305C94.1942 50.1305 96.6167 51.4349 97.362 52.9256C97.921 54.4163 100.53 55.7207 103.139 55.7207C106.12 55.7207 107.797 54.6026 107.797 52.9256C107.797 49.5715 115.437 49.1988 118.605 52.3665C121.213 54.9753 123.636 52.9256 125.126 47.3354C125.686 45.0993 126.058 45.8447 125.872 49.1988C125.313 57.9567 116.555 60.0064 85.0636 58.8884C55.0631 57.7704 49.4729 55.907 48.5412 46.5901C47.7959 39.5092 50.9637 40.0682 53.7587 47.5217ZM92.1445 62.2425H120.468L121.586 72.3048C122.704 81.0627 122.331 83.1124 118.977 86.2802C115.251 90.007 114.878 90.007 113.201 86.8392C110.965 83.1124 104.257 84.0441 101.648 88.5163C100.902 90.007 98.8527 91.125 97.362 91.125C95.1259 91.125 94.7533 92.4294 95.685 97.0879C96.4303 100.442 98.1074 104.169 99.4117 105.287C101.275 106.777 101.648 110.132 100.902 117.771C100.343 123.548 99.0391 128.393 98.2937 128.393C95.8713 128.393 96.244 117.771 98.6664 113.299C100.343 110.132 98.8527 107.896 88.6041 97.2742L76.6784 84.9758L62.144 92.6157L47.6096 100.256L48.7276 92.4294C49.2866 88.1436 50.4046 79.013 51.15 72.1185L52.4544 59.6338L58.2309 60.9381C61.3986 61.6835 76.6784 62.2425 92.1445 62.2425ZM21.7085 85.9075C23.5719 87.7709 24.8762 87.7709 27.8576 85.9075C33.2615 82.5534 34.1932 84.2305 30.2801 90.1933C28.4167 92.9884 26.5533 94.4791 26.1806 93.1747C25.0626 90.007 15.1866 90.7523 13.8822 94.1064C13.3232 95.5971 12.0189 96.3425 10.9008 95.7835C8.10574 94.1064 8.66475 89.2616 11.6462 89.2616C13.1369 89.2616 14.6276 87.9573 15.3729 86.4665C16.6773 83.1124 18.727 82.9261 21.7085 85.9075ZM7.17404 87.3982C7.17404 88.3299 6.42869 89.2616 5.31065 89.2616C4.37896 89.2616 3.44727 88.3299 3.44727 87.3982C3.44727 86.2802 4.37896 85.5349 5.31065 85.5349C6.42869 85.5349 7.17404 86.2802 7.17404 87.3982ZM46.3052 88.3299C46.3052 88.7026 44.4418 90.1933 42.2057 91.3114C38.2926 93.3611 38.1063 93.3611 40.5287 90.566C42.9511 87.5846 46.3052 86.2802 46.3052 88.3299ZM110.406 90.1933C111.71 93.9201 118.977 93.7338 121.959 89.6343C124.381 86.6529 124.754 86.6529 127.176 89.6343C128.481 91.4977 131.089 92.9884 132.766 92.9884C134.443 92.9884 135.748 93.9201 135.748 94.8518C135.748 98.0195 129.971 99.3239 126.245 97.0879C121.772 94.2928 118.046 94.2928 113.387 97.0879C110.219 99.1376 109.288 98.9512 107.797 96.7152C105.561 93.1747 105.375 87.3982 107.611 87.3982C108.542 87.3982 109.66 88.7026 110.406 90.1933ZM94.7533 109.759C94.7533 110.691 73.697 124.666 72.0199 124.666C70.1565 124.666 53.1997 101.56 54.8768 101.001C55.8085 100.628 60.8396 98.0195 65.8708 95.0381L75.1877 89.6343L85.0636 99.1376C90.2811 104.355 94.7533 109.2 94.7533 109.759ZM143.201 91.125C143.201 92.0567 142.456 92.9884 141.338 92.9884C140.406 92.9884 139.475 92.0567 139.475 91.125C139.475 90.007 140.406 89.2616 141.338 89.2616C142.456 89.2616 143.201 90.007 143.201 91.125ZM35.1249 93.7338C35.1249 99.1376 29.5347 102.305 20.0314 102.305C10.5281 102.305 3.44727 99.8829 3.44727 96.5288C3.44727 95.5971 5.68333 96.1562 8.29208 98.0195C12.9505 101.001 13.3232 101.001 15.7456 97.6469C17.9817 94.4791 18.727 94.4791 23.1992 96.9015C27.6713 99.3239 28.4167 99.1376 31.2117 95.4108C34.7522 90.3797 35.1249 90.3797 35.1249 93.7338ZM42.5784 103.982C39.7833 109.2 36.9882 108.827 36.9882 103.237C36.9882 98.2059 43.1374 93.3611 44.0691 97.6469C44.4418 99.1376 43.6964 101.933 42.5784 103.982ZM110.778 102.305C112.269 102.305 115.064 101.374 117.114 100.069C119.909 98.2059 121.213 98.3922 124.195 101.001C126.99 103.61 128.853 103.796 132.766 102.492C135.375 101.374 137.611 99.6966 137.611 98.7649C137.611 97.8332 139.288 96.7152 141.338 96.1562C147.86 94.4791 145.624 100.442 138.543 103.423C131.089 106.405 117.3 106.777 107.424 103.982C102.02 102.678 100.343 101.187 100.343 98.2059V94.1064L104.07 98.2059C106.306 100.442 109.101 102.305 110.778 102.305ZM33.2615 108.827C33.2615 111.436 32.5161 113.486 31.3981 113.486C30.4664 113.486 29.5347 114.79 29.5347 116.281C29.5347 117.771 30.8391 119.076 32.3298 119.076C33.8205 119.076 35.1249 120.753 35.1249 122.803C35.1249 125.784 34.0068 126.529 29.162 126.157L23.0128 125.598L22.0811 142.741L21.1495 159.698L15.1866 157.275L9.03743 154.667V130.442V106.218L19.8451 105.473C25.6216 105.1 31.0254 104.728 31.9571 104.541C32.7025 104.355 33.2615 106.218 33.2615 108.827ZM64.9391 131.561V141.436L54.3177 136.592C48.3549 133.983 42.3921 131.374 41.274 130.815C39.7833 130.256 38.8516 126.343 38.8516 121.312C38.8516 114.231 39.7833 111.995 44.0691 108.455L49.1003 104.355L56.9265 113.113C64.0074 120.939 64.7527 122.803 64.9391 131.561ZM143.015 134.169L147.487 158.952L142.456 163.238C138.543 166.592 135.189 167.524 127.549 167.524H117.673L116.369 153.921C113.946 128.952 113.387 126.529 108.542 125.411C103.884 124.293 103.325 122.803 105.188 114.231L106.12 108.827L122.331 109.2L138.543 109.573L143.015 134.169ZM94.5669 128.393C94.7533 130.815 73.5106 145.163 69.9702 145.163C69.2249 145.163 68.6658 141.25 68.6658 136.592C68.6658 131.933 69.4112 128.579 70.1565 129.138C70.9019 129.511 76.1194 127.088 81.7095 123.734C91.9582 117.399 91.9582 117.399 93.2626 121.498C93.8216 123.734 94.3806 126.902 94.5669 128.393ZM39.9697 135.474C39.038 136.219 27.6713 130.629 27.6713 129.324C27.6713 128.765 30.6527 129.883 34.1932 131.561C37.7336 133.238 40.3423 134.915 39.9697 135.474ZM105.188 129.883C104.629 130.815 96.9893 135.846 88.0451 141.25L71.8336 151.312L57.2992 144.045C49.2866 140.132 42.9511 136.778 43.3238 136.405C43.6964 136.033 50.2183 138.828 57.8582 142.555L71.8336 149.449L88.4177 139.014C106.306 127.834 106.679 127.647 105.188 129.883ZM111.896 155.226L112.455 168.083L95.1259 178.145C85.4363 183.735 77.2374 188.021 76.8647 187.648C76.4921 187.089 75.933 179.45 75.7467 170.505L75.1877 154.108L91.9582 143.486L108.729 132.865L110.033 137.523C110.778 140.132 111.71 147.958 111.896 155.226ZM48.9139 144.232L70.5292 154.48V163.611C70.5292 168.456 71.0882 176.468 71.6473 181.127C72.7653 189.139 72.5789 189.512 68.8522 188.58C65.3117 187.648 64.9391 186.344 64.9391 175.723C64.9391 165.288 64.38 163.238 59.9079 158.393C54.8768 153.176 54.5041 152.989 48.7276 155.598C42.9511 158.021 42.5784 158.766 42.5784 167.71C42.5784 176.095 42.2057 177.027 39.4106 175.909C37.5473 175.164 33.8205 173.673 31.0254 172.741C25.8079 170.878 25.8079 170.878 25.8079 152.43C25.8079 142.368 26.1806 133.983 26.5533 133.983C26.7396 133.983 36.8019 138.641 48.9139 144.232ZM51.8953 161.002C51.8953 162.493 50.591 163.797 49.1003 163.797C44.2555 163.797 45.7462 160.07 51.5227 158.393C51.709 158.207 51.8953 159.511 51.8953 161.002ZM60.8396 166.779C58.9762 168.642 55.6221 165.661 55.6221 162.306C55.6221 159.511 55.8085 159.511 58.7899 162.493C60.4669 164.17 61.3986 166.033 60.8396 166.779ZM51.8953 170.505C51.8953 172.182 50.9637 173.114 49.6593 172.741C46.3052 171.623 45.7462 167.524 48.9139 167.524C50.591 167.524 51.8953 168.828 51.8953 170.505ZM61.2123 174.418C61.2123 178.145 56.7402 176.468 55.9948 172.555C55.6221 170.319 56.1811 169.76 58.2309 170.505C59.9079 171.064 61.2123 172.928 61.2123 174.418ZM50.032 178.891C50.032 180.009 49.2866 180.195 48.1686 179.636C47.2369 179.077 46.3052 177.586 46.3052 176.655C46.3052 175.536 47.2369 175.35 48.1686 175.909C49.2866 176.468 50.032 177.959 50.032 178.891ZM59.3489 180.568C60.8396 181.499 61.585 182.804 61.0259 183.363C59.5352 184.853 53.7587 182.431 53.7587 180.381C53.7587 178.332 55.8085 178.332 59.3489 180.568Z" fill="white"/>
<path d="M44.4424 119.077C44.4424 122.804 50.4052 127.276 52.6413 125.226C54.8774 122.99 53.7593 117.586 50.7779 116.468C45.9331 114.605 44.4424 115.164 44.4424 119.077Z" fill="#FDFF85"/>
<path d="M85.4365 127.463C85.4365 128.953 86.3682 130.258 87.2999 130.258C88.4179 130.258 89.1633 128.953 89.1633 127.463C89.1633 125.972 88.4179 124.668 87.2999 124.668C86.3682 124.668 85.4365 125.972 85.4365 127.463Z" fill="#FDFF85"/>
<path d="M77.2387 131.937C76.4934 133.242 76.307 134.732 76.8661 135.292C78.5431 136.969 80.4065 134.546 79.4748 131.937C78.7294 129.888 78.3568 129.888 77.2387 131.937Z" fill="#FDFF85"/>
<path d="M101.646 146.467C101.274 147.213 101.46 149.635 102.205 151.685C103.51 155.225 103.696 155.225 105 152.057C106.491 148.703 103.323 143.486 101.646 146.467Z" fill="#FDFF85"/>
<path d="M92.3315 151.873C90.4681 153.923 90.6545 160.072 92.7042 160.072C95.4993 160.072 96.2446 157.65 94.9403 153.923C94.1949 152.06 93.0769 151.128 92.3315 151.873Z" fill="#FDFF85"/>
<path d="M81.709 161.002C81.709 163.61 82.6407 165.66 83.5724 165.66C84.6904 165.66 85.4358 163.61 85.4358 161.002C85.4358 158.393 84.6904 156.343 83.5724 156.343C82.6407 156.343 81.709 158.393 81.709 161.002Z" fill="#FDFF85"/>
<path d="M29.906 150.011C30.2787 152.806 31.5831 155.415 32.8874 155.974C34.7508 156.533 35.3099 155.228 34.7508 151.502C34.3782 148.706 33.0738 146.098 31.7694 145.539C29.906 144.98 29.347 146.284 29.906 150.011Z" fill="#FDFF85"/>
</svg>
