<svg width="100%" height="100%" viewBox="0 0 49 49" fill="none" xmlns="http://www.w3.org/2000/svg">
<path d="M40.8346 22.457H38.793V26.5404H40.8346V22.457Z" fill="#FFCE4F"/>
<path d="M46.9596 22.457H44.918V26.5404H46.9596V22.457Z" fill="#FFCE4F"/>
<path d="M44.9154 20.418H40.832V22.4596H44.9154V20.418Z" fill="#FFCE4F"/>
<path d="M44.9154 26.543H40.832V28.5846H44.9154V26.543Z" fill="#FFCE4F"/>
<path d="M36.7487 8.16797H34.707V12.2513H36.7487V8.16797Z" fill="#FFCE4F"/>
<path d="M40.8333 12.25H36.75V14.2917H40.8333V12.25Z" fill="#FFCE4F"/>
<path d="M42.8737 8.16797H40.832V12.2513H42.8737V8.16797Z" fill="#FFCE4F"/>
<path d="M40.8333 6.125H36.75V8.16667H40.8333V6.125Z" fill="#FFCE4F"/>
<path d="M40.8333 34.707H36.75V36.7487H40.8333V34.707Z" fill="#FFCE4F"/>
<path d="M42.8737 36.75H40.832V40.8333H42.8737V36.75Z" fill="#FFCE4F"/>
<path d="M36.7487 36.75H34.707V40.8333H36.7487V36.75Z" fill="#FFCE4F"/>
<path d="M40.8333 40.832H36.75V42.8737H40.8333V40.832Z" fill="#FFCE4F"/>
<path d="M26.5404 38.793H22.457V40.8346H26.5404V38.793Z" fill="#FFCE4F"/>
<path d="M26.5404 44.918H22.457V46.9596H26.5404V44.918Z" fill="#FFCE4F"/>
<path d="M28.5846 40.832H26.543V44.9154H28.5846V40.832Z" fill="#FFCE4F"/>
<path d="M22.4596 40.832H20.418V44.9154H22.4596V40.832Z" fill="#FFCE4F"/>
<path d="M28.5846 4.08203H26.543V8.16536H28.5846V4.08203Z" fill="#FFCE4F"/>
<path d="M22.4596 4.08203H20.418V8.16536H22.4596V4.08203Z" fill="#FFCE4F"/>
<path d="M26.5404 2.04297H22.457V4.08464H26.5404V2.04297Z" fill="#FFCE4F"/>
<path d="M26.5404 8.16797H22.457V10.2096H26.5404V8.16797Z" fill="#FFCE4F"/>
<path d="M32.668 20.418V16.3346H28.5846V14.293H20.418V16.3346H16.3346V20.418H14.293V28.5846H16.3346V32.668H20.418V34.7096H28.5846V32.668H32.668V28.5846H34.7096V20.418H32.668ZM28.5846 28.5846V30.6263H20.418V28.5846H18.3763V20.418H20.418V18.3763H28.5846V20.418H30.6263V28.5846H28.5846Z" fill="#FFCE4F"/>
<path d="M8.16667 36.75H6.125V40.8333H8.16667V36.75Z" fill="#FFCE4F"/>
<path d="M12.2513 40.832H8.16797V42.8737H12.2513V40.832Z" fill="#FFCE4F"/>
<path d="M12.2513 34.707H8.16797V36.7487H12.2513V34.707Z" fill="#FFCE4F"/>
<path d="M14.2917 36.75H12.25V40.8333H14.2917V36.75Z" fill="#FFCE4F"/>
<path d="M14.2917 8.16797H12.25V12.2513H14.2917V8.16797Z" fill="#FFCE4F"/>
<path d="M12.2513 6.125H8.16797V8.16667H12.2513V6.125Z" fill="#FFCE4F"/>
<path d="M12.2513 12.25H8.16797V14.2917H12.2513V12.25Z" fill="#FFCE4F"/>
<path d="M8.16667 8.16797H6.125V12.2513H8.16667V8.16797Z" fill="#FFCE4F"/>
<path d="M8.16536 26.543H4.08203V28.5846H8.16536V26.543Z" fill="#FFCE4F"/>
<path d="M8.16536 20.418H4.08203V22.4596H8.16536V20.418Z" fill="#FFCE4F"/>
<path d="M4.08464 22.457H2.04297V26.5404H4.08464V22.457Z" fill="#FFCE4F"/>
<path d="M10.2096 22.457H8.16797V26.5404H10.2096V22.457Z" fill="#FFCE4F"/>
</svg>
