<svg width="100%" height="100%" viewBox="0 0 20 20" fill="none" xmlns="http://www.w3.org/2000/svg">
<g clip-path="url(#clip0_1127_4920)">
<path d="M16.6654 9.16797H15.832V10.8346H16.6654V9.16797Z" fill="#FFCE4F"/>
<path d="M19.1654 9.16797H18.332V10.8346H19.1654V9.16797Z" fill="#FFCE4F"/>
<path d="M18.3346 8.33203H16.668V9.16536H18.3346V8.33203Z" fill="#FFCE4F"/>
<path d="M18.3346 10.832H16.668V11.6654H18.3346V10.832Z" fill="#FFCE4F"/>
<path d="M15.0013 3.33203H14.168V4.9987H15.0013V3.33203Z" fill="#FFCE4F"/>
<path d="M16.6667 5H15V5.83333H16.6667V5Z" fill="#FFCE4F"/>
<path d="M17.5013 3.33203H16.668V4.9987H17.5013V3.33203Z" fill="#FFCE4F"/>
<path d="M16.6667 2.5H15V3.33333H16.6667V2.5Z" fill="#FFCE4F"/>
<path d="M16.6667 14.168H15V15.0013H16.6667V14.168Z" fill="#FFCE4F"/>
<path d="M17.5013 15H16.668V16.6667H17.5013V15Z" fill="#FFCE4F"/>
<path d="M15.0013 15H14.168V16.6667H15.0013V15Z" fill="#FFCE4F"/>
<path d="M16.6667 16.668H15V17.5013H16.6667V16.668Z" fill="#FFCE4F"/>
<path d="M10.8346 15.832H9.16797V16.6654H10.8346V15.832Z" fill="#FFCE4F"/>
<path d="M10.8346 18.332H9.16797V19.1654H10.8346V18.332Z" fill="#FFCE4F"/>
<path d="M11.6654 16.668H10.832V18.3346H11.6654V16.668Z" fill="#FFCE4F"/>
<path d="M9.16536 16.668H8.33203V18.3346H9.16536V16.668Z" fill="#FFCE4F"/>
<path d="M11.6654 1.66797H10.832V3.33464H11.6654V1.66797Z" fill="#FFCE4F"/>
<path d="M9.16536 1.66797H8.33203V3.33464H9.16536V1.66797Z" fill="#FFCE4F"/>
<path d="M10.8346 0.832031H9.16797V1.66536H10.8346V0.832031Z" fill="#FFCE4F"/>
<path d="M10.8346 3.33203H9.16797V4.16536H10.8346V3.33203Z" fill="#FFCE4F"/>
<path d="M13.332 8.33203V6.66536H11.6654V5.83203H8.33203V6.66536H6.66536V8.33203H5.83203V11.6654H6.66536V13.332H8.33203V14.1654H11.6654V13.332H13.332V11.6654H14.1654V8.33203H13.332ZM11.6654 11.6654V12.4987H8.33203V11.6654H7.4987V8.33203H8.33203V7.4987H11.6654V8.33203H12.4987V11.6654H11.6654Z" fill="#FFCE4F"/>
<path d="M3.33333 15H2.5V16.6667H3.33333V15Z" fill="#FFCE4F"/>
<path d="M4.9987 16.668H3.33203V17.5013H4.9987V16.668Z" fill="#FFCE4F"/>
<path d="M4.9987 14.168H3.33203V15.0013H4.9987V14.168Z" fill="#FFCE4F"/>
<path d="M5.83333 15H5V16.6667H5.83333V15Z" fill="#FFCE4F"/>
<path d="M5.83333 3.33203H5V4.9987H5.83333V3.33203Z" fill="#FFCE4F"/>
<path d="M4.9987 2.5H3.33203V3.33333H4.9987V2.5Z" fill="#FFCE4F"/>
<path d="M4.9987 5H3.33203V5.83333H4.9987V5Z" fill="#FFCE4F"/>
<path d="M3.33333 3.33203H2.5V4.9987H3.33333V3.33203Z" fill="#FFCE4F"/>
<path d="M3.33464 10.832H1.66797V11.6654H3.33464V10.832Z" fill="#FFCE4F"/>
<path d="M3.33464 8.33203H1.66797V9.16536H3.33464V8.33203Z" fill="#FFCE4F"/>
<path d="M1.66536 9.16797H0.832031V10.8346H1.66536V9.16797Z" fill="#FFCE4F"/>
<path d="M4.16536 9.16797H3.33203V10.8346H4.16536V9.16797Z" fill="#FFCE4F"/>
</g>
<defs>
<clipPath id="clip0_1127_4920">
<rect width="20" height="20" fill="white"/>
</clipPath>
</defs>
</svg>
