<svg width="225" height="100%" viewBox="0 0 225 139" fill="none" xmlns="http://www.w3.org/2000/svg">
<path d="M131.982 7.2594L124.406 14.4083L125.046 20.8104L125.687 27.1057L141.692 36.8155C171.995 55.0613 192.055 66.1582 194.829 66.1582C197.069 66.1582 219.157 55.7015 221.397 53.4608C221.824 53.1407 222.358 50.7933 222.678 48.5526C222.891 46.2052 223.425 43.4309 223.851 42.3639C224.278 41.2969 224.492 40.3366 224.278 40.1232C222.358 38.6294 165.913 7.04599 161.431 5.01868C156.203 2.67126 145.106 -0.102959 141.052 0.00374603C140.198 0.110443 136.143 3.31147 131.982 7.2594ZM153.429 8.96661C178.29 22.3042 201.551 35.1083 203.472 36.4954C205.392 37.8825 205.285 38.3093 200.377 45.6717C197.603 49.9397 194.935 53.3541 194.615 53.3541C194.189 53.3541 192.908 52.7139 191.841 51.8603C190.667 51.0067 183.945 47.2722 176.903 43.5376C169.861 39.8031 157.163 32.4408 148.734 27.3191C140.305 22.0908 131.982 17.396 130.275 16.8625C128.674 16.2223 127.287 15.4753 127.287 15.1553C127.287 14.3016 140.518 2.13776 141.158 2.45786C141.478 2.56456 147.027 5.55218 153.429 8.96661ZM165.913 9.28671C169.007 10.9939 179.037 16.6491 188.107 21.8774C197.176 26.999 207.099 32.6542 209.98 34.2547C214.675 36.9222 214.995 37.349 212.434 37.349C210.727 37.349 199.203 31.5872 184.265 23.3712C170.288 15.6888 156.737 8.3264 154.282 7.15269C151.828 5.97898 150.014 4.59188 150.335 4.16507C151.081 2.99136 159.297 5.65888 165.913 9.28671ZM131.769 19.8501C133.689 20.8104 142.119 25.8253 150.655 30.8403C159.297 35.9619 172.635 43.6443 180.424 47.9124C188.213 52.1804 194.935 56.3417 195.256 57.1953C195.576 58.0489 195.469 59.9696 195.149 61.4634C194.615 63.4907 193.975 64.0242 192.588 63.4907C189.28 62.317 154.603 42.4706 140.945 33.9346C127.714 25.7186 127.287 25.3985 127.287 21.7707C127.287 17.6094 127.394 17.6094 131.769 19.8501ZM217.663 40.7634C221.077 41.7237 221.184 41.9371 220.544 46.2052C219.69 52.2871 219.37 53.3541 217.876 53.3541C217.129 53.3541 216.916 52.2871 217.129 50.7933C218.09 45.6717 216.596 45.3516 208.486 49.0861L200.911 52.6072V57.0886C200.911 59.6495 200.27 62.2103 199.417 62.8505C198.136 63.9175 197.816 63.384 197.176 59.7562C196.536 55.7015 196.856 54.7412 201.017 48.766C208.807 37.349 207.953 37.7758 217.663 40.7634ZM214.995 51.967C214.035 57.0886 210.514 58.2623 210.514 53.5675C210.514 50.0464 211.261 49.0861 213.715 49.0861C215.102 49.0861 215.422 49.7263 214.995 51.967ZM208.38 54.7412C208.38 57.5154 207.74 58.5825 205.712 59.5428C203.151 60.7165 203.045 60.6098 203.045 57.0886C203.045 54.7412 203.685 53.034 204.965 52.3938C207.846 50.6866 208.38 51.0067 208.38 54.7412Z" fill="white"/>
<path d="M144.896 11.3191C138.708 14.4135 138.388 15.4805 142.762 18.148C144.896 19.4284 146.71 20.3887 146.924 20.1753C148.524 18.3614 150.765 12.2794 150.338 11.1057C149.591 9.18513 148.844 9.18513 144.896 11.3191ZM148.631 13.88C148.631 15.2671 147.884 16.014 146.71 16.014C143.723 16.014 143.082 14.8403 145.217 13.2398C147.777 11.2124 148.631 11.4258 148.631 13.88Z" fill="#FFB84D"/>
<path d="M165.169 20.4906C158.66 22.7313 156.42 26.6792 160.261 28.8132C163.569 30.5204 164.316 30.2003 167.197 24.972C170.931 18.3566 170.931 18.4633 165.169 20.4906ZM164.209 25.1854C161.008 27.4261 159.514 26.8926 162.395 24.4385C163.782 23.2648 165.276 22.6246 165.596 23.0514C165.916 23.3715 165.276 24.3318 164.209 25.1854Z" fill="#FFB84D"/>
<path d="M180.11 31.3821C176.056 33.0893 173.708 35.8635 175.309 36.8238C175.949 37.2506 177.23 36.9305 178.083 36.1836C179.364 35.1166 179.47 35.2233 178.937 36.7171C177.976 39.1712 181.391 40.1316 183.738 37.9975C184.912 36.9305 185.979 34.7965 186.192 32.9826C186.726 29.4615 185.339 29.0347 180.11 31.3821ZM183.845 32.7692C183.738 34.6898 181.924 36.5037 181.284 35.33C180.857 34.6898 180.857 33.6228 181.177 33.0893C181.924 31.8089 183.845 31.7022 183.845 32.7692Z" fill="#FFB84D"/>
<path d="M132.52 25.6109C134.974 27.745 136.894 28.3852 136.894 27.1048C136.894 25.931 133.267 23.5836 131.559 23.5836C130.492 23.5836 130.706 24.2238 132.52 25.6109Z" fill="#FFB84D"/>
<path d="M142.445 31.0504C142.979 32.7576 151.835 37.7725 151.835 36.3854C151.835 35.3184 144.152 29.8767 142.658 29.8767C142.338 29.8767 142.232 30.4102 142.445 31.0504Z" fill="#FFB84D"/>
<path d="M159.306 40.9827C159.946 41.8363 162.187 43.5435 164.321 44.8239C169.016 47.5981 168.482 45.144 163.574 41.8363C159.626 39.1688 157.385 38.742 159.306 40.9827Z" fill="#FFB84D"/>
<path d="M177.448 51.2175C177.448 52.4979 185.984 56.8726 186.838 56.1257C187.158 55.6989 186.518 54.7386 185.344 53.885C182.463 51.751 177.448 50.0438 177.448 51.2175Z" fill="#FFB84D"/>
<path d="M207.323 43.7514C207.323 44.2849 208.07 44.8184 208.924 44.8184C209.777 44.8184 210.524 44.2849 210.524 43.7514C210.524 43.1111 209.777 42.6843 208.924 42.6843C208.07 42.6843 207.323 43.1111 207.323 43.7514Z" fill="white"/>
<path d="M109.477 31.9078C103.609 35.2155 94.2192 40.017 88.6708 42.5778C83.2291 45.1386 78.0007 47.5928 77.1471 48.1263C76.2935 48.5531 71.492 51.2206 66.477 53.9948C61.4621 56.769 54.4199 60.6103 50.6853 62.5309C46.9508 64.4515 43.1096 66.6922 42.256 67.4391C40.8689 68.6128 40.4421 68.6128 40.0153 67.4391C39.6951 66.3721 39.0549 66.4788 37.241 68.0793C35.2137 69.8932 7.36482 85.6849 1.81638 88.139C0.109168 88.8859 -0.317635 89.6329 0.215869 91.1267C0.962774 93.154 1.06947 93.154 3.31019 90.9133C4.5906 89.6329 8.00502 87.3921 10.9926 85.8983C13.8736 84.4045 20.3823 80.7767 25.5039 77.7891C34.4668 72.454 38.8415 71.6004 36.7075 75.4417C35.8539 77.0422 15.3674 87.9256 3.84369 92.9406C-2.34495 95.6081 -1.17124 97.2086 12.9133 105.211C18.9952 108.732 25.5039 112.36 27.3179 113.534C29.2385 114.601 39.9086 120.576 51.0054 126.658C62.209 132.847 71.8121 138.288 72.4523 138.822C73.1992 139.462 75.8667 138.395 79.9213 135.621C83.4425 133.38 90.2713 129.219 95.2862 126.445C110.331 117.909 118.547 113.107 134.766 103.504C149.063 94.9679 177.659 79.8164 182.034 78.536C183.314 78.1092 183.848 76.8288 183.848 73.7344C183.848 71.387 184.168 68.8262 184.488 67.8659C184.915 66.6922 184.595 66.1587 183.314 66.1587C182.354 66.1587 177.126 63.1711 171.684 59.4365C166.349 55.8087 160.694 52.0742 159.093 51.2206C147.89 44.9252 121.001 28.0665 120.681 27.1062C120.468 26.466 115.666 28.4933 109.477 31.9078ZM117.693 32.9748C117.693 35.6423 117.053 36.2825 112.145 38.4165C109.051 39.6969 99.8744 44.0716 91.8718 48.1263C78.1074 54.9551 77.1471 55.2752 77.1471 53.0345C77.1471 51.0072 80.2414 49.0866 97.2069 40.3371C108.197 34.682 117.267 29.9871 117.48 29.9871C117.587 29.8804 117.693 31.2675 117.693 32.9748ZM130.071 35.9624C136.046 39.5902 138.607 41.8309 138.82 43.4314C139.14 45.6721 138.287 45.352 129.537 40.3371C123.028 36.6026 119.827 34.1485 119.827 32.8681C119.827 31.8011 120.254 30.9474 120.681 30.9474C121.215 30.9474 125.376 33.1882 130.071 35.9624ZM129.324 42.7912C144.689 51.7541 145.542 52.2876 159.627 61.5706C167.096 66.4788 173.178 70.9602 173.178 71.4937C173.178 72.3473 146.716 87.4988 145.222 87.4988C144.795 87.4988 139.034 90.8066 132.311 94.8612C125.589 99.0225 117.8 103.397 114.919 104.678C107.984 107.772 108.731 107.345 91.7651 118.015C83.6559 123.03 76.1868 127.298 75.2265 127.405C74.2662 127.405 73.1992 127.832 72.8791 128.259C72.3456 128.899 54.5266 118.762 51.3255 115.988C50.3652 115.028 49.2982 114.601 48.9781 114.921C48.658 115.241 44.4967 113.32 39.6951 110.546C34.8936 107.879 30.6256 105.638 30.1988 105.638C29.772 105.638 28.8117 104.891 28.0648 104.037C27.3179 103.184 26.1442 102.437 25.2905 102.437C24.0101 102.437 9.92564 94.1143 9.92564 93.2607C9.92564 93.154 16.3277 89.6329 24.1168 85.5782C42.5761 75.8685 69.6781 61.5706 72.3456 59.97C76.7203 57.4092 118.227 37.3495 119.187 37.3495C119.721 37.3495 124.202 39.8036 129.324 42.7912ZM148.103 46.9526C150.451 48.5531 154.398 51.1139 156.959 52.7144C159.413 54.2082 161.441 56.0221 161.441 56.5556C161.441 57.0891 162.081 57.3025 162.935 56.9824C163.788 56.6623 166.562 58.0494 169.123 59.97C171.791 61.8907 175.312 64.5582 177.019 65.7319C179.473 67.6525 179.793 68.3994 178.833 69.4664C177.766 70.5334 175.952 69.7865 169.87 65.5185C165.602 62.6376 161.441 59.7566 160.48 59.2231C142.555 48.233 139.994 46.3124 140.847 44.1783C141.488 42.5778 141.701 42.6845 148.103 46.9526ZM75.0131 54.1015C75.0131 56.1288 73.4126 57.0891 52.7126 67.8659C45.457 71.7071 39.2683 74.5881 39.0549 74.2679C37.3477 72.6674 41.0823 69.8932 54.3132 63.0644C62.4224 58.7963 69.9982 54.635 71.1719 53.7814C74.0528 51.7541 75.0131 51.8608 75.0131 54.1015ZM180.54 74.3746C179.58 76.0819 175.205 78.9628 167.843 82.6973C161.654 85.7916 153.652 90.0597 150.024 92.087C143.942 95.6081 143.302 95.7148 143.302 93.7942C143.302 91.5535 144.155 91.02 163.575 80.0298C171.364 75.5484 175.525 73.7344 177.232 74.1612C179.046 74.5881 179.58 74.2679 179.58 72.7741C179.58 70.32 180.967 68.7195 181.5 70.4267C181.821 71.1736 181.287 72.8808 180.54 74.3746ZM141.168 94.8612C141.168 96.9952 135.086 101.263 119.294 110.333C110.971 115.028 110.758 115.134 110.224 112.787C109.691 110.76 110.971 109.693 120.574 104.358C126.656 100.943 133.378 96.9952 135.512 95.5014C140.314 92.3004 141.168 92.1937 141.168 94.8612ZM14.6205 99.1292C18.2483 101.37 26.8911 106.171 33.9333 109.799C40.8689 113.427 47.2709 116.948 48.0178 117.588C49.2982 118.655 50.0451 122.71 48.8714 122.71C47.591 122.71 28.705 111.613 26.8911 109.799C25.9308 108.839 24.8637 108.199 24.5436 108.412C23.7967 109.159 4.2705 97.7421 3.73699 96.2483C2.88339 93.6875 8.11173 94.9679 14.6205 99.1292ZM106.276 117.162C103.716 118.976 75.76 135.514 75.2265 135.514C75.0131 135.514 75.0131 134.34 75.2265 132.953C75.4399 130.819 78.6409 128.365 91.5517 120.576C106.49 111.613 107.557 111.08 107.877 113.32C108.197 114.814 107.557 116.308 106.276 117.162ZM62.8492 125.484C70.8518 130.286 72.8791 131.993 72.8791 133.914C72.8791 136.261 72.2389 136.048 62.209 130.286C53.6729 125.484 51.5389 123.884 51.5389 121.856C51.5389 120.576 51.859 119.509 52.1791 119.509C52.4992 119.509 57.3008 122.177 62.8492 125.484Z" fill="white"/>
<path d="M47.97 74.5053C44.5632 76.486 38.938 83.1412 38.3834 85.5973C38.1457 86.7065 37.5911 88.4495 37.1949 89.4795C36.7988 90.5094 36.4819 92.6486 36.4819 94.2332C36.4819 95.8969 36.0065 97.7192 35.5312 98.2738C34.6596 99.0661 34.8181 99.5414 36.3234 100.492C37.2742 101.205 38.0665 102.314 38.0665 102.948C38.0665 103.978 38.3041 103.978 39.0172 103.265C39.8095 102.473 40.3641 103.027 41.7902 105.642L43.5332 109.049L43.6124 100.492V92.0148H46.7023C49.713 92.0148 49.8715 92.094 52.2483 97.3231C53.5952 100.175 54.9421 103.424 55.1797 104.454C55.4967 105.404 56.1305 106.276 56.7643 106.276C58.2696 106.276 58.2696 106.355 54.4667 98.1153L51.0599 90.8263L51.9314 83.6958L52.8029 76.5653L55.1797 81.7151C56.4474 84.5673 58.745 89.6379 60.2503 92.9655C61.9934 96.7685 63.261 98.8284 63.7364 98.353C64.8456 97.2438 53.199 73 51.6145 73C50.9014 73 49.2376 73.6338 47.97 74.5053ZM51.1391 76.7237C50.9806 77.9914 50.4261 81.5566 49.8715 84.6465L48.9999 90.4302H46.1477C43.2955 90.4302 39.651 87.9741 39.651 86.0727C39.651 84.805 49.3169 74.5846 50.5053 74.5846C51.1391 74.5846 51.3768 75.3768 51.1391 76.7237ZM40.0472 91.1433C39.8095 91.6186 39.1756 92.0148 38.7003 92.0148C38.2249 92.0148 38.2249 91.5394 38.8587 90.8263C39.9679 89.4795 40.9187 89.7964 40.0472 91.1433ZM40.7602 93.9955C39.3341 96.6892 38.0665 97.64 38.0665 95.9762C38.0665 94.7878 41.394 90.351 41.8694 90.8263C42.1071 91.064 41.6317 92.4901 40.7602 93.9955ZM42.424 96.61C41.7902 97.2438 40.4433 95.8177 40.9187 95.0254C41.2356 94.5501 41.6317 94.6293 42.1071 95.2631C42.424 95.8177 42.5825 96.4515 42.424 96.61ZM40.4433 99.2245C39.651 100.571 38.0665 101.364 38.0665 100.254C38.0665 99.0661 39.8095 96.7685 40.5225 97.1646C40.9187 97.4815 40.9187 98.1946 40.4433 99.2245ZM38.0665 97.9569C38.0665 98.1946 37.908 98.353 37.6703 98.353C37.4326 98.353 37.2742 98.1946 37.2742 97.9569C37.2742 97.7192 37.4326 97.5607 37.6703 97.5607C37.908 97.5607 38.0665 97.7192 38.0665 97.9569ZM42.0279 101.205C42.0279 101.839 41.711 102.156 41.2356 101.918C40.8394 101.681 40.4433 101.126 40.4433 100.651C40.4433 100.254 40.8394 99.9376 41.2356 99.9376C41.711 99.9376 42.0279 100.492 42.0279 101.205Z" fill="#FF30B3"/>
<g filter="url(#filter0_f_2134_5712)">
<path d="M47.97 74.5053C44.5632 76.486 38.938 83.1412 38.3834 85.5973C38.1457 86.7065 37.5911 88.4495 37.1949 89.4795C36.7988 90.5094 36.4819 92.6486 36.4819 94.2332C36.4819 95.8969 36.0065 97.7192 35.5312 98.2738C34.6596 99.0661 34.8181 99.5414 36.3234 100.492C37.2742 101.205 38.0665 102.314 38.0665 102.948C38.0665 103.978 38.3041 103.978 39.0172 103.265C39.8095 102.473 40.3641 103.027 41.7902 105.642L43.5332 109.049L43.6124 100.492V92.0148H46.7023C49.713 92.0148 49.8715 92.094 52.2483 97.3231C53.5952 100.175 54.9421 103.424 55.1797 104.454C55.4967 105.404 56.1305 106.276 56.7643 106.276C58.2696 106.276 58.2696 106.355 54.4667 98.1153L51.0599 90.8263L51.9314 83.6958L52.8029 76.5653L55.1797 81.7151C56.4474 84.5673 58.745 89.6379 60.2503 92.9655C61.9934 96.7685 63.261 98.8284 63.7364 98.353C64.8456 97.2438 53.199 73 51.6145 73C50.9014 73 49.2376 73.6338 47.97 74.5053ZM51.1391 76.7237C50.9806 77.9914 50.4261 81.5566 49.8715 84.6465L48.9999 90.4302H46.1477C43.2955 90.4302 39.651 87.9741 39.651 86.0727C39.651 84.805 49.3169 74.5846 50.5053 74.5846C51.1391 74.5846 51.3768 75.3768 51.1391 76.7237ZM40.0472 91.1433C39.8095 91.6186 39.1756 92.0148 38.7003 92.0148C38.2249 92.0148 38.2249 91.5394 38.8587 90.8263C39.9679 89.4795 40.9187 89.7964 40.0472 91.1433ZM40.7602 93.9955C39.3341 96.6892 38.0665 97.64 38.0665 95.9762C38.0665 94.7878 41.394 90.351 41.8694 90.8263C42.1071 91.064 41.6317 92.4901 40.7602 93.9955ZM42.424 96.61C41.7902 97.2438 40.4433 95.8177 40.9187 95.0254C41.2356 94.5501 41.6317 94.6293 42.1071 95.2631C42.424 95.8177 42.5825 96.4515 42.424 96.61ZM40.4433 99.2245C39.651 100.571 38.0665 101.364 38.0665 100.254C38.0665 99.0661 39.8095 96.7685 40.5225 97.1646C40.9187 97.4815 40.9187 98.1946 40.4433 99.2245ZM38.0665 97.9569C38.0665 98.1946 37.908 98.353 37.6703 98.353C37.4326 98.353 37.2742 98.1946 37.2742 97.9569C37.2742 97.7192 37.4326 97.5607 37.6703 97.5607C37.908 97.5607 38.0665 97.7192 38.0665 97.9569ZM42.0279 101.205C42.0279 101.839 41.711 102.156 41.2356 101.918C40.8394 101.681 40.4433 101.126 40.4433 100.651C40.4433 100.254 40.8394 99.9376 41.2356 99.9376C41.711 99.9376 42.0279 100.492 42.0279 101.205Z" fill="#FF30B3"/>
</g>
<path d="M97.735 78.5527C99.9311 79.9882 103.439 84.6088 103.722 86.2611C103.842 87.0068 104.15 88.185 104.377 88.8835C104.605 89.5821 104.741 91.0154 104.686 92.0689C104.628 93.175 104.881 94.4031 105.177 94.7884C105.729 95.3455 105.607 95.656 104.573 96.2357C103.916 96.6767 103.351 97.3865 103.329 97.8079C103.293 98.4927 103.135 98.4844 102.686 97.9855C102.187 97.4312 101.799 97.7806 100.759 99.4692L99.482 101.674L99.7272 95.9819L100.022 90.3457L97.9681 90.2381C95.9665 90.1332 95.8584 90.1804 94.096 93.5742C93.1012 95.4236 92.0926 97.5363 91.8987 98.2128C91.6549 98.8339 91.2032 99.3913 90.7818 99.3692C89.781 99.3168 89.7782 99.3695 92.5935 94.0237L95.1124 89.2962L94.7812 84.5251L94.4501 79.754L92.6905 83.0951C91.7484 84.9473 90.0443 88.2385 88.9276 90.3984C87.6363 92.8661 86.7218 94.1915 86.4223 93.8589C85.7234 93.0828 94.3109 77.3698 95.3644 77.425C95.8385 77.4498 96.9226 77.9292 97.735 78.5527ZM95.5508 79.9173C95.612 80.7656 95.8566 83.1553 96.1177 85.2289L96.4957 89.1046L98.392 89.2039C100.288 89.3032 102.797 87.7972 102.863 86.533C102.907 85.6902 96.8368 78.5585 96.0467 78.5171C95.6253 78.4951 95.4397 79.0135 95.5508 79.9173ZM102.423 89.8904C102.565 90.2147 102.972 90.5002 103.288 90.5167C103.604 90.5333 103.621 90.2172 103.224 89.7211C102.534 88.787 101.891 88.9646 102.423 89.8904ZM101.85 91.7619C102.704 93.6025 103.514 94.2787 103.572 93.1725C103.613 92.3824 101.555 89.3167 101.223 89.6162C101.056 89.766 101.323 90.7307 101.85 91.7619ZM100.653 93.4422C101.052 93.8857 101.997 92.9844 101.709 92.4411C101.514 92.114 101.248 92.1529 100.91 92.5578C100.68 92.9154 100.553 93.3313 100.653 93.4422ZM101.878 95.2494C102.358 96.1725 103.384 96.7544 103.423 96.017C103.464 95.2269 102.385 93.6386 101.897 93.8771C101.623 94.074 101.598 94.5481 101.878 95.2494ZM103.503 94.4894C103.495 94.6474 103.594 94.7583 103.752 94.7666C103.91 94.7749 104.021 94.675 104.03 94.517C104.038 94.359 103.938 94.2481 103.78 94.2398C103.622 94.2316 103.511 94.3314 103.503 94.4894ZM100.756 96.5111C100.734 96.9325 100.934 97.1543 101.258 97.0128C101.529 96.8686 101.812 96.5137 101.829 96.1976C101.843 95.9342 101.59 95.7097 101.327 95.6959C101.011 95.6794 100.781 96.0371 100.756 96.5111Z" fill="#FF30B3"/>
<g filter="url(#filter1_f_2134_5712)">
<path d="M97.735 78.5527C99.9311 79.9882 103.439 84.6088 103.722 86.2611C103.842 87.0068 104.15 88.185 104.377 88.8835C104.605 89.5821 104.741 91.0154 104.686 92.0689C104.628 93.175 104.881 94.4031 105.177 94.7884C105.729 95.3455 105.607 95.656 104.573 96.2357C103.916 96.6767 103.351 97.3865 103.329 97.8079C103.293 98.4927 103.135 98.4844 102.686 97.9855C102.187 97.4312 101.799 97.7806 100.759 99.4692L99.482 101.674L99.7272 95.9819L100.022 90.3457L97.9681 90.2381C95.9665 90.1332 95.8584 90.1804 94.096 93.5742C93.1012 95.4236 92.0926 97.5363 91.8987 98.2128C91.6549 98.8339 91.2032 99.3913 90.7818 99.3692C89.781 99.3168 89.7782 99.3695 92.5935 94.0237L95.1124 89.2962L94.7812 84.5251L94.4501 79.754L92.6905 83.0951C91.7484 84.9473 90.0443 88.2385 88.9276 90.3984C87.6363 92.8661 86.7218 94.1915 86.4223 93.8589C85.7234 93.0828 94.3109 77.3698 95.3644 77.425C95.8385 77.4498 96.9226 77.9292 97.735 78.5527ZM95.5508 79.9173C95.612 80.7656 95.8566 83.1553 96.1177 85.2289L96.4957 89.1046L98.392 89.2039C100.288 89.3032 102.797 87.7972 102.863 86.533C102.907 85.6902 96.8368 78.5585 96.0467 78.5171C95.6253 78.4951 95.4397 79.0135 95.5508 79.9173ZM102.423 89.8904C102.565 90.2147 102.972 90.5002 103.288 90.5167C103.604 90.5333 103.621 90.2172 103.224 89.7211C102.534 88.787 101.891 88.9646 102.423 89.8904ZM101.85 91.7619C102.704 93.6025 103.514 94.2787 103.572 93.1725C103.613 92.3824 101.555 89.3167 101.223 89.6162C101.056 89.766 101.323 90.7307 101.85 91.7619ZM100.653 93.4422C101.052 93.8857 101.997 92.9844 101.709 92.4411C101.514 92.114 101.248 92.1529 100.91 92.5578C100.68 92.9154 100.553 93.3313 100.653 93.4422ZM101.878 95.2494C102.358 96.1725 103.384 96.7544 103.423 96.017C103.464 95.2269 102.385 93.6386 101.897 93.8771C101.623 94.074 101.598 94.5481 101.878 95.2494ZM103.503 94.4894C103.495 94.6474 103.594 94.7583 103.752 94.7666C103.91 94.7749 104.021 94.675 104.03 94.517C104.038 94.359 103.938 94.2481 103.78 94.2398C103.622 94.2316 103.511 94.3314 103.503 94.4894ZM100.756 96.5111C100.734 96.9325 100.934 97.1543 101.258 97.0128C101.529 96.8686 101.812 96.5137 101.829 96.1976C101.843 95.9342 101.59 95.7097 101.327 95.6959C101.011 95.6794 100.781 96.0371 100.756 96.5111Z" fill="#FF30B3"/>
</g>
<path d="M75.5963 103.006C77.0178 103.935 79.2886 106.926 79.472 107.995C79.5492 108.478 79.7486 109.241 79.8959 109.693C80.0432 110.145 80.1313 111.073 80.0956 111.755C80.0581 112.471 80.2216 113.266 80.4137 113.515C80.7709 113.876 80.692 114.077 80.0227 114.452C79.5975 114.737 79.2315 115.197 79.2172 115.47C79.194 115.913 79.0917 115.907 78.8009 115.584C78.4778 115.226 78.2267 115.452 77.554 116.545L76.7271 117.972L76.8858 114.288L77.0769 110.639L75.7472 110.57C74.4515 110.502 74.3815 110.532 73.2408 112.729C72.5968 113.926 71.944 115.294 71.8185 115.732C71.6606 116.134 71.3682 116.494 71.0954 116.48C70.4476 116.446 70.4458 116.48 72.2682 113.02L73.8986 109.96L73.6843 106.872L73.47 103.783L72.331 105.946C71.7212 107.145 70.6181 109.275 69.8952 110.673C69.0594 112.271 68.4674 113.129 68.2735 112.913C67.8212 112.411 73.3798 102.24 74.0618 102.276C74.3686 102.292 75.0704 102.602 75.5963 103.006ZM74.1824 103.889C74.222 104.438 74.3804 105.985 74.5494 107.327L74.7941 109.836L76.0216 109.9C77.249 109.964 78.8728 108.99 78.9157 108.171C78.9443 107.626 75.0149 103.009 74.5034 102.983C74.2306 102.968 74.1105 103.304 74.1824 103.889ZM78.6309 110.344C78.7225 110.554 78.9863 110.739 79.1909 110.75C79.3955 110.761 79.4062 110.556 79.1495 110.235C78.7025 109.63 78.2862 109.745 78.6309 110.344ZM78.2598 111.556C78.8128 112.747 79.3369 113.185 79.3744 112.469C79.4012 111.958 78.0691 109.973 77.8538 110.167C77.7462 110.264 77.9186 110.888 78.2598 111.556ZM77.4848 112.644C77.7433 112.931 78.3551 112.347 78.1684 111.996C78.0427 111.784 77.8704 111.809 77.6515 112.071C77.5027 112.303 77.4202 112.572 77.4848 112.644ZM78.2783 113.813C78.5889 114.411 79.253 114.788 79.278 114.31C79.3048 113.799 78.6064 112.771 78.2906 112.925C78.113 113.053 78.0969 113.359 78.2783 113.813ZM79.3298 113.321C79.3244 113.424 79.389 113.495 79.4913 113.501C79.5936 113.506 79.6654 113.442 79.6707 113.339C79.6761 113.237 79.6115 113.165 79.5092 113.16C79.4069 113.155 79.3351 113.219 79.3298 113.321ZM77.5517 114.63C77.5374 114.903 77.6667 115.046 77.8766 114.955C78.0524 114.861 78.2354 114.632 78.2461 114.427C78.2551 114.257 78.0917 114.111 77.9212 114.102C77.7167 114.092 77.5678 114.323 77.5517 114.63Z" fill="#FF30B3"/>
<g filter="url(#filter2_f_2134_5712)">
<path d="M75.5963 103.006C77.0178 103.935 79.2886 106.926 79.472 107.995C79.5492 108.478 79.7486 109.241 79.8959 109.693C80.0432 110.145 80.1313 111.073 80.0956 111.755C80.0581 112.471 80.2216 113.266 80.4137 113.515C80.7709 113.876 80.692 114.077 80.0227 114.452C79.5975 114.737 79.2315 115.197 79.2172 115.47C79.194 115.913 79.0917 115.907 78.8009 115.584C78.4778 115.226 78.2267 115.452 77.554 116.545L76.7271 117.972L76.8858 114.288L77.0769 110.639L75.7472 110.57C74.4515 110.502 74.3815 110.532 73.2408 112.729C72.5968 113.926 71.944 115.294 71.8185 115.732C71.6606 116.134 71.3682 116.494 71.0954 116.48C70.4476 116.446 70.4458 116.48 72.2682 113.02L73.8986 109.96L73.6843 106.872L73.47 103.783L72.331 105.946C71.7212 107.145 70.6181 109.275 69.8952 110.673C69.0594 112.271 68.4674 113.129 68.2735 112.913C67.8212 112.411 73.3798 102.24 74.0618 102.276C74.3686 102.292 75.0704 102.602 75.5963 103.006ZM74.1824 103.889C74.222 104.438 74.3804 105.985 74.5494 107.327L74.7941 109.836L76.0216 109.9C77.249 109.964 78.8728 108.99 78.9157 108.171C78.9443 107.626 75.0149 103.009 74.5034 102.983C74.2306 102.968 74.1105 103.304 74.1824 103.889ZM78.6309 110.344C78.7225 110.554 78.9863 110.739 79.1909 110.75C79.3955 110.761 79.4062 110.556 79.1495 110.235C78.7025 109.63 78.2862 109.745 78.6309 110.344ZM78.2598 111.556C78.8128 112.747 79.3369 113.185 79.3744 112.469C79.4012 111.958 78.0691 109.973 77.8538 110.167C77.7462 110.264 77.9186 110.888 78.2598 111.556ZM77.4848 112.644C77.7433 112.931 78.3551 112.347 78.1684 111.996C78.0427 111.784 77.8704 111.809 77.6515 112.071C77.5027 112.303 77.4202 112.572 77.4848 112.644ZM78.2783 113.813C78.5889 114.411 79.253 114.788 79.278 114.31C79.3048 113.799 78.6064 112.771 78.2906 112.925C78.113 113.053 78.0969 113.359 78.2783 113.813ZM79.3298 113.321C79.3244 113.424 79.389 113.495 79.4913 113.501C79.5936 113.506 79.6654 113.442 79.6707 113.339C79.6761 113.237 79.6115 113.165 79.5092 113.16C79.4069 113.155 79.3351 113.219 79.3298 113.321ZM77.5517 114.63C77.5374 114.903 77.6667 115.046 77.8766 114.955C78.0524 114.861 78.2354 114.632 78.2461 114.427C78.2551 114.257 78.0917 114.111 77.9212 114.102C77.7167 114.092 77.5678 114.323 77.5517 114.63Z" fill="#FF30B3"/>
</g>
<path d="M153.106 67.8071C154.248 68.554 156.074 70.9583 156.221 71.818C156.283 72.206 156.444 72.819 156.562 73.1825C156.68 73.546 156.751 74.2918 156.723 74.8399C156.692 75.4155 156.824 76.0545 156.978 76.255C157.265 76.5449 157.202 76.7065 156.664 77.0081C156.322 77.2375 156.028 77.6069 156.017 77.8262C155.998 78.1825 155.916 78.1782 155.682 77.9186C155.422 77.6301 155.22 77.812 154.68 78.6906L154.015 79.8376L154.142 76.876L154.296 73.9433L153.227 73.8873C152.186 73.8328 152.129 73.8573 151.212 75.6232C150.695 76.5855 150.17 77.6849 150.069 78.0369C149.942 78.36 149.707 78.65 149.488 78.6385C148.967 78.6113 148.966 78.6387 150.431 75.8571L151.741 73.3972L151.569 70.9147L151.397 68.4321L150.481 70.1706C149.991 71.1344 149.104 72.8469 148.523 73.9708C147.851 75.2548 147.375 75.9444 147.219 75.7714C146.856 75.3675 151.324 67.1916 151.872 67.2203C152.119 67.2332 152.683 67.4826 153.106 67.8071ZM151.969 68.5171C152.001 68.9585 152.128 70.2019 152.264 71.2809L152.461 73.2975L153.448 73.3492C154.434 73.4009 155.74 72.6173 155.774 71.9595C155.797 71.5209 152.638 67.8101 152.227 67.7886C152.008 67.7771 151.911 68.0468 151.969 68.5171ZM155.545 73.7064C155.619 73.8752 155.831 74.0237 155.995 74.0323C156.16 74.0409 156.168 73.8765 155.962 73.6183C155.603 73.1323 155.268 73.2247 155.545 73.7064ZM155.247 74.6802C155.691 75.6379 156.113 75.9898 156.143 75.4142C156.164 75.0031 155.094 73.4079 154.921 73.5638C154.834 73.6417 154.973 74.1437 155.247 74.6802ZM154.624 75.5545C154.832 75.7853 155.323 75.3163 155.173 75.0336C155.072 74.8635 154.934 74.8837 154.758 75.0943C154.638 75.2805 154.572 75.4969 154.624 75.5545ZM155.262 76.4949C155.511 76.9752 156.045 77.278 156.065 76.8943C156.087 76.4832 155.525 75.6567 155.272 75.7809C155.129 75.8833 155.116 76.13 155.262 76.4949ZM156.107 76.0994C156.103 76.1817 156.155 76.2394 156.237 76.2437C156.319 76.248 156.377 76.196 156.381 76.1138C156.385 76.0316 156.333 75.9739 156.251 75.9696C156.169 75.9653 156.111 76.0172 156.107 76.0994ZM154.678 77.1514C154.666 77.3707 154.77 77.4861 154.939 77.4124C155.08 77.3374 155.227 77.1527 155.236 76.9883C155.243 76.8512 155.112 76.7344 154.975 76.7272C154.81 76.7186 154.691 76.9047 154.678 77.1514Z" fill="#FF30B3"/>
<g filter="url(#filter3_f_2134_5712)">
<path d="M153.106 67.8071C154.248 68.554 156.074 70.9583 156.221 71.818C156.283 72.206 156.444 72.819 156.562 73.1825C156.68 73.546 156.751 74.2918 156.723 74.8399C156.692 75.4155 156.824 76.0545 156.978 76.255C157.265 76.5449 157.202 76.7065 156.664 77.0081C156.322 77.2375 156.028 77.6069 156.017 77.8262C155.998 78.1825 155.916 78.1782 155.682 77.9186C155.422 77.6301 155.22 77.812 154.68 78.6906L154.015 79.8376L154.142 76.876L154.296 73.9433L153.227 73.8873C152.186 73.8328 152.129 73.8573 151.212 75.6232C150.695 76.5855 150.17 77.6849 150.069 78.0369C149.942 78.36 149.707 78.65 149.488 78.6385C148.967 78.6113 148.966 78.6387 150.431 75.8571L151.741 73.3972L151.569 70.9147L151.397 68.4321L150.481 70.1706C149.991 71.1344 149.104 72.8469 148.523 73.9708C147.851 75.2548 147.375 75.9444 147.219 75.7714C146.856 75.3675 151.324 67.1916 151.872 67.2203C152.119 67.2332 152.683 67.4826 153.106 67.8071ZM151.969 68.5171C152.001 68.9585 152.128 70.2019 152.264 71.2809L152.461 73.2975L153.448 73.3492C154.434 73.4009 155.74 72.6173 155.774 71.9595C155.797 71.5209 152.638 67.8101 152.227 67.7886C152.008 67.7771 151.911 68.0468 151.969 68.5171ZM155.545 73.7064C155.619 73.8752 155.831 74.0237 155.995 74.0323C156.16 74.0409 156.168 73.8765 155.962 73.6183C155.603 73.1323 155.268 73.2247 155.545 73.7064ZM155.247 74.6802C155.691 75.6379 156.113 75.9898 156.143 75.4142C156.164 75.0031 155.094 73.4079 154.921 73.5638C154.834 73.6417 154.973 74.1437 155.247 74.6802ZM154.624 75.5545C154.832 75.7853 155.323 75.3163 155.173 75.0336C155.072 74.8635 154.934 74.8837 154.758 75.0943C154.638 75.2805 154.572 75.4969 154.624 75.5545ZM155.262 76.4949C155.511 76.9752 156.045 77.278 156.065 76.8943C156.087 76.4832 155.525 75.6567 155.272 75.7809C155.129 75.8833 155.116 76.13 155.262 76.4949ZM156.107 76.0994C156.103 76.1817 156.155 76.2394 156.237 76.2437C156.319 76.248 156.377 76.196 156.381 76.1138C156.385 76.0316 156.333 75.9739 156.251 75.9696C156.169 75.9653 156.111 76.0172 156.107 76.0994ZM154.678 77.1514C154.666 77.3707 154.77 77.4861 154.939 77.4124C155.08 77.3374 155.227 77.1527 155.236 76.9883C155.243 76.8512 155.112 76.7344 154.975 76.7272C154.81 76.7186 154.691 76.9047 154.678 77.1514Z" fill="#FF30B3"/>
</g>
<path d="M113.814 47.4686C111.851 48.3832 108.442 51.7454 108.017 53.0619C107.831 53.657 107.441 54.5832 107.173 55.1272C106.905 55.6711 106.626 56.8259 106.547 57.693C106.464 58.6034 106.114 59.5769 105.826 59.8568C105.31 60.247 105.373 60.515 106.149 61.1101C106.634 61.5475 107.013 62.1938 106.981 62.5407C106.93 63.1043 107.06 63.1161 107.486 62.7613C107.959 62.3671 108.234 62.6982 108.885 64.1997L109.669 66.1506L110.138 61.4723L110.559 56.8334L112.25 56.9869C113.897 57.1365 113.98 57.1877 115.021 60.1672C115.616 61.7949 116.192 63.6393 116.271 64.2147C116.397 64.7507 116.701 65.2591 117.047 65.2906C117.871 65.3654 117.867 65.4087 116.196 60.711L114.693 56.5531L115.525 52.6945L116.356 48.836L117.401 51.7721C117.953 53.3958 118.958 56.2846 119.616 58.1803C120.381 60.3479 120.972 61.5381 121.256 61.3016C121.918 60.7498 116.75 46.9047 115.883 46.826C115.493 46.7905 114.551 47.0547 113.814 47.4686ZM115.438 48.84C115.288 49.5258 114.807 51.4492 114.35 53.1124L113.586 56.234L112.025 56.0923C110.464 55.9505 108.592 54.4255 108.687 53.385C108.75 52.6913 114.547 47.5789 115.197 47.6379C115.544 47.6694 115.635 48.1148 115.438 48.84ZM108.652 56.1793C108.498 56.4276 108.131 56.6129 107.871 56.5893C107.611 56.5657 107.635 56.3055 108.017 55.9468C108.691 55.2649 109.195 55.4856 108.652 56.1793ZM108.9 57.7755C107.986 59.1787 107.245 59.6359 107.328 58.7255C107.387 58.0752 109.428 55.8127 109.664 56.0964C109.783 56.2383 109.452 56.9951 108.9 57.7755ZM109.681 59.2888C109.302 59.6042 108.636 58.7569 108.936 58.347C109.133 58.1026 109.345 58.1656 109.574 58.5361C109.72 58.8553 109.775 59.21 109.681 59.2888ZM108.467 60.6211C107.966 61.3188 107.06 61.6736 107.115 61.0666C107.174 60.4163 108.242 59.2456 108.612 59.4978C108.813 59.6909 108.778 60.0811 108.467 60.6211ZM107.229 59.8094C107.217 59.9394 107.123 60.0182 106.993 60.0064C106.863 59.9946 106.784 59.9 106.796 59.77C106.807 59.6399 106.902 59.5611 107.032 59.5729C107.162 59.5847 107.241 59.6793 107.229 59.8094ZM109.235 61.7837C109.204 62.1305 109.015 62.2882 108.766 62.1345C108.561 61.9848 108.372 61.6616 108.396 61.4015C108.416 61.1847 108.648 61.031 108.865 61.0507C109.125 61.0743 109.271 61.3935 109.235 61.7837Z" fill="#FF30B3"/>
<g filter="url(#filter4_f_2134_5712)">
<path d="M113.814 47.4686C111.851 48.3832 108.442 51.7454 108.017 53.0619C107.831 53.657 107.441 54.5832 107.173 55.1272C106.905 55.6711 106.626 56.8259 106.547 57.693C106.464 58.6034 106.114 59.5769 105.826 59.8568C105.31 60.247 105.373 60.515 106.149 61.1101C106.634 61.5475 107.013 62.1938 106.981 62.5407C106.93 63.1043 107.06 63.1161 107.486 62.7613C107.959 62.3671 108.234 62.6982 108.885 64.1997L109.669 66.1506L110.138 61.4723L110.559 56.8334L112.25 56.9869C113.897 57.1365 113.98 57.1877 115.021 60.1672C115.616 61.7949 116.192 63.6393 116.271 64.2147C116.397 64.7507 116.701 65.2591 117.047 65.2906C117.871 65.3654 117.867 65.4087 116.196 60.711L114.693 56.5531L115.525 52.6945L116.356 48.836L117.401 51.7721C117.953 53.3958 118.958 56.2846 119.616 58.1803C120.381 60.3479 120.972 61.5381 121.256 61.3016C121.918 60.7498 116.75 46.9047 115.883 46.826C115.493 46.7905 114.551 47.0547 113.814 47.4686ZM115.438 48.84C115.288 49.5258 114.807 51.4492 114.35 53.1124L113.586 56.234L112.025 56.0923C110.464 55.9505 108.592 54.4255 108.687 53.385C108.75 52.6913 114.547 47.5789 115.197 47.6379C115.544 47.6694 115.635 48.1148 115.438 48.84ZM108.652 56.1793C108.498 56.4276 108.131 56.6129 107.871 56.5893C107.611 56.5657 107.635 56.3055 108.017 55.9468C108.691 55.2649 109.195 55.4856 108.652 56.1793ZM108.9 57.7755C107.986 59.1787 107.245 59.6359 107.328 58.7255C107.387 58.0752 109.428 55.8127 109.664 56.0964C109.783 56.2383 109.452 56.9951 108.9 57.7755ZM109.681 59.2888C109.302 59.6042 108.636 58.7569 108.936 58.347C109.133 58.1026 109.345 58.1656 109.574 58.5361C109.72 58.8553 109.775 59.21 109.681 59.2888ZM108.467 60.6211C107.966 61.3188 107.06 61.6736 107.115 61.0666C107.174 60.4163 108.242 59.2456 108.612 59.4978C108.813 59.6909 108.778 60.0811 108.467 60.6211ZM107.229 59.8094C107.217 59.9394 107.123 60.0182 106.993 60.0064C106.863 59.9946 106.784 59.9 106.796 59.77C106.807 59.6399 106.902 59.5611 107.032 59.5729C107.162 59.5847 107.241 59.6793 107.229 59.8094ZM109.235 61.7837C109.204 62.1305 109.015 62.2882 108.766 62.1345C108.561 61.9848 108.372 61.6616 108.396 61.4015C108.416 61.1847 108.648 61.031 108.865 61.0507C109.125 61.0743 109.271 61.3935 109.235 61.7837Z" fill="#FF30B3"/>
</g>
<path fill-rule="evenodd" clip-rule="evenodd" d="M59.4572 83.9077L63.8287 82.4765L64.0673 83.2051L59.6957 84.6363L59.4572 83.9077ZM59.2057 85.6034L58.9671 84.8748L59.6957 84.6363L59.9342 85.3649L59.2057 85.6034ZM60.6368 89.975L59.2057 85.6034L58.4771 85.8419L59.9082 90.2135L60.6368 89.975ZM61.604 90.465L61.3654 89.7364L60.6368 89.975L60.8754 90.7035L61.604 90.465ZM65.9755 89.0338L66.214 89.7624L61.8425 91.1936L61.604 90.465L65.9755 89.0338ZM66.4656 88.0667L66.7041 88.7953L65.9755 89.0338L65.737 88.3052L66.4656 88.0667ZM65.0344 83.6952L65.763 83.4566L67.1942 87.8282L66.4656 88.0667L65.0344 83.6952ZM65.0344 83.6952L64.7958 82.9666L64.0673 83.2051L64.3058 83.9337L65.0344 83.6952ZM61.6365 84.4043L62.365 84.1657L62.6036 84.8943L63.6965 84.5365L63.935 85.2651L62.8421 85.6229L62.1135 85.8614L61.7492 85.9807L61.9878 86.7093L63.4449 86.2322L64.1735 85.9937L64.4121 86.7223L64.6506 87.4509L64.8891 88.1795L64.1605 88.418L63.7962 88.5373L64.0348 89.2659L63.3062 89.5044L63.0676 88.7758L61.9748 89.1336L61.7362 88.405L62.8291 88.0472L63.5577 87.8087L63.922 87.6894L63.6835 86.9608L62.2263 87.4379L61.4977 87.6764L61.2592 86.9478L61.0206 86.2192L60.7821 85.4906L61.5107 85.2521L61.875 85.1329L61.6365 84.4043Z" fill="#FF30B3"/>
<path fill-rule="evenodd" clip-rule="evenodd" d="M79.9427 107.522L82.7708 107.13L82.8361 107.602L80.008 107.993L79.9427 107.522ZM79.6019 108.53L79.5366 108.058L80.008 107.993L80.0732 108.465L79.6019 108.53ZM79.9934 111.358L79.6019 108.53L79.1305 108.595L79.5221 111.423L79.9934 111.358ZM80.5301 111.764L80.4648 111.293L79.9934 111.358L80.0587 111.829L80.5301 111.764ZM83.3582 111.372L83.4234 111.844L80.5953 112.235L80.5301 111.764L83.3582 111.372ZM83.7643 110.836L83.8295 111.307L83.3582 111.372L83.2929 110.901L83.7643 110.836ZM83.3727 108.008L83.844 107.942L84.2356 110.771L83.7643 110.836L83.3727 108.008ZM83.3727 108.008L83.3074 107.536L82.8361 107.602L82.9013 108.073L83.3727 108.008ZM81.219 108.066L81.6903 108L81.7556 108.472L82.4626 108.374L82.5279 108.845L81.8208 108.943L81.3495 109.008L81.1138 109.041L81.1791 109.512L82.1218 109.382L82.5931 109.317L82.6584 109.788L82.7237 110.259L82.7889 110.731L82.3176 110.796L82.0819 110.829L82.1472 111.3L81.6758 111.365L81.6105 110.894L80.9035 110.992L80.8383 110.52L81.5453 110.422L82.0166 110.357L82.2523 110.325L82.187 109.853L81.2443 109.984L80.773 110.049L80.7077 109.578L80.6425 109.106L80.5772 108.635L81.0486 108.57L81.2842 108.537L81.219 108.066Z" fill="#FF30B3"/>
<path fill-rule="evenodd" clip-rule="evenodd" d="M68.4203 104.92L70.9965 106.151L70.7914 106.58L68.2152 105.349L68.4203 104.92ZM67.5807 105.574L67.7858 105.144L68.2152 105.349L68.0101 105.779L67.5807 105.574ZM66.3501 108.15L67.5807 105.574L67.1513 105.369L65.9207 107.945L66.3501 108.15ZM66.5744 108.784L66.7795 108.355L66.3501 108.15L66.145 108.579L66.5744 108.784ZM69.1507 110.015L68.9456 110.444L66.3693 109.214L66.5744 108.784L69.1507 110.015ZM69.7851 109.791L69.58 110.22L69.1507 110.015L69.3558 109.586L69.7851 109.791ZM71.0157 107.214L71.4451 107.42L70.2145 109.996L69.7851 109.791L71.0157 107.214ZM71.0157 107.214L71.2208 106.785L70.7914 106.58L70.5863 107.009L71.0157 107.214ZM69.1861 106.077L69.6155 106.282L69.4104 106.711L70.0544 107.019L69.8493 107.448L69.2053 107.141L68.7759 106.936L68.5612 106.833L68.3561 107.262L69.2148 107.673L69.6442 107.878L69.4391 108.307L69.234 108.736L69.0289 109.166L68.5995 108.961L68.3849 108.858L68.1798 109.288L67.7504 109.082L67.9555 108.653L67.3114 108.345L67.5165 107.916L68.1606 108.224L68.59 108.429L68.8046 108.531L69.0097 108.102L68.151 107.692L67.7216 107.487L67.9267 107.057L68.1318 106.628L68.3369 106.199L68.7663 106.404L68.981 106.506L69.1861 106.077Z" fill="#FF30B3"/>
<path fill-rule="evenodd" clip-rule="evenodd" d="M53.775 75.9673L57.5736 73.3733L58.006 74.0064L54.2073 76.6005L53.775 75.9673ZM54.0066 77.6659L53.5742 77.0328L54.2073 76.6005L54.6397 77.2336L54.0066 77.6659ZM56.6006 81.4645L54.0066 77.6659L53.3735 78.0982L55.9675 81.8969L56.6006 81.4645ZM57.6661 81.6653L57.2337 81.0322L56.6006 81.4645L57.033 82.0976L57.6661 81.6653ZM61.4647 79.0712L61.897 79.7043L58.0984 82.2984L57.6661 81.6653L61.4647 79.0712ZM61.6655 78.0058L62.0978 78.6389L61.4647 79.0712L61.0324 78.4381L61.6655 78.0058ZM59.0714 74.2072L59.7045 73.7748L62.2986 77.5734L61.6655 78.0058L59.0714 74.2072ZM59.0714 74.2072L58.6391 73.5741L58.006 74.0064L58.4383 74.6395L59.0714 74.2072ZM56.0063 75.8361L56.6394 75.4038L57.0717 76.0369L58.0214 75.3884L58.4537 76.0215L57.5041 76.67L56.871 77.1024L56.5544 77.3185L56.9867 77.9516L58.253 77.0869L58.8861 76.6546L59.3184 77.2877L59.7507 77.9208L60.1831 78.5539L59.55 78.9863L59.2334 79.2024L59.6658 79.8355L59.0327 80.2679L58.6003 79.6348L57.6507 80.2833L57.2183 79.6502L58.168 79.0017L58.8011 78.5693L59.1176 78.3532L58.6853 77.72L57.4191 78.5847L56.786 79.0171L56.3536 78.384L55.9213 77.7509L55.489 77.1178L56.1221 76.6854L56.4386 76.4692L56.0063 75.8361Z" fill="#FF30B3"/>
<path fill-rule="evenodd" clip-rule="evenodd" d="M39.9243 81.8105L36.2312 79.0683L36.6882 78.4528L40.3813 81.195L39.9243 81.8105ZM41.4538 81.0365L40.9968 81.6521L40.3813 81.195L40.8383 80.5795L41.4538 81.0365ZM44.1961 77.3435L41.4538 81.0365L42.0694 81.4936L44.8116 77.8005L44.1961 77.3435ZM44.0376 76.2709L43.5806 76.8864L44.1961 77.3435L44.6531 76.728L44.0376 76.2709ZM40.3446 73.5287L40.8016 72.9132L44.4947 75.6554L44.0376 76.2709L40.3446 73.5287ZM39.272 73.6871L39.729 73.0716L40.3446 73.5287L39.8875 74.1442L39.272 73.6871ZM36.5298 77.3802L35.9142 76.9232L38.6565 73.2301L39.272 73.6871L36.5298 77.3802ZM36.5298 77.3802L36.0727 77.9957L36.6882 78.4528L37.1453 77.8373L36.5298 77.3802ZM39.071 79.7447L38.4555 79.2876L38.9126 78.6721L37.9893 77.9865L38.4463 77.371L39.3696 78.0566L39.9851 78.5136L40.2929 78.7422L40.7499 78.1266L39.5189 77.2126L38.9034 76.7555L39.3604 76.14L39.8175 75.5245L40.2745 74.909L40.89 75.366L41.1978 75.5945L41.6548 74.979L42.2703 75.4361L41.8133 76.0516L42.7365 76.7371L42.2795 77.3527L41.3562 76.6671L40.7407 76.2101L40.433 75.9815L39.9759 76.597L41.207 77.5111L41.8225 77.9682L41.3654 78.5837L40.9084 79.1992L40.4513 79.8147L39.8358 79.3577L39.5281 79.1291L39.071 79.7447Z" fill="#FF30B3"/>
<path fill-rule="evenodd" clip-rule="evenodd" d="M103.943 86.5218L106.771 86.1303L106.836 86.6016L104.008 86.9932L103.943 86.5218ZM103.602 87.5298L103.537 87.0584L104.008 86.9932L104.073 87.4645L103.602 87.5298ZM103.993 90.3579L103.602 87.5298L103.131 87.595L103.522 90.4232L103.993 90.3579ZM104.53 90.764L104.465 90.2926L103.993 90.3579L104.059 90.8292L104.53 90.764ZM107.358 90.3724L107.423 90.8438L104.595 91.2353L104.53 90.764L107.358 90.3724ZM107.764 89.8358L107.83 90.3072L107.358 90.3724L107.293 89.9011L107.764 89.8358ZM107.373 87.0077L107.844 86.9424L108.236 89.7705L107.764 89.8358L107.373 87.0077ZM107.373 87.0077L107.307 86.5363L106.836 86.6016L106.901 87.073L107.373 87.0077ZM105.219 87.0657L105.69 87.0004L105.756 87.4718L106.463 87.3739L106.528 87.8452L105.821 87.9431L105.349 88.0084L105.114 88.041L105.179 88.5124L106.122 88.3819L106.593 88.3166L106.658 88.7879L106.724 89.2593L106.789 89.7307L106.318 89.7959L106.082 89.8285L106.147 90.2999L105.676 90.3652L105.611 89.8938L104.904 89.9917L104.838 89.5203L105.545 89.4225L106.017 89.3572L106.252 89.3246L106.187 88.8532L105.244 88.9837L104.773 89.049L104.708 88.5776L104.642 88.1063L104.577 87.6349L105.049 87.5697L105.284 87.537L105.219 87.0657Z" fill="#FF30B3"/>
<path fill-rule="evenodd" clip-rule="evenodd" d="M99.701 80.575L101.804 78.6439L102.126 78.9944L100.023 80.9255L99.701 80.575ZM99.9942 81.5979L99.6723 81.2474L100.023 80.9255L100.345 81.276L99.9942 81.5979ZM101.925 83.7008L99.9942 81.5979L99.6437 81.9197L101.575 84.0226L101.925 83.7008ZM102.598 83.7294L102.276 83.3789L101.925 83.7008L102.247 84.0513L102.598 83.7294ZM104.701 81.7983L105.022 82.1488L102.92 84.0799L102.598 83.7294L104.701 81.7983ZM104.729 81.126L105.051 81.4764L104.701 81.7983L104.379 81.4478L104.729 81.126ZM102.798 79.023L103.149 78.7012L105.08 80.8041L104.729 81.126L102.798 79.023ZM102.798 79.023L102.476 78.6725L102.126 78.9944L102.448 79.3449L102.798 79.023ZM101.06 80.2961L101.41 79.9743L101.732 80.3248L102.258 79.842L102.58 80.1925L102.054 80.6753L101.704 80.9971L101.528 81.158L101.85 81.5085L102.551 80.8648L102.902 80.543L103.224 80.8934L103.545 81.2439L103.867 81.5944L103.517 81.9163L103.342 82.0772L103.663 82.4277L103.313 82.7495L102.991 82.3991L102.465 82.8818L102.144 82.5313L102.669 82.0486L103.02 81.7267L103.195 81.5658L102.873 81.2153L102.172 81.859L101.822 82.1809L101.5 81.8304L101.178 81.4799L100.856 81.1294L101.207 80.8075L101.382 80.6466L101.06 80.2961Z" fill="#FF30B3"/>
<path fill-rule="evenodd" clip-rule="evenodd" d="M129.816 78.9595L132.264 77.4905L132.509 77.8986L130.061 79.3676L129.816 78.9595ZM129.898 80.0204L129.653 79.6124L130.061 79.3676L130.306 79.7756L129.898 80.0204ZM131.367 82.4686L129.898 80.0204L129.49 80.2653L130.959 82.7134L131.367 82.4686ZM132.02 82.6318L131.775 82.2238L131.367 82.4686L131.612 82.8766L132.02 82.6318ZM134.468 81.1628L134.713 81.5708L132.264 83.0398L132.02 82.6318L134.468 81.1628ZM134.631 80.5099L134.876 80.918L134.468 81.1628L134.223 80.7548L134.631 80.5099ZM133.162 78.0618L133.57 77.8169L135.039 80.2651L134.631 80.5099L133.162 78.0618ZM133.162 78.0618L132.917 77.6537L132.509 77.8986L132.754 78.3066L133.162 78.0618ZM131.203 78.9595L131.611 78.7147L131.856 79.1227L132.468 78.7554L132.713 79.1635L132.101 79.5307L131.693 79.7756L131.489 79.898L131.734 80.306L132.55 79.8163L132.958 79.5715L133.203 79.9795L133.448 80.3876L133.692 80.7956L133.284 81.0404L133.08 81.1628L133.325 81.5709L132.917 81.8157L132.672 81.4077L132.06 81.7749L131.816 81.3669L132.428 80.9996L132.836 80.7548L133.04 80.6324L132.795 80.2244L131.979 80.714L131.571 80.9589L131.326 80.5508L131.081 80.1428L130.836 79.7348L131.244 79.49L131.448 79.3675L131.203 78.9595Z" fill="#FF30B3"/>
<path fill-rule="evenodd" clip-rule="evenodd" d="M153.865 67.8391L155.968 65.7508L156.316 66.1013L154.213 68.1895L153.865 67.8391ZM154.211 68.888L153.863 68.5376L154.213 68.1895L154.561 68.54L154.211 68.888ZM156.299 70.9908L154.211 68.888L153.86 69.2361L155.948 71.3388L156.299 70.9908ZM156.997 70.9932L156.649 70.6427L156.299 70.9908L156.647 71.3412L156.997 70.9932ZM159.1 68.905L159.448 69.2554L157.345 71.3436L156.997 70.9932L159.1 68.905ZM159.102 68.2065L159.451 68.5569L159.1 68.905L158.752 68.5545L159.102 68.2065ZM157.014 66.1037L157.365 65.7557L159.453 67.8584L159.102 68.2065L157.014 66.1037ZM157.014 66.1037L156.666 65.7533L156.316 66.1013L156.664 66.4518L157.014 66.1037ZM155.263 67.4947L155.614 67.1466L155.962 67.4971L156.487 66.975L156.835 67.3255L156.31 67.8475L155.959 68.1956L155.784 68.3696L156.132 68.7201L156.833 68.024L157.183 67.6759L157.531 68.0264L157.88 68.3768L158.228 68.7273L157.877 69.0753L157.702 69.2494L158.05 69.5998L157.699 69.9479L157.351 69.5974L156.826 70.1195L156.478 69.769L157.003 69.2469L157.354 68.8989L157.529 68.7249L157.181 68.3744L156.48 69.0705L156.13 69.4185L155.782 69.0681L155.434 68.7176L155.086 68.3672L155.436 68.0191L155.611 67.8451L155.263 67.4947Z" fill="#FF30B3"/>
<path fill-rule="evenodd" clip-rule="evenodd" d="M112.649 78.1417L115.472 78.5667L115.402 79.0372L112.578 78.6122L112.649 78.1417ZM112.037 79.0119L112.108 78.5414L112.578 78.6122L112.507 79.0828L112.037 79.0119ZM111.612 81.8352L112.037 79.0119L111.566 78.9411L111.141 81.7644L111.612 81.8352ZM112.012 82.3766L112.082 81.906L111.612 81.8352L111.541 82.3057L112.012 82.3766ZM114.835 82.8016L114.764 83.2722L111.941 82.8471L112.012 82.3766L114.835 82.8016ZM115.376 82.4019L115.305 82.8724L114.835 82.8016L114.906 82.3311L115.376 82.4019ZM115.801 79.5786L116.272 79.6495L115.847 82.4727L115.376 82.4019L115.801 79.5786ZM115.801 79.5786L115.872 79.1081L115.402 79.0372L115.331 79.5078L115.801 79.5786ZM113.719 79.0246L114.19 79.0954L114.119 79.566L114.825 79.6722L114.754 80.1428L114.048 80.0365L113.578 79.9657L113.342 79.9303L113.271 80.4008L114.213 80.5425L114.683 80.6133L114.612 81.0839L114.541 81.5544L114.471 82.025L114 81.9541L113.765 81.9187L113.694 82.3892L113.223 82.3184L113.294 81.8479L112.588 81.7416L112.659 81.2711L113.365 81.3773L113.836 81.4482L114.071 81.4836L114.142 81.013L113.201 80.8714L112.73 80.8005L112.801 80.33L112.872 79.8594L112.943 79.3889L113.413 79.4597L113.648 79.4951L113.719 79.0246Z" fill="#FF30B3"/>
<path fill-rule="evenodd" clip-rule="evenodd" d="M111.917 60.0141L114.669 59.2537L114.796 59.7124L112.044 60.4728L111.917 60.0141ZM111.712 61.0582L111.585 60.5995L112.044 60.4728L112.171 60.9314L111.712 61.0582ZM112.473 63.8101L111.712 61.0582L111.253 61.1849L112.014 63.9369L112.473 63.8101ZM113.058 64.1421L112.931 63.6834L112.473 63.8101L112.599 64.2688L113.058 64.1421ZM115.81 63.3817L115.937 63.8403L113.185 64.6007L113.058 64.1421L115.81 63.3817ZM116.142 62.7963L116.269 63.2549L115.81 63.3817L115.683 62.923L116.142 62.7963ZM115.381 60.0443L115.84 59.9176L116.6 62.6695L116.142 62.7963L115.381 60.0443ZM115.381 60.0443L115.255 59.5856L114.796 59.7124L114.923 60.171L115.381 60.0443ZM113.254 60.3853L113.713 60.2585L113.839 60.7172L114.527 60.5271L114.654 60.9858L113.966 61.1759L113.508 61.3026L113.278 61.366L113.405 61.8246L114.322 61.5712L114.781 61.4444L114.908 61.9031L115.034 62.3617L115.161 62.8204L114.702 62.9471L114.473 63.0105L114.6 63.4692L114.141 63.5959L114.014 63.1372L113.326 63.3273L113.2 62.8687L113.888 62.6786L114.346 62.5518L114.576 62.4885L114.449 62.0298L113.532 62.2833L113.073 62.41L112.946 61.9514L112.82 61.4927L112.693 61.034L113.151 60.9073L113.381 60.8439L113.254 60.3853Z" fill="#FF30B3"/>
<path fill-rule="evenodd" clip-rule="evenodd" d="M117.917 49.0141L120.669 48.2537L120.796 48.7124L118.044 49.4728L117.917 49.0141ZM117.712 50.0582L117.585 49.5995L118.044 49.4728L118.171 49.9314L117.712 50.0582ZM118.473 52.8101L117.712 50.0582L117.253 50.1849L118.014 52.9369L118.473 52.8101ZM119.058 53.1421L118.931 52.6834L118.473 52.8101L118.599 53.2688L119.058 53.1421ZM121.81 52.3817L121.937 52.8403L119.185 53.6007L119.058 53.1421L121.81 52.3817ZM122.142 51.7963L122.269 52.2549L121.81 52.3817L121.683 51.923L122.142 51.7963ZM121.381 49.0443L121.84 48.9176L122.6 51.6695L122.142 51.7963L121.381 49.0443ZM121.381 49.0443L121.255 48.5856L120.796 48.7124L120.923 49.171L121.381 49.0443ZM119.254 49.3853L119.713 49.2585L119.839 49.7172L120.527 49.5271L120.654 49.9858L119.966 50.1759L119.508 50.3026L119.278 50.366L119.405 50.8246L120.322 50.5712L120.781 50.4444L120.908 50.9031L121.034 51.3617L121.161 51.8204L120.702 51.9471L120.473 52.0105L120.6 52.4692L120.141 52.5959L120.014 52.1372L119.326 52.3273L119.2 51.8687L119.888 51.6786L120.346 51.5518L120.576 51.4885L120.449 51.0298L119.532 51.2833L119.073 51.41L118.946 50.9514L118.82 50.4927L118.693 50.034L119.151 49.9073L119.381 49.8439L119.254 49.3853Z" fill="#FF30B3"/>
<path fill-rule="evenodd" clip-rule="evenodd" d="M109.979 46.7358L111.852 48.6969L111.526 49.0092L109.652 47.048L109.979 46.7358ZM109.013 47.0334L109.34 46.7211L109.652 47.048L109.325 47.3602L109.013 47.0334ZM107.052 48.9068L109.013 47.0334L108.701 46.7065L106.74 48.58L107.052 48.9068ZM107.037 49.5459L107.364 49.2337L107.052 48.9068L106.725 49.2191L107.037 49.5459ZM108.911 51.5071L108.584 51.8194L106.71 49.8582L107.037 49.5459L108.911 51.5071ZM109.55 51.5217L109.223 51.834L108.911 51.5071L109.238 51.1949L109.55 51.5217ZM111.511 49.6483L111.823 49.9751L109.862 51.8486L109.55 51.5217L111.511 49.6483ZM111.511 49.6483L111.838 49.336L111.526 49.0092L111.199 49.3214L111.511 49.6483ZM110.269 48.0213L110.582 48.3481L110.255 48.6604L110.723 49.1507L110.396 49.4629L109.928 48.9726L109.616 48.6458L109.459 48.4823L109.133 48.7946L109.757 49.4483L110.069 49.7752L109.742 50.0874L109.416 50.3996L109.089 50.7119L108.776 50.385L108.62 50.2216L108.293 50.5338L107.981 50.207L108.308 49.8947L107.84 49.4044L108.167 49.0922L108.635 49.5825L108.947 49.9093L109.103 50.0728L109.43 49.7605L108.806 49.1068L108.493 48.78L108.82 48.4677L109.147 48.1555L109.474 47.8432L109.786 48.1701L109.942 48.3335L110.269 48.0213Z" fill="#FF30B3"/>
<path d="M194.237 41.7942L189.026 45.1108C188.764 45.2775 188.447 45.3334 188.143 45.2661C187.84 45.1987 187.576 45.0137 187.409 44.7517C187.243 44.4897 187.187 44.1721 187.254 43.8689C187.321 43.5657 187.506 43.3017 187.768 43.1349L192.979 39.8178M195.836 37.5374C195.135 36.8498 194.295 36.3198 193.372 35.9827C192.45 35.6456 191.466 35.5093 190.487 35.5828C190.394 35.6166 190.312 35.675 190.249 35.7517C190.186 35.8285 190.145 35.9207 190.13 36.0188C190.115 36.1169 190.127 36.2172 190.164 36.3091C190.201 36.401 190.263 36.4812 190.342 36.5412C191.476 37.233 192.489 38.1062 193.341 39.126" stroke="white" stroke-width="1.10408" stroke-linecap="round" stroke-linejoin="round"/>
<path d="M196.994 37.4493C196.915 37.3282 196.792 37.2428 196.651 37.2115C196.51 37.1802 196.362 37.2054 196.24 37.2818L193.21 39.2104C193.089 39.2892 193.003 39.4123 192.972 39.5534C192.941 39.6945 192.966 39.8422 193.042 39.9649L194.132 41.6773C194.211 41.7984 194.334 41.8838 194.475 41.9151C194.617 41.9465 194.764 41.9212 194.887 41.8448L197.917 39.9163C198.038 39.8375 198.123 39.7143 198.154 39.5732C198.186 39.4322 198.161 39.2844 198.084 39.1618L196.994 37.4493Z" stroke="white" stroke-width="1.10408" stroke-linecap="round" stroke-linejoin="round"/>
<path d="M197.513 40.1721C197.839 41.0983 197.964 42.0835 197.879 43.0618C197.794 44.0401 197.501 44.989 197.02 45.845C196.95 45.915 196.862 45.9649 196.766 45.9893C196.67 46.0137 196.569 46.0118 196.474 45.9838C196.379 45.9558 196.293 45.9028 196.226 45.8302C196.158 45.7576 196.112 45.6682 196.091 45.5713C195.944 44.2507 195.582 42.963 195.018 41.7597" stroke="white" stroke-width="1.10408" stroke-linecap="round" stroke-linejoin="round"/>
<defs>
<filter id="filter0_f_2134_5712" x="31" y="69" width="36.8105" height="44.0488" filterUnits="userSpaceOnUse" color-interpolation-filters="sRGB">
<feFlood flood-opacity="0" result="BackgroundImageFix"/>
<feBlend mode="normal" in="SourceGraphic" in2="BackgroundImageFix" result="shape"/>
<feGaussianBlur stdDeviation="2" result="effect1_foregroundBlur_2134_5712"/>
</filter>
<filter id="filter1_f_2134_5712" x="82.3818" y="73.4258" width="27.1201" height="32.248" filterUnits="userSpaceOnUse" color-interpolation-filters="sRGB">
<feFlood flood-opacity="0" result="BackgroundImageFix"/>
<feBlend mode="normal" in="SourceGraphic" in2="BackgroundImageFix" result="shape"/>
<feGaussianBlur stdDeviation="2" result="effect1_foregroundBlur_2134_5712"/>
</filter>
<filter id="filter2_f_2134_5712" x="64.2471" y="98.2754" width="20.377" height="23.6973" filterUnits="userSpaceOnUse" color-interpolation-filters="sRGB">
<feFlood flood-opacity="0" result="BackgroundImageFix"/>
<feBlend mode="normal" in="SourceGraphic" in2="BackgroundImageFix" result="shape"/>
<feGaussianBlur stdDeviation="2" result="effect1_foregroundBlur_2134_5712"/>
</filter>
<filter id="filter3_f_2134_5712" x="143.198" y="63.2207" width="17.9482" height="20.6172" filterUnits="userSpaceOnUse" color-interpolation-filters="sRGB">
<feFlood flood-opacity="0" result="BackgroundImageFix"/>
<feBlend mode="normal" in="SourceGraphic" in2="BackgroundImageFix" result="shape"/>
<feGaussianBlur stdDeviation="2" result="effect1_foregroundBlur_2134_5712"/>
</filter>
<filter id="filter4_f_2134_5712" x="101.492" y="42.8223" width="23.8223" height="27.3281" filterUnits="userSpaceOnUse" color-interpolation-filters="sRGB">
<feFlood flood-opacity="0" result="BackgroundImageFix"/>
<feBlend mode="normal" in="SourceGraphic" in2="BackgroundImageFix" result="shape"/>
<feGaussianBlur stdDeviation="2" result="effect1_foregroundBlur_2134_5712"/>
</filter>
</defs>
</svg>
