<svg width="225" height="100%" viewBox="0 0 225 139" fill="none" xmlns="http://www.w3.org/2000/svg">
<path d="M131.982 7.2594L124.406 14.4083L125.046 20.8104L125.687 27.1057L141.692 36.8155C171.995 55.0613 192.055 66.1582 194.829 66.1582C197.069 66.1582 219.157 55.7015 221.397 53.4608C221.824 53.1407 222.358 50.7933 222.678 48.5526C222.891 46.2052 223.425 43.4309 223.851 42.3639C224.278 41.2969 224.492 40.3366 224.278 40.1232C222.358 38.6294 165.913 7.04599 161.431 5.01868C156.203 2.67126 145.106 -0.102959 141.052 0.00374603C140.198 0.110443 136.143 3.31147 131.982 7.2594ZM153.429 8.96661C178.29 22.3042 201.551 35.1083 203.472 36.4954C205.392 37.8825 205.285 38.3093 200.377 45.6717C197.603 49.9397 194.935 53.3541 194.615 53.3541C194.189 53.3541 192.908 52.7139 191.841 51.8603C190.667 51.0067 183.945 47.2722 176.903 43.5376C169.861 39.8031 157.163 32.4408 148.734 27.3191C140.305 22.0908 131.982 17.396 130.275 16.8625C128.674 16.2223 127.287 15.4753 127.287 15.1553C127.287 14.3016 140.518 2.13776 141.158 2.45786C141.478 2.56456 147.027 5.55218 153.429 8.96661ZM165.913 9.28671C169.007 10.9939 179.037 16.6491 188.107 21.8774C197.176 26.999 207.099 32.6542 209.98 34.2547C214.675 36.9222 214.995 37.349 212.434 37.349C210.727 37.349 199.203 31.5872 184.265 23.3712C170.288 15.6888 156.737 8.3264 154.282 7.15269C151.828 5.97898 150.014 4.59188 150.335 4.16507C151.081 2.99136 159.297 5.65888 165.913 9.28671ZM131.769 19.8501C133.689 20.8104 142.119 25.8253 150.655 30.8403C159.297 35.9619 172.635 43.6443 180.424 47.9124C188.213 52.1804 194.935 56.3417 195.256 57.1953C195.576 58.0489 195.469 59.9696 195.149 61.4634C194.615 63.4907 193.975 64.0242 192.588 63.4907C189.28 62.317 154.603 42.4706 140.945 33.9346C127.714 25.7186 127.287 25.3985 127.287 21.7707C127.287 17.6094 127.394 17.6094 131.769 19.8501ZM217.663 40.7634C221.077 41.7237 221.184 41.9371 220.544 46.2052C219.69 52.2871 219.37 53.3541 217.876 53.3541C217.129 53.3541 216.916 52.2871 217.129 50.7933C218.09 45.6717 216.596 45.3516 208.486 49.0861L200.911 52.6072V57.0886C200.911 59.6495 200.27 62.2103 199.417 62.8505C198.136 63.9175 197.816 63.384 197.176 59.7562C196.536 55.7015 196.856 54.7412 201.017 48.766C208.807 37.349 207.953 37.7758 217.663 40.7634ZM214.995 51.967C214.035 57.0886 210.514 58.2623 210.514 53.5675C210.514 50.0464 211.261 49.0861 213.715 49.0861C215.102 49.0861 215.422 49.7263 214.995 51.967ZM208.38 54.7412C208.38 57.5154 207.74 58.5825 205.712 59.5428C203.151 60.7165 203.045 60.6098 203.045 57.0886C203.045 54.7412 203.685 53.034 204.965 52.3938C207.846 50.6866 208.38 51.0067 208.38 54.7412Z" fill="white"/>
<path d="M144.896 11.3191C138.708 14.4135 138.388 15.4805 142.762 18.148C144.896 19.4284 146.71 20.3887 146.924 20.1753C148.524 18.3614 150.765 12.2794 150.338 11.1057C149.591 9.18513 148.844 9.18513 144.896 11.3191ZM148.631 13.88C148.631 15.2671 147.884 16.014 146.71 16.014C143.723 16.014 143.082 14.8403 145.217 13.2398C147.777 11.2124 148.631 11.4258 148.631 13.88Z" fill="#FFB84D"/>
<path d="M165.169 20.4906C158.66 22.7313 156.42 26.6792 160.261 28.8132C163.569 30.5204 164.316 30.2003 167.197 24.972C170.931 18.3566 170.931 18.4633 165.169 20.4906ZM164.209 25.1854C161.008 27.4261 159.514 26.8926 162.395 24.4385C163.782 23.2648 165.276 22.6246 165.596 23.0514C165.916 23.3715 165.276 24.3318 164.209 25.1854Z" fill="#FFB84D"/>
<path d="M180.11 31.3821C176.056 33.0893 173.708 35.8635 175.309 36.8238C175.949 37.2506 177.23 36.9305 178.083 36.1836C179.364 35.1166 179.47 35.2233 178.937 36.7171C177.976 39.1712 181.391 40.1316 183.738 37.9975C184.912 36.9305 185.979 34.7965 186.192 32.9826C186.726 29.4615 185.339 29.0347 180.11 31.3821ZM183.845 32.7692C183.738 34.6898 181.924 36.5037 181.284 35.33C180.857 34.6898 180.857 33.6228 181.177 33.0893C181.924 31.8089 183.845 31.7022 183.845 32.7692Z" fill="#FFB84D"/>
<path d="M132.52 25.6109C134.974 27.745 136.894 28.3852 136.894 27.1048C136.894 25.931 133.267 23.5836 131.559 23.5836C130.492 23.5836 130.706 24.2238 132.52 25.6109Z" fill="#FFB84D"/>
<path d="M142.445 31.0504C142.979 32.7576 151.835 37.7725 151.835 36.3854C151.835 35.3184 144.152 29.8767 142.658 29.8767C142.338 29.8767 142.232 30.4102 142.445 31.0504Z" fill="#FFB84D"/>
<path d="M159.306 40.9827C159.946 41.8363 162.187 43.5435 164.321 44.8239C169.016 47.5981 168.482 45.144 163.574 41.8363C159.626 39.1688 157.385 38.742 159.306 40.9827Z" fill="#FFB84D"/>
<path d="M177.448 51.2175C177.448 52.4979 185.984 56.8726 186.838 56.1257C187.158 55.6989 186.518 54.7386 185.344 53.885C182.463 51.751 177.448 50.0438 177.448 51.2175Z" fill="#FFB84D"/>
<path d="M207.323 43.7514C207.323 44.2849 208.07 44.8184 208.924 44.8184C209.777 44.8184 210.524 44.2849 210.524 43.7514C210.524 43.1111 209.777 42.6843 208.924 42.6843C208.07 42.6843 207.323 43.1111 207.323 43.7514Z" fill="white"/>
<path d="M109.477 31.9078C103.609 35.2155 94.2192 40.017 88.6708 42.5778C83.2291 45.1386 78.0007 47.5928 77.1471 48.1263C76.2935 48.5531 71.492 51.2206 66.477 53.9948C61.4621 56.769 54.4199 60.6103 50.6853 62.5309C46.9508 64.4515 43.1096 66.6922 42.256 67.4391C40.8689 68.6128 40.4421 68.6128 40.0153 67.4391C39.6951 66.3721 39.0549 66.4788 37.241 68.0793C35.2137 69.8932 7.36482 85.6849 1.81638 88.139C0.109168 88.8859 -0.317635 89.6329 0.215869 91.1267C0.962774 93.154 1.06947 93.154 3.31019 90.9133C4.5906 89.6329 8.00502 87.3921 10.9926 85.8983C13.8736 84.4045 20.3823 80.7767 25.5039 77.7891C34.4668 72.454 38.8415 71.6004 36.7075 75.4417C35.8539 77.0422 15.3674 87.9256 3.84369 92.9406C-2.34495 95.6081 -1.17124 97.2086 12.9133 105.211C18.9952 108.732 25.5039 112.36 27.3179 113.534C29.2385 114.601 39.9086 120.576 51.0054 126.658C62.209 132.847 71.8121 138.288 72.4523 138.822C73.1992 139.462 75.8667 138.395 79.9213 135.621C83.4425 133.38 90.2713 129.219 95.2862 126.445C110.331 117.909 118.547 113.107 134.766 103.504C149.063 94.9679 177.659 79.8164 182.034 78.536C183.314 78.1092 183.848 76.8288 183.848 73.7344C183.848 71.387 184.168 68.8262 184.488 67.8659C184.915 66.6922 184.595 66.1587 183.314 66.1587C182.354 66.1587 177.126 63.1711 171.684 59.4365C166.349 55.8087 160.694 52.0742 159.093 51.2206C147.89 44.9252 121.001 28.0665 120.681 27.1062C120.468 26.466 115.666 28.4933 109.477 31.9078ZM117.693 32.9748C117.693 35.6423 117.053 36.2825 112.145 38.4165C109.051 39.6969 99.8744 44.0716 91.8718 48.1263C78.1074 54.9551 77.1471 55.2752 77.1471 53.0345C77.1471 51.0072 80.2414 49.0866 97.2069 40.3371C108.197 34.682 117.267 29.9871 117.48 29.9871C117.587 29.8804 117.693 31.2675 117.693 32.9748ZM130.071 35.9624C136.046 39.5902 138.607 41.8309 138.82 43.4314C139.14 45.6721 138.287 45.352 129.537 40.3371C123.028 36.6026 119.827 34.1485 119.827 32.8681C119.827 31.8011 120.254 30.9474 120.681 30.9474C121.215 30.9474 125.376 33.1882 130.071 35.9624ZM129.324 42.7912C144.689 51.7541 145.542 52.2876 159.627 61.5706C167.096 66.4788 173.178 70.9602 173.178 71.4937C173.178 72.3473 146.716 87.4988 145.222 87.4988C144.795 87.4988 139.034 90.8066 132.311 94.8612C125.589 99.0225 117.8 103.397 114.919 104.678C107.984 107.772 108.731 107.345 91.7651 118.015C83.6559 123.03 76.1868 127.298 75.2265 127.405C74.2662 127.405 73.1992 127.832 72.8791 128.259C72.3456 128.899 54.5266 118.762 51.3255 115.988C50.3652 115.028 49.2982 114.601 48.9781 114.921C48.658 115.241 44.4967 113.32 39.6951 110.546C34.8936 107.879 30.6256 105.638 30.1988 105.638C29.772 105.638 28.8117 104.891 28.0648 104.037C27.3179 103.184 26.1442 102.437 25.2905 102.437C24.0101 102.437 9.92564 94.1143 9.92564 93.2607C9.92564 93.154 16.3277 89.6329 24.1168 85.5782C42.5761 75.8685 69.6781 61.5706 72.3456 59.97C76.7203 57.4092 118.227 37.3495 119.187 37.3495C119.721 37.3495 124.202 39.8036 129.324 42.7912ZM148.103 46.9526C150.451 48.5531 154.398 51.1139 156.959 52.7144C159.413 54.2082 161.441 56.0221 161.441 56.5556C161.441 57.0891 162.081 57.3025 162.935 56.9824C163.788 56.6623 166.562 58.0494 169.123 59.97C171.791 61.8907 175.312 64.5582 177.019 65.7319C179.473 67.6525 179.793 68.3994 178.833 69.4664C177.766 70.5334 175.952 69.7865 169.87 65.5185C165.602 62.6376 161.441 59.7566 160.48 59.2231C142.555 48.233 139.994 46.3124 140.847 44.1783C141.488 42.5778 141.701 42.6845 148.103 46.9526ZM75.0131 54.1015C75.0131 56.1288 73.4126 57.0891 52.7126 67.8659C45.457 71.7071 39.2683 74.5881 39.0549 74.2679C37.3477 72.6674 41.0823 69.8932 54.3132 63.0644C62.4224 58.7963 69.9982 54.635 71.1719 53.7814C74.0528 51.7541 75.0131 51.8608 75.0131 54.1015ZM180.54 74.3746C179.58 76.0819 175.205 78.9628 167.843 82.6973C161.654 85.7916 153.652 90.0597 150.024 92.087C143.942 95.6081 143.302 95.7148 143.302 93.7942C143.302 91.5535 144.155 91.02 163.575 80.0298C171.364 75.5484 175.525 73.7344 177.232 74.1612C179.046 74.5881 179.58 74.2679 179.58 72.7741C179.58 70.32 180.967 68.7195 181.5 70.4267C181.821 71.1736 181.287 72.8808 180.54 74.3746ZM141.168 94.8612C141.168 96.9952 135.086 101.263 119.294 110.333C110.971 115.028 110.758 115.134 110.224 112.787C109.691 110.76 110.971 109.693 120.574 104.358C126.656 100.943 133.378 96.9952 135.512 95.5014C140.314 92.3004 141.168 92.1937 141.168 94.8612ZM14.6205 99.1292C18.2483 101.37 26.8911 106.171 33.9333 109.799C40.8689 113.427 47.2709 116.948 48.0178 117.588C49.2982 118.655 50.0451 122.71 48.8714 122.71C47.591 122.71 28.705 111.613 26.8911 109.799C25.9308 108.839 24.8637 108.199 24.5436 108.412C23.7967 109.159 4.2705 97.7421 3.73699 96.2483C2.88339 93.6875 8.11173 94.9679 14.6205 99.1292ZM106.276 117.162C103.716 118.976 75.76 135.514 75.2265 135.514C75.0131 135.514 75.0131 134.34 75.2265 132.953C75.4399 130.819 78.6409 128.365 91.5517 120.576C106.49 111.613 107.557 111.08 107.877 113.32C108.197 114.814 107.557 116.308 106.276 117.162ZM62.8492 125.484C70.8518 130.286 72.8791 131.993 72.8791 133.914C72.8791 136.261 72.2389 136.048 62.209 130.286C53.6729 125.484 51.5389 123.884 51.5389 121.856C51.5389 120.576 51.859 119.509 52.1791 119.509C52.4992 119.509 57.3008 122.177 62.8492 125.484Z" fill="white"/>
<path d="M47.97 74.5053C44.5632 76.486 38.938 83.1412 38.3834 85.5973C38.1457 86.7065 37.5911 88.4495 37.1949 89.4795C36.7988 90.5094 36.4819 92.6486 36.4819 94.2332C36.4819 95.8969 36.0065 97.7192 35.5312 98.2738C34.6596 99.0661 34.8181 99.5414 36.3234 100.492C37.2742 101.205 38.0665 102.314 38.0665 102.948C38.0665 103.978 38.3041 103.978 39.0172 103.265C39.8095 102.473 40.3641 103.027 41.7902 105.642L43.5332 109.049L43.6124 100.492V92.0148H46.7023C49.713 92.0148 49.8715 92.094 52.2483 97.3231C53.5952 100.175 54.9421 103.424 55.1797 104.454C55.4967 105.404 56.1305 106.276 56.7643 106.276C58.2696 106.276 58.2696 106.355 54.4667 98.1153L51.0599 90.8263L51.9314 83.6958L52.8029 76.5653L55.1797 81.7151C56.4474 84.5673 58.745 89.6379 60.2503 92.9655C61.9934 96.7685 63.261 98.8284 63.7364 98.353C64.8456 97.2438 53.199 73 51.6145 73C50.9014 73 49.2376 73.6338 47.97 74.5053ZM51.1391 76.7237C50.9806 77.9914 50.4261 81.5566 49.8715 84.6465L48.9999 90.4302H46.1477C43.2955 90.4302 39.651 87.9741 39.651 86.0727C39.651 84.805 49.3169 74.5846 50.5053 74.5846C51.1391 74.5846 51.3768 75.3768 51.1391 76.7237ZM40.0472 91.1433C39.8095 91.6186 39.1756 92.0148 38.7003 92.0148C38.2249 92.0148 38.2249 91.5394 38.8587 90.8263C39.9679 89.4795 40.9187 89.7964 40.0472 91.1433ZM40.7602 93.9955C39.3341 96.6892 38.0665 97.64 38.0665 95.9762C38.0665 94.7878 41.394 90.351 41.8694 90.8263C42.1071 91.064 41.6317 92.4901 40.7602 93.9955ZM42.424 96.61C41.7902 97.2438 40.4433 95.8177 40.9187 95.0254C41.2356 94.5501 41.6317 94.6293 42.1071 95.2631C42.424 95.8177 42.5825 96.4515 42.424 96.61ZM40.4433 99.2245C39.651 100.571 38.0665 101.364 38.0665 100.254C38.0665 99.0661 39.8095 96.7685 40.5225 97.1646C40.9187 97.4815 40.9187 98.1946 40.4433 99.2245ZM38.0665 97.9569C38.0665 98.1946 37.908 98.353 37.6703 98.353C37.4326 98.353 37.2742 98.1946 37.2742 97.9569C37.2742 97.7192 37.4326 97.5607 37.6703 97.5607C37.908 97.5607 38.0665 97.7192 38.0665 97.9569ZM42.0279 101.205C42.0279 101.839 41.711 102.156 41.2356 101.918C40.8394 101.681 40.4433 101.126 40.4433 100.651C40.4433 100.254 40.8394 99.9376 41.2356 99.9376C41.711 99.9376 42.0279 100.492 42.0279 101.205Z" fill="#FF30B3"/>
<g filter="url(#filter0_f_2134_5711)">
<path d="M47.97 74.5053C44.5632 76.486 38.938 83.1412 38.3834 85.5973C38.1457 86.7065 37.5911 88.4495 37.1949 89.4795C36.7988 90.5094 36.4819 92.6486 36.4819 94.2332C36.4819 95.8969 36.0065 97.7192 35.5312 98.2738C34.6596 99.0661 34.8181 99.5414 36.3234 100.492C37.2742 101.205 38.0665 102.314 38.0665 102.948C38.0665 103.978 38.3041 103.978 39.0172 103.265C39.8095 102.473 40.3641 103.027 41.7902 105.642L43.5332 109.049L43.6124 100.492V92.0148H46.7023C49.713 92.0148 49.8715 92.094 52.2483 97.3231C53.5952 100.175 54.9421 103.424 55.1797 104.454C55.4967 105.404 56.1305 106.276 56.7643 106.276C58.2696 106.276 58.2696 106.355 54.4667 98.1153L51.0599 90.8263L51.9314 83.6958L52.8029 76.5653L55.1797 81.7151C56.4474 84.5673 58.745 89.6379 60.2503 92.9655C61.9934 96.7685 63.261 98.8284 63.7364 98.353C64.8456 97.2438 53.199 73 51.6145 73C50.9014 73 49.2376 73.6338 47.97 74.5053ZM51.1391 76.7237C50.9806 77.9914 50.4261 81.5566 49.8715 84.6465L48.9999 90.4302H46.1477C43.2955 90.4302 39.651 87.9741 39.651 86.0727C39.651 84.805 49.3169 74.5846 50.5053 74.5846C51.1391 74.5846 51.3768 75.3768 51.1391 76.7237ZM40.0472 91.1433C39.8095 91.6186 39.1756 92.0148 38.7003 92.0148C38.2249 92.0148 38.2249 91.5394 38.8587 90.8263C39.9679 89.4795 40.9187 89.7964 40.0472 91.1433ZM40.7602 93.9955C39.3341 96.6892 38.0665 97.64 38.0665 95.9762C38.0665 94.7878 41.394 90.351 41.8694 90.8263C42.1071 91.064 41.6317 92.4901 40.7602 93.9955ZM42.424 96.61C41.7902 97.2438 40.4433 95.8177 40.9187 95.0254C41.2356 94.5501 41.6317 94.6293 42.1071 95.2631C42.424 95.8177 42.5825 96.4515 42.424 96.61ZM40.4433 99.2245C39.651 100.571 38.0665 101.364 38.0665 100.254C38.0665 99.0661 39.8095 96.7685 40.5225 97.1646C40.9187 97.4815 40.9187 98.1946 40.4433 99.2245ZM38.0665 97.9569C38.0665 98.1946 37.908 98.353 37.6703 98.353C37.4326 98.353 37.2742 98.1946 37.2742 97.9569C37.2742 97.7192 37.4326 97.5607 37.6703 97.5607C37.908 97.5607 38.0665 97.7192 38.0665 97.9569ZM42.0279 101.205C42.0279 101.839 41.711 102.156 41.2356 101.918C40.8394 101.681 40.4433 101.126 40.4433 100.651C40.4433 100.254 40.8394 99.9376 41.2356 99.9376C41.711 99.9376 42.0279 100.492 42.0279 101.205Z" fill="#FF30B3"/>
</g>
<path d="M97.735 78.5527C99.9311 79.9882 103.439 84.6088 103.722 86.2611C103.842 87.0068 104.15 88.185 104.377 88.8835C104.605 89.5821 104.741 91.0154 104.686 92.0689C104.628 93.175 104.881 94.4031 105.177 94.7884C105.729 95.3455 105.607 95.656 104.573 96.2357C103.916 96.6767 103.351 97.3865 103.329 97.8079C103.293 98.4927 103.135 98.4844 102.686 97.9855C102.187 97.4312 101.799 97.7806 100.759 99.4692L99.482 101.674L99.7272 95.9819L100.022 90.3457L97.9681 90.2381C95.9665 90.1332 95.8584 90.1804 94.096 93.5742C93.1012 95.4236 92.0926 97.5363 91.8987 98.2128C91.6549 98.8339 91.2032 99.3913 90.7818 99.3692C89.781 99.3168 89.7782 99.3695 92.5935 94.0237L95.1124 89.2962L94.7812 84.5251L94.4501 79.754L92.6905 83.0951C91.7484 84.9473 90.0443 88.2385 88.9276 90.3984C87.6363 92.8661 86.7218 94.1915 86.4223 93.8589C85.7234 93.0828 94.3109 77.3698 95.3644 77.425C95.8385 77.4498 96.9226 77.9292 97.735 78.5527ZM95.5508 79.9173C95.612 80.7656 95.8566 83.1553 96.1177 85.2289L96.4957 89.1046L98.392 89.2039C100.288 89.3032 102.797 87.7972 102.863 86.533C102.907 85.6902 96.8368 78.5585 96.0467 78.5171C95.6253 78.4951 95.4397 79.0135 95.5508 79.9173ZM102.423 89.8904C102.565 90.2147 102.972 90.5002 103.288 90.5167C103.604 90.5333 103.621 90.2172 103.224 89.7211C102.534 88.787 101.891 88.9646 102.423 89.8904ZM101.85 91.7619C102.704 93.6025 103.514 94.2787 103.572 93.1725C103.613 92.3824 101.555 89.3167 101.223 89.6162C101.056 89.766 101.323 90.7307 101.85 91.7619ZM100.653 93.4422C101.052 93.8857 101.997 92.9844 101.709 92.4411C101.514 92.114 101.248 92.1529 100.91 92.5578C100.68 92.9154 100.553 93.3313 100.653 93.4422ZM101.878 95.2494C102.358 96.1725 103.384 96.7544 103.423 96.017C103.464 95.2269 102.385 93.6386 101.897 93.8771C101.623 94.074 101.598 94.5481 101.878 95.2494ZM103.503 94.4894C103.495 94.6474 103.594 94.7583 103.752 94.7666C103.91 94.7749 104.021 94.675 104.03 94.517C104.038 94.359 103.938 94.2481 103.78 94.2398C103.622 94.2316 103.511 94.3314 103.503 94.4894ZM100.756 96.5111C100.734 96.9325 100.934 97.1543 101.258 97.0128C101.529 96.8686 101.812 96.5137 101.829 96.1976C101.843 95.9342 101.59 95.7097 101.327 95.6959C101.011 95.6794 100.781 96.0371 100.756 96.5111Z" fill="#FF30B3"/>
<g filter="url(#filter1_f_2134_5711)">
<path d="M97.735 78.5527C99.9311 79.9882 103.439 84.6088 103.722 86.2611C103.842 87.0068 104.15 88.185 104.377 88.8835C104.605 89.5821 104.741 91.0154 104.686 92.0689C104.628 93.175 104.881 94.4031 105.177 94.7884C105.729 95.3455 105.607 95.656 104.573 96.2357C103.916 96.6767 103.351 97.3865 103.329 97.8079C103.293 98.4927 103.135 98.4844 102.686 97.9855C102.187 97.4312 101.799 97.7806 100.759 99.4692L99.482 101.674L99.7272 95.9819L100.022 90.3457L97.9681 90.2381C95.9665 90.1332 95.8584 90.1804 94.096 93.5742C93.1012 95.4236 92.0926 97.5363 91.8987 98.2128C91.6549 98.8339 91.2032 99.3913 90.7818 99.3692C89.781 99.3168 89.7782 99.3695 92.5935 94.0237L95.1124 89.2962L94.7812 84.5251L94.4501 79.754L92.6905 83.0951C91.7484 84.9473 90.0443 88.2385 88.9276 90.3984C87.6363 92.8661 86.7218 94.1915 86.4223 93.8589C85.7234 93.0828 94.3109 77.3698 95.3644 77.425C95.8385 77.4498 96.9226 77.9292 97.735 78.5527ZM95.5508 79.9173C95.612 80.7656 95.8566 83.1553 96.1177 85.2289L96.4957 89.1046L98.392 89.2039C100.288 89.3032 102.797 87.7972 102.863 86.533C102.907 85.6902 96.8368 78.5585 96.0467 78.5171C95.6253 78.4951 95.4397 79.0135 95.5508 79.9173ZM102.423 89.8904C102.565 90.2147 102.972 90.5002 103.288 90.5167C103.604 90.5333 103.621 90.2172 103.224 89.7211C102.534 88.787 101.891 88.9646 102.423 89.8904ZM101.85 91.7619C102.704 93.6025 103.514 94.2787 103.572 93.1725C103.613 92.3824 101.555 89.3167 101.223 89.6162C101.056 89.766 101.323 90.7307 101.85 91.7619ZM100.653 93.4422C101.052 93.8857 101.997 92.9844 101.709 92.4411C101.514 92.114 101.248 92.1529 100.91 92.5578C100.68 92.9154 100.553 93.3313 100.653 93.4422ZM101.878 95.2494C102.358 96.1725 103.384 96.7544 103.423 96.017C103.464 95.2269 102.385 93.6386 101.897 93.8771C101.623 94.074 101.598 94.5481 101.878 95.2494ZM103.503 94.4894C103.495 94.6474 103.594 94.7583 103.752 94.7666C103.91 94.7749 104.021 94.675 104.03 94.517C104.038 94.359 103.938 94.2481 103.78 94.2398C103.622 94.2316 103.511 94.3314 103.503 94.4894ZM100.756 96.5111C100.734 96.9325 100.934 97.1543 101.258 97.0128C101.529 96.8686 101.812 96.5137 101.829 96.1976C101.843 95.9342 101.59 95.7097 101.327 95.6959C101.011 95.6794 100.781 96.0371 100.756 96.5111Z" fill="#FF30B3"/>
</g>
<path d="M153.106 67.8071C154.248 68.554 156.074 70.9583 156.221 71.818C156.283 72.206 156.444 72.819 156.562 73.1825C156.68 73.546 156.751 74.2918 156.723 74.8399C156.692 75.4155 156.824 76.0545 156.978 76.255C157.265 76.5449 157.202 76.7065 156.664 77.0081C156.322 77.2375 156.028 77.6069 156.017 77.8262C155.998 78.1825 155.916 78.1782 155.682 77.9186C155.422 77.6301 155.22 77.812 154.68 78.6906L154.015 79.8376L154.142 76.876L154.296 73.9433L153.227 73.8873C152.186 73.8328 152.129 73.8573 151.212 75.6232C150.695 76.5855 150.17 77.6849 150.069 78.0369C149.942 78.36 149.707 78.65 149.488 78.6385C148.967 78.6113 148.966 78.6387 150.431 75.8571L151.741 73.3972L151.569 70.9147L151.397 68.4321L150.481 70.1706C149.991 71.1344 149.104 72.8469 148.523 73.9708C147.851 75.2548 147.375 75.9444 147.219 75.7714C146.856 75.3675 151.324 67.1916 151.872 67.2203C152.119 67.2332 152.683 67.4826 153.106 67.8071ZM151.969 68.5171C152.001 68.9585 152.128 70.2019 152.264 71.2809L152.461 73.2975L153.448 73.3492C154.434 73.4009 155.74 72.6173 155.774 71.9595C155.797 71.5209 152.638 67.8101 152.227 67.7886C152.008 67.7771 151.911 68.0468 151.969 68.5171ZM155.545 73.7064C155.619 73.8752 155.831 74.0237 155.995 74.0323C156.16 74.0409 156.168 73.8765 155.962 73.6183C155.603 73.1323 155.268 73.2247 155.545 73.7064ZM155.247 74.6802C155.691 75.6379 156.113 75.9898 156.143 75.4142C156.164 75.0031 155.094 73.4079 154.921 73.5638C154.834 73.6417 154.973 74.1437 155.247 74.6802ZM154.624 75.5545C154.832 75.7853 155.323 75.3163 155.173 75.0336C155.072 74.8635 154.934 74.8837 154.758 75.0943C154.638 75.2805 154.572 75.4969 154.624 75.5545ZM155.262 76.4949C155.511 76.9752 156.045 77.278 156.065 76.8943C156.087 76.4832 155.525 75.6567 155.272 75.7809C155.129 75.8833 155.116 76.13 155.262 76.4949ZM156.107 76.0994C156.103 76.1817 156.155 76.2394 156.237 76.2437C156.319 76.248 156.377 76.196 156.381 76.1138C156.385 76.0316 156.333 75.9739 156.251 75.9696C156.169 75.9653 156.111 76.0172 156.107 76.0994ZM154.678 77.1514C154.666 77.3707 154.77 77.4861 154.939 77.4124C155.08 77.3374 155.227 77.1527 155.236 76.9883C155.243 76.8512 155.112 76.7344 154.975 76.7272C154.81 76.7186 154.691 76.9047 154.678 77.1514Z" fill="#FF30B3"/>
<g filter="url(#filter2_f_2134_5711)">
<path d="M153.106 67.8071C154.248 68.554 156.074 70.9583 156.221 71.818C156.283 72.206 156.444 72.819 156.562 73.1825C156.68 73.546 156.751 74.2918 156.723 74.8399C156.692 75.4155 156.824 76.0545 156.978 76.255C157.265 76.5449 157.202 76.7065 156.664 77.0081C156.322 77.2375 156.028 77.6069 156.017 77.8262C155.998 78.1825 155.916 78.1782 155.682 77.9186C155.422 77.6301 155.22 77.812 154.68 78.6906L154.015 79.8376L154.142 76.876L154.296 73.9433L153.227 73.8873C152.186 73.8328 152.129 73.8573 151.212 75.6232C150.695 76.5855 150.17 77.6849 150.069 78.0369C149.942 78.36 149.707 78.65 149.488 78.6385C148.967 78.6113 148.966 78.6387 150.431 75.8571L151.741 73.3972L151.569 70.9147L151.397 68.4321L150.481 70.1706C149.991 71.1344 149.104 72.8469 148.523 73.9708C147.851 75.2548 147.375 75.9444 147.219 75.7714C146.856 75.3675 151.324 67.1916 151.872 67.2203C152.119 67.2332 152.683 67.4826 153.106 67.8071ZM151.969 68.5171C152.001 68.9585 152.128 70.2019 152.264 71.2809L152.461 73.2975L153.448 73.3492C154.434 73.4009 155.74 72.6173 155.774 71.9595C155.797 71.5209 152.638 67.8101 152.227 67.7886C152.008 67.7771 151.911 68.0468 151.969 68.5171ZM155.545 73.7064C155.619 73.8752 155.831 74.0237 155.995 74.0323C156.16 74.0409 156.168 73.8765 155.962 73.6183C155.603 73.1323 155.268 73.2247 155.545 73.7064ZM155.247 74.6802C155.691 75.6379 156.113 75.9898 156.143 75.4142C156.164 75.0031 155.094 73.4079 154.921 73.5638C154.834 73.6417 154.973 74.1437 155.247 74.6802ZM154.624 75.5545C154.832 75.7853 155.323 75.3163 155.173 75.0336C155.072 74.8635 154.934 74.8837 154.758 75.0943C154.638 75.2805 154.572 75.4969 154.624 75.5545ZM155.262 76.4949C155.511 76.9752 156.045 77.278 156.065 76.8943C156.087 76.4832 155.525 75.6567 155.272 75.7809C155.129 75.8833 155.116 76.13 155.262 76.4949ZM156.107 76.0994C156.103 76.1817 156.155 76.2394 156.237 76.2437C156.319 76.248 156.377 76.196 156.381 76.1138C156.385 76.0316 156.333 75.9739 156.251 75.9696C156.169 75.9653 156.111 76.0172 156.107 76.0994ZM154.678 77.1514C154.666 77.3707 154.77 77.4861 154.939 77.4124C155.08 77.3374 155.227 77.1527 155.236 76.9883C155.243 76.8512 155.112 76.7344 154.975 76.7272C154.81 76.7186 154.691 76.9047 154.678 77.1514Z" fill="#FF30B3"/>
</g>
<path d="M113.814 47.4686C111.851 48.3832 108.442 51.7454 108.017 53.0619C107.831 53.657 107.441 54.5832 107.173 55.1272C106.905 55.6711 106.626 56.8259 106.547 57.693C106.464 58.6034 106.114 59.5769 105.826 59.8568C105.31 60.247 105.373 60.515 106.149 61.1101C106.634 61.5475 107.013 62.1938 106.981 62.5407C106.93 63.1043 107.06 63.1161 107.486 62.7613C107.959 62.3671 108.234 62.6982 108.885 64.1997L109.669 66.1506L110.138 61.4723L110.559 56.8334L112.25 56.9869C113.897 57.1365 113.98 57.1877 115.021 60.1672C115.616 61.7949 116.192 63.6393 116.271 64.2147C116.397 64.7507 116.701 65.2591 117.047 65.2906C117.871 65.3654 117.867 65.4087 116.196 60.711L114.693 56.5531L115.525 52.6945L116.356 48.836L117.401 51.7721C117.953 53.3958 118.958 56.2846 119.616 58.1803C120.381 60.3479 120.972 61.5381 121.256 61.3016C121.918 60.7498 116.75 46.9047 115.883 46.826C115.493 46.7905 114.551 47.0547 113.814 47.4686ZM115.438 48.84C115.288 49.5258 114.807 51.4492 114.35 53.1124L113.586 56.234L112.025 56.0923C110.464 55.9505 108.592 54.4255 108.687 53.385C108.75 52.6913 114.547 47.5789 115.197 47.6379C115.544 47.6694 115.635 48.1148 115.438 48.84ZM108.652 56.1793C108.498 56.4276 108.131 56.6129 107.871 56.5893C107.611 56.5657 107.635 56.3055 108.017 55.9468C108.691 55.2649 109.195 55.4856 108.652 56.1793ZM108.9 57.7755C107.986 59.1787 107.245 59.6359 107.328 58.7255C107.387 58.0752 109.428 55.8127 109.664 56.0964C109.783 56.2383 109.452 56.9951 108.9 57.7755ZM109.681 59.2888C109.302 59.6042 108.636 58.7569 108.936 58.347C109.133 58.1026 109.345 58.1656 109.574 58.5361C109.72 58.8553 109.775 59.21 109.681 59.2888ZM108.467 60.6211C107.966 61.3188 107.06 61.6736 107.115 61.0666C107.174 60.4163 108.242 59.2456 108.612 59.4978C108.813 59.6909 108.778 60.0811 108.467 60.6211ZM107.229 59.8094C107.217 59.9394 107.123 60.0182 106.993 60.0064C106.863 59.9946 106.784 59.9 106.796 59.77C106.807 59.6399 106.902 59.5611 107.032 59.5729C107.162 59.5847 107.241 59.6793 107.229 59.8094ZM109.235 61.7837C109.204 62.1305 109.015 62.2882 108.766 62.1345C108.561 61.9848 108.372 61.6616 108.396 61.4015C108.416 61.1847 108.648 61.031 108.865 61.0507C109.125 61.0743 109.271 61.3935 109.235 61.7837Z" fill="#FF30B3"/>
<g filter="url(#filter3_f_2134_5711)">
<path d="M113.814 47.4686C111.851 48.3832 108.442 51.7454 108.017 53.0619C107.831 53.657 107.441 54.5832 107.173 55.1272C106.905 55.6711 106.626 56.8259 106.547 57.693C106.464 58.6034 106.114 59.5769 105.826 59.8568C105.31 60.247 105.373 60.515 106.149 61.1101C106.634 61.5475 107.013 62.1938 106.981 62.5407C106.93 63.1043 107.06 63.1161 107.486 62.7613C107.959 62.3671 108.234 62.6982 108.885 64.1997L109.669 66.1506L110.138 61.4723L110.559 56.8334L112.25 56.9869C113.897 57.1365 113.98 57.1877 115.021 60.1672C115.616 61.7949 116.192 63.6393 116.271 64.2147C116.397 64.7507 116.701 65.2591 117.047 65.2906C117.871 65.3654 117.867 65.4087 116.196 60.711L114.693 56.5531L115.525 52.6945L116.356 48.836L117.401 51.7721C117.953 53.3958 118.958 56.2846 119.616 58.1803C120.381 60.3479 120.972 61.5381 121.256 61.3016C121.918 60.7498 116.75 46.9047 115.883 46.826C115.493 46.7905 114.551 47.0547 113.814 47.4686ZM115.438 48.84C115.288 49.5258 114.807 51.4492 114.35 53.1124L113.586 56.234L112.025 56.0923C110.464 55.9505 108.592 54.4255 108.687 53.385C108.75 52.6913 114.547 47.5789 115.197 47.6379C115.544 47.6694 115.635 48.1148 115.438 48.84ZM108.652 56.1793C108.498 56.4276 108.131 56.6129 107.871 56.5893C107.611 56.5657 107.635 56.3055 108.017 55.9468C108.691 55.2649 109.195 55.4856 108.652 56.1793ZM108.9 57.7755C107.986 59.1787 107.245 59.6359 107.328 58.7255C107.387 58.0752 109.428 55.8127 109.664 56.0964C109.783 56.2383 109.452 56.9951 108.9 57.7755ZM109.681 59.2888C109.302 59.6042 108.636 58.7569 108.936 58.347C109.133 58.1026 109.345 58.1656 109.574 58.5361C109.72 58.8553 109.775 59.21 109.681 59.2888ZM108.467 60.6211C107.966 61.3188 107.06 61.6736 107.115 61.0666C107.174 60.4163 108.242 59.2456 108.612 59.4978C108.813 59.6909 108.778 60.0811 108.467 60.6211ZM107.229 59.8094C107.217 59.9394 107.123 60.0182 106.993 60.0064C106.863 59.9946 106.784 59.9 106.796 59.77C106.807 59.6399 106.902 59.5611 107.032 59.5729C107.162 59.5847 107.241 59.6793 107.229 59.8094ZM109.235 61.7837C109.204 62.1305 109.015 62.2882 108.766 62.1345C108.561 61.9848 108.372 61.6616 108.396 61.4015C108.416 61.1847 108.648 61.031 108.865 61.0507C109.125 61.0743 109.271 61.3935 109.235 61.7837Z" fill="#FF30B3"/>
</g>
<path fill-rule="evenodd" clip-rule="evenodd" d="M56.4317 80.1749L60.727 77.7933L61.1239 78.5092L56.8287 80.8908L56.4317 80.1749ZM56.5097 82.0036L56.1128 81.2877L56.8287 80.8908L57.2256 81.6066L56.5097 82.0036ZM58.8913 86.2988L56.5097 82.0036L55.7939 82.4005L58.1754 86.6957L58.8913 86.2988ZM60.0041 86.6177L59.6072 85.9019L58.8913 86.2988L59.2882 87.0146L60.0041 86.6177ZM64.2993 84.2362L64.6962 84.952L60.401 87.3336L60.0041 86.6177L64.2993 84.2362ZM64.6183 83.1234L65.0152 83.8392L64.2993 84.2362L63.9024 83.5203L64.6183 83.1234ZM62.2367 78.8281L62.9526 78.4312L65.3341 82.7264L64.6183 83.1234L62.2367 78.8281ZM62.2367 78.8281L61.8398 78.1123L61.1239 78.5092L61.5208 79.2251L62.2367 78.8281ZM58.8168 80.2564L59.5327 79.8595L59.9296 80.5753L61.0034 79.9799L61.4003 80.6958L60.3265 81.2912L59.6107 81.6881L59.2527 81.8866L59.6497 82.6025L61.0814 81.8086L61.7973 81.4117L62.1942 82.1275L62.5911 82.8434L62.988 83.5593L62.2722 83.9562L61.9142 84.1547L62.3112 84.8705L61.5953 85.2675L61.1984 84.5516L60.1246 85.147L59.7276 84.4311L60.8014 83.8357L61.5173 83.4388L61.8753 83.2403L61.4783 82.5245L60.0466 83.3183L59.3307 83.7152L58.9338 82.9994L58.5369 82.2835L58.1399 81.5676L58.8558 81.1707L59.2137 80.9722L58.8168 80.2564Z" fill="#FF30B3"/>
<path fill-rule="evenodd" clip-rule="evenodd" d="M88.122 78.7577L92.121 81.0309L91.7421 81.6974L87.7432 79.4242L88.122 78.7577ZM86.6978 79.7118L87.0767 79.0453L87.7432 79.4242L87.3643 80.0907L86.6978 79.7118ZM84.4247 83.7108L86.6978 79.7118L86.0313 79.333L83.7582 83.3319L84.4247 83.7108ZM84.7123 84.7561L85.0911 84.0896L84.4247 83.7108L84.0458 84.3772L84.7123 84.7561ZM88.7112 87.0293L88.3323 87.6958L84.3334 85.4226L84.7123 84.7561L88.7112 87.0293ZM89.7565 86.7417L89.3777 87.4081L88.7112 87.0293L89.0901 86.3628L89.7565 86.7417ZM92.0297 82.7427L92.6962 83.1216L90.423 87.1205L89.7565 86.7417L92.0297 82.7427ZM92.0297 82.7427L92.4086 82.0762L91.7421 81.6974L91.3632 82.3639L92.0297 82.7427ZM89.22 80.7046L89.8864 81.0835L89.5076 81.75L90.5073 82.3183L90.1285 82.9847L89.1287 82.4164L88.4622 82.0376L88.129 81.8482L87.7501 82.5146L89.0831 83.2724L89.7496 83.6512L89.3707 84.3177L88.9919 84.9842L88.613 85.6507L87.9465 85.2718L87.6133 85.0824L87.2344 85.7489L86.5679 85.37L86.9468 84.7035L85.9471 84.1352L86.3259 83.4688L87.3257 84.037L87.9921 84.4159L88.3254 84.6053L88.7042 83.9388L87.3713 83.1811L86.7048 82.8023L87.0836 82.1358L87.4625 81.4693L87.8414 80.8028L88.5079 81.1817L88.8411 81.3711L89.22 80.7046Z" fill="#FF30B3"/>
<path fill-rule="evenodd" clip-rule="evenodd" d="M103.849 88.3003L108.22 86.8691L108.459 87.5977L104.087 89.0289L103.849 88.3003ZM103.597 89.996L103.359 89.2674L104.087 89.0289L104.326 89.7575L103.597 89.996ZM105.028 94.3675L103.597 89.996L102.869 90.2345L104.3 94.6061L105.028 94.3675ZM105.996 94.8576L105.757 94.129L105.028 94.3675L105.267 95.0961L105.996 94.8576ZM110.367 93.4264L110.606 94.155L106.234 95.5862L105.996 94.8576L110.367 93.4264ZM110.857 92.4593L111.096 93.1879L110.367 93.4264L110.129 92.6978L110.857 92.4593ZM109.426 88.0877L110.155 87.8492L111.586 92.2208L110.857 92.4593L109.426 88.0877ZM109.426 88.0877L109.187 87.3592L108.459 87.5977L108.697 88.3263L109.426 88.0877ZM106.028 88.7968L106.757 88.5583L106.995 89.2869L108.088 88.9291L108.327 89.6577L107.234 90.0155L106.505 90.254L106.141 90.3733L106.379 91.1019L107.837 90.6248L108.565 90.3863L108.804 91.1149L109.042 91.8435L109.281 92.5721L108.552 92.8106L108.188 92.9299L108.426 93.6584L107.698 93.897L107.459 93.1684L106.366 93.5262L106.128 92.7976L107.221 92.4398L107.949 92.2013L108.314 92.082L108.075 91.3534L106.618 91.8305L105.889 92.069L105.651 91.3404L105.412 90.6118L105.174 89.8832L105.902 89.6447L106.267 89.5254L106.028 88.7968Z" fill="#FF30B3"/>
<path fill-rule="evenodd" clip-rule="evenodd" d="M153.712 67.3875L155.848 65.5967L156.147 65.9527L154.01 67.7435L153.712 67.3875ZM153.953 68.3979L153.654 68.0419L154.01 67.7435L154.309 68.0995L153.953 68.3979ZM155.744 70.534L153.953 68.3979L153.597 68.6964L155.388 70.8324L155.744 70.534ZM156.398 70.5915L156.1 70.2355L155.744 70.534L156.042 70.89L156.398 70.5915ZM158.534 68.8007L158.833 69.1567L156.697 70.9475L156.398 70.5915L158.534 68.8007ZM158.592 68.1463L158.89 68.5023L158.534 68.8007L158.236 68.4447L158.592 68.1463ZM156.801 66.0102L157.157 65.7118L158.948 67.8478L158.592 68.1463L156.801 66.0102ZM156.801 66.0102L156.503 65.6542L156.147 65.9527L156.445 66.3087L156.801 66.0102ZM155.05 67.1753L155.406 66.8768L155.704 67.2329L156.238 66.7852L156.537 67.1412L156.003 67.5889L155.647 67.8873L155.469 68.0366L155.767 68.3926L156.479 67.7956L156.835 67.4972L157.134 67.8532L157.432 68.2092L157.731 68.5652L157.374 68.8637L157.196 69.0129L157.495 69.3689L157.139 69.6674L156.84 69.3113L156.306 69.759L156.008 69.403L156.542 68.9553L156.898 68.6569L157.076 68.5076L156.778 68.1516L156.066 68.7486L155.71 69.047L155.411 68.691L155.113 68.335L154.814 67.979L155.17 67.6805L155.348 67.5313L155.05 67.1753Z" fill="#FF30B3"/>
<path fill-rule="evenodd" clip-rule="evenodd" d="M118.846 50.8631L123.014 49.6146L123.222 50.3093L119.054 51.5577L118.846 50.8631ZM118.568 52.4604L118.36 51.7658L119.054 51.5577L119.262 52.2524L118.568 52.4604ZM119.816 56.6281L118.568 52.4604L117.873 52.6685L119.122 56.8362L119.816 56.6281ZM120.719 57.1146L120.511 56.42L119.816 56.6281L120.024 57.3227L120.719 57.1146ZM124.887 55.8661L125.095 56.5608L120.927 57.8092L120.719 57.1146L124.887 55.8661ZM125.373 54.9635L125.581 55.6581L124.887 55.8661L124.679 55.1715L125.373 54.9635ZM124.125 50.7958L124.819 50.5877L126.068 54.7554L125.373 54.9635L124.125 50.7958ZM124.125 50.7958L123.917 50.1012L123.222 50.3093L123.43 51.0039L124.125 50.7958ZM120.895 51.3848L121.59 51.1768L121.798 51.8714L122.84 51.5593L123.048 52.2539L122.006 52.566L121.311 52.7741L120.964 52.8781L121.172 53.5727L122.561 53.1566L123.256 52.9485L123.464 53.6431L123.672 54.3377L123.88 55.0323L123.185 55.2404L122.838 55.3444L123.046 56.039L122.351 56.2471L122.143 55.5525L121.101 55.8646L120.893 55.17L121.935 54.8579L122.63 54.6498L122.977 54.5458L122.769 53.8512L121.38 54.2673L120.685 54.4754L120.477 53.7808L120.269 53.0862L120.061 52.3916L120.756 52.1835L121.103 52.0795L120.895 51.3848Z" fill="#FF30B3"/>
<path d="M194.237 41.7942L189.026 45.1108C188.764 45.2775 188.447 45.3334 188.143 45.2661C187.84 45.1987 187.576 45.0137 187.409 44.7517C187.243 44.4897 187.187 44.1721 187.254 43.8689C187.321 43.5657 187.506 43.3017 187.768 43.1349L192.979 39.8178M195.836 37.5374C195.135 36.8498 194.295 36.3198 193.372 35.9827C192.45 35.6456 191.466 35.5093 190.487 35.5828C190.394 35.6166 190.312 35.675 190.249 35.7517C190.186 35.8285 190.145 35.9207 190.13 36.0188C190.115 36.1169 190.127 36.2172 190.164 36.3091C190.201 36.401 190.263 36.4812 190.342 36.5412C191.476 37.233 192.489 38.1062 193.341 39.126" stroke="white" stroke-width="1.10408" stroke-linecap="round" stroke-linejoin="round"/>
<path d="M196.994 37.4493C196.915 37.3282 196.792 37.2428 196.651 37.2115C196.51 37.1802 196.362 37.2054 196.24 37.2818L193.21 39.2104C193.089 39.2892 193.003 39.4123 192.972 39.5534C192.941 39.6945 192.966 39.8422 193.042 39.9649L194.132 41.6773C194.211 41.7984 194.334 41.8838 194.475 41.9151C194.617 41.9465 194.764 41.9212 194.887 41.8448L197.917 39.9163C198.038 39.8375 198.123 39.7143 198.154 39.5732C198.186 39.4322 198.161 39.2844 198.084 39.1618L196.994 37.4493Z" stroke="white" stroke-width="1.10408" stroke-linecap="round" stroke-linejoin="round"/>
<path d="M197.513 40.1721C197.839 41.0983 197.964 42.0835 197.879 43.0618C197.794 44.0401 197.501 44.989 197.02 45.845C196.95 45.915 196.862 45.9649 196.766 45.9893C196.67 46.0137 196.569 46.0118 196.474 45.9838C196.379 45.9558 196.293 45.9028 196.226 45.8302C196.158 45.7576 196.112 45.6682 196.091 45.5713C195.944 44.2507 195.582 42.963 195.018 41.7597" stroke="white" stroke-width="1.10408" stroke-linecap="round" stroke-linejoin="round"/>
<defs>
<filter id="filter0_f_2134_5711" x="31" y="69" width="36.8105" height="44.0488" filterUnits="userSpaceOnUse" color-interpolation-filters="sRGB">
<feFlood flood-opacity="0" result="BackgroundImageFix"/>
<feBlend mode="normal" in="SourceGraphic" in2="BackgroundImageFix" result="shape"/>
<feGaussianBlur stdDeviation="2" result="effect1_foregroundBlur_2134_5711"/>
</filter>
<filter id="filter1_f_2134_5711" x="82.3818" y="73.4258" width="27.1201" height="32.248" filterUnits="userSpaceOnUse" color-interpolation-filters="sRGB">
<feFlood flood-opacity="0" result="BackgroundImageFix"/>
<feBlend mode="normal" in="SourceGraphic" in2="BackgroundImageFix" result="shape"/>
<feGaussianBlur stdDeviation="2" result="effect1_foregroundBlur_2134_5711"/>
</filter>
<filter id="filter2_f_2134_5711" x="143.198" y="63.2207" width="17.9482" height="20.6172" filterUnits="userSpaceOnUse" color-interpolation-filters="sRGB">
<feFlood flood-opacity="0" result="BackgroundImageFix"/>
<feBlend mode="normal" in="SourceGraphic" in2="BackgroundImageFix" result="shape"/>
<feGaussianBlur stdDeviation="2" result="effect1_foregroundBlur_2134_5711"/>
</filter>
<filter id="filter3_f_2134_5711" x="101.492" y="42.8223" width="23.8223" height="27.3281" filterUnits="userSpaceOnUse" color-interpolation-filters="sRGB">
<feFlood flood-opacity="0" result="BackgroundImageFix"/>
<feBlend mode="normal" in="SourceGraphic" in2="BackgroundImageFix" result="shape"/>
<feGaussianBlur stdDeviation="2" result="effect1_foregroundBlur_2134_5711"/>
</filter>
</defs>
</svg>
