<svg width="24" height="24" viewBox="0 0 24 24" fill="none" xmlns="http://www.w3.org/2000/svg">
<path d="M12 0C8.81812 0 5.76375 1.26506 3.51562 3.51469C1.2652 5.76522 0.000643966 8.81734 0 12C0 15.1813 1.26562 18.2357 3.51562 20.4853C5.76375 22.7349 8.81812 24 12 24C15.1819 24 18.2362 22.7349 20.4844 20.4853C22.7344 18.2357 24 15.1813 24 12C24 8.81869 22.7344 5.76431 20.4844 3.51469C18.2362 1.26506 15.1819 0 12 0Z" fill="url(#paint0_linear_1528_6312)"/>
<path d="M5.43087 11.8721C8.92962 10.3481 11.2621 9.34332 12.4284 8.85782C15.7621 7.47163 16.454 7.23088 16.9059 7.22273C17.0052 7.22113 17.2265 7.2457 17.3709 7.36241C17.4909 7.46085 17.5246 7.59398 17.5415 7.68745C17.5565 7.78082 17.5771 7.99363 17.5602 8.15976C17.3802 10.0573 16.5984 14.6619 16.2009 16.7872C16.034 17.6864 15.7021 17.9879 15.3815 18.0174C14.684 18.0815 14.1552 17.5569 13.4802 17.1146C12.4246 16.4221 11.8284 15.9913 10.8027 15.3157C9.61774 14.5349 10.3865 14.1058 11.0615 13.4045C11.2377 13.2209 14.309 10.4281 14.3671 10.1748C14.3746 10.1431 14.3821 10.025 14.3109 9.96276C14.2415 9.90032 14.1384 9.9217 14.0634 9.93857C13.9565 9.96257 12.2709 11.0778 9.00087 13.2841C8.52274 13.613 8.08962 13.7733 7.69962 13.7649C7.27212 13.7557 6.44712 13.5226 5.83399 13.3235C5.08399 13.0792 4.48587 12.95 4.53837 12.5351C4.56462 12.3191 4.86274 12.098 5.43087 11.8721Z" fill="white"/>
<defs>
<linearGradient id="paint0_linear_1528_6312" x1="1200" y1="0" x2="1200" y2="2400" gradientUnits="userSpaceOnUse">
<stop stop-color="#2AABEE"/>
<stop offset="1" stop-color="#229ED9"/>
</linearGradient>
</defs>
</svg>
