<svg width="54" height="54" viewBox="0 0 442 442" fill="none" xmlns="http://www.w3.org/2000/svg">
<path d="M128.916 92.0846H147.333V128.918H128.916V147.335H92.0827V128.918H73.666V92.0846H92.0827V73.668H128.916V92.0846Z" fill="white"/>
<path d="M239.416 36.8346H257.833V73.668H239.416V92.0846H202.583V73.668H184.166V36.8346H202.583V18.418H239.416V36.8346Z" fill="white"/>
<path d="M73.666 257.835H36.8327V239.418H18.416V202.585H36.8327V184.168H73.666V202.585H92.0827V239.418H73.666V257.835Z" fill="white"/>
<path d="M128.916 313.085H147.333V349.918H128.916V368.335H92.0827V349.918H73.666V313.085H92.0827V294.668H128.916V313.085Z" fill="white"/>
<path d="M423.583 202.585V239.418H405.166V257.835H368.333V239.418H349.916V202.585H368.333V184.168H405.166V202.585H423.583Z" fill="white"/>
<path d="M349.916 313.085H368.333V349.918H349.916V368.335H313.083V349.918H294.666V313.085H313.083V294.668H349.916V313.085Z" fill="white"/>
<path d="M239.416 368.335H257.833V405.168H239.416V423.585H202.583V405.168H184.166V368.335H202.583V349.918H239.416V368.335Z" fill="white"/>
</svg>
