<svg width="100%" height="100%" viewBox="0 0 277 185" fill="none" xmlns="http://www.w3.org/2000/svg">
<path d="M58.0371 39.4997C57.0152 40.6493 54.9715 44.3535 53.5664 47.6746C51.7781 51.8898 49.9899 53.9335 47.6907 54.5722C46.0301 54.9554 43.0923 57.3823 41.304 59.937C39.5157 62.6194 36.8333 65.4295 35.4283 66.3237C34.0232 67.2178 32.8736 68.6229 32.8736 69.6447C32.8736 70.5389 31.8517 71.6885 30.7021 72.1994C29.4248 72.5826 22.144 76.5424 14.3523 81.013C-7.23468 93.2754 -6.59602 94.5528 30.9576 114.862C41.5595 120.483 51.2672 126.103 52.6723 127.125C54.9715 128.785 55.9933 128.53 64.6792 123.804C69.9163 120.866 77.708 116.395 81.9232 113.713C96.868 104.516 117.05 93.4032 118.966 93.4032C120.499 93.4032 121.01 92.1258 121.01 88.9325C121.01 85.356 120.371 84.2064 118.072 83.3122C114.878 82.0349 96.4848 70.5389 95.463 69.1338C94.4411 67.601 89.0763 66.3237 89.0763 67.4733C89.0763 67.9842 90.2259 69.2616 91.631 70.1557C94.1856 71.6885 95.0798 74.2432 93.1638 74.2432C92.6528 74.2432 90.2259 72.5826 87.799 70.5389C83.456 66.8346 83.456 66.7069 86.1384 65.685C88.9486 64.6631 88.9486 64.5354 83.3283 55.0831C80.2627 49.8461 77.1971 44.7367 76.5584 43.7149C75.6643 42.1821 74.2592 42.4375 68.2558 45.2477C62.2523 47.9301 60.9749 48.1855 60.9749 46.6527C60.9749 45.5031 62.1245 44.3535 63.5296 43.9703C66.9784 43.0762 66.723 40.5215 63.0187 38.7333C60.5917 37.5837 59.5699 37.8391 58.0371 39.4997ZM60.5917 42.5653C60.2085 43.5871 59.8253 43.2039 59.8253 41.7989C59.6976 40.3938 60.0808 39.6274 60.464 40.1383C60.8472 40.5215 60.9749 41.6711 60.5917 42.5653ZM59.0589 46.0141C59.6976 47.1637 55.9933 51.8898 55.0992 50.9957C54.8437 50.7402 54.9715 49.2074 55.4824 47.6746C56.2488 44.7367 57.7816 43.9703 59.0589 46.0141ZM77.4526 50.2293C78.3467 52.5285 80.3904 56.6159 82.1787 59.2983C85.6275 64.6631 85.372 66.9623 81.7955 63.769C78.3467 60.7034 65.9566 54.8277 65.0624 55.7218C64.5515 56.2327 64.0406 61.2143 63.9128 66.8346C63.7851 72.4549 63.5296 77.181 63.2741 77.3088C63.0187 77.4365 61.2304 78.5861 59.3144 79.8634C57.2707 81.1408 55.4824 81.9072 55.3547 81.6517C54.9715 80.7576 51.6504 72.0717 49.3512 65.4295C47.9461 61.5975 47.3075 58.1487 47.6907 57.7655C49.0957 56.2327 71.8323 46.2695 74.0038 46.2695C75.1534 46.1418 76.6862 47.8023 77.4526 50.2293ZM74.1315 61.5975C76.6862 62.4917 78.8576 63.6413 78.8576 64.1522C78.8576 64.6631 76.9416 67.9842 74.5147 71.5607C72.0878 75.1373 70.6827 78.3306 71.3214 78.7138C72.5987 79.608 72.9819 88.2938 71.5768 88.2938C71.0659 88.2938 69.4054 87.1442 68.0003 85.7392L65.1901 83.0568L60.7195 85.7392C54.9715 89.0602 49.9899 88.4216 41.8149 83.1845C35.6837 79.2248 35.3005 78.7138 36.1947 75.0096C36.9611 71.5607 44.1141 62.7471 46.2856 62.7471C46.6688 62.7471 46.9243 64.1522 46.9243 65.9405C46.9243 67.7287 48.0739 71.433 49.4789 74.2432C50.884 77.0533 52.0336 80.3744 52.0336 81.7794C52.0336 85.9946 54.2051 86.1224 60.9749 82.2904C67.2339 78.7138 70.044 75.3928 67.4894 74.4986C66.723 74.2432 66.0843 70.6666 66.0843 66.3237C66.0843 60.7034 66.4675 58.9151 67.7448 59.4261C68.5112 59.6815 71.4491 60.7034 74.1315 61.5975ZM83.5838 71.944C86.6494 74.7541 87.5435 81.1408 85.2443 82.5458C84.4779 83.0568 83.967 81.9072 83.967 79.9912C83.967 76.7978 80.9014 74.2432 79.2408 76.0314C78.7299 76.4146 78.0912 79.2248 77.708 82.1626C77.3248 85.1005 76.303 87.6552 75.5366 87.9106C73.4928 88.5493 74.8979 75.6482 77.3248 71.944C79.624 68.4951 79.8795 68.4951 83.5838 71.944ZM34.1509 75.1373C34.1509 77.0533 31.724 79.8634 30.8299 79.097C30.3189 78.5861 28.4029 79.2248 26.6147 80.5021C18.0565 86.3778 5.79412 92.3813 4.51679 91.104C3.75039 90.3376 5.79412 88.677 10.1371 86.2501C34.1509 73.4767 34.1509 73.4767 34.1509 75.1373ZM102.872 82.6736C107.853 85.2282 112.068 87.7829 112.068 88.1661C112.068 89.0602 98.6563 96.9797 87.1603 102.983C82.9451 105.282 75.1534 109.498 69.6608 112.435C64.296 115.373 58.6757 118.056 57.0152 118.311C53.6941 118.95 9.49839 95.1914 10.5203 93.2754C10.9035 92.6368 16.1405 89.5712 22.0163 86.3778L32.8736 80.3744L36.8333 83.3122C39.0048 84.845 43.7309 87.6552 47.3075 89.6989L53.6941 93.1477L59.3144 89.9544C64.5515 87.0165 65.1902 87.0165 67.2339 88.8048C70.4272 91.6149 74.6424 91.2317 82.051 87.1442C87.799 84.0786 88.4376 83.1845 88.8208 78.8416C89.204 74.3709 89.4595 74.1154 91.3755 75.9037C92.5251 77.0533 97.7622 79.9912 102.872 82.6736ZM106.959 79.608C111.941 82.4181 115.9 85.356 115.9 85.9946C115.9 87.5274 97.6344 77.4365 96.9958 75.6482C96.2294 73.4767 97.6344 73.9877 106.959 79.608ZM82.6896 81.1408C82.6896 82.1626 82.1787 83.44 81.4123 83.8232C80.7736 84.2064 80.135 83.44 80.135 82.0349C80.135 80.5021 80.7736 79.3525 81.4123 79.3525C82.1787 79.3525 82.6896 80.1189 82.6896 81.1408ZM106.831 96.341C100.956 99.4066 94.5688 102.855 92.6528 104.133C90.6091 105.41 89.0763 105.921 89.0763 105.41C89.204 103.75 112.196 90.9762 115.134 90.8485C116.539 90.8485 112.835 93.2754 106.831 96.341ZM2.21759 94.0418C2.21759 94.425 1.96212 94.6805 1.57892 94.6805C1.19572 94.6805 0.940254 94.425 0.940254 94.0418C0.940254 93.6586 1.19572 93.4032 1.57892 93.4032C1.96212 93.4032 2.21759 93.6586 2.21759 94.0418ZM22.5272 104.388C23.5491 105.41 24.06 106.432 23.6768 106.943C22.5272 107.965 4.77226 96.9797 5.53866 95.7024C6.17732 94.6805 19.3339 101.45 22.5272 104.388ZM54.4605 123.548C54.8437 125.464 54.4605 125.464 51.2672 123.165C49.2235 121.76 42.8368 118.183 37.0888 115.118C31.2131 112.052 26.4869 108.859 26.4869 107.965C26.4869 105.666 53.8219 120.866 54.4605 123.548ZM84.7334 108.603C84.2224 109.37 79.7518 112.308 74.6424 115.246C69.5331 118.183 63.6573 121.632 61.3581 123.037C58.9312 124.442 57.0152 124.953 56.632 124.187C56.1211 123.548 58.548 121.377 61.8691 119.461C65.3179 117.545 71.7046 113.841 76.303 111.286C84.4779 106.56 86.3939 105.921 84.7334 108.603Z" fill="white"/>
<path d="M40.5391 75.3923C40.5391 77.5638 40.7945 79.352 41.05 79.352C41.3055 79.352 42.5828 79.7352 43.7324 80.1184C45.5207 80.8848 45.7761 80.2462 45.3929 76.6696C44.882 70.7939 40.5391 69.6443 40.5391 75.3923Z" fill="white"/>
<g filter="url(#filter0_f_939_4532)">
<path d="M40.5391 75.3923C40.5391 77.5638 40.7945 79.352 41.05 79.352C41.3055 79.352 42.5828 79.7352 43.7324 80.1184C45.5207 80.8848 45.7761 80.2462 45.3929 76.6696C44.882 70.7939 40.5391 69.6443 40.5391 75.3923Z" fill="#FDFF85"/>
</g>
<path d="M66.7249 81.9063C67.1081 82.5449 68.3854 83.1836 69.4073 83.1836C70.4292 83.1836 70.9401 82.5449 70.5569 81.9063C70.1737 81.1399 68.8964 80.6289 67.8745 80.6289C66.8526 80.6289 66.3417 81.1399 66.7249 81.9063Z" fill="#FDFF86"/>
<g filter="url(#filter1_f_939_4532)">
<path d="M66.7249 81.9063C67.1081 82.5449 68.3854 83.1836 69.4073 83.1836C70.4292 83.1836 70.9401 82.5449 70.5569 81.9063C70.1737 81.1399 68.8964 80.6289 67.8745 80.6289C66.8526 80.6289 66.3417 81.1399 66.7249 81.9063Z" fill="#FDFF86"/>
</g>
<path d="M94.1875 84.716C94.1875 85.6101 95.5926 86.5043 97.3808 86.5043C99.2968 86.632 100.574 86.1211 100.574 84.9715C100.574 83.9496 99.2968 83.1832 97.3808 83.1832C95.5926 83.1832 94.1875 83.9496 94.1875 84.716Z" fill="#A5FF97"/>
<g filter="url(#filter2_f_939_4532)">
<path d="M94.1875 84.716C94.1875 85.6101 95.5926 86.5043 97.3808 86.5043C99.2968 86.632 100.574 86.1211 100.574 84.9715C100.574 83.9496 99.2968 83.1832 97.3808 83.1832C95.5926 83.1832 94.1875 83.9496 94.1875 84.716Z" fill="#A5FF97"/>
</g>
<path d="M31.5977 89.5708C31.5977 90.2095 32.1086 90.8482 32.7473 90.8482C33.3859 90.8482 34.9187 91.2314 35.9406 91.6146C37.4734 92.2532 37.8566 91.87 37.2179 90.3372C36.3238 88.1658 31.5977 87.5271 31.5977 89.5708Z" fill="#A5FF97"/>
<g filter="url(#filter3_f_939_4532)">
<path d="M31.5977 89.5708C31.5977 90.2095 32.1086 90.8482 32.7473 90.8482C33.3859 90.8482 34.9187 91.2314 35.9406 91.6146C37.4734 92.2532 37.8566 91.87 37.2179 90.3372C36.3238 88.1658 31.5977 87.5271 31.5977 89.5708Z" fill="#A5FF97"/>
</g>
<path d="M89.0742 93.4024C89.0742 94.041 90.9902 94.6797 93.2894 94.6797C96.355 94.6797 96.866 94.2965 95.4609 93.4024C92.9062 91.7418 89.0742 91.7418 89.0742 93.4024Z" fill="#A5FF97"/>
<g filter="url(#filter4_f_939_4532)">
<path d="M89.0742 93.4024C89.0742 94.041 90.9902 94.6797 93.2894 94.6797C96.355 94.6797 96.866 94.2965 95.4609 93.4024C92.9062 91.7418 89.0742 91.7418 89.0742 93.4024Z" fill="#A5FF97"/>
</g>
<path d="M18.1834 94.6792C17.8002 95.3179 17.8002 95.9565 18.4389 95.9565C18.9498 95.9565 20.8658 96.3397 22.6541 96.8507C25.4642 97.6171 25.7197 97.4893 24.0591 95.5733C22.1431 93.1464 19.333 92.7632 18.1834 94.6792Z" fill="#A5FF97"/>
<g filter="url(#filter5_f_939_4532)">
<path d="M18.1834 94.6792C17.8002 95.3179 17.8002 95.9565 18.4389 95.9565C18.9498 95.9565 20.8658 96.3397 22.6541 96.8507C25.4642 97.6171 25.7197 97.4893 24.0591 95.5733C22.1431 93.1464 19.333 92.7632 18.1834 94.6792Z" fill="#A5FF97"/>
</g>
<path d="M56.7616 96.2116C56.3784 97.3612 57.6558 97.9998 60.5936 98.1276C64.2979 98.2553 64.6811 97.9998 63.4038 96.467C61.6155 94.2956 57.6558 94.1678 56.7616 96.2116Z" fill="#A5FF97"/>
<g filter="url(#filter6_f_939_4532)">
<path d="M56.7616 96.2116C56.3784 97.3612 57.6558 97.9998 60.5936 98.1276C64.2979 98.2553 64.6811 97.9998 63.4038 96.467C61.6155 94.2956 57.6558 94.1678 56.7616 96.2116Z" fill="#A5FF97"/>
</g>
<path d="M40.0277 100.809C39.6445 101.32 41.0496 102.47 43.2211 103.236C47.0531 104.769 47.9472 103.875 45.3926 101.32C43.6043 99.5318 40.9219 99.2763 40.0277 100.809Z" fill="#A5FF97"/>
<g filter="url(#filter7_f_939_4532)">
<path d="M40.0277 100.809C39.6445 101.32 41.0496 102.47 43.2211 103.236C47.0531 104.769 47.9472 103.875 45.3926 101.32C43.6043 99.5318 40.9219 99.2763 40.0277 100.809Z" fill="#A5FF97"/>
</g>
<path d="M73.109 101.066C73.4922 101.705 75.2805 102.344 77.0687 102.344C78.7293 102.344 80.1343 101.705 80.1343 101.066C80.1343 100.3 78.3461 99.7891 76.1746 99.7891C74.0031 99.7891 72.5981 100.3 73.109 101.066Z" fill="#A5FF97"/>
<g filter="url(#filter8_f_939_4532)">
<path d="M73.109 101.066C73.4922 101.705 75.2805 102.344 77.0687 102.344C78.7293 102.344 80.1343 101.705 80.1343 101.066C80.1343 100.3 78.3461 99.7891 76.1746 99.7891C74.0031 99.7891 72.5981 100.3 73.109 101.066Z" fill="#A5FF97"/>
</g>
<path d="M54.5898 107.453C54.5898 108.092 55.9949 108.73 57.7832 108.73C59.5714 108.73 60.9765 108.092 60.9765 107.453C60.9765 106.687 59.5714 106.176 57.7832 106.176C55.9949 106.176 54.5898 106.687 54.5898 107.453Z" fill="#A5FF97"/>
<g filter="url(#filter9_f_939_4532)">
<path d="M54.5898 107.453C54.5898 108.092 55.9949 108.73 57.7832 108.73C59.5714 108.73 60.9765 108.092 60.9765 107.453C60.9765 106.687 59.5714 106.176 57.7832 106.176C55.9949 106.176 54.5898 106.687 54.5898 107.453Z" fill="#A5FF97"/>
</g>
<path d="M102.781 13.6163L88.5703 27.0262L89.7712 39.035L90.9721 50.8437L120.994 69.0571C177.836 103.282 215.464 124.098 220.668 124.098C224.871 124.098 266.301 104.483 270.504 100.28C271.305 99.6797 272.306 95.2764 272.906 91.0733C273.306 86.6701 274.307 81.4663 275.108 79.4648C275.908 77.4633 276.309 75.662 275.908 75.2617C272.306 72.4596 166.428 13.216 158.021 9.41319C148.214 5.00995 127.399 -0.193886 119.793 0.00626373C118.192 0.206413 110.587 6.21084 102.781 13.6163ZM143.01 16.8186C189.645 41.8371 233.277 65.8548 236.88 68.4567C240.482 71.0586 240.282 71.8592 231.075 85.6694C225.871 93.6753 220.868 100.08 220.267 100.08C219.467 100.08 217.065 98.8791 215.063 97.2779C212.862 95.6767 200.253 88.6716 187.043 81.6664C173.833 74.6612 150.016 60.8511 134.204 51.244C118.392 41.4368 102.781 32.6303 99.5784 31.6296C96.5762 30.4287 93.9743 29.0276 93.9743 28.4272C93.9743 26.826 118.793 4.00922 119.993 4.60966C120.594 4.8098 131.002 10.4139 143.01 16.8186ZM166.428 17.4191C172.232 20.6214 191.046 31.2293 208.058 41.0365C225.071 50.6436 243.685 61.2514 249.089 64.2536C257.895 69.2573 258.495 70.0579 253.692 70.0579C250.49 70.0579 228.874 59.2499 200.853 43.8385C174.634 29.4279 149.215 15.6178 144.612 13.4161C140.008 11.2145 136.606 8.6126 137.206 7.81201C138.607 5.61039 154.019 10.6141 166.428 17.4191ZM102.38 37.2337C105.983 39.035 121.795 48.4419 137.807 57.8489C154.019 67.4559 179.037 81.8666 193.648 89.8725C208.258 97.8783 220.868 105.684 221.468 107.285C222.069 108.886 221.868 112.489 221.268 115.291C220.267 119.094 219.066 120.095 216.464 119.094C210.26 116.892 145.212 79.6649 119.593 63.6531C94.7749 48.2418 93.9743 47.6413 93.9743 40.8363C93.9743 33.0306 94.1744 33.0306 102.38 37.2337ZM263.499 76.4626C269.904 78.2639 270.104 78.6642 268.903 86.6701C267.302 98.0785 266.701 100.08 263.899 100.08C262.498 100.08 262.098 98.0785 262.498 95.2764C264.3 85.6694 261.498 85.0689 246.286 92.0741L232.076 98.6789V107.085C232.076 111.889 230.875 116.692 229.274 117.893C226.872 119.895 226.272 118.894 225.071 112.089C223.87 104.483 224.47 102.682 232.276 91.4736C246.887 70.0579 245.286 70.8584 263.499 76.4626ZM258.495 97.4781C256.694 107.085 250.089 109.287 250.089 100.48C250.089 93.8754 251.49 92.0741 256.094 92.0741C258.696 92.0741 259.296 93.275 258.495 97.4781ZM246.086 102.682C246.086 107.886 244.885 109.887 241.083 111.689C236.279 113.89 236.079 113.69 236.079 107.085C236.079 102.682 237.28 99.4795 239.682 98.2786C245.086 95.0763 246.086 95.6767 246.086 102.682Z" fill="white"/>
<path d="M126.997 21.2225C115.389 27.0268 114.788 29.0283 122.995 34.032C126.997 36.4337 130.4 38.2351 130.8 37.8348C133.803 34.4323 138.006 23.0239 137.205 20.8222C135.804 17.2196 134.403 17.2196 126.997 21.2225ZM134.003 26.0261C134.003 28.628 132.602 30.029 130.4 30.029C124.796 30.029 123.595 27.8274 127.598 24.8252C132.401 21.0224 134.003 21.4227 134.003 26.0261Z" fill="#FDFF85"/>
<g filter="url(#filter10_f_939_4532)">
<path d="M126.997 21.2225C115.389 27.0268 114.788 29.0283 122.995 34.032C126.997 36.4337 130.4 38.2351 130.8 37.8348C133.803 34.4323 138.006 23.0239 137.205 20.8222C135.804 17.2196 134.403 17.2196 126.997 21.2225ZM134.003 26.0261C134.003 28.628 132.602 30.029 130.4 30.029C124.796 30.029 123.595 27.8274 127.598 24.8252C132.401 21.0224 134.003 21.4227 134.003 26.0261Z" fill="#FDFF85"/>
</g>
<path d="M165.028 38.4345C152.819 42.6376 148.616 50.0431 155.822 54.046C162.026 57.2484 163.427 56.648 168.831 46.8407C175.836 34.4316 175.836 34.6317 165.028 38.4345ZM163.227 47.241C157.223 51.4441 154.42 50.4434 159.824 45.84C162.426 43.6384 165.228 42.4375 165.829 43.2381C166.429 43.8385 165.228 45.6399 163.227 47.241Z" fill="#FDFF85"/>
<g filter="url(#filter11_f_939_4532)">
<path d="M165.028 38.4345C152.819 42.6376 148.616 50.0431 155.822 54.046C162.026 57.2484 163.427 56.648 168.831 46.8407C175.836 34.4316 175.836 34.6317 165.028 38.4345ZM163.227 47.241C157.223 51.4441 154.42 50.4434 159.824 45.84C162.426 43.6384 165.228 42.4375 165.829 43.2381C166.429 43.8385 165.228 45.6399 163.227 47.241Z" fill="#FDFF85"/>
</g>
<path d="M193.048 58.8497C185.442 62.0521 181.039 67.2559 184.041 69.0572C185.242 69.8578 187.644 69.2574 189.245 67.8564C191.647 65.8549 191.847 66.055 190.846 68.8571C189.045 73.4605 195.45 75.2618 199.853 71.2589C202.054 69.2574 204.056 65.2544 204.456 61.8519C205.457 55.2471 202.855 54.4465 193.048 58.8497ZM200.053 61.4516C199.853 65.0543 196.45 68.4568 195.249 66.2552C194.449 65.0543 194.449 63.0528 195.049 62.0521C196.45 59.6503 200.053 59.4502 200.053 61.4516Z" fill="#FDFF85"/>
<g filter="url(#filter12_f_939_4532)">
<path d="M193.048 58.8497C185.442 62.0521 181.039 67.2559 184.041 69.0572C185.242 69.8578 187.644 69.2574 189.245 67.8564C191.647 65.8549 191.847 66.055 190.846 68.8571C189.045 73.4605 195.45 75.2618 199.853 71.2589C202.054 69.2574 204.056 65.2544 204.456 61.8519C205.457 55.2471 202.855 54.4465 193.048 58.8497ZM200.053 61.4516C199.853 65.0543 196.45 68.4568 195.249 66.2552C194.449 65.0543 194.449 63.0528 195.049 62.0521C196.45 59.6503 200.053 59.4502 200.053 61.4516Z" fill="#FDFF85"/>
</g>
<path d="M103.781 48.0398C108.385 52.0428 111.987 53.2437 111.987 50.8419C111.987 48.6403 105.182 44.237 101.98 44.237C99.9786 44.237 100.379 45.4379 103.781 48.0398Z" fill="#FDFF85"/>
<g filter="url(#filter13_f_939_4532)">
<path d="M103.781 48.0398C108.385 52.0428 111.987 53.2437 111.987 50.8419C111.987 48.6403 105.182 44.237 101.98 44.237C99.9786 44.237 100.379 45.4379 103.781 48.0398Z" fill="#FDFF85"/>
</g>
<path d="M122.396 58.2464C123.396 61.4487 140.009 70.8556 140.009 68.2537C140.009 66.2522 125.598 56.0447 122.796 56.0447C122.196 56.0447 121.995 57.0455 122.396 58.2464Z" fill="#FDFF85"/>
<g filter="url(#filter14_f_939_4532)">
<path d="M122.396 58.2464C123.396 61.4487 140.009 70.8556 140.009 68.2537C140.009 66.2522 125.598 56.0447 122.796 56.0447C122.196 56.0447 121.995 57.0455 122.396 58.2464Z" fill="#FDFF85"/>
</g>
<path d="M154.017 76.8615C155.218 78.4627 159.421 81.665 163.424 84.0668C172.231 89.2706 171.23 84.6673 162.023 78.4627C154.618 73.459 150.415 72.6584 154.017 76.8615Z" fill="#FDFF85"/>
<g filter="url(#filter15_f_939_4532)">
<path d="M154.017 76.8615C155.218 78.4627 159.421 81.665 163.424 84.0668C172.231 89.2706 171.23 84.6673 162.023 78.4627C154.618 73.459 150.415 72.6584 154.017 76.8615Z" fill="#FDFF85"/>
</g>
<path d="M188.043 96.0748C188.043 98.4766 204.055 106.683 205.656 105.282C206.256 104.481 205.055 102.68 202.854 101.079C197.45 97.0756 188.043 93.8732 188.043 96.0748Z" fill="#FDFF85"/>
<g filter="url(#filter16_f_939_4532)">
<path d="M188.043 96.0748C188.043 98.4766 204.055 106.683 205.656 105.282C206.256 104.481 205.055 102.68 202.854 101.079C197.45 97.0756 188.043 93.8732 188.043 96.0748Z" fill="#FDFF85"/>
</g>
<path d="M244.082 82.0649C244.082 83.0657 245.483 84.0664 247.084 84.0664C248.685 84.0664 250.086 83.0657 250.086 82.0649C250.086 80.864 248.685 80.0635 247.084 80.0635C245.483 80.0635 244.082 80.864 244.082 82.0649Z" fill="#FDFF85"/>
<g filter="url(#filter17_f_939_4532)">
<path d="M244.082 82.0649C244.082 83.0657 245.483 84.0664 247.084 84.0664C248.685 84.0664 250.086 83.0657 250.086 82.0649C250.086 80.864 248.685 80.0635 247.084 80.0635C245.483 80.0635 244.082 80.864 244.082 82.0649Z" fill="#FDFF85"/>
</g>
<path d="M129.374 94.8469C124.828 97.7036 117.536 101.884 113.216 104.134C108.982 106.379 104.913 108.532 104.254 108.99C103.59 109.362 99.8693 111.668 95.9826 114.068C92.0958 116.467 86.6357 119.793 83.7358 121.465C80.8358 123.136 77.8631 125.066 77.212 125.693C76.1524 126.68 75.8127 126.697 75.4282 125.778C75.1327 124.941 74.6271 125.05 73.244 126.394C71.6991 127.915 50.1299 141.547 45.8062 143.712C44.4755 144.372 44.1642 144.983 44.6458 146.152C45.3176 147.737 45.4025 147.733 47.101 145.864C48.0716 144.796 50.7045 142.882 53.0261 141.579C55.2627 140.28 60.3062 137.144 64.2698 134.571C71.202 129.982 74.6522 129.136 73.0996 132.275C72.481 133.582 56.586 143.026 47.603 147.458C42.7777 149.817 43.7731 151.046 55.2905 156.881C60.2664 159.452 65.5862 162.093 67.0749 162.958C68.6446 163.734 77.3666 168.085 86.4324 172.504C95.5872 177.004 103.439 180.971 103.969 181.371C104.588 181.853 106.671 180.902 109.794 178.539C112.512 176.621 117.79 173.048 121.676 170.648C133.329 163.28 139.686 159.144 152.232 150.882C163.29 143.542 185.478 130.391 188.912 129.205C189.915 128.816 190.291 127.777 190.173 125.313C190.084 123.445 190.241 121.394 190.46 120.617C190.755 119.666 190.48 119.254 189.46 119.303C188.696 119.339 184.42 117.16 179.945 114.394C175.56 111.709 170.916 108.951 169.609 108.333C160.45 103.747 138.402 91.3501 138.111 90.5978C137.916 90.0962 134.171 91.893 129.374 94.8469ZM135.956 95.3835C136.057 97.5071 135.572 98.0411 131.746 99.9269C129.331 101.064 122.192 104.896 115.976 108.429C105.278 114.389 104.526 114.681 104.44 112.897C104.363 111.283 106.754 109.636 119.927 102.025C128.461 97.1042 135.502 93.0213 135.672 93.0132C135.753 92.9241 135.891 94.0244 135.956 95.3835ZM145.923 97.2906C150.818 99.9512 152.942 101.638 153.173 102.904C153.513 104.675 152.821 104.453 145.665 100.794C140.341 98.0685 137.699 96.2366 137.65 95.2173C137.61 94.3678 137.917 93.672 138.257 93.6558C138.682 93.6355 142.08 95.2608 145.923 97.2906ZM145.588 102.756C158.162 109.306 158.862 109.698 170.428 116.552C176.561 120.175 181.573 123.511 181.594 123.936C181.626 124.615 161.137 137.685 159.948 137.742C159.608 137.758 155.147 140.611 149.95 144.095C144.756 147.664 138.722 151.443 136.477 152.572C131.074 155.299 131.652 154.931 118.552 164.072C112.287 168.373 106.504 172.055 105.743 172.177C104.979 172.213 104.146 172.594 103.907 172.946C103.507 173.476 88.9349 166.084 86.2809 163.998C85.4799 163.27 84.6142 162.97 84.3715 163.238C84.1289 163.505 80.7429 162.134 76.8148 160.108C72.8907 158.167 69.4076 156.546 69.0678 156.562C68.728 156.579 67.9351 156.021 67.3079 155.369C66.6808 154.718 65.718 154.168 65.0384 154.201C64.0191 154.25 52.4895 148.16 52.457 147.481C52.4529 147.396 57.4155 144.349 63.4621 140.824C77.7878 132.392 98.8194 119.977 100.882 118.601C104.267 116.396 136.547 98.8459 137.311 98.8093C137.736 98.789 141.397 100.572 145.588 102.756ZM160.697 105.353C162.627 106.538 165.867 108.426 167.967 109.603C169.978 110.699 171.661 112.066 171.681 112.49C171.701 112.915 172.219 113.061 172.886 112.773C173.554 112.486 175.815 113.485 177.927 114.916C180.124 116.344 183.028 118.333 184.432 119.203C186.459 120.638 186.742 121.221 186.018 122.107C185.21 122.997 183.737 122.471 178.733 119.305C175.225 117.174 171.803 115.039 171.018 114.651C156.329 106.584 154.217 105.152 154.815 103.421C155.264 102.122 155.438 102.199 160.697 105.353ZM102.782 113.828C102.859 115.442 101.622 116.267 85.5529 125.635C79.9229 128.969 75.1058 131.498 74.9237 131.251C73.5036 130.042 76.3711 127.692 86.6442 121.751C92.9375 118.045 98.8101 114.443 99.712 113.719C101.928 111.995 102.697 112.044 102.782 113.828ZM187.564 125.949C186.865 127.345 183.492 129.805 177.773 133.058C172.964 135.757 166.756 139.46 163.945 141.212C159.237 144.247 158.731 144.356 158.658 142.827C158.573 141.043 159.232 140.586 174.274 131.097C180.304 127.233 183.548 125.63 184.923 125.905C186.383 126.176 186.796 125.901 186.739 124.711C186.646 122.758 187.689 121.431 188.179 122.769C188.462 123.352 188.102 124.731 187.564 125.949ZM157 143.758C157.081 145.456 152.402 149.086 140.175 156.907C133.728 160.962 133.563 161.055 133.049 159.207C132.547 157.613 133.525 156.715 140.967 152.102C145.679 149.152 150.88 145.753 152.522 144.483C156.223 141.751 156.898 141.634 157 143.758ZM56.418 151.974C59.3915 153.62 66.4548 157.113 72.1993 159.733C77.8588 162.357 83.0896 164.916 83.7086 165.398C84.7686 166.198 85.5176 169.398 84.5832 169.443C83.5638 169.491 68.1061 161.376 66.5929 160.001C65.7919 159.273 64.9181 158.804 64.6713 158.986C64.1052 159.609 48.1256 151.264 47.644 150.095C46.8669 148.089 51.0779 148.909 56.418 151.974ZM130.072 162.84C128.103 164.381 106.477 178.612 106.052 178.632C105.882 178.641 105.837 177.706 105.955 176.594C106.043 174.887 108.498 172.811 118.48 166.118C130.031 158.414 130.86 157.949 131.2 159.721C131.512 160.898 131.059 162.111 130.072 162.84ZM95.8166 171.119C102.37 174.637 104.049 175.919 104.122 177.448C104.212 179.316 103.694 179.171 95.4897 174.966C88.5113 171.468 86.7515 170.275 86.6743 168.661C86.6255 167.642 86.8397 166.78 87.0946 166.768C87.3494 166.756 91.2735 168.697 95.8166 171.119Z" fill="white"/>
<path d="M122.112 110.346C121.069 111.673 121.243 111.75 123.087 111.15C124.26 110.754 126.457 110.393 127.986 110.32C129.43 110.251 130.684 109.765 130.663 109.341C130.594 107.897 123.309 108.671 122.112 110.346Z" fill="#A5FF97"/>
<g filter="url(#filter18_f_939_4532)">
<path d="M122.112 110.346C121.069 111.673 121.243 111.75 123.087 111.15C124.26 110.754 126.457 110.393 127.986 110.32C129.43 110.251 130.684 109.765 130.663 109.341C130.594 107.897 123.309 108.671 122.112 110.346Z" fill="#A5FF97"/>
</g>
<path d="M131.619 111.511C128.36 114.561 128.889 114.962 133.031 112.55C137.088 110.142 144.243 110.226 147.937 112.688C149.26 113.647 150.554 114.011 150.789 113.574C151.885 111.563 144.425 108.685 138.819 108.953C135.081 109.131 133.742 109.621 131.619 111.511Z" fill="#A5FF97"/>
<g filter="url(#filter19_f_939_4532)">
<path d="M131.619 111.511C128.36 114.561 128.889 114.962 133.031 112.55C137.088 110.142 144.243 110.226 147.937 112.688C149.26 113.647 150.554 114.011 150.789 113.574C151.885 111.563 144.425 108.685 138.819 108.953C135.081 109.131 133.742 109.621 131.619 111.511Z" fill="#A5FF97"/>
</g>
<path d="M165.332 122.158C164.013 123.072 164.187 123.149 167.771 123.318C169.049 123.342 171.274 123.577 172.653 123.936C174.975 124.421 175.056 124.332 173.895 123.196C172.2 121.574 166.978 120.973 165.332 122.158Z" fill="#A5FF97"/>
<g filter="url(#filter20_f_939_4532)">
<path d="M165.332 122.158C164.013 123.072 164.187 123.149 167.771 123.318C169.049 123.342 171.274 123.577 172.653 123.936C174.975 124.421 175.056 124.332 173.895 123.196C172.2 121.574 166.978 120.973 165.332 122.158Z" fill="#A5FF97"/>
</g>
<path d="M153.859 124.328C150.033 126.214 151.174 126.926 156.586 126.156C160.736 125.702 162.528 125.787 164.195 126.814C166.557 128.148 168.187 128.411 168.135 127.307C168.029 125.098 157.022 122.815 153.859 124.328Z" fill="#A5FF97"/>
<g filter="url(#filter21_f_939_4532)">
<path d="M153.859 124.328C150.033 126.214 151.174 126.926 156.586 126.156C160.736 125.702 162.528 125.787 164.195 126.814C166.557 128.148 168.187 128.411 168.135 127.307C168.029 125.098 157.022 122.815 153.859 124.328Z" fill="#A5FF97"/>
</g>
<path d="M104.635 129.403C101.954 130.298 100.494 131.815 101.469 132.62C101.736 132.862 102.492 132.656 103.062 132.118C104.45 130.86 108.26 130.422 112.119 131.004C114.866 131.468 115.036 131.46 113.785 130.243C112.005 128.625 107.984 128.221 104.635 129.403Z" fill="#A5FF97"/>
<g filter="url(#filter22_f_939_4532)">
<path d="M104.635 129.403C101.954 130.298 100.494 131.815 101.469 132.62C101.736 132.862 102.492 132.656 103.062 132.118C104.45 130.86 108.26 130.422 112.119 131.004C114.866 131.468 115.036 131.46 113.785 130.243C112.005 128.625 107.984 128.221 104.635 129.403Z" fill="#A5FF97"/>
</g>
<path d="M115.845 132.36C114.361 133.368 113.147 134.703 113.18 135.383C113.253 136.912 113.253 136.912 116.533 134.286C118.337 132.837 120.424 131.971 122.463 131.874C124.331 131.784 126.75 132.52 128.765 133.701C132.184 135.751 133.648 136.106 133.587 134.832C133.567 134.407 131.718 133.134 129.537 132.046C124.655 129.64 119.635 129.71 115.845 132.36Z" fill="#A5FF97"/>
<g filter="url(#filter23_f_939_4532)">
<path d="M115.845 132.36C114.361 133.368 113.147 134.703 113.18 135.383C113.253 136.912 113.253 136.912 116.533 134.286C118.337 132.837 120.424 131.971 122.463 131.874C124.331 131.784 126.75 132.52 128.765 133.701C132.184 135.751 133.648 136.106 133.587 134.832C133.567 134.407 131.718 133.134 129.537 132.046C124.655 129.64 119.635 129.71 115.845 132.36Z" fill="#A5FF97"/>
</g>
<path d="M84.561 140.496C79.7439 143.026 80.7149 143.745 86.1469 141.613C91.4981 139.569 95.438 140.061 99.5121 143.357C102.251 145.44 102.599 145.593 102.53 144.149C102.424 141.941 94.928 138.298 91.1055 138.481C89.4915 138.558 86.555 139.465 84.561 140.496Z" fill="#A5FF97"/>
<g filter="url(#filter24_f_939_4532)">
<path d="M84.561 140.496C79.7439 143.026 80.7149 143.745 86.1469 141.613C91.4981 139.569 95.438 140.061 99.5121 143.357C102.251 145.44 102.599 145.593 102.53 144.149C102.424 141.941 94.928 138.298 91.1055 138.481C89.4915 138.558 86.555 139.465 84.561 140.496Z" fill="#A5FF97"/>
</g>
<path d="M69.2713 146.509C67.9325 146.999 66.9497 147.812 66.9741 148.322C66.9985 148.831 67.5972 148.888 68.5153 148.504C71.6741 146.905 79.3191 146.539 82.1024 147.768C85.2335 149.151 85.7473 149.212 85.6985 148.192C85.5685 145.474 74.3595 144.308 69.2713 146.509Z" fill="#A5FF97"/>
<g filter="url(#filter25_f_939_4532)">
<path d="M69.2713 146.509C67.9325 146.999 66.9497 147.812 66.9741 148.322C66.9985 148.831 67.5972 148.888 68.5153 148.504C71.6741 146.905 79.3191 146.539 82.1024 147.768C85.2335 149.151 85.7473 149.212 85.6985 148.192C85.5685 145.474 74.3595 144.308 69.2713 146.509Z" fill="#A5FF97"/>
</g>
<path d="M99.3069 151.453C95.9497 152.465 98.2111 153.463 103.393 153.216C108.659 152.964 110.483 151.94 107.458 150.978C105.985 150.452 101.572 150.749 99.3069 151.453Z" fill="#A5FF97"/>
<g filter="url(#filter26_f_939_4532)">
<path d="M99.3069 151.453C95.9497 152.465 98.2111 153.463 103.393 153.216C108.659 152.964 110.483 151.94 107.458 150.978C105.985 150.452 101.572 150.749 99.3069 151.453Z" fill="#A5FF97"/>
</g>
<path d="M112.718 152.432C109.652 154.196 108.516 155.357 109.313 156C109.584 156.328 110.919 155.753 112.152 154.843C115.445 152.471 118.494 152.155 122.075 154.027C125.736 155.81 126.08 155.879 126.023 154.69C125.97 153.586 119.283 150.841 116.9 150.869C115.966 150.914 114.126 151.598 112.718 152.432Z" fill="#A5FF97"/>
<g filter="url(#filter27_f_939_4532)">
<path d="M112.718 152.432C109.652 154.196 108.516 155.357 109.313 156C109.584 156.328 110.919 155.753 112.152 154.843C115.445 152.471 118.494 152.155 122.075 154.027C125.736 155.81 126.08 155.879 126.023 154.69C125.97 153.586 119.283 150.841 116.9 150.869C115.966 150.914 114.126 151.598 112.718 152.432Z" fill="#A5FF97"/>
</g>
<defs>
<filter id="filter0_f_939_4532" x="38.5376" y="69.6235" width="9.01076" height="12.7842" filterUnits="userSpaceOnUse" color-interpolation-filters="sRGB">
<feFlood flood-opacity="0" result="BackgroundImageFix"/>
<feBlend mode="normal" in="SourceGraphic" in2="BackgroundImageFix" result="shape"/>
<feGaussianBlur stdDeviation="1.00074" result="effect1_foregroundBlur_939_4532"/>
</filter>
<filter id="filter1_f_939_4532" x="64.5962" y="78.6274" width="8.08889" height="6.55764" filterUnits="userSpaceOnUse" color-interpolation-filters="sRGB">
<feFlood flood-opacity="0" result="BackgroundImageFix"/>
<feBlend mode="normal" in="SourceGraphic" in2="BackgroundImageFix" result="shape"/>
<feGaussianBlur stdDeviation="1.00074" result="effect1_foregroundBlur_939_4532"/>
</filter>
<filter id="filter2_f_939_4532" x="92.186" y="81.1821" width="10.3897" height="7.34279" filterUnits="userSpaceOnUse" color-interpolation-filters="sRGB">
<feFlood flood-opacity="0" result="BackgroundImageFix"/>
<feBlend mode="normal" in="SourceGraphic" in2="BackgroundImageFix" result="shape"/>
<feGaussianBlur stdDeviation="1.00074" result="effect1_foregroundBlur_939_4532"/>
</filter>
<filter id="filter3_f_939_4532" x="29.5962" y="86.3267" width="9.91701" height="7.58498" filterUnits="userSpaceOnUse" color-interpolation-filters="sRGB">
<feFlood flood-opacity="0" result="BackgroundImageFix"/>
<feBlend mode="normal" in="SourceGraphic" in2="BackgroundImageFix" result="shape"/>
<feGaussianBlur stdDeviation="1.00074" result="effect1_foregroundBlur_939_4532"/>
</filter>
<filter id="filter4_f_939_4532" x="87.0727" y="90.1548" width="11.1319" height="6.52639" filterUnits="userSpaceOnUse" color-interpolation-filters="sRGB">
<feFlood flood-opacity="0" result="BackgroundImageFix"/>
<feBlend mode="normal" in="SourceGraphic" in2="BackgroundImageFix" result="shape"/>
<feGaussianBlur stdDeviation="1.00074" result="effect1_foregroundBlur_939_4532"/>
</filter>
<filter id="filter5_f_939_4532" x="15.9204" y="91.4595" width="11.1709" height="7.83107" filterUnits="userSpaceOnUse" color-interpolation-filters="sRGB">
<feFlood flood-opacity="0" result="BackgroundImageFix"/>
<feBlend mode="normal" in="SourceGraphic" in2="BackgroundImageFix" result="shape"/>
<feGaussianBlur stdDeviation="1.00074" result="effect1_foregroundBlur_939_4532"/>
</filter>
<filter id="filter6_f_939_4532" x="54.6938" y="92.7524" width="11.374" height="7.40529" filterUnits="userSpaceOnUse" color-interpolation-filters="sRGB">
<feFlood flood-opacity="0" result="BackgroundImageFix"/>
<feBlend mode="normal" in="SourceGraphic" in2="BackgroundImageFix" result="shape"/>
<feGaussianBlur stdDeviation="1.00074" result="effect1_foregroundBlur_939_4532"/>
</filter>
<filter id="filter7_f_939_4532" x="37.9634" y="97.7993" width="10.8779" height="8.19045" filterUnits="userSpaceOnUse" color-interpolation-filters="sRGB">
<feFlood flood-opacity="0" result="BackgroundImageFix"/>
<feBlend mode="normal" in="SourceGraphic" in2="BackgroundImageFix" result="shape"/>
<feGaussianBlur stdDeviation="1.00074" result="effect1_foregroundBlur_939_4532"/>
</filter>
<filter id="filter8_f_939_4532" x="71.0024" y="97.7876" width="11.1319" height="6.55764" filterUnits="userSpaceOnUse" color-interpolation-filters="sRGB">
<feFlood flood-opacity="0" result="BackgroundImageFix"/>
<feBlend mode="normal" in="SourceGraphic" in2="BackgroundImageFix" result="shape"/>
<feGaussianBlur stdDeviation="1.00074" result="effect1_foregroundBlur_939_4532"/>
</filter>
<filter id="filter9_f_939_4532" x="52.5884" y="104.174" width="10.3897" height="6.55764" filterUnits="userSpaceOnUse" color-interpolation-filters="sRGB">
<feFlood flood-opacity="0" result="BackgroundImageFix"/>
<feBlend mode="normal" in="SourceGraphic" in2="BackgroundImageFix" result="shape"/>
<feGaussianBlur stdDeviation="1.00074" result="effect1_foregroundBlur_939_4532"/>
</filter>
<filter id="filter10_f_939_4532" x="115.463" y="16.1665" width="23.8428" height="23.7256" filterUnits="userSpaceOnUse" color-interpolation-filters="sRGB">
<feFlood flood-opacity="0" result="BackgroundImageFix"/>
<feBlend mode="normal" in="SourceGraphic" in2="BackgroundImageFix" result="shape"/>
<feGaussianBlur stdDeviation="1.00074" result="effect1_foregroundBlur_939_4532"/>
</filter>
<filter id="filter11_f_939_4532" x="150.291" y="34.147" width="25.3975" height="23.6358" filterUnits="userSpaceOnUse" color-interpolation-filters="sRGB">
<feFlood flood-opacity="0" result="BackgroundImageFix"/>
<feBlend mode="normal" in="SourceGraphic" in2="BackgroundImageFix" result="shape"/>
<feGaussianBlur stdDeviation="1.00074" result="effect1_foregroundBlur_939_4532"/>
</filter>
<filter id="filter12_f_939_4532" x="181.088" y="54.0962" width="25.5694" height="21.3779" filterUnits="userSpaceOnUse" color-interpolation-filters="sRGB">
<feFlood flood-opacity="0" result="BackgroundImageFix"/>
<feBlend mode="normal" in="SourceGraphic" in2="BackgroundImageFix" result="shape"/>
<feGaussianBlur stdDeviation="1.00074" result="effect1_foregroundBlur_939_4532"/>
</filter>
<filter id="filter13_f_939_4532" x="98.7681" y="42.2368" width="15.2217" height="11.8389" filterUnits="userSpaceOnUse" color-interpolation-filters="sRGB">
<feFlood flood-opacity="0" result="BackgroundImageFix"/>
<feBlend mode="normal" in="SourceGraphic" in2="BackgroundImageFix" result="shape"/>
<feGaussianBlur stdDeviation="1.00074" result="effect1_foregroundBlur_939_4532"/>
</filter>
<filter id="filter14_f_939_4532" x="120.186" y="54.0415" width="21.8233" height="16.6631" filterUnits="userSpaceOnUse" color-interpolation-filters="sRGB">
<feFlood flood-opacity="0" result="BackgroundImageFix"/>
<feBlend mode="normal" in="SourceGraphic" in2="BackgroundImageFix" result="shape"/>
<feGaussianBlur stdDeviation="1.00074" result="effect1_foregroundBlur_939_4532"/>
</filter>
<filter id="filter15_f_939_4532" x="150.706" y="72.1509" width="20.8037" height="16.1748" filterUnits="userSpaceOnUse" color-interpolation-filters="sRGB">
<feFlood flood-opacity="0" result="BackgroundImageFix"/>
<feBlend mode="normal" in="SourceGraphic" in2="BackgroundImageFix" result="shape"/>
<feGaussianBlur stdDeviation="1.00074" result="effect1_foregroundBlur_939_4532"/>
</filter>
<filter id="filter16_f_939_4532" x="186.041" y="93.354" width="21.7686" height="14.0889" filterUnits="userSpaceOnUse" color-interpolation-filters="sRGB">
<feFlood flood-opacity="0" result="BackgroundImageFix"/>
<feBlend mode="normal" in="SourceGraphic" in2="BackgroundImageFix" result="shape"/>
<feGaussianBlur stdDeviation="1.00074" result="effect1_foregroundBlur_939_4532"/>
</filter>
<filter id="filter17_f_939_4532" x="242.081" y="78.061" width="10.0069" height="8.00685" filterUnits="userSpaceOnUse" color-interpolation-filters="sRGB">
<feFlood flood-opacity="0" result="BackgroundImageFix"/>
<feBlend mode="normal" in="SourceGraphic" in2="BackgroundImageFix" result="shape"/>
<feGaussianBlur stdDeviation="1.00074" result="effect1_foregroundBlur_939_4532"/>
</filter>
<filter id="filter18_f_939_4532" x="119.471" y="106.581" width="13.1944" height="6.92873" filterUnits="userSpaceOnUse" color-interpolation-filters="sRGB">
<feFlood flood-opacity="0" result="BackgroundImageFix"/>
<feBlend mode="normal" in="SourceGraphic" in2="BackgroundImageFix" result="shape"/>
<feGaussianBlur stdDeviation="1.00074" result="effect1_foregroundBlur_939_4532"/>
</filter>
<filter id="filter19_f_939_4532" x="127.499" y="106.932" width="25.4014" height="9.18264" filterUnits="userSpaceOnUse" color-interpolation-filters="sRGB">
<feFlood flood-opacity="0" result="BackgroundImageFix"/>
<feBlend mode="normal" in="SourceGraphic" in2="BackgroundImageFix" result="shape"/>
<feGaussianBlur stdDeviation="1.00074" result="effect1_foregroundBlur_939_4532"/>
</filter>
<filter id="filter20_f_939_4532" x="162.577" y="119.534" width="14.0537" height="6.68264" filterUnits="userSpaceOnUse" color-interpolation-filters="sRGB">
<feFlood flood-opacity="0" result="BackgroundImageFix"/>
<feBlend mode="normal" in="SourceGraphic" in2="BackgroundImageFix" result="shape"/>
<feGaussianBlur stdDeviation="1.00074" result="effect1_foregroundBlur_939_4532"/>
</filter>
<filter id="filter21_f_939_4532" x="149.604" y="121.838" width="20.5342" height="8.1592" filterUnits="userSpaceOnUse" color-interpolation-filters="sRGB">
<feFlood flood-opacity="0" result="BackgroundImageFix"/>
<feBlend mode="normal" in="SourceGraphic" in2="BackgroundImageFix" result="shape"/>
<feGaussianBlur stdDeviation="1.00074" result="effect1_foregroundBlur_939_4532"/>
</filter>
<filter id="filter22_f_939_4532" x="99.1626" y="126.721" width="17.3701" height="7.99904" filterUnits="userSpaceOnUse" color-interpolation-filters="sRGB">
<feFlood flood-opacity="0" result="BackgroundImageFix"/>
<feBlend mode="normal" in="SourceGraphic" in2="BackgroundImageFix" result="shape"/>
<feGaussianBlur stdDeviation="1.00074" result="effect1_foregroundBlur_939_4532"/>
</filter>
<filter id="filter23_f_939_4532" x="111.178" y="128.303" width="24.4131" height="10.1162" filterUnits="userSpaceOnUse" color-interpolation-filters="sRGB">
<feFlood flood-opacity="0" result="BackgroundImageFix"/>
<feBlend mode="normal" in="SourceGraphic" in2="BackgroundImageFix" result="shape"/>
<feGaussianBlur stdDeviation="1.00074" result="effect1_foregroundBlur_939_4532"/>
</filter>
<filter id="filter24_f_939_4532" x="79.4477" y="136.471" width="25.0928" height="10.6319" filterUnits="userSpaceOnUse" color-interpolation-filters="sRGB">
<feFlood flood-opacity="0" result="BackgroundImageFix"/>
<feBlend mode="normal" in="SourceGraphic" in2="BackgroundImageFix" result="shape"/>
<feGaussianBlur stdDeviation="1.00074" result="effect1_foregroundBlur_939_4532"/>
</filter>
<filter id="filter25_f_939_4532" x="64.9712" y="143.354" width="22.7334" height="7.5381" filterUnits="userSpaceOnUse" color-interpolation-filters="sRGB">
<feFlood flood-opacity="0" result="BackgroundImageFix"/>
<feBlend mode="normal" in="SourceGraphic" in2="BackgroundImageFix" result="shape"/>
<feGaussianBlur stdDeviation="1.00074" result="effect1_foregroundBlur_939_4532"/>
</filter>
<filter id="filter26_f_939_4532" x="95.7212" y="148.709" width="15.1983" height="6.54592" filterUnits="userSpaceOnUse" color-interpolation-filters="sRGB">
<feFlood flood-opacity="0" result="BackgroundImageFix"/>
<feBlend mode="normal" in="SourceGraphic" in2="BackgroundImageFix" result="shape"/>
<feGaussianBlur stdDeviation="1.00074" result="effect1_foregroundBlur_939_4532"/>
</filter>
<filter id="filter27_f_939_4532" x="107.065" y="148.866" width="20.9639" height="9.22951" filterUnits="userSpaceOnUse" color-interpolation-filters="sRGB">
<feFlood flood-opacity="0" result="BackgroundImageFix"/>
<feBlend mode="normal" in="SourceGraphic" in2="BackgroundImageFix" result="shape"/>
<feGaussianBlur stdDeviation="1.00074" result="effect1_foregroundBlur_939_4532"/>
</filter>
</defs>
</svg>
