<svg width="100%" height="100%" viewBox="0 0 237 182" fill="none" xmlns="http://www.w3.org/2000/svg">
<path d="M72.5002 1.83765C71.2236 3.27374 68.6706 7.90113 66.9154 12.0498C64.6815 17.3155 62.4476 19.8685 59.5754 20.6663C57.501 21.145 53.831 24.1768 51.5971 27.3681C49.3632 30.7189 46.0123 34.2294 44.2571 35.3463C42.5019 36.4633 41.0658 38.2185 41.0658 39.495C41.0658 40.612 39.7893 42.048 38.3532 42.6863C36.7576 43.165 27.6624 48.1115 17.9289 53.6963C-9.03759 69.0145 -8.23977 70.6102 38.6724 95.981C51.9163 103.002 64.0432 110.023 65.7984 111.299C68.6706 113.374 69.9471 113.055 80.7975 107.151C87.3397 103.481 97.0732 97.8958 102.339 94.545C121.008 83.0563 146.219 69.1741 148.613 69.1741C150.527 69.1741 151.166 67.5785 151.166 63.5893C151.166 59.1215 150.368 57.6854 147.496 56.5685C143.507 54.9728 120.529 40.612 119.253 38.8568C117.976 36.942 111.274 35.3463 111.274 36.7824C111.274 37.4207 112.711 39.0163 114.466 40.1333C117.657 42.048 118.774 45.2394 116.381 45.2394C115.742 45.2394 112.711 43.165 109.679 40.612C104.254 35.9846 104.254 35.825 107.604 34.5485C111.115 33.272 111.115 33.1124 104.094 21.3046C100.264 14.7624 96.4349 8.37982 95.6371 7.1033C94.5201 5.18852 92.7649 5.50765 85.2654 9.01808C77.7658 12.3689 76.1701 12.6881 76.1701 10.7733C76.1701 9.33721 77.6062 7.90113 79.3615 7.42243C83.6697 6.30548 83.3506 3.11418 78.7232 0.880264C75.6915 -0.555817 74.4149 -0.236687 72.5002 1.83765ZM75.6915 5.66722C75.2128 6.94374 74.7341 6.46504 74.7341 4.70983C74.5745 2.95461 75.0532 1.99722 75.5319 2.63548C76.0106 3.11418 76.1701 4.55026 75.6915 5.66722ZM73.7767 9.97548C74.5745 11.4116 69.9471 17.3155 68.8302 16.1985C68.511 15.8794 68.6706 13.9646 69.3088 12.0498C70.2662 8.37982 72.181 7.42243 73.7767 9.97548ZM96.754 15.2411C97.871 18.1133 100.424 23.2194 102.658 26.5702C106.966 33.272 106.647 36.1441 102.179 32.155C97.871 28.3255 82.3932 20.9855 81.2762 22.1024C80.638 22.7407 79.9997 28.9637 79.8401 35.9846C79.6806 43.0054 79.3615 48.9094 79.0423 49.0689C78.7232 49.2285 76.4893 50.6646 74.0958 52.2602C71.5428 53.8559 69.3088 54.8133 69.1493 54.4941C68.6706 53.3772 64.5219 42.5267 61.6497 34.2294C59.8945 29.4424 59.0967 25.1342 59.5754 24.6555C61.3306 22.7407 89.7332 10.2946 92.4458 10.2946C93.8819 10.135 95.7967 12.2094 96.754 15.2411ZM92.6054 29.4424C95.7967 30.5594 98.5093 31.9955 98.5093 32.6337C98.5093 33.272 96.1158 37.4207 93.084 41.8885C90.0523 46.3563 88.2971 50.3454 89.0949 50.8241C90.6906 51.9411 91.1693 62.7915 89.414 62.7915C88.7758 62.7915 86.7014 61.3554 84.9462 59.6002L81.4358 56.2493L75.851 59.6002C68.6706 63.7489 62.4476 62.9511 52.2354 56.4089C44.5763 51.4624 44.0976 50.8241 45.2145 46.1967C46.1719 41.8885 55.1076 30.8785 57.8202 30.8785C58.2989 30.8785 58.618 32.6337 58.618 34.8676C58.618 37.1015 60.0541 41.7289 61.8093 45.2394C63.5645 48.7498 65.0006 52.8985 65.0006 54.6537C65.0006 59.9193 67.7132 60.0789 76.1701 55.292C83.9888 50.8241 87.4993 46.6754 84.308 45.5585C83.3506 45.2394 82.5527 40.7715 82.5527 35.3463C82.5527 28.3255 83.0314 26.0915 84.6271 26.7298C85.5845 27.0489 89.2545 28.3255 92.6054 29.4424ZM104.413 42.3672C108.243 45.8776 109.36 53.8559 106.488 55.6111C105.53 56.2493 104.892 54.8133 104.892 52.4198C104.892 48.4307 101.062 45.2394 98.988 47.4733C98.3497 47.952 97.5519 51.4624 97.0732 55.1324C96.5945 58.8024 95.318 61.9937 94.3606 62.3128C91.8075 63.1106 93.5627 46.9946 96.5945 42.3672C99.4667 38.0589 99.7858 38.0589 104.413 42.3672ZM42.6615 46.3563C42.6615 48.7498 39.6297 52.2602 38.5128 51.3028C37.8745 50.6646 35.4811 51.4624 33.2471 53.058C22.5563 60.398 7.23804 67.8976 5.64239 66.3019C4.685 65.3446 7.23804 63.2702 12.6633 60.2385C42.6615 44.282 42.6615 44.282 42.6615 46.3563ZM128.507 55.7706C134.731 58.9619 139.996 62.1533 139.996 62.6319C139.996 63.7489 123.242 73.6419 108.881 81.1415C103.615 84.0137 93.8819 89.2793 87.0206 92.9493C80.3188 96.6193 73.298 99.9702 71.2236 100.289C67.0749 101.087 11.8654 71.408 13.1419 69.0145C13.6206 68.2167 20.1628 64.3872 27.5028 60.398L41.0658 52.8985L46.0123 56.5685C48.725 58.4833 54.6289 61.9937 59.0967 64.5467L67.0749 68.855L74.0958 64.8659C80.638 61.1959 81.4358 61.1959 83.9888 63.4298C87.978 66.9402 93.2436 66.4615 102.498 61.3554C109.679 57.5259 110.477 56.4089 110.955 50.9837C111.434 45.3989 111.753 45.0798 114.147 47.3137C115.583 48.7498 122.125 52.4198 128.507 55.7706ZM133.614 51.9411C139.837 55.4515 144.783 59.1215 144.783 59.9193C144.783 61.8341 121.965 49.2285 121.167 46.9946C120.21 44.282 121.965 44.9202 133.614 51.9411ZM103.296 53.8559C103.296 55.1324 102.658 56.728 101.701 57.2067C100.903 57.6854 100.105 56.728 100.105 54.9728C100.105 53.058 100.903 51.622 101.701 51.622C102.658 51.622 103.296 52.5793 103.296 53.8559ZM133.454 72.8441C126.114 76.6737 118.136 80.9819 115.742 82.5776C113.189 84.1732 111.274 84.8115 111.274 84.1732C111.434 82.0989 140.156 66.1424 143.826 65.9828C145.581 65.9828 140.954 69.0145 133.454 72.8441ZM2.77022 69.9719C2.77022 70.4506 2.45109 70.7698 1.97239 70.7698C1.4937 70.7698 1.17457 70.4506 1.17457 69.9719C1.17457 69.4932 1.4937 69.1741 1.97239 69.1741C2.45109 69.1741 2.77022 69.4932 2.77022 69.9719ZM28.1411 82.8967C29.4176 84.1732 30.0558 85.4497 29.5772 86.088C28.1411 87.3645 5.96152 73.6419 6.91891 72.0463C7.71674 70.7698 24.1519 79.2267 28.1411 82.8967ZM68.0323 106.831C68.511 109.225 68.0323 109.225 64.0432 106.353C61.4902 104.598 53.5119 100.13 46.3315 96.3002C38.9915 92.4706 33.0876 88.4815 33.0876 87.3645C33.0876 84.4924 67.2345 103.481 68.0323 106.831ZM105.849 88.1624C105.211 89.1197 99.6262 92.7897 93.2436 96.4597C86.861 100.13 79.521 104.438 76.6488 106.193C73.6171 107.948 71.2236 108.587 70.7449 107.629C70.1067 106.831 73.1384 104.119 77.2871 101.725C81.5954 99.3319 89.5736 94.7045 95.318 91.5132C105.53 85.6093 107.924 84.8115 105.849 88.1624Z" fill="white"/>
<path d="M50.6406 46.6779C50.6406 49.3905 50.9598 51.6245 51.2789 51.6245C51.598 51.6245 53.1937 52.1032 54.6298 52.5818C56.8637 53.5392 57.1828 52.7414 56.7041 48.2736C56.0658 40.9336 50.6406 39.4975 50.6406 46.6779Z" fill="#FDFF86"/>
<g filter="url(#filter0_f_939_4469)">
<path d="M50.6406 46.6779C50.6406 49.3905 50.9598 51.6245 51.2789 51.6245C51.598 51.6245 53.1937 52.1032 54.6298 52.5818C56.8637 53.5392 57.1828 52.7414 56.7041 48.2736C56.0658 40.9336 50.6406 39.4975 50.6406 46.6779Z" fill="#FDFF86"/>
</g>
<path d="M83.3542 54.8184C83.8329 55.6162 85.4286 56.4141 86.7051 56.4141C87.9816 56.4141 88.6199 55.6162 88.1412 54.8184C87.6625 53.861 86.0669 53.2228 84.7903 53.2228C83.5138 53.2228 82.8756 53.861 83.3542 54.8184Z" fill="#FDFF86"/>
<g filter="url(#filter1_f_939_4469)">
<path d="M83.3542 54.8184C83.8329 55.6162 85.4286 56.4141 86.7051 56.4141C87.9816 56.4141 88.6199 55.6162 88.1412 54.8184C87.6625 53.861 86.0669 53.2228 84.7903 53.2228C83.5138 53.2228 82.8756 53.861 83.3542 54.8184Z" fill="#FDFF86"/>
</g>
<path d="M117.66 58.3242C117.66 59.4411 119.415 60.5581 121.649 60.5581C124.043 60.7177 125.638 60.0794 125.638 58.6433C125.638 57.3668 124.043 56.4094 121.649 56.4094C119.415 56.4094 117.66 57.3668 117.66 58.3242Z" fill="#A5FF97"/>
<g filter="url(#filter2_f_939_4469)">
<path d="M117.66 58.3242C117.66 59.4411 119.415 60.5581 121.649 60.5581C124.043 60.7177 125.638 60.0794 125.638 58.6433C125.638 57.3668 124.043 56.4094 121.649 56.4094C119.415 56.4094 117.66 57.3668 117.66 58.3242Z" fill="#A5FF97"/>
</g>
<path d="M39.4727 64.3902C39.4727 65.188 40.1109 65.9859 40.9087 65.9859C41.7066 65.9859 43.6213 66.4646 44.8979 66.9433C46.8126 67.7411 47.2913 67.2624 46.4935 65.3476C45.3766 62.635 39.4727 61.8372 39.4727 64.3902Z" fill="#A5FF97"/>
<g filter="url(#filter3_f_939_4469)">
<path d="M39.4727 64.3902C39.4727 65.188 40.1109 65.9859 40.9087 65.9859C41.7066 65.9859 43.6213 66.4646 44.8979 66.9433C46.8126 67.7411 47.2913 67.2624 46.4935 65.3476C45.3766 62.635 39.4727 61.8372 39.4727 64.3902Z" fill="#A5FF97"/>
</g>
<path d="M111.273 69.1778C111.273 69.9756 113.667 70.7734 116.539 70.7734C120.369 70.7734 121.007 70.2947 119.252 69.1778C116.06 67.1034 111.273 67.1034 111.273 69.1778Z" fill="#A5FF97"/>
<g filter="url(#filter4_f_939_4469)">
<path d="M111.273 69.1778C111.273 69.9756 113.667 70.7734 116.539 70.7734C120.369 70.7734 121.007 70.2947 119.252 69.1778C116.06 67.1034 111.273 67.1034 111.273 69.1778Z" fill="#A5FF97"/>
</g>
<path d="M22.7173 70.771C22.2386 71.5688 22.2386 72.3667 23.0364 72.3667C23.6747 72.3667 26.0682 72.8454 28.3021 73.4836C31.8125 74.441 32.1317 74.2814 30.0573 71.888C27.6638 68.8562 24.1534 68.3775 22.7173 70.771Z" fill="#A5FF97"/>
<g filter="url(#filter5_f_939_4469)">
<path d="M22.7173 70.771C22.2386 71.5688 22.2386 72.3667 23.0364 72.3667C23.6747 72.3667 26.0682 72.8454 28.3021 73.4836C31.8125 74.441 32.1317 74.2814 30.0573 71.888C27.6638 68.8562 24.1534 68.3775 22.7173 70.771Z" fill="#A5FF97"/>
</g>
<path d="M70.9071 72.6918C70.4284 74.1279 72.024 74.9257 75.694 75.0853C80.3214 75.2448 80.8001 74.9257 79.2045 73.0109C76.9705 70.2983 72.024 70.1388 70.9071 72.6918Z" fill="#A5FF97"/>
<g filter="url(#filter6_f_939_4469)">
<path d="M70.9071 72.6918C70.4284 74.1279 72.024 74.9257 75.694 75.0853C80.3214 75.2448 80.8001 74.9257 79.2045 73.0109C76.9705 70.2983 72.024 70.1388 70.9071 72.6918Z" fill="#A5FF97"/>
</g>
<path d="M50.0005 78.4309C49.5218 79.0692 51.277 80.5053 53.9896 81.4627C58.7765 83.3775 59.8935 82.2605 56.7022 79.0692C54.4683 76.8353 51.1174 76.5162 50.0005 78.4309Z" fill="#A5FF97"/>
<g filter="url(#filter7_f_939_4469)">
<path d="M50.0005 78.4309C49.5218 79.0692 51.277 80.5053 53.9896 81.4627C58.7765 83.3775 59.8935 82.2605 56.7022 79.0692C54.4683 76.8353 51.1174 76.5162 50.0005 78.4309Z" fill="#A5FF97"/>
</g>
<path d="M91.3266 78.752C91.8053 79.5498 94.0392 80.3477 96.2731 80.3477C98.3475 80.3477 100.103 79.5498 100.103 78.752C100.103 77.7946 97.8688 77.1564 95.1562 77.1564C92.4435 77.1564 90.6883 77.7946 91.3266 78.752Z" fill="#A5FF97"/>
<g filter="url(#filter8_f_939_4469)">
<path d="M91.3266 78.752C91.8053 79.5498 94.0392 80.3477 96.2731 80.3477C98.3475 80.3477 100.103 79.5498 100.103 78.752C100.103 77.7946 97.8688 77.1564 95.1562 77.1564C92.4435 77.1564 90.6883 77.7946 91.3266 78.752Z" fill="#A5FF97"/>
</g>
<path d="M68.1914 86.7286C68.1914 87.5264 69.9466 88.3242 72.1805 88.3242C74.4144 88.3242 76.1697 87.5264 76.1697 86.7286C76.1697 85.7712 74.4144 85.1329 72.1805 85.1329C69.9466 85.1329 68.1914 85.7712 68.1914 86.7286Z" fill="#A5FF97"/>
<g filter="url(#filter9_f_939_4469)">
<path d="M68.1914 86.7286C68.1914 87.5264 69.9466 88.3242 72.1805 88.3242C74.4144 88.3242 76.1697 87.5264 76.1697 86.7286C76.1697 85.7712 74.4144 85.1329 72.1805 85.1329C69.9466 85.1329 68.1914 85.7712 68.1914 86.7286Z" fill="#A5FF97"/>
</g>
<path d="M157.564 71.6491C151.909 75.1492 142.842 80.2652 137.472 83.0156C132.208 85.7617 127.15 88.3939 126.329 88.9547C125.505 89.4102 120.876 92.2356 116.042 95.1749C111.207 98.1142 104.416 102.188 100.81 104.234C97.2038 106.279 93.5055 108.645 92.6937 109.416C91.3729 110.63 90.9519 110.647 90.4834 109.507C90.1245 108.467 89.4973 108.598 87.7728 110.25C85.8464 112.122 59.0147 128.825 53.641 131.47C51.9872 132.276 51.5964 133.03 52.183 134.482C53.0018 136.451 53.107 136.447 55.2267 134.146C56.4379 132.831 59.7153 130.483 62.6019 128.889C65.3832 127.299 71.6568 123.457 76.588 120.303C85.2132 114.678 89.4939 113.659 87.5443 117.534C86.767 119.147 66.9991 130.711 55.8349 136.124C49.8383 139.006 51.0608 140.537 65.2774 147.861C71.4191 151.088 77.986 154.404 79.8228 155.488C81.7604 156.463 92.5271 161.926 103.719 167.476C115.021 173.127 124.713 178.107 125.366 178.607C126.129 179.208 128.717 178.048 132.604 175.148C135.987 172.795 142.555 168.414 147.389 165.475C161.884 156.446 169.794 151.378 185.404 141.249C199.162 132.251 226.757 116.149 231.02 114.709C232.266 114.236 232.74 112.952 232.615 109.9C232.52 107.584 232.732 105.045 233.009 104.085C233.383 102.91 233.046 102.397 231.783 102.448C230.835 102.487 225.557 99.7517 220.038 96.288C214.629 92.9252 208.9 89.4702 207.287 88.6929C195.981 82.9362 168.776 67.3941 168.421 66.4598C168.185 65.8369 163.531 68.0309 157.564 71.6491ZM165.712 72.3694C165.82 75.0006 165.214 75.658 160.459 77.9615C157.458 79.3497 148.584 84.036 140.854 88.3592C127.553 95.6518 126.619 96.0064 126.528 93.7962C126.446 91.7964 129.421 89.7768 145.801 80.4602C156.414 74.4374 165.17 69.4396 165.38 69.431C165.481 69.3214 165.643 70.6854 165.712 72.3694ZM178.042 74.8158C184.082 78.1527 186.699 80.2594 186.974 81.8295C187.381 84.0268 186.526 83.7456 177.692 79.1527C171.121 75.7321 167.864 73.4408 167.812 72.1778C167.769 71.1253 168.156 70.2661 168.577 70.2488C169.103 70.2272 173.298 72.2692 178.042 74.8158ZM177.581 81.5821C193.1 89.8017 193.963 90.2934 208.232 98.8806C215.798 103.42 221.978 107.595 222 108.121C222.034 108.963 196.545 124.979 195.071 125.039C194.65 125.056 189.101 128.552 182.634 132.823C176.171 137.2 168.665 141.83 165.875 143.21C159.159 146.542 159.878 146.091 143.575 157.302C135.779 162.577 128.584 167.089 127.641 167.233C126.694 167.272 125.659 167.736 125.36 168.17C124.86 168.823 106.873 159.545 103.603 156.938C102.617 156.03 101.547 155.652 101.245 155.98C100.942 156.309 96.7594 154.583 91.911 152.041C87.0668 149.604 82.7662 147.566 82.3452 147.583C81.9242 147.6 80.9467 146.902 80.1755 146.091C79.4042 145.279 78.2162 144.59 77.3742 144.624C76.1112 144.676 61.8816 137.036 61.8471 136.194C61.8428 136.089 68.0154 132.357 75.5347 128.042C93.3503 117.718 119.506 102.518 122.072 100.832C126.284 98.1287 166.415 76.6631 167.362 76.6242C167.888 76.6027 172.408 78.8422 177.581 81.5821ZM196.273 84.9274C198.654 86.4112 202.651 88.7775 205.242 90.2527C207.723 91.627 209.796 93.3342 209.818 93.8605C209.84 94.3867 210.48 94.5713 211.309 94.2211C212.138 93.8708 214.93 95.1269 217.534 96.9178C220.243 98.7044 223.824 101.193 225.556 102.282C228.054 104.077 228.4 104.801 227.496 105.892C226.487 106.988 224.667 106.325 218.495 102.361C214.169 99.6915 209.947 97.018 208.979 96.5306C190.852 86.4147 188.248 84.6238 189.004 82.4843C189.571 80.8796 189.786 80.9763 196.273 84.9274ZM124.466 94.935C124.548 96.9347 123.008 97.9467 103.025 109.414C96.0238 113.497 90.0358 116.589 89.8123 116.281C88.0636 114.772 91.6352 111.884 104.41 104.613C112.236 100.075 119.541 95.664 120.664 94.7746C123.424 92.6583 124.375 92.7247 124.466 94.935ZM229.378 110.665C228.5 112.388 224.301 115.406 217.19 119.388C211.211 122.69 203.49 127.224 199.993 129.371C194.136 133.09 193.509 133.221 193.431 131.326C193.341 129.116 194.161 128.555 212.872 116.929C220.374 112.194 224.406 110.236 226.107 110.588C227.913 110.936 228.427 110.598 228.366 109.125C228.267 106.704 229.571 105.069 230.166 106.732C230.512 107.456 230.055 109.161 229.378 110.665ZM191.37 132.465C191.456 134.57 185.629 139.026 170.419 148.611C162.399 153.579 162.193 153.693 161.572 151.399C160.964 149.42 162.184 148.316 171.44 142.665C177.301 139.051 183.773 134.885 185.817 133.325C190.424 129.974 191.262 129.834 191.37 132.465ZM66.7155 141.793C70.3846 143.856 79.104 148.243 86.1972 151.537C93.1852 154.835 99.6426 158.049 100.405 158.651C101.711 159.651 102.612 163.621 101.454 163.668C100.191 163.72 81.1133 153.538 79.2507 151.822C78.2646 150.913 77.1863 150.325 76.8791 150.548C76.1726 151.315 56.4501 140.843 55.8634 139.391C54.9179 136.9 60.1269 137.951 66.7155 141.793ZM157.855 155.873C155.402 157.766 128.495 175.211 127.969 175.232C127.759 175.241 127.711 174.083 127.865 172.706C127.99 170.593 131.048 168.042 143.468 159.837C157.841 150.392 158.872 149.822 159.278 152.02C159.654 153.48 159.083 154.98 157.855 155.873ZM115.354 165.839C123.442 170.252 125.511 171.854 125.589 173.748C125.684 176.064 125.044 175.879 114.917 170.601C106.303 166.21 104.133 164.718 104.051 162.718C103.999 161.455 104.272 160.39 104.588 160.377C104.903 160.364 109.748 162.801 115.354 165.839Z" fill="white"/>
<path d="M160.205 92.309C156.142 96.0601 156.795 96.5604 161.946 93.6082C166.991 90.6602 175.853 90.824 180.407 93.9055C182.038 95.1038 183.638 95.5653 183.933 95.0261C185.307 92.545 176.091 88.9166 169.145 89.2014C164.514 89.3912 162.851 89.9865 160.205 92.309Z" fill="#A5FF97"/>
<g filter="url(#filter10_f_939_4469)">
<path d="M160.205 92.309C156.142 96.0601 156.795 96.5604 161.946 93.6082C166.991 90.6602 175.853 90.824 180.407 93.9055C182.038 95.1038 183.638 95.5653 183.933 95.0261C185.307 92.545 176.091 88.9166 169.145 89.2014C164.514 89.3912 162.851 89.9865 160.205 92.309Z" fill="#A5FF97"/>
</g>
<path d="M201.875 105.785C200.235 106.906 200.449 107.003 204.887 107.243C206.47 107.283 209.224 107.592 210.93 108.049C213.801 108.669 213.902 108.56 212.474 107.142C210.388 105.119 203.924 104.33 201.875 105.785Z" fill="#A5FF97"/>
<g filter="url(#filter11_f_939_4469)">
<path d="M201.875 105.785C200.235 106.906 200.449 107.003 204.887 107.243C206.47 107.283 209.224 107.592 210.93 108.049C213.801 108.669 213.902 108.56 212.474 107.142C210.388 105.119 203.924 104.33 201.875 105.785Z" fill="#A5FF97"/>
</g>
<path d="M187.641 108.37C182.886 110.674 184.293 111.565 191.003 110.657C196.147 110.13 198.366 110.25 200.422 111.536C203.337 113.209 205.354 113.548 205.298 112.18C205.186 109.443 191.571 106.522 187.641 108.37Z" fill="#A5FF97"/>
<g filter="url(#filter12_f_939_4469)">
<path d="M187.641 108.37C182.886 110.674 184.293 111.565 191.003 110.657C196.147 110.13 198.366 110.25 200.422 111.536C203.337 113.209 205.354 113.548 205.298 112.18C205.186 109.443 191.571 106.522 187.641 108.37Z" fill="#A5FF97"/>
</g>
<path d="M101.671 127.812C95.6831 130.904 96.8797 131.804 103.626 129.208C110.271 126.722 115.147 127.365 120.166 131.482C123.541 134.085 123.97 134.278 123.897 132.489C123.785 129.752 114.531 125.177 109.794 125.371C107.795 125.453 104.15 126.551 101.671 127.812Z" fill="white"/>
<path d="M101.671 127.812C95.6831 130.904 96.8797 131.804 103.626 129.208C110.271 126.722 115.147 127.365 120.166 131.482C123.541 134.085 123.97 134.278 123.897 132.489C123.785 129.752 114.531 125.177 109.794 125.371C107.795 125.453 104.15 126.551 101.671 127.812Z" fill="#A5FF97"/>
<g filter="url(#filter13_f_939_4469)">
<path d="M101.671 127.812C95.6831 130.904 96.8797 131.804 103.626 129.208C110.271 126.722 115.147 127.365 120.166 131.482C123.541 134.085 123.97 134.278 123.897 132.489C123.785 129.752 114.531 125.177 109.794 125.371C107.795 125.453 104.15 126.551 101.671 127.812Z" fill="#A5FF97"/>
</g>
<path d="M82.6743 135.131C81.0118 135.726 79.7877 136.725 79.8136 137.357C79.8395 137.988 80.5805 138.063 81.721 137.595C85.6472 135.641 95.1197 135.253 98.5567 136.799C102.423 138.538 103.059 138.617 103.007 137.354C102.869 133.986 88.9953 132.447 82.6743 135.131Z" fill="#A5FF97"/>
<g filter="url(#filter14_f_939_4469)">
<path d="M82.6743 135.131C81.0118 135.726 79.7877 136.725 79.8136 137.357C79.8395 137.988 80.5805 138.063 81.721 137.595C85.6472 135.641 95.1197 135.253 98.5567 136.799C102.423 138.538 103.059 138.617 103.007 137.354C102.869 133.986 88.9953 132.447 82.6743 135.131Z" fill="#A5FF97"/>
</g>
<path d="M136.446 142.836C132.633 144.996 131.216 146.424 132.198 147.228C132.531 147.636 134.189 146.935 135.725 145.818C139.822 142.909 143.603 142.543 148.022 144.892C152.541 147.132 152.967 147.22 152.906 145.746C152.85 144.378 144.591 140.921 141.639 140.937C140.481 140.984 138.196 141.816 136.446 142.836Z" fill="#A5FF97"/>
<g filter="url(#filter15_f_939_4469)">
<path d="M136.446 142.836C132.633 144.996 131.216 146.424 132.198 147.228C132.531 147.636 134.189 146.935 135.725 145.818C139.822 142.909 143.603 142.543 148.022 144.892C152.541 147.132 152.967 147.22 152.906 145.746C152.85 144.378 144.591 140.921 141.639 140.937C140.481 140.984 138.196 141.816 136.446 142.836Z" fill="#A5FF97"/>
</g>
<defs>
<filter id="filter0_f_939_4469" x="48.1404" y="39.4724" width="11.2544" height="15.9692" filterUnits="userSpaceOnUse" color-interpolation-filters="sRGB">
<feFlood flood-opacity="0" result="BackgroundImageFix"/>
<feBlend mode="normal" in="SourceGraphic" in2="BackgroundImageFix" result="shape"/>
<feGaussianBlur stdDeviation="1.25012" result="effect1_foregroundBlur_939_4469"/>
</filter>
<filter id="filter1_f_939_4469" x="80.6951" y="50.7224" width="10.106" height="8.1919" filterUnits="userSpaceOnUse" color-interpolation-filters="sRGB">
<feFlood flood-opacity="0" result="BackgroundImageFix"/>
<feBlend mode="normal" in="SourceGraphic" in2="BackgroundImageFix" result="shape"/>
<feGaussianBlur stdDeviation="1.25012" result="effect1_foregroundBlur_939_4469"/>
</filter>
<filter id="filter2_f_939_4469" x="115.16" y="53.9099" width="12.9771" height="9.17237" filterUnits="userSpaceOnUse" color-interpolation-filters="sRGB">
<feFlood flood-opacity="0" result="BackgroundImageFix"/>
<feBlend mode="normal" in="SourceGraphic" in2="BackgroundImageFix" result="shape"/>
<feGaussianBlur stdDeviation="1.25012" result="effect1_foregroundBlur_939_4469"/>
</filter>
<filter id="filter3_f_939_4469" x="36.9724" y="60.3396" width="12.3911" height="9.47315" filterUnits="userSpaceOnUse" color-interpolation-filters="sRGB">
<feFlood flood-opacity="0" result="BackgroundImageFix"/>
<feBlend mode="normal" in="SourceGraphic" in2="BackgroundImageFix" result="shape"/>
<feGaussianBlur stdDeviation="1.25012" result="effect1_foregroundBlur_939_4469"/>
</filter>
<filter id="filter4_f_939_4469" x="108.773" y="65.1208" width="13.9067" height="8.15284" filterUnits="userSpaceOnUse" color-interpolation-filters="sRGB">
<feFlood flood-opacity="0" result="BackgroundImageFix"/>
<feBlend mode="normal" in="SourceGraphic" in2="BackgroundImageFix" result="shape"/>
<feGaussianBlur stdDeviation="1.25012" result="effect1_foregroundBlur_939_4469"/>
</filter>
<filter id="filter5_f_939_4469" x="19.8904" y="66.7498" width="13.9575" height="9.78175" filterUnits="userSpaceOnUse" color-interpolation-filters="sRGB">
<feFlood flood-opacity="0" result="BackgroundImageFix"/>
<feBlend mode="normal" in="SourceGraphic" in2="BackgroundImageFix" result="shape"/>
<feGaussianBlur stdDeviation="1.25012" result="effect1_foregroundBlur_939_4469"/>
</filter>
<filter id="filter6_f_939_4469" x="68.324" y="68.3708" width="14.2075" height="9.2505" filterUnits="userSpaceOnUse" color-interpolation-filters="sRGB">
<feFlood flood-opacity="0" result="BackgroundImageFix"/>
<feBlend mode="normal" in="SourceGraphic" in2="BackgroundImageFix" result="shape"/>
<feGaussianBlur stdDeviation="1.25012" result="effect1_foregroundBlur_939_4469"/>
</filter>
<filter id="filter7_f_939_4469" x="47.4216" y="74.6716" width="13.5864" height="10.231" filterUnits="userSpaceOnUse" color-interpolation-filters="sRGB">
<feFlood flood-opacity="0" result="BackgroundImageFix"/>
<feBlend mode="normal" in="SourceGraphic" in2="BackgroundImageFix" result="shape"/>
<feGaussianBlur stdDeviation="1.25012" result="effect1_foregroundBlur_939_4469"/>
</filter>
<filter id="filter8_f_939_4469" x="88.6951" y="74.656" width="13.9067" height="8.1919" filterUnits="userSpaceOnUse" color-interpolation-filters="sRGB">
<feFlood flood-opacity="0" result="BackgroundImageFix"/>
<feBlend mode="normal" in="SourceGraphic" in2="BackgroundImageFix" result="shape"/>
<feGaussianBlur stdDeviation="1.25012" result="effect1_foregroundBlur_939_4469"/>
</filter>
<filter id="filter9_f_939_4469" x="65.6912" y="82.6326" width="12.9771" height="8.1919" filterUnits="userSpaceOnUse" color-interpolation-filters="sRGB">
<feFlood flood-opacity="0" result="BackgroundImageFix"/>
<feBlend mode="normal" in="SourceGraphic" in2="BackgroundImageFix" result="shape"/>
<feGaussianBlur stdDeviation="1.25012" result="effect1_foregroundBlur_939_4469"/>
</filter>
<filter id="filter10_f_939_4469" x="155.062" y="86.6873" width="31.5083" height="11.3286" filterUnits="userSpaceOnUse" color-interpolation-filters="sRGB">
<feFlood flood-opacity="0" result="BackgroundImageFix"/>
<feBlend mode="normal" in="SourceGraphic" in2="BackgroundImageFix" result="shape"/>
<feGaussianBlur stdDeviation="1.25012" result="effect1_foregroundBlur_939_4469"/>
</filter>
<filter id="filter11_f_939_4469" x="198.433" y="102.539" width="17.4419" height="8.37159" filterUnits="userSpaceOnUse" color-interpolation-filters="sRGB">
<feFlood flood-opacity="0" result="BackgroundImageFix"/>
<feBlend mode="normal" in="SourceGraphic" in2="BackgroundImageFix" result="shape"/>
<feGaussianBlur stdDeviation="1.25012" result="effect1_foregroundBlur_939_4469"/>
</filter>
<filter id="filter12_f_939_4469" x="182.336" y="105.289" width="25.4653" height="10.2388" filterUnits="userSpaceOnUse" color-interpolation-filters="sRGB">
<feFlood flood-opacity="0" result="BackgroundImageFix"/>
<feBlend mode="normal" in="SourceGraphic" in2="BackgroundImageFix" result="shape"/>
<feGaussianBlur stdDeviation="1.25012" result="effect1_foregroundBlur_939_4469"/>
</filter>
<filter id="filter13_f_939_4469" x="95.3005" y="122.863" width="31.106" height="13.3013" filterUnits="userSpaceOnUse" color-interpolation-filters="sRGB">
<feFlood flood-opacity="0" result="BackgroundImageFix"/>
<feBlend mode="normal" in="SourceGraphic" in2="BackgroundImageFix" result="shape"/>
<feGaussianBlur stdDeviation="1.25012" result="effect1_foregroundBlur_939_4469"/>
</filter>
<filter id="filter14_f_939_4469" x="77.3123" y="131.261" width="28.1997" height="9.45362" filterUnits="userSpaceOnUse" color-interpolation-filters="sRGB">
<feFlood flood-opacity="0" result="BackgroundImageFix"/>
<feBlend mode="normal" in="SourceGraphic" in2="BackgroundImageFix" result="shape"/>
<feGaussianBlur stdDeviation="1.25012" result="effect1_foregroundBlur_939_4469"/>
</filter>
<filter id="filter15_f_939_4469" x="129.398" y="138.437" width="26.0122" height="11.4067" filterUnits="userSpaceOnUse" color-interpolation-filters="sRGB">
<feFlood flood-opacity="0" result="BackgroundImageFix"/>
<feBlend mode="normal" in="SourceGraphic" in2="BackgroundImageFix" result="shape"/>
<feGaussianBlur stdDeviation="1.25012" result="effect1_foregroundBlur_939_4469"/>
</filter>
</defs>
</svg>
