<svg width="100%" height="100%" viewBox="0 0 286 191" fill="none" xmlns="http://www.w3.org/2000/svg">
<path d="M59.9268 40.7803C58.8717 41.9674 56.7614 45.7923 55.3106 49.2215C53.4641 53.5739 51.6176 55.6842 49.2435 56.3436C47.5289 56.7393 44.4954 59.2453 42.6489 61.8831C40.8024 64.6529 38.0326 67.5545 36.5818 68.4778C35.131 69.401 33.944 70.8518 33.944 71.907C33.944 72.8302 32.8888 74.0172 31.7018 74.5448C30.3829 74.9405 22.865 79.0291 14.8196 83.6454C-7.47025 96.3071 -6.81079 97.626 31.9656 118.597C42.9127 124.4 52.9365 130.203 54.3873 131.259C56.7614 132.973 57.8165 132.709 66.7852 127.829C72.1928 124.796 80.2382 120.18 84.5907 117.41C100.022 107.914 120.861 96.439 122.84 96.439C124.422 96.439 124.95 95.12 124.95 91.8227C124.95 88.1297 124.29 86.9427 121.916 86.0194C118.619 84.7005 99.6264 72.8302 98.5713 71.3794C97.5162 69.7967 91.9767 68.4778 91.9767 69.6648C91.9767 70.1924 93.1637 71.5113 94.6145 72.4345C97.2524 74.0172 98.1756 76.6551 96.1972 76.6551C95.6697 76.6551 93.1637 74.9405 90.6577 72.8302C86.1734 69.0053 86.1734 68.8734 88.9431 67.8183C91.8448 66.7631 91.8448 66.6313 86.0415 56.8712C82.8761 51.4636 79.7107 46.1879 79.0512 45.1328C78.128 43.5501 76.6771 43.8139 70.4782 46.7155C64.2793 49.4852 62.9603 49.749 62.9603 48.1663C62.9603 46.9793 64.1474 45.7923 65.5982 45.3966C69.1593 44.4733 68.8955 41.8355 65.0706 39.989C62.5646 38.8019 61.5095 39.0657 59.9268 40.7803ZM62.5646 43.9458C62.169 45.0009 61.7733 44.6052 61.7733 43.1544C61.6414 41.7036 62.0371 40.9122 62.4328 41.4398C62.8284 41.8355 62.9603 43.0225 62.5646 43.9458ZM60.9819 47.5069C61.6414 48.6939 57.8165 53.5739 56.8933 52.6507C56.6295 52.3869 56.7614 50.8042 57.2889 49.2215C58.0803 46.1879 59.663 45.3966 60.9819 47.5069ZM79.9745 51.8593C80.8977 54.2334 83.008 58.4539 84.8545 61.2237C88.4156 66.7631 88.1518 69.1372 84.4588 65.8399C80.8977 62.6745 68.1041 56.6074 67.1809 57.5307C66.6533 58.0583 66.1257 63.202 65.9939 69.0053C65.862 74.8086 65.5982 79.6886 65.3344 79.8205C65.0706 79.9524 63.2241 81.1394 61.2457 82.4584C59.1354 83.7773 57.2889 84.5686 57.1571 84.3048C56.7614 83.3816 53.3322 74.4129 50.9581 67.5545C49.5073 63.5977 48.8478 60.0366 49.2435 59.641C50.6943 58.0583 74.1712 47.7706 76.4134 47.7706C77.6004 47.6387 79.1831 49.3533 79.9745 51.8593ZM76.5452 63.5977C79.1831 64.521 81.4253 65.708 81.4253 66.2356C81.4253 66.7631 79.4469 70.1924 76.9409 73.8853C74.435 77.5783 72.9842 80.8756 73.6436 81.2713C74.9625 82.1946 75.3582 91.1633 73.9074 91.1633C73.3798 91.1633 71.6652 89.9762 70.2144 88.5254L67.3128 85.7557L62.6965 88.5254C56.7614 91.9546 51.6176 91.2951 43.1765 85.8876C36.8456 81.7989 36.4499 81.2713 37.3732 77.4464C38.1645 73.8853 45.5505 64.7848 47.7927 64.7848C48.1884 64.7848 48.4522 66.2356 48.4522 68.0821C48.4522 69.9286 49.6392 73.7534 51.09 76.6551C52.5408 79.5567 53.7279 82.9859 53.7279 84.4367C53.7279 88.7892 55.97 88.9211 62.9603 84.9643C69.423 81.2713 72.3247 77.8421 69.6868 76.9189C68.8955 76.6551 68.236 72.9621 68.236 68.4778C68.236 62.6745 68.6317 60.828 69.9506 61.3556C70.742 61.6193 73.7755 62.6745 76.5452 63.5977ZM86.3053 74.281C89.4707 77.1827 90.394 83.7773 88.0199 85.2281C87.2285 85.7557 86.701 84.5686 86.701 82.5902C86.701 79.2929 83.5356 76.6551 81.8209 78.5016C81.2934 78.8973 80.6339 81.7989 80.2382 84.8324C79.8426 87.8659 78.7874 90.5038 77.9961 90.7676C75.8858 91.427 77.3366 78.1059 79.8426 74.281C82.2166 70.7199 82.4804 70.7199 86.3053 74.281ZM35.2629 77.5783C35.2629 79.5567 32.757 82.4584 31.8337 81.667C31.3061 81.1394 29.3277 81.7989 27.4813 83.1178C18.6445 89.1849 5.98278 95.3838 4.66386 94.0649C3.8725 93.2735 5.98278 91.5589 10.4671 89.053C35.2629 75.8637 35.2629 75.8637 35.2629 77.5783ZM106.221 85.36C111.365 87.9978 115.717 90.6357 115.717 91.0314C115.717 91.9546 101.869 100.132 89.9983 106.331C85.6458 108.705 77.6004 113.057 71.929 116.091C66.3895 119.124 60.5863 121.894 58.8717 122.158C55.4425 122.817 9.80766 98.2854 10.8628 96.3071C11.2585 95.6476 16.6661 92.4822 22.7331 89.1849L33.944 82.9859L38.0326 86.0194C40.2748 87.6022 45.1548 90.5038 48.8478 92.6141L55.4425 96.1752L61.2457 92.8779C66.6533 89.8443 67.3128 89.8443 69.4231 91.6908C72.7204 94.5925 77.0728 94.1968 84.7226 89.9762C90.6577 86.8108 91.3172 85.8876 91.7129 81.4032C92.1086 76.787 92.3723 76.5232 94.3507 78.3697C95.5378 79.5567 100.945 82.5902 106.221 85.36ZM110.442 82.1946C115.585 85.0962 119.674 88.1297 119.674 88.7892C119.674 90.3719 100.813 79.9524 100.154 78.1059C99.3626 75.8637 100.813 76.3913 110.442 82.1946ZM85.382 83.7773C85.382 84.8324 84.8545 86.1513 84.0631 86.547C83.4037 86.9427 82.7442 86.1513 82.7442 84.7005C82.7442 83.1178 83.4037 81.9308 84.0631 81.9308C84.8545 81.9308 85.382 82.7221 85.382 83.7773ZM110.31 99.4725C104.243 102.638 97.648 106.199 95.6697 107.518C93.5594 108.837 91.9767 109.364 91.9767 108.837C92.1086 107.122 115.849 93.933 118.883 93.8011C120.334 93.8011 116.509 96.3071 110.31 99.4725ZM2.28979 97.0984C2.28979 97.4941 2.02601 97.7579 1.63033 97.7579C1.23465 97.7579 0.970869 97.4941 0.970869 97.0984C0.970869 96.7027 1.23465 96.439 1.63033 96.439C2.02601 96.439 2.28979 96.7027 2.28979 97.0984ZM23.2607 107.782C24.3158 108.837 24.8434 109.892 24.4477 110.42C23.2607 111.475 4.92764 100.132 5.719 98.813C6.37846 97.7579 19.9634 104.748 23.2607 107.782ZM56.2338 127.566C56.6295 129.544 56.2338 129.544 52.9365 127.17C50.8262 125.719 44.2316 122.026 38.2964 118.861C32.2294 115.695 27.3494 112.398 27.3494 111.475C27.3494 109.101 55.5743 124.796 56.2338 127.566ZM87.4923 112.134C86.9648 112.926 82.3485 115.959 77.0728 118.993C71.7971 122.026 65.7301 125.587 63.356 127.038C60.85 128.489 58.8717 129.016 58.476 128.225C57.9484 127.566 60.4544 125.323 63.8836 123.345C67.4447 121.367 74.0393 117.542 78.7874 114.904C87.2285 110.024 89.2069 109.364 87.4923 112.134Z" fill="white"/>
<path d="M41.8555 77.8423C41.8555 80.0845 42.1193 81.931 42.383 81.931C42.6468 81.931 43.9657 82.3267 45.1528 82.7223C46.9993 83.5137 47.2631 82.8542 46.8674 79.1612C46.3398 73.0942 41.8555 71.9071 41.8555 77.8423Z" fill="white"/>
<g filter="url(#filter0_f_939_4606)">
<path d="M41.8555 77.8423C41.8555 80.0845 42.1193 81.931 42.383 81.931C42.6468 81.931 43.9657 82.3267 45.1528 82.7223C46.9993 83.5137 47.2631 82.8542 46.8674 79.1612C46.3398 73.0942 41.8555 71.9071 41.8555 77.8423Z" fill="#FDFF85"/>
</g>
<path d="M68.897 84.5678C69.2927 85.2273 70.6116 85.8867 71.6667 85.8867C72.7219 85.8867 73.2494 85.2273 72.8538 84.5678C72.4581 83.7764 71.1392 83.2489 70.084 83.2489C69.0289 83.2489 68.5013 83.7764 68.897 84.5678Z" fill="#FDFF86"/>
<g filter="url(#filter1_f_939_4606)">
<path d="M68.897 84.5678C69.2927 85.2273 70.6116 85.8867 71.6667 85.8867C72.7219 85.8867 73.2494 85.2273 72.8538 84.5678C72.4581 83.7764 71.1392 83.2489 70.084 83.2489C69.0289 83.2489 68.5013 83.7764 68.897 84.5678Z" fill="#FDFF86"/>
</g>
<path d="M97.2539 87.4736C97.2539 88.3968 98.7047 89.3201 100.551 89.3201C102.53 89.452 103.849 88.9244 103.849 87.7374C103.849 86.6822 102.53 85.8909 100.551 85.8909C98.7047 85.8909 97.2539 86.6822 97.2539 87.4736Z" fill="#A5FF97"/>
<g filter="url(#filter2_f_939_4606)">
<path d="M97.2539 87.4736C97.2539 88.3968 98.7047 89.3201 100.551 89.3201C102.53 89.452 103.849 88.9244 103.849 87.7374C103.849 86.6822 102.53 85.8909 100.551 85.8909C98.7047 85.8909 97.2539 86.6822 97.2539 87.4736Z" fill="#A5FF97"/>
</g>
<path d="M32.625 92.4869C32.625 93.1463 33.1526 93.8058 33.812 93.8058C34.4715 93.8058 36.0542 94.2015 37.1093 94.5971C38.6921 95.2566 39.0877 94.8609 38.4283 93.2782C37.505 91.036 32.625 90.3766 32.625 92.4869Z" fill="#A5FF97"/>
<g filter="url(#filter3_f_939_4606)">
<path d="M32.625 92.4869C32.625 93.1463 33.1526 93.8058 33.812 93.8058C34.4715 93.8058 36.0542 94.2015 37.1093 94.5971C38.6921 95.2566 39.0877 94.8609 38.4283 93.2782C37.505 91.036 32.625 90.3766 32.625 92.4869Z" fill="#A5FF97"/>
</g>
<path d="M91.9766 96.4389C91.9766 97.0984 93.9549 97.7578 96.329 97.7578C99.4944 97.7578 100.022 97.3621 98.5712 96.4389C95.9333 94.7243 91.9766 94.7243 91.9766 96.4389Z" fill="#A5FF97"/>
<g filter="url(#filter4_f_939_4606)">
<path d="M91.9766 96.4389C91.9766 97.0984 93.9549 97.7578 96.329 97.7578C99.4944 97.7578 100.022 97.3621 98.5712 96.4389C95.9333 94.7243 91.9766 94.7243 91.9766 96.4389Z" fill="#A5FF97"/>
</g>
<path d="M18.7778 97.7583C18.3822 98.4178 18.3822 99.0772 19.0416 99.0772C19.5692 99.0772 21.5476 99.4729 23.3941 100C26.2957 100.792 26.5595 100.66 24.8449 98.6815C22.8665 96.1756 19.9649 95.7799 18.7778 97.7583Z" fill="#A5FF97"/>
<g filter="url(#filter5_f_939_4606)">
<path d="M18.7778 97.7583C18.3822 98.4178 18.3822 99.0772 19.0416 99.0772C19.5692 99.0772 21.5476 99.4729 23.3941 100C26.2957 100.792 26.5595 100.66 24.8449 98.6815C22.8665 96.1756 19.9649 95.7799 18.7778 97.7583Z" fill="#A5FF97"/>
</g>
<path d="M58.6075 99.3436C58.2119 100.531 59.5308 101.19 62.5643 101.322C66.3892 101.454 66.7849 101.19 65.466 99.6074C63.6195 97.3652 59.5308 97.2333 58.6075 99.3436Z" fill="#A5FF97"/>
<g filter="url(#filter6_f_939_4606)">
<path d="M58.6075 99.3436C58.2119 100.531 59.5308 101.19 62.5643 101.322C66.3892 101.454 66.7849 101.19 65.466 99.6074C63.6195 97.3652 59.5308 97.2333 58.6075 99.3436Z" fill="#A5FF97"/>
</g>
<path d="M41.3306 104.092C40.9349 104.62 42.3857 105.807 44.6279 106.598C48.5847 108.181 49.5079 107.258 46.8701 104.62C45.0236 102.773 42.2538 102.51 41.3306 104.092Z" fill="#A5FF97"/>
<g filter="url(#filter7_f_939_4606)">
<path d="M41.3306 104.092C40.9349 104.62 42.3857 105.807 44.6279 106.598C48.5847 108.181 49.5079 107.258 46.8701 104.62C45.0236 102.773 42.2538 102.51 41.3306 104.092Z" fill="#A5FF97"/>
</g>
<path d="M75.4913 104.353C75.887 105.012 77.7335 105.672 79.58 105.672C81.2946 105.672 82.7454 105.012 82.7454 104.353C82.7454 103.562 80.8989 103.034 78.6567 103.034C76.4146 103.034 74.9638 103.562 75.4913 104.353Z" fill="#A5FF97"/>
<g filter="url(#filter8_f_939_4606)">
<path d="M75.4913 104.353C75.887 105.012 77.7335 105.672 79.58 105.672C81.2946 105.672 82.7454 105.012 82.7454 104.353C82.7454 103.562 80.8989 103.034 78.6567 103.034C76.4146 103.034 74.9638 103.562 75.4913 104.353Z" fill="#A5FF97"/>
</g>
<path d="M56.3672 110.947C56.3672 111.606 57.818 112.266 59.6645 112.266C61.511 112.266 62.9618 111.606 62.9618 110.947C62.9618 110.155 61.511 109.628 59.6645 109.628C57.818 109.628 56.3672 110.155 56.3672 110.947Z" fill="#A5FF97"/>
<g filter="url(#filter9_f_939_4606)">
<path d="M56.3672 110.947C56.3672 111.606 57.818 112.266 59.6645 112.266C61.511 112.266 62.9618 111.606 62.9618 110.947C62.9618 110.155 61.511 109.628 59.6645 109.628C57.818 109.628 56.3672 110.155 56.3672 110.947Z" fill="#A5FF97"/>
</g>
<path d="M106.122 14.058L91.4492 27.9045L92.6892 40.3044L93.9292 52.4976L124.929 71.304C183.621 106.644 222.474 128.137 227.848 128.137C232.188 128.137 274.967 107.884 279.307 103.544C280.134 102.924 281.167 98.3771 281.787 94.0371C282.2 89.4905 283.234 84.1172 284.06 82.0506C284.887 79.9839 285.3 78.124 284.887 77.7106C281.167 74.8173 171.842 13.6447 163.162 9.71809C153.035 5.17147 131.542 -0.201797 123.689 0.00486755C122.036 0.211533 114.182 6.41146 106.122 14.058ZM147.662 17.3647C195.815 43.1977 240.867 67.9974 244.587 70.684C248.307 73.3707 248.101 74.1973 238.594 88.4572C233.221 96.7237 228.054 103.337 227.434 103.337C226.608 103.337 224.128 102.097 222.061 100.444C219.788 98.7904 206.768 91.5571 193.128 84.3239C179.488 77.0906 154.895 62.8308 138.569 52.9109C122.242 42.7844 106.122 33.6911 102.816 32.6578C99.7158 31.4178 97.0292 29.9712 97.0292 29.3512C97.0292 27.6979 122.656 4.13815 123.896 4.75814C124.516 4.96481 135.262 10.7514 147.662 17.3647ZM171.842 17.9847C177.835 21.2913 197.261 32.2445 214.828 42.371C232.394 52.2909 251.614 63.2441 257.194 66.3441C266.287 71.5107 266.907 72.3374 261.947 72.3374C258.641 72.3374 236.321 61.1775 207.388 45.2643C180.315 30.3845 154.068 16.1247 149.315 13.8514C144.562 11.5781 141.049 8.89143 141.669 8.06477C143.115 5.79147 159.028 10.9581 171.842 17.9847ZM105.709 38.4444C109.429 40.3044 125.755 50.0176 142.289 59.7308C159.028 69.6507 184.861 84.5306 199.948 92.7971C215.034 101.064 228.054 109.124 228.674 110.777C229.294 112.43 229.088 116.15 228.468 119.043C227.434 122.97 226.194 124.003 223.508 122.97C217.101 120.697 149.935 82.2572 123.482 65.7241C97.8558 49.811 97.0292 49.191 97.0292 42.1644C97.0292 34.1045 97.2358 34.1045 105.709 38.4444ZM272.074 78.9506C278.687 80.8106 278.894 81.2239 277.654 89.4905C276 101.27 275.38 103.337 272.487 103.337C271.04 103.337 270.627 101.27 271.04 98.3771C272.9 88.4572 270.007 87.8372 254.301 95.0704L239.628 101.89V110.57C239.628 115.53 238.388 120.49 236.734 121.73C234.254 123.797 233.634 122.763 232.394 115.737C231.154 107.884 231.774 106.024 239.834 94.4504C254.921 72.3374 253.267 73.164 272.074 78.9506ZM266.907 100.65C265.047 110.57 258.227 112.844 258.227 103.75C258.227 96.9304 259.674 95.0704 264.427 95.0704C267.114 95.0704 267.734 96.3104 266.907 100.65ZM254.094 106.024C254.094 111.397 252.854 113.464 248.927 115.324C243.967 117.597 243.761 117.39 243.761 110.57C243.761 106.024 245.001 102.717 247.481 101.477C253.061 98.1704 254.094 98.7904 254.094 106.024Z" fill="white"/>
<path d="M131.128 21.9103C119.142 27.9036 118.522 29.9702 126.995 35.1368C131.128 37.6168 134.641 39.4768 135.055 39.0634C138.155 35.5501 142.495 23.7703 141.668 21.497C140.221 17.777 138.775 17.777 131.128 21.9103ZM138.361 26.8702C138.361 29.5569 136.915 31.0035 134.641 31.0035C128.855 31.0035 127.615 28.7302 131.748 25.6302C136.708 21.7036 138.361 22.117 138.361 26.8702Z" fill="#FDFF85"/>
<g filter="url(#filter10_f_939_4606)">
<path d="M131.128 21.9103C119.142 27.9036 118.522 29.9702 126.995 35.1368C131.128 37.6168 134.641 39.4768 135.055 39.0634C138.155 35.5501 142.495 23.7703 141.668 21.497C140.221 17.777 138.775 17.777 131.128 21.9103ZM138.361 26.8702C138.361 29.5569 136.915 31.0035 134.641 31.0035C128.855 31.0035 127.615 28.7302 131.748 25.6302C136.708 21.7036 138.361 22.117 138.361 26.8702Z" fill="#FDFF85"/>
</g>
<path d="M170.392 39.6861C157.786 44.0261 153.446 51.6727 160.886 55.806C167.292 59.1126 168.739 58.4926 174.319 48.366C181.552 35.5528 181.552 35.7595 170.392 39.6861ZM168.532 48.7794C162.332 53.1193 159.439 52.086 165.019 47.3327C167.706 45.0594 170.599 43.8194 171.219 44.6461C171.839 45.2661 170.599 47.1261 168.532 48.7794Z" fill="#FDFF85"/>
<g filter="url(#filter11_f_939_4606)">
<path d="M170.392 39.6861C157.786 44.0261 153.446 51.6727 160.886 55.806C167.292 59.1126 168.739 58.4926 174.319 48.366C181.552 35.5528 181.552 35.7595 170.392 39.6861ZM168.532 48.7794C162.332 53.1193 159.439 52.086 165.019 47.3327C167.706 45.0594 170.599 43.8194 171.219 44.6461C171.839 45.2661 170.599 47.1261 168.532 48.7794Z" fill="#FDFF85"/>
</g>
<path d="M199.329 60.7642C191.476 64.0709 186.929 69.4441 190.029 71.3041C191.269 72.1308 193.749 71.5108 195.402 70.0641C197.882 67.9975 198.089 68.2041 197.056 71.0974C195.196 75.8507 201.809 77.7107 206.356 73.5774C208.629 71.5108 210.696 67.3775 211.109 63.8642C212.142 57.0443 209.456 56.2176 199.329 60.7642ZM206.562 63.4509C206.356 67.1708 202.842 70.6841 201.602 68.4108C200.776 67.1708 200.776 65.1042 201.396 64.0709C202.842 61.5909 206.562 61.3842 206.562 63.4509Z" fill="#FDFF85"/>
<g filter="url(#filter12_f_939_4606)">
<path d="M199.329 60.7642C191.476 64.0709 186.929 69.4441 190.029 71.3041C191.269 72.1308 193.749 71.5108 195.402 70.0641C197.882 67.9975 198.089 68.2041 197.056 71.0974C195.196 75.8507 201.809 77.7107 206.356 73.5774C208.629 71.5108 210.696 67.3775 211.109 63.8642C212.142 57.0443 209.456 56.2176 199.329 60.7642ZM206.562 63.4509C206.356 67.1708 202.842 70.6841 201.602 68.4108C200.776 67.1708 200.776 65.1042 201.396 64.0709C202.842 61.5909 206.562 61.3842 206.562 63.4509Z" fill="#FDFF85"/>
</g>
<path d="M107.157 49.6038C111.91 53.7371 115.63 54.9771 115.63 52.4971C115.63 50.2238 108.603 45.6772 105.297 45.6772C103.23 45.6772 103.644 46.9172 107.157 49.6038Z" fill="#FDFF85"/>
<g filter="url(#filter13_f_939_4606)">
<path d="M107.157 49.6038C111.91 53.7371 115.63 54.9771 115.63 52.4971C115.63 50.2238 108.603 45.6772 105.297 45.6772C103.23 45.6772 103.644 46.9172 107.157 49.6038Z" fill="#FDFF85"/>
</g>
<path d="M126.375 60.1442C127.409 63.4508 144.562 73.164 144.562 70.4774C144.562 68.4107 129.682 57.8708 126.789 57.8708C126.169 57.8708 125.962 58.9042 126.375 60.1442Z" fill="#FDFF85"/>
<g filter="url(#filter14_f_939_4606)">
<path d="M126.375 60.1442C127.409 63.4508 144.562 73.164 144.562 70.4774C144.562 68.4107 129.682 57.8708 126.789 57.8708C126.169 57.8708 125.962 58.9042 126.375 60.1442Z" fill="#FDFF85"/>
</g>
<path d="M159.029 79.3659C160.269 81.0192 164.609 84.3258 168.742 86.8058C177.835 92.1791 176.802 87.4258 167.295 81.0192C159.649 75.8526 155.309 75.0259 159.029 79.3659Z" fill="#FDFF85"/>
<g filter="url(#filter15_f_939_4606)">
<path d="M159.029 79.3659C160.269 81.0192 164.609 84.3258 168.742 86.8058C177.835 92.1791 176.802 87.4258 167.295 81.0192C159.649 75.8526 155.309 75.0259 159.029 79.3659Z" fill="#FDFF85"/>
</g>
<path d="M194.164 99.2034C194.164 101.683 210.697 110.157 212.351 108.71C212.971 107.883 211.731 106.023 209.457 104.37C203.877 100.237 194.164 96.9301 194.164 99.2034Z" fill="#FDFF85"/>
<g filter="url(#filter16_f_939_4606)">
<path d="M194.164 99.2034C194.164 101.683 210.697 110.157 212.351 108.71C212.971 107.883 211.731 106.023 209.457 104.37C203.877 100.237 194.164 96.9301 194.164 99.2034Z" fill="#FDFF85"/>
</g>
<path d="M252.027 84.738C252.027 85.7714 253.474 86.8047 255.127 86.8047C256.781 86.8047 258.227 85.7714 258.227 84.738C258.227 83.4981 256.781 82.6714 255.127 82.6714C253.474 82.6714 252.027 83.4981 252.027 84.738Z" fill="#FDFF85"/>
<g filter="url(#filter17_f_939_4606)">
<path d="M252.027 84.738C252.027 85.7714 253.474 86.8047 255.127 86.8047C256.781 86.8047 258.227 85.7714 258.227 84.738C258.227 83.4981 256.781 82.6714 255.127 82.6714C253.474 82.6714 252.027 83.4981 252.027 84.738Z" fill="#FDFF85"/>
</g>
<path d="M133.583 97.9312C128.889 100.881 121.359 105.197 116.899 107.52C112.527 109.839 108.325 112.062 107.645 112.534C106.96 112.919 103.118 115.3 99.1042 117.778C95.0909 120.256 89.453 123.69 86.4587 125.416C83.4643 127.141 80.3949 129.134 79.7225 129.782C78.6284 130.801 78.2776 130.818 77.8806 129.87C77.5755 129.005 77.0535 129.118 75.6253 130.505C74.0301 132.076 51.7586 146.152 47.2941 148.388C45.9201 149.069 45.5986 149.699 46.0959 150.906C46.7896 152.544 46.8773 152.539 48.6311 150.609C49.6333 149.506 52.3519 147.53 54.7491 146.185C57.0586 144.844 62.2663 141.606 66.3589 138.948C73.5168 134.21 77.0794 133.337 75.4762 136.578C74.8375 137.927 58.4249 147.679 49.1494 152.255C44.1671 154.691 45.1948 155.96 57.0872 161.985C62.2252 164.64 67.7181 167.367 69.2554 168.26C70.8761 169.062 79.8821 173.554 89.2431 178.117C98.6961 182.764 106.804 186.86 107.351 187.273C107.99 187.77 110.141 186.788 113.365 184.348C116.171 182.368 121.621 178.678 125.635 176.201C137.666 168.592 144.231 164.322 157.186 155.791C168.603 148.212 191.514 134.633 195.06 133.408C196.095 133.007 196.484 131.933 196.362 129.39C196.27 127.46 196.432 125.342 196.657 124.54C196.962 123.559 196.678 123.133 195.626 123.183C194.836 123.221 190.421 120.971 185.801 118.115C181.273 115.342 176.477 112.495 175.128 111.856C165.671 107.122 142.905 94.3205 142.604 93.5437C142.403 93.0259 138.536 94.8811 133.583 97.9312ZM140.379 98.4853C140.484 100.678 139.983 101.229 136.032 103.177C133.539 104.351 126.167 108.308 119.749 111.955C108.702 118.11 107.926 118.411 107.838 116.569C107.758 114.903 110.226 113.202 123.828 105.343C132.64 100.262 139.911 96.0462 140.086 96.0378C140.169 95.9459 140.312 97.0819 140.379 98.4853ZM150.671 100.455C155.725 103.202 157.918 104.943 158.157 106.25C158.508 108.08 157.794 107.85 150.404 104.072C144.907 101.258 142.179 99.3662 142.129 98.3137C142.087 97.4366 142.404 96.7181 142.755 96.7013C143.194 96.6803 146.702 98.3586 150.671 100.455ZM150.325 106.097C163.308 112.861 164.031 113.266 175.973 120.343C182.306 124.084 187.482 127.529 187.503 127.967C187.536 128.669 166.38 142.164 165.152 142.223C164.801 142.24 160.195 145.185 154.828 148.783C149.466 152.468 143.235 156.37 140.918 157.536C135.338 160.352 135.935 159.972 122.409 169.41C115.94 173.851 109.968 177.653 109.183 177.779C108.393 177.817 107.533 178.209 107.287 178.573C106.873 179.12 91.8271 171.488 89.0867 169.333C88.2596 168.582 87.3657 168.273 87.1152 168.549C86.8646 168.824 83.3684 167.409 79.3123 165.318C75.2605 163.314 71.664 161.639 71.3131 161.656C70.9623 161.673 70.1435 161.097 69.496 160.424C68.8484 159.752 67.8543 159.184 67.1526 159.218C66.1001 159.268 54.195 152.981 54.1615 152.279C54.1573 152.191 59.2815 149.045 65.5249 145.406C80.3171 136.698 102.033 123.88 104.163 122.459C107.659 120.182 140.989 102.06 141.779 102.023C142.217 102.002 145.998 103.843 150.325 106.097ZM165.926 108.78C167.918 110.003 171.264 111.953 173.432 113.168C175.509 114.299 177.246 115.711 177.267 116.149C177.288 116.588 177.823 116.738 178.512 116.441C179.201 116.145 181.536 117.176 183.717 118.654C185.985 120.128 188.984 122.182 190.434 123.08C192.527 124.562 192.819 125.164 192.072 126.078C191.237 126.998 189.716 126.455 184.549 123.186C180.927 120.985 177.393 118.781 176.583 118.38C161.415 110.05 159.235 108.572 159.853 106.785C160.316 105.444 160.495 105.523 165.926 108.78ZM106.125 117.53C106.205 119.197 104.927 120.049 88.335 129.721C82.5217 133.164 77.5477 135.776 77.3597 135.521C75.8934 134.273 78.8542 131.845 89.4618 125.712C95.96 121.884 102.024 118.166 102.955 117.418C105.244 115.638 106.037 115.688 106.125 117.53ZM193.668 130.046C192.946 131.487 189.463 134.027 183.558 137.387C178.592 140.174 172.182 143.997 169.279 145.806C164.418 148.939 163.896 149.052 163.821 147.473C163.733 145.632 164.413 145.159 179.944 135.362C186.171 131.372 189.521 129.717 190.941 130.001C192.449 130.28 192.875 129.996 192.816 128.768C192.719 126.751 193.797 125.381 194.302 126.763C194.595 127.364 194.223 128.789 193.668 130.046ZM162.108 148.434C162.192 150.189 157.361 153.936 144.736 162.012C138.079 166.199 137.908 166.295 137.377 164.386C136.859 162.741 137.869 161.813 145.554 157.05C150.419 154.005 155.789 150.495 157.485 149.183C161.306 146.363 162.003 146.242 162.108 148.434ZM58.2515 156.918C61.3217 158.618 68.6151 162.225 74.5466 164.93C80.3904 167.64 85.7915 170.282 86.4306 170.779C87.5251 171.606 88.2985 174.91 87.3337 174.956C86.2812 175.006 70.3201 166.627 68.7577 165.207C67.9306 164.455 67.0283 163.971 66.7735 164.159C66.1889 164.802 49.689 156.185 49.1917 154.978C48.3894 152.907 52.7375 153.754 58.2515 156.918ZM134.304 168.138C132.27 169.73 109.94 184.424 109.502 184.445C109.326 184.453 109.28 183.488 109.401 182.34C109.492 180.577 112.027 178.434 122.334 171.523C134.261 163.568 135.117 163.088 135.468 164.917C135.79 166.133 135.323 167.386 134.304 168.138ZM98.9329 176.687C105.7 180.319 107.434 181.643 107.509 183.221C107.601 185.151 107.067 185.001 98.5954 180.659C91.3897 177.047 89.5726 175.816 89.4929 174.149C89.4426 173.097 89.6637 172.207 89.9269 172.194C90.19 172.182 94.2419 174.186 98.9329 176.687Z" fill="white"/>
<path d="M126.09 113.936C125.013 115.307 125.192 115.386 127.097 114.767C128.308 114.358 130.576 113.986 132.155 113.91C133.646 113.839 134.94 113.337 134.919 112.899C134.848 111.408 127.326 112.207 126.09 113.936Z" fill="#A5FF97"/>
<g filter="url(#filter18_f_939_4606)">
<path d="M126.09 113.936C125.013 115.307 125.192 115.386 127.097 114.767C128.308 114.358 130.576 113.986 132.155 113.91C133.646 113.839 134.94 113.337 134.919 112.899C134.848 111.408 127.326 112.207 126.09 113.936Z" fill="#A5FF97"/>
</g>
<path d="M135.906 115.139C132.54 118.289 133.087 118.703 137.364 116.213C141.552 113.727 148.941 113.813 152.755 116.356C154.121 117.345 155.457 117.721 155.7 117.27C156.831 115.194 149.129 112.221 143.34 112.498C139.48 112.683 138.098 113.188 135.906 115.139Z" fill="#A5FF97"/>
<g filter="url(#filter19_f_939_4606)">
<path d="M135.906 115.139C132.54 118.289 133.087 118.703 137.364 116.213C141.552 113.727 148.941 113.813 152.755 116.356C154.121 117.345 155.457 117.721 155.7 117.27C156.831 115.194 149.129 112.221 143.34 112.498C139.48 112.683 138.098 113.188 135.906 115.139Z" fill="#A5FF97"/>
</g>
<path d="M170.717 126.135C169.355 127.079 169.535 127.158 173.235 127.333C174.555 127.358 176.852 127.599 178.277 127.971C180.674 128.471 180.758 128.38 179.559 127.206C177.808 125.532 172.416 124.91 170.717 126.135Z" fill="#A5FF97"/>
<g filter="url(#filter20_f_939_4606)">
<path d="M170.717 126.135C169.355 127.079 169.535 127.158 173.235 127.333C174.555 127.358 176.852 127.599 178.277 127.971C180.674 128.471 180.758 128.38 179.559 127.206C177.808 125.532 172.416 124.91 170.717 126.135Z" fill="#A5FF97"/>
</g>
<path d="M158.866 128.372C154.915 130.319 156.093 131.054 161.681 130.259C165.966 129.791 167.817 129.878 169.538 130.939C171.977 132.316 173.661 132.587 173.606 131.447C173.497 129.167 162.132 126.809 158.866 128.372Z" fill="#A5FF97"/>
<g filter="url(#filter21_f_939_4606)">
<path d="M158.866 128.372C154.915 130.319 156.093 131.054 161.681 130.259C165.966 129.791 167.817 129.878 169.538 130.939C171.977 132.316 173.661 132.587 173.606 131.447C173.497 129.167 162.132 126.809 158.866 128.372Z" fill="#A5FF97"/>
</g>
<path d="M108.04 133.615C105.271 134.538 103.764 136.105 104.771 136.936C105.046 137.186 105.827 136.973 106.416 136.418C107.848 135.118 111.783 134.666 115.768 135.267C118.604 135.747 118.779 135.738 117.488 134.481C115.65 132.811 111.498 132.394 108.04 133.615Z" fill="#A5FF97"/>
<g filter="url(#filter22_f_939_4606)">
<path d="M108.04 133.615C105.271 134.538 103.764 136.105 104.771 136.936C105.046 137.186 105.827 136.973 106.416 136.418C107.848 135.118 111.783 134.666 115.768 135.267C118.604 135.747 118.779 135.738 117.488 134.481C115.65 132.811 111.498 132.394 108.04 133.615Z" fill="#A5FF97"/>
</g>
<path d="M119.618 136.666C118.085 137.707 116.832 139.085 116.866 139.787C116.941 141.366 116.941 141.366 120.328 138.654C122.191 137.159 124.346 136.264 126.451 136.164C128.38 136.071 130.878 136.831 132.958 138.05C136.488 140.167 138 140.534 137.937 139.219C137.916 138.78 136.007 137.465 133.756 136.342C128.714 133.858 123.531 133.93 119.618 136.666Z" fill="#A5FF97"/>
<g filter="url(#filter23_f_939_4606)">
<path d="M119.618 136.666C118.085 137.707 116.832 139.085 116.866 139.787C116.941 141.366 116.941 141.366 120.328 138.654C122.191 137.159 124.346 136.264 126.451 136.164C128.38 136.071 130.878 136.831 132.958 138.05C136.488 140.167 138 140.534 137.937 139.219C137.916 138.78 136.007 137.465 133.756 136.342C128.714 133.858 123.531 133.93 119.618 136.666Z" fill="#A5FF97"/>
</g>
<path d="M87.3133 145.068C82.3393 147.68 83.3419 148.423 88.9508 146.221C94.4762 144.11 98.5444 144.619 102.751 148.022C105.579 150.173 105.938 150.331 105.867 148.84C105.758 146.56 98.0178 142.798 94.0708 142.987C92.4043 143.067 89.3722 144.003 87.3133 145.068Z" fill="#A5FF97"/>
<g filter="url(#filter24_f_939_4606)">
<path d="M87.3133 145.068C82.3393 147.68 83.3419 148.423 88.9508 146.221C94.4762 144.11 98.5444 144.619 102.751 148.022C105.579 150.173 105.938 150.331 105.867 148.84C105.758 146.56 98.0178 142.798 94.0708 142.987C92.4043 143.067 89.3722 144.003 87.3133 145.068Z" fill="#A5FF97"/>
</g>
<path d="M71.5274 151.274C70.145 151.78 69.1303 152.62 69.1554 153.146C69.1806 153.672 69.7988 153.731 70.7468 153.334C74.0085 151.683 81.9025 151.306 84.7763 152.575C88.0094 154.002 88.5399 154.065 88.4895 153.012C88.3553 150.206 76.7813 149.001 71.5274 151.274Z" fill="#A5FF97"/>
<g filter="url(#filter25_f_939_4606)">
<path d="M71.5274 151.274C70.145 151.78 69.1303 152.62 69.1554 153.146C69.1806 153.672 69.7988 153.731 70.7468 153.334C74.0085 151.683 81.9025 151.306 84.7763 152.575C88.0094 154.002 88.5399 154.065 88.4895 153.012C88.3553 150.206 76.7813 149.001 71.5274 151.274Z" fill="#A5FF97"/>
</g>
<path d="M102.536 156.383C99.07 157.428 101.405 158.459 106.755 158.203C112.193 157.943 114.077 156.886 110.953 155.892C109.432 155.35 104.875 155.656 102.536 156.383Z" fill="#A5FF97"/>
<g filter="url(#filter26_f_939_4606)">
<path d="M102.536 156.383C99.07 157.428 101.405 158.459 106.755 158.203C112.193 157.943 114.077 156.886 110.953 155.892C109.432 155.35 104.875 155.656 102.536 156.383Z" fill="#A5FF97"/>
</g>
<path d="M116.387 157.392C113.221 159.214 112.048 160.413 112.871 161.077C113.151 161.415 114.529 160.822 115.802 159.882C119.202 157.433 122.351 157.107 126.048 159.04C129.828 160.881 130.183 160.952 130.124 159.724C130.07 158.584 123.165 155.749 120.705 155.779C119.74 155.825 117.84 156.531 116.387 157.392Z" fill="#A5FF97"/>
<g filter="url(#filter27_f_939_4606)">
<path d="M116.387 157.392C113.221 159.214 112.048 160.413 112.871 161.077C113.151 161.415 114.529 160.822 115.802 159.882C119.202 157.433 122.351 157.107 126.048 159.04C129.828 160.881 130.183 160.952 130.124 159.724C130.07 158.584 123.165 155.749 120.705 155.779C119.74 155.825 117.84 156.531 116.387 157.392Z" fill="#A5FF97"/>
</g>
<g filter="url(#filter28_f_939_4606)">
<path d="M185.219 100.749L171.527 79.0493V75.9494L181.602 66.1328L187.544 80.341L191.16 95.0658H197.877L210.794 89.6409L219.835 78.016L230.943 95.0658L231.718 102.557L236.627 115.216V123.999L235.335 152.415L225.002 159.132L210.794 164.557L196.585 156.548L180.052 141.824L175.661 134.849L171.527 125.549L178.244 122.449L183.152 113.149L185.219 106.691V100.749Z" fill="#0E0E0E" stroke="black" stroke-width="0.516661"/>
<path d="M174.163 70.6191L168.43 78.0858L176.563 89.8193C184.697 101.819 185.897 104.753 183.23 106.486C182.43 106.886 182.03 108.753 182.43 110.486C182.696 112.22 182.296 113.42 181.496 113.286C180.696 113.153 180.163 114.353 180.296 116.086C180.563 118.486 179.63 119.553 175.363 121.153C169.096 123.686 168.83 125.42 173.496 133.42C181.363 146.753 183.63 149.153 197.63 157.953L211.63 166.887L223.897 160.753C230.564 157.42 236.43 154.087 236.83 153.287C237.364 152.62 237.764 145.02 237.897 136.486C238.03 127.953 238.43 119.686 238.83 118.086C239.364 116.22 238.164 112.486 235.497 107.819C232.697 103.019 231.497 99.5527 232.03 97.4194C232.564 95.286 231.097 91.686 226.964 85.1526C223.897 80.0859 220.564 75.6858 219.764 75.4192C218.964 75.1525 216.297 78.0858 213.897 81.9525C210.297 87.8193 208.43 89.5526 203.497 91.286C200.03 92.3526 196.43 93.8193 195.23 94.2193C193.363 95.0193 192.43 93.4193 190.163 85.4192C186.297 72.4858 182.83 63.9524 181.363 63.5524C180.563 63.419 177.363 66.6191 174.163 70.6191ZM183.096 71.6858C185.097 76.0858 185.363 75.1525 180.83 80.8859L176.963 85.8193L174.83 82.7526C171.896 78.6192 172.163 76.3525 176.296 72.0858C180.696 67.5524 181.23 67.4191 183.096 71.6858ZM187.763 87.8193C187.897 94.086 185.63 96.2194 182.03 93.0193C178.563 89.9526 178.696 87.6859 182.43 83.1526C185.897 78.7525 187.497 80.2192 187.763 87.8193ZM225.364 87.6859C227.897 91.8193 230.03 95.286 230.03 95.686C230.03 96.7527 222.03 100.486 220.964 99.8194C220.43 99.5527 218.564 96.486 216.83 93.286C213.63 87.5526 213.63 87.1526 215.763 83.8192C217.097 81.9525 218.697 80.3525 219.364 80.3525C220.03 80.3525 222.697 83.6859 225.364 87.6859ZM218.03 101.819C218.03 102.353 216.83 103.553 215.363 104.353C213.097 105.553 212.163 105.286 210.03 102.753C206.83 99.0194 206.83 98.6194 209.497 93.4193L211.63 89.2859L214.83 95.0193C216.563 98.086 218.03 101.153 218.03 101.819ZM203.497 97.8194C201.63 99.286 199.63 99.8194 198.03 99.286C193.763 97.686 194.43 95.9527 200.03 94.3527C206.297 92.6193 207.897 94.2193 203.497 97.8194ZM191.097 98.086C191.363 100.619 190.963 101.686 189.497 101.686C186.83 101.686 186.03 100.086 186.963 96.486C187.897 92.6193 190.563 93.686 191.097 98.086ZM208.697 106.619C208.697 109.286 204.697 110.353 202.563 108.219C200.963 106.486 200.963 105.819 202.963 103.153C204.963 100.086 205.23 100.086 206.963 102.353C207.897 103.819 208.697 105.686 208.697 106.619ZM199.097 103.153C198.83 103.953 198.03 104.486 197.363 104.486C196.697 104.486 195.897 103.953 195.63 103.153C195.363 102.353 196.163 101.686 197.363 101.686C198.563 101.686 199.363 102.353 199.097 103.153ZM232.43 107.686C234.03 111.02 235.364 114.486 235.364 115.42C235.364 116.886 219.23 125.02 216.163 125.02C215.497 125.02 213.897 121.686 212.43 117.686C209.763 109.553 209.097 110.619 219.897 104.753C222.964 103.153 226.297 101.819 227.364 101.819C228.43 101.819 230.697 104.486 232.43 107.686ZM194.03 105.153C194.03 107.419 191.097 107.019 190.297 104.619C190.03 103.686 190.697 103.019 191.897 103.019C193.097 103.019 194.03 103.953 194.03 105.153ZM188.697 108.219C188.697 109.819 186.03 111.553 185.097 110.619C184.163 109.686 185.897 107.019 187.497 107.019C188.163 107.019 188.697 107.553 188.697 108.219ZM202.03 112.353C204.963 119.42 198.83 123.42 194.697 117.153C192.963 114.62 192.83 113.286 194.03 111.153C196.163 107.019 200.03 107.686 202.03 112.353ZM189.763 114.486C186.43 117.82 184.163 116.353 186.83 112.62C188.43 110.353 189.363 109.819 190.43 110.886C191.497 111.953 191.363 113.02 189.763 114.486ZM211.23 127.02V130.353L208.03 126.353C204.43 121.953 203.363 113.02 206.297 112.086C208.163 111.42 211.23 121.02 211.23 127.02ZM194.03 121.02C194.03 121.953 193.097 123.42 192.03 124.353C190.43 125.686 189.763 125.286 188.43 122.353C187.097 119.42 187.23 118.62 188.697 117.686C190.83 116.353 194.03 118.353 194.03 121.02ZM188.697 128.353C188.697 129.553 188.03 131.153 187.097 132.086C185.897 133.286 184.83 132.486 182.43 129.02C178.963 123.953 178.696 122.22 181.096 121.286C183.23 120.486 188.697 125.553 188.697 128.353ZM234.697 136.486C234.43 144.486 233.764 151.687 233.364 152.487C232.83 153.153 228.297 155.82 223.23 158.353L214.03 163.02V158.62C214.03 155.153 214.83 153.82 218.03 151.953C220.297 150.62 222.03 148.887 222.03 148.22C222.03 147.42 220.297 144.22 218.164 141.153C215.897 137.953 213.763 133.82 213.23 131.953C212.563 129.02 212.83 128.353 214.963 128.353C216.43 128.353 221.097 126.62 225.497 124.486C229.764 122.353 233.764 120.886 234.43 121.286C234.964 121.553 235.097 128.486 234.697 136.486ZM198.03 126.486C198.03 127.686 199.23 133.82 200.697 140.086C202.297 146.487 203.763 153.02 204.163 154.62C204.43 156.353 205.63 157.687 206.697 157.687C208.963 157.687 209.363 155.553 207.363 154.353C206.697 153.953 206.03 151.687 206.03 149.553C206.03 146.62 206.83 145.287 209.23 144.353C210.963 143.686 212.83 142.486 213.363 141.686C214.03 140.62 214.83 141.02 216.163 142.62C219.097 146.62 218.297 149.02 213.097 151.553C209.763 153.153 208.697 154.22 209.897 154.887C210.83 155.553 211.363 157.553 211.097 159.553L210.697 163.153L197.763 154.887C182.296 145.287 182.03 144.486 190.163 131.686C195.23 123.553 198.03 121.82 198.03 126.486ZM204.43 125.686C206.03 128.353 205.63 131.02 203.497 131.02C202.563 131.02 199.363 125.286 199.363 123.686C199.363 121.82 202.963 123.42 204.43 125.686ZM180.03 130.486C183.363 136.22 183.763 140.353 180.696 140.353C180.03 140.353 179.363 139.553 179.363 138.62C179.363 137.686 177.896 134.753 176.03 131.953C172.83 127.286 172.563 124.353 175.363 124.353C175.896 124.353 178.03 127.153 180.03 130.486ZM212.697 137.953C212.697 139.686 206.163 143.286 204.697 142.353C202.563 141.02 203.097 134.753 205.763 132.886C207.63 131.42 208.297 131.553 210.297 134.086C211.63 135.686 212.697 137.42 212.697 137.953Z" fill="white"/>
<path d="M196.295 112.885C195.495 114.885 196.429 116.352 198.295 116.352C198.829 116.352 199.362 115.152 199.362 113.685C199.362 110.618 197.362 110.085 196.295 112.885Z" fill="white"/>
<path d="M222.297 131.684C220.164 136.218 220.297 137.551 222.564 134.618C223.897 132.884 224.697 132.618 225.364 133.818C226.031 134.751 225.231 136.218 223.631 137.551C219.364 140.751 221.631 143.684 226.431 141.284C228.431 140.218 229.498 139.018 228.964 138.484C228.431 137.951 228.031 136.484 227.897 135.284C227.497 129.284 227.231 128.351 225.631 128.351C224.564 128.351 223.097 129.818 222.297 131.684Z" fill="white"/>
</g>
<path d="M185.219 100.749L171.527 79.0493V75.9494L181.602 66.1328L187.544 80.341L191.16 95.0658H197.877L210.794 89.6409L219.835 78.016L230.943 95.0658L231.718 102.557L236.627 115.216V123.999L235.335 152.415L225.002 159.132L210.794 164.557L196.585 156.548L180.052 141.824L175.661 134.849L171.527 125.549L178.244 122.449L183.152 113.149L185.219 106.691V100.749Z" fill="#0E0E0E" stroke="black" stroke-width="0.516661"/>
<path d="M174.163 70.6191L168.43 78.0858L176.563 89.8193C184.697 101.819 185.897 104.753 183.23 106.486C182.43 106.886 182.03 108.753 182.43 110.486C182.696 112.22 182.296 113.42 181.496 113.286C180.696 113.153 180.163 114.353 180.296 116.086C180.563 118.486 179.63 119.553 175.363 121.153C169.096 123.686 168.83 125.42 173.496 133.42C181.363 146.753 183.63 149.153 197.63 157.953L211.63 166.887L223.897 160.753C230.564 157.42 236.43 154.087 236.83 153.287C237.364 152.62 237.764 145.02 237.897 136.486C238.03 127.953 238.43 119.686 238.83 118.086C239.364 116.22 238.164 112.486 235.497 107.819C232.697 103.019 231.497 99.5527 232.03 97.4194C232.564 95.286 231.097 91.686 226.964 85.1526C223.897 80.0859 220.564 75.6858 219.764 75.4192C218.964 75.1525 216.297 78.0858 213.897 81.9525C210.297 87.8193 208.43 89.5526 203.497 91.286C200.03 92.3526 196.43 93.8193 195.23 94.2193C193.363 95.0193 192.43 93.4193 190.163 85.4192C186.297 72.4858 182.83 63.9524 181.363 63.5524C180.563 63.419 177.363 66.6191 174.163 70.6191ZM183.096 71.6858C185.097 76.0858 185.363 75.1525 180.83 80.8859L176.963 85.8193L174.83 82.7526C171.896 78.6192 172.163 76.3525 176.296 72.0858C180.696 67.5524 181.23 67.4191 183.096 71.6858ZM187.763 87.8193C187.897 94.086 185.63 96.2194 182.03 93.0193C178.563 89.9526 178.696 87.6859 182.43 83.1526C185.897 78.7525 187.497 80.2192 187.763 87.8193ZM225.364 87.6859C227.897 91.8193 230.03 95.286 230.03 95.686C230.03 96.7527 222.03 100.486 220.964 99.8194C220.43 99.5527 218.564 96.486 216.83 93.286C213.63 87.5526 213.63 87.1526 215.763 83.8192C217.097 81.9525 218.697 80.3525 219.364 80.3525C220.03 80.3525 222.697 83.6859 225.364 87.6859ZM218.03 101.819C218.03 102.353 216.83 103.553 215.363 104.353C213.097 105.553 212.163 105.286 210.03 102.753C206.83 99.0194 206.83 98.6194 209.497 93.4193L211.63 89.2859L214.83 95.0193C216.563 98.086 218.03 101.153 218.03 101.819ZM203.497 97.8194C201.63 99.286 199.63 99.8194 198.03 99.286C193.763 97.686 194.43 95.9527 200.03 94.3527C206.297 92.6193 207.897 94.2193 203.497 97.8194ZM191.097 98.086C191.363 100.619 190.963 101.686 189.497 101.686C186.83 101.686 186.03 100.086 186.963 96.486C187.897 92.6193 190.563 93.686 191.097 98.086ZM208.697 106.619C208.697 109.286 204.697 110.353 202.563 108.219C200.963 106.486 200.963 105.819 202.963 103.153C204.963 100.086 205.23 100.086 206.963 102.353C207.897 103.819 208.697 105.686 208.697 106.619ZM199.097 103.153C198.83 103.953 198.03 104.486 197.363 104.486C196.697 104.486 195.897 103.953 195.63 103.153C195.363 102.353 196.163 101.686 197.363 101.686C198.563 101.686 199.363 102.353 199.097 103.153ZM232.43 107.686C234.03 111.02 235.364 114.486 235.364 115.42C235.364 116.886 219.23 125.02 216.163 125.02C215.497 125.02 213.897 121.686 212.43 117.686C209.763 109.553 209.097 110.619 219.897 104.753C222.964 103.153 226.297 101.819 227.364 101.819C228.43 101.819 230.697 104.486 232.43 107.686ZM194.03 105.153C194.03 107.419 191.097 107.019 190.297 104.619C190.03 103.686 190.697 103.019 191.897 103.019C193.097 103.019 194.03 103.953 194.03 105.153ZM188.697 108.219C188.697 109.819 186.03 111.553 185.097 110.619C184.163 109.686 185.897 107.019 187.497 107.019C188.163 107.019 188.697 107.553 188.697 108.219ZM202.03 112.353C204.963 119.42 198.83 123.42 194.697 117.153C192.963 114.62 192.83 113.286 194.03 111.153C196.163 107.019 200.03 107.686 202.03 112.353ZM189.763 114.486C186.43 117.82 184.163 116.353 186.83 112.62C188.43 110.353 189.363 109.819 190.43 110.886C191.497 111.953 191.363 113.02 189.763 114.486ZM211.23 127.02V130.353L208.03 126.353C204.43 121.953 203.363 113.02 206.297 112.086C208.163 111.42 211.23 121.02 211.23 127.02ZM194.03 121.02C194.03 121.953 193.097 123.42 192.03 124.353C190.43 125.686 189.763 125.286 188.43 122.353C187.097 119.42 187.23 118.62 188.697 117.686C190.83 116.353 194.03 118.353 194.03 121.02ZM188.697 128.353C188.697 129.553 188.03 131.153 187.097 132.086C185.897 133.286 184.83 132.486 182.43 129.02C178.963 123.953 178.696 122.22 181.096 121.286C183.23 120.486 188.697 125.553 188.697 128.353ZM234.697 136.486C234.43 144.486 233.764 151.687 233.364 152.487C232.83 153.153 228.297 155.82 223.23 158.353L214.03 163.02V158.62C214.03 155.153 214.83 153.82 218.03 151.953C220.297 150.62 222.03 148.887 222.03 148.22C222.03 147.42 220.297 144.22 218.164 141.153C215.897 137.953 213.763 133.82 213.23 131.953C212.563 129.02 212.83 128.353 214.963 128.353C216.43 128.353 221.097 126.62 225.497 124.486C229.764 122.353 233.764 120.886 234.43 121.286C234.964 121.553 235.097 128.486 234.697 136.486ZM198.03 126.486C198.03 127.686 199.23 133.82 200.697 140.086C202.297 146.487 203.763 153.02 204.163 154.62C204.43 156.353 205.63 157.687 206.697 157.687C208.963 157.687 209.363 155.553 207.363 154.353C206.697 153.953 206.03 151.687 206.03 149.553C206.03 146.62 206.83 145.287 209.23 144.353C210.963 143.686 212.83 142.486 213.363 141.686C214.03 140.62 214.83 141.02 216.163 142.62C219.097 146.62 218.297 149.02 213.097 151.553C209.763 153.153 208.697 154.22 209.897 154.887C210.83 155.553 211.363 157.553 211.097 159.553L210.697 163.153L197.763 154.887C182.296 145.287 182.03 144.486 190.163 131.686C195.23 123.553 198.03 121.82 198.03 126.486ZM204.43 125.686C206.03 128.353 205.63 131.02 203.497 131.02C202.563 131.02 199.363 125.286 199.363 123.686C199.363 121.82 202.963 123.42 204.43 125.686ZM180.03 130.486C183.363 136.22 183.763 140.353 180.696 140.353C180.03 140.353 179.363 139.553 179.363 138.62C179.363 137.686 177.896 134.753 176.03 131.953C172.83 127.286 172.563 124.353 175.363 124.353C175.896 124.353 178.03 127.153 180.03 130.486ZM212.697 137.953C212.697 139.686 206.163 143.286 204.697 142.353C202.563 141.02 203.097 134.753 205.763 132.886C207.63 131.42 208.297 131.553 210.297 134.086C211.63 135.686 212.697 137.42 212.697 137.953Z" fill="white"/>
<path d="M196.295 112.885C195.495 114.885 196.429 116.352 198.295 116.352C198.829 116.352 199.362 115.152 199.362 113.685C199.362 110.618 197.362 110.085 196.295 112.885Z" fill="white"/>
<path d="M222.297 131.684C220.164 136.218 220.297 137.551 222.564 134.618C223.897 132.884 224.697 132.618 225.364 133.818C226.031 134.751 225.231 136.218 223.631 137.551C219.364 140.751 221.631 143.684 226.431 141.284C228.431 140.218 229.498 139.018 228.964 138.484C228.431 137.951 228.031 136.484 227.897 135.284C227.497 129.284 227.231 128.351 225.631 128.351C224.564 128.351 223.097 129.818 222.297 131.684Z" fill="white"/>
<defs>
<filter id="filter0_f_939_4606" x="39.7888" y="71.8865" width="9.30516" height="13.1997" filterUnits="userSpaceOnUse" color-interpolation-filters="sRGB">
<feFlood flood-opacity="0" result="BackgroundImageFix"/>
<feBlend mode="normal" in="SourceGraphic" in2="BackgroundImageFix" result="shape"/>
<feGaussianBlur stdDeviation="1.03332" result="effect1_foregroundBlur_939_4606"/>
</filter>
<filter id="filter1_f_939_4606" x="66.699" y="81.1834" width="8.35204" height="6.77" filterUnits="userSpaceOnUse" color-interpolation-filters="sRGB">
<feFlood flood-opacity="0" result="BackgroundImageFix"/>
<feBlend mode="normal" in="SourceGraphic" in2="BackgroundImageFix" result="shape"/>
<feGaussianBlur stdDeviation="1.03332" result="effect1_foregroundBlur_939_4606"/>
</filter>
<filter id="filter2_f_939_4606" x="95.1873" y="83.824" width="10.727" height="7.5825" filterUnits="userSpaceOnUse" color-interpolation-filters="sRGB">
<feFlood flood-opacity="0" result="BackgroundImageFix"/>
<feBlend mode="normal" in="SourceGraphic" in2="BackgroundImageFix" result="shape"/>
<feGaussianBlur stdDeviation="1.03332" result="effect1_foregroundBlur_939_4606"/>
</filter>
<filter id="filter3_f_939_4606" x="30.5584" y="89.1404" width="10.2427" height="7.8286" filterUnits="userSpaceOnUse" color-interpolation-filters="sRGB">
<feFlood flood-opacity="0" result="BackgroundImageFix"/>
<feBlend mode="normal" in="SourceGraphic" in2="BackgroundImageFix" result="shape"/>
<feGaussianBlur stdDeviation="1.03332" result="effect1_foregroundBlur_939_4606"/>
</filter>
<filter id="filter4_f_939_4606" x="89.9099" y="93.0857" width="11.4966" height="6.73875" filterUnits="userSpaceOnUse" color-interpolation-filters="sRGB">
<feFlood flood-opacity="0" result="BackgroundImageFix"/>
<feBlend mode="normal" in="SourceGraphic" in2="BackgroundImageFix" result="shape"/>
<feGaussianBlur stdDeviation="1.03332" result="effect1_foregroundBlur_939_4606"/>
</filter>
<filter id="filter5_f_939_4606" x="16.4412" y="94.4373" width="11.5356" height="8.0825" filterUnits="userSpaceOnUse" color-interpolation-filters="sRGB">
<feFlood flood-opacity="0" result="BackgroundImageFix"/>
<feBlend mode="normal" in="SourceGraphic" in2="BackgroundImageFix" result="shape"/>
<feGaussianBlur stdDeviation="1.03332" result="effect1_foregroundBlur_939_4606"/>
</filter>
<filter id="filter6_f_939_4606" x="56.4724" y="95.7732" width="11.7427" height="7.645" filterUnits="userSpaceOnUse" color-interpolation-filters="sRGB">
<feFlood flood-opacity="0" result="BackgroundImageFix"/>
<feBlend mode="normal" in="SourceGraphic" in2="BackgroundImageFix" result="shape"/>
<feGaussianBlur stdDeviation="1.03332" result="effect1_foregroundBlur_939_4606"/>
</filter>
<filter id="filter7_f_939_4606" x="39.199" y="100.988" width="11.2309" height="8.4536" filterUnits="userSpaceOnUse" color-interpolation-filters="sRGB">
<feFlood flood-opacity="0" result="BackgroundImageFix"/>
<feBlend mode="normal" in="SourceGraphic" in2="BackgroundImageFix" result="shape"/>
<feGaussianBlur stdDeviation="1.03332" result="effect1_foregroundBlur_939_4606"/>
</filter>
<filter id="filter8_f_939_4606" x="73.3162" y="100.969" width="11.4966" height="6.77" filterUnits="userSpaceOnUse" color-interpolation-filters="sRGB">
<feFlood flood-opacity="0" result="BackgroundImageFix"/>
<feBlend mode="normal" in="SourceGraphic" in2="BackgroundImageFix" result="shape"/>
<feGaussianBlur stdDeviation="1.03332" result="effect1_foregroundBlur_939_4606"/>
</filter>
<filter id="filter9_f_939_4606" x="54.3005" y="107.562" width="10.727" height="6.77" filterUnits="userSpaceOnUse" color-interpolation-filters="sRGB">
<feFlood flood-opacity="0" result="BackgroundImageFix"/>
<feBlend mode="normal" in="SourceGraphic" in2="BackgroundImageFix" result="shape"/>
<feGaussianBlur stdDeviation="1.03332" result="effect1_foregroundBlur_939_4606"/>
</filter>
<filter id="filter10_f_939_4606" x="119.219" y="16.6912" width="24.6177" height="24.4966" filterUnits="userSpaceOnUse" color-interpolation-filters="sRGB">
<feFlood flood-opacity="0" result="BackgroundImageFix"/>
<feBlend mode="normal" in="SourceGraphic" in2="BackgroundImageFix" result="shape"/>
<feGaussianBlur stdDeviation="1.03332" result="effect1_foregroundBlur_939_4606"/>
</filter>
<filter id="filter11_f_939_4606" x="155.176" y="35.2576" width="26.2231" height="24.4067" filterUnits="userSpaceOnUse" color-interpolation-filters="sRGB">
<feFlood flood-opacity="0" result="BackgroundImageFix"/>
<feBlend mode="normal" in="SourceGraphic" in2="BackgroundImageFix" result="shape"/>
<feGaussianBlur stdDeviation="1.03332" result="effect1_foregroundBlur_939_4606"/>
</filter>
<filter id="filter12_f_939_4606" x="186.98" y="55.8591" width="26.4028" height="22.0708" filterUnits="userSpaceOnUse" color-interpolation-filters="sRGB">
<feFlood flood-opacity="0" result="BackgroundImageFix"/>
<feBlend mode="normal" in="SourceGraphic" in2="BackgroundImageFix" result="shape"/>
<feGaussianBlur stdDeviation="1.03332" result="effect1_foregroundBlur_939_4606"/>
</filter>
<filter id="filter13_f_939_4606" x="101.98" y="43.6091" width="15.7153" height="12.227" filterUnits="userSpaceOnUse" color-interpolation-filters="sRGB">
<feFlood flood-opacity="0" result="BackgroundImageFix"/>
<feBlend mode="normal" in="SourceGraphic" in2="BackgroundImageFix" result="shape"/>
<feGaussianBlur stdDeviation="1.03332" result="effect1_foregroundBlur_939_4606"/>
</filter>
<filter id="filter14_f_939_4606" x="124.094" y="55.8045" width="22.5356" height="17.2036" filterUnits="userSpaceOnUse" color-interpolation-filters="sRGB">
<feFlood flood-opacity="0" result="BackgroundImageFix"/>
<feBlend mode="normal" in="SourceGraphic" in2="BackgroundImageFix" result="shape"/>
<feGaussianBlur stdDeviation="1.03332" result="effect1_foregroundBlur_939_4606"/>
</filter>
<filter id="filter15_f_939_4606" x="155.609" y="74.4998" width="21.4809" height="16.7036" filterUnits="userSpaceOnUse" color-interpolation-filters="sRGB">
<feFlood flood-opacity="0" result="BackgroundImageFix"/>
<feBlend mode="normal" in="SourceGraphic" in2="BackgroundImageFix" result="shape"/>
<feGaussianBlur stdDeviation="1.03332" result="effect1_foregroundBlur_939_4606"/>
</filter>
<filter id="filter16_f_939_4606" x="192.097" y="96.3943" width="22.477" height="14.5473" filterUnits="userSpaceOnUse" color-interpolation-filters="sRGB">
<feFlood flood-opacity="0" result="BackgroundImageFix"/>
<feBlend mode="normal" in="SourceGraphic" in2="BackgroundImageFix" result="shape"/>
<feGaussianBlur stdDeviation="1.03332" result="effect1_foregroundBlur_939_4606"/>
</filter>
<filter id="filter17_f_939_4606" x="249.961" y="80.6052" width="10.3325" height="8.2661" filterUnits="userSpaceOnUse" color-interpolation-filters="sRGB">
<feFlood flood-opacity="0" result="BackgroundImageFix"/>
<feBlend mode="normal" in="SourceGraphic" in2="BackgroundImageFix" result="shape"/>
<feGaussianBlur stdDeviation="1.03332" result="effect1_foregroundBlur_939_4606"/>
</filter>
<filter id="filter18_f_939_4606" x="123.363" y="110.051" width="13.6216" height="7.15282" filterUnits="userSpaceOnUse" color-interpolation-filters="sRGB">
<feFlood flood-opacity="0" result="BackgroundImageFix"/>
<feBlend mode="normal" in="SourceGraphic" in2="BackgroundImageFix" result="shape"/>
<feGaussianBlur stdDeviation="1.03332" result="effect1_foregroundBlur_939_4606"/>
</filter>
<filter id="filter19_f_939_4606" x="131.652" y="110.414" width="26.227" height="9.48094" filterUnits="userSpaceOnUse" color-interpolation-filters="sRGB">
<feFlood flood-opacity="0" result="BackgroundImageFix"/>
<feBlend mode="normal" in="SourceGraphic" in2="BackgroundImageFix" result="shape"/>
<feGaussianBlur stdDeviation="1.03332" result="effect1_foregroundBlur_939_4606"/>
</filter>
<filter id="filter20_f_939_4606" x="167.871" y="123.426" width="14.5122" height="6.89891" filterUnits="userSpaceOnUse" color-interpolation-filters="sRGB">
<feFlood flood-opacity="0" result="BackgroundImageFix"/>
<feBlend mode="normal" in="SourceGraphic" in2="BackgroundImageFix" result="shape"/>
<feGaussianBlur stdDeviation="1.03332" result="effect1_foregroundBlur_939_4606"/>
</filter>
<filter id="filter21_f_939_4606" x="154.472" y="125.801" width="21.1997" height="8.42625" filterUnits="userSpaceOnUse" color-interpolation-filters="sRGB">
<feFlood flood-opacity="0" result="BackgroundImageFix"/>
<feBlend mode="normal" in="SourceGraphic" in2="BackgroundImageFix" result="shape"/>
<feGaussianBlur stdDeviation="1.03332" result="effect1_foregroundBlur_939_4606"/>
</filter>
<filter id="filter22_f_939_4606" x="102.39" y="130.844" width="17.9341" height="8.26219" filterUnits="userSpaceOnUse" color-interpolation-filters="sRGB">
<feFlood flood-opacity="0" result="BackgroundImageFix"/>
<feBlend mode="normal" in="SourceGraphic" in2="BackgroundImageFix" result="shape"/>
<feGaussianBlur stdDeviation="1.03332" result="effect1_foregroundBlur_939_4606"/>
</filter>
<filter id="filter23_f_939_4606" x="114.797" y="132.476" width="25.2075" height="10.4497" filterUnits="userSpaceOnUse" color-interpolation-filters="sRGB">
<feFlood flood-opacity="0" result="BackgroundImageFix"/>
<feBlend mode="normal" in="SourceGraphic" in2="BackgroundImageFix" result="shape"/>
<feGaussianBlur stdDeviation="1.03332" result="effect1_foregroundBlur_939_4606"/>
</filter>
<filter id="filter24_f_939_4606" x="82.0349" y="140.914" width="25.9067" height="10.9731" filterUnits="userSpaceOnUse" color-interpolation-filters="sRGB">
<feFlood flood-opacity="0" result="BackgroundImageFix"/>
<feBlend mode="normal" in="SourceGraphic" in2="BackgroundImageFix" result="shape"/>
<feGaussianBlur stdDeviation="1.03332" result="effect1_foregroundBlur_939_4606"/>
</filter>
<filter id="filter25_f_939_4606" x="67.0896" y="148.015" width="23.4692" height="7.78563" filterUnits="userSpaceOnUse" color-interpolation-filters="sRGB">
<feFlood flood-opacity="0" result="BackgroundImageFix"/>
<feBlend mode="normal" in="SourceGraphic" in2="BackgroundImageFix" result="shape"/>
<feGaussianBlur stdDeviation="1.03332" result="effect1_foregroundBlur_939_4606"/>
</filter>
<filter id="filter26_f_939_4606" x="98.8318" y="153.551" width="15.6958" height="6.75829" filterUnits="userSpaceOnUse" color-interpolation-filters="sRGB">
<feFlood flood-opacity="0" result="BackgroundImageFix"/>
<feBlend mode="normal" in="SourceGraphic" in2="BackgroundImageFix" result="shape"/>
<feGaussianBlur stdDeviation="1.03332" result="effect1_foregroundBlur_939_4606"/>
</filter>
<filter id="filter27_f_939_4606" x="110.551" y="153.711" width="21.645" height="9.52782" filterUnits="userSpaceOnUse" color-interpolation-filters="sRGB">
<feFlood flood-opacity="0" result="BackgroundImageFix"/>
<feBlend mode="normal" in="SourceGraphic" in2="BackgroundImageFix" result="shape"/>
<feGaussianBlur stdDeviation="1.03332" result="effect1_foregroundBlur_939_4606"/>
</filter>
<filter id="filter28_f_939_4606" x="165.071" y="60.1886" width="77.24" height="110.056" filterUnits="userSpaceOnUse" color-interpolation-filters="sRGB">
<feFlood flood-opacity="0" result="BackgroundImageFix"/>
<feBlend mode="normal" in="SourceGraphic" in2="BackgroundImageFix" result="shape"/>
<feGaussianBlur stdDeviation="1.67915" result="effect1_foregroundBlur_939_4606"/>
</filter>
</defs>
</svg>
