<svg width="29" height="34" viewBox="0 0 29 34" fill="none" xmlns="http://www.w3.org/2000/svg">
<path d="M1.25 25.1713V9.38955C1.25 8.16717 1.95301 7.05375 3.05666 6.52821L12.0363 2.25217C13.0637 1.76294 14.2746 1.86207 15.2087 2.51191L25.972 9.99941C26.8236 10.5919 27.3314 11.5636 27.3314 12.601V23.4315C27.3314 24.5151 26.7778 25.5236 25.8636 26.1053L16.0944 32.322C15.0044 33.0157 13.6023 32.9782 12.5509 32.2272L7.31921 28.4903C6.48635 27.8954 5.99207 26.9349 5.99207 25.9114V13.9015C5.99207 12.801 6.56302 11.7792 7.5003 11.2024L11.8368 8.53384C12.9573 7.84431 14.3872 7.91876 15.4301 8.72093L20.1669 12.3646C20.9468 12.9646 21.4038 13.8927 21.4038 14.8766V21.1041C21.4038 22.1638 20.8742 23.1533 19.9925 23.7411L16.0486 26.3703C14.9841 27.08 13.5973 27.08 12.5327 26.3703L12.1454 26.1121C11.2637 25.5243 10.7341 24.5348 10.7341 23.4752V15.5049C10.7341 14.899 11.1031 14.3541 11.6657 14.129V14.129C12.6391 13.7396 13.6979 14.4565 13.6979 15.5049V15.6871" stroke="#BFFF6F" stroke-width="2.37103" stroke-linecap="round"/>
</svg>
