<svg width="142" height="36" viewBox="0 0 142 36" fill="none" xmlns="http://www.w3.org/2000/svg">
<rect x="1.16667" y="1.16667" width="139.667" height="33.6667" fill="#469C4E" stroke="white" stroke-width="2.33333"/>
<rect x="44" y="3" width="94" height="3" fill="#5EAE66"/>
<rect x="6" y="28" width="94" height="3" fill="#5EAE66"/>
<rect x="5" y="16" width="38" height="3" fill="#5EAE66"/>
<rect x="102" y="19" width="36" height="3" fill="#5EAE66"/>
<rect x="62" y="11" width="38" height="3" fill="#5EAE66"/>
<path d="M15.4421 18.2737V19.7053H16.5158V21.1368H16.8737V22.5684H15.4421V21.1368H15.0842V19.7053H11.1474V22.5684H15.4421V24H9.71579V13.9789H15.4421V15.4105H16.5158V16.8421H16.8737V18.2737H15.4421V16.8421H15.0842V15.4105H11.1474V18.2737H15.4421ZM26.6028 13.9789H28.0344V21.1368H26.9607V22.5684H26.2449V24H21.9502V22.5684H21.2344V21.1368H20.1607V13.9789H21.5923V21.1368H22.666V22.5684H25.5291V21.1368H26.6028V13.9789ZM37.7747 15.4105V13.9789H39.2063V15.4105H38.4905V16.8421H37.7747V18.2737H37.0589V19.7053H35.9853V24H34.5537V19.7053H33.48V18.2737H32.7642V16.8421H32.0484V15.4105H31.3326V13.9789H32.7642V15.4105H33.48V16.8421H34.1958V18.2737H34.9116V19.7053H35.6274V18.2737H36.3432V16.8421H37.0589V15.4105H37.7747ZM54.3838 18.2737V19.7053H52.9523V21.1368H51.5207V19.7053H50.0891V24H48.6575V13.9789H54.3838V15.4105H55.4575V16.8421H55.8154V18.2737H54.3838V16.8421H54.026V15.4105H50.0891V18.2737H54.3838ZM54.3838 21.1368V22.5684H52.9523V21.1368H54.3838ZM55.8154 22.5684V24H54.3838V22.5684H55.8154ZM60.534 15.4105V18.2737H64.8288V19.7053H60.534V22.5684H66.2604V24H59.1025V13.9789H66.2604V15.4105H60.534ZM76.3474 18.2737V19.7053H77.4211V22.5684H76.3474V24H70.6211V22.5684H69.9053V21.1368H71.3369V22.5684H75.9895V19.7053H70.6211V18.2737H69.5474V15.4105H70.2632V13.9789H75.9895V15.4105H77.0632V16.8421H75.6316V15.4105H70.979V18.2737H76.3474ZM87.5193 15.4105V16.8421H88.593V21.1368H87.5193V22.5684H86.8035V24H82.5088V22.5684H81.793V21.1368H80.7193V16.8421H81.793V15.4105H82.5088V13.9789H86.8035V15.4105H87.5193ZM87.1614 21.1368V16.8421H86.0877V15.4105H83.2246V16.8421H82.1509V21.1368H83.2246V22.5684H86.0877V21.1368H87.1614ZM98.3333 13.9789H99.7649V21.1368H98.6912V22.5684H97.9754V24H93.6807V22.5684H92.9649V21.1368H91.8912V13.9789H93.3228V21.1368H94.3965V22.5684H97.2596V21.1368H98.3333V13.9789ZM108.789 18.2737V19.7053H107.358V21.1368H105.926V19.7053H104.495V24H103.063V13.9789H108.789V15.4105H109.863V16.8421H110.221V18.2737H108.789V16.8421H108.432V15.4105H104.495V18.2737H108.789ZM108.789 21.1368V22.5684H107.358V21.1368H108.789ZM110.221 22.5684V24H108.789V22.5684H110.221ZM119.592 13.9789V15.4105H116.013V16.8421H114.94V21.1368H116.013V22.5684H119.592V24H115.298V22.5684H114.582V21.1368H113.508V16.8421H114.582V15.4105H115.298V13.9789H119.592ZM121.024 15.4105V16.8421H119.592V15.4105H121.024ZM119.592 21.1368H121.024V22.5684H119.592V21.1368ZM125.748 15.4105V18.2737H130.043V19.7053H125.748V22.5684H131.474V24H124.316V13.9789H131.474V15.4105H125.748Z" fill="white"/>
</svg>
