<svg width="100%" height="100%" viewBox="0 0 30 39" fill="none" xmlns="http://www.w3.org/2000/svg">
<path d="M11.2482 15.25C13.2482 13.0833 17.3482 8.65 17.7482 8.25L24.25 20.75L26.75 31.25L21.25 36.75L12.25 38.25L7.7482 34.25C7.58154 32.4167 7.3482 28.65 7.7482 28.25C8.1482 27.85 10.2482 19.4167 11.2482 15.25Z" fill="#CE3838"/>
<path d="M28 21V15.75H26.25V14H24.5V8.75H22.75V5.25H21V3.5H19.25V1.75H17.5V0H14V1.75H15.75V5.25H14V8.75H12.25V10.5H10.5V12.25H8.75V14H7V15.75H5.25V21H7V24.5H5.25V22.75H3.5V19.25H1.75V22.75H0V28H1.75V31.5H3.5V33.25H5.25V35H7V36.75H8.75V38.5H22.75V36.75H24.5V35H26.25V33.25H28V29.75H29.75V21H28ZM24.5 33.25H22.75V35H19.25V36.75H12.25V35H10.5V28H12.25V26.25H14V24.5H15.75V22.75H17.5V17.5H15.75V15.75H14V14H15.75V15.75H19.25V19.25H21V28H19.25V31.5H21V29.75H22.75V28H24.5V33.25Z" fill="url(#paint0_linear_1323_5322)"/>
<defs>
<linearGradient id="paint0_linear_1323_5322" x1="14.875" y1="0" x2="14.875" y2="38.5" gradientUnits="userSpaceOnUse">
<stop stop-color="#FFE603"/>
<stop offset="1" stop-color="#FF4141"/>
</linearGradient>
</defs>
</svg>
