<svg width="100%" height="100%" viewBox="0 0 222 168" fill="none" xmlns="http://www.w3.org/2000/svg">
<path d="M39.7021 78.6699C48.2003 78.6699 47.5045 112.974 66.6254 110.85C81.9221 109.15 97.0771 113.682 102.743 116.161" stroke="white" stroke-width="1.06227" stroke-linecap="round"/>
<g filter="url(#filter0_f_2118_6521)">
<path d="M39.1992 78.168C47.6974 78.168 47.5049 112.976 66.6258 110.851C81.9225 109.151 97.0775 113.684 102.743 116.162" stroke="#FFC46C" stroke-width="1.06227" stroke-linecap="round"/>
</g>
<g filter="url(#filter1_f_2118_6521)">
<path d="M159.093 20.945C159.093 30.6414 158.969 30.89 155.985 30.89C154.369 30.89 152.505 31.8845 151.759 33.0033C150.64 35.1167 150.516 35.1167 148.154 32.879C144.922 30.0198 139.949 30.6414 139.452 33.9978C138.706 37.8515 137.214 38.7217 134.355 36.857C132.117 35.4896 131.496 35.4896 130.501 37.1057C128.512 40.2135 129.134 47.4236 131.744 50.7801C133.609 53.142 134.231 55.8769 134.231 62.8384C134.231 71.1673 133.982 71.9132 130.75 74.2751C127.518 76.5128 127.021 76.6371 125.156 74.7724C123.54 73.1563 122.794 73.032 121.302 74.2751C119.935 75.394 118.816 75.5183 116.951 74.3995C114.092 72.9077 110.114 74.3995 108.995 77.1343C108.622 78.2531 107.876 78.1288 106.633 76.5128C104.52 73.6536 100.915 74.8967 99.9204 78.8747C98.8016 83.2256 100.418 89.9385 103.028 92.3005C104.893 94.0408 105.142 95.284 104.271 99.6349C103.774 102.494 103.277 110.574 103.153 117.536C103.153 131.459 103.774 132.702 113.222 136.556C118.692 138.918 119.562 136.929 118.692 124.497C118.194 118.157 118.443 114.055 119.189 113.558C121.054 112.439 125.529 115.174 125.529 117.536C125.529 119.028 125.902 119.152 127.145 118.033C128.885 116.666 136.717 118.779 136.717 120.644C136.717 121.141 137.711 121.638 138.955 121.638C140.198 121.638 142.187 122.384 143.554 123.379C144.922 124.249 147.532 125.368 149.521 125.865C152.878 126.611 152.878 126.735 153.002 138.172C153.126 149.36 153.002 152.965 152.256 153.711C152.132 153.835 150.516 153.338 148.651 152.592C145.543 151.1 145.419 150.603 145.419 142.026C145.419 133.697 145.17 132.826 142.062 130.464C139.079 127.978 138.706 127.978 136.468 129.843C134.852 131.459 134.231 133.697 134.231 139.166V146.501L127.145 143.269C116.33 138.42 116.454 138.42 117.076 140.285C117.324 141.28 123.664 144.636 131.247 147.744C138.706 150.976 146.786 154.457 149.273 155.7C154.245 158.062 153.002 158.559 174.632 145.133C181.469 140.907 182.713 140.658 188.928 141.155C197.381 141.901 204.343 139.042 208.321 133.199L210.932 129.346L208.57 117.66C204.094 95.284 203.97 93.295 206.581 91.0573C209.067 88.6954 209.44 83.7229 207.575 78.8747C206.208 75.2696 202.478 74.6481 200.116 77.5073C198.749 79.1233 198.376 79.1233 197.133 77.6316C196.387 76.6371 194.647 75.6426 193.279 75.394C191.042 75.021 190.793 74.1508 191.166 67.1893C191.539 62.4654 191.042 58.7361 190.171 57.6172C189.053 56.3741 189.177 55.2553 190.793 52.7691C193.403 48.791 192.16 38.846 188.804 37.1057C185.945 35.4896 181.469 35.4896 181.469 37.1057C181.469 39.3433 178.735 38.3488 178.113 35.9868C177.243 32.6304 170.406 31.1386 168.417 33.8735C167.546 34.9923 166.428 35.8625 165.93 35.8625C164.066 35.8625 161.704 31.5116 161.579 28.2795C161.579 25.4203 162.201 24.923 168.79 23.5556C172.643 22.6854 176.621 21.6909 177.367 21.4423C179.48 20.945 177.989 17.2156 175.627 17.2156C172.519 17.2156 161.579 13.2376 161.579 12.1188C161.579 11.4973 161.082 11 160.336 11C159.59 11 159.093 15.1023 159.093 20.945ZM170.779 18.5831C171.4 19.2046 170.53 20.1991 168.541 20.945C163.196 22.934 161.579 22.5611 161.579 19.0803C161.579 16.3454 161.952 16.0968 165.682 16.8427C167.795 17.2156 170.157 17.9615 170.779 18.5831ZM160.461 44.5644C161.082 44.5644 161.579 42.9483 161.579 40.835C161.579 37.4786 161.828 37.23 165.06 37.8515C167.422 38.3488 169.038 37.9758 170.157 36.6084C171.897 34.6194 175.254 35.241 175.254 37.6029C175.254 38.4731 176.746 39.9649 178.486 40.9594C181.345 42.4511 181.842 42.3268 183.458 40.3378C184.826 38.4731 185.447 38.2245 186.939 39.4676C188.182 40.5864 188.431 41.7052 187.685 43.0727C187.064 44.3158 186.318 46.3048 185.82 47.5479C185.323 49.4126 184.826 49.6612 183.707 48.5424C181.345 46.1805 176.248 46.802 173.141 49.7855L170.157 52.5204L169.411 49.6612C168.79 47.0507 168.168 46.802 163.817 47.4236C161.082 47.7965 157.85 49.0397 156.483 50.2828C154.121 52.3961 153.996 52.3961 153.375 50.0342C153.002 48.6667 150.889 46.802 148.775 46.0562C145.17 44.6887 144.549 44.813 142.808 47.2993L140.695 49.9099L138.582 45.9319C136.593 41.9538 136.593 41.7052 139.079 39.0947C140.571 37.6029 141.689 35.6139 141.689 34.868C141.689 32.6304 144.797 33.1277 147.284 35.8625C149.397 38.2245 149.521 38.2245 153.996 35.1167L158.472 32.1331L158.845 38.3488C159.093 41.7052 159.715 44.5644 160.461 44.5644ZM134.231 38.9703C134.231 39.3433 133.982 39.5919 133.609 39.5919C133.236 39.5919 132.988 39.3433 132.988 38.9703C132.988 38.5974 133.236 38.3488 133.609 38.3488C133.982 38.3488 134.231 38.5974 134.231 38.9703ZM135.474 44.5644C135.474 47.0507 139.576 52.0232 141.565 52.0232C142.187 52.0232 143.181 50.9044 143.554 49.5369C144.673 46.1805 147.656 46.4291 149.273 50.0342C151.262 54.1365 156.483 55.0067 159.963 51.7746C162.574 49.2883 162.947 49.2883 165.806 51.2773C169.784 53.7635 174.757 53.8879 175.751 51.4016C176.497 49.2883 180.351 48.9154 182.34 50.9044C184.08 52.6447 188.928 49.6612 188.928 46.802C188.928 45.5589 189.55 44.5644 190.296 44.5644C192.658 44.5644 190.917 49.9099 187.685 52.1475C180.848 57.2443 153.872 58.7361 142.435 54.7581C135.847 52.5204 130.874 47.2993 132.117 44.0672C133.236 41.208 135.474 41.5809 135.474 44.5644ZM147.284 58.4874C154.867 60.1035 178.362 59.109 183.086 56.8714C184.95 56.0012 186.815 55.6282 187.188 56.1255C187.561 56.4984 188.182 61.3466 188.555 66.8164C189.053 73.9022 188.804 77.383 187.685 78.7504C185.572 81.361 183.956 81.1123 183.956 78.1288C183.956 75.5183 181.221 75.8912 177.616 78.999C175.875 80.4908 175.378 80.4908 174.881 79.1233C174.508 77.8802 173.762 78.1288 172.395 79.8692C171.027 81.7339 170.903 83.35 171.773 86.7064C172.519 89.1927 173.638 91.9275 174.259 92.6734C175.005 93.6679 175.13 94.2895 174.384 94.2895C173.762 94.2895 169.411 90.3115 164.687 85.4633C158.845 79.4963 155.612 77.01 154.245 77.5073C153.126 77.8802 148.402 80.4908 143.803 83.35C139.203 86.0848 135.101 88.1982 134.852 87.8252C134.479 87.5766 134.852 85.339 135.474 82.977C136.22 80.7394 136.717 73.5293 136.717 67.065C136.717 56.4984 136.966 55.5039 138.83 56.3741C140.073 56.7471 143.803 57.7416 147.284 58.4874ZM125.529 76.6371C125.529 77.2586 124.161 78.999 122.545 80.4908C119.935 82.8527 119.189 83.1013 116.951 81.7339C114.838 80.2421 114.092 80.4908 111.481 82.8527L108.622 85.5876L105.887 82.7284C102.407 78.999 102.158 75.5183 105.639 78.7504C108.001 80.8637 111.854 80.6151 111.854 78.1288C111.854 76.5128 115.957 76.5128 117.573 78.1288C118.443 78.999 119.686 78.7504 121.302 77.5073C124.037 75.5183 125.529 75.1453 125.529 76.6371ZM134.231 76.6371C134.231 78.0045 129.134 80.8637 128.264 79.9935C127.766 79.4963 128.512 78.3775 129.755 77.383C132.49 75.5183 134.231 75.1453 134.231 76.6371ZM185.447 83.1013C186.318 83.1013 188.182 81.8582 189.798 80.3665C192.409 77.8802 192.782 77.8802 194.895 79.7449C197.754 82.3555 198.749 82.3555 201.608 79.7449C202.851 78.6261 203.846 78.3775 203.846 79.1233C203.846 79.8692 203.224 80.8637 202.478 81.2366C201.857 81.7339 200.614 83.4743 199.992 85.2147C198.873 88.1982 198.625 88.1982 196.014 86.4578C192.658 84.2202 186.566 85.0903 184.329 87.9495C182.961 89.6899 182.713 89.6899 180.972 87.4523C178.859 84.7174 178.61 83.1013 179.729 79.9935C180.475 78.2531 180.724 78.3775 182.34 80.6151C183.334 81.9825 184.702 83.1013 185.447 83.1013ZM124.037 87.5766C121.675 90.0628 108.498 92.0518 105.514 90.5601C103.153 89.1927 101.164 84.7174 102.407 83.35C102.904 82.977 104.023 83.8472 105.142 85.339C107.503 88.6954 109.12 88.8197 112.476 85.5876C114.962 83.35 115.335 83.2256 116.827 84.966C119.065 87.7009 121.178 87.2037 123.167 83.4743C124.907 80.2421 124.907 80.2421 125.28 83.1013C125.529 84.5931 124.907 86.7064 124.037 87.5766ZM132.366 85.8362C131.869 88.8197 130.75 92.0518 129.755 93.0463C128.264 94.5381 128.015 94.0408 128.015 89.1927C128.015 83.9715 129.631 80.6151 132.117 80.6151C132.739 80.6151 132.863 82.977 132.366 85.8362ZM163.196 87.8252C167.049 91.8032 170.281 95.284 170.281 95.7812C170.281 96.6514 154.618 105.478 153.002 105.478C151.759 105.478 138.83 89.317 139.452 88.5711C140.695 87.328 153.623 80.6151 154.742 80.6151C155.488 80.6151 159.218 83.8472 163.196 87.8252ZM206.083 85.8362C205.462 90.0628 198.625 93.295 189.053 94.0408C180.972 94.5381 180.599 94.5381 176.621 90.4358C171.649 85.4633 173.762 83.7229 178.859 88.5711C182.961 92.5491 184.702 92.6734 187.561 89.1927C189.674 86.5821 189.798 86.5821 193.031 88.5711C197.133 91.306 201.111 90.1872 202.105 86.0848C203.1 82.2311 206.705 81.9825 206.083 85.8362ZM123.788 98.6404C122.172 99.8835 122.297 100.381 124.659 102.743C126.648 104.856 126.896 105.851 125.902 106.845C124.783 107.964 123.913 107.964 122.421 106.721C120.929 105.478 120.183 105.478 118.692 106.721C117.2 107.964 116.827 111.32 116.827 121.763C116.827 129.221 116.578 135.313 116.205 135.313C115.832 135.313 113.346 133.945 110.611 132.205C105.017 128.6 104.893 127.978 106.385 105.851L107.255 94.5381L116.081 92.922L124.907 91.1817L125.28 94.2895C125.529 95.9055 124.907 97.8945 123.788 98.6404ZM141.938 96.5271C147.656 103.986 148.9 107.342 148.278 113.185L147.656 117.66L139.452 114.552C134.852 112.936 130.626 111.072 130.128 110.574C129.631 110.077 128.885 106.969 128.388 103.613C127.766 97.8945 127.891 97.3973 131.869 94.1652C134.231 92.1762 136.344 90.5601 136.717 90.5601C137.09 90.5601 139.452 93.295 141.938 96.5271ZM201.732 96.4028C202.105 97.6459 203.597 105.478 205.213 113.807C207.948 128.227 207.948 128.973 205.835 132.205C203.224 136.183 196.884 139.042 190.917 139.042H186.691L185.945 127.481C185.572 121.265 185.075 114.055 184.826 111.693C184.577 108.088 183.956 107.218 180.848 106.348C177.491 105.353 177.119 104.732 177.119 100.754V96.1542L186.193 96.6514C191.912 96.9 195.89 96.5271 196.76 95.6569C198.749 93.6679 201.111 94.0408 201.732 96.4028ZM173.886 107.467C173.141 108.337 172.022 108.834 171.4 108.461C169.411 107.342 170.157 99.5106 172.519 97.273C174.508 95.1597 174.632 95.284 175.005 100.381C175.254 103.24 174.757 106.472 173.886 107.467ZM168.914 108.212C169.038 110.823 167.671 112.563 163.32 116.044C156.856 120.892 155.612 121.141 152.38 118.779C149.77 116.79 150.018 110.574 152.878 109.083C153.872 108.461 157.601 106.348 160.958 104.359C167.795 100.256 168.79 100.754 168.914 108.212ZM123.664 109.456C126.275 110.574 128.015 112.936 126.15 112.936C124.659 112.936 119.313 109.953 119.313 108.958C119.313 107.591 119.81 107.715 123.664 109.456ZM180.724 109.58C182.464 110.574 183.583 111.693 183.086 112.066C182.215 112.936 182.464 128.227 183.458 133.324C183.831 135.561 183.086 137.053 180.351 138.918C178.362 140.409 176.373 141.528 175.875 141.528C175.502 141.528 172.768 143.144 169.908 145.009C167.049 146.998 162.698 149.733 160.212 151.225L155.861 153.835V140.534L155.985 127.232L160.088 125.989C162.201 125.368 164.066 124.125 164.066 123.379C164.066 122.508 165.309 121.39 166.801 120.892C168.292 120.519 170.654 119.028 172.022 117.66C173.513 116.293 175.875 114.677 177.491 114.055C180.848 112.688 181.097 110.45 177.74 110.45C176.373 110.45 175.254 109.829 175.254 109.207C175.254 107.467 176.87 107.591 180.724 109.58ZM174.011 112.812C174.011 113.434 173.141 114.304 172.022 114.677C169.038 115.796 168.541 115.547 170.281 113.558C172.022 111.445 174.011 111.072 174.011 112.812ZM132.366 114.179C132.739 114.801 132.49 115.423 131.869 115.423C131.123 115.423 130.501 114.801 130.501 114.179C130.501 113.434 130.75 112.936 130.999 112.936C131.371 112.936 131.993 113.434 132.366 114.179ZM136.717 116.79C136.717 117.536 136.22 117.66 135.474 117.287C134.852 116.914 134.231 115.92 134.231 115.298C134.231 114.552 134.852 114.428 135.474 114.801C136.22 115.174 136.717 116.168 136.717 116.79ZM164.812 119.898C163.444 120.768 162.077 121.39 161.704 121.017C161.455 120.644 162.201 119.525 163.568 118.655C164.812 117.66 166.179 117.163 166.552 117.536C166.925 117.785 166.055 118.903 164.812 119.898ZM147.905 120.022C148.154 120.271 147.656 121.017 146.662 121.638C144.797 122.757 141.689 121.141 141.689 118.903C141.689 117.909 146.413 118.655 147.905 120.022ZM156.98 124.373C155.488 125.989 154.494 126.238 152.753 125.243C149.024 123.379 150.018 121.763 154.618 122.011C158.596 122.26 158.72 122.384 156.98 124.373ZM143.554 134.07C143.927 134.691 143.43 135.313 142.435 135.313C141.316 135.313 140.446 134.691 140.446 134.07C140.446 133.324 140.944 132.826 141.565 132.826C142.311 132.826 143.181 133.324 143.554 134.07ZM138.83 138.048C138.457 139.042 138.084 138.669 138.084 137.302C137.96 135.934 138.333 135.188 138.706 135.686C139.079 136.059 139.203 137.177 138.83 138.048ZM144.176 139.042C144.176 139.664 143.678 140.285 143.057 140.285C142.311 140.285 141.441 139.664 141.068 139.042C140.695 138.296 141.192 137.799 142.187 137.799C143.306 137.799 144.176 138.296 144.176 139.042ZM139.203 142.15C139.203 143.144 138.706 144.015 137.96 144.015C137.338 144.015 136.717 143.144 136.717 142.15C136.717 141.155 137.338 140.285 137.96 140.285C138.706 140.285 139.203 141.155 139.203 142.15ZM144.176 144.76C144.176 146.501 142.684 147.122 141.316 145.755C140.198 144.636 141.814 141.404 143.057 142.274C143.678 142.647 144.176 143.766 144.176 144.76ZM138.582 147.744C138.955 148.365 139.079 148.987 138.706 148.987C138.333 148.987 137.711 148.365 137.338 147.744C136.966 146.998 136.841 146.501 137.214 146.501C137.587 146.501 138.209 146.998 138.582 147.744ZM143.803 149.857C143.306 150.23 142.56 150.23 142.062 149.857C141.689 149.36 142.062 148.987 142.933 148.987C143.803 148.987 144.176 149.36 143.803 149.857Z" fill="#FFD464"/>
<path d="M141.94 66.5646C142.437 71.4128 145.421 71.7857 145.421 67.0618C145.421 64.4513 144.799 63.2082 143.432 63.2082C142.064 63.2082 141.691 64.2027 141.94 66.5646Z" fill="#FFD464"/>
<path d="M136.718 102.365C136.718 104.105 137.339 105.473 137.961 105.473C138.707 105.473 139.204 104.105 139.204 102.365C139.204 100.624 138.707 99.257 137.961 99.257C137.339 99.257 136.718 100.624 136.718 102.365Z" fill="#FFD464"/>
<path d="M163.449 106.848C162.206 108.712 163.822 109.956 165.438 108.339C166.308 107.469 166.308 106.723 165.562 106.226C164.816 105.853 163.822 106.102 163.449 106.848Z" fill="#FFD464"/>
<path d="M154.738 111.813C153.495 113.677 155.111 114.92 156.727 113.304C157.597 112.434 157.597 111.688 156.851 111.191C156.105 110.818 155.111 111.067 154.738 111.813Z" fill="#FFD464"/>
<path d="M175.25 123.503C175.25 125.865 175.872 127.854 176.493 127.854C177.239 127.854 177.736 125.865 177.736 123.503C177.736 121.141 177.239 119.152 176.493 119.152C175.872 119.152 175.25 121.141 175.25 123.503Z" fill="#FFD464"/>
<path d="M160.339 133.447C160.339 135.436 161.085 136.555 162.204 136.555C163.322 136.555 164.068 135.436 164.068 133.447C164.068 131.458 163.322 130.339 162.204 130.339C161.085 130.339 160.339 131.458 160.339 133.447Z" fill="#FFD464"/>
<path d="M144.178 121.017C144.178 121.39 144.426 121.639 144.799 121.639C145.172 121.639 145.421 121.39 145.421 121.017C145.421 120.644 145.172 120.396 144.799 120.396C144.426 120.396 144.178 120.644 144.178 121.017Z" fill="#FFD464"/>
<path d="M125.282 125.989C125.531 128.351 126.028 130.34 126.277 130.34C126.525 130.34 126.774 128.351 126.774 125.989C126.774 123.627 126.277 121.638 125.779 121.638C125.282 121.638 125.033 123.627 125.282 125.989Z" fill="#FFD464"/>
<path d="M123.043 128.474C123.043 128.847 123.292 129.096 123.665 129.096C124.037 129.096 124.286 128.847 124.286 128.474C124.286 128.101 124.037 127.853 123.665 127.853C123.292 127.853 123.043 128.101 123.043 128.474Z" fill="#FFD464"/>
</g>
<path d="M159.093 20.945C159.093 30.6414 158.969 30.89 155.985 30.89C154.369 30.89 152.505 31.8845 151.759 33.0033C150.64 35.1167 150.516 35.1167 148.154 32.879C144.922 30.0198 139.949 30.6414 139.452 33.9978C138.706 37.8515 137.214 38.7217 134.355 36.857C132.117 35.4896 131.496 35.4896 130.501 37.1057C128.512 40.2135 129.134 47.4236 131.744 50.7801C133.609 53.142 134.231 55.8769 134.231 62.8384C134.231 71.1673 133.982 71.9132 130.75 74.2751C127.518 76.5128 127.021 76.6371 125.156 74.7724C123.54 73.1563 122.794 73.032 121.302 74.2751C119.935 75.394 118.816 75.5183 116.951 74.3995C114.092 72.9077 110.114 74.3995 108.995 77.1343C108.622 78.2531 107.876 78.1288 106.633 76.5128C104.52 73.6536 100.915 74.8967 99.9204 78.8747C98.8016 83.2256 100.418 89.9385 103.028 92.3005C104.893 94.0408 105.142 95.284 104.271 99.6349C103.774 102.494 103.277 110.574 103.153 117.536C103.153 131.459 103.774 132.702 113.222 136.556C118.692 138.918 119.562 136.929 118.692 124.497C118.194 118.157 118.443 114.055 119.189 113.558C121.054 112.439 125.529 115.174 125.529 117.536C125.529 119.028 125.902 119.152 127.145 118.033C128.885 116.666 136.717 118.779 136.717 120.644C136.717 121.141 137.711 121.638 138.955 121.638C140.198 121.638 142.187 122.384 143.554 123.379C144.922 124.249 147.532 125.368 149.521 125.865C152.878 126.611 152.878 126.735 153.002 138.172C153.126 149.36 153.002 152.965 152.256 153.711C152.132 153.835 150.516 153.338 148.651 152.592C145.543 151.1 145.419 150.603 145.419 142.026C145.419 133.697 145.17 132.826 142.062 130.464C139.079 127.978 138.706 127.978 136.468 129.843C134.852 131.459 134.231 133.697 134.231 139.166V146.501L127.145 143.269C116.33 138.42 116.454 138.42 117.076 140.285C117.324 141.28 123.664 144.636 131.247 147.744C138.706 150.976 146.786 154.457 149.273 155.7C154.245 158.062 153.002 158.559 174.632 145.133C181.469 140.907 182.713 140.658 188.928 141.155C197.381 141.901 204.343 139.042 208.321 133.199L210.932 129.346L208.57 117.66C204.094 95.284 203.97 93.295 206.581 91.0573C209.067 88.6954 209.44 83.7229 207.575 78.8747C206.208 75.2696 202.478 74.6481 200.116 77.5073C198.749 79.1233 198.376 79.1233 197.133 77.6316C196.387 76.6371 194.647 75.6426 193.279 75.394C191.042 75.021 190.793 74.1508 191.166 67.1893C191.539 62.4654 191.042 58.7361 190.171 57.6172C189.053 56.3741 189.177 55.2553 190.793 52.7691C193.403 48.791 192.16 38.846 188.804 37.1057C185.945 35.4896 181.469 35.4896 181.469 37.1057C181.469 39.3433 178.735 38.3488 178.113 35.9868C177.243 32.6304 170.406 31.1386 168.417 33.8735C167.546 34.9923 166.428 35.8625 165.93 35.8625C164.066 35.8625 161.704 31.5116 161.579 28.2795C161.579 25.4203 162.201 24.923 168.79 23.5556C172.643 22.6854 176.621 21.6909 177.367 21.4423C179.48 20.945 177.989 17.2156 175.627 17.2156C172.519 17.2156 161.579 13.2376 161.579 12.1188C161.579 11.4973 161.082 11 160.336 11C159.59 11 159.093 15.1023 159.093 20.945ZM170.779 18.5831C171.4 19.2046 170.53 20.1991 168.541 20.945C163.196 22.934 161.579 22.5611 161.579 19.0803C161.579 16.3454 161.952 16.0968 165.682 16.8427C167.795 17.2156 170.157 17.9615 170.779 18.5831ZM160.461 44.5644C161.082 44.5644 161.579 42.9483 161.579 40.835C161.579 37.4786 161.828 37.23 165.06 37.8515C167.422 38.3488 169.038 37.9758 170.157 36.6084C171.897 34.6194 175.254 35.241 175.254 37.6029C175.254 38.4731 176.746 39.9649 178.486 40.9594C181.345 42.4511 181.842 42.3268 183.458 40.3378C184.826 38.4731 185.447 38.2245 186.939 39.4676C188.182 40.5864 188.431 41.7052 187.685 43.0727C187.064 44.3158 186.318 46.3048 185.82 47.5479C185.323 49.4126 184.826 49.6612 183.707 48.5424C181.345 46.1805 176.248 46.802 173.141 49.7855L170.157 52.5204L169.411 49.6612C168.79 47.0507 168.168 46.802 163.817 47.4236C161.082 47.7965 157.85 49.0397 156.483 50.2828C154.121 52.3961 153.996 52.3961 153.375 50.0342C153.002 48.6667 150.889 46.802 148.775 46.0562C145.17 44.6887 144.549 44.813 142.808 47.2993L140.695 49.9099L138.582 45.9319C136.593 41.9538 136.593 41.7052 139.079 39.0947C140.571 37.6029 141.689 35.6139 141.689 34.868C141.689 32.6304 144.797 33.1277 147.284 35.8625C149.397 38.2245 149.521 38.2245 153.996 35.1167L158.472 32.1331L158.845 38.3488C159.093 41.7052 159.715 44.5644 160.461 44.5644ZM134.231 38.9703C134.231 39.3433 133.982 39.5919 133.609 39.5919C133.236 39.5919 132.988 39.3433 132.988 38.9703C132.988 38.5974 133.236 38.3488 133.609 38.3488C133.982 38.3488 134.231 38.5974 134.231 38.9703ZM135.474 44.5644C135.474 47.0507 139.576 52.0232 141.565 52.0232C142.187 52.0232 143.181 50.9044 143.554 49.5369C144.673 46.1805 147.656 46.4291 149.273 50.0342C151.262 54.1365 156.483 55.0067 159.963 51.7746C162.574 49.2883 162.947 49.2883 165.806 51.2773C169.784 53.7635 174.757 53.8879 175.751 51.4016C176.497 49.2883 180.351 48.9154 182.34 50.9044C184.08 52.6447 188.928 49.6612 188.928 46.802C188.928 45.5589 189.55 44.5644 190.296 44.5644C192.658 44.5644 190.917 49.9099 187.685 52.1475C180.848 57.2443 153.872 58.7361 142.435 54.7581C135.847 52.5204 130.874 47.2993 132.117 44.0672C133.236 41.208 135.474 41.5809 135.474 44.5644ZM147.284 58.4874C154.867 60.1035 178.362 59.109 183.086 56.8714C184.95 56.0012 186.815 55.6282 187.188 56.1255C187.561 56.4984 188.182 61.3466 188.555 66.8164C189.053 73.9022 188.804 77.383 187.685 78.7504C185.572 81.361 183.956 81.1123 183.956 78.1288C183.956 75.5183 181.221 75.8912 177.616 78.999C175.875 80.4908 175.378 80.4908 174.881 79.1233C174.508 77.8802 173.762 78.1288 172.395 79.8692C171.027 81.7339 170.903 83.35 171.773 86.7064C172.519 89.1927 173.638 91.9275 174.259 92.6734C175.005 93.6679 175.13 94.2895 174.384 94.2895C173.762 94.2895 169.411 90.3115 164.687 85.4633C158.845 79.4963 155.612 77.01 154.245 77.5073C153.126 77.8802 148.402 80.4908 143.803 83.35C139.203 86.0848 135.101 88.1982 134.852 87.8252C134.479 87.5766 134.852 85.339 135.474 82.977C136.22 80.7394 136.717 73.5293 136.717 67.065C136.717 56.4984 136.966 55.5039 138.83 56.3741C140.073 56.7471 143.803 57.7416 147.284 58.4874ZM125.529 76.6371C125.529 77.2586 124.161 78.999 122.545 80.4908C119.935 82.8527 119.189 83.1013 116.951 81.7339C114.838 80.2421 114.092 80.4908 111.481 82.8527L108.622 85.5876L105.887 82.7284C102.407 78.999 102.158 75.5183 105.639 78.7504C108.001 80.8637 111.854 80.6151 111.854 78.1288C111.854 76.5128 115.957 76.5128 117.573 78.1288C118.443 78.999 119.686 78.7504 121.302 77.5073C124.037 75.5183 125.529 75.1453 125.529 76.6371ZM134.231 76.6371C134.231 78.0045 129.134 80.8637 128.264 79.9935C127.766 79.4963 128.512 78.3775 129.755 77.383C132.49 75.5183 134.231 75.1453 134.231 76.6371ZM185.447 83.1013C186.318 83.1013 188.182 81.8582 189.798 80.3665C192.409 77.8802 192.782 77.8802 194.895 79.7449C197.754 82.3555 198.749 82.3555 201.608 79.7449C202.851 78.6261 203.846 78.3775 203.846 79.1233C203.846 79.8692 203.224 80.8637 202.478 81.2366C201.857 81.7339 200.614 83.4743 199.992 85.2147C198.873 88.1982 198.625 88.1982 196.014 86.4578C192.658 84.2202 186.566 85.0903 184.329 87.9495C182.961 89.6899 182.713 89.6899 180.972 87.4523C178.859 84.7174 178.61 83.1013 179.729 79.9935C180.475 78.2531 180.724 78.3775 182.34 80.6151C183.334 81.9825 184.702 83.1013 185.447 83.1013ZM124.037 87.5766C121.675 90.0628 108.498 92.0518 105.514 90.5601C103.153 89.1927 101.164 84.7174 102.407 83.35C102.904 82.977 104.023 83.8472 105.142 85.339C107.503 88.6954 109.12 88.8197 112.476 85.5876C114.962 83.35 115.335 83.2256 116.827 84.966C119.065 87.7009 121.178 87.2037 123.167 83.4743C124.907 80.2421 124.907 80.2421 125.28 83.1013C125.529 84.5931 124.907 86.7064 124.037 87.5766ZM132.366 85.8362C131.869 88.8197 130.75 92.0518 129.755 93.0463C128.264 94.5381 128.015 94.0408 128.015 89.1927C128.015 83.9715 129.631 80.6151 132.117 80.6151C132.739 80.6151 132.863 82.977 132.366 85.8362ZM163.196 87.8252C167.049 91.8032 170.281 95.284 170.281 95.7812C170.281 96.6514 154.618 105.478 153.002 105.478C151.759 105.478 138.83 89.317 139.452 88.5711C140.695 87.328 153.623 80.6151 154.742 80.6151C155.488 80.6151 159.218 83.8472 163.196 87.8252ZM206.083 85.8362C205.462 90.0628 198.625 93.295 189.053 94.0408C180.972 94.5381 180.599 94.5381 176.621 90.4358C171.649 85.4633 173.762 83.7229 178.859 88.5711C182.961 92.5491 184.702 92.6734 187.561 89.1927C189.674 86.5821 189.798 86.5821 193.031 88.5711C197.133 91.306 201.111 90.1872 202.105 86.0848C203.1 82.2311 206.705 81.9825 206.083 85.8362ZM123.788 98.6404C122.172 99.8835 122.297 100.381 124.659 102.743C126.648 104.856 126.896 105.851 125.902 106.845C124.783 107.964 123.913 107.964 122.421 106.721C120.929 105.478 120.183 105.478 118.692 106.721C117.2 107.964 116.827 111.32 116.827 121.763C116.827 129.221 116.578 135.313 116.205 135.313C115.832 135.313 113.346 133.945 110.611 132.205C105.017 128.6 104.893 127.978 106.385 105.851L107.255 94.5381L116.081 92.922L124.907 91.1817L125.28 94.2895C125.529 95.9055 124.907 97.8945 123.788 98.6404ZM141.938 96.5271C147.656 103.986 148.9 107.342 148.278 113.185L147.656 117.66L139.452 114.552C134.852 112.936 130.626 111.072 130.128 110.574C129.631 110.077 128.885 106.969 128.388 103.613C127.766 97.8945 127.891 97.3973 131.869 94.1652C134.231 92.1762 136.344 90.5601 136.717 90.5601C137.09 90.5601 139.452 93.295 141.938 96.5271ZM201.732 96.4028C202.105 97.6459 203.597 105.478 205.213 113.807C207.948 128.227 207.948 128.973 205.835 132.205C203.224 136.183 196.884 139.042 190.917 139.042H186.691L185.945 127.481C185.572 121.265 185.075 114.055 184.826 111.693C184.577 108.088 183.956 107.218 180.848 106.348C177.491 105.353 177.119 104.732 177.119 100.754V96.1542L186.193 96.6514C191.912 96.9 195.89 96.5271 196.76 95.6569C198.749 93.6679 201.111 94.0408 201.732 96.4028ZM173.886 107.467C173.141 108.337 172.022 108.834 171.4 108.461C169.411 107.342 170.157 99.5106 172.519 97.273C174.508 95.1597 174.632 95.284 175.005 100.381C175.254 103.24 174.757 106.472 173.886 107.467ZM168.914 108.212C169.038 110.823 167.671 112.563 163.32 116.044C156.856 120.892 155.612 121.141 152.38 118.779C149.77 116.79 150.018 110.574 152.878 109.083C153.872 108.461 157.601 106.348 160.958 104.359C167.795 100.256 168.79 100.754 168.914 108.212ZM123.664 109.456C126.275 110.574 128.015 112.936 126.15 112.936C124.659 112.936 119.313 109.953 119.313 108.958C119.313 107.591 119.81 107.715 123.664 109.456ZM180.724 109.58C182.464 110.574 183.583 111.693 183.086 112.066C182.215 112.936 182.464 128.227 183.458 133.324C183.831 135.561 183.086 137.053 180.351 138.918C178.362 140.409 176.373 141.528 175.875 141.528C175.502 141.528 172.768 143.144 169.908 145.009C167.049 146.998 162.698 149.733 160.212 151.225L155.861 153.835V140.534L155.985 127.232L160.088 125.989C162.201 125.368 164.066 124.125 164.066 123.379C164.066 122.508 165.309 121.39 166.801 120.892C168.292 120.519 170.654 119.028 172.022 117.66C173.513 116.293 175.875 114.677 177.491 114.055C180.848 112.688 181.097 110.45 177.74 110.45C176.373 110.45 175.254 109.829 175.254 109.207C175.254 107.467 176.87 107.591 180.724 109.58ZM174.011 112.812C174.011 113.434 173.141 114.304 172.022 114.677C169.038 115.796 168.541 115.547 170.281 113.558C172.022 111.445 174.011 111.072 174.011 112.812ZM132.366 114.179C132.739 114.801 132.49 115.423 131.869 115.423C131.123 115.423 130.501 114.801 130.501 114.179C130.501 113.434 130.75 112.936 130.999 112.936C131.371 112.936 131.993 113.434 132.366 114.179ZM136.717 116.79C136.717 117.536 136.22 117.66 135.474 117.287C134.852 116.914 134.231 115.92 134.231 115.298C134.231 114.552 134.852 114.428 135.474 114.801C136.22 115.174 136.717 116.168 136.717 116.79ZM164.812 119.898C163.444 120.768 162.077 121.39 161.704 121.017C161.455 120.644 162.201 119.525 163.568 118.655C164.812 117.66 166.179 117.163 166.552 117.536C166.925 117.785 166.055 118.903 164.812 119.898ZM147.905 120.022C148.154 120.271 147.656 121.017 146.662 121.638C144.797 122.757 141.689 121.141 141.689 118.903C141.689 117.909 146.413 118.655 147.905 120.022ZM156.98 124.373C155.488 125.989 154.494 126.238 152.753 125.243C149.024 123.379 150.018 121.763 154.618 122.011C158.596 122.26 158.72 122.384 156.98 124.373ZM143.554 134.07C143.927 134.691 143.43 135.313 142.435 135.313C141.316 135.313 140.446 134.691 140.446 134.07C140.446 133.324 140.944 132.826 141.565 132.826C142.311 132.826 143.181 133.324 143.554 134.07ZM138.83 138.048C138.457 139.042 138.084 138.669 138.084 137.302C137.96 135.934 138.333 135.188 138.706 135.686C139.079 136.059 139.203 137.177 138.83 138.048ZM144.176 139.042C144.176 139.664 143.678 140.285 143.057 140.285C142.311 140.285 141.441 139.664 141.068 139.042C140.695 138.296 141.192 137.799 142.187 137.799C143.306 137.799 144.176 138.296 144.176 139.042ZM139.203 142.15C139.203 143.144 138.706 144.015 137.96 144.015C137.338 144.015 136.717 143.144 136.717 142.15C136.717 141.155 137.338 140.285 137.96 140.285C138.706 140.285 139.203 141.155 139.203 142.15ZM144.176 144.76C144.176 146.501 142.684 147.122 141.316 145.755C140.198 144.636 141.814 141.404 143.057 142.274C143.678 142.647 144.176 143.766 144.176 144.76ZM138.582 147.744C138.955 148.365 139.079 148.987 138.706 148.987C138.333 148.987 137.711 148.365 137.338 147.744C136.966 146.998 136.841 146.501 137.214 146.501C137.587 146.501 138.209 146.998 138.582 147.744ZM143.803 149.857C143.306 150.23 142.56 150.23 142.062 149.857C141.689 149.36 142.062 148.987 142.933 148.987C143.803 148.987 144.176 149.36 143.803 149.857Z" fill="white"/>
<path d="M141.94 66.5646C142.437 71.4128 145.421 71.7857 145.421 67.0618C145.421 64.4513 144.799 63.2082 143.432 63.2082C142.064 63.2082 141.691 64.2027 141.94 66.5646Z" fill="white"/>
<path d="M136.718 102.365C136.718 104.105 137.339 105.473 137.961 105.473C138.707 105.473 139.204 104.105 139.204 102.365C139.204 100.624 138.707 99.257 137.961 99.257C137.339 99.257 136.718 100.624 136.718 102.365Z" fill="white"/>
<path d="M163.449 106.848C162.206 108.712 163.822 109.956 165.438 108.339C166.308 107.469 166.308 106.723 165.562 106.226C164.816 105.853 163.822 106.102 163.449 106.848Z" fill="white"/>
<path d="M154.738 111.813C153.495 113.677 155.111 114.92 156.727 113.304C157.597 112.434 157.597 111.688 156.851 111.191C156.105 110.818 155.111 111.067 154.738 111.813Z" fill="white"/>
<path d="M175.25 123.503C175.25 125.865 175.872 127.854 176.493 127.854C177.239 127.854 177.736 125.865 177.736 123.503C177.736 121.141 177.239 119.152 176.493 119.152C175.872 119.152 175.25 121.141 175.25 123.503Z" fill="white"/>
<path d="M160.339 133.447C160.339 135.436 161.085 136.555 162.204 136.555C163.322 136.555 164.068 135.436 164.068 133.447C164.068 131.458 163.322 130.339 162.204 130.339C161.085 130.339 160.339 131.458 160.339 133.447Z" fill="white"/>
<path d="M144.178 121.017C144.178 121.39 144.426 121.639 144.799 121.639C145.172 121.639 145.421 121.39 145.421 121.017C145.421 120.644 145.172 120.396 144.799 120.396C144.426 120.396 144.178 120.644 144.178 121.017Z" fill="white"/>
<path d="M125.282 125.989C125.531 128.351 126.028 130.34 126.277 130.34C126.525 130.34 126.774 128.351 126.774 125.989C126.774 123.627 126.277 121.638 125.779 121.638C125.282 121.638 125.033 123.627 125.282 125.989Z" fill="white"/>
<path d="M123.043 128.474C123.043 128.847 123.292 129.096 123.665 129.096C124.037 129.096 124.286 128.847 124.286 128.474C124.286 128.101 124.037 127.853 123.665 127.853C123.292 127.853 123.043 128.101 123.043 128.474Z" fill="white"/>
<path d="M26.1841 51.9871C25.8093 52.3619 25.497 52.9241 25.497 53.2365C25.497 54.3922 24.31 56.9535 23.3417 57.9531C22.8107 58.4841 22.1235 59.3587 21.8736 59.9209C21.2489 61.1391 19.5622 62.9195 19.0312 62.9195C18.3128 62.9195 18.0941 63.9815 17.9067 68.2608C17.7505 71.5405 17.813 72.8836 18.1566 74.1955C19.1561 77.7876 19.1561 77.7876 17.7505 78.506C16.1575 79.3182 16.1575 79.3182 15.9076 81.7233C15.689 83.8473 15.5328 84.066 13.4088 85.0967C11.7845 85.9089 11.5034 86.6898 11.4722 90.8753C11.4722 95.0297 11.1911 96.9663 10.6288 96.9663C10.3789 96.9663 10.1915 97.1224 10.1915 97.2786C10.1915 97.466 9.87918 97.7471 9.50435 97.9033C8.8484 98.1532 8.8484 98.1844 9.41064 98.2157C10.1291 98.2469 11.1286 98.9341 11.1286 99.3714C11.1286 99.8712 12.1281 100.652 13.0652 100.871C13.5025 100.996 14.1272 101.37 14.4396 101.683C15.0643 102.37 17.5007 103.526 18.3128 103.526C18.6251 103.526 19.1874 103.276 19.5934 102.932C20.2494 102.401 20.3743 102.401 21.0303 102.807C21.4988 103.12 22.4046 103.276 23.5603 103.245C24.5287 103.213 25.497 103.182 25.6531 103.182C25.8405 103.182 26.7464 103.276 27.7147 103.401C29.0578 103.557 29.6825 103.494 30.4634 103.057C31.7128 102.432 32.1501 102.651 30.9007 103.338C30.4322 103.588 30.1511 103.807 30.276 103.838C30.4322 103.838 30.807 103.682 31.1506 103.526C31.5879 103.276 31.9315 103.307 32.4312 103.682C33.4308 104.369 34.2117 104.275 34.6177 103.37C34.8051 102.932 35.18 102.589 35.4611 102.589C35.8984 102.589 35.8984 102.526 35.4923 102.276C35.1487 102.058 35.1487 101.964 35.4299 101.964C35.6485 101.964 36.242 102.276 36.773 102.651C37.7101 103.338 37.7101 103.338 39.1781 102.776C40.5213 102.245 41.0835 102.151 43.7073 101.995C44.8318 101.964 44.7381 101.183 43.4886 100.121C42.6765 99.4026 42.6453 99.3402 43.1763 99.0903C43.676 98.8716 43.676 98.8404 43.0826 98.9653C42.5516 99.059 42.1767 98.8404 41.7082 98.1844C41.3334 97.6222 40.8024 97.2786 40.3338 97.2786C39.9278 97.2786 39.1781 96.9038 38.6159 96.4665C38.0224 95.9355 37.3977 95.6856 36.9604 95.7793C36.3357 95.9042 36.2732 95.7793 36.2732 94.5299C36.2732 93.4054 36.4606 92.9993 37.1478 92.4059C38.4285 91.3126 38.8033 90.0944 39.3655 85.4091C39.6779 83.0977 40.0215 80.5988 40.1777 79.8492C40.5525 78.1937 40.5837 77.0067 40.2089 75.851C40.0527 75.3513 39.7716 74.3205 39.553 73.5396C39.3343 72.7587 38.9282 71.6342 38.6159 71.0407C38.0536 69.9787 37.2103 63.513 36.8355 57.6719L36.648 55.0794L35.3986 54.4547C33.9306 53.6738 31.5254 52.9241 30.6196 52.9241C30.2448 52.9241 29.745 52.643 29.5263 52.3307C28.8392 51.3936 27.0275 51.2062 26.1841 51.9871ZM28.7767 52.9241C29.089 53.2677 29.6513 53.5488 29.9949 53.5801C30.6196 53.5801 30.6196 53.6113 29.9636 53.8924C28.5893 54.4547 27.8396 54.8295 28.3706 54.6733C28.683 54.5796 28.9953 54.6421 29.1203 54.8295C29.214 55.0169 29.6825 55.0794 30.1198 54.9857C30.5883 54.892 31.6504 54.7358 32.4937 54.6109C33.8681 54.4547 33.993 54.5171 33.6182 54.9232C33.2746 55.3605 33.3371 55.423 33.8993 55.423C34.2429 55.423 34.6177 55.3917 34.649 55.3293C34.7114 55.298 34.9926 55.4542 35.2424 55.6729C35.8047 56.1102 36.3045 59.0775 36.7418 64.4813C37.1791 69.7601 37.1791 69.885 36.4294 69.479C35.4611 68.948 35.6797 69.3853 37.0541 70.6347C37.8662 71.3219 38.2098 71.8841 38.0224 72.0715C37.8662 72.2277 38.0224 72.9774 38.5222 74.0394C38.9282 74.9764 39.2406 75.9135 39.1469 76.1321C39.0844 76.3196 38.8345 75.9135 38.6159 75.1638C38.3972 74.4454 38.0849 73.8519 37.9599 73.8519C37.835 73.8519 37.9599 74.5079 38.2098 75.32C38.5222 76.2571 38.7096 78.1 38.7408 80.2552C38.7721 83.2851 38.6784 83.8473 38.0536 85.0967C37.6476 85.8776 37.0853 86.7522 36.8042 87.0646C36.3357 87.5956 36.2732 87.5644 35.3986 86.7522C34.1804 85.5653 33.056 83.3163 32.4937 80.7862C32.0877 79.0058 32.0877 78.506 32.4312 77.444C32.8685 76.1634 33.3995 75.851 34.7114 76.1634C35.6485 76.4133 36.6168 78.4436 36.8979 80.7238C37.0853 82.2231 37.0229 82.5667 36.4606 83.2226L35.8047 84.0035L35.18 83.2226C34.3679 82.1918 33.5557 79.7242 33.8056 79.0371C34.2117 77.9438 35.0238 78.6622 35.3049 80.3489C35.4611 81.2235 35.711 81.9732 35.8359 81.9732C36.4919 81.9732 35.7735 78.5685 34.9926 78.0063C34.6177 77.7252 34.3054 77.7252 33.8368 77.9438C32.931 78.4436 33.2121 81.4734 34.3366 83.1914C35.8984 85.534 37.3665 84.5033 37.3665 81.0986C37.3665 77.6939 35.9609 75.4137 33.8993 75.4137C32.3063 75.4137 31.7441 76.2571 31.7441 78.5685C31.7441 81.6296 33.3683 85.7839 35.2737 87.5331C36.2732 88.4702 37.0853 88.2515 37.8662 86.8147C38.1786 86.2212 38.4909 85.7839 38.5222 85.8464C38.8033 86.0963 37.6476 90.8129 37.2103 91.2501C36.7418 91.6874 36.648 91.6874 35.9296 91.0003C35.5236 90.6254 34.8051 89.5322 34.3679 88.6264C33.8993 87.7205 33.4933 86.9709 33.462 86.9709C33.1809 86.9709 33.993 89.0324 34.8364 90.5317C36.0546 92.6245 36.0858 93.3117 35.0238 93.0306C34.0867 92.8119 34.0243 92.9993 34.8676 93.8427C35.2737 94.2488 35.4923 94.8735 35.4923 95.5919C35.4923 96.7788 34.9926 99.3402 34.5865 100.09C34.4616 100.34 34.3679 101.058 34.3991 101.652C34.4303 102.245 34.3054 102.901 34.1804 103.088C33.8993 103.463 32.6811 103.307 32.6811 102.932C32.6811 102.37 33.1184 102.339 33.4933 102.839C33.7744 103.213 33.8993 103.245 33.9306 102.963C33.9306 102.714 33.6494 102.183 33.3058 101.745L32.6811 100.933V101.777C32.6811 102.214 32.5562 102.589 32.4 102.589C31.7441 102.589 31.7753 101.964 32.4312 100.496C33.056 99.0903 33.4933 96.2791 33.6494 92.156L33.7119 90.5942L34.649 91.6874C35.6797 92.8744 35.4923 92.4059 34.1804 90.5942C33.7119 89.9383 33.3058 89.1261 33.3058 88.8138C33.3058 88.5014 33.0247 87.783 32.6499 87.2208C32.2751 86.6585 32.0877 86.4711 32.2126 86.8147C32.8373 88.6888 33.0247 90.7816 32.931 94.5299C32.8061 98.1532 32.7124 98.8716 32.0564 100.184C31.5879 101.089 31.1506 101.62 30.9007 101.527C30.6821 101.433 30.4946 101.527 30.4946 101.745C30.4946 101.964 30.1198 102.308 29.6513 102.495C28.6205 102.995 28.3082 102.995 28.3082 102.557C28.3082 102.37 28.4956 102.276 28.7142 102.37C28.9016 102.432 29.2452 102.339 29.4639 102.12C29.9012 101.62 29.5888 101.214 29.1203 101.652C28.8704 101.839 28.7142 101.652 28.683 100.964C28.558 99.59 28.3082 99.4339 28.3082 100.746C28.2769 101.652 28.2457 101.714 27.9646 101.246C27.7771 100.902 27.7147 100.121 27.8396 99.3714C28.0895 97.8721 27.7459 97.997 27.3711 99.5276L27.1212 100.558L27.09 99.4026C27.0587 98.7467 27.2461 97.6847 27.496 97.06C28.1207 95.3732 28.7142 92.1872 28.5268 91.4688C28.4331 91.0315 28.3706 91.094 28.3394 91.7187C28.3394 92.1872 28.152 92.6558 27.9958 92.7495C27.8084 92.8744 27.7459 93.2492 27.8709 93.6241C28.027 94.1863 27.9958 94.2488 27.6834 93.9364C27.3711 93.6241 27.3711 93.2805 27.6834 92.0623C27.9021 91.2501 28.2769 90.1881 28.5268 89.7196C29.4326 87.8455 28.7142 83.941 27.1212 82.1918C26.559 81.5671 24.8722 80.2865 24.8722 80.4739C24.8722 80.5364 25.372 81.1611 25.9967 81.8482C28.1207 84.1284 28.9016 87.4082 27.8396 89.4697C27.5897 89.9383 27.3399 91.1877 27.2461 92.2185C27.1837 93.2805 26.9963 94.3112 26.8713 94.5299C26.7151 94.811 26.8088 94.7798 27.2149 94.4674C27.7147 94.0301 27.7459 94.0613 27.5897 94.6236C27.496 94.9672 27.2461 95.8418 27.0275 96.5602C26.8088 97.3098 26.559 97.9033 26.434 97.9033C26.0592 97.9033 24.5599 94.1863 24.5599 93.2805C24.5287 92.6245 24.4662 92.5308 24.2475 92.9369C23.9039 93.5303 24.5599 96.1854 25.3408 97.4036C25.8718 98.2157 26.8401 102.276 26.5902 102.557C26.4965 102.62 25.9343 102.276 25.3095 101.808C24.31 101.058 24.2163 101.027 24.5287 101.62C24.7473 101.964 24.7785 102.276 24.6536 102.276C24.5287 102.276 24.0914 102.37 23.7165 102.464C23.1231 102.62 22.9981 102.526 22.9669 101.933C22.9356 101.402 22.8732 101.339 22.7795 101.714C22.717 102.026 22.5296 102.276 22.3734 102.276C22.2172 102.276 22.186 102.058 22.2797 101.745C22.4359 101.37 22.3734 101.308 22.061 101.495C21.7487 101.683 21.6862 101.62 21.8424 101.246C22.0923 100.59 20.9678 99.8712 20.6867 100.496C20.593 100.683 20.6242 100.465 20.7179 99.9649C20.8429 99.3402 20.7804 99.1215 20.5617 99.2777C20.3119 99.4339 20.2494 99.3402 20.3743 99.0278C20.468 98.7467 20.4056 98.528 20.1869 98.528C19.9995 98.528 19.9058 98.4031 19.9995 98.2469C20.0932 98.0907 19.6247 97.3723 18.9063 96.6227L17.6568 95.2483L18.469 96.6851C18.9375 97.5597 19.1874 98.3719 19.0624 98.7154C18.9063 99.2152 18.9375 99.2465 19.2498 98.8404C19.5622 98.4343 19.5934 98.4656 19.4373 98.9341C19.3435 99.2465 19.2498 99.7462 19.2498 100.027C19.2186 100.402 19.0937 100.34 18.7813 99.7775C18.344 99.0278 18.3128 99.0903 18.4377 100.871C18.5002 101.901 18.469 102.308 18.3752 101.808L18.2191 100.871L17.9692 101.652C17.7818 102.214 17.7193 102.058 17.8442 101.027C17.9379 100.09 17.8755 99.8399 17.7193 100.246L17.4382 100.871L17.3132 100.246C17.2195 99.9024 17.2195 100.09 17.282 100.652C17.4382 101.808 16.8759 102.026 16.4699 100.933L16.1888 100.246L15.9076 100.996C15.6265 101.683 15.5953 101.683 15.0955 101.183C14.4083 100.527 14.3771 97.6847 15.033 96.1229C15.5953 94.811 15.6265 94.3425 15.0955 95.3108C14.8769 95.6856 14.5957 95.998 14.4083 95.998C14.2522 95.998 13.8773 96.7164 13.565 97.6534C13.1901 98.9029 13.034 99.1215 13.0027 98.528C12.9403 97.9658 12.8466 98.122 12.7216 98.9966L12.5342 100.246L11.972 99.4339C11.5034 98.7154 11.4722 98.4031 11.7845 97.2474C11.972 96.4977 12.2218 93.8739 12.3155 91.4376C12.5342 86.6585 12.7528 86.0963 14.502 85.5653C15.1892 85.3779 15.2205 85.4091 15.158 87.8142C15.158 89.1574 15.3454 90.8753 15.564 91.6562C16.0326 93.0306 16.0326 93.0306 15.8764 90.0944C15.7827 88.0329 15.9076 86.4711 16.2512 85.003C16.5323 83.8161 16.751 82.348 16.751 81.7233C16.751 80.4114 17.4694 79.162 18.2191 79.162C18.5627 79.162 18.6564 79.4119 18.5627 80.0991C18.469 80.6613 18.5314 80.9424 18.6876 80.7862C18.9375 80.5364 19.1249 79.7242 19.2186 78.4436C19.2811 78.0375 19.9058 78.1937 21.5613 79.0058L23.1543 79.8179L21.6862 78.5373C19.4373 76.6007 18.8438 74.7578 18.7501 69.479C18.6251 64.044 18.7188 63.6379 19.8746 63.6379C20.4368 63.6379 20.8116 63.8253 20.8741 64.1065C20.9678 64.5125 21.0303 64.4813 21.4051 64.044C21.8112 63.5755 21.7799 63.4817 21.1552 63.3256L20.468 63.1382L21.2177 62.326C21.655 61.8887 22.2172 61.0141 22.4671 60.4207C22.7482 59.8272 23.248 58.9838 23.6228 58.5465L24.2475 57.7656L23.9352 58.6402C23.2792 60.5144 23.6228 60.8892 24.4349 59.1712C25.4345 57.0472 26.1217 55.1106 26.1217 54.4234C26.1217 54.1423 26.2466 53.5488 26.434 53.1115C26.8088 52.112 27.9646 52.0183 28.7767 52.9241ZM30.3385 54.4859C30.2448 54.6421 29.9012 54.7983 29.62 54.7983C29.1515 54.7983 29.1515 54.7358 29.5576 54.4859C30.1823 54.0798 30.5883 54.0798 30.3385 54.4859ZM39.8028 98.653C41.2397 100.027 41.3646 99.9649 40.615 98.4343C40.2089 97.6222 40.4275 97.7471 41.7082 99.1527C42.5516 100.09 43.27 100.964 43.3012 101.089C43.3012 101.246 42.8952 101.339 42.3642 101.339C41.677 101.339 41.4271 101.183 41.4271 100.777C41.3958 100.277 41.3958 100.277 41.0835 100.808C40.8961 101.089 40.6462 101.277 40.4588 101.183C40.3026 101.089 40.2714 101.183 40.3651 101.433C40.5525 101.964 40.0215 102.214 38.9282 102.151C38.4909 102.12 38.0536 102.214 37.9599 102.37C37.6163 102.87 37.0541 102.276 37.0229 101.402L36.9916 100.558L36.7418 101.339C36.5231 101.995 36.4919 102.026 36.4606 101.495C36.4294 100.996 36.3669 100.964 36.1483 101.308C35.6173 102.12 35.3986 100.277 35.8047 98.4031C36.3357 95.8418 36.8355 95.873 39.8028 98.653Z" fill="white"/>
<path d="M29.3717 56.9562C28.091 57.7371 27.5912 59.2989 27.7474 61.7665C27.9348 64.5465 29.0593 66.5768 32.5577 70.5749C36.181 74.6668 37.6491 76.8845 38.2113 79.0085L38.6174 80.5703L38.43 79.0085C38.1801 76.9158 37.1493 75.1041 34.0258 71.2934C30.0588 66.4518 29.6215 65.8271 28.9031 63.8905C27.9661 61.3917 28.2159 59.049 29.5591 57.8308C31.402 56.1754 34.0882 57.2374 34.8379 59.9861C35.4001 61.9852 35.6188 66.1395 35.2127 66.9204C34.6817 67.8887 33.2136 67.8262 32.4015 66.8267C31.6206 65.8271 31.0896 63.3595 31.3395 61.8602C31.5581 60.4234 31.808 60.2672 32.6826 60.9856C33.2449 61.4229 33.4323 61.9852 33.5572 63.3908C33.6509 64.7027 33.6197 65.14 33.3386 64.9838C33.1512 64.8588 32.995 64.2966 32.995 63.7031C32.995 63.1096 32.87 62.5474 32.6826 62.4537C32.0891 62.0789 32.339 64.9838 32.9325 65.5148C33.7759 66.2644 34.2444 65.6397 34.2444 63.7656C34.2444 60.9544 32.5264 58.8928 31.2146 60.1735C30.0588 61.3292 30.4961 65.5772 31.9642 67.3264C32.5889 68.0449 32.995 68.2323 33.932 68.2323C36.0873 68.2323 36.4934 66.8579 35.7749 61.7665C35.5875 60.4234 35.2127 58.9241 34.9316 58.4555C33.7759 56.4877 31.2458 55.8005 29.3717 56.9562Z" fill="#FFEF63"/>
<path d="M26.6513 57.9857C26.214 58.548 25.6518 59.7974 25.3394 60.7344C25.0271 61.7027 24.4648 62.7648 23.9963 63.1708C23.5278 63.5456 23.3716 63.7955 23.6527 63.7018C24.3399 63.4519 24.6835 64.389 24.0275 64.7326C23.6839 64.92 23.6527 65.0762 23.9026 65.2324C24.09 65.3573 24.2462 65.2948 24.2462 65.1387C24.2462 64.9512 24.4648 64.7951 24.7147 64.7951C24.9646 64.7951 25.1832 64.5139 25.1832 64.2016C25.1832 63.0459 26.1828 59.6412 26.9012 58.2981C27.7758 56.7363 27.6821 56.6114 26.6513 57.9857Z" fill="white"/>
<path d="M21.9051 62.6071C21.8114 62.7945 21.9364 62.8257 22.1863 62.732C22.4674 62.6383 22.686 62.7008 22.686 62.9194C22.686 63.1068 22.8422 63.1693 23.0296 63.0444C23.2795 62.9194 23.2483 62.7633 22.9671 62.5758C22.4049 62.2322 22.155 62.2322 21.9051 62.6071Z" fill="white"/>
<path d="M26.0311 63.762C25.9062 63.8557 25.8125 64.2305 25.8125 64.5741C25.8125 65.355 26.2186 65.0114 26.281 64.1681C26.3435 63.4809 26.3123 63.4496 26.0311 63.762Z" fill="white"/>
<path d="M24.7802 65.3211C24.7178 65.4461 25.0926 65.9146 25.6236 66.3207L26.5919 67.1016L25.811 66.1645C25.3737 65.6647 24.9989 65.2274 24.9989 65.165C24.9677 65.1025 24.8739 65.165 24.7802 65.3211Z" fill="white"/>
<path d="M20.6297 66.2943C19.5364 67.0127 19.2241 70.0425 19.9425 72.8537C20.3486 74.5092 21.8791 76.1959 24.784 78.1638C26.5644 79.382 27.2516 80.0692 28.2199 81.5372C28.5635 82.0995 28.5948 82.0995 28.5948 81.5685C28.626 80.8188 26.377 78.4449 24.7528 77.4766C22.8787 76.3834 20.9108 74.1344 20.4735 72.5414C19.9737 70.8859 19.9737 68.2621 20.4735 67.3563C21.2856 65.8257 24.2842 66.9502 25.1588 69.0742C25.846 70.7922 26.377 73.8533 26.1584 74.7279C25.7836 76.071 24.8153 75.9773 23.5034 74.4468C22.0665 72.76 21.4418 70.6673 21.9416 69.3554C22.4414 68.0747 23.9094 69.4178 24.1593 71.3857C24.378 72.9162 23.8157 72.885 23.4721 71.3544C23.191 70.0738 22.6912 69.8551 22.6912 71.0421C22.6912 72.354 24.0656 73.7908 24.7528 73.1973C25.6898 72.4477 24.6591 69.0742 23.3159 68.3871C22.5975 68.0122 22.3789 68.0122 21.7854 68.4183C20.9733 69.0118 20.8796 71.1046 21.598 72.8537C22.8474 75.7899 25.8773 77.4141 26.6894 75.5712C27.2204 74.4155 27.1579 73.4472 26.4083 70.6673C25.846 68.6682 25.5337 68.0747 24.5341 67.1376C23.5971 66.2943 23.0348 66.0444 22.129 66.0444C21.5043 66.0444 20.8171 66.1693 20.6297 66.2943Z" fill="#FFEF63"/>
<path d="M27.4017 69.0693C28.37 71.162 28.901 71.7868 28.1201 69.9439C27.5579 68.5695 27.5579 68.1947 28.1513 68.9756C28.6511 69.6627 28.7761 69.2879 28.3075 68.5383C28.1513 68.2884 27.9327 68.1947 27.8078 68.2884C27.714 68.4133 27.3392 68.1947 27.0269 67.8198C26.6833 67.3825 26.8082 67.8511 27.4017 69.0693Z" fill="white"/>
<path d="M36.0514 71.6919C36.3638 72.4416 37.1759 72.5665 37.8319 71.9418C38.0505 71.7232 37.9568 71.6919 37.582 71.8481C37.2384 71.973 36.8011 71.8481 36.395 71.4733C35.8016 70.9423 35.7703 70.9423 36.0514 71.6919Z" fill="white"/>
<path d="M28.5244 73.3842C28.6181 74.415 28.743 75.3208 28.8055 75.3833C29.0242 75.6332 28.868 73.0719 28.6181 72.291C28.4619 71.7912 28.4307 72.2285 28.5244 73.3842Z" fill="white"/>
<path d="M18.7482 81.7582C17.3738 83.3825 16.9678 84.6944 16.9678 87.6305C16.9678 91.2851 17.655 93.2217 19.654 94.9084C20.4662 95.6268 21.5594 96.8137 22.0592 97.5634C23.2774 99.3751 23.2461 98.8441 22.0279 96.72C21.5282 95.8142 20.7785 94.9396 20.4037 94.8147C18.2797 94.0025 17.1552 90.4417 17.6862 86.1937C17.9361 84.1634 19.1543 81.6645 19.8727 81.6645C20.2475 81.6645 20.6536 82.6328 20.9347 84.3195C21.1533 85.5377 21.1533 85.5377 20.6536 84.8505C20.3724 84.4757 19.9352 84.1634 19.6853 84.1634C17.9048 84.1634 17.9361 92.5969 19.7477 92.8468C20.0913 92.9093 20.6536 92.6282 20.9972 92.2534C21.5282 91.6599 21.5906 91.1289 21.5906 87.6305C21.5906 83.4449 21.1846 81.5708 20.185 81.0398C19.7165 80.7899 19.4354 80.9149 18.7482 81.7582ZM20.4974 86.0687C20.4974 86.1937 20.31 86.506 20.0913 86.7247C19.4354 87.3806 19.2167 88.224 19.5603 88.8799C19.9664 89.6296 20.716 89.6608 20.9035 88.9112C20.9972 88.63 20.9659 89.0673 20.9035 89.9419C20.5911 92.6594 19.779 93.0655 19.2792 90.7228C18.8419 88.6925 18.8419 86.631 19.2792 85.5065C19.5916 84.6631 19.6228 84.6631 20.0601 85.2254C20.31 85.569 20.4974 85.9438 20.4974 86.0687Z" fill="#FFEF63"/>
<path d="M22.1864 81.504C22.3114 82.0662 22.8736 82.8159 23.5608 83.3781C24.1855 83.8779 25.2475 84.8462 25.8722 85.4709C26.4969 86.1268 27.0904 86.5329 27.1841 86.3767C27.4965 85.877 26.4032 83.3156 25.4974 82.4411C24.9664 81.9413 24.4666 81.6289 24.3729 81.7539C24.2792 81.8476 24.654 82.3473 25.185 82.8471C25.7473 83.3156 26.1534 83.9091 26.0909 84.1278C25.9035 84.6588 23.4671 82.8471 22.655 81.5665L21.999 80.5669L22.1864 81.504Z" fill="white"/>
<path d="M29.7177 85.0637C29.5303 85.4073 29.9988 85.7821 30.3112 85.501C30.5923 85.2199 30.5298 84.7826 30.2175 84.7826C30.0301 84.7826 29.8427 84.9075 29.7177 85.0637Z" fill="white"/>
<path d="M24.2766 86.4428C24.6827 86.8488 25.0888 87.13 25.1512 87.0675C25.3699 86.9113 24.1829 85.7244 23.8393 85.7244C23.6519 85.7244 23.8706 86.0367 24.2766 86.4428Z" fill="white"/>
<path d="M25.502 87.218C25.502 87.3742 25.7206 87.6865 25.9705 87.9052C26.2204 88.1238 26.439 88.1863 26.439 88.0926C26.439 87.9677 26.2204 87.6553 25.9705 87.4054C25.7206 87.1243 25.502 87.0618 25.502 87.218Z" fill="white"/>
<path d="M24.8691 88.8433C24.8691 88.9994 24.9941 89.1556 25.119 89.1556C25.244 89.1556 25.6188 89.5929 25.9311 90.1239C26.2435 90.6549 26.5559 90.9985 26.6183 90.936C26.8057 90.7486 25.4001 88.5621 25.119 88.5309C24.9628 88.5309 24.8691 88.6559 24.8691 88.8433Z" fill="white"/>
<path d="M26.7471 88.807C26.7471 88.9944 26.9032 89.2131 27.0594 89.3068C27.2468 89.4005 27.3718 89.2755 27.3718 89.0257C27.3718 88.7445 27.2468 88.5259 27.0594 88.5259C26.9032 88.5259 26.7471 88.6508 26.7471 88.807Z" fill="white"/>
<path d="M24.9379 90.9339C24.9692 91.2463 25.2815 91.7773 25.5939 92.1209C26.1873 92.7456 26.1873 92.7456 25.6563 91.6523C24.9692 90.278 24.9067 90.2155 24.9379 90.9339Z" fill="white"/>
<g filter="url(#filter2_f_2118_6521)">
<path d="M26.1841 51.9871C25.8093 52.3619 25.497 52.9241 25.497 53.2365C25.497 54.3922 24.31 56.9535 23.3417 57.9531C22.8107 58.4841 22.1235 59.3587 21.8736 59.9209C21.2489 61.1391 19.5622 62.9195 19.0312 62.9195C18.3128 62.9195 18.0941 63.9815 17.9067 68.2608C17.7505 71.5405 17.813 72.8836 18.1566 74.1955C19.1561 77.7876 19.1561 77.7876 17.7505 78.506C16.1575 79.3182 16.1575 79.3182 15.9076 81.7233C15.689 83.8473 15.5328 84.066 13.4088 85.0967C11.7845 85.9089 11.5034 86.6898 11.4722 90.8753C11.4722 95.0297 11.1911 96.9663 10.6288 96.9663C10.3789 96.9663 10.1915 97.1224 10.1915 97.2786C10.1915 97.466 9.87918 97.7471 9.50435 97.9033C8.8484 98.1532 8.8484 98.1844 9.41064 98.2157C10.1291 98.2469 11.1286 98.9341 11.1286 99.3714C11.1286 99.8712 12.1281 100.652 13.0652 100.871C13.5025 100.996 14.1272 101.37 14.4396 101.683C15.0643 102.37 17.5007 103.526 18.3128 103.526C18.6251 103.526 19.1874 103.276 19.5934 102.932C20.2494 102.401 20.3743 102.401 21.0303 102.807C21.4988 103.12 22.4046 103.276 23.5603 103.245C24.5287 103.213 25.497 103.182 25.6531 103.182C25.8405 103.182 26.7464 103.276 27.7147 103.401C29.0578 103.557 29.6825 103.494 30.4634 103.057C31.7128 102.432 32.1501 102.651 30.9007 103.338C30.4322 103.588 30.1511 103.807 30.276 103.838C30.4322 103.838 30.807 103.682 31.1506 103.526C31.5879 103.276 31.9315 103.307 32.4312 103.682C33.4308 104.369 34.2117 104.275 34.6177 103.37C34.8051 102.932 35.18 102.589 35.4611 102.589C35.8984 102.589 35.8984 102.526 35.4923 102.276C35.1487 102.058 35.1487 101.964 35.4299 101.964C35.6485 101.964 36.242 102.276 36.773 102.651C37.7101 103.338 37.7101 103.338 39.1781 102.776C40.5213 102.245 41.0835 102.151 43.7073 101.995C44.8318 101.964 44.7381 101.183 43.4886 100.121C42.6765 99.4026 42.6453 99.3402 43.1763 99.0903C43.676 98.8716 43.676 98.8404 43.0826 98.9653C42.5516 99.059 42.1767 98.8404 41.7082 98.1844C41.3334 97.6222 40.8024 97.2786 40.3338 97.2786C39.9278 97.2786 39.1781 96.9038 38.6159 96.4665C38.0224 95.9355 37.3977 95.6856 36.9604 95.7793C36.3357 95.9042 36.2732 95.7793 36.2732 94.5299C36.2732 93.4054 36.4606 92.9993 37.1478 92.4059C38.4285 91.3126 38.8033 90.0944 39.3655 85.4091C39.6779 83.0977 40.0215 80.5988 40.1777 79.8492C40.5525 78.1937 40.5837 77.0067 40.2089 75.851C40.0527 75.3513 39.7716 74.3205 39.553 73.5396C39.3343 72.7587 38.9282 71.6342 38.6159 71.0407C38.0536 69.9787 37.2103 63.513 36.8355 57.6719L36.648 55.0794L35.3986 54.4547C33.9306 53.6738 31.5254 52.9241 30.6196 52.9241C30.2448 52.9241 29.745 52.643 29.5263 52.3307C28.8392 51.3936 27.0275 51.2062 26.1841 51.9871ZM28.7767 52.9241C29.089 53.2677 29.6513 53.5488 29.9949 53.5801C30.6196 53.5801 30.6196 53.6113 29.9636 53.8924C28.5893 54.4547 27.8396 54.8295 28.3706 54.6733C28.683 54.5796 28.9953 54.6421 29.1203 54.8295C29.214 55.0169 29.6825 55.0794 30.1198 54.9857C30.5883 54.892 31.6504 54.7358 32.4937 54.6109C33.8681 54.4547 33.993 54.5171 33.6182 54.9232C33.2746 55.3605 33.3371 55.423 33.8993 55.423C34.2429 55.423 34.6177 55.3917 34.649 55.3293C34.7114 55.298 34.9926 55.4542 35.2424 55.6729C35.8047 56.1102 36.3045 59.0775 36.7418 64.4813C37.1791 69.7601 37.1791 69.885 36.4294 69.479C35.4611 68.948 35.6797 69.3853 37.0541 70.6347C37.8662 71.3219 38.2098 71.8841 38.0224 72.0715C37.8662 72.2277 38.0224 72.9774 38.5222 74.0394C38.9282 74.9764 39.2406 75.9135 39.1469 76.1321C39.0844 76.3196 38.8345 75.9135 38.6159 75.1638C38.3972 74.4454 38.0849 73.8519 37.9599 73.8519C37.835 73.8519 37.9599 74.5079 38.2098 75.32C38.5222 76.2571 38.7096 78.1 38.7408 80.2552C38.7721 83.2851 38.6784 83.8473 38.0536 85.0967C37.6476 85.8776 37.0853 86.7522 36.8042 87.0646C36.3357 87.5956 36.2732 87.5644 35.3986 86.7522C34.1804 85.5653 33.056 83.3163 32.4937 80.7862C32.0877 79.0058 32.0877 78.506 32.4312 77.444C32.8685 76.1634 33.3995 75.851 34.7114 76.1634C35.6485 76.4133 36.6168 78.4436 36.8979 80.7238C37.0853 82.2231 37.0229 82.5667 36.4606 83.2226L35.8047 84.0035L35.18 83.2226C34.3679 82.1918 33.5557 79.7242 33.8056 79.0371C34.2117 77.9438 35.0238 78.6622 35.3049 80.3489C35.4611 81.2235 35.711 81.9732 35.8359 81.9732C36.4919 81.9732 35.7735 78.5685 34.9926 78.0063C34.6177 77.7252 34.3054 77.7252 33.8368 77.9438C32.931 78.4436 33.2121 81.4734 34.3366 83.1914C35.8984 85.534 37.3665 84.5033 37.3665 81.0986C37.3665 77.6939 35.9609 75.4137 33.8993 75.4137C32.3063 75.4137 31.7441 76.2571 31.7441 78.5685C31.7441 81.6296 33.3683 85.7839 35.2737 87.5331C36.2732 88.4702 37.0853 88.2515 37.8662 86.8147C38.1786 86.2212 38.4909 85.7839 38.5222 85.8464C38.8033 86.0963 37.6476 90.8129 37.2103 91.2501C36.7418 91.6874 36.648 91.6874 35.9296 91.0003C35.5236 90.6254 34.8051 89.5322 34.3679 88.6264C33.8993 87.7205 33.4933 86.9709 33.462 86.9709C33.1809 86.9709 33.993 89.0324 34.8364 90.5317C36.0546 92.6245 36.0858 93.3117 35.0238 93.0306C34.0867 92.8119 34.0243 92.9993 34.8676 93.8427C35.2737 94.2488 35.4923 94.8735 35.4923 95.5919C35.4923 96.7788 34.9926 99.3402 34.5865 100.09C34.4616 100.34 34.3679 101.058 34.3991 101.652C34.4303 102.245 34.3054 102.901 34.1804 103.088C33.8993 103.463 32.6811 103.307 32.6811 102.932C32.6811 102.37 33.1184 102.339 33.4933 102.839C33.7744 103.213 33.8993 103.245 33.9306 102.963C33.9306 102.714 33.6494 102.183 33.3058 101.745L32.6811 100.933V101.777C32.6811 102.214 32.5562 102.589 32.4 102.589C31.7441 102.589 31.7753 101.964 32.4312 100.496C33.056 99.0903 33.4933 96.2791 33.6494 92.156L33.7119 90.5942L34.649 91.6874C35.6797 92.8744 35.4923 92.4059 34.1804 90.5942C33.7119 89.9383 33.3058 89.1261 33.3058 88.8138C33.3058 88.5014 33.0247 87.783 32.6499 87.2208C32.2751 86.6585 32.0877 86.4711 32.2126 86.8147C32.8373 88.6888 33.0247 90.7816 32.931 94.5299C32.8061 98.1532 32.7124 98.8716 32.0564 100.184C31.5879 101.089 31.1506 101.62 30.9007 101.527C30.6821 101.433 30.4946 101.527 30.4946 101.745C30.4946 101.964 30.1198 102.308 29.6513 102.495C28.6205 102.995 28.3082 102.995 28.3082 102.557C28.3082 102.37 28.4956 102.276 28.7142 102.37C28.9016 102.432 29.2452 102.339 29.4639 102.12C29.9012 101.62 29.5888 101.214 29.1203 101.652C28.8704 101.839 28.7142 101.652 28.683 100.964C28.558 99.59 28.3082 99.4339 28.3082 100.746C28.2769 101.652 28.2457 101.714 27.9646 101.246C27.7771 100.902 27.7147 100.121 27.8396 99.3714C28.0895 97.8721 27.7459 97.997 27.3711 99.5276L27.1212 100.558L27.09 99.4026C27.0587 98.7467 27.2461 97.6847 27.496 97.06C28.1207 95.3732 28.7142 92.1872 28.5268 91.4688C28.4331 91.0315 28.3706 91.094 28.3394 91.7187C28.3394 92.1872 28.152 92.6558 27.9958 92.7495C27.8084 92.8744 27.7459 93.2492 27.8709 93.6241C28.027 94.1863 27.9958 94.2488 27.6834 93.9364C27.3711 93.6241 27.3711 93.2805 27.6834 92.0623C27.9021 91.2501 28.2769 90.1881 28.5268 89.7196C29.4326 87.8455 28.7142 83.941 27.1212 82.1918C26.559 81.5671 24.8722 80.2865 24.8722 80.4739C24.8722 80.5364 25.372 81.1611 25.9967 81.8482C28.1207 84.1284 28.9016 87.4082 27.8396 89.4697C27.5897 89.9383 27.3399 91.1877 27.2461 92.2185C27.1837 93.2805 26.9963 94.3112 26.8713 94.5299C26.7151 94.811 26.8088 94.7798 27.2149 94.4674C27.7147 94.0301 27.7459 94.0613 27.5897 94.6236C27.496 94.9672 27.2461 95.8418 27.0275 96.5602C26.8088 97.3098 26.559 97.9033 26.434 97.9033C26.0592 97.9033 24.5599 94.1863 24.5599 93.2805C24.5287 92.6245 24.4662 92.5308 24.2475 92.9369C23.9039 93.5303 24.5599 96.1854 25.3408 97.4036C25.8718 98.2157 26.8401 102.276 26.5902 102.557C26.4965 102.62 25.9343 102.276 25.3095 101.808C24.31 101.058 24.2163 101.027 24.5287 101.62C24.7473 101.964 24.7785 102.276 24.6536 102.276C24.5287 102.276 24.0914 102.37 23.7165 102.464C23.1231 102.62 22.9981 102.526 22.9669 101.933C22.9356 101.402 22.8732 101.339 22.7795 101.714C22.717 102.026 22.5296 102.276 22.3734 102.276C22.2172 102.276 22.186 102.058 22.2797 101.745C22.4359 101.37 22.3734 101.308 22.061 101.495C21.7487 101.683 21.6862 101.62 21.8424 101.246C22.0923 100.59 20.9678 99.8712 20.6867 100.496C20.593 100.683 20.6242 100.465 20.7179 99.9649C20.8429 99.3402 20.7804 99.1215 20.5617 99.2777C20.3119 99.4339 20.2494 99.3402 20.3743 99.0278C20.468 98.7467 20.4056 98.528 20.1869 98.528C19.9995 98.528 19.9058 98.4031 19.9995 98.2469C20.0932 98.0907 19.6247 97.3723 18.9063 96.6227L17.6568 95.2483L18.469 96.6851C18.9375 97.5597 19.1874 98.3719 19.0624 98.7154C18.9063 99.2152 18.9375 99.2465 19.2498 98.8404C19.5622 98.4343 19.5934 98.4656 19.4373 98.9341C19.3435 99.2465 19.2498 99.7462 19.2498 100.027C19.2186 100.402 19.0937 100.34 18.7813 99.7775C18.344 99.0278 18.3128 99.0903 18.4377 100.871C18.5002 101.901 18.469 102.308 18.3752 101.808L18.2191 100.871L17.9692 101.652C17.7818 102.214 17.7193 102.058 17.8442 101.027C17.9379 100.09 17.8755 99.8399 17.7193 100.246L17.4382 100.871L17.3132 100.246C17.2195 99.9024 17.2195 100.09 17.282 100.652C17.4382 101.808 16.8759 102.026 16.4699 100.933L16.1888 100.246L15.9076 100.996C15.6265 101.683 15.5953 101.683 15.0955 101.183C14.4083 100.527 14.3771 97.6847 15.033 96.1229C15.5953 94.811 15.6265 94.3425 15.0955 95.3108C14.8769 95.6856 14.5957 95.998 14.4083 95.998C14.2522 95.998 13.8773 96.7164 13.565 97.6534C13.1901 98.9029 13.034 99.1215 13.0027 98.528C12.9403 97.9658 12.8466 98.122 12.7216 98.9966L12.5342 100.246L11.972 99.4339C11.5034 98.7154 11.4722 98.4031 11.7845 97.2474C11.972 96.4977 12.2218 93.8739 12.3155 91.4376C12.5342 86.6585 12.7528 86.0963 14.502 85.5653C15.1892 85.3779 15.2205 85.4091 15.158 87.8142C15.158 89.1574 15.3454 90.8753 15.564 91.6562C16.0326 93.0306 16.0326 93.0306 15.8764 90.0944C15.7827 88.0329 15.9076 86.4711 16.2512 85.003C16.5323 83.8161 16.751 82.348 16.751 81.7233C16.751 80.4114 17.4694 79.162 18.2191 79.162C18.5627 79.162 18.6564 79.4119 18.5627 80.0991C18.469 80.6613 18.5314 80.9424 18.6876 80.7862C18.9375 80.5364 19.1249 79.7242 19.2186 78.4436C19.2811 78.0375 19.9058 78.1937 21.5613 79.0058L23.1543 79.8179L21.6862 78.5373C19.4373 76.6007 18.8438 74.7578 18.7501 69.479C18.6251 64.044 18.7188 63.6379 19.8746 63.6379C20.4368 63.6379 20.8116 63.8253 20.8741 64.1065C20.9678 64.5125 21.0303 64.4813 21.4051 64.044C21.8112 63.5755 21.7799 63.4817 21.1552 63.3256L20.468 63.1382L21.2177 62.326C21.655 61.8887 22.2172 61.0141 22.4671 60.4207C22.7482 59.8272 23.248 58.9838 23.6228 58.5465L24.2475 57.7656L23.9352 58.6402C23.2792 60.5144 23.6228 60.8892 24.4349 59.1712C25.4345 57.0472 26.1217 55.1106 26.1217 54.4234C26.1217 54.1423 26.2466 53.5488 26.434 53.1115C26.8088 52.112 27.9646 52.0183 28.7767 52.9241ZM30.3385 54.4859C30.2448 54.6421 29.9012 54.7983 29.62 54.7983C29.1515 54.7983 29.1515 54.7358 29.5576 54.4859C30.1823 54.0798 30.5883 54.0798 30.3385 54.4859ZM39.8028 98.653C41.2397 100.027 41.3646 99.9649 40.615 98.4343C40.2089 97.6222 40.4275 97.7471 41.7082 99.1527C42.5516 100.09 43.27 100.964 43.3012 101.089C43.3012 101.246 42.8952 101.339 42.3642 101.339C41.677 101.339 41.4271 101.183 41.4271 100.777C41.3958 100.277 41.3958 100.277 41.0835 100.808C40.8961 101.089 40.6462 101.277 40.4588 101.183C40.3026 101.089 40.2714 101.183 40.3651 101.433C40.5525 101.964 40.0215 102.214 38.9282 102.151C38.4909 102.12 38.0536 102.214 37.9599 102.37C37.6163 102.87 37.0541 102.276 37.0229 101.402L36.9916 100.558L36.7418 101.339C36.5231 101.995 36.4919 102.026 36.4606 101.495C36.4294 100.996 36.3669 100.964 36.1483 101.308C35.6173 102.12 35.3986 100.277 35.8047 98.4031C36.3357 95.8418 36.8355 95.873 39.8028 98.653Z" fill="#FCFF6D"/>
<path d="M29.3717 56.9562C28.091 57.7371 27.5912 59.2989 27.7474 61.7665C27.9348 64.5465 29.0593 66.5768 32.5577 70.5749C36.181 74.6668 37.6491 76.8845 38.2113 79.0085L38.6174 80.5703L38.43 79.0085C38.1801 76.9158 37.1493 75.1041 34.0258 71.2934C30.0588 66.4518 29.6215 65.8271 28.9031 63.8905C27.9661 61.3917 28.2159 59.049 29.5591 57.8308C31.402 56.1754 34.0882 57.2374 34.8379 59.9861C35.4001 61.9852 35.6188 66.1395 35.2127 66.9204C34.6817 67.8887 33.2136 67.8262 32.4015 66.8267C31.6206 65.8271 31.0896 63.3595 31.3395 61.8602C31.5581 60.4234 31.808 60.2672 32.6826 60.9856C33.2449 61.4229 33.4323 61.9852 33.5572 63.3908C33.6509 64.7027 33.6197 65.14 33.3386 64.9838C33.1512 64.8588 32.995 64.2966 32.995 63.7031C32.995 63.1096 32.87 62.5474 32.6826 62.4537C32.0891 62.0789 32.339 64.9838 32.9325 65.5148C33.7759 66.2644 34.2444 65.6397 34.2444 63.7656C34.2444 60.9544 32.5264 58.8928 31.2146 60.1735C30.0588 61.3292 30.4961 65.5772 31.9642 67.3264C32.5889 68.0449 32.995 68.2323 33.932 68.2323C36.0873 68.2323 36.4934 66.8579 35.7749 61.7665C35.5875 60.4234 35.2127 58.9241 34.9316 58.4555C33.7759 56.4877 31.2458 55.8005 29.3717 56.9562Z" fill="#FFEF63"/>
<path d="M26.6513 57.9857C26.214 58.548 25.6518 59.7974 25.3394 60.7344C25.0271 61.7027 24.4648 62.7648 23.9963 63.1708C23.5278 63.5456 23.3716 63.7955 23.6527 63.7018C24.3399 63.4519 24.6835 64.389 24.0275 64.7326C23.6839 64.92 23.6527 65.0762 23.9026 65.2324C24.09 65.3573 24.2462 65.2948 24.2462 65.1387C24.2462 64.9512 24.4648 64.7951 24.7147 64.7951C24.9646 64.7951 25.1832 64.5139 25.1832 64.2016C25.1832 63.0459 26.1828 59.6412 26.9012 58.2981C27.7758 56.7363 27.6821 56.6114 26.6513 57.9857Z" fill="#FCFF6D"/>
<path d="M21.9051 62.6071C21.8114 62.7945 21.9364 62.8257 22.1863 62.732C22.4674 62.6383 22.686 62.7008 22.686 62.9194C22.686 63.1068 22.8422 63.1693 23.0296 63.0444C23.2795 62.9194 23.2483 62.7633 22.9671 62.5758C22.4049 62.2322 22.155 62.2322 21.9051 62.6071Z" fill="#FCFF6D"/>
<path d="M26.0311 63.762C25.9062 63.8557 25.8125 64.2305 25.8125 64.5741C25.8125 65.355 26.2186 65.0114 26.281 64.1681C26.3435 63.4809 26.3123 63.4496 26.0311 63.762Z" fill="#FCFF6D"/>
<path d="M24.7802 65.3211C24.7178 65.4461 25.0926 65.9146 25.6236 66.3207L26.5919 67.1016L25.811 66.1645C25.3737 65.6647 24.9989 65.2274 24.9989 65.165C24.9677 65.1025 24.8739 65.165 24.7802 65.3211Z" fill="#FCFF6D"/>
<path d="M20.6297 66.2943C19.5364 67.0127 19.2241 70.0425 19.9425 72.8537C20.3486 74.5092 21.8791 76.1959 24.784 78.1638C26.5644 79.382 27.2516 80.0692 28.2199 81.5372C28.5635 82.0995 28.5948 82.0995 28.5948 81.5685C28.626 80.8188 26.377 78.4449 24.7528 77.4766C22.8787 76.3834 20.9108 74.1344 20.4735 72.5414C19.9737 70.8859 19.9737 68.2621 20.4735 67.3563C21.2856 65.8257 24.2842 66.9502 25.1588 69.0742C25.846 70.7922 26.377 73.8533 26.1584 74.7279C25.7836 76.071 24.8153 75.9773 23.5034 74.4468C22.0665 72.76 21.4418 70.6673 21.9416 69.3554C22.4414 68.0747 23.9094 69.4178 24.1593 71.3857C24.378 72.9162 23.8157 72.885 23.4721 71.3544C23.191 70.0738 22.6912 69.8551 22.6912 71.0421C22.6912 72.354 24.0656 73.7908 24.7528 73.1973C25.6898 72.4477 24.6591 69.0742 23.3159 68.3871C22.5975 68.0122 22.3789 68.0122 21.7854 68.4183C20.9733 69.0118 20.8796 71.1046 21.598 72.8537C22.8474 75.7899 25.8773 77.4141 26.6894 75.5712C27.2204 74.4155 27.1579 73.4472 26.4083 70.6673C25.846 68.6682 25.5337 68.0747 24.5341 67.1376C23.5971 66.2943 23.0348 66.0444 22.129 66.0444C21.5043 66.0444 20.8171 66.1693 20.6297 66.2943Z" fill="#FFEF63"/>
<path d="M27.4017 69.0693C28.37 71.162 28.901 71.7868 28.1201 69.9439C27.5579 68.5695 27.5579 68.1947 28.1513 68.9756C28.6511 69.6627 28.7761 69.2879 28.3075 68.5383C28.1513 68.2884 27.9327 68.1947 27.8078 68.2884C27.714 68.4133 27.3392 68.1947 27.0269 67.8198C26.6833 67.3825 26.8082 67.8511 27.4017 69.0693Z" fill="#FCFF6D"/>
<path d="M36.0514 71.6919C36.3638 72.4416 37.1759 72.5665 37.8319 71.9418C38.0505 71.7232 37.9568 71.6919 37.582 71.8481C37.2384 71.973 36.8011 71.8481 36.395 71.4733C35.8016 70.9423 35.7703 70.9423 36.0514 71.6919Z" fill="#FCFF6D"/>
<path d="M28.5244 73.3842C28.6181 74.415 28.743 75.3208 28.8055 75.3833C29.0242 75.6332 28.868 73.0719 28.6181 72.291C28.4619 71.7912 28.4307 72.2285 28.5244 73.3842Z" fill="#FCFF6D"/>
<path d="M18.7482 81.7582C17.3738 83.3825 16.9678 84.6944 16.9678 87.6305C16.9678 91.2851 17.655 93.2217 19.654 94.9084C20.4662 95.6268 21.5594 96.8137 22.0592 97.5634C23.2774 99.3751 23.2461 98.8441 22.0279 96.72C21.5282 95.8142 20.7785 94.9396 20.4037 94.8147C18.2797 94.0025 17.1552 90.4417 17.6862 86.1937C17.9361 84.1634 19.1543 81.6645 19.8727 81.6645C20.2475 81.6645 20.6536 82.6328 20.9347 84.3195C21.1533 85.5377 21.1533 85.5377 20.6536 84.8505C20.3724 84.4757 19.9352 84.1634 19.6853 84.1634C17.9048 84.1634 17.9361 92.5969 19.7477 92.8468C20.0913 92.9093 20.6536 92.6282 20.9972 92.2534C21.5282 91.6599 21.5906 91.1289 21.5906 87.6305C21.5906 83.4449 21.1846 81.5708 20.185 81.0398C19.7165 80.7899 19.4354 80.9149 18.7482 81.7582ZM20.4974 86.0687C20.4974 86.1937 20.31 86.506 20.0913 86.7247C19.4354 87.3806 19.2167 88.224 19.5603 88.8799C19.9664 89.6296 20.716 89.6608 20.9035 88.9112C20.9972 88.63 20.9659 89.0673 20.9035 89.9419C20.5911 92.6594 19.779 93.0655 19.2792 90.7228C18.8419 88.6925 18.8419 86.631 19.2792 85.5065C19.5916 84.6631 19.6228 84.6631 20.0601 85.2254C20.31 85.569 20.4974 85.9438 20.4974 86.0687Z" fill="#FFEF63"/>
<path d="M22.1864 81.504C22.3114 82.0662 22.8736 82.8159 23.5608 83.3781C24.1855 83.8779 25.2475 84.8462 25.8722 85.4709C26.4969 86.1268 27.0904 86.5329 27.1841 86.3767C27.4965 85.877 26.4032 83.3156 25.4974 82.4411C24.9664 81.9413 24.4666 81.6289 24.3729 81.7539C24.2792 81.8476 24.654 82.3473 25.185 82.8471C25.7473 83.3156 26.1534 83.9091 26.0909 84.1278C25.9035 84.6588 23.4671 82.8471 22.655 81.5665L21.999 80.5669L22.1864 81.504Z" fill="#FCFF6D"/>
<path d="M29.7177 85.0637C29.5303 85.4073 29.9988 85.7821 30.3112 85.501C30.5923 85.2199 30.5298 84.7826 30.2175 84.7826C30.0301 84.7826 29.8427 84.9075 29.7177 85.0637Z" fill="#FCFF6D"/>
<path d="M24.2766 86.4428C24.6827 86.8488 25.0888 87.13 25.1512 87.0675C25.3699 86.9113 24.1829 85.7244 23.8393 85.7244C23.6519 85.7244 23.8706 86.0367 24.2766 86.4428Z" fill="#FCFF6D"/>
<path d="M25.502 87.218C25.502 87.3742 25.7206 87.6865 25.9705 87.9052C26.2204 88.1238 26.439 88.1863 26.439 88.0926C26.439 87.9677 26.2204 87.6553 25.9705 87.4054C25.7206 87.1243 25.502 87.0618 25.502 87.218Z" fill="#FCFF6D"/>
<path d="M24.8691 88.8433C24.8691 88.9994 24.9941 89.1556 25.119 89.1556C25.244 89.1556 25.6188 89.5929 25.9311 90.1239C26.2435 90.6549 26.5559 90.9985 26.6183 90.936C26.8057 90.7486 25.4001 88.5621 25.119 88.5309C24.9628 88.5309 24.8691 88.6559 24.8691 88.8433Z" fill="#FCFF6D"/>
<path d="M26.7471 88.807C26.7471 88.9944 26.9032 89.2131 27.0594 89.3068C27.2468 89.4005 27.3718 89.2755 27.3718 89.0257C27.3718 88.7445 27.2468 88.5259 27.0594 88.5259C26.9032 88.5259 26.7471 88.6508 26.7471 88.807Z" fill="#FCFF6D"/>
<path d="M24.9379 90.9339C24.9692 91.2463 25.2815 91.7773 25.5939 92.1209C26.1873 92.7456 26.1873 92.7456 25.6563 91.6523C24.9692 90.278 24.9067 90.2155 24.9379 90.9339Z" fill="#FCFF6D"/>
</g>
<defs>
<filter id="filter0_f_2118_6521" x="32.7193" y="71.688" width="76.5039" height="50.9541" filterUnits="userSpaceOnUse" color-interpolation-filters="sRGB">
<feFlood flood-opacity="0" result="BackgroundImageFix"/>
<feBlend mode="normal" in="SourceGraphic" in2="BackgroundImageFix" result="shape"/>
<feGaussianBlur stdDeviation="2.97436" result="effect1_foregroundBlur_2118_6521"/>
</filter>
<filter id="filter1_f_2118_6521" x="89.3628" y="0.802204" width="131.767" height="166.396" filterUnits="userSpaceOnUse" color-interpolation-filters="sRGB">
<feFlood flood-opacity="0" result="BackgroundImageFix"/>
<feBlend mode="normal" in="SourceGraphic" in2="BackgroundImageFix" result="shape"/>
<feGaussianBlur stdDeviation="5.0989" result="effect1_foregroundBlur_2118_6521"/>
</filter>
<filter id="filter2_f_2118_6521" x="0.501837" y="43.0018" width="52.4885" height="69.6291" filterUnits="userSpaceOnUse" color-interpolation-filters="sRGB">
<feFlood flood-opacity="0" result="BackgroundImageFix"/>
<feBlend mode="normal" in="SourceGraphic" in2="BackgroundImageFix" result="shape"/>
<feGaussianBlur stdDeviation="4.24908" result="effect1_foregroundBlur_2118_6521"/>
</filter>
</defs>
</svg>
