<svg width="177" height="100%" viewBox="0 0 177 223" fill="none" xmlns="http://www.w3.org/2000/svg">
<g filter="url(#filter0_f_2118_7114)">
<path d="M93.5128 27.2827C93.5128 40.2334 93.3468 40.5654 89.3619 40.5654C87.2035 40.5654 84.713 41.8937 83.7168 43.388C82.2225 46.2106 82.0564 46.2106 78.9018 43.222C74.5849 39.4032 67.9436 40.2334 67.2794 44.7163C66.2832 49.8634 64.2908 51.0256 60.472 48.5351C57.4834 46.7087 56.6532 46.7087 55.325 48.8671C52.6684 53.018 53.4986 62.648 56.9853 67.1309C59.4758 70.2855 60.306 73.9383 60.306 83.2362C60.306 94.3605 59.9739 95.3567 55.657 98.5113C51.3402 101.5 50.676 101.666 48.1855 99.1755C46.0271 97.017 45.0309 96.851 43.0385 98.5113C41.2121 100.006 39.7178 100.172 37.2273 98.6774C33.4085 96.6849 28.0954 98.6774 26.6011 102.33C26.103 103.824 25.1068 103.658 23.4465 101.5C20.6239 97.6811 15.8089 99.3415 14.4806 104.655C12.9863 110.466 15.1447 119.432 18.6315 122.586C21.122 124.911 21.454 126.571 20.2918 132.382C19.6277 136.201 18.9635 146.993 18.7975 156.291C18.7975 174.887 19.6277 176.547 32.2463 181.694C39.5517 184.849 40.714 182.192 39.5517 165.589C38.8876 157.121 39.2197 151.642 40.2159 150.978C42.7064 149.484 48.6836 153.137 48.6836 156.291C48.6836 158.284 49.1817 158.45 50.8421 156.955C53.1665 155.129 63.6267 157.951 63.6267 160.442C63.6267 161.106 64.955 161.77 66.6153 161.77C68.2756 161.77 70.9322 162.766 72.7585 164.095C74.5849 165.257 78.0716 166.751 80.7282 167.415C85.2111 168.412 85.2111 168.578 85.3771 183.853C85.5432 198.796 85.3771 203.611 84.3809 204.607C84.2149 204.773 82.0564 204.109 79.5659 203.113C75.4151 201.12 75.2491 200.456 75.2491 189C75.2491 177.876 74.917 176.713 70.7661 173.559C66.7813 170.238 66.2832 170.238 63.2946 172.729C61.1362 174.887 60.306 177.876 60.306 185.181V194.977L50.8421 190.66C36.3971 184.185 36.5631 184.185 37.3933 186.675C37.7254 188.004 46.1931 192.487 56.3212 196.637C66.2832 200.954 77.0754 205.603 80.3961 207.264C87.0375 210.418 85.3771 211.082 114.267 193.151C123.399 187.506 125.059 187.173 133.361 187.838C144.651 188.834 153.949 185.015 159.262 177.211L162.749 172.064L159.594 156.457C153.617 126.571 153.451 123.915 156.938 120.926C160.258 117.771 160.757 111.13 158.266 104.655C156.44 99.8396 151.459 99.0094 148.304 102.828C146.478 104.987 145.98 104.987 144.319 102.994C143.323 101.666 140.999 100.338 139.172 100.006C136.184 99.5075 135.851 98.3453 136.35 89.0474C136.848 82.7381 136.184 77.7571 135.021 76.2628C133.527 74.6024 133.693 73.1081 135.851 69.7874C139.338 64.4743 137.678 51.1916 133.195 48.8671C129.376 46.7087 123.399 46.7087 123.399 48.8671C123.399 51.8558 119.746 50.5275 118.916 47.3728C117.754 42.8899 108.622 40.8975 105.965 44.5503C104.803 46.0446 103.309 47.2068 102.645 47.2068C100.154 47.2068 96.9995 41.3956 96.8335 37.0787C96.8335 33.2599 97.6636 32.5958 106.463 30.7694C111.61 29.6072 116.924 28.2789 117.92 27.9469C120.742 27.2827 118.75 22.3017 115.595 22.3017C111.444 22.3017 96.8335 16.9886 96.8335 15.4943C96.8335 14.6641 96.1693 14 95.1731 14C94.1769 14 93.5128 19.4791 93.5128 27.2827ZM109.12 24.1281C109.95 24.9583 108.788 26.2865 106.131 27.2827C98.9919 29.9393 96.8335 29.4412 96.8335 24.7922C96.8335 21.1395 97.3316 20.8074 102.313 21.8036C105.135 22.3017 108.29 23.2979 109.12 24.1281ZM95.3392 58.8292C96.1693 58.8292 96.8335 56.6707 96.8335 53.8482C96.8335 49.3652 97.1655 49.0332 101.482 49.8634C104.637 50.5275 106.796 50.0294 108.29 48.203C110.614 45.5465 115.097 46.3766 115.097 49.5313C115.097 50.6935 117.09 52.6859 119.414 54.0142C123.233 56.0066 123.897 55.8406 126.055 53.184C127.882 50.6935 128.712 50.3615 130.704 52.0218C132.365 53.5161 132.697 55.0104 131.701 56.8368C130.87 58.4971 129.874 61.1537 129.21 62.814C128.546 65.3045 127.882 65.6366 126.388 64.1423C123.233 60.9876 116.425 61.8178 112.275 65.8026L108.29 69.4554L107.294 65.6366C106.463 62.1499 105.633 61.8178 99.8221 62.648C96.1693 63.1461 91.8525 64.8064 90.0261 66.4668C86.8714 69.2893 86.7054 69.2893 85.8752 66.1347C85.3771 64.3083 82.5546 61.8178 79.732 60.8216C74.917 58.9952 74.0868 59.1613 71.7623 62.4819L68.9398 65.9686L66.1172 60.6556C63.4606 55.3425 63.4606 55.0104 66.7813 51.5237C68.7737 49.5313 70.268 46.8747 70.268 45.8785C70.268 42.8899 74.4189 43.5541 77.7396 47.2068C80.5621 50.3615 80.7282 50.3615 86.7054 46.2106L92.6826 42.2258L93.1807 50.5275C93.5128 55.0104 94.343 58.8292 95.3392 58.8292ZM60.306 51.3577C60.306 51.8558 59.9739 52.1878 59.4758 52.1878C58.9777 52.1878 58.6457 51.8558 58.6457 51.3577C58.6457 50.8596 58.9777 50.5275 59.4758 50.5275C59.9739 50.5275 60.306 50.8596 60.306 51.3577ZM61.9663 58.8292C61.9663 62.1499 67.4455 68.7912 70.102 68.7912C70.9322 68.7912 72.2604 67.2969 72.7585 65.4706C74.2529 60.9876 78.2377 61.3197 80.3961 66.1347C83.0527 71.6138 90.0261 72.776 94.675 68.4592C98.1618 65.1385 98.6599 65.1385 102.479 67.795C107.792 71.1157 114.433 71.2817 115.761 67.9611C116.758 65.1385 121.905 64.6404 124.561 67.2969C126.886 69.6214 133.361 65.6366 133.361 61.8178C133.361 60.1575 134.191 58.8292 135.187 58.8292C138.342 58.8292 136.017 65.9686 131.701 68.9573C122.569 75.7647 86.5394 77.7571 71.2642 72.444C62.4644 69.4554 55.8231 62.4819 57.4834 58.1651C58.9777 54.3463 61.9663 54.8444 61.9663 58.8292ZM77.7396 77.425C87.8676 79.5834 119.248 78.2552 125.557 75.2666C128.048 74.1043 130.538 73.6062 131.036 74.2704C131.535 74.7684 132.365 81.2438 132.863 88.5493C133.527 98.0132 133.195 102.662 131.701 104.489C128.878 107.975 126.72 107.643 126.72 103.658C126.72 100.172 123.067 100.67 118.252 104.821C115.927 106.813 115.263 106.813 114.599 104.987C114.101 103.326 113.105 103.658 111.278 105.983C109.452 108.473 109.286 110.632 110.448 115.115C111.444 118.435 112.939 122.088 113.769 123.084C114.765 124.413 114.931 125.243 113.935 125.243C113.105 125.243 107.294 119.93 100.984 113.454C93.1807 105.485 88.8638 102.164 87.0375 102.828C85.5432 103.326 79.2339 106.813 73.0906 110.632C66.9474 114.285 61.4682 117.107 61.1362 116.609C60.6381 116.277 61.1362 113.288 61.9663 110.134C62.9625 107.145 63.6267 97.5151 63.6267 88.8813C63.6267 74.7684 63.9587 73.4402 66.4493 74.6024C68.1096 75.1005 73.0906 76.4288 77.7396 77.425ZM48.6836 101.666C48.6836 102.496 46.8572 104.821 44.6988 106.813C41.2121 109.968 40.2159 110.3 37.2273 108.473C34.4047 106.481 33.4085 106.813 29.9218 109.968L26.103 113.62L22.4502 109.802C17.8013 104.821 17.4692 100.172 22.1182 104.489C25.2728 107.311 30.4199 106.979 30.4199 103.658C30.4199 101.5 35.899 101.5 38.0574 103.658C39.2197 104.821 40.88 104.489 43.0385 102.828C46.6912 100.172 48.6836 99.6736 48.6836 101.666ZM60.306 101.666C60.306 103.492 53.4986 107.311 52.3364 106.149C51.6722 105.485 52.6684 103.99 54.3288 102.662C57.9815 100.172 60.306 99.6736 60.306 101.666ZM128.712 110.3C129.874 110.3 132.365 108.639 134.523 106.647C138.01 103.326 138.508 103.326 141.331 105.817C145.149 109.304 146.478 109.304 150.296 105.817C151.957 104.323 153.285 103.99 153.285 104.987C153.285 105.983 152.455 107.311 151.459 107.809C150.628 108.473 148.968 110.798 148.138 113.122C146.644 117.107 146.312 117.107 142.825 114.783C138.342 111.794 130.206 112.956 127.218 116.775C125.391 119.1 125.059 119.1 122.735 116.111C119.912 112.458 119.58 110.3 121.074 106.149C122.071 103.824 122.403 103.99 124.561 106.979C125.889 108.805 127.716 110.3 128.712 110.3ZM46.6912 116.277C43.5366 119.598 25.937 122.254 21.9521 120.262C18.7975 118.435 16.141 112.458 17.8013 110.632C18.4654 110.134 19.9597 111.296 21.454 113.288C24.6087 117.771 26.7671 117.937 31.25 113.62C34.5707 110.632 35.0688 110.466 37.0612 112.79C40.0498 116.443 42.8724 115.779 45.529 110.798C47.8534 106.481 47.8534 106.481 48.3515 110.3C48.6836 112.292 47.8534 115.115 46.6912 116.277ZM57.8155 113.952C57.1514 117.937 55.657 122.254 54.3288 123.582C52.3364 125.575 52.0043 124.911 52.0043 118.435C52.0043 111.462 54.1627 106.979 57.4834 106.979C58.3136 106.979 58.4796 110.134 57.8155 113.952ZM98.9919 116.609C104.139 121.922 108.456 126.571 108.456 127.235C108.456 128.397 87.5356 140.186 85.3771 140.186C83.7168 140.186 66.4493 118.601 67.2794 117.605C68.9398 115.945 86.2073 106.979 87.7016 106.979C88.6978 106.979 93.6788 111.296 98.9919 116.609ZM156.274 113.952C155.443 119.598 146.312 123.915 133.527 124.911C122.735 125.575 122.237 125.575 116.924 120.096C110.282 113.454 113.105 111.13 119.912 117.605C125.391 122.918 127.716 123.084 131.535 118.435C134.357 114.949 134.523 114.949 138.84 117.605C144.319 121.258 149.632 119.764 150.961 114.285C152.289 109.137 157.104 108.805 156.274 113.952ZM46.3591 131.054C44.2007 132.714 44.3667 133.378 47.5214 136.533C50.1779 139.356 50.51 140.684 49.1817 142.012C47.6874 143.507 46.5252 143.507 44.5328 141.846C42.5404 140.186 41.5442 140.186 39.5517 141.846C37.5593 143.507 37.0612 147.989 37.0612 161.936C37.0612 171.898 36.7292 180.034 36.2311 180.034C35.733 180.034 32.4123 178.208 28.7595 175.883C21.288 171.068 21.122 170.238 23.1144 140.684L24.2766 125.575L36.065 123.416L47.8534 121.092L48.3515 125.243C48.6836 127.401 47.8534 130.058 46.3591 131.054ZM70.6001 128.231C78.2377 138.193 79.898 142.676 79.0678 150.48L78.2377 156.457L67.2794 152.306C61.1362 150.148 55.491 147.657 54.8269 146.993C54.1627 146.329 53.1665 142.178 52.5024 137.695C51.6722 130.058 51.8383 129.394 57.1514 125.077C60.306 122.42 63.1286 120.262 63.6267 120.262C64.1248 120.262 67.2794 123.915 70.6001 128.231ZM150.462 128.065C150.961 129.726 152.953 140.186 155.111 151.31C158.764 170.57 158.764 171.566 155.942 175.883C152.455 181.196 143.987 185.015 136.017 185.015H130.372L129.376 169.574C128.878 161.272 128.214 151.642 127.882 148.488C127.55 143.673 126.72 142.51 122.569 141.348C118.086 140.02 117.588 139.19 117.588 133.877V127.733L129.708 128.397C137.346 128.729 142.659 128.231 143.821 127.069C146.478 124.413 149.632 124.911 150.462 128.065ZM113.271 142.842C112.275 144.005 110.78 144.669 109.95 144.171C107.294 142.676 108.29 132.216 111.444 129.228C114.101 126.405 114.267 126.571 114.765 133.378C115.097 137.197 114.433 141.514 113.271 142.842ZM106.629 143.839C106.796 147.325 104.969 149.65 99.158 154.299C90.5242 160.774 88.8638 161.106 84.547 157.951C81.0602 155.295 81.3923 146.993 85.2111 145.001C86.5394 144.171 91.5204 141.348 96.0033 138.692C105.135 133.212 106.463 133.877 106.629 143.839ZM46.1931 145.499C49.6798 146.993 52.0043 150.148 49.5138 150.148C47.5214 150.148 40.3819 146.163 40.3819 144.835C40.3819 143.008 41.0461 143.174 46.1931 145.499ZM122.403 145.665C124.727 146.993 126.221 148.488 125.557 148.986C124.395 150.148 124.727 170.57 126.055 177.377C126.554 180.366 125.557 182.358 121.905 184.849C119.248 186.841 116.592 188.336 115.927 188.336C115.429 188.336 111.777 190.494 107.958 192.985C104.139 195.641 98.3278 199.294 95.0071 201.286L89.1959 204.773V187.007L89.3619 169.242L94.8411 167.581C97.6637 166.751 100.154 165.091 100.154 164.095C100.154 162.933 101.814 161.438 103.807 160.774C105.799 160.276 108.954 158.284 110.78 156.457C112.773 154.631 115.927 152.472 118.086 151.642C122.569 149.816 122.901 146.827 118.418 146.827C116.592 146.827 115.097 145.997 115.097 145.167C115.097 142.842 117.256 143.008 122.403 145.665ZM113.437 149.982C113.437 150.812 112.275 151.974 110.78 152.472C106.796 153.967 106.131 153.635 108.456 150.978C110.78 148.155 113.437 147.657 113.437 149.982ZM57.8155 151.808C58.3136 152.638 57.9815 153.469 57.1514 153.469C56.1552 153.469 55.325 152.638 55.325 151.808C55.325 150.812 55.657 150.148 55.9891 150.148C56.4872 150.148 57.3174 150.812 57.8155 151.808ZM63.6267 155.295C63.6267 156.291 62.9625 156.457 61.9663 155.959C61.1362 155.461 60.306 154.133 60.306 153.303C60.306 152.306 61.1362 152.14 61.9663 152.638C62.9625 153.137 63.6267 154.465 63.6267 155.295ZM101.15 159.446C99.324 160.608 97.4976 161.438 96.9995 160.94C96.6674 160.442 97.6636 158.948 99.49 157.785C101.15 156.457 102.977 155.793 103.475 156.291C103.973 156.623 102.811 158.118 101.15 159.446ZM78.5697 159.612C78.9018 159.944 78.2377 160.94 76.9094 161.77C74.4189 163.265 70.268 161.106 70.268 158.118C70.268 156.789 76.5773 157.785 78.5697 159.612ZM90.6902 165.423C88.6978 167.581 87.3695 167.914 85.0451 166.585C80.064 164.095 81.3923 161.936 87.5356 162.268C92.8487 162.6 93.0147 162.766 90.6902 165.423ZM72.7585 178.374C73.2567 179.204 72.5925 180.034 71.2642 180.034C69.7699 180.034 68.6077 179.204 68.6077 178.374C68.6077 177.377 69.2718 176.713 70.102 176.713C71.0982 176.713 72.2604 177.377 72.7585 178.374ZM66.4493 183.687C65.9512 185.015 65.4531 184.517 65.4531 182.691C65.287 180.864 65.7851 179.868 66.2832 180.532C66.7813 181.03 66.9474 182.525 66.4493 183.687ZM73.5887 185.015C73.5887 185.845 72.9246 186.675 72.0944 186.675C71.0982 186.675 69.936 185.845 69.4379 185.015C68.9398 184.019 69.6039 183.355 70.9322 183.355C72.4265 183.355 73.5887 184.019 73.5887 185.015ZM66.9474 189.166C66.9474 190.494 66.2832 191.656 65.287 191.656C64.4568 191.656 63.6267 190.494 63.6267 189.166C63.6267 187.838 64.4568 186.675 65.287 186.675C66.2832 186.675 66.9474 187.838 66.9474 189.166ZM73.5887 192.653C73.5887 194.977 71.5963 195.807 69.7699 193.981C68.2756 192.487 70.4341 188.17 72.0944 189.332C72.9246 189.83 73.5887 191.324 73.5887 192.653ZM66.1172 196.637C66.6153 197.468 66.7813 198.298 66.2832 198.298C65.7851 198.298 64.955 197.468 64.4568 196.637C63.9587 195.641 63.7927 194.977 64.2908 194.977C64.7889 194.977 65.6191 195.641 66.1172 196.637ZM73.0906 199.46C72.4265 199.958 71.4303 199.958 70.7661 199.46C70.268 198.796 70.7661 198.298 71.9284 198.298C73.0906 198.298 73.5887 198.796 73.0906 199.46Z" fill="#FFF06A"/>
<path d="M70.6067 88.2095C71.2708 94.6848 75.2557 95.1829 75.2557 88.8736C75.2557 85.3869 74.4255 83.7266 72.5991 83.7266C70.7727 83.7266 70.2746 85.0549 70.6067 88.2095Z" fill="#FFF06A"/>
<path d="M63.624 136.025C63.624 138.349 64.4542 140.176 65.2844 140.176C66.2806 140.176 66.9447 138.349 66.9447 136.025C66.9447 133.7 66.2806 131.874 65.2844 131.874C64.4542 131.874 63.624 133.7 63.624 136.025Z" fill="#FFF06A"/>
<path d="M99.3272 142.013C97.6669 144.503 99.8253 146.163 101.984 144.005C103.146 142.843 103.146 141.846 102.15 141.182C101.154 140.684 99.8253 141.016 99.3272 142.013Z" fill="#FFF06A"/>
<path d="M87.7003 148.649C86.0399 151.14 88.1984 152.8 90.3568 150.642C91.519 149.479 91.519 148.483 90.5228 147.819C89.5266 147.321 88.1984 147.653 87.7003 148.649Z" fill="#FFF06A"/>
<path d="M115.101 164.259C115.101 167.414 115.931 170.07 116.761 170.07C117.757 170.07 118.421 167.414 118.421 164.259C118.421 161.104 117.757 158.448 116.761 158.448C115.931 158.448 115.101 161.104 115.101 164.259Z" fill="#FFF06A"/>
<path d="M95.1797 177.541C95.1797 180.197 96.1759 181.691 97.6702 181.691C99.1645 181.691 100.161 180.197 100.161 177.541C100.161 174.884 99.1645 173.39 97.6702 173.39C96.1759 173.39 95.1797 174.884 95.1797 177.541Z" fill="#FFF06A"/>
<path d="M73.5918 160.943C73.5918 161.441 73.9239 161.773 74.422 161.773C74.9201 161.773 75.2521 161.441 75.2521 160.943C75.2521 160.445 74.9201 160.113 74.422 160.113C73.9239 160.113 73.5918 160.445 73.5918 160.943Z" fill="#FFF06A"/>
<path d="M48.3529 167.579C48.685 170.734 49.3491 173.391 49.6812 173.391C50.0133 173.391 50.3453 170.734 50.3453 167.579C50.3453 164.425 49.6812 161.768 49.0171 161.768C48.3529 161.768 48.0209 164.425 48.3529 167.579Z" fill="#FFF06A"/>
<path d="M45.3633 170.891C45.3633 171.389 45.6953 171.721 46.1935 171.721C46.6916 171.721 47.0236 171.389 47.0236 170.891C47.0236 170.392 46.6916 170.06 46.1935 170.06C45.6953 170.06 45.3633 170.392 45.3633 170.891Z" fill="#FFF06A"/>
</g>
<path d="M93.5128 27.2827C93.5128 40.2334 93.3468 40.5654 89.3619 40.5654C87.2035 40.5654 84.713 41.8937 83.7168 43.388C82.2225 46.2106 82.0564 46.2106 78.9018 43.222C74.5849 39.4032 67.9436 40.2334 67.2794 44.7163C66.2832 49.8634 64.2908 51.0256 60.472 48.5351C57.4834 46.7087 56.6532 46.7087 55.325 48.8671C52.6684 53.018 53.4986 62.648 56.9853 67.1309C59.4758 70.2855 60.306 73.9383 60.306 83.2362C60.306 94.3605 59.9739 95.3567 55.657 98.5113C51.3402 101.5 50.676 101.666 48.1855 99.1755C46.0271 97.017 45.0309 96.851 43.0385 98.5113C41.2121 100.006 39.7178 100.172 37.2273 98.6774C33.4085 96.6849 28.0954 98.6774 26.6011 102.33C26.103 103.824 25.1068 103.658 23.4465 101.5C20.6239 97.6811 15.8089 99.3415 14.4806 104.655C12.9863 110.466 15.1447 119.432 18.6315 122.586C21.122 124.911 21.454 126.571 20.2918 132.382C19.6277 136.201 18.9635 146.993 18.7975 156.291C18.7975 174.887 19.6277 176.547 32.2463 181.694C39.5517 184.849 40.714 182.192 39.5517 165.589C38.8876 157.121 39.2197 151.642 40.2159 150.978C42.7064 149.484 48.6836 153.137 48.6836 156.291C48.6836 158.284 49.1817 158.45 50.8421 156.955C53.1665 155.129 63.6267 157.951 63.6267 160.442C63.6267 161.106 64.955 161.77 66.6153 161.77C68.2756 161.77 70.9322 162.766 72.7585 164.095C74.5849 165.257 78.0716 166.751 80.7282 167.415C85.2111 168.412 85.2111 168.578 85.3771 183.853C85.5432 198.796 85.3771 203.611 84.3809 204.607C84.2149 204.773 82.0564 204.109 79.5659 203.113C75.4151 201.12 75.2491 200.456 75.2491 189C75.2491 177.876 74.917 176.713 70.7661 173.559C66.7813 170.238 66.2832 170.238 63.2946 172.729C61.1362 174.887 60.306 177.876 60.306 185.181V194.977L50.8421 190.66C36.3971 184.185 36.5631 184.185 37.3933 186.675C37.7254 188.004 46.1931 192.487 56.3212 196.637C66.2832 200.954 77.0754 205.603 80.3961 207.264C87.0375 210.418 85.3771 211.082 114.267 193.151C123.399 187.506 125.059 187.173 133.361 187.838C144.651 188.834 153.949 185.015 159.262 177.211L162.749 172.064L159.594 156.457C153.617 126.571 153.451 123.915 156.938 120.926C160.258 117.771 160.757 111.13 158.266 104.655C156.44 99.8396 151.459 99.0094 148.304 102.828C146.478 104.987 145.98 104.987 144.319 102.994C143.323 101.666 140.999 100.338 139.172 100.006C136.184 99.5075 135.851 98.3453 136.35 89.0474C136.848 82.7381 136.184 77.7571 135.021 76.2628C133.527 74.6024 133.693 73.1081 135.851 69.7874C139.338 64.4743 137.678 51.1916 133.195 48.8671C129.376 46.7087 123.399 46.7087 123.399 48.8671C123.399 51.8558 119.746 50.5275 118.916 47.3728C117.754 42.8899 108.622 40.8975 105.965 44.5503C104.803 46.0446 103.309 47.2068 102.645 47.2068C100.154 47.2068 96.9995 41.3956 96.8335 37.0787C96.8335 33.2599 97.6636 32.5958 106.463 30.7694C111.61 29.6072 116.924 28.2789 117.92 27.9469C120.742 27.2827 118.75 22.3017 115.595 22.3017C111.444 22.3017 96.8335 16.9886 96.8335 15.4943C96.8335 14.6641 96.1693 14 95.1731 14C94.1769 14 93.5128 19.4791 93.5128 27.2827ZM109.12 24.1281C109.95 24.9583 108.788 26.2865 106.131 27.2827C98.9919 29.9393 96.8335 29.4412 96.8335 24.7922C96.8335 21.1395 97.3316 20.8074 102.313 21.8036C105.135 22.3017 108.29 23.2979 109.12 24.1281ZM95.3392 58.8292C96.1693 58.8292 96.8335 56.6707 96.8335 53.8482C96.8335 49.3652 97.1655 49.0332 101.482 49.8634C104.637 50.5275 106.796 50.0294 108.29 48.203C110.614 45.5465 115.097 46.3766 115.097 49.5313C115.097 50.6935 117.09 52.6859 119.414 54.0142C123.233 56.0066 123.897 55.8406 126.055 53.184C127.882 50.6935 128.712 50.3615 130.704 52.0218C132.365 53.5161 132.697 55.0104 131.701 56.8368C130.87 58.4971 129.874 61.1537 129.21 62.814C128.546 65.3045 127.882 65.6366 126.388 64.1423C123.233 60.9876 116.425 61.8178 112.275 65.8026L108.29 69.4554L107.294 65.6366C106.463 62.1499 105.633 61.8178 99.8221 62.648C96.1693 63.1461 91.8525 64.8064 90.0261 66.4668C86.8714 69.2893 86.7054 69.2893 85.8752 66.1347C85.3771 64.3083 82.5546 61.8178 79.732 60.8216C74.917 58.9952 74.0868 59.1613 71.7623 62.4819L68.9398 65.9686L66.1172 60.6556C63.4606 55.3425 63.4606 55.0104 66.7813 51.5237C68.7737 49.5313 70.268 46.8747 70.268 45.8785C70.268 42.8899 74.4189 43.5541 77.7396 47.2068C80.5621 50.3615 80.7282 50.3615 86.7054 46.2106L92.6826 42.2258L93.1807 50.5275C93.5128 55.0104 94.343 58.8292 95.3392 58.8292ZM60.306 51.3577C60.306 51.8558 59.9739 52.1878 59.4758 52.1878C58.9777 52.1878 58.6457 51.8558 58.6457 51.3577C58.6457 50.8596 58.9777 50.5275 59.4758 50.5275C59.9739 50.5275 60.306 50.8596 60.306 51.3577ZM61.9663 58.8292C61.9663 62.1499 67.4455 68.7912 70.102 68.7912C70.9322 68.7912 72.2604 67.2969 72.7585 65.4706C74.2529 60.9876 78.2377 61.3197 80.3961 66.1347C83.0527 71.6138 90.0261 72.776 94.675 68.4592C98.1618 65.1385 98.6599 65.1385 102.479 67.795C107.792 71.1157 114.433 71.2817 115.761 67.9611C116.758 65.1385 121.905 64.6404 124.561 67.2969C126.886 69.6214 133.361 65.6366 133.361 61.8178C133.361 60.1575 134.191 58.8292 135.187 58.8292C138.342 58.8292 136.017 65.9686 131.701 68.9573C122.569 75.7647 86.5394 77.7571 71.2642 72.444C62.4644 69.4554 55.8231 62.4819 57.4834 58.1651C58.9777 54.3463 61.9663 54.8444 61.9663 58.8292ZM77.7396 77.425C87.8676 79.5834 119.248 78.2552 125.557 75.2666C128.048 74.1043 130.538 73.6062 131.036 74.2704C131.535 74.7684 132.365 81.2438 132.863 88.5493C133.527 98.0132 133.195 102.662 131.701 104.489C128.878 107.975 126.72 107.643 126.72 103.658C126.72 100.172 123.067 100.67 118.252 104.821C115.927 106.813 115.263 106.813 114.599 104.987C114.101 103.326 113.105 103.658 111.278 105.983C109.452 108.473 109.286 110.632 110.448 115.115C111.444 118.435 112.939 122.088 113.769 123.084C114.765 124.413 114.931 125.243 113.935 125.243C113.105 125.243 107.294 119.93 100.984 113.454C93.1807 105.485 88.8638 102.164 87.0375 102.828C85.5432 103.326 79.2339 106.813 73.0906 110.632C66.9474 114.285 61.4682 117.107 61.1362 116.609C60.6381 116.277 61.1362 113.288 61.9663 110.134C62.9625 107.145 63.6267 97.5151 63.6267 88.8813C63.6267 74.7684 63.9587 73.4402 66.4493 74.6024C68.1096 75.1005 73.0906 76.4288 77.7396 77.425ZM48.6836 101.666C48.6836 102.496 46.8572 104.821 44.6988 106.813C41.2121 109.968 40.2159 110.3 37.2273 108.473C34.4047 106.481 33.4085 106.813 29.9218 109.968L26.103 113.62L22.4502 109.802C17.8013 104.821 17.4692 100.172 22.1182 104.489C25.2728 107.311 30.4199 106.979 30.4199 103.658C30.4199 101.5 35.899 101.5 38.0574 103.658C39.2197 104.821 40.88 104.489 43.0385 102.828C46.6912 100.172 48.6836 99.6736 48.6836 101.666ZM60.306 101.666C60.306 103.492 53.4986 107.311 52.3364 106.149C51.6722 105.485 52.6684 103.99 54.3288 102.662C57.9815 100.172 60.306 99.6736 60.306 101.666ZM128.712 110.3C129.874 110.3 132.365 108.639 134.523 106.647C138.01 103.326 138.508 103.326 141.331 105.817C145.149 109.304 146.478 109.304 150.296 105.817C151.957 104.323 153.285 103.99 153.285 104.987C153.285 105.983 152.455 107.311 151.459 107.809C150.628 108.473 148.968 110.798 148.138 113.122C146.644 117.107 146.312 117.107 142.825 114.783C138.342 111.794 130.206 112.956 127.218 116.775C125.391 119.1 125.059 119.1 122.735 116.111C119.912 112.458 119.58 110.3 121.074 106.149C122.071 103.824 122.403 103.99 124.561 106.979C125.889 108.805 127.716 110.3 128.712 110.3ZM46.6912 116.277C43.5366 119.598 25.937 122.254 21.9521 120.262C18.7975 118.435 16.141 112.458 17.8013 110.632C18.4654 110.134 19.9597 111.296 21.454 113.288C24.6087 117.771 26.7671 117.937 31.25 113.62C34.5707 110.632 35.0688 110.466 37.0612 112.79C40.0498 116.443 42.8724 115.779 45.529 110.798C47.8534 106.481 47.8534 106.481 48.3515 110.3C48.6836 112.292 47.8534 115.115 46.6912 116.277ZM57.8155 113.952C57.1514 117.937 55.657 122.254 54.3288 123.582C52.3364 125.575 52.0043 124.911 52.0043 118.435C52.0043 111.462 54.1627 106.979 57.4834 106.979C58.3136 106.979 58.4796 110.134 57.8155 113.952ZM98.9919 116.609C104.139 121.922 108.456 126.571 108.456 127.235C108.456 128.397 87.5356 140.186 85.3771 140.186C83.7168 140.186 66.4493 118.601 67.2794 117.605C68.9398 115.945 86.2073 106.979 87.7016 106.979C88.6978 106.979 93.6788 111.296 98.9919 116.609ZM156.274 113.952C155.443 119.598 146.312 123.915 133.527 124.911C122.735 125.575 122.237 125.575 116.924 120.096C110.282 113.454 113.105 111.13 119.912 117.605C125.391 122.918 127.716 123.084 131.535 118.435C134.357 114.949 134.523 114.949 138.84 117.605C144.319 121.258 149.632 119.764 150.961 114.285C152.289 109.137 157.104 108.805 156.274 113.952ZM46.3591 131.054C44.2007 132.714 44.3667 133.378 47.5214 136.533C50.1779 139.356 50.51 140.684 49.1817 142.012C47.6874 143.507 46.5252 143.507 44.5328 141.846C42.5404 140.186 41.5442 140.186 39.5517 141.846C37.5593 143.507 37.0612 147.989 37.0612 161.936C37.0612 171.898 36.7292 180.034 36.2311 180.034C35.733 180.034 32.4123 178.208 28.7595 175.883C21.288 171.068 21.122 170.238 23.1144 140.684L24.2766 125.575L36.065 123.416L47.8534 121.092L48.3515 125.243C48.6836 127.401 47.8534 130.058 46.3591 131.054ZM70.6001 128.231C78.2377 138.193 79.898 142.676 79.0678 150.48L78.2377 156.457L67.2794 152.306C61.1362 150.148 55.491 147.657 54.8269 146.993C54.1627 146.329 53.1665 142.178 52.5024 137.695C51.6722 130.058 51.8383 129.394 57.1514 125.077C60.306 122.42 63.1286 120.262 63.6267 120.262C64.1248 120.262 67.2794 123.915 70.6001 128.231ZM150.462 128.065C150.961 129.726 152.953 140.186 155.111 151.31C158.764 170.57 158.764 171.566 155.942 175.883C152.455 181.196 143.987 185.015 136.017 185.015H130.372L129.376 169.574C128.878 161.272 128.214 151.642 127.882 148.488C127.55 143.673 126.72 142.51 122.569 141.348C118.086 140.02 117.588 139.19 117.588 133.877V127.733L129.708 128.397C137.346 128.729 142.659 128.231 143.821 127.069C146.478 124.413 149.632 124.911 150.462 128.065ZM113.271 142.842C112.275 144.005 110.78 144.669 109.95 144.171C107.294 142.676 108.29 132.216 111.444 129.228C114.101 126.405 114.267 126.571 114.765 133.378C115.097 137.197 114.433 141.514 113.271 142.842ZM106.629 143.839C106.796 147.325 104.969 149.65 99.158 154.299C90.5242 160.774 88.8638 161.106 84.547 157.951C81.0602 155.295 81.3923 146.993 85.2111 145.001C86.5394 144.171 91.5204 141.348 96.0033 138.692C105.135 133.212 106.463 133.877 106.629 143.839ZM46.1931 145.499C49.6798 146.993 52.0043 150.148 49.5138 150.148C47.5214 150.148 40.3819 146.163 40.3819 144.835C40.3819 143.008 41.0461 143.174 46.1931 145.499ZM122.403 145.665C124.727 146.993 126.221 148.488 125.557 148.986C124.395 150.148 124.727 170.57 126.055 177.377C126.554 180.366 125.557 182.358 121.905 184.849C119.248 186.841 116.592 188.336 115.927 188.336C115.429 188.336 111.777 190.494 107.958 192.985C104.139 195.641 98.3278 199.294 95.0071 201.286L89.1959 204.773V187.007L89.3619 169.242L94.8411 167.581C97.6637 166.751 100.154 165.091 100.154 164.095C100.154 162.933 101.814 161.438 103.807 160.774C105.799 160.276 108.954 158.284 110.78 156.457C112.773 154.631 115.927 152.472 118.086 151.642C122.569 149.816 122.901 146.827 118.418 146.827C116.592 146.827 115.097 145.997 115.097 145.167C115.097 142.842 117.256 143.008 122.403 145.665ZM113.437 149.982C113.437 150.812 112.275 151.974 110.78 152.472C106.796 153.967 106.131 153.635 108.456 150.978C110.78 148.155 113.437 147.657 113.437 149.982ZM57.8155 151.808C58.3136 152.638 57.9815 153.469 57.1514 153.469C56.1552 153.469 55.325 152.638 55.325 151.808C55.325 150.812 55.657 150.148 55.9891 150.148C56.4872 150.148 57.3174 150.812 57.8155 151.808ZM63.6267 155.295C63.6267 156.291 62.9625 156.457 61.9663 155.959C61.1362 155.461 60.306 154.133 60.306 153.303C60.306 152.306 61.1362 152.14 61.9663 152.638C62.9625 153.137 63.6267 154.465 63.6267 155.295ZM101.15 159.446C99.324 160.608 97.4976 161.438 96.9995 160.94C96.6674 160.442 97.6636 158.948 99.49 157.785C101.15 156.457 102.977 155.793 103.475 156.291C103.973 156.623 102.811 158.118 101.15 159.446ZM78.5697 159.612C78.9018 159.944 78.2377 160.94 76.9094 161.77C74.4189 163.265 70.268 161.106 70.268 158.118C70.268 156.789 76.5773 157.785 78.5697 159.612ZM90.6902 165.423C88.6978 167.581 87.3695 167.914 85.0451 166.585C80.064 164.095 81.3923 161.936 87.5356 162.268C92.8487 162.6 93.0147 162.766 90.6902 165.423ZM72.7585 178.374C73.2567 179.204 72.5925 180.034 71.2642 180.034C69.7699 180.034 68.6077 179.204 68.6077 178.374C68.6077 177.377 69.2718 176.713 70.102 176.713C71.0982 176.713 72.2604 177.377 72.7585 178.374ZM66.4493 183.687C65.9512 185.015 65.4531 184.517 65.4531 182.691C65.287 180.864 65.7851 179.868 66.2832 180.532C66.7813 181.03 66.9474 182.525 66.4493 183.687ZM73.5887 185.015C73.5887 185.845 72.9246 186.675 72.0944 186.675C71.0982 186.675 69.936 185.845 69.4379 185.015C68.9398 184.019 69.6039 183.355 70.9322 183.355C72.4265 183.355 73.5887 184.019 73.5887 185.015ZM66.9474 189.166C66.9474 190.494 66.2832 191.656 65.287 191.656C64.4568 191.656 63.6267 190.494 63.6267 189.166C63.6267 187.838 64.4568 186.675 65.287 186.675C66.2832 186.675 66.9474 187.838 66.9474 189.166ZM73.5887 192.653C73.5887 194.977 71.5963 195.807 69.7699 193.981C68.2756 192.487 70.4341 188.17 72.0944 189.332C72.9246 189.83 73.5887 191.324 73.5887 192.653ZM66.1172 196.637C66.6153 197.468 66.7813 198.298 66.2832 198.298C65.7851 198.298 64.955 197.468 64.4568 196.637C63.9587 195.641 63.7927 194.977 64.2908 194.977C64.7889 194.977 65.6191 195.641 66.1172 196.637ZM73.0906 199.46C72.4265 199.958 71.4303 199.958 70.7661 199.46C70.268 198.796 70.7661 198.298 71.9284 198.298C73.0906 198.298 73.5887 198.796 73.0906 199.46Z" fill="white"/>
<path d="M70.6067 88.2095C71.2708 94.6848 75.2557 95.1829 75.2557 88.8736C75.2557 85.3869 74.4255 83.7266 72.5991 83.7266C70.7727 83.7266 70.2746 85.0549 70.6067 88.2095Z" fill="white"/>
<path d="M63.624 136.025C63.624 138.349 64.4542 140.176 65.2844 140.176C66.2806 140.176 66.9447 138.349 66.9447 136.025C66.9447 133.7 66.2806 131.874 65.2844 131.874C64.4542 131.874 63.624 133.7 63.624 136.025Z" fill="white"/>
<path d="M99.3272 142.013C97.6669 144.503 99.8253 146.163 101.984 144.005C103.146 142.843 103.146 141.846 102.15 141.182C101.154 140.684 99.8253 141.016 99.3272 142.013Z" fill="white"/>
<path d="M87.7003 148.649C86.0399 151.14 88.1984 152.8 90.3568 150.642C91.519 149.479 91.519 148.483 90.5228 147.819C89.5266 147.321 88.1984 147.653 87.7003 148.649Z" fill="white"/>
<path d="M115.101 164.259C115.101 167.414 115.931 170.07 116.761 170.07C117.757 170.07 118.421 167.414 118.421 164.259C118.421 161.104 117.757 158.448 116.761 158.448C115.931 158.448 115.101 161.104 115.101 164.259Z" fill="white"/>
<path d="M95.1797 177.541C95.1797 180.197 96.1759 181.691 97.6702 181.691C99.1645 181.691 100.161 180.197 100.161 177.541C100.161 174.884 99.1645 173.39 97.6702 173.39C96.1759 173.39 95.1797 174.884 95.1797 177.541Z" fill="white"/>
<path d="M73.5918 160.943C73.5918 161.441 73.9239 161.773 74.422 161.773C74.9201 161.773 75.2521 161.441 75.2521 160.943C75.2521 160.445 74.9201 160.113 74.422 160.113C73.9239 160.113 73.5918 160.445 73.5918 160.943Z" fill="white"/>
<path d="M48.3529 167.579C48.685 170.734 49.3491 173.391 49.6812 173.391C50.0133 173.391 50.3453 170.734 50.3453 167.579C50.3453 164.425 49.6812 161.768 49.0171 161.768C48.3529 161.768 48.0209 164.425 48.3529 167.579Z" fill="white"/>
<path d="M45.3633 170.891C45.3633 171.389 45.6953 171.721 46.1935 171.721C46.6916 171.721 47.0236 171.389 47.0236 170.891C47.0236 170.392 46.6916 170.06 46.1935 170.06C45.6953 170.06 45.3633 170.392 45.3633 170.891Z" fill="white"/>
<defs>
<filter id="filter0_f_2118_7114" x="0.379656" y="0.379656" width="175.99" height="222.241" filterUnits="userSpaceOnUse" color-interpolation-filters="sRGB">
<feFlood flood-opacity="0" result="BackgroundImageFix"/>
<feBlend mode="normal" in="SourceGraphic" in2="BackgroundImageFix" result="shape"/>
<feGaussianBlur stdDeviation="6.81017" result="effect1_foregroundBlur_2118_7114"/>
</filter>
</defs>
</svg>
