<svg width="36" height="48" viewBox="0 0 36 48" fill="none" xmlns="http://www.w3.org/2000/svg">
<path d="M33.8937 23.5806V25.0543H32.42V26.5279H30.9463V28.0016H29.4726V26.5279H27.9989V25.0543H26.5253V23.5806H25.0516V22.1069H23.5779V20.6332H22.1042V19.1595H20.6305V17.6858H19.1568V16.2122H16.2095V17.6858H14.7358V19.1595H13.2621V20.6332H11.7884V22.1069H10.3147V23.5806H8.84107V25.0543H7.36739V26.5279H5.8937V28.0016H4.42002V26.5279H2.94634V25.0543H1.47266V23.5806H2.94634V22.1069H4.42002V20.6332H5.8937V19.1595H7.36739V17.6858H8.84107V16.2122H10.3147V14.7385H11.7884V13.2648H13.2621V11.7911H14.7358V10.3174H16.2095V8.84375H19.1568V10.3174H20.6305V11.7911H22.1042V13.2648H23.5779V14.7385H25.0516V16.2122H26.5253V17.6858H27.9989V19.1595H29.4726V20.6332H30.9463V22.1069H32.42V23.5806H33.8937Z" fill="white"/>
<path d="M33.8937 36.2095V37.6832H32.42V39.1568H30.9463V40.6305H29.4726V39.1568H27.9989V37.6832H26.5253V36.2095H25.0516V34.7358H23.5779V33.2621H22.1042V31.7884H20.6305V30.3147H19.1568V28.8411H16.2095V30.3147H14.7358V31.7884H13.2621V33.2621H11.7884V34.7358H10.3147V36.2095H8.84107V37.6832H7.36739V39.1568H5.8937V40.6305H4.42002V39.1568H2.94634V37.6832H1.47266V36.2095H2.94634V34.7358H4.42002V33.2621H5.8937V31.7884H7.36739V30.3147H8.84107V28.8411H10.3147V27.3674H11.7884V25.8937H13.2621V24.42H14.7358V22.9463H16.2095V21.4727H19.1568V22.9463H20.6305V24.42H22.1042V25.8937H23.5779V27.3674H25.0516V28.8411H26.5253V30.3147H27.9989V31.7884H29.4726V33.2621H30.9463V34.7358H32.42V36.2095H33.8937Z" fill="white"/>
</svg>
