<svg width="100%" height="100%" viewBox="0 0 428 438" fill="none" xmlns="http://www.w3.org/2000/svg">
<path fill-rule="evenodd" clip-rule="evenodd" d="M192.453 5.32693V10.6538H187.127H181.801V21.302V31.9502H176.475H171.148V37.4517V42.9533H117.709H64.2694V48.2773V53.6014H53.617H42.9646V58.9255V64.2495H32.3123H21.6599V69.5736V74.8977H16.1561H10.6524V80.2218V85.5459H5.3262H0V96.1941V106.842H26.8085H53.617V101.518V96.1941H112.383H171.148V101.518V106.842H176.475H181.801V267.097V427.352H187.127H192.453V432.676V438H213.936H235.418V432.676V427.352H240.744H246.07V267.097V106.842H262.049H278.027V101.518V96.1941H309.985H341.942V101.515V106.837L363.335 106.928L384.729 107.02L384.827 112.255L384.925 117.49H406.221H427.516V106.842V96.1941H422.19H416.864V90.87V85.5459H411.537H406.211V80.2218V74.8977H395.559H384.906V69.5736V64.2495H374.254H363.602V58.929V53.6085L347.534 53.5162L331.467 53.4239V48.1886V42.9536L294.104 42.9533H256.741L256.643 37.5404L256.545 32.1276H251.307H246.07L246.07 21.3907L246.07 10.6538H240.754H235.437L235.339 5.4185L235.24 0.183145L213.847 0.0915726L192.453 0V5.32693ZM224.481 16.1561L224.588 21.3031L213.847 21.3027L203.106 21.302V16.1554V11.0088H213.74H224.374L224.481 16.1561ZM192.631 64.2495V96.1941H187.216H181.801V64.2495V32.3051H187.216H192.631V64.2495ZM235.418 64.2495V96.1941H219.262H203.106V64.2495V32.3051H219.262H235.418V64.2495ZM171.148 64.2495V74.8977H165.822H160.496V80.2218V85.5459H96.4041H32.3123V90.87V96.1941H21.6599H11.0075V90.87V85.5459H16.3337H21.6599V80.2218V74.8977H32.3123H42.9646V69.5736V64.2495H50.8964C55.2593 64.2495 62.4496 64.1441 66.875 64.0153L74.9218 63.7814V58.6912V53.6014H123.035H171.148V64.2495ZM331.289 58.9255V64.2495H347.268H363.247V69.5736V74.8977H374.076H384.906V80.2218V85.5459H395.559H406.211V90.87V96.1941H411.537H416.864V101.518V106.842H400.885H384.906V101.518V96.1941H363.602H342.297V90.87V85.5459H309.968H277.64L277.693 90.7813L277.745 96.0166L267.234 96.1107L256.723 96.2047V90.9335C256.723 88.0344 256.617 78.4485 256.487 69.6318L256.252 53.6014H293.771H331.289V58.9255ZM235.062 266.999L235.063 416.33L229.825 416.428L224.588 416.526L224.49 421.762L224.392 426.997H213.748H203.106V272.193V117.389L219.083 117.528L235.061 117.668L235.062 266.999Z" fill="#FF30B3"/>
</svg>
