<svg width="100%" height="100%" viewBox="0 0 519 519" fill="none" xmlns="http://www.w3.org/2000/svg">
<path d="M454.125 216.25V237.875H432.5V259.5H410.875V281.125H389.25V302.75H367.625V324.375H346V346H324.375V367.625H302.75V389.25H281.125V410.875H259.5V432.5H237.875V454.125H216.25V475.75H194.625V497.375H173V454.125H194.625V389.25H216.25V302.75H64.875V281.125H86.5V259.5H108.125V237.875H129.75V216.25H151.375V194.625H173V173H194.625V151.375H216.25V129.75H237.875V108.125H259.5V86.5H281.125V64.875H302.75V43.25H324.375V21.625H346V64.875H324.375V129.75H302.75V216.25H454.125Z" fill="#FEF164"/>
</svg>
