<svg width="100%" height="100%" viewBox="0 0 470 470" fill="none" xmlns="http://www.w3.org/2000/svg">
<path d="M78.3337 293.75H39.167V430.833H78.3337V293.75Z" fill="#7CB1FF"/>
<path d="M195.834 195.834H156.667V430.834H195.834V195.834Z" fill="#7CB1FF"/>
<path d="M313.334 274.166H274.167V430.833H313.334V274.166Z" fill="#7CB1FF"/>
<path d="M430.834 195.834H391.667V430.834H430.834V195.834Z" fill="#7CB1FF"/>
<path d="M372.083 97.916H352.5V117.499H372.083V97.916Z" fill="#7CB1FF"/>
<path d="M352.5 117.5H332.917V137.083H352.5V117.5Z" fill="#7CB1FF"/>
<path d="M313.334 137.084H274.167V156.667H313.334V137.084Z" fill="#7CB1FF"/>
<path d="M313.334 195.834H274.167V215.417H313.334V195.834Z" fill="#7CB1FF"/>
<path d="M274.166 156.666H254.583V195.833H274.166V156.666Z" fill="#7CB1FF"/>
<path d="M332.916 156.666H313.333V195.833H332.916V156.666Z" fill="#7CB1FF"/>
<path d="M254.583 117.5H235V137.083H254.583V117.5Z" fill="#7CB1FF"/>
<path d="M235 97.916H215.417V117.499H235V97.916Z" fill="#7CB1FF"/>
<path d="M195.834 78.334H156.667V97.9173H195.834V78.334Z" fill="#7CB1FF"/>
<path d="M195.834 19.584H156.667V39.1673H195.834V19.584Z" fill="#7CB1FF"/>
<path d="M215.416 39.166H195.833V78.3327H215.416V39.166Z" fill="#7CB1FF"/>
<path d="M156.666 39.166H137.083V78.3327H156.666V39.166Z" fill="#7CB1FF"/>
<path d="M430.834 78.334H391.667V97.9173H430.834V78.334Z" fill="#7CB1FF"/>
<path d="M391.666 39.166H372.083V78.3327H391.666V39.166Z" fill="#7CB1FF"/>
<path d="M430.834 19.584H391.667V39.1673H430.834V19.584Z" fill="#7CB1FF"/>
<path d="M450.416 39.166H430.833V78.3327H450.416V39.166Z" fill="#7CB1FF"/>
<path d="M137.083 117.5H117.5V137.083H137.083V117.5Z" fill="#7CB1FF"/>
<path d="M117.5 137.084H97.917V156.667H117.5V137.084Z" fill="#7CB1FF"/>
<path d="M97.9163 176.25H78.333V215.417H97.9163V176.25Z" fill="#7CB1FF"/>
<path d="M39.1663 176.25H19.583V215.417H39.1663V176.25Z" fill="#7CB1FF"/>
<path d="M78.3337 156.666H39.167V176.249H78.3337V156.666Z" fill="#7CB1FF"/>
<path d="M78.3337 215.416H39.167V234.999H78.3337V215.416Z" fill="#7CB1FF"/>
</svg>
