<svg width="100%" height="100%" viewBox="0 0 470 470" fill="none" xmlns="http://www.w3.org/2000/svg">
<path d="M78.3337 293.75H39.167V430.833H78.3337V293.75Z" fill="#7CB1FF"/>
<path d="M195.834 195.832H156.667V430.832H195.834V195.832Z" fill="#7CB1FF"/>
<path d="M313.334 274.168H274.167V430.835H313.334V274.168Z" fill="#7CB1FF"/>
<path d="M430.834 195.832H391.667V430.832H430.834V195.832Z" fill="#7CB1FF"/>
<path d="M372.083 97.918H352.5V117.501H372.083V97.918Z" fill="#7CB1FF"/>
<path d="M352.5 117.5H332.917V137.083H352.5V117.5Z" fill="#7CB1FF"/>
<path d="M313.334 137.082H274.167V156.665H313.334V137.082Z" fill="#7CB1FF"/>
<path d="M313.334 195.832H274.167V215.415H313.334V195.832Z" fill="#7CB1FF"/>
<path d="M274.166 156.668H254.583V195.835H274.166V156.668Z" fill="#7CB1FF"/>
<path d="M332.916 156.668H313.333V195.835H332.916V156.668Z" fill="#7CB1FF"/>
<path d="M254.583 117.5H235V137.083H254.583V117.5Z" fill="#7CB1FF"/>
<path d="M235 97.918H215.417V117.501H235V97.918Z" fill="#7CB1FF"/>
<path d="M195.834 78.332H156.667V97.9154H195.834V78.332Z" fill="#7CB1FF"/>
<path d="M195.834 19.582H156.667V39.1654H195.834V19.582Z" fill="#7CB1FF"/>
<path d="M215.416 39.168H195.833V78.3346H215.416V39.168Z" fill="#7CB1FF"/>
<path d="M156.666 39.168H137.083V78.3346H156.666V39.168Z" fill="#7CB1FF"/>
<path d="M430.834 78.332H391.667V97.9154H430.834V78.332Z" fill="#7CB1FF"/>
<path d="M391.666 39.168H372.083V78.3346H391.666V39.168Z" fill="#7CB1FF"/>
<path d="M430.834 19.582H391.667V39.1654H430.834V19.582Z" fill="#7CB1FF"/>
<path d="M450.416 39.168H430.833V78.3346H450.416V39.168Z" fill="#7CB1FF"/>
<path d="M137.083 117.5H117.5V137.083H137.083V117.5Z" fill="#7CB1FF"/>
<path d="M117.5 137.082H97.917V156.665H117.5V137.082Z" fill="#7CB1FF"/>
<path d="M97.9163 176.25H78.333V215.417H97.9163V176.25Z" fill="#7CB1FF"/>
<path d="M39.1663 176.25H19.583V215.417H39.1663V176.25Z" fill="#7CB1FF"/>
<path d="M78.3337 156.668H39.167V176.251H78.3337V156.668Z" fill="#7CB1FF"/>
<path d="M78.3337 215.418H39.167V235.001H78.3337V215.418Z" fill="#7CB1FF"/>
</svg>
