<svg width="507" height="507" viewBox="0 0 507 507" fill="none" xmlns="http://www.w3.org/2000/svg">
<circle cx="253.5" cy="253.5" r="253.5" fill="black"/>
<path d="M248.962 58.4009C247.478 59.5139 246.365 69.9015 246.365 80.6602C246.365 114.42 225.59 148.18 197.766 160.052C187.749 164.503 177.732 171.181 175.878 174.891C173.652 178.601 172.168 192.327 172.168 205.683C172.168 227.942 172.91 230.168 183.668 238.701L194.798 247.605L190.346 271.348C188.12 284.332 181.813 311.786 176.62 332.19C162.522 390.064 162.151 392.29 174.023 404.533C210.008 442.373 301.642 441.631 333.918 403.42C345.048 390.064 345.048 388.58 328.354 322.915C307.949 241.669 308.32 249.089 322.789 235.733C333.918 224.974 335.031 222.007 335.031 203.086C334.66 187.876 332.434 179.343 327.241 172.665C320.192 163.39 309.433 160.052 309.433 167.1C309.433 168.955 312.03 170.81 314.998 170.81C319.821 170.81 330.208 184.537 327.241 187.505C323.902 190.844 308.32 174.52 307.578 166.729C307.207 161.165 304.239 157.455 299.787 156.342C291.626 154.858 287.545 150.035 270.479 121.469C252.672 91.7898 253.414 87.3379 276.044 81.7731C286.432 79.1762 294.594 76.2083 294.594 74.7243C294.594 70.6435 277.157 63.2237 268.624 63.2237C264.915 63.2237 260.463 61.3688 259.35 59.5139C256.753 55.062 252.301 54.691 248.962 58.4009ZM273.818 74.7243C270.85 79.9182 257.495 78.4342 257.495 72.8694C257.495 69.5305 260.463 68.4175 266.77 69.9015C271.963 70.6435 274.931 72.8694 273.818 74.7243ZM264.544 127.776C270.85 138.905 285.69 158.939 297.933 171.923C310.546 184.908 319.45 196.779 317.966 197.892C316.853 199.376 315.74 203.828 315.369 208.28C314.998 219.41 305.723 222.007 303.126 211.99C300.9 203.828 296.449 201.973 292.739 207.909C291.626 209.764 284.948 211.619 277.899 211.619C267.883 211.619 265.286 213.474 263.431 220.894C260.092 234.249 235.236 232.765 235.236 219.41C235.236 215.329 229.671 211.99 215.944 208.651C205.557 206.425 195.911 204.941 194.798 206.054C191.088 210.135 201.476 216.071 216.315 217.926C227.445 219.41 231.526 221.636 231.526 226.458C231.526 234.249 238.574 237.588 254.156 237.588C262.318 237.588 266.028 235.362 268.624 228.684C273.076 216.442 292.739 213.474 299.787 224.232C304.239 230.91 305.352 231.281 311.288 226.458C314.627 223.49 319.45 216.813 321.676 211.619L325.757 202.344L327.241 210.877C328.725 221.265 315.369 237.588 305.352 237.588C301.642 237.588 297.562 239.072 296.449 241.298C293.11 246.863 221.138 245.75 204.444 239.814C188.862 234.62 176.62 224.232 180.7 220.523C182.184 219.039 186.265 220.523 189.975 223.861C198.508 231.652 201.847 231.652 201.847 224.974C201.847 222.378 198.879 219.039 195.169 217.926C185.152 215.7 182.555 201.973 190.346 192.698C196.282 184.908 197.024 184.908 214.089 190.844C234.123 197.521 238.945 198.263 238.945 193.44C238.945 191.586 231.526 188.247 222.622 186.021C213.347 183.795 204.815 180.085 203.702 178.23C200.363 172.665 212.605 168.955 217.799 174.149C222.993 179.343 238.945 179.714 238.945 174.52C238.945 172.294 234.865 170.81 230.042 170.81C220.025 170.81 210.379 161.906 216.315 157.826C218.541 156.713 223.364 157.455 227.445 159.681C239.316 165.616 245.252 163.761 236.349 156.713L228.187 150.406L238.945 132.969C245.252 122.953 250.075 113.678 250.075 111.452C250.075 104.403 253.043 107.742 264.544 127.776ZM193.685 177.117C188.12 182.682 182.555 186.021 181.442 184.908C178.474 182.311 194.427 167.1 199.621 167.1C201.847 167.1 198.879 171.552 193.685 177.117ZM250.817 252.799C271.963 252.428 292.368 252.057 296.449 251.315C302.384 250.573 304.239 254.282 308.691 278.026L314.256 305.479L299.787 317.35C291.997 324.028 286.432 331.077 288.287 332.561C289.771 334.045 295.707 330.706 301.271 325.512C313.143 314.012 316.853 313.27 316.853 321.06C316.853 324.028 313.514 328.109 309.433 330.335C305.352 332.561 302.013 336.271 302.013 338.497C302.013 340.723 306.094 339.61 311.288 336.271C323.902 327.738 323.531 336.271 310.546 348.142C303.868 354.449 302.013 358.159 304.981 359.272C307.578 360.014 312.772 356.675 316.482 351.852C320.563 347.4 325.015 344.433 326.499 345.916C327.983 347.771 326.128 352.223 322.418 356.304C315.74 363.353 316.111 363.724 323.16 363.724C330.95 363.724 335.402 370.402 335.402 382.273C335.402 393.032 318.337 410.468 301.271 417.517C281.238 425.308 240.058 428.647 226.703 423.453C218.17 420.114 216.686 417.517 217.428 406.758C218.17 393.403 208.524 374.854 200.734 374.854C192.201 374.854 187.007 383.386 187.007 397.113C186.636 409.355 186.265 409.726 181.442 403.049C174.023 393.032 174.394 381.531 184.781 337.013C189.604 316.237 195.911 286.929 198.508 272.09C202.218 251.315 204.444 246.121 208.153 249.46C210.75 251.686 228.929 253.169 250.817 252.799ZM207.411 390.064C212.234 397.484 211.863 411.952 207.041 416.033C202.96 419.372 201.847 418.259 201.847 408.984C201.847 402.678 200.734 395.258 199.621 391.919C197.024 385.241 203.702 383.757 207.411 390.064Z" fill="url(#paint0_linear_633_16872)"/>
<path d="M195.902 343.306C192.934 351.096 197.015 360 203.322 360C210.742 360 214.08 354.064 211.113 345.16C208.516 336.628 198.87 335.144 195.902 343.306Z" fill="url(#paint1_linear_633_16872)"/>
<defs>
<linearGradient id="paint0_linear_633_16872" x1="253.613" y1="432.5" x2="253.613" y2="55.8714" gradientUnits="userSpaceOnUse">
<stop stop-color="#9EFFBF"/>
<stop offset="0.507725" stop-color="#C0FBFF"/>
<stop offset="1" stop-color="#96FF65"/>
</linearGradient>
<linearGradient id="paint1_linear_633_16872" x1="203.553" y1="360" x2="203.553" y2="337.91" gradientUnits="userSpaceOnUse">
<stop stop-color="#9EFFBF"/>
<stop offset="0.507725" stop-color="#C0FBFF"/>
<stop offset="1" stop-color="#96FF65"/>
</linearGradient>
</defs>
</svg>
