<svg width="197" height="100%" viewBox="0 0 197 204" fill="none" xmlns="http://www.w3.org/2000/svg">
<path d="M94.2064 11.0193L94.0841 23.6119H90.4164C86.8709 23.6119 86.3819 24.3454 80.0245 37.916C73.3003 51.9756 72.5668 55.3988 76.3568 55.3988C77.8239 55.3988 78.1906 57.355 78.0684 66.6466C78.0684 74.5933 77.7016 77.283 76.8458 75.5714C76.2345 74.2265 74.4007 69.9475 72.689 66.0353C70.8552 61.7563 69.0213 59.3111 68.2878 59.8001C67.5542 60.1669 63.0307 60.9005 58.2626 61.3895C50.4381 62.0008 49.3378 62.4898 47.993 65.3017C45.6701 70.192 42.7359 72.0259 33.6888 74.3488C29.0431 75.5714 24.275 77.772 22.9302 79.1168C19.6292 82.7846 13.3941 93.7878 13.3941 96.2329C13.3941 97.3332 12.0492 100.879 10.4599 104.057C8.87053 107.236 6.91441 112.004 6.18086 114.694C5.32506 117.383 4.22474 120.684 3.61345 122.029C2.39087 124.963 1.29056 132.177 0.312494 144.158C-0.298795 152.716 -0.298795 153.083 3.00216 156.261C4.95829 157.973 8.13699 162.008 10.2154 165.309C17.6731 176.923 22.5634 182.669 27.4537 185.481C45.1811 195.873 63.1529 203.331 64.62 201.008C65.3536 199.785 67.5542 199.907 74.6452 201.252C90.5387 204.431 96.6516 204.675 111.2 202.597C118.902 201.497 128.561 200.396 132.595 200.152C137.975 199.785 140.42 199.052 142.009 197.218C143.109 195.873 144.821 194.773 145.921 194.773C150.812 194.773 164.382 187.804 175.385 179.49C182.11 174.478 188.1 170.199 188.589 169.954C189.078 169.832 191.157 165.064 193.113 159.318C196.292 150.393 196.781 147.092 196.781 135.844C196.781 128.387 196.292 122.518 195.558 122.029C194.947 121.663 194.335 119.462 194.335 117.139C194.335 112.493 181.621 88.8975 178.197 87.0636C175.508 85.5965 175.141 88.1639 177.586 90.7313C178.809 92.0761 178.809 92.4429 177.586 92.932C176.73 93.2987 175.997 94.5213 175.997 95.8661C175.997 98.189 170.128 114.083 168.784 115.427C168.417 115.916 166.461 116.528 164.627 117.017C161.815 117.75 161.204 117.506 161.326 115.672C161.448 114.449 161.448 113.104 161.326 112.493C161.204 112.004 160.837 111.271 160.715 110.659C160.592 110.17 159.981 107.97 159.492 105.769C159.003 103.568 158.025 101.49 157.536 101.123C155.947 100.267 156.191 95.1326 157.903 91.4649C159.247 88.4084 159.737 88.2862 167.072 88.6529C172.696 88.8975 174.774 88.6529 174.774 87.4304C174.774 86.4523 172.574 85.841 168.05 85.7188C164.382 85.7188 160.715 85.5965 159.859 85.4742C158.147 85.352 151.79 96.5997 151.668 100.023C151.423 104.791 145.921 117.139 144.088 116.772C143.109 116.528 139.809 115.916 136.508 115.427C133.329 114.816 130.517 114.205 130.15 113.96C129.906 113.594 131.373 110.904 133.329 107.97C135.407 104.913 137.486 101.735 138.097 100.756C138.586 99.7784 141.398 98.6781 144.332 98.3113C149.467 97.5778 149.711 97.3332 149.834 93.5432C149.834 91.3426 150.689 88.7752 151.79 87.6749C153.501 85.9633 153.379 85.2297 150.934 80.0949C149.467 76.9162 147.266 71.5369 146.166 68.2359L144.21 62.123L136.263 60.5337C124.16 58.2108 124.526 58.0885 119.147 68.4804L114.257 77.772L113.89 68.7249C113.645 63.4679 114.134 58.5776 114.99 56.9882C116.213 54.7876 115.601 52.0979 111.078 39.9944C105.21 24.1009 103.865 22.0225 99.4635 23.1228C96.6516 23.8564 96.5293 23.6119 96.5293 18.2325C96.5293 13.4645 96.8961 12.6087 98.8522 12.6087C100.197 12.6087 101.664 11.9974 102.031 11.3861C102.398 10.6525 104.354 10.1635 106.432 10.1635C111.2 10.1635 111.078 7.10707 106.188 5.39546C103.987 4.66191 101.297 4.05063 100.197 4.05063C98.9744 4.05063 97.1406 2.82805 96.1625 1.23869C94.3287 -1.32872 94.2064 -0.717422 94.2064 11.0193ZM103.865 6.49577C105.21 6.61804 105.087 6.9848 103.376 8.32965C99.8303 11.0193 96.5293 10.6525 96.5293 7.5961C96.5293 5.51772 97.0183 5.15094 99.3412 5.76224C100.808 6.12901 102.887 6.49577 103.865 6.49577ZM107.777 38.2828C115.235 56.1324 115.357 54.7876 105.576 56.0101L99.5857 56.866L94.3287 42.3173C91.5167 34.3705 89.1938 27.4018 89.1938 26.9128C89.1938 26.4238 92.2503 26.057 96.0403 26.3015L102.887 26.6683L107.777 38.2828ZM83.2032 41.8282C76.3568 55.2766 74.5229 54.4208 81.0026 40.8502C83.8145 34.8596 86.6264 30.4583 87.1155 30.9473C87.7267 31.4363 85.8929 36.3267 83.2032 41.8282ZM92.2503 43.7844C95.3067 51.8534 95.5512 53.8095 96.1625 80.4617L96.7738 108.581L91.639 102.713C88.8271 99.5339 85.7706 96.9665 84.9148 96.9665C83.0809 96.9665 82.2251 90.3646 81.1248 67.3801L80.3913 51.7311L84.1813 45.0069C86.2597 41.3392 87.9713 37.427 87.9713 36.2044C87.9713 33.1479 88.7048 34.3705 92.2503 43.7844ZM111.2 81.073C111.2 96.2329 111.689 104.302 112.423 104.302C115.601 104.302 110.833 109.192 106.921 109.926C104.598 110.293 102.642 111.148 102.642 111.76C102.642 112.371 102.275 112.86 101.786 112.86C100.319 112.86 97.5074 106.258 98.7299 105.769C99.3412 105.647 99.5857 103.935 99.4635 102.101C99.219 100.267 98.8522 89.8755 98.4854 78.9946L97.9964 59.1888L102.398 58.6998C104.965 58.4553 107.899 58.2108 109.122 58.0885C111.078 57.844 111.2 59.6779 111.2 81.073ZM70.7329 67.8691C71.5887 70.3143 73.5448 74.3488 75.1342 76.6717L78.0684 81.073L72.3223 82.7846C69.1436 83.7626 65.5981 84.8629 64.4978 85.352C62.7862 85.9633 61.4413 84.2517 57.4068 76.1827C53.0056 67.3801 50.0714 64.6904 50.0714 69.3362C50.0714 70.192 48.482 73.8598 46.4036 77.5275C44.3253 81.4397 42.7359 83.1513 42.7359 81.8065C42.7359 80.4617 44.8143 75.9381 47.2594 71.6591L51.783 63.9569H58.7517C62.6639 63.9569 66.2094 63.3456 66.6984 62.6121C67.7987 60.7782 69.0213 62.4898 70.7329 67.8691ZM135.04 62.9788C141.642 64.8127 141.765 65.6685 136.752 76.7939C131.617 88.1639 129.539 91.2204 127.827 89.7533C127.094 89.142 123.793 87.7971 120.37 86.8191C112.912 84.7407 112.178 82.5401 117.191 76.5494C119.269 73.982 120.981 71.5369 120.981 71.0478C120.981 68.9695 126.238 61.5117 127.827 61.5117C128.683 61.5117 131.984 62.123 135.04 62.9788ZM146.655 75.9381C146.655 76.7939 147.511 78.7501 148.611 80.3394C149.589 82.051 149.956 83.6404 149.345 84.0071C147.878 84.8629 142.987 73.6152 143.109 69.8253C143.232 67.2578 143.354 67.3801 144.821 70.6811C145.799 72.6372 146.533 75.0823 146.655 75.9381ZM55.9397 79.4836C58.2626 85.352 58.6294 88.4084 58.3849 97.5778L58.0181 108.581L54.5949 102.713C51.0494 96.9665 49.5823 95.8661 48.2375 98.189C46.4036 101.245 45.1811 98.8003 45.1811 92.0761C45.1811 86.5746 46.0369 83.0291 48.2375 78.6278C49.9491 75.2046 51.783 72.5149 52.272 72.5149C52.761 72.5149 54.4726 75.6936 55.9397 79.4836ZM40.902 78.6278C39.0682 82.1733 39.0682 82.6623 40.7798 84.6184C41.8801 85.841 42.7359 87.4304 42.7359 88.1639C42.7359 89.7533 36.8675 94.5213 34.6669 94.5213C33.3221 94.5213 26.8424 82.4178 26.8424 79.7281C26.8424 79.1168 28.3095 78.3833 30.2656 77.8943C32.0995 77.5275 35.5227 76.4272 37.8456 75.5714C40.1685 74.7156 42.2469 74.1043 42.4914 74.3488C42.7359 74.5933 42.0024 76.4272 40.902 78.6278ZM144.577 80.9507C145.677 84.2517 146.655 88.8975 146.655 91.3426C146.655 95.2549 146.288 95.7439 143.354 95.7439C141.52 95.7439 138.83 96.9665 137.241 98.4336L134.429 101.001V94.7658C134.429 88.5307 139.197 74.9601 141.398 74.9601C142.009 74.9601 143.354 77.6497 144.577 80.9507ZM21.9521 87.9194C16.9395 95.1326 16.0837 94.7658 20.3628 87.3081C22.1966 84.0071 24.1527 81.562 24.6418 81.8065C25.2531 82.1733 23.9082 84.8629 21.9521 87.9194ZM80.3913 90.2423C80.5135 93.91 80.0245 96.9665 79.4132 96.9665C78.0684 96.9665 77.7016 85.5965 79.0464 84.3739C79.4132 83.8849 79.9023 83.5181 80.0245 83.5181C80.1468 83.5181 80.269 86.5746 80.3913 90.2423ZM75.7455 91.8316C75.7455 98.4336 75.501 98.9226 72.0778 100.512C69.8771 101.368 67.3097 104.057 65.9649 106.747C61.8081 114.816 61.0746 113.96 61.0746 100.756C61.0746 89.631 61.3191 88.4084 63.2752 88.4084C64.4978 88.4084 65.9649 87.9194 66.6984 87.3081C67.7987 86.2078 71.0997 85.2297 74.2784 84.8629C75.2565 84.7407 75.7455 86.9413 75.7455 91.8316ZM32.9553 97.5778C35.5227 99.1671 34.1779 104.18 30.7547 106.014C28.7985 106.992 25.7421 110.048 24.0305 112.738C22.1966 115.55 20.1182 117.75 19.507 117.75C18.7734 117.75 18.2844 113.349 18.2844 107.236C18.2844 97.5778 18.5289 96.3552 22.1966 91.2204L25.9866 85.5965L28.7985 91.2204C30.3879 94.2768 32.2218 97.0887 32.9553 97.5778ZM121.225 90.12C131.25 92.8097 131.617 93.0542 132.473 98.4336C133.94 107.236 131.617 106.992 121.837 97.211C117.069 92.3207 113.401 88.4084 113.89 88.4084C114.379 88.4084 117.68 89.142 121.225 90.12ZM133.207 91.4649C133.207 91.8316 132.962 92.0761 132.595 92.0761C132.229 92.0761 131.984 91.8316 131.984 91.4649C131.984 91.0981 132.229 90.8536 132.595 90.8536C132.962 90.8536 133.207 91.0981 133.207 91.4649ZM40.7798 101.49C37.6011 103.813 36.623 103.446 36.623 100.145C36.623 98.4336 37.8456 96.2329 39.435 95.1326C42.0024 93.2987 42.1246 93.2987 42.4914 96.5997C42.8582 98.6781 42.1246 100.512 40.7798 101.49ZM185.166 101.001C189.812 109.437 190.056 110.415 188.223 110.415C187 110.415 179.665 96.8442 179.665 94.5213C179.665 92.0761 180.887 93.421 185.166 101.001ZM128.683 108.825C129.172 109.559 129.05 110.537 128.316 111.026C126.238 112.371 126.971 115.061 129.661 115.916C133.207 117.017 131.862 119.706 127.95 119.217C125.26 118.851 124.649 119.34 124.649 121.296C124.649 122.763 124.037 123.863 123.181 123.863C122.448 123.863 122.203 124.23 122.57 124.597C123.548 125.575 121.225 129.976 119.881 129.976C119.269 129.976 114.99 132.177 110.222 134.866C105.576 137.556 101.053 139.757 100.075 139.757C98.1186 139.757 94.4509 135.355 81.4916 117.383C76.3568 110.17 72.3223 103.691 72.689 102.957C73.1781 102.346 74.5229 101.857 75.7455 101.857C76.9681 101.857 78.4352 101.245 78.8019 100.634C79.1687 99.9006 81.1248 99.4116 83.0809 99.4116C85.8929 99.4116 87.36 100.512 90.1719 104.546C92.2503 107.481 95.3067 111.148 97.0183 112.86C99.8303 115.427 100.686 115.55 102.642 114.327C103.987 113.471 106.065 112.86 107.288 112.86C108.388 112.86 110.711 112.004 112.301 110.904C114.99 108.948 115.112 108.214 114.379 101.49L113.645 94.1545L120.736 100.756C124.526 104.302 128.072 107.97 128.683 108.825ZM13.2718 107.236C10.2154 113.716 7.5257 116.283 10.0931 110.17C13.7608 101.612 15.1057 99.1671 15.5947 100.39C15.717 101.001 14.7389 104.18 13.2718 107.236ZM182.721 106.38C185.655 112.126 186.389 115.305 186.755 123.741C187.367 136.578 184.922 143.424 179.665 143.424C176.608 143.424 176.241 142.935 175.63 137.556C173.307 119.951 173.307 113.349 175.385 106.38C176.486 102.59 177.831 99.4116 178.32 99.4116C178.809 99.4116 180.765 102.59 182.721 106.38ZM53.8614 106.38C62.1749 117.506 62.2971 116.772 51.2939 123.13C45.9146 126.186 41.1466 128.753 40.6575 128.753C39.1904 128.753 30.5101 114.327 30.1434 111.393C29.8989 109.192 31.4882 108.092 39.0682 104.791C44.0807 102.468 48.482 100.634 48.8488 100.634C49.2156 100.634 51.5385 103.202 53.8614 106.38ZM157.414 108.703C159.492 115.916 159.247 121.051 156.68 122.885C155.58 123.741 153.012 126.553 151.056 129.12C149.222 131.688 147.388 133.522 147.022 133.155C145.432 131.688 145.677 120.318 147.266 118.973C148.244 118.239 150.2 113.96 151.668 109.559C154.479 101.001 155.213 100.879 157.414 108.703ZM64.7423 117.628C61.3191 123.741 57.8959 128.753 57.2846 128.753C55.573 128.753 55.8175 128.142 61.1968 119.34C69.0213 106.38 69.7549 105.28 70.4884 106.014C70.8552 106.258 68.2878 111.637 64.7423 117.628ZM15.9615 112.493C15.4724 115.55 14.4944 117.261 13.0273 117.506C11.927 117.75 10.9489 117.506 10.9489 116.894C10.9489 115.794 15.5947 107.97 16.206 107.97C16.4505 107.97 16.3283 110.048 15.9615 112.493ZM94.0841 142.691C94.0841 145.503 93.7174 145.992 92.0058 145.258C87.1155 143.18 84.7926 143.302 82.5919 145.747C79.291 149.293 78.5574 149.048 77.8239 143.424C77.0903 137.678 75.1342 134.866 71.9555 134.866C69.3881 134.866 67.1874 138.29 67.1874 142.08C67.1874 144.769 66.2094 145.136 63.0307 143.913C61.5636 143.302 61.0746 141.468 61.0746 136.578C61.0746 131.076 62.0526 128.264 66.6984 119.584L72.3223 109.192L83.2032 124.23C90.9054 134.744 94.0841 140.123 94.0841 142.691ZM36.3785 135.233C36.0117 140.123 35.7672 140.368 31.7327 140.735C24.1527 141.468 21.5853 146.236 28.065 147.703C32.9553 148.804 33.5666 150.026 33.1998 158.951L33.0776 166.653L39.0682 169.71C47.8707 174.233 49.7046 173.867 50.6827 167.509C52.0275 158.829 52.272 158.34 55.573 159.073C59.1184 159.685 60.4633 161.274 60.5855 164.819C60.5855 166.164 60.83 173.622 61.0746 181.324C61.4413 194.65 61.4413 195.017 62.2971 187.437C62.7862 183.036 63.2752 174.722 63.3975 168.854C63.5197 159.929 63.7642 158.34 65.3536 158.829C67.432 159.685 67.921 172.644 65.9649 176.312C65.3536 177.534 64.7423 182.669 64.62 187.804C64.3755 199.418 62.9084 200.396 52.3943 195.262C45.9146 192.205 45.1811 191.472 45.1811 188.171C45.1811 182.791 42.9804 175.7 40.7798 173.867C37.9679 171.544 34.7892 175.334 34.7892 181.324C34.7892 186.826 34.1779 186.948 27.2092 182.18C22.6857 179.124 22.3189 176.556 24.275 159.929C25.2531 151.004 24.8863 147.826 23.0524 149.048C21.7076 149.782 21.7076 149.293 21.9521 134.866C22.0744 126.308 22.8079 121.785 24.5195 117.75L26.9647 112.249L31.855 121.173C35.7672 128.387 36.7453 131.076 36.3785 135.233ZM191.279 119.217C191.89 121.418 191.646 122.641 190.79 122.641C190.056 122.641 189.445 121.907 189.445 121.051C189.445 120.318 189.078 118.239 188.712 116.528C188.1 114.449 188.223 113.838 189.201 114.694C189.934 115.305 190.912 117.383 191.279 119.217ZM9.2373 118.606C8.01473 119.829 6.91441 117.995 8.01473 116.405C8.74827 115.061 8.99279 115.061 9.48182 116.405C9.72634 117.261 9.60408 118.239 9.2373 118.606ZM141.031 118.851C142.865 119.584 143.476 121.296 143.843 126.675C144.454 134.011 144.332 134.133 138.219 132.91C134.551 132.177 134.429 132.054 134.429 124.963C134.429 117.383 135.285 116.528 141.031 118.851ZM172.818 130.221C173.307 134.866 173.307 138.534 172.94 138.534C172.574 138.534 170.984 135.6 169.395 132.054C167.928 128.509 165.116 124.597 163.282 123.496C159.37 120.807 159.859 119.584 165.116 119.217C167.316 119.095 169.395 118.606 169.762 118.239C170.862 117.261 171.962 121.663 172.818 130.221ZM20.7295 119.951C20.7295 120.44 20.2405 121.418 19.6292 122.029C18.8957 122.763 18.8957 127.409 19.507 133.644C20.1182 139.268 20.3628 144.158 20.1182 144.402C18.0399 146.481 11.0712 123.007 12.7828 120.073C13.6386 118.728 20.7295 118.606 20.7295 119.951ZM10.9489 125.942C10.9489 126.797 10.0931 127.531 9.11505 127.531C7.28118 127.531 6.54764 123.741 8.13699 122.274C9.11505 121.296 10.9489 123.741 10.9489 125.942ZM131.984 127.409V133.522L138.708 135.6L145.555 137.801L152.034 131.321C156.436 126.92 159.37 124.963 160.592 125.452C161.693 125.942 162.548 126.797 162.548 127.409C162.548 128.142 159.737 134.133 156.436 140.735L150.2 152.716L134.918 149.415C126.482 147.581 119.391 145.87 119.147 145.625C119.025 145.381 120.859 139.879 123.304 133.277C126.605 124.352 128.194 121.418 129.783 121.418C131.617 121.418 131.984 122.518 131.984 127.409ZM56.1843 124.963C56.1843 125.575 55.3285 126.308 54.3504 126.797C51.6607 127.775 52.1498 129.365 55.4507 131.076C57.7736 132.299 58.3849 133.766 58.3849 137.434C58.5072 141.835 58.2626 142.202 55.6952 141.468C53.2501 140.857 52.272 141.835 48.482 148.315C45.1811 153.694 44.203 156.628 44.692 158.829C45.1811 160.54 44.9366 161.763 44.203 161.763C42.2469 161.763 41.2688 159.562 40.902 154.061C40.7798 151.249 40.1685 145.258 39.6795 140.735C38.7014 132.788 38.8237 132.421 41.6356 131.321C43.2249 130.71 46.5259 128.753 48.8488 127.042C53.2501 123.863 56.1843 123.007 56.1843 124.963ZM190.056 138.534C185.655 147.214 184.799 145.381 188.712 135.6C190.423 131.321 192.013 126.675 192.135 125.452C192.257 124.23 192.502 125.33 192.746 127.775C193.113 130.832 192.257 134.133 190.056 138.534ZM8.99279 140.979C10.8267 144.647 14.6166 150.638 17.1841 154.061C21.8298 160.174 21.9521 160.785 21.2186 167.265C20.7295 170.932 19.996 173.989 19.6292 173.989C19.2624 173.989 16.5728 170.566 13.7608 166.287C8.87053 159.196 8.62602 158.34 9.2373 152.594C9.72634 147.826 9.35956 145.258 7.40344 140.979C5.93635 137.923 5.08054 136.822 5.44732 138.534C5.81409 140.246 6.42538 144.891 6.79215 148.926C7.40344 155.772 7.28118 156.139 5.56957 153.939C4.10248 152.105 3.61345 148.804 3.73571 139.879C3.85797 133.399 4.22474 129.487 4.71377 131.199C5.08054 132.91 7.03667 137.311 8.99279 140.979ZM171.106 141.101C171.106 141.713 170.617 142.202 170.006 142.202C168.295 142.202 164.994 134.989 164.994 131.321C164.994 128.631 165.483 128.998 168.05 134.011C169.762 137.311 171.106 140.49 171.106 141.101ZM12.1715 130.954C12.1715 132.177 9.60408 134.866 8.3815 134.866C7.89247 134.866 7.28118 133.888 7.03667 132.666C6.54764 131.076 7.15892 130.465 9.2373 130.221C10.8267 130.098 12.1715 130.465 12.1715 130.954ZM118.536 139.268C115.846 145.258 115.479 148.315 117.191 148.315C118.047 148.315 119.514 157.117 120.37 167.631C120.492 169.098 120.981 170.81 121.47 171.299C121.959 171.666 122.081 167.02 121.837 160.785C121.47 154.672 121.592 149.537 122.203 149.537C122.692 149.537 128.683 150.638 135.652 152.105C142.498 153.45 149.222 154.428 150.445 154.061C152.523 153.45 152.768 154.183 152.768 159.44C152.768 165.064 152.523 165.553 148.244 167.754C141.153 171.299 136.263 172.033 134.429 169.71C132.962 167.876 129.539 167.142 129.539 168.609C129.539 169.098 130.517 170.199 131.74 171.055C133.573 172.522 133.573 172.644 131.862 172.766C130.761 172.766 129.539 171.91 129.05 170.932C128.072 168.12 125.993 168.732 124.649 172.155C123.426 175.334 122.937 175.7 117.069 176.923C113.645 177.657 113.645 177.657 113.645 171.788C113.645 168.609 114.257 165.309 115.112 164.453C116.335 163.23 114.99 161.396 109.489 155.772C105.454 151.738 100.931 148.192 99.4635 147.826C95.0622 146.725 95.5512 142.202 99.9525 142.202C101.786 142.202 106.799 140.001 111.2 137.434C115.601 134.744 119.514 132.91 120.003 133.155C120.492 133.522 119.758 136.211 118.536 139.268ZM194.947 139.39C193.724 148.437 191.524 158.095 190.545 158.707C190.179 159.073 189.201 156.995 188.467 154.183C187.244 149.415 187.489 148.315 190.912 141.346C192.991 137.067 194.947 133.644 195.191 133.644C195.436 133.644 195.314 136.211 194.947 139.39ZM165.36 139.512C166.461 142.08 167.439 147.092 167.439 150.515C167.439 156.506 167.316 156.873 161.815 160.418C158.758 162.497 156.069 164.208 155.702 164.208C155.458 164.208 155.213 160.785 155.213 156.628C155.213 151.004 156.069 147.337 158.514 141.957C160.47 138.045 162.182 134.866 162.671 134.866C163.037 134.866 164.26 136.945 165.36 139.512ZM22.0744 152.716C22.8079 153.694 23.1747 154.917 22.6857 155.406C20.485 157.484 9.97085 139.879 11.6825 137.189C12.1715 136.333 14.1276 138.901 16.4505 143.302C18.7734 147.459 21.2186 151.738 22.0744 152.716ZM74.5229 139.634C76.6013 143.669 75.99 145.87 72.8113 145.87C69.2658 145.87 68.2878 143.791 69.9994 140.001C71.4665 136.7 72.8113 136.578 74.5229 139.634ZM35.4005 144.647C36.623 145.381 36.8675 146.114 35.8895 147.092C35.0337 147.948 33.4443 147.826 30.7547 146.359C28.554 145.381 26.8424 144.28 26.8424 143.913C26.8424 142.935 33.5666 143.424 35.4005 144.647ZM173.552 145.747C173.552 147.092 173.063 148.437 172.329 148.926C171.718 149.293 171.473 150.393 171.84 151.249C172.207 152.227 171.962 153.327 171.229 153.816C169.762 154.672 169.273 145.625 170.74 144.28C172.207 142.691 173.552 143.424 173.552 145.747ZM66.3316 147.214C71.8332 148.681 76.7235 150.149 77.3348 150.638C77.8239 151.127 76.8458 152.838 75.1342 154.428C71.8332 157.606 71.222 160.418 73.5448 162.741C74.6452 163.841 74.4007 164.208 72.3223 164.208C70.6107 164.208 69.6326 163.475 69.6326 162.008C69.6326 158.462 66.2094 154.672 61.5636 153.205C57.6513 151.86 56.551 151.982 52.272 154.428C49.5823 155.895 47.2594 156.873 47.0149 156.628C46.1591 155.895 53.7391 144.647 54.9617 144.647C55.6952 144.647 60.83 145.747 66.3316 147.214ZM2.0241 147.948C1.53507 148.315 1.1683 147.948 1.1683 147.092C1.1683 146.236 1.53507 145.87 2.0241 146.236C2.39087 146.725 2.39087 147.459 2.0241 147.948ZM90.1719 146.97C91.2722 147.581 94.0841 148.804 96.1625 149.537L100.197 151.004L94.4509 158.218C91.3945 162.252 88.7048 165.431 88.4603 165.431C87.1155 165.431 74.5229 160.051 74.5229 159.44C74.5229 158.095 85.6484 145.87 86.8709 145.87C87.4822 145.87 88.9493 146.359 90.1719 146.97ZM180.887 147.092C180.887 147.703 179.787 148.315 178.32 148.315C176.975 148.315 176.241 147.703 176.608 147.092C176.975 146.359 178.197 145.87 179.175 145.87C180.154 145.87 180.887 146.359 180.887 147.092ZM189.445 165.431C189.445 165.798 188.1 166.653 186.389 167.509C183.332 168.854 183.332 168.854 184.066 164.453C184.433 161.885 184.188 157.484 183.455 154.55C181.376 145.136 183.699 145.992 186.633 155.65C188.223 160.663 189.445 165.064 189.445 165.431ZM38.8237 156.506C38.4569 163.23 38.4569 163.352 42.0024 163.719C46.5259 164.208 49.9491 167.265 47.993 169.221C47.0149 170.199 45.5478 169.954 42.6137 168.365C36.7453 165.431 35.7672 163.475 36.0117 156.384C36.3785 148.07 36.3785 148.07 37.9679 149.048C38.7014 149.415 39.0682 152.594 38.8237 156.506ZM180.887 153.939C181.621 155.65 182.11 158.462 181.987 160.296C181.987 163.108 181.621 162.863 180.031 158.34C178.564 154.061 177.831 153.205 175.875 153.816C173.674 154.55 172.696 153.205 174.407 151.616C176.241 149.66 179.787 150.882 180.887 153.939ZM111.2 168.732V176.434H101.297C91.639 176.434 91.3945 176.312 92.128 173.622C92.4948 172.155 92.8616 169.588 92.8616 167.876C92.8616 166.164 94.9399 162.008 97.5074 158.462L102.031 152.227L106.677 156.628C110.956 160.785 111.2 161.396 111.2 168.732ZM61.5636 155.161C64.7423 156.384 62.6639 157.729 58.7517 157.117C56.6733 156.873 55.3285 156.139 55.6952 155.528C56.4288 154.305 58.8739 154.061 61.5636 155.161ZM171.351 159.196C167.072 162.863 141.887 176.434 139.442 176.434C136.997 176.434 137.975 173.744 140.664 173.133C144.821 172.033 161.448 163.475 167.439 159.44C174.285 154.672 176.73 154.55 171.351 159.196ZM180.887 169.954C180.887 174.722 157.169 190.005 145.188 192.939C142.131 193.672 141.887 193.55 140.542 186.826C139.809 183.036 139.442 179.613 139.809 179.124C140.298 178.757 143.721 177.045 147.633 175.334C158.514 170.321 169.15 164.33 173.674 160.54L177.831 157.117L179.298 162.252C180.154 164.942 180.887 168.487 180.887 169.954ZM49.8269 162.13C50.0714 163.597 49.7046 163.964 48.3598 163.475C46.0369 162.619 45.6701 158.829 47.993 159.562C48.7265 159.929 49.5823 161.029 49.8269 162.13ZM82.9587 166.164C85.8929 167.142 89.0716 167.754 89.9274 167.387C91.15 166.898 91.3945 167.754 90.7832 170.688C90.4164 172.888 89.6829 175.089 89.1938 175.578C87.849 177.045 75.6232 175.089 75.0119 173.378C74.6452 172.522 73.3003 172.033 71.9555 172.399C69.9994 173.011 69.6326 172.399 69.6326 168.976L69.7549 164.819L71.9555 167.509C75.0119 171.055 75.7455 171.055 75.7455 167.265C75.7455 163.719 75.8677 163.719 82.9587 166.164ZM129.172 175.823C129.539 176.923 129.539 178.146 129.05 178.512C128.194 179.368 124.649 176.556 124.649 175.089C124.649 173.255 128.316 173.867 129.172 175.823ZM101.786 178.268C123.181 178.268 129.172 179.001 121.348 180.468C119.514 180.835 109.978 181.202 100.197 181.202C81.4916 181.447 69.6326 179.857 69.6326 177.045C69.6326 175.7 70.4884 175.7 74.2784 176.801C76.9681 177.657 88.0935 178.268 101.786 178.268ZM137.73 183.769C139.931 195.751 139.809 197.218 136.385 197.218C133.818 197.218 133.451 196.606 132.84 188.904C131.617 176.189 131.74 174.967 134.062 175.456C135.652 175.7 136.63 177.901 137.73 183.769ZM40.6575 178.146C41.0243 179.001 41.7579 182.425 42.1246 185.603C42.9804 191.227 42.9804 191.349 40.413 190.005C38.3346 188.782 37.8456 187.437 37.8456 182.547C37.8456 176.678 39.3127 174.478 40.6575 178.146ZM77.0903 182.547C82.9587 184.014 117.802 183.525 123.548 181.936C126.727 181.08 126.727 181.202 127.583 188.782C127.95 193.061 127.827 196.973 127.338 197.462C123.915 200.885 82.7142 201.619 71.8332 198.44L67.1874 197.096V188.537C67.1874 180.957 67.432 179.979 69.3881 180.591C70.4884 180.957 74.0339 181.813 77.0903 182.547Z" fill="white"/>
<path d="M87.6055 48.9191C86.2607 50.1417 86.6274 62.4897 87.9723 63.3455C88.7058 63.8346 89.1948 61.1449 89.1948 56.1323C89.1948 48.0633 89.0726 47.3298 87.6055 48.9191Z" fill="#FDFF85"/>
<path d="M50.0732 85.9612C50.0732 88.1618 50.6845 89.6289 51.6626 89.6289C52.7629 89.6289 53.1297 88.4063 52.7629 85.9612C52.5184 83.8828 51.7848 82.2934 51.1736 82.2934C50.5623 82.2934 50.0732 83.8828 50.0732 85.9612Z" fill="#FDFF85"/>
<path d="M139.809 86.5718C139.932 90.6063 142.988 90.6063 142.988 86.5718C142.988 84.7379 142.255 83.5153 141.276 83.5153C140.176 83.5153 139.687 84.7379 139.809 86.5718Z" fill="#FDFF85"/>
<path d="M23.661 96.3525C23.172 97.4528 23.661 99.2867 24.8836 100.387C26.7175 102.221 26.8397 102.099 26.8397 99.1644C26.8397 95.2522 24.7614 93.5406 23.661 96.3525Z" fill="#FDFF85"/>
<path d="M178.445 113.593C178.445 116.894 178.934 118.85 179.668 118.361C180.401 117.994 180.89 115.427 180.89 112.737C180.89 110.17 180.401 107.969 179.668 107.969C179.057 107.969 178.445 110.537 178.445 113.593Z" fill="#FDFF85"/>
<path d="M152.769 115.179C152.769 116.524 153.38 117.991 153.991 118.358C154.725 118.847 155.214 117.747 155.214 116.035C155.214 114.323 154.725 112.856 153.991 112.856C153.38 112.856 152.769 113.957 152.769 115.179Z" fill="#FDFF85"/>
<path d="M72.0801 122.637C72.0801 124.593 72.6914 126.305 73.3027 126.305C74.0362 126.305 74.5252 124.593 74.5252 122.637C74.5252 120.559 74.0362 118.969 73.3027 118.969C72.6914 118.969 72.0801 120.559 72.0801 122.637Z" fill="#FDFF85"/>
<path d="M26.8447 125.084C26.8447 126.429 27.456 127.529 28.0673 127.529C28.8008 127.529 29.2899 126.429 29.2899 125.084C29.2899 123.739 28.8008 122.639 28.0673 122.639C27.456 122.639 26.8447 123.739 26.8447 125.084Z" fill="#FDFF85"/>
<path d="M28.0664 156.259C28.0664 158.093 28.5554 159.193 29.289 158.704C30.0225 158.337 30.5116 157.237 30.5116 156.259C30.5116 155.281 30.0225 154.181 29.289 153.814C28.5554 153.325 28.0664 154.425 28.0664 156.259Z" fill="#FDFF85"/>
<path d="M53.7383 166.651C53.7383 167.995 54.3496 169.096 54.9609 169.096C55.6944 169.096 56.1834 167.995 56.1834 166.651C56.1834 165.306 55.6944 164.205 54.9609 164.205C54.3496 164.205 53.7383 165.306 53.7383 166.651Z" fill="#FDFF85"/>
<path d="M124.892 155.773C125.504 157.606 131.739 159.929 132.839 158.829C134.062 157.729 131.861 156.017 127.949 155.161C125.381 154.55 124.526 154.795 124.892 155.773Z" fill="#FDFF85"/>
<path d="M141.273 159.926C142.007 161.882 147.875 162.493 147.875 160.659C147.875 160.048 146.653 159.315 145.186 158.825C141.029 157.725 140.54 157.97 141.273 159.926Z" fill="#FDFF85"/>
<path d="M160.96 144.279C159.615 145.501 159.982 150.514 161.327 151.369C162.06 151.858 162.549 150.391 162.549 147.824C162.549 143.3 162.305 142.811 160.96 144.279Z" fill="#FDFF85"/>
<path d="M100.195 164.207C100.195 166.163 100.807 167.875 101.418 167.875C102.151 167.875 102.64 166.163 102.64 164.207C102.64 162.129 102.151 160.54 101.418 160.54C100.807 160.54 100.195 162.129 100.195 164.207Z" fill="#FDFF85"/>
</svg>
