<svg width="120" height="160" viewBox="0 0 120 175" fill="none" xmlns="http://www.w3.org/2000/svg">
<path d="M38.8397 6.05132C38.8397 14.44 32.286 15.2265 30.1888 7.36206C28.8781 2.64342 27.3052 2.11911 21.2758 3.42986C17.3436 4.47844 11.0521 7.09991 7.64417 9.45923C1.87693 13.1293 1.61478 14.44 3.18767 29.6446C5.0227 44.8491 7.11987 48.5192 17.3436 54.5485C19.9651 55.8593 18.1301 66.3452 10.0035 101.735C3.97411 126.639 -0.482392 149.446 0.0419024 152.592C2.13908 166.747 34.121 176.971 68.4623 174.612C93.1041 173.039 118.27 162.029 119.581 152.592C120.105 149.446 115.649 127.163 109.882 103.046L99.1335 59.005L106.736 52.4514C115.649 44.3248 122.727 17.8479 117.484 11.5564C112.241 5.26488 99.3956 3.95415 94.9391 9.45923C92.0555 12.8671 90.4826 13.3914 89.4341 10.77C84.7154 -1.02664 72.6566 -3.64812 68.2001 6.31348C64.5301 14.44 60.3357 14.7022 59.2871 6.83777C58.7628 2.11911 56.6657 0.80838 48.8013 0.284088C39.6261 -0.50235 38.8397 0.0219421 38.8397 6.05132ZM53.7821 12.8671C55.6171 20.2073 68.7244 19.9451 73.9674 12.3428C76.3267 9.19708 78.4239 7.09991 78.686 7.88635C79.2103 8.41064 80.7832 11.2943 82.3561 14.1779C86.0261 20.7316 94.677 22.3044 99.1335 16.7993C100.969 14.7022 104.114 12.8671 106.474 12.8671C109.095 12.8671 108.571 14.7022 103.852 18.8965C97.5606 24.6638 95.4634 25.1881 71.3459 24.1395C56.9278 23.6152 43.034 23.0909 40.1504 22.8287C37.2668 22.8287 32.286 23.6152 29.1402 24.6638C24.6837 25.9745 23.1108 25.4502 23.1108 22.5666C23.1108 20.4694 19.9651 17.8479 16.0329 16.7993L8.69276 14.9643L15.2464 12.3428C20.2272 10.5078 22.3244 11.0321 25.7323 15.2265C30.9753 21.7802 44.0826 19.9451 44.0826 12.605C44.0826 6.05132 51.947 6.31348 53.7821 12.8671ZM16.8193 31.7417C18.9165 38.5576 21.0137 40.6547 26.5188 41.179C32.0238 41.9655 34.121 40.6547 36.2182 35.1496C39.6261 25.9745 47.7527 27.2852 48.8013 37.2468C49.5877 43.5384 50.8984 44.3248 58.7628 44.3248C66.6273 44.3248 68.4623 43.2762 70.5595 36.4604C73.9674 26.7609 79.9968 26.2366 82.3561 35.4118C83.929 41.179 85.2397 41.9655 93.3663 41.179C101.493 40.3926 103.066 39.344 104.901 31.7417C108.046 19.9451 112.241 20.9937 109.357 33.0525C108.046 38.5576 106.998 43.8005 106.998 44.5869C106.736 52.4514 49.0634 56.3836 26.2566 49.8299C14.9843 46.6841 10.0035 40.1304 10.0035 28.3338C10.0035 20.4694 14.1978 22.5666 16.8193 31.7417ZM29.6645 33.5768C28.8781 35.1496 26.7809 35.6739 25.208 34.8875C23.6351 33.8389 23.8973 32.5282 25.9945 30.9553C30.1888 28.3338 32.0238 29.9067 29.6645 33.5768ZM64.2679 34.8875C62.695 39.344 56.1414 38.2954 55.0928 33.3146C54.5685 30.1689 55.6171 29.3824 59.8114 30.431C62.695 31.2174 64.7922 33.3146 64.2679 34.8875ZM97.8228 33.8389C97.0363 35.1496 94.4148 36.4604 92.3177 36.4604C90.2205 36.4604 88.6476 35.1496 88.6476 33.8389C88.6476 32.266 91.0069 31.2174 94.1527 31.2174C97.0363 31.2174 98.6092 32.266 97.8228 33.8389ZM63.4815 60.0536H93.1041L103.59 105.143C113.027 146.038 113.552 151.019 110.144 155.213C104.639 161.505 82.8804 167.534 65.8408 167.534H51.947V147.873C51.947 130.047 51.4227 127.95 45.6555 124.018C39.8883 120.61 38.0532 120.347 31.7617 123.493C26.2566 126.115 23.1108 130.571 19.1786 142.892C15.7707 153.116 12.625 158.359 10.7899 157.834C5.54699 155.999 6.33343 148.659 17.0815 101.211C24.4216 68.4423 27.8295 57.6943 30.451 58.7429C32.5481 59.5293 47.2284 60.0536 63.4815 60.0536ZM32.5481 137.911C29.9267 140.533 27.5673 136.601 29.9267 133.193C31.4995 130.309 32.0238 130.309 33.0724 133.193C33.5967 135.028 33.3346 137.125 32.5481 137.911ZM44.3448 136.863C44.0826 140.008 40.4125 139.222 39.364 135.814C38.5775 134.241 39.6261 133.193 41.4611 133.717C43.034 134.503 44.3448 135.814 44.3448 136.863ZM30.9753 147.873C30.9753 149.97 29.9267 151.805 28.3538 151.805C27.0431 151.805 25.7323 149.97 25.7323 147.873C25.7323 145.776 27.0431 143.941 28.3538 143.941C29.9267 143.941 30.9753 145.776 30.9753 147.873ZM44.0826 150.494C44.0826 152.854 42.5097 153.64 40.1504 152.854C38.0532 151.805 36.2182 150.232 36.2182 148.921C36.2182 147.611 38.0532 146.562 40.1504 146.562C42.2476 146.562 44.0826 148.397 44.0826 150.494ZM28.3538 160.98C28.3538 163.34 26.7809 164.126 24.4216 163.34C22.3244 162.291 21.2758 160.718 22.0623 159.407C24.1594 155.737 28.3538 156.786 28.3538 160.98ZM44.0826 163.864C44.0826 168.32 38.3154 167.534 36.7425 162.815C36.2182 160.98 37.5289 159.67 39.8883 159.67C42.2476 159.67 44.0826 161.505 44.0826 163.864Z" fill="white"/>
<path d="M35.4341 84.1669C32.2883 95.1771 33.3369 96.75 42.5121 96.75C50.1143 96.75 51.4251 95.7014 52.7358 89.4099C54.3087 81.0212 54.833 81.5455 44.8714 79.4483C38.0556 78.1376 36.7448 78.924 35.4341 84.1669ZM46.7064 89.1477C46.7064 90.4585 45.6578 91.5071 44.085 91.5071C42.7742 91.5071 41.4635 89.672 41.4635 87.3127C41.4635 85.2155 42.7742 84.1669 44.085 84.9534C45.6578 85.7398 46.7064 87.5749 46.7064 89.1477Z" fill="#FDFF85"/>
<path d="M77.638 80.4902C72.6572 81.0145 70.2979 82.8496 70.2979 86.2575C70.2979 95.6948 72.9193 98.5784 80.7837 97.2677C86.8131 96.4812 88.6481 94.6462 88.6481 90.4518C88.6481 82.3253 85.5024 79.7038 77.638 80.4902ZM83.4052 88.8789C83.4052 90.1897 81.5702 91.5004 79.2109 91.5004C77.1137 91.5004 76.0651 90.1897 76.8515 88.8789C77.638 87.3061 79.473 86.2575 81.0459 86.2575C82.3566 86.2575 83.4052 87.3061 83.4052 88.8789Z" fill="#FDFF85"/>
</svg>
