<svg width="49" height="53" viewBox="0 0 49 53" fill="none" xmlns="http://www.w3.org/2000/svg">
<g filter="url(#filter0_f_837_3945)">
<path d="M37.875 15.5V22.375H36.5V23.75H35.125V25.125H33.75V26.5H32.375V27.875H31V29.25H29.625V30.625H28.25V32H26.875V33.375H25.5V34.75H24.125V36.125H20V34.75H18.625V33.375H17.25V29.25H18.625V27.875H20V26.5H21.375V25.125H22.75V23.75H24.125V22.375H25.5V21H26.875V19.625H28.25V18.25H29.625V16.875H31V18.25H32.375V21H31V22.375H29.625V23.75H28.25V25.125H26.875V26.5H25.5V27.875H24.125V29.25H22.75V30.625H21.375V32H24.125V30.625H25.5V29.25H26.875V27.875H28.25V26.5H29.625V25.125H31V23.75H32.375V22.375H33.75V16.875H32.375V15.5H28.25V16.875H26.875V18.25H25.5V19.625H24.125V21H22.75V22.375H21.375V23.75H20V25.125H18.625V26.5H17.25V27.875H15.875V34.75H17.25V36.125H18.625V37.5H25.5V36.125H26.875V34.75H28.25V33.375H29.625V32H31V30.625H32.375V29.25H33.75V27.875H35.125V26.5H36.5V27.875H37.875V30.625H36.5V32H35.125V33.375H33.75V34.75H32.375V36.125H31V37.5H29.625V38.875H28.25V40.25H26.875V41.625H18.625V40.25H15.875V38.875H14.5V37.5H13.125V34.75H11.75V26.5H13.125V25.125H14.5V23.75H15.875V22.375H17.25V21H18.625V19.625H20V18.25H21.375V16.875H22.75V15.5H24.125V14.125H25.5V12.75H28.25V11.375H33.75V12.75H35.125V14.125H36.5V15.5H37.875Z" fill="url(#paint0_linear_837_3945)"/>
</g>
<path d="M38.6263 14.832V22.1237H37.168V23.582H35.7096V25.0404H34.2513V26.4987H32.793V27.957H31.3346V29.4154H29.8763V30.8737H28.418V32.332H26.9596V33.7904H25.5013V35.2487H24.043V36.707H19.668V35.2487H18.2096V33.7904H16.7513V29.4154H18.2096V27.957H19.668V26.4987H21.1263V25.0404H22.5846V23.582H24.043V22.1237H25.5013V20.6654H26.9596V19.207H28.418V17.7487H29.8763V16.2904H31.3346V17.7487H32.793V20.6654H31.3346V22.1237H29.8763V23.582H28.418V25.0404H26.9596V26.4987H25.5013V27.957H24.043V29.4154H22.5846V30.8737H21.1263V32.332H24.043V30.8737H25.5013V29.4154H26.9596V27.957H28.418V26.4987H29.8763V25.0404H31.3346V23.582H32.793V22.1237H34.2513V16.2904H32.793V14.832H28.418V16.2904H26.9596V17.7487H25.5013V19.207H24.043V20.6654H22.5846V22.1237H21.1263V23.582H19.668V25.0404H18.2096V26.4987H16.7513V27.957H15.293V35.2487H16.7513V36.707H18.2096V38.1654H25.5013V36.707H26.9596V35.2487H28.418V33.7904H29.8763V32.332H31.3346V30.8737H32.793V29.4154H34.2513V27.957H35.7096V26.4987H37.168V27.957H38.6263V30.8737H37.168V32.332H35.7096V33.7904H34.2513V35.2487H32.793V36.707H31.3346V38.1654H29.8763V39.6237H28.418V41.082H26.9596V42.5404H18.2096V41.082H15.293V39.6237H13.8346V38.1654H12.3763V35.2487H10.918V26.4987H12.3763V25.0404H13.8346V23.582H15.293V22.1237H16.7513V20.6654H18.2096V19.207H19.668V17.7487H21.1263V16.2904H22.5846V14.832H24.043V13.3737H25.5013V11.9154H28.418V10.457H34.2513V11.9154H35.7096V13.3737H37.168V14.832H38.6263Z" fill="white"/>
<defs>
<filter id="filter0_f_837_3945" x="-1.97143" y="-0.971429" width="54.9429" height="54.9429" filterUnits="userSpaceOnUse" color-interpolation-filters="sRGB">
<feFlood flood-opacity="0" result="BackgroundImageFix"/>
<feBlend mode="normal" in="SourceGraphic" in2="BackgroundImageFix" result="shape"/>
<feGaussianBlur stdDeviation="5.48571" result="effect1_foregroundBlur_837_3945"/>
</filter>
<linearGradient id="paint0_linear_837_3945" x1="24.8125" y1="11.375" x2="24.8125" y2="41.625" gradientUnits="userSpaceOnUse">
<stop stop-color="#D678E6"/>
<stop offset="0.47" stop-color="#FFDD66"/>
<stop offset="1" stop-color="#E18AFF"/>
</linearGradient>
</defs>
</svg>
