<svg width="100%" height="100%" viewBox="0 0 26 26" fill="none" xmlns="http://www.w3.org/2000/svg">
<path d="M18.4154 15.1667V10.8333H19.4987V9.75H20.582V8.66667H22.7487V7.58333H23.832V5.41667H22.7487V4.33333H20.582V5.41667H19.4987V7.58333H18.4154V8.66667H17.332V9.75H15.1654V8.66667H10.832V7.58333H9.7487V6.5H8.66536V4.33333H7.58203V3.25H5.41536V4.33333H4.33203V6.5H5.41536V7.58333H7.58203V8.66667H8.66536V9.75H9.7487V11.9167H8.66536V13H6.4987V11.9167H5.41536V10.8333H2.16536V11.9167H1.08203V15.1667H2.16536V16.25H5.41536V15.1667H9.7487V16.25H10.832V17.3333H11.9154V18.4167H15.1654V17.3333H16.2487V18.4167H17.332V19.5H18.4154V22.75H19.4987V23.8333H22.7487V22.75H23.832V19.5H22.7487V18.4167H19.4987V17.3333H18.4154V16.25H17.332V15.1667H18.4154ZM15.1654 15.1667H11.9154V11.9167H15.1654V15.1667Z" fill="#7CB1FF"/>
</svg>
