<svg width="100%" height="100%" viewBox="0 0 236 140" fill="none" xmlns="http://www.w3.org/2000/svg">
<path d="M67.604 38.0773L63.8984 41.5741L64.2116 44.7056L64.5247 47.7848L72.3534 52.5342C87.1756 61.4589 96.9875 66.8867 98.3445 66.8867C99.4405 66.8867 110.244 61.772 111.34 60.676C111.549 60.5194 111.81 59.3712 111.966 58.2752C112.071 57.127 112.332 55.77 112.54 55.2481C112.749 54.7262 112.854 54.2565 112.749 54.1521C111.81 53.4215 84.2007 37.9729 82.0087 36.9813C79.4513 35.8331 74.0235 34.4761 72.0402 34.5283C71.6227 34.5805 69.6394 36.1463 67.604 38.0773ZM78.0944 38.9124C90.2549 45.4362 101.632 51.6992 102.572 52.3776C103.511 53.0561 103.459 53.2649 101.058 56.8661C99.7014 58.9537 98.3966 60.6238 98.2401 60.6238C98.0313 60.6238 97.405 60.3107 96.8831 59.8931C96.309 59.4756 93.021 57.6489 89.5764 55.8222C86.1318 53.9956 79.9211 50.3944 75.798 47.8892C71.6749 45.3319 67.604 43.0355 66.7689 42.7745C65.9861 42.4614 65.3076 42.096 65.3076 41.9395C65.3076 41.5219 71.7793 35.5722 72.0924 35.7287C72.249 35.7809 74.9629 37.2423 78.0944 38.9124ZM84.2007 39.0689C85.7142 39.904 90.6202 42.6701 95.0564 45.2275C99.4927 47.7326 104.346 50.4988 105.756 51.2816C108.052 52.5864 108.209 52.7952 106.956 52.7952C106.121 52.7952 100.484 49.9769 93.1776 45.9582C86.3405 42.2004 79.7123 38.5992 78.5119 38.0251C77.3115 37.451 76.4243 36.7725 76.5808 36.5638C76.9462 35.9897 80.9649 37.2945 84.2007 39.0689ZM67.4996 44.2359C68.439 44.7056 72.5621 47.1585 76.7374 49.6115C80.9649 52.1167 87.4887 55.8744 91.2987 57.9621C95.1086 60.0497 98.3966 62.0852 98.5532 62.5027C98.7098 62.9202 98.6576 63.8596 98.501 64.5903C98.2401 65.5819 97.9269 65.8429 97.2484 65.5819C95.6305 65.0078 78.6685 55.3003 71.988 51.1251C65.5164 47.1064 65.3076 46.9498 65.3076 45.1753C65.3076 43.1398 65.3598 43.1398 67.4996 44.2359ZM109.513 54.4653C111.183 54.935 111.236 55.0394 110.922 57.127C110.505 60.1019 110.348 60.6238 109.618 60.6238C109.252 60.6238 109.148 60.1019 109.252 59.3712C109.722 56.8661 108.991 56.7095 105.025 58.5362L101.319 60.2585V62.4505C101.319 63.7031 101.006 64.9557 100.589 65.2688C99.9624 65.7907 99.8058 65.5298 99.4927 63.7553C99.1795 61.772 99.3361 61.3023 101.372 58.3796C105.181 52.7952 104.764 53.0039 109.513 54.4653ZM108.209 59.9453C107.739 62.4505 106.017 63.0246 106.017 60.7282C106.017 59.0059 106.382 58.5362 107.582 58.5362C108.261 58.5362 108.417 58.8493 108.209 59.9453ZM104.973 61.3023C104.973 62.6593 104.66 63.1812 103.668 63.6509C102.415 64.225 102.363 64.1728 102.363 62.4505C102.363 61.3023 102.676 60.4672 103.303 60.1541C104.712 59.319 104.973 59.4756 104.973 61.3023Z" fill="white"/>
<path d="M73.9154 40.0637C70.8884 41.5773 70.7318 42.0992 72.8716 43.404C73.9154 44.0303 74.8027 44.5 74.9071 44.3956C75.6899 43.5083 76.7859 40.5335 76.5772 39.9594C76.2118 39.0199 75.8465 39.0199 73.9154 40.0637ZM75.7421 41.3163C75.7421 41.9948 75.3768 42.3601 74.8027 42.3601C73.3413 42.3601 73.0282 41.786 74.072 41.0032C75.3246 40.0116 75.7421 40.1159 75.7421 41.3163Z" fill="#FFB84D"/>
<path d="M83.8365 44.5508C80.6529 45.6469 79.5569 47.5779 81.4357 48.6217C83.0537 49.4568 83.419 49.3002 84.8282 46.7429C86.6548 43.507 86.6548 43.5592 83.8365 44.5508ZM83.3668 46.8473C81.8011 47.9433 81.0704 47.6823 82.4796 46.4819C83.158 45.9078 83.8887 45.5947 84.0453 45.8034C84.2019 45.96 83.8887 46.4297 83.3668 46.8473Z" fill="#FFB84D"/>
<path d="M91.1435 49.8783C89.1603 50.7134 88.0121 52.0703 88.7949 52.54C89.1081 52.7488 89.7344 52.5922 90.1519 52.2269C90.7782 51.705 90.8304 51.7572 90.5694 52.4878C90.0997 53.6882 91.7698 54.158 92.918 53.1141C93.4921 52.5922 94.014 51.5484 94.1184 50.6612C94.3794 48.9389 93.7009 48.7301 91.1435 49.8783ZM92.9702 50.5568C92.918 51.4962 92.0308 52.3835 91.7176 51.8094C91.5089 51.4962 91.5089 50.9743 91.6654 50.7134C92.0308 50.0871 92.9702 50.0349 92.9702 50.5568Z" fill="#FFB84D"/>
<path d="M67.8635 47.0574C69.0639 48.1012 70.0033 48.4143 70.0033 47.788C70.0033 47.2139 68.2288 46.0657 67.3938 46.0657C66.8719 46.0657 66.9763 46.3789 67.8635 47.0574Z" fill="#FFB84D"/>
<path d="M72.7145 49.7186C72.9754 50.5536 77.3073 53.0066 77.3073 52.3281C77.3073 51.8062 73.5495 49.1445 72.8188 49.1445C72.6623 49.1445 72.6101 49.4054 72.7145 49.7186Z" fill="#FFB84D"/>
<path d="M80.9628 54.5794C81.2759 54.9969 82.3719 55.8319 83.4158 56.4582C85.7122 57.8152 85.4512 56.6148 83.0504 54.9969C81.1194 53.6921 80.0233 53.4833 80.9628 54.5794Z" fill="#FFB84D"/>
<path d="M89.8398 59.581C89.8398 60.2073 94.0151 62.3471 94.4326 61.9818C94.5892 61.773 94.2761 61.3033 93.702 60.8858C92.2928 59.8419 89.8398 59.0069 89.8398 59.581Z" fill="#FFB84D"/>
<path d="M104.453 55.9312C104.453 56.1922 104.818 56.4531 105.236 56.4531C105.654 56.4531 106.019 56.1922 106.019 55.9312C106.019 55.6181 105.654 55.4093 105.236 55.4093C104.818 55.4093 104.453 55.6181 104.453 55.9312Z" fill="white"/>
<path d="M56.5921 50.1361C53.7216 51.7541 49.1288 54.1027 46.4149 55.3552C43.7531 56.6078 41.1958 57.8082 40.7782 58.0692C40.3607 58.2779 38.0121 59.5827 35.5591 60.9397C33.1062 62.2966 29.6616 64.1755 27.8349 65.1149C26.0082 66.0544 24.1293 67.1504 23.7118 67.5157C23.0333 68.0898 22.8245 68.0898 22.6158 67.5157C22.4592 66.9938 22.1461 67.046 21.2588 67.8289C20.2672 68.7161 6.64535 76.4404 3.93142 77.6408C3.09637 78.0061 2.8876 78.3714 3.14856 79.1021C3.51389 80.0937 3.56609 80.0937 4.66209 78.9977C5.28839 78.3714 6.9585 77.2754 8.41984 76.5448C9.829 75.8141 13.0126 74.0396 15.5178 72.5782C19.9019 69.9687 22.0417 69.5512 20.9979 71.43C20.5803 72.2129 10.5597 77.5364 4.92305 79.9894C1.89597 81.2941 2.47008 82.077 9.35928 85.9913C12.3342 87.7136 15.5178 89.4881 16.4051 90.0622C17.3445 90.5841 22.5636 93.5068 27.9914 96.4817C33.4715 99.5088 38.1687 102.171 38.4818 102.431C38.8472 102.745 40.1519 102.223 42.1352 100.866C43.8575 99.7697 47.1977 97.7343 49.6507 96.3773C57.0096 92.202 61.0283 89.8534 68.9613 85.1563C75.9549 80.981 89.9421 73.5699 92.0819 72.9436C92.7082 72.7348 92.9692 72.1085 92.9692 70.595C92.9692 69.4468 93.1257 68.1942 93.2823 67.7245C93.4911 67.1504 93.3345 66.8894 92.7082 66.8894C92.2385 66.8894 89.6811 65.4281 87.0194 63.6014C84.4099 61.8269 81.6437 60.0002 80.8609 59.5827C75.3808 56.5034 62.2287 48.2573 62.0721 47.7876C61.9678 47.4744 59.6192 48.466 56.5921 50.1361ZM60.6108 50.6581C60.6108 51.9628 60.2976 52.276 57.8969 53.3198C56.3833 53.9461 51.8949 56.0859 47.9806 58.0692C41.2479 61.4094 40.7782 61.566 40.7782 60.4699C40.7782 59.4783 42.2918 58.5389 50.5901 54.2592C55.9658 51.4931 60.402 49.1967 60.5064 49.1967C60.5586 49.1445 60.6108 49.823 60.6108 50.6581ZM66.6649 52.1194C69.5876 53.8939 70.8402 54.9899 70.9446 55.7728C71.1012 56.8688 70.6836 56.7122 66.404 54.2592C63.2203 52.4325 61.6546 51.2322 61.6546 50.6059C61.6546 50.084 61.8634 49.6664 62.0721 49.6664C62.3331 49.6664 64.3685 50.7624 66.6649 52.1194ZM66.2996 55.4596C73.8151 59.8437 74.2326 60.1046 81.1218 64.6452C84.7752 67.046 87.7501 69.238 87.7501 69.499C87.7501 69.9165 74.8067 77.3276 74.076 77.3276C73.8673 77.3276 71.049 78.9455 67.7609 80.9288C64.4729 82.9642 60.663 85.1041 59.2538 85.7304C55.8614 87.2439 56.2267 87.0351 47.9284 92.2542C43.9619 94.7072 40.3085 96.7948 39.8388 96.847C39.3691 96.847 38.8472 97.0558 38.6906 97.2646C38.4296 97.5777 29.7137 92.6196 28.148 91.2626C27.6783 90.7929 27.1564 90.5841 26.9998 90.7407C26.8432 90.8973 24.8078 89.9578 22.4592 88.6009C20.1106 87.2961 18.023 86.2001 17.8142 86.2001C17.6054 86.2001 17.1357 85.8347 16.7704 85.4172C16.4051 84.9997 15.831 84.6343 15.4134 84.6343C14.7871 84.6343 7.89793 80.5635 7.89793 80.1459C7.89793 80.0937 11.0294 78.3714 14.8393 76.3882C23.8684 71.6388 37.1249 64.6452 38.4296 63.8624C40.5695 62.6098 60.8717 52.7979 61.3415 52.7979C61.6024 52.7979 63.7944 53.9983 66.2996 55.4596ZM75.4852 57.4951C76.6334 58.2779 78.5645 59.5305 79.8171 60.3134C81.0174 61.044 82.0091 61.9313 82.0091 62.1922C82.0091 62.4532 82.3222 62.5576 82.7397 62.401C83.1573 62.2444 84.5142 62.9229 85.7668 63.8624C87.0716 64.8018 88.7939 66.1066 89.629 66.6807C90.8293 67.6201 90.9859 67.9854 90.5162 68.5074C89.9943 69.0293 89.107 68.6639 86.1322 66.5763C84.0445 65.1671 82.0091 63.758 81.5394 63.497C72.7713 58.1214 71.5187 57.1819 71.9362 56.1381C72.2494 55.3552 72.3537 55.4074 75.4852 57.4951ZM39.7344 60.9919C39.7344 61.9835 38.9515 62.4532 28.8265 67.7245C25.2775 69.6034 22.2504 71.0125 22.1461 70.8559C21.311 70.0731 23.1377 68.7161 29.6094 65.3759C33.5759 63.2883 37.2814 61.2528 37.8555 60.8353C39.2647 59.8437 39.7344 59.8958 39.7344 60.9919ZM91.3512 70.9081C90.8815 71.7432 88.7417 73.1523 85.1405 74.979C82.1135 76.4926 78.1991 78.5802 76.4246 79.5718C73.4498 81.2941 73.1366 81.3463 73.1366 80.4069C73.1366 79.3109 73.5541 79.0499 83.0529 73.6743C86.8628 71.4822 88.8983 70.595 89.7333 70.8038C90.6206 71.0125 90.8815 70.8559 90.8815 70.1253C90.8815 68.9249 91.56 68.142 91.821 68.9771C91.9775 69.3424 91.7166 70.1775 91.3512 70.9081ZM72.0928 80.9288C72.0928 81.9726 69.1179 84.0603 61.3937 88.4965C57.3228 90.7929 57.2184 90.8451 56.9574 89.6969C56.6965 88.7052 57.3228 88.1833 62.0199 85.5738C64.9948 83.9037 68.2829 81.9726 69.3267 81.2419C71.6753 79.6762 72.0928 79.624 72.0928 80.9288ZM10.1943 83.0164C11.9688 84.1124 16.1963 86.461 19.6409 88.2355C23.0333 90.01 26.1648 91.7323 26.5301 92.0455C27.1564 92.5674 27.5217 94.5506 26.9476 94.5506C26.3213 94.5506 17.0835 89.1228 16.1963 88.2355C15.7266 87.7658 15.2047 87.4527 15.0481 87.557C14.6828 87.9224 5.13181 82.3379 4.87086 81.6073C4.45333 80.3547 7.01069 80.981 10.1943 83.0164ZM55.0264 91.8367C53.7738 92.7239 40.0997 100.814 39.8388 100.814C39.7344 100.814 39.7344 100.239 39.8388 99.561C39.9432 98.5171 41.5089 97.3167 47.824 93.5068C55.1307 89.1228 55.6526 88.8618 55.8092 89.9578C55.9658 90.6885 55.6526 91.4192 55.0264 91.8367ZM33.7846 95.9076C37.699 98.2562 38.6906 99.0912 38.6906 100.031C38.6906 101.179 38.3774 101.074 33.4715 98.2562C29.2962 95.9076 28.2524 95.1247 28.2524 94.1331C28.2524 93.5068 28.409 92.9849 28.5655 92.9849C28.7221 92.9849 31.0707 94.2897 33.7846 95.9076Z" fill="white"/>
<path d="M51.6874 59.424C51.0089 60.2068 51.1133 60.259 52.2615 59.9459C52.9922 59.7371 54.3492 59.5805 55.2886 59.5805C56.1758 59.5805 56.9587 59.3196 56.9587 59.0586C56.9587 58.1714 52.4703 58.4323 51.6874 59.424Z" fill="#CE44FF"/>
<path d="M57.4757 60.4205C55.388 62.195 55.7012 62.456 58.3107 61.099C60.8681 59.742 65.2521 60.003 67.4441 61.6209C68.227 62.2472 69.0099 62.5082 69.1664 62.2472C69.8971 61.0468 65.4087 59.0636 61.9641 59.0636C59.6677 59.0636 58.8326 59.3245 57.4757 60.4205Z" fill="#CE44FF"/>
<path d="M77.8307 67.9347C76.9957 68.4566 77.1001 68.5088 79.2921 68.7176C80.075 68.7698 81.4319 68.9785 82.267 69.2395C83.6761 69.6048 83.7283 69.5526 83.0498 68.822C82.0582 67.7781 78.8746 67.2562 77.8307 67.9347Z" fill="#CE44FF"/>
<path d="M70.7304 68.9283C68.3296 69.9722 69.0081 70.4419 72.3483 70.1287C74.9057 69.9722 76.0017 70.0765 76.9933 70.755C78.4025 71.6423 79.3941 71.851 79.3941 71.1726C79.3941 69.8156 72.7137 68.0933 70.7304 68.9283Z" fill="#CE44FF"/>
<path d="M40.4155 70.6C38.7454 71.0697 37.8059 71.9569 38.38 72.4788C38.5366 72.6354 39.0063 72.531 39.3717 72.2179C40.2589 71.4872 42.6075 71.3306 44.9561 71.8004C46.6262 72.1657 46.7306 72.1657 45.9999 71.3828C44.9561 70.339 42.5031 69.9737 40.4155 70.6Z" fill="#CE44FF"/>
<path d="M47.1989 72.7378C46.2594 73.3119 45.4766 74.0948 45.4766 74.5123C45.4766 75.4518 45.4766 75.4518 47.5642 73.9382C48.7124 73.1032 50.0172 72.6335 51.2698 72.6335C52.418 72.6335 53.8793 73.1554 55.0797 73.9382C57.1151 75.2952 58.0024 75.5562 58.0024 74.7733C58.0024 74.5123 56.9064 73.6773 55.6016 72.9466C52.6789 71.3287 49.5996 71.2243 47.1989 72.7378Z" fill="#CE44FF"/>
<path d="M27.7834 76.8084C24.7563 78.2176 25.3304 78.6873 28.7228 77.5391C32.063 76.4431 34.4638 76.8606 36.8646 79.0005C38.4825 80.3574 38.6913 80.4618 38.6913 79.5746C38.6913 78.2176 34.2029 75.7646 31.8543 75.7646C30.8627 75.7646 29.036 76.2343 27.7834 76.8084Z" fill="#CE44FF"/>
<path d="M18.2348 80.0441C17.3997 80.3051 16.7734 80.7748 16.7734 81.088C16.7734 81.4011 17.1388 81.4533 17.7129 81.2445C19.6961 80.3573 24.3933 80.3573 26.0634 81.1923C27.9423 82.1318 28.2554 82.184 28.2554 81.5577C28.2554 79.8876 21.4184 78.8437 18.2348 80.0441Z" fill="#CE44FF"/>
<path d="M36.4996 83.9559C34.4119 84.4778 35.7689 85.1562 38.9526 85.1562C42.1884 85.1562 43.3366 84.5821 41.5099 83.9037C40.6227 83.5383 37.9087 83.5905 36.4996 83.9559Z" fill="#CE44FF"/>
<path d="M44.6971 84.9415C42.766 85.9331 42.0353 86.6116 42.505 87.0291C42.6616 87.2379 43.4967 86.9247 44.2795 86.4028C46.3672 85.0459 48.246 84.9415 50.3859 86.1941C52.5779 87.3944 52.7867 87.4466 52.7867 86.716C52.7867 86.0375 48.768 84.1586 47.3066 84.1064C46.7325 84.1064 45.5843 84.4718 44.6971 84.9415Z" fill="#CE44FF"/>
<path d="M164.966 6.28951C162.201 8.08177 157.763 10.7098 155.131 12.1277C152.552 13.5424 150.074 14.8986 149.673 15.1849C149.269 15.4191 147.006 16.8665 144.642 18.3725C142.277 19.8785 138.955 21.9667 137.19 23.0173C135.425 24.0678 133.618 25.2779 133.223 25.6683C132.582 26.2833 132.373 26.2962 132.129 25.7361C131.941 25.2248 131.632 25.2963 130.794 26.1325C129.86 27.0793 116.741 35.6308 114.107 36.9967C113.296 37.413 113.11 37.7905 113.416 38.5036C113.842 39.4708 113.894 39.4676 114.92 38.3059C115.506 37.6421 117.105 36.4449 118.519 35.6253C119.88 34.809 122.948 32.8411 125.358 31.2277C129.572 28.3521 131.682 27.8031 130.757 29.7429C130.388 30.5501 120.716 36.4828 115.242 39.2795C112.301 40.7689 112.922 41.5148 120.04 44.9958C123.116 46.5309 126.403 48.1052 127.324 48.6233C128.294 49.0862 133.684 51.6807 139.285 54.3144C144.942 56.9969 149.795 59.3632 150.123 59.6043C150.507 59.8943 151.777 59.2927 153.673 57.8157C155.324 56.6154 158.532 54.3773 160.897 52.8713C167.983 48.2492 171.849 45.6566 179.477 40.4781C186.199 35.8785 199.701 27.6169 201.798 26.8596C202.41 26.6125 202.632 25.9713 202.539 24.4606C202.468 23.3146 202.547 22.0547 202.674 21.5762C202.847 20.9903 202.674 20.7396 202.049 20.7783C201.58 20.8073 198.938 19.5068 196.168 17.8482C193.454 16.2384 190.58 14.5862 189.773 14.2179C184.113 11.4832 170.476 4.06581 170.291 3.60667C170.167 3.30057 167.885 4.43548 164.966 6.28951ZM169.01 6.56201C169.09 7.86429 168.797 8.19619 166.466 9.38642C164.994 10.1051 160.646 12.5183 156.862 14.7397C150.349 18.4897 149.889 18.675 149.822 17.5811C149.76 16.5913 151.213 15.5601 159.231 10.7757C164.425 7.68259 168.711 5.11636 168.815 5.10991C168.864 5.05459 168.958 5.72855 169.01 6.56201ZM175.143 7.64633C178.169 9.23676 179.487 10.2533 179.64 11.0282C179.864 12.1124 179.438 11.9819 175.014 9.7982C171.724 8.1718 170.087 7.07049 170.048 6.4454C170.016 5.92449 170.199 5.49485 170.407 5.48194C170.667 5.46581 172.767 6.43391 175.143 7.64633ZM174.985 11.0027C182.757 14.9138 183.189 15.1485 190.346 19.2546C194.141 21.4249 197.246 23.4289 197.262 23.6893C197.288 24.106 184.827 32.3031 184.098 32.3482C183.889 32.3611 181.177 34.1502 178.017 36.3329C174.861 38.5677 171.191 40.9389 169.823 41.6511C166.531 43.3715 166.883 43.1405 158.923 48.8626C155.116 51.5561 151.598 53.8655 151.133 53.9467C150.664 53.9757 150.156 54.2163 150.012 54.4344C149.771 54.763 140.766 50.3531 139.119 49.0956C138.621 48.6558 138.087 48.4797 137.941 48.6456C137.794 48.8116 135.705 47.9998 133.277 46.7906C130.852 45.6335 128.7 44.6686 128.492 44.6815C128.284 44.6944 127.792 44.3588 127.402 43.9647C127.011 43.5705 126.416 43.2414 125.999 43.2672C125.374 43.3059 118.246 39.6686 118.22 39.2519C118.217 39.1998 121.236 37.2872 124.916 35.0723C133.635 29.7738 146.433 21.9742 147.687 21.1122C149.746 19.7297 169.403 8.68162 169.871 8.65258C170.132 8.63645 172.394 9.69905 174.985 11.0027ZM184.278 12.4665C185.473 13.1769 187.478 14.3077 188.776 15.0117C190.019 15.6667 191.064 16.491 191.08 16.7514C191.096 17.0119 191.415 17.0967 191.822 16.9146C192.229 16.7326 193.626 17.3259 194.934 18.1861C196.294 19.0431 198.094 20.2389 198.963 20.7603C200.219 21.6237 200.398 21.9787 199.961 22.5286C199.473 23.0818 198.565 22.772 195.466 20.8722C193.296 19.5948 191.177 18.3142 190.692 18.0827C181.608 13.2594 180.3 12.3991 180.652 11.3315C180.916 10.5308 181.024 10.5764 184.278 12.4665ZM148.812 18.1665C148.873 19.1562 148.121 19.6735 138.341 25.5605C134.915 27.6552 131.981 29.2488 131.867 29.0989C130.985 28.3692 132.725 26.9019 138.977 23.168C142.807 20.8392 146.38 18.5786 146.927 18.1264C148.272 17.0495 148.744 17.0726 148.812 18.1665ZM200.943 24.8732C200.526 25.7357 198.477 27.2744 194.996 29.3202C192.068 31.018 188.29 33.3436 186.581 34.443C183.718 36.3459 183.409 36.4173 183.351 35.4797C183.283 34.3858 183.683 34.0995 192.832 28.147C196.499 25.7236 198.476 24.7123 199.322 24.869C200.22 25.0225 200.471 24.8501 200.426 24.1208C200.352 22.9227 200.981 22.0994 201.293 22.9168C201.472 23.2717 201.263 24.1213 200.943 24.8732ZM182.341 36.0651C182.406 37.1069 179.565 39.3745 172.13 44.2797C168.209 46.8233 168.108 46.8819 167.777 45.752C167.455 44.7784 168.048 44.2188 172.575 41.3239C175.44 39.4731 178.603 37.3424 179.6 36.5486C181.847 34.8407 182.26 34.7628 182.341 36.0651ZM120.69 41.975C122.529 42.9592 126.893 45.042 130.441 46.6001C133.937 48.1615 137.169 49.687 137.553 49.9769C138.21 50.4591 138.697 52.416 138.124 52.4515C137.499 52.4902 127.943 47.6438 127.003 46.8131C126.505 46.3733 125.965 46.093 125.815 46.2069C125.473 46.5941 115.595 41.6107 115.29 40.8976C114.795 39.6732 117.387 40.1402 120.69 41.975ZM165.981 48.0071C164.786 48.9701 151.638 57.8895 151.378 57.9056C151.274 57.912 151.238 57.339 151.3 56.6554C151.34 55.6071 152.829 54.3122 158.896 50.1192C165.918 45.2919 166.423 44.9992 166.647 46.0834C166.848 46.803 166.581 47.5517 165.981 48.0071ZM145.032 53.3833C149.084 55.4854 150.125 56.2576 150.183 57.1952C150.254 58.3412 149.935 58.2564 144.865 55.7467C140.552 53.6607 139.462 52.9439 139.401 51.9541C139.362 51.329 139.486 50.7984 139.642 50.7888C139.798 50.7791 142.223 51.9362 145.032 53.3833Z" fill="white"/>
<g filter="url(#filter0_d_939_5061)">
<path d="M160.643 15.8602C160.014 16.6835 160.122 16.7291 161.249 16.3456C161.965 16.0921 163.31 15.8519 164.247 15.7938C165.133 15.739 165.898 15.4302 165.882 15.1697C165.827 14.2841 161.363 14.8221 160.643 15.8602Z" fill="#CE44FF"/>
</g>
<g filter="url(#filter1_d_939_5061)">
<path d="M166.491 16.4958C164.517 18.3959 164.845 18.637 167.366 17.1213C169.835 15.6089 174.226 15.5983 176.514 17.0777C177.334 17.6544 178.132 17.8664 178.272 17.5963C178.927 16.353 174.325 14.651 170.887 14.8639C168.595 15.0059 167.777 15.318 166.491 16.4958Z" fill="#CE44FF"/>
</g>
<g filter="url(#filter2_d_939_5061)">
<path d="M187.271 22.732C186.469 23.3045 186.577 23.3502 188.778 23.423C189.562 23.4267 190.929 23.5512 191.779 23.7601C193.208 24.0376 193.257 23.9823 192.535 23.2949C191.48 22.3144 188.271 21.9903 187.271 22.732Z" fill="#CE44FF"/>
</g>
<g filter="url(#filter3_d_939_5061)">
<path d="M180.244 24.1614C177.912 25.3517 178.618 25.7785 181.933 25.2595C184.476 24.9452 185.576 24.9816 186.608 25.5975C188.069 26.3959 189.072 26.543 189.03 25.8658C188.946 24.5114 182.172 23.2054 180.244 24.1614Z" fill="#CE44FF"/>
</g>
<g filter="url(#filter4_d_939_5061)">
<path d="M150.08 27.7057C148.442 28.2778 147.559 29.2214 148.164 29.7068C148.33 29.8534 148.793 29.7202 149.138 29.3851C149.978 28.6009 152.313 28.2995 154.686 28.6231C156.375 28.8845 156.48 28.8781 155.702 28.1419C154.596 27.1646 152.125 26.9516 150.08 27.7057Z" fill="#CE44FF"/>
</g>
<g filter="url(#filter5_d_939_5061)">
<path d="M156.992 29.4213C156.09 30.0523 155.357 30.8821 155.383 31.2988C155.441 32.2365 155.441 32.2365 157.431 30.5968C158.525 29.6923 159.798 29.1429 161.049 29.0654C162.195 28.9945 163.685 29.4251 164.932 30.1322C167.047 31.3608 167.949 31.5664 167.901 30.785C167.884 30.5246 166.739 29.7588 165.391 29.1102C162.374 27.6761 159.295 27.7622 156.992 29.4213Z" fill="#CE44FF"/>
</g>
<g filter="url(#filter6_d_939_5061)">
<path d="M137.854 34.6891C134.92 36.2827 135.522 36.716 138.837 35.3603C142.103 34.0599 144.525 34.3282 147.054 36.3156C148.752 37.5699 148.967 37.6612 148.912 36.7757C148.829 35.4213 144.197 33.2505 141.853 33.3956C140.863 33.4569 139.069 34.0387 137.854 34.6891Z" fill="#CE44FF"/>
</g>
<g filter="url(#filter7_d_939_5061)">
<path d="M128.531 38.5083C127.713 38.8203 127.117 39.3279 127.137 39.6404C127.156 39.953 127.524 39.9825 128.084 39.7386C130.009 38.7305 134.697 38.4401 136.415 39.1704C138.349 39.9919 138.665 40.0246 138.626 39.3995C138.523 37.7326 131.634 37.1134 128.531 38.5083Z" fill="#CE44FF"/>
</g>
<g filter="url(#filter8_d_939_5061)">
<path d="M147.002 41.2831C144.95 41.933 146.347 42.5263 149.524 42.3296C152.754 42.1295 153.864 41.4856 151.999 40.9213C151.091 40.6115 148.385 40.8313 147.002 41.2831Z" fill="#CE44FF"/>
</g>
<g filter="url(#filter9_d_939_5061)">
<path d="M155.241 41.7705C153.375 42.8796 152.687 43.602 153.182 43.9897C153.351 44.1883 154.165 43.8242 154.914 43.2549C156.914 41.7715 158.783 41.5511 160.996 42.6691C163.258 43.7317 163.47 43.7708 163.425 43.0416C163.383 42.3644 159.255 40.7375 157.794 40.7757C157.221 40.8112 156.097 41.2468 155.241 41.7705Z" fill="#CE44FF"/>
</g>
<path d="M7.57685 21.5969C6.52403 22.6955 5.1508 24.2976 4.50996 25.1674L3.3656 26.7695L7.71417 32.4913C12.612 38.9455 12.7036 38.2588 6.79868 39.6779C4.9677 40.0898 3.31982 40.5933 3.09095 40.7764C2.67898 41.1426 4.83038 47.9173 5.65432 48.7412C5.92897 49.0616 6.61558 48.5581 7.6684 47.368L9.22473 45.537L9.17895 50.2518C9.13318 53.2729 9.31628 55.1954 9.6367 55.5158C10.0029 55.882 10.1402 54.5088 10.1402 50.0687L10.1402 44.118L11.7423 42.5616C13.1156 41.2342 13.436 41.0969 13.8022 41.6462C14.4888 42.7447 14.3515 43.5229 13.3902 43.7976C12.6578 43.9807 12.5205 44.3469 12.612 45.7201C12.6578 46.6813 12.8867 47.6426 13.024 47.9173C13.2071 48.1919 13.0698 48.5123 12.7951 48.6497C12.3374 48.787 12.4289 49.1074 13.0698 49.7025C13.5733 50.2518 13.9853 50.3891 14.1226 50.0687C14.2141 49.794 14.5803 49.1532 14.9465 48.6954C15.5874 47.8257 15.5874 47.8257 15.6332 48.6954C15.6332 50.618 17.6015 56.7517 18.1507 56.7517C18.7 56.7517 19.6613 61.6038 19.2036 62.0158C19.112 62.1073 18.0592 61.5581 16.8691 60.7799C15.4501 59.8644 14.7177 59.0405 14.6719 58.3996C14.6261 56.2024 14.1226 53.2729 13.7564 52.8609C12.9325 51.9912 11.7423 53.3186 11.605 55.3327C11.4219 57.4383 11.1015 57.6214 9.91134 56.294C8.85853 55.1496 8.12614 55.1039 8.76698 56.2482C9.31628 57.3468 18.7 63.1602 19.8902 63.1602C20.8057 63.1602 26.7106 59.8186 27.4887 58.8574C27.8092 58.4454 27.7634 55.9736 27.3056 50.8011C26.7106 43.8433 26.7106 43.294 27.443 42.7447C28.1296 42.1955 27.9923 41.9666 25.9782 39.9067C24.0557 37.9384 23.8726 37.5722 24.5592 37.206C25.2916 36.7941 25.2458 36.5194 24.193 33.5899C22.4993 28.8751 22.4535 28.8293 21.8585 28.8293C21.5381 28.8293 20.2106 30.2483 18.9289 31.9877C15.9078 35.9701 14.8092 36.9772 14.5346 36.1074C14.443 35.7413 13.8022 33.4068 13.1156 30.8892C12.4747 28.3716 11.7423 25.8082 11.5134 25.1674C11.3304 24.5265 10.8726 23.0617 10.598 21.8258C10.2775 20.6357 9.86557 19.6744 9.72825 19.6744C9.54515 19.6744 8.58388 20.5441 7.57685 21.5969ZM10.0029 22.8786C10.4606 24.6638 10.4149 24.8012 8.67543 26.7695C7.6684 27.9138 6.70713 28.8293 6.47826 28.8293C6.29516 28.8293 5.79164 28.3258 5.37967 27.6849C4.60151 26.5406 4.64728 26.449 6.70713 24.1145C7.85149 22.8329 8.76698 21.5969 8.76698 21.4138C8.76698 21.185 8.95008 21.0476 9.13318 21.0476C9.31628 21.0476 9.72825 21.8716 10.0029 22.8786ZM10.6437 31.4842L9.4536 32.9948L8.44656 31.7131C7.85149 30.9807 7.39375 30.2483 7.39375 29.9737C7.39375 29.7448 8.17191 28.7835 9.13318 27.7765L10.8268 26.0371L11.3304 28.0054C11.7423 29.7906 11.6965 30.111 10.6437 31.4842ZM22.9113 32.949C23.9183 35.6497 24.1472 37.0687 23.4606 37.0687C22.6824 37.0687 20.2106 33.8187 20.2106 32.8575C20.2106 32.0335 21.5381 29.9737 21.8585 30.2941C21.9043 30.3856 22.4078 31.5758 22.9113 32.949ZM12.8867 36.3821C12.3832 36.9772 12.1543 36.8856 11.2388 35.5124C9.91134 33.5441 9.91134 33.4983 11.1473 32.1708L12.1543 31.0723L12.7951 33.361C13.3444 35.2377 13.3444 35.8328 12.8867 36.3821ZM19.7529 34.0934C20.2106 34.6427 20.119 34.8258 19.0662 35.2377C17.4641 35.8328 17.281 35.6955 18.1965 34.4138C19.0205 33.2237 19.0205 33.2237 19.7529 34.0934ZM20.5768 37.1145C19.7529 37.6638 18.3796 37.618 18.3796 37.0687C18.3796 36.2905 19.936 35.7413 20.5768 36.2448C21.0803 36.6567 21.0803 36.8398 20.5768 37.1145ZM17.4641 37.5722C17.4641 37.8011 17.1437 37.9842 16.7775 37.9842C16.4113 37.9842 16.0909 37.6638 16.0909 37.2976C16.0909 36.8856 16.3655 36.7483 16.7775 36.8856C17.1437 37.0687 17.4641 37.3434 17.4641 37.5722ZM14.3972 37.7096C15.0839 38.2588 15.1296 38.5335 14.7177 39.3117C14.443 39.861 14.031 40.2729 13.8022 40.2729C13.1613 40.2729 12.3374 38.4877 12.612 37.7096C12.9325 36.9314 13.3444 36.9314 14.3972 37.7096ZM24.7423 39.9983C25.8409 41.0969 26.5275 42.1039 26.2986 42.2412C25.6578 42.6532 20.3479 43.9349 19.4782 43.9349C18.4712 43.8891 15.4501 40.0441 15.862 39.3574C15.9993 39.0828 16.8233 38.8997 17.693 38.8997C18.5627 38.8997 19.3867 38.6708 19.524 38.4419C19.6613 38.1673 20.4852 37.9842 21.3092 37.9842C22.4078 37.9842 23.2317 38.4419 24.7423 39.9983ZM12.1085 40.1356C12.5205 40.5476 11.0557 42.1497 10.5522 41.8293C9.77402 41.3715 10.0944 39.8152 10.9642 39.8152C11.4219 39.8152 11.9712 39.9525 12.1085 40.1356ZM9.22473 42.3328C9.22473 44.8046 8.58388 44.9877 7.62262 42.7447C6.84446 40.868 7.02755 40.2729 8.35501 40.2729C9.0874 40.2729 9.22473 40.5933 9.22473 42.3328ZM16.3655 42.3328C17.5557 43.8891 17.5557 43.9807 16.7775 44.8504C15.7705 45.9947 15.1754 45.6285 15.1754 43.8891C15.1754 43.1109 14.9465 42.1039 14.7177 41.6004C13.8937 40.0898 15.0381 40.5933 16.3655 42.3328ZM6.98178 43.294C7.80572 45.3081 7.80572 45.4912 7.1191 46.2694C6.66136 46.7729 6.20361 47.1391 6.02051 47.1391C5.70009 47.1391 4.18954 42.6532 4.18954 41.7377C4.18954 41.4173 4.60151 41.1884 5.10503 41.1884C5.79164 41.1884 6.29516 41.7835 6.98178 43.294ZM26.1155 49.0616C26.3902 52.1743 26.7563 55.4243 26.8937 56.294C27.0768 57.5299 26.8937 58.125 26.2986 58.6285C25.2 59.5897 20.6226 62.3362 20.4395 62.1531C20.3937 62.0616 20.119 60.5968 19.8902 58.9031L19.4324 55.7905L21.4923 53.9595C22.6366 52.9982 23.7352 52.1743 23.9641 52.1743C24.6965 52.1743 24.1014 51.1215 21.8127 48.1004C20.6226 46.544 19.7071 45.1708 19.7986 45.0792C19.936 44.9419 24.4676 43.6602 25.2916 43.5229C25.4289 43.4771 25.7951 45.9947 26.1155 49.0616ZM14.4888 45.8116C14.4888 46.1778 14.6719 46.7271 14.9008 47.0475C15.1296 47.4595 14.9923 47.963 14.4888 48.4208C13.8022 49.1532 13.7564 49.1074 13.8479 47.5968C13.9395 46.7271 13.8022 45.7201 13.6191 45.3539C13.3444 44.9419 13.3902 44.8046 13.8479 44.9419C14.2141 45.0792 14.4888 45.4454 14.4888 45.8116ZM17.7846 50.206C17.281 50.7553 17.0522 50.5722 16.5486 48.9701C15.9536 47.2306 15.9993 47.0475 17.0522 45.949L18.1507 44.7588L18.2881 47.1849C18.3796 48.787 18.2423 49.794 17.7846 50.206ZM13.3444 45.9947C13.3444 46.1321 13.2529 46.2236 13.1156 46.2236C12.9782 46.2236 12.8867 46.1321 12.8867 45.9947C12.8867 45.8574 12.9782 45.7659 13.1156 45.7659C13.2529 45.7659 13.3444 45.8574 13.3444 45.9947ZM19.8444 48.1461C19.4324 48.5581 19.2951 48.4666 19.2951 47.5968C19.2951 46.7271 19.4324 46.6356 19.8444 47.0475C20.2564 47.4595 20.2564 47.7342 19.8444 48.1461ZM22.4993 51.2588C22.4993 51.625 21.7669 52.5405 20.8972 53.2271L19.2951 54.5088L19.2951 52.3574C19.2951 50.9384 19.5698 49.8856 20.0733 49.3363C20.8514 48.4666 20.8972 48.4666 21.6754 49.5194C22.1331 50.1144 22.4993 50.8926 22.4993 51.2588ZM18.3796 51.8996C18.3796 52.2201 18.5169 53.1813 18.6543 53.9595C18.8831 55.0581 18.7916 55.3785 18.1965 55.3785C17.6472 55.3785 17.4641 54.9208 17.4641 53.3186C17.4641 52.1743 17.693 51.2588 17.9219 51.2588C18.1965 51.2588 18.3796 51.5334 18.3796 51.8996ZM13.8022 56.3398C13.8022 57.9876 13.6191 58.5827 13.2529 58.4912C12.612 58.2623 12.2001 55.2869 12.612 54.1426C13.1156 52.8609 13.8022 54.0968 13.8022 56.3398Z" fill="white"/>
<path d="M193.646 47.7114C190.881 49.5036 186.442 52.1316 183.811 53.5496C181.232 54.9643 178.754 56.3205 178.353 56.6068C177.949 56.8409 175.686 58.2884 173.321 59.7944C170.957 61.3004 167.635 63.3886 165.87 64.4391C164.105 65.4897 162.297 66.6997 161.903 67.0902C161.261 67.7051 161.053 67.718 160.809 67.1579C160.621 66.6467 160.311 66.7182 159.474 67.5544C158.539 68.5012 145.421 77.0527 142.786 78.4186C141.976 78.8348 141.79 79.2124 142.095 79.9255C142.521 80.8927 142.573 80.8894 143.6 79.7278C144.186 79.064 145.785 77.8668 147.198 77.0472C148.56 76.2308 151.628 74.2629 154.038 72.6495C158.252 69.774 160.362 69.225 159.436 71.1648C159.068 71.972 149.396 77.9047 143.921 80.7014C140.981 82.1908 141.602 82.9367 148.72 86.4176C151.796 87.9528 155.083 89.5271 156.004 90.0452C156.974 90.5081 162.364 93.1026 167.965 95.7362C173.622 98.4188 178.474 100.785 178.803 101.026C179.187 101.316 180.457 100.715 182.353 99.2376C184.004 98.0372 187.212 95.7992 189.576 94.2932C196.663 89.671 200.529 87.0785 208.157 81.8999C214.879 77.3003 228.381 69.0388 230.478 68.2814C231.09 68.0344 231.312 67.3931 231.218 65.8825C231.147 64.7365 231.226 63.4766 231.353 62.9981C231.526 62.4122 231.354 62.1614 230.729 62.2002C230.26 62.2292 227.617 60.9287 224.848 59.2701C222.133 57.6603 219.26 56.0081 218.452 55.6397C212.793 52.9051 199.156 45.4877 198.971 45.0285C198.847 44.7224 196.564 45.8574 193.646 47.7114ZM197.689 47.9839C197.77 49.2862 197.477 49.6181 195.145 50.8083C193.673 51.5269 189.326 53.9401 185.542 56.1615C179.028 59.9116 178.569 60.0969 178.501 59.0029C178.44 58.0132 179.893 56.982 187.911 52.1976C193.105 49.1045 197.391 46.5382 197.495 46.5318C197.544 46.4765 197.638 47.1504 197.689 47.9839ZM203.822 49.0682C206.849 50.6586 208.167 51.6751 208.32 52.45C208.544 53.5343 208.117 53.4038 203.694 51.2201C200.404 49.5937 198.767 48.4924 198.728 47.8673C198.696 47.3464 198.878 46.9167 199.087 46.9038C199.347 46.8877 201.446 47.8558 203.822 49.0682ZM203.664 52.4246C211.436 56.3357 211.869 56.5704 219.026 60.6764C222.821 62.8468 225.925 64.8507 225.941 65.1112C225.967 65.5279 213.507 73.7249 212.778 73.7701C212.569 73.783 209.856 75.5721 206.697 77.7548C203.541 79.9896 199.871 82.3608 198.503 83.073C195.211 84.7933 195.562 84.5624 187.603 90.2845C183.795 92.9779 180.278 95.2874 179.812 95.3685C179.343 95.3976 178.835 95.6382 178.692 95.8562C178.451 96.1849 169.445 91.775 167.799 90.5174C167.301 90.0777 166.767 89.9015 166.62 90.0675C166.474 90.2335 164.384 89.4216 161.956 88.2124C159.531 87.0553 157.38 86.0905 157.172 86.1034C156.963 86.1163 156.472 85.7807 156.082 85.3865C155.691 84.9924 155.095 84.6632 154.679 84.689C154.054 84.7278 146.926 81.0905 146.9 80.6738C146.897 80.6217 149.916 78.7091 153.596 76.4941C162.314 71.1957 175.113 63.3961 176.367 62.534C178.425 61.1516 198.082 50.1035 198.551 50.0745C198.811 50.0583 201.073 51.1209 203.664 52.4246ZM212.958 53.8884C214.152 54.5988 216.157 55.7296 217.456 56.4335C218.699 57.0886 219.744 57.9129 219.76 58.1733C219.776 58.4338 220.095 58.5186 220.502 58.3365C220.909 58.1544 222.305 58.7477 223.614 59.6079C224.974 60.4649 226.774 61.6607 227.643 62.1821C228.899 63.0456 229.078 63.4005 228.641 63.9505C228.152 64.5036 227.244 64.1939 224.146 62.2941C221.975 61.0167 219.857 59.736 219.372 59.5046C210.288 54.6812 208.98 53.821 209.332 52.7534C209.596 51.9527 209.704 51.9983 212.958 53.8884ZM177.492 59.5884C177.553 60.5781 176.801 61.0953 167.021 66.9824C163.595 69.0771 160.661 70.6706 160.547 70.5208C159.665 69.7911 161.404 68.3238 167.657 64.5899C171.487 62.2611 175.06 60.0005 175.607 59.5482C176.952 58.4714 177.424 58.4945 177.492 59.5884ZM229.623 66.295C229.206 67.1575 227.157 68.6963 223.676 70.7421C220.748 72.4398 216.97 74.7654 215.26 75.8649C212.398 77.7677 212.088 77.8392 212.03 76.9016C211.962 75.8076 212.363 75.5214 221.511 69.5688C225.179 67.1455 227.155 66.1341 228.002 66.2909C228.9 66.4444 229.151 66.272 229.106 65.5427C229.031 64.3446 229.66 63.5213 229.972 64.3386C230.151 64.6936 229.942 65.5432 229.623 66.295ZM211.021 77.487C211.085 78.5288 208.245 80.7963 200.81 85.7016C196.889 88.2452 196.788 88.3038 196.456 87.1739C196.134 86.2003 196.727 85.6407 201.254 82.7457C204.12 80.8949 207.283 78.7643 208.279 77.9705C210.527 76.2626 210.94 76.1847 211.021 77.487ZM149.37 83.3968C151.208 84.3811 155.573 86.4638 159.121 88.022C162.616 89.5834 165.848 91.1089 166.232 91.3988C166.89 91.881 167.377 93.8379 166.804 93.8734C166.179 93.9121 156.623 89.0656 155.683 88.2349C155.185 87.7952 154.645 87.5149 154.495 87.6287C154.153 88.0159 144.275 83.0326 143.969 82.3194C143.475 81.0951 146.066 81.5621 149.37 83.3968ZM194.661 89.429C193.466 90.392 180.318 99.3113 180.058 99.3275C179.953 99.3339 179.918 98.7609 179.98 98.0773C180.02 97.029 181.508 95.7341 187.576 91.5411C194.598 86.7138 195.102 86.4211 195.326 87.5053C195.528 88.2249 195.26 88.9735 194.661 89.429ZM173.712 94.8051C177.764 96.9073 178.805 97.6794 178.863 98.6171C178.934 99.7631 178.615 99.6782 173.544 97.1686C169.232 95.0826 168.142 94.3657 168.08 93.376C168.042 92.7509 168.166 92.2203 168.322 92.2106C168.478 92.201 170.903 93.3581 173.712 94.8051Z" fill="white"/>
<g filter="url(#filter10_d_939_5061)">
<path d="M189.323 57.286C188.694 58.1093 188.802 58.1549 189.928 57.7714C190.645 57.5178 191.989 57.2777 192.927 57.2196C193.812 57.1648 194.578 56.8559 194.562 56.5955C194.507 55.7099 190.043 56.2478 189.323 57.286Z" fill="#CE44FF"/>
</g>
<g filter="url(#filter11_d_939_5061)">
<path d="M195.174 57.9176C193.2 59.8178 193.529 60.0589 196.05 58.5432C198.518 57.0307 202.91 57.0202 205.198 58.4995C206.018 59.0762 206.815 59.2883 206.956 59.0182C207.611 57.7749 203.008 56.0729 199.57 56.2858C197.278 56.4278 196.461 56.7398 195.174 57.9176Z" fill="#CE44FF"/>
</g>
<g filter="url(#filter12_d_939_5061)">
<path d="M215.946 64.1617C215.145 64.7342 215.253 64.7798 217.453 64.8527C218.238 64.8564 219.605 64.9809 220.455 65.1897C221.884 65.4673 221.933 65.412 221.21 64.7246C220.156 63.7441 216.946 63.42 215.946 64.1617Z" fill="#CE44FF"/>
</g>
<g filter="url(#filter13_d_939_5061)">
<path d="M208.923 65.5911C206.592 66.7814 207.298 67.2082 210.613 66.6892C213.155 66.3749 214.256 66.4113 215.287 67.0272C216.749 67.8256 217.751 67.9727 217.709 67.2955C217.625 65.9411 210.851 64.6351 208.923 65.5911Z" fill="#CE44FF"/>
</g>
<g filter="url(#filter14_d_939_5061)">
<path d="M178.767 69.1315C177.129 69.7036 176.247 70.6472 176.852 71.1326C177.018 71.2792 177.48 71.146 177.825 70.8108C178.666 70.0267 181 69.7253 183.373 70.0489C185.063 70.3103 185.167 70.3039 184.389 69.5677C183.283 68.5904 180.812 68.3774 178.767 69.1315Z" fill="#CE44FF"/>
</g>
<g filter="url(#filter15_d_939_5061)">
<path d="M185.668 70.847C184.766 71.4781 184.033 72.3079 184.058 72.7246C184.116 73.6622 184.116 73.6622 186.107 72.0226C187.201 71.1181 188.474 70.5687 189.724 70.4912C190.87 70.4203 192.361 70.8508 193.608 71.558C195.723 72.7865 196.625 72.9922 196.576 72.2108C196.56 71.9503 195.415 71.1846 194.067 70.536C191.05 69.1018 187.97 69.188 185.668 70.847Z" fill="#CE44FF"/>
</g>
<g filter="url(#filter16_d_939_5061)">
<path d="M166.542 76.111C163.608 77.7045 164.21 78.1379 167.525 76.7822C170.791 75.4818 173.213 75.7501 175.741 77.7375C177.44 78.9918 177.655 79.0831 177.6 78.1975C177.516 76.8432 172.885 74.6723 170.54 74.8175C169.551 74.8788 167.757 75.4605 166.542 76.111Z" fill="#CE44FF"/>
</g>
<g filter="url(#filter17_d_939_5061)">
<path d="M157.21 79.9341C156.393 80.2461 155.797 80.7537 155.816 81.0662C155.836 81.3788 156.204 81.4083 156.764 81.1644C158.688 80.1563 163.377 79.8659 165.095 80.5961C167.028 81.4176 167.344 81.4504 167.305 80.8253C167.202 79.1584 160.314 78.5392 157.21 79.9341Z" fill="#CE44FF"/>
</g>
<g filter="url(#filter18_d_939_5061)">
<path d="M175.685 82.7089C173.634 83.3588 175.03 83.9521 178.208 83.7553C181.437 83.5553 182.548 82.9113 180.683 82.3471C179.775 82.0373 177.069 82.2571 175.685 82.7089Z" fill="#CE44FF"/>
</g>
<g filter="url(#filter19_d_939_5061)">
<path d="M183.92 83.1924C182.054 84.3015 181.367 85.0238 181.862 85.4115C182.031 85.6102 182.845 85.2461 183.594 84.6767C185.594 83.1933 187.463 82.973 189.676 84.0909C191.938 85.1535 192.149 85.1927 192.104 84.4634C192.062 83.7863 187.935 82.1594 186.473 82.1976C185.9 82.2331 184.777 82.6687 183.92 83.1924Z" fill="#CE44FF"/>
</g>
<path d="M101.666 81.2426C98.9007 83.0349 94.4619 85.6629 91.8306 87.0808C89.2513 88.4956 86.7731 89.8517 86.3725 90.138C85.9687 90.3722 83.7052 91.8196 81.3408 93.3256C78.9764 94.8316 75.6545 96.9198 73.8894 97.9704C72.1243 99.0209 70.3167 100.231 69.9226 100.621C69.2809 101.236 69.0725 101.249 68.8287 100.689C68.6402 100.178 68.3308 100.249 67.4937 101.086C66.5588 102.032 53.4405 110.584 50.8059 111.95C49.9951 112.366 49.8093 112.744 50.1149 113.457C50.5408 114.424 50.5929 114.421 51.6191 113.259C52.2055 112.595 53.8046 111.398 55.218 110.578C56.5793 109.762 59.6472 107.794 62.0572 106.181C66.2716 103.305 68.3815 102.756 67.4558 104.696C67.0875 105.503 57.4151 111.436 51.9408 114.233C49.0002 115.722 49.6216 116.468 56.7396 119.949C59.8152 121.484 63.1025 123.058 64.0235 123.576C64.9934 124.039 70.3832 126.634 75.9846 129.267C81.6413 131.95 86.494 134.316 86.8227 134.557C87.2067 134.847 88.4767 134.246 90.3723 132.769C92.0235 131.568 95.2315 129.33 97.5959 127.824C104.683 123.202 108.549 120.61 116.176 115.431C122.898 110.832 136.4 102.57 138.498 101.813C139.11 101.566 139.331 100.924 139.238 99.4137C139.167 98.2677 139.246 97.0079 139.373 96.5294C139.546 95.9435 139.373 95.6927 138.748 95.7314C138.28 95.7604 135.637 94.46 132.867 92.8013C130.153 91.1915 127.279 89.5393 126.472 89.171C120.812 86.4363 107.175 79.0189 106.99 78.5598C106.867 78.2537 104.584 79.3886 101.666 81.2426ZM105.709 81.5151C105.79 82.8174 105.496 83.1493 103.165 84.3395C101.693 85.0582 97.3453 87.4714 93.5611 89.6928C87.0478 93.4428 86.5886 93.6281 86.5209 92.5342C86.4596 91.5445 87.9122 90.5133 95.9301 85.7288C101.125 82.6357 105.41 80.0695 105.514 80.063C105.563 80.0077 105.657 80.6817 105.709 81.5151ZM111.842 82.5995C114.869 84.1899 116.187 85.2064 116.339 85.9813C116.563 87.0655 116.137 86.9351 111.714 84.7513C108.423 83.1249 106.786 82.0236 106.748 81.3985C106.715 80.8776 106.898 80.448 107.106 80.4351C107.367 80.4189 109.466 81.387 111.842 82.5995ZM111.684 85.9559C119.456 89.867 119.889 90.1016 127.045 94.2077C130.84 96.378 133.945 98.382 133.961 98.6424C133.987 99.0592 121.526 107.256 120.797 107.301C120.589 107.314 117.876 109.103 114.717 111.286C111.561 113.521 107.89 115.892 106.523 116.604C103.23 118.325 103.582 118.094 95.6221 123.816C91.8148 126.509 88.2974 128.819 87.8318 128.9C87.363 128.929 86.855 129.169 86.7117 129.387C86.4706 129.716 77.4649 125.306 75.8182 124.049C75.3204 123.609 74.7866 123.433 74.64 123.599C74.4934 123.765 72.4038 122.953 69.9758 121.744C67.551 120.587 65.3996 119.622 65.1913 119.635C64.9829 119.648 64.4915 119.312 64.101 118.918C63.7106 118.524 63.115 118.194 62.6983 118.22C62.0732 118.259 54.9455 114.622 54.9197 114.205C54.9165 114.153 57.9355 112.24 61.6155 110.025C70.3337 104.727 83.1326 96.9273 84.3865 96.0653C86.4448 94.6828 106.102 83.6347 106.571 83.6057C106.831 83.5896 109.093 84.6522 111.684 85.9559ZM120.978 87.4196C122.172 88.13 124.177 89.2608 125.475 89.9648C126.719 90.6199 127.763 91.4441 127.779 91.7046C127.795 91.965 128.114 92.0498 128.522 91.8678C128.929 91.6857 130.325 92.279 131.633 93.1392C132.993 93.9962 134.793 95.192 135.662 95.7134C136.918 96.5768 137.097 96.9318 136.661 97.4817C136.172 98.0349 135.264 97.7251 132.166 95.8253C129.995 94.5479 127.876 93.2673 127.391 93.0359C118.308 88.2125 116.999 87.3523 117.352 86.2846C117.616 85.4839 117.723 85.5295 120.978 87.4196ZM85.5113 93.1196C85.5726 94.1094 84.8203 94.6266 75.0404 100.514C71.6144 102.608 68.6802 104.202 68.5663 104.052C67.6845 103.322 69.4238 101.855 75.6766 98.1212C79.5065 95.7923 83.0792 93.5317 83.6264 93.0795C84.9715 92.0027 85.4436 92.0257 85.5113 93.1196ZM137.642 99.8263C137.225 100.689 135.177 102.228 131.695 104.273C128.767 105.971 124.99 108.297 123.28 109.396C120.417 111.299 120.108 111.37 120.05 110.433C119.982 109.339 120.383 109.053 129.531 103.1C133.198 100.677 135.175 99.6654 136.021 99.8221C136.92 99.9756 137.17 99.8032 137.125 99.074C137.051 97.8759 137.68 97.0526 137.992 97.8699C138.171 98.2249 137.962 99.0744 137.642 99.8263ZM119.04 111.018C119.105 112.06 116.265 114.328 108.829 119.233C104.908 121.776 104.807 121.835 104.476 120.705C104.154 119.732 104.747 119.172 109.274 116.277C112.14 114.426 115.302 112.296 116.299 111.502C118.546 109.794 118.96 109.716 119.04 111.018ZM57.3892 116.928C59.228 117.912 63.5926 119.995 67.1403 121.553C70.6359 123.115 73.8678 124.64 74.2518 124.93C74.9092 125.412 75.3964 127.369 74.8234 127.405C74.1983 127.443 64.6426 122.597 63.7023 121.766C63.2044 121.326 62.6641 121.046 62.5143 121.16C62.1723 121.547 52.2944 116.564 51.9888 115.851C51.4946 114.626 54.0858 115.093 57.3892 116.928ZM102.681 122.96C101.485 123.923 88.3375 132.843 88.077 132.859C87.9729 132.865 87.9374 132.292 87.9996 131.609C88.0393 130.56 89.5278 129.265 95.5953 125.072C102.617 120.245 103.122 119.952 103.346 121.037C103.547 121.756 103.28 122.505 102.681 122.96ZM81.7312 128.336C85.7832 130.439 86.8246 131.211 86.8826 132.148C86.9536 133.294 86.6346 133.209 81.5638 130.7C77.2514 128.614 76.1612 127.897 76.0999 126.907C76.0611 126.282 76.1852 125.752 76.3414 125.742C76.4977 125.732 78.9225 126.889 81.7312 128.336Z" fill="white"/>
<path d="M97.3425 90.8172C96.7137 91.6405 96.8211 91.6862 97.9478 91.3026C98.6641 91.0491 100.009 90.8089 100.946 90.7509C101.832 90.696 102.597 90.3872 102.581 90.1267C102.526 89.2412 98.0626 89.7791 97.3425 90.8172Z" fill="#CE44FF"/>
<path d="M103.194 91.4489C101.22 93.349 101.548 93.5901 104.069 92.0744C106.538 90.562 110.93 90.5515 113.217 92.0308C114.037 92.6075 114.835 92.8196 114.975 92.5494C115.63 91.3062 111.028 89.6041 107.59 89.8171C105.298 89.959 104.48 90.2711 103.194 91.4489Z" fill="#CE44FF"/>
<path d="M123.966 97.6929C123.165 98.2655 123.272 98.3111 125.473 98.384C126.257 98.3877 127.625 98.5122 128.474 98.721C129.903 98.9985 129.952 98.9432 129.23 98.2559C128.176 97.2753 124.966 96.9512 123.966 97.6929Z" fill="#CE44FF"/>
<path d="M116.943 99.1224C114.611 100.313 115.318 100.739 118.632 100.22C121.175 99.9061 122.275 99.9425 123.307 100.558C124.768 101.357 125.771 101.504 125.729 100.827C125.645 99.4724 118.871 98.1663 116.943 99.1224Z" fill="#CE44FF"/>
<path d="M86.7868 102.663C85.1489 103.235 84.2661 104.178 84.8714 104.664C85.0373 104.81 85.4997 104.677 85.845 104.342C86.6853 103.558 89.0198 103.257 91.3929 103.58C93.0824 103.842 93.1866 103.835 92.4089 103.099C91.3026 102.122 88.8317 101.909 86.7868 102.663Z" fill="#CE44FF"/>
<path d="M93.6872 104.378C92.7851 105.009 92.0521 105.839 92.0779 106.256C92.136 107.193 92.136 107.193 94.1261 105.554C95.2205 104.649 96.4937 104.1 97.7439 104.022C98.8899 103.952 100.381 104.382 101.627 105.089C103.743 106.318 104.644 106.523 104.596 105.742C104.58 105.482 103.434 104.716 102.087 104.067C99.0697 102.633 95.9899 102.719 93.6872 104.378Z" fill="#CE44FF"/>
<path d="M74.5614 109.642C71.6273 111.236 72.2293 111.669 75.5442 110.313C78.8103 109.013 81.2323 109.281 83.7608 111.269C85.4595 112.523 85.6743 112.614 85.6195 111.729C85.5356 110.374 80.9041 108.204 78.56 108.349C77.5703 108.41 75.7761 108.992 74.5614 109.642Z" fill="#CE44FF"/>
<path d="M65.23 113.465C64.4126 113.777 63.8166 114.285 63.8359 114.597C63.8553 114.91 64.2232 114.94 64.7833 114.696C66.7079 113.688 71.3961 113.397 73.1146 114.127C75.048 114.949 75.3637 114.982 75.325 114.357C75.2218 112.69 68.3333 112.07 65.23 113.465Z" fill="#CE44FF"/>
<path d="M83.7047 116.24C81.6533 116.89 83.0496 117.483 86.2272 117.287C89.4568 117.087 90.5674 116.443 88.7022 115.878C87.7941 115.569 85.0886 115.788 83.7047 116.24Z" fill="#CE44FF"/>
<path d="M91.94 116.724C90.0739 117.833 89.3866 118.555 89.8812 118.943C90.0504 119.141 90.8645 118.777 91.6136 118.208C93.6134 116.725 95.4822 116.504 97.6954 117.622C99.9574 118.685 100.169 118.724 100.124 117.995C100.082 117.318 95.9547 115.691 94.4929 115.729C93.9199 115.764 92.7965 116.2 91.94 116.724Z" fill="#CE44FF"/>
<defs>
<filter id="filter0_d_939_5061" x="156.013" y="14.7227" width="14.1179" height="10.3522" filterUnits="userSpaceOnUse" color-interpolation-filters="sRGB">
<feFlood flood-opacity="0" result="BackgroundImageFix"/>
<feColorMatrix in="SourceAlpha" type="matrix" values="0 0 0 0 0 0 0 0 0 0 0 0 0 0 0 0 0 0 127 0" result="hardAlpha"/>
<feOffset dy="4.24838"/>
<feGaussianBlur stdDeviation="2.12419"/>
<feComposite in2="hardAlpha" operator="out"/>
<feColorMatrix type="matrix" values="0 0 0 0 0 0 0 0 0 0 0 0 0 0 0 0 0 0 0.25 0"/>
<feBlend mode="normal" in2="BackgroundImageFix" result="effect1_dropShadow_939_5061"/>
<feBlend mode="normal" in="SourceGraphic" in2="effect1_dropShadow_939_5061" result="shape"/>
</filter>
<filter id="filter1_d_939_5061" x="160.963" y="14.8477" width="21.6218" height="11.7585" filterUnits="userSpaceOnUse" color-interpolation-filters="sRGB">
<feFlood flood-opacity="0" result="BackgroundImageFix"/>
<feColorMatrix in="SourceAlpha" type="matrix" values="0 0 0 0 0 0 0 0 0 0 0 0 0 0 0 0 0 0 127 0" result="hardAlpha"/>
<feOffset dy="4.24838"/>
<feGaussianBlur stdDeviation="2.12419"/>
<feComposite in2="hardAlpha" operator="out"/>
<feColorMatrix type="matrix" values="0 0 0 0 0 0 0 0 0 0 0 0 0 0 0 0 0 0 0.25 0"/>
<feBlend mode="normal" in2="BackgroundImageFix" result="effect1_dropShadow_939_5061"/>
<feBlend mode="normal" in="SourceGraphic" in2="effect1_dropShadow_939_5061" result="shape"/>
</filter>
<filter id="filter2_d_939_5061" x="182.564" y="22.3242" width="14.6764" height="10.0905" filterUnits="userSpaceOnUse" color-interpolation-filters="sRGB">
<feFlood flood-opacity="0" result="BackgroundImageFix"/>
<feColorMatrix in="SourceAlpha" type="matrix" values="0 0 0 0 0 0 0 0 0 0 0 0 0 0 0 0 0 0 127 0" result="hardAlpha"/>
<feOffset dy="4.24838"/>
<feGaussianBlur stdDeviation="2.12419"/>
<feComposite in2="hardAlpha" operator="out"/>
<feColorMatrix type="matrix" values="0 0 0 0 0 0 0 0 0 0 0 0 0 0 0 0 0 0 0.25 0"/>
<feBlend mode="normal" in2="BackgroundImageFix" result="effect1_dropShadow_939_5061"/>
<feBlend mode="normal" in="SourceGraphic" in2="effect1_dropShadow_939_5061" result="shape"/>
</filter>
<filter id="filter3_d_939_5061" x="174.627" y="23.832" width="18.653" height="10.9616" filterUnits="userSpaceOnUse" color-interpolation-filters="sRGB">
<feFlood flood-opacity="0" result="BackgroundImageFix"/>
<feColorMatrix in="SourceAlpha" type="matrix" values="0 0 0 0 0 0 0 0 0 0 0 0 0 0 0 0 0 0 127 0" result="hardAlpha"/>
<feOffset dy="4.24838"/>
<feGaussianBlur stdDeviation="2.12419"/>
<feComposite in2="hardAlpha" operator="out"/>
<feColorMatrix type="matrix" values="0 0 0 0 0 0 0 0 0 0 0 0 0 0 0 0 0 0 0.25 0"/>
<feBlend mode="normal" in2="BackgroundImageFix" result="effect1_dropShadow_939_5061"/>
<feBlend mode="normal" in="SourceGraphic" in2="effect1_dropShadow_939_5061" result="shape"/>
</filter>
<filter id="filter4_d_939_5061" x="143.724" y="27.25" width="16.6921" height="11.0124" filterUnits="userSpaceOnUse" color-interpolation-filters="sRGB">
<feFlood flood-opacity="0" result="BackgroundImageFix"/>
<feColorMatrix in="SourceAlpha" type="matrix" values="0 0 0 0 0 0 0 0 0 0 0 0 0 0 0 0 0 0 127 0" result="hardAlpha"/>
<feOffset dy="4.24838"/>
<feGaussianBlur stdDeviation="2.12419"/>
<feComposite in2="hardAlpha" operator="out"/>
<feColorMatrix type="matrix" values="0 0 0 0 0 0 0 0 0 0 0 0 0 0 0 0 0 0 0.25 0"/>
<feBlend mode="normal" in2="BackgroundImageFix" result="effect1_dropShadow_939_5061"/>
<feBlend mode="normal" in="SourceGraphic" in2="effect1_dropShadow_939_5061" result="shape"/>
</filter>
<filter id="filter5_d_939_5061" x="151.134" y="28.1016" width="21.0163" height="12.3288" filterUnits="userSpaceOnUse" color-interpolation-filters="sRGB">
<feFlood flood-opacity="0" result="BackgroundImageFix"/>
<feColorMatrix in="SourceAlpha" type="matrix" values="0 0 0 0 0 0 0 0 0 0 0 0 0 0 0 0 0 0 127 0" result="hardAlpha"/>
<feOffset dy="4.24838"/>
<feGaussianBlur stdDeviation="2.12419"/>
<feComposite in2="hardAlpha" operator="out"/>
<feColorMatrix type="matrix" values="0 0 0 0 0 0 0 0 0 0 0 0 0 0 0 0 0 0 0.25 0"/>
<feBlend mode="normal" in2="BackgroundImageFix" result="effect1_dropShadow_939_5061"/>
<feBlend mode="normal" in="SourceGraphic" in2="effect1_dropShadow_939_5061" result="shape"/>
</filter>
<filter id="filter6_d_939_5061" x="131.716" y="33.3906" width="21.4499" height="12.4694" filterUnits="userSpaceOnUse" color-interpolation-filters="sRGB">
<feFlood flood-opacity="0" result="BackgroundImageFix"/>
<feColorMatrix in="SourceAlpha" type="matrix" values="0 0 0 0 0 0 0 0 0 0 0 0 0 0 0 0 0 0 127 0" result="hardAlpha"/>
<feOffset dy="4.24838"/>
<feGaussianBlur stdDeviation="2.12419"/>
<feComposite in2="hardAlpha" operator="out"/>
<feColorMatrix type="matrix" values="0 0 0 0 0 0 0 0 0 0 0 0 0 0 0 0 0 0 0.25 0"/>
<feBlend mode="normal" in2="BackgroundImageFix" result="effect1_dropShadow_939_5061"/>
<feBlend mode="normal" in="SourceGraphic" in2="effect1_dropShadow_939_5061" result="shape"/>
</filter>
<filter id="filter7_d_939_5061" x="122.888" y="37.7383" width="19.9889" height="10.6608" filterUnits="userSpaceOnUse" color-interpolation-filters="sRGB">
<feFlood flood-opacity="0" result="BackgroundImageFix"/>
<feColorMatrix in="SourceAlpha" type="matrix" values="0 0 0 0 0 0 0 0 0 0 0 0 0 0 0 0 0 0 127 0" result="hardAlpha"/>
<feOffset dy="4.24838"/>
<feGaussianBlur stdDeviation="2.12419"/>
<feComposite in2="hardAlpha" operator="out"/>
<feColorMatrix type="matrix" values="0 0 0 0 0 0 0 0 0 0 0 0 0 0 0 0 0 0 0.25 0"/>
<feBlend mode="normal" in2="BackgroundImageFix" result="effect1_dropShadow_939_5061"/>
<feBlend mode="normal" in="SourceGraphic" in2="effect1_dropShadow_939_5061" result="shape"/>
</filter>
<filter id="filter8_d_939_5061" x="141.787" y="40.7773" width="15.3639" height="10.0866" filterUnits="userSpaceOnUse" color-interpolation-filters="sRGB">
<feFlood flood-opacity="0" result="BackgroundImageFix"/>
<feColorMatrix in="SourceAlpha" type="matrix" values="0 0 0 0 0 0 0 0 0 0 0 0 0 0 0 0 0 0 127 0" result="hardAlpha"/>
<feOffset dy="4.24838"/>
<feGaussianBlur stdDeviation="2.12419"/>
<feComposite in2="hardAlpha" operator="out"/>
<feColorMatrix type="matrix" values="0 0 0 0 0 0 0 0 0 0 0 0 0 0 0 0 0 0 0.25 0"/>
<feBlend mode="normal" in2="BackgroundImageFix" result="effect1_dropShadow_939_5061"/>
<feBlend mode="normal" in="SourceGraphic" in2="effect1_dropShadow_939_5061" result="shape"/>
</filter>
<filter id="filter9_d_939_5061" x="148.779" y="40.7734" width="18.8991" height="11.7663" filterUnits="userSpaceOnUse" color-interpolation-filters="sRGB">
<feFlood flood-opacity="0" result="BackgroundImageFix"/>
<feColorMatrix in="SourceAlpha" type="matrix" values="0 0 0 0 0 0 0 0 0 0 0 0 0 0 0 0 0 0 127 0" result="hardAlpha"/>
<feOffset dy="4.24838"/>
<feGaussianBlur stdDeviation="2.12419"/>
<feComposite in2="hardAlpha" operator="out"/>
<feColorMatrix type="matrix" values="0 0 0 0 0 0 0 0 0 0 0 0 0 0 0 0 0 0 0.25 0"/>
<feBlend mode="normal" in2="BackgroundImageFix" result="effect1_dropShadow_939_5061"/>
<feBlend mode="normal" in="SourceGraphic" in2="effect1_dropShadow_939_5061" result="shape"/>
</filter>
<filter id="filter10_d_939_5061" x="184.693" y="56.1484" width="14.1179" height="10.3522" filterUnits="userSpaceOnUse" color-interpolation-filters="sRGB">
<feFlood flood-opacity="0" result="BackgroundImageFix"/>
<feColorMatrix in="SourceAlpha" type="matrix" values="0 0 0 0 0 0 0 0 0 0 0 0 0 0 0 0 0 0 127 0" result="hardAlpha"/>
<feOffset dy="4.24838"/>
<feGaussianBlur stdDeviation="2.12419"/>
<feComposite in2="hardAlpha" operator="out"/>
<feColorMatrix type="matrix" values="0 0 0 0 0 0 0 0 0 0 0 0 0 0 0 0 0 0 0.25 0"/>
<feBlend mode="normal" in2="BackgroundImageFix" result="effect1_dropShadow_939_5061"/>
<feBlend mode="normal" in="SourceGraphic" in2="effect1_dropShadow_939_5061" result="shape"/>
</filter>
<filter id="filter11_d_939_5061" x="189.646" y="56.2695" width="21.6218" height="11.7585" filterUnits="userSpaceOnUse" color-interpolation-filters="sRGB">
<feFlood flood-opacity="0" result="BackgroundImageFix"/>
<feColorMatrix in="SourceAlpha" type="matrix" values="0 0 0 0 0 0 0 0 0 0 0 0 0 0 0 0 0 0 127 0" result="hardAlpha"/>
<feOffset dy="4.24838"/>
<feGaussianBlur stdDeviation="2.12419"/>
<feComposite in2="hardAlpha" operator="out"/>
<feColorMatrix type="matrix" values="0 0 0 0 0 0 0 0 0 0 0 0 0 0 0 0 0 0 0.25 0"/>
<feBlend mode="normal" in2="BackgroundImageFix" result="effect1_dropShadow_939_5061"/>
<feBlend mode="normal" in="SourceGraphic" in2="effect1_dropShadow_939_5061" result="shape"/>
</filter>
<filter id="filter12_d_939_5061" x="211.24" y="63.7539" width="14.6764" height="10.0905" filterUnits="userSpaceOnUse" color-interpolation-filters="sRGB">
<feFlood flood-opacity="0" result="BackgroundImageFix"/>
<feColorMatrix in="SourceAlpha" type="matrix" values="0 0 0 0 0 0 0 0 0 0 0 0 0 0 0 0 0 0 127 0" result="hardAlpha"/>
<feOffset dy="4.24838"/>
<feGaussianBlur stdDeviation="2.12419"/>
<feComposite in2="hardAlpha" operator="out"/>
<feColorMatrix type="matrix" values="0 0 0 0 0 0 0 0 0 0 0 0 0 0 0 0 0 0 0.25 0"/>
<feBlend mode="normal" in2="BackgroundImageFix" result="effect1_dropShadow_939_5061"/>
<feBlend mode="normal" in="SourceGraphic" in2="effect1_dropShadow_939_5061" result="shape"/>
</filter>
<filter id="filter13_d_939_5061" x="203.306" y="65.2617" width="18.653" height="10.9616" filterUnits="userSpaceOnUse" color-interpolation-filters="sRGB">
<feFlood flood-opacity="0" result="BackgroundImageFix"/>
<feColorMatrix in="SourceAlpha" type="matrix" values="0 0 0 0 0 0 0 0 0 0 0 0 0 0 0 0 0 0 127 0" result="hardAlpha"/>
<feOffset dy="4.24838"/>
<feGaussianBlur stdDeviation="2.12419"/>
<feComposite in2="hardAlpha" operator="out"/>
<feColorMatrix type="matrix" values="0 0 0 0 0 0 0 0 0 0 0 0 0 0 0 0 0 0 0.25 0"/>
<feBlend mode="normal" in2="BackgroundImageFix" result="effect1_dropShadow_939_5061"/>
<feBlend mode="normal" in="SourceGraphic" in2="effect1_dropShadow_939_5061" result="shape"/>
</filter>
<filter id="filter14_d_939_5061" x="172.412" y="68.6758" width="16.6921" height="11.0124" filterUnits="userSpaceOnUse" color-interpolation-filters="sRGB">
<feFlood flood-opacity="0" result="BackgroundImageFix"/>
<feColorMatrix in="SourceAlpha" type="matrix" values="0 0 0 0 0 0 0 0 0 0 0 0 0 0 0 0 0 0 127 0" result="hardAlpha"/>
<feOffset dy="4.24838"/>
<feGaussianBlur stdDeviation="2.12419"/>
<feComposite in2="hardAlpha" operator="out"/>
<feColorMatrix type="matrix" values="0 0 0 0 0 0 0 0 0 0 0 0 0 0 0 0 0 0 0.25 0"/>
<feBlend mode="normal" in2="BackgroundImageFix" result="effect1_dropShadow_939_5061"/>
<feBlend mode="normal" in="SourceGraphic" in2="effect1_dropShadow_939_5061" result="shape"/>
</filter>
<filter id="filter15_d_939_5061" x="179.81" y="69.5273" width="21.0163" height="12.3288" filterUnits="userSpaceOnUse" color-interpolation-filters="sRGB">
<feFlood flood-opacity="0" result="BackgroundImageFix"/>
<feColorMatrix in="SourceAlpha" type="matrix" values="0 0 0 0 0 0 0 0 0 0 0 0 0 0 0 0 0 0 127 0" result="hardAlpha"/>
<feOffset dy="4.24838"/>
<feGaussianBlur stdDeviation="2.12419"/>
<feComposite in2="hardAlpha" operator="out"/>
<feColorMatrix type="matrix" values="0 0 0 0 0 0 0 0 0 0 0 0 0 0 0 0 0 0 0.25 0"/>
<feBlend mode="normal" in2="BackgroundImageFix" result="effect1_dropShadow_939_5061"/>
<feBlend mode="normal" in="SourceGraphic" in2="effect1_dropShadow_939_5061" result="shape"/>
</filter>
<filter id="filter16_d_939_5061" x="160.404" y="74.8125" width="21.4499" height="12.4694" filterUnits="userSpaceOnUse" color-interpolation-filters="sRGB">
<feFlood flood-opacity="0" result="BackgroundImageFix"/>
<feColorMatrix in="SourceAlpha" type="matrix" values="0 0 0 0 0 0 0 0 0 0 0 0 0 0 0 0 0 0 127 0" result="hardAlpha"/>
<feOffset dy="4.24838"/>
<feGaussianBlur stdDeviation="2.12419"/>
<feComposite in2="hardAlpha" operator="out"/>
<feColorMatrix type="matrix" values="0 0 0 0 0 0 0 0 0 0 0 0 0 0 0 0 0 0 0.25 0"/>
<feBlend mode="normal" in2="BackgroundImageFix" result="effect1_dropShadow_939_5061"/>
<feBlend mode="normal" in="SourceGraphic" in2="effect1_dropShadow_939_5061" result="shape"/>
</filter>
<filter id="filter17_d_939_5061" x="151.568" y="79.1641" width="19.9889" height="10.6608" filterUnits="userSpaceOnUse" color-interpolation-filters="sRGB">
<feFlood flood-opacity="0" result="BackgroundImageFix"/>
<feColorMatrix in="SourceAlpha" type="matrix" values="0 0 0 0 0 0 0 0 0 0 0 0 0 0 0 0 0 0 127 0" result="hardAlpha"/>
<feOffset dy="4.24838"/>
<feGaussianBlur stdDeviation="2.12419"/>
<feComposite in2="hardAlpha" operator="out"/>
<feColorMatrix type="matrix" values="0 0 0 0 0 0 0 0 0 0 0 0 0 0 0 0 0 0 0.25 0"/>
<feBlend mode="normal" in2="BackgroundImageFix" result="effect1_dropShadow_939_5061"/>
<feBlend mode="normal" in="SourceGraphic" in2="effect1_dropShadow_939_5061" result="shape"/>
</filter>
<filter id="filter18_d_939_5061" x="170.47" y="82.2031" width="15.3639" height="10.0866" filterUnits="userSpaceOnUse" color-interpolation-filters="sRGB">
<feFlood flood-opacity="0" result="BackgroundImageFix"/>
<feColorMatrix in="SourceAlpha" type="matrix" values="0 0 0 0 0 0 0 0 0 0 0 0 0 0 0 0 0 0 127 0" result="hardAlpha"/>
<feOffset dy="4.24838"/>
<feGaussianBlur stdDeviation="2.12419"/>
<feComposite in2="hardAlpha" operator="out"/>
<feColorMatrix type="matrix" values="0 0 0 0 0 0 0 0 0 0 0 0 0 0 0 0 0 0 0.25 0"/>
<feBlend mode="normal" in2="BackgroundImageFix" result="effect1_dropShadow_939_5061"/>
<feBlend mode="normal" in="SourceGraphic" in2="effect1_dropShadow_939_5061" result="shape"/>
</filter>
<filter id="filter19_d_939_5061" x="177.459" y="82.1953" width="18.8991" height="11.7663" filterUnits="userSpaceOnUse" color-interpolation-filters="sRGB">
<feFlood flood-opacity="0" result="BackgroundImageFix"/>
<feColorMatrix in="SourceAlpha" type="matrix" values="0 0 0 0 0 0 0 0 0 0 0 0 0 0 0 0 0 0 127 0" result="hardAlpha"/>
<feOffset dy="4.24838"/>
<feGaussianBlur stdDeviation="2.12419"/>
<feComposite in2="hardAlpha" operator="out"/>
<feColorMatrix type="matrix" values="0 0 0 0 0 0 0 0 0 0 0 0 0 0 0 0 0 0 0.25 0"/>
<feBlend mode="normal" in2="BackgroundImageFix" result="effect1_dropShadow_939_5061"/>
<feBlend mode="normal" in="SourceGraphic" in2="effect1_dropShadow_939_5061" result="shape"/>
</filter>
</defs>
</svg>
