<svg width="100%" height="100%" viewBox="0 0 241 178" fill="none" xmlns="http://www.w3.org/2000/svg">
<path d="M112.119 6.16463L105.684 12.2377L106.227 17.6762L106.771 23.0241L120.368 31.2726C146.11 46.7724 163.151 56.1992 165.508 56.1992C167.411 56.1992 186.174 47.3163 188.078 45.4128C188.44 45.1408 188.893 43.1467 189.165 41.2432C189.347 39.2491 189.8 36.8924 190.162 35.986C190.525 35.0795 190.706 34.2638 190.525 34.0825C188.893 32.8135 140.943 5.98335 137.136 4.26114C132.695 2.26701 123.268 -0.089695 119.824 0.00094986C119.099 0.0915909 115.654 2.81086 112.119 6.16463ZM130.338 7.61491C151.458 18.9452 171.218 29.8223 172.85 31.0006C174.481 32.179 174.391 32.5416 170.221 38.7959C167.864 42.4216 165.598 45.3221 165.326 45.3221C164.964 45.3221 163.876 44.7783 162.97 44.0531C161.973 43.328 156.262 40.1555 150.28 36.983C144.297 33.8106 133.511 27.5562 126.35 23.2054C119.189 18.7639 112.119 14.7757 110.669 14.3224C109.309 13.7786 108.131 13.1441 108.131 12.8722C108.131 12.147 119.371 1.8138 119.914 2.08572C120.186 2.17636 124.9 4.71435 130.338 7.61491ZM140.943 7.88684C143.572 9.33711 152.092 14.1412 159.797 18.5826C167.502 22.9335 175.931 27.7375 178.379 29.0972C182.367 31.3632 182.639 31.7258 180.464 31.7258C179.013 31.7258 169.224 26.8311 156.534 19.8516C144.66 13.3254 133.148 7.07105 131.063 6.07399C128.979 5.07692 127.438 3.89857 127.71 3.536C128.344 2.53894 135.324 4.805 140.943 7.88684ZM111.938 16.8604C113.569 17.6762 120.73 21.9364 127.982 26.1966C135.324 30.5474 146.654 37.0737 153.271 40.6994C159.888 44.3251 165.598 47.8601 165.87 48.5853C166.142 49.3104 166.051 50.942 165.779 52.211C165.326 53.9332 164.782 54.3864 163.604 53.9332C160.794 52.9361 131.335 36.0766 119.733 28.8252C108.494 21.8458 108.131 21.5738 108.131 18.492C108.131 14.9569 108.222 14.9569 111.938 16.8604ZM184.905 34.6263C187.806 35.4421 187.896 35.6234 187.352 39.2491C186.627 44.4157 186.355 45.3221 185.086 45.3221C184.452 45.3221 184.271 44.4157 184.452 43.1467C185.268 38.7959 183.999 38.524 177.11 41.6964L170.674 44.6876V48.4946C170.674 50.67 170.13 52.8455 169.405 53.3893C168.317 54.2957 168.046 53.8425 167.502 50.7607C166.958 47.3163 167.23 46.5005 170.765 41.4245C177.382 31.7258 176.657 32.0883 184.905 34.6263ZM182.639 44.1438C181.823 48.4946 178.832 49.4917 178.832 45.5034C178.832 42.5122 179.466 41.6964 181.551 41.6964C182.73 41.6964 183.002 42.2403 182.639 44.1438ZM177.019 46.5005C177.019 48.8572 176.475 49.7636 174.753 50.5794C172.578 51.5765 172.487 51.4858 172.487 48.4946C172.487 46.5005 173.031 45.0502 174.119 44.5064C176.566 43.0561 177.019 43.328 177.019 46.5005Z" fill="white"/>
<path d="M123.091 9.61545C117.833 12.2441 117.561 13.1505 121.278 15.4166C123.091 16.5043 124.631 17.3201 124.813 17.1388C126.172 15.5978 128.076 10.4312 127.713 9.43417C127.079 7.8026 126.444 7.8026 123.091 9.61545ZM126.263 11.7909C126.263 12.9692 125.629 13.6037 124.631 13.6037C122.093 13.6037 121.55 12.6066 123.362 11.247C125.538 9.52481 126.263 9.70609 126.263 11.7909Z" fill="#FFB84D"/>
<path d="M140.311 17.4058C134.781 19.3093 132.878 22.663 136.141 24.4759C138.951 25.9262 139.585 25.6542 142.033 21.2128C145.205 15.5929 145.205 15.6836 140.311 17.4058ZM139.495 21.394C136.775 23.2975 135.506 22.8443 137.954 20.7595C139.132 19.7625 140.401 19.2186 140.673 19.5812C140.945 19.8531 140.401 20.6689 139.495 21.394Z" fill="#FFB84D"/>
<path d="M153.006 26.6588C149.561 28.1091 147.567 30.4658 148.927 31.2816C149.471 31.6442 150.558 31.3722 151.284 30.7378C152.371 29.8313 152.462 29.922 152.009 31.191C151.193 33.2757 154.094 34.0915 156.088 32.2787C157.085 31.3722 157.991 29.5594 158.172 28.0185C158.626 25.0273 157.447 24.6647 153.006 26.6588ZM156.178 27.8372C156.088 29.4688 154.547 31.0097 154.003 30.0126C153.64 29.4688 153.64 28.5623 153.912 28.1091C154.547 27.0214 156.178 26.9308 156.178 27.8372Z" fill="#FFB84D"/>
<path d="M112.575 21.7589C114.66 23.5717 116.291 24.1156 116.291 23.0278C116.291 22.0308 113.209 20.0366 111.759 20.0366C110.853 20.0366 111.034 20.5805 112.575 21.7589Z" fill="#FFB84D"/>
<path d="M121.008 26.3776C121.462 27.8279 128.985 32.0881 128.985 30.9098C128.985 30.0033 122.459 25.3806 121.19 25.3806C120.918 25.3806 120.827 25.8338 121.008 26.3776Z" fill="#FFB84D"/>
<path d="M135.332 34.8161C135.876 35.5412 137.779 36.9915 139.592 38.0792C143.58 40.4359 143.127 38.3512 138.957 35.5412C135.604 33.2752 133.7 32.9126 135.332 34.8161Z" fill="#FFB84D"/>
<path d="M150.742 43.5081C150.742 44.5958 157.994 48.3121 158.719 47.6776C158.991 47.3151 158.447 46.4993 157.45 45.7741C155.002 43.9613 150.742 42.511 150.742 43.5081Z" fill="#FFB84D"/>
<path d="M176.121 37.1678C176.121 37.621 176.756 38.0742 177.481 38.0742C178.206 38.0742 178.84 37.621 178.84 37.1678C178.84 36.6239 178.206 36.2614 177.481 36.2614C176.756 36.2614 176.121 36.6239 176.121 37.1678Z" fill="white"/>
<path d="M93.0012 27.1054C88.0158 29.9153 80.0393 33.9942 75.3259 36.1697C70.7032 38.3451 66.2617 40.4298 65.5365 40.8831C64.8114 41.2456 60.7325 43.5117 56.4723 45.8684C52.2121 48.2251 46.2297 51.4882 43.0572 53.1198C39.8847 54.7513 36.6216 56.6548 35.8965 57.2893C34.7181 58.2864 34.3556 58.2864 33.993 57.2893C33.7211 56.3829 33.1772 56.4735 31.6363 57.8332C29.9141 59.3741 6.25642 72.7892 1.54302 74.8739C0.0927385 75.5084 -0.269831 76.1429 0.183381 77.4119C0.817878 79.1341 0.90852 79.1341 2.81201 77.2306C3.89972 76.1429 6.80027 74.2394 9.33826 72.9705C11.7856 71.7015 17.3148 68.6196 21.6656 66.0816C29.2796 61.5495 32.9959 60.8244 31.1831 64.0875C30.4579 65.4471 13.0546 74.6927 3.26522 78.9529C-1.99204 81.2189 -0.99497 82.5785 10.9698 89.3767C16.1364 92.3679 21.6656 95.4498 23.2065 96.4468C24.8381 97.3533 33.9023 102.429 43.3292 107.596C52.8466 112.853 61.0044 117.476 61.5483 117.929C62.1828 118.473 64.4488 117.567 67.8932 115.21C70.8844 113.306 76.6856 109.771 80.9457 107.415C93.7263 100.163 100.706 96.0843 114.483 87.9264C126.63 80.6751 150.922 67.8038 154.638 66.7161C155.726 66.3536 156.179 65.2659 156.179 62.6372C156.179 60.6431 156.451 58.4677 156.723 57.6519C157.085 56.6548 156.813 56.2016 155.726 56.2016C154.91 56.2016 150.468 53.6636 145.846 50.4911C141.314 47.4093 136.51 44.2368 135.15 43.5117C125.632 38.1638 102.791 23.8423 102.519 23.0265C102.337 22.4827 98.2584 24.2049 93.0012 27.1054ZM99.9806 28.0118C99.9806 30.2779 99.4368 30.8218 95.2672 32.6346C92.6386 33.7223 84.8434 37.4386 78.0452 40.8831C66.3523 46.6842 65.5365 46.9561 65.5365 45.0526C65.5365 43.3304 68.1652 41.6988 82.5773 34.2662C91.9135 29.4621 99.6181 25.4739 99.7994 25.4739C99.89 25.3832 99.9806 26.5616 99.9806 28.0118ZM110.495 30.5498C115.571 33.6317 117.747 35.5352 117.928 36.8948C118.2 38.7983 117.475 38.5264 110.042 34.2662C104.513 31.0937 101.793 29.0089 101.793 27.9212C101.793 27.0148 102.156 26.2896 102.519 26.2896C102.972 26.2896 106.507 28.1931 110.495 30.5498ZM109.861 36.3509C122.913 43.9649 123.638 44.4181 135.603 52.304C141.948 56.4735 147.115 60.2805 147.115 60.7337C147.115 61.4589 124.635 74.3301 123.366 74.3301C123.004 74.3301 118.109 77.14 112.399 80.5844C106.688 84.1195 100.071 87.8358 97.6239 88.9235C91.7322 91.5521 92.3667 91.1896 77.9546 100.254C71.0657 104.514 64.7208 108.14 63.905 108.23C63.0892 108.23 62.1828 108.593 61.9108 108.955C61.4576 109.499 46.3204 100.888 43.6011 98.5316C42.7853 97.7158 41.8789 97.3533 41.607 97.6252C41.335 97.8971 37.8 96.2655 33.7211 93.9088C29.6422 91.6428 26.0165 89.7393 25.6539 89.7393C25.2913 89.7393 24.4755 89.1048 23.841 88.3797C23.2065 87.6545 22.2095 87.02 21.4843 87.02C20.3966 87.02 8.43184 79.9499 8.43184 79.2248C8.43184 79.1341 13.8704 76.1429 20.4873 72.6985C36.1684 64.4501 59.1916 52.304 61.4576 50.9444C65.174 48.7689 100.434 31.7282 101.25 31.7282C101.703 31.7282 105.51 33.813 109.861 36.3509ZM125.814 39.886C127.808 41.2456 131.162 43.421 133.337 44.7807C135.422 46.0497 137.144 47.5906 137.144 48.0438C137.144 48.497 137.688 48.6783 138.413 48.4064C139.138 48.1344 141.495 49.3128 143.67 50.9444C145.936 52.5759 148.928 54.842 150.378 55.8391C152.463 57.4706 152.735 58.1051 151.919 59.0115C151.012 59.918 149.471 59.2835 144.305 55.6578C140.679 53.2104 137.144 50.7631 136.328 50.3099C121.1 40.9737 118.925 39.3421 119.65 37.5293C120.194 36.1697 120.375 36.2603 125.814 39.886ZM63.7237 45.959C63.7237 47.6812 62.3641 48.497 44.7794 57.6519C38.6158 60.915 33.3585 63.3624 33.1772 63.0904C31.7269 61.7308 34.8994 59.3741 46.1391 53.573C53.0279 49.9473 59.4635 46.4122 60.4606 45.6871C62.9079 43.9649 63.7237 44.0555 63.7237 45.959ZM153.369 63.1811C152.553 64.6314 148.837 67.0787 142.583 70.2512C137.325 72.8798 130.527 76.5055 127.445 78.2277C122.279 81.2189 121.735 81.3096 121.735 79.678C121.735 77.7745 122.46 77.3213 138.957 67.9851C145.574 64.1781 149.109 62.6372 150.559 62.9998C152.1 63.3624 152.553 63.0904 152.553 61.8214C152.553 59.7367 153.732 58.377 154.185 59.8273C154.457 60.4618 154.004 61.9121 153.369 63.1811ZM119.922 80.5844C119.922 82.3973 114.755 86.023 101.34 93.7276C94.2702 97.7158 94.0889 97.8065 93.6357 95.8123C93.1825 94.0901 94.2702 93.1837 102.428 88.6516C107.595 85.751 113.305 82.3973 115.118 81.1283C119.197 78.409 119.922 78.3184 119.922 80.5844ZM12.4201 84.2101C15.5019 86.1136 22.844 90.1925 28.8264 93.2743C34.7181 96.3562 40.1567 99.3474 40.7912 99.8912C41.8789 100.798 42.5134 104.242 41.5163 104.242C40.4286 104.242 24.3849 94.8153 22.844 93.2743C22.0282 92.4586 21.1218 91.9147 20.8498 92.096C20.2153 92.7305 3.62779 83.0318 3.17458 81.7628C2.44944 79.5873 6.89092 80.6751 12.4201 84.2101ZM90.2819 99.5287C88.1065 101.07 64.3582 115.119 63.905 115.119C63.7237 115.119 63.7237 114.122 63.905 112.944C64.0863 111.131 66.8055 109.046 77.7733 102.429C90.4632 94.8153 91.3696 94.3621 91.6415 96.2655C91.9135 97.5345 91.3696 98.8035 90.2819 99.5287ZM53.3905 106.599C60.1886 110.678 61.9108 112.128 61.9108 113.76C61.9108 115.754 61.367 115.572 52.8466 110.678C45.5952 106.599 43.7824 105.239 43.7824 103.517C43.7824 102.429 44.0543 101.523 44.3262 101.523C44.5982 101.523 48.6771 103.789 53.3905 106.599Z" fill="white"/>
<path d="M84.4786 43.2395C83.3003 44.5992 83.4816 44.6898 85.4757 44.1459C86.7447 43.7834 89.1014 43.5114 90.733 43.5114C92.2739 43.5114 93.6335 43.0582 93.6335 42.605C93.6335 41.0641 85.8383 41.5173 84.4786 43.2395Z" fill="#CE44FF"/>
<path d="M94.5438 44.9656C90.9181 48.0474 91.4619 48.5006 95.994 46.1439C100.436 43.7872 108.049 44.2404 111.856 47.0503C113.216 48.138 114.576 48.5912 114.848 48.138C116.117 46.0533 108.321 42.6089 102.339 42.6089C98.3507 42.6089 96.9005 43.0621 94.5438 44.9656Z" fill="#CE44FF"/>
<path d="M129.886 58.0095C128.436 58.9159 128.617 59.0066 132.424 59.3691C133.784 59.4598 136.14 59.8223 137.59 60.2756C140.038 60.9101 140.128 60.8194 138.95 59.5504C137.228 57.7376 131.699 56.8312 129.886 58.0095Z" fill="#CE44FF"/>
<path d="M117.557 59.7368C113.388 61.5497 114.566 62.3654 120.367 61.8216C124.808 61.5497 126.712 61.731 128.434 62.9093C130.882 64.4502 132.604 64.8128 132.604 63.6344C132.604 61.2777 121.002 58.2865 117.557 59.7368Z" fill="#CE44FF"/>
<path d="M64.903 62.6432C62.0024 63.459 60.3708 64.9999 61.3679 65.9063C61.6398 66.1782 62.4556 65.997 63.0901 65.4531C64.631 64.1841 68.7099 63.9122 72.7888 64.728C75.6894 65.3625 75.8707 65.3625 74.6017 64.0028C72.7888 62.19 68.5286 61.5555 64.903 62.6432Z" fill="#CE44FF"/>
<path d="M76.6865 66.3533C75.0549 67.3504 73.6953 68.71 73.6953 69.4351C73.6953 71.0667 73.6953 71.0667 77.321 68.4381C79.3151 66.9878 81.5812 66.172 83.7566 66.172C85.7507 66.172 88.2887 67.0784 90.3735 68.4381C93.9086 70.7948 95.4495 71.248 95.4495 69.8884C95.4495 69.4351 93.546 67.9849 91.2799 66.7159C86.204 63.906 80.8561 63.7247 76.6865 66.3533Z" fill="#CE44FF"/>
<path d="M42.962 73.4219C37.7047 75.8693 38.7018 76.6851 44.5936 74.6909C50.3947 72.7874 54.5642 73.5126 58.7338 77.2289C61.5437 79.5856 61.9062 79.7669 61.9062 78.226C61.9062 75.8693 54.111 71.6091 50.0321 71.6091C48.3099 71.6091 45.1374 72.4249 42.962 73.4219Z" fill="#CE44FF"/>
<path d="M26.3817 79.0452C24.9315 79.4984 23.8438 80.3142 23.8438 80.858C23.8438 81.4019 24.4782 81.4925 25.4753 81.13C28.9197 79.589 37.0775 79.589 39.9781 81.0393C43.2412 82.6709 43.7851 82.7615 43.7851 81.6738C43.7851 78.7733 31.9109 76.9604 26.3817 79.0452Z" fill="#CE44FF"/>
<path d="M58.1032 85.8449C54.4775 86.7513 56.8342 87.9297 62.3634 87.9297C67.9832 87.9297 69.9773 86.9326 66.8049 85.7543C65.2639 85.1198 60.5505 85.2104 58.1032 85.8449Z" fill="#CE44FF"/>
<path d="M72.3355 87.5544C68.9817 89.2766 67.7127 90.455 68.5285 91.1801C68.8004 91.5427 70.2507 90.9988 71.6103 90.0924C75.236 87.7357 78.4991 87.5544 82.2155 89.7298C86.0225 91.8146 86.385 91.9052 86.385 90.6362C86.385 89.4579 79.4056 86.1948 76.8676 86.1041C75.8705 86.1041 73.8764 86.7386 72.3355 87.5544Z" fill="#CE44FF"/>
<path d="M171.29 81.1361C166.487 84.2488 158.778 88.813 154.208 91.2756C149.729 93.7326 145.425 96.0879 144.729 96.5851C144.028 96.9918 140.097 99.5056 135.99 102.121C131.884 104.737 126.115 108.363 123.049 110.188C119.984 112.012 116.844 114.114 116.16 114.792C115.045 115.86 114.683 115.883 114.26 114.91C113.933 114.022 113.395 114.146 111.941 115.598C110.318 117.243 87.5346 132.095 82.959 134.467C81.5508 135.19 81.2281 135.845 81.7589 137.084C82.4986 138.764 82.5891 138.758 84.3713 136.74C85.3897 135.588 88.167 133.508 90.6217 132.085C92.9859 130.667 98.3141 127.249 102.5 124.447C109.819 119.453 113.483 118.5 111.876 121.869C111.236 123.271 94.4374 133.574 84.9301 138.431C79.823 141.018 80.9022 142.313 93.2643 148.359C98.6059 151.025 104.315 153.759 105.915 154.659C107.599 155.463 116.96 159.969 126.688 164.543C136.512 169.202 144.94 173.312 145.511 173.73C146.178 174.234 148.384 173.189 151.676 170.624C154.544 168.539 160.115 164.652 164.221 162.037C176.529 154.009 183.243 149.507 196.49 140.513C208.165 132.525 231.615 118.176 235.257 116.861C236.32 116.432 236.705 115.318 236.543 112.695C236.42 110.704 236.557 108.516 236.777 107.685C237.078 106.668 236.778 106.232 235.693 106.299C234.878 106.35 230.289 104.091 225.479 101.211C220.765 98.4148 215.774 95.5453 214.372 94.9056C204.542 90.1562 180.858 77.2741 180.537 76.4767C180.322 75.9451 176.357 77.9161 171.29 81.1361ZM178.312 81.6093C178.452 83.8711 177.943 84.4475 173.893 86.5146C171.337 87.7627 163.786 91.9538 157.214 95.8119C145.902 102.325 145.104 102.646 144.987 100.747C144.88 99.0277 147.403 97.2368 161.328 88.9275C170.35 83.5555 177.793 79.0986 177.974 79.0874C178.059 78.9913 178.222 80.1618 178.312 81.6093ZM188.963 83.4925C194.22 86.2547 196.509 88.0201 196.774 89.3659C197.163 91.249 196.422 91.0224 188.74 87.2298C183.026 84.4051 180.183 82.4924 180.115 81.4068C180.059 80.5021 180.376 79.756 180.738 79.7335C181.191 79.7055 184.837 81.3869 188.963 83.4925ZM188.688 89.3218C202.186 96.1143 202.938 96.5219 215.368 103.653C221.958 107.422 227.35 110.903 227.378 111.355C227.423 112.079 205.782 126.315 204.516 126.393C204.154 126.416 199.442 129.523 193.956 133.314C188.475 137.195 182.1 141.313 179.725 142.55C174.007 145.538 174.618 145.137 160.793 155.075C154.181 159.753 148.072 163.764 147.264 163.904C146.449 163.955 145.567 164.373 145.318 164.751C144.899 165.322 129.259 157.663 126.399 155.479C125.534 154.716 124.607 154.41 124.353 154.698C124.098 154.986 120.469 153.576 116.252 151.476C112.041 149.467 108.305 147.791 107.943 147.813C107.581 147.836 106.727 147.253 106.049 146.568C105.371 145.884 104.337 145.312 103.613 145.357C102.527 145.424 90.1485 139.107 90.1036 138.383C90.098 138.293 95.3413 134.971 101.733 131.124C116.874 121.922 139.102 108.376 141.28 106.879C144.855 104.478 178.994 85.2906 179.808 85.2401C180.26 85.2121 184.189 87.0576 188.688 89.3218ZM204.829 91.8639C206.904 93.0977 210.386 95.0617 212.641 96.2842C214.8 97.4219 216.614 98.8534 216.642 99.3058C216.67 99.7581 217.224 99.9054 217.931 99.5892C218.638 99.273 221.063 100.303 223.335 101.797C225.698 103.286 228.823 105.363 230.333 106.268C232.514 107.768 232.825 108.384 232.067 109.339C231.218 110.3 229.641 109.762 224.26 106.463C220.49 104.244 216.81 102.02 215.968 101.618C200.192 93.2409 197.92 91.747 198.532 89.8927C198.991 88.5021 199.177 88.5814 204.829 91.8639ZM143.233 101.763C143.34 103.482 142.033 104.381 125.048 114.605C119.098 118.243 114.002 121.01 113.804 120.75C112.273 119.483 115.294 116.935 126.153 110.45C132.805 106.405 139.009 102.479 139.96 101.694C142.296 99.8235 143.116 99.8636 143.233 101.763ZM233.772 113.411C233.047 114.909 229.489 117.581 223.443 121.135C218.358 124.083 211.797 128.122 208.828 130.031C203.856 133.336 203.319 133.46 203.218 131.832C203.1 129.932 203.796 129.435 219.684 119.097C226.053 114.888 229.486 113.132 230.956 113.404C232.517 113.671 232.952 113.371 232.874 112.105C232.745 110.024 233.837 108.594 234.379 110.013C234.689 110.63 234.327 112.105 233.772 113.411ZM201.465 132.849C201.577 134.658 196.644 138.596 183.731 147.115C176.921 151.533 176.745 151.635 176.17 149.672C175.611 147.981 176.641 147.01 184.503 141.982C189.48 138.767 194.972 135.067 196.703 133.689C200.606 130.722 201.325 130.587 201.465 132.849ZM94.3924 143.113C97.586 144.822 105.166 148.439 111.328 151.145C117.399 153.857 123.012 156.506 123.679 157.01C124.82 157.847 125.666 161.246 124.671 161.308C123.586 161.375 106.99 152.958 105.357 151.515C104.492 150.751 103.554 150.265 103.294 150.462C102.699 151.135 85.5441 142.48 85.0133 141.241C84.1551 139.115 88.6553 139.926 94.3924 143.113ZM173.052 153.589C170.976 155.261 148.142 170.752 147.689 170.78C147.509 170.791 147.447 169.796 147.555 168.609C147.624 166.788 150.209 164.539 160.747 157.257C172.942 148.873 173.819 148.365 174.208 150.248C174.557 151.498 174.093 152.798 173.052 153.589ZM136.668 162.926C143.706 166.577 145.514 167.918 145.615 169.546C145.738 171.537 145.184 171.389 136.378 167.031C128.888 163.408 126.995 162.163 126.888 160.444C126.821 159.358 127.036 158.437 127.308 158.42C127.579 158.403 131.79 160.413 136.668 162.926Z" fill="white"/>
<path d="M163.781 97.7591C162.689 99.1889 162.875 99.2682 164.832 98.6021C166.076 98.1618 168.412 97.7447 170.04 97.6439C171.578 97.5486 172.907 97.0122 172.879 96.5599C172.784 95.0219 165.031 95.9561 163.781 97.7591Z" fill="#CE44FF"/>
<path d="M173.934 98.86C170.506 102.16 171.076 102.579 175.454 99.9465C179.742 97.3197 187.369 97.3014 191.342 99.8706C192.767 100.872 194.152 101.241 194.395 100.771C195.533 98.6121 187.539 95.6562 181.569 96.026C177.588 96.2725 176.168 96.8145 173.934 98.86Z" fill="#CE44FF"/>
<path d="M210.017 109.705C208.626 110.699 208.812 110.778 212.634 110.905C213.997 110.911 216.372 111.128 217.847 111.49C220.329 111.972 220.414 111.876 219.159 110.683C217.328 108.98 211.754 108.417 210.017 109.705Z" fill="#CE44FF"/>
<path d="M197.823 112.186C193.773 114.253 195 114.994 200.756 114.093C205.173 113.547 207.084 113.61 208.875 114.68C211.413 116.067 213.155 116.322 213.082 115.146C212.936 112.794 201.171 110.525 197.823 112.186Z" fill="#CE44FF"/>
<path d="M145.444 118.335C142.599 119.328 141.066 120.967 142.117 121.81C142.406 122.065 143.209 121.834 143.808 121.251C145.268 119.89 149.322 119.366 153.444 119.928C156.378 120.382 156.559 120.371 155.208 119.092C153.287 117.395 148.996 117.025 145.444 118.335Z" fill="#CE44FF"/>
<path d="M157.435 121.313C155.868 122.409 154.595 123.85 154.64 124.574C154.741 126.203 154.741 126.203 158.197 123.355C160.098 121.784 162.309 120.83 164.48 120.695C166.471 120.572 169.06 121.32 171.225 122.548C174.898 124.682 176.464 125.039 176.38 123.682C176.352 123.229 174.363 121.9 172.023 120.773C166.783 118.282 161.434 118.432 157.435 121.313Z" fill="#CE44FF"/>
<path d="M124.214 130.46C119.118 133.227 120.164 133.98 125.921 131.625C131.593 129.367 135.8 129.833 140.191 133.285C143.141 135.463 143.514 135.622 143.419 134.084C143.273 131.731 135.23 127.961 131.159 128.213C129.44 128.32 126.324 129.33 124.214 130.46Z" fill="#CE44FF"/>
<path d="M108.006 137.094C106.586 137.636 105.551 138.517 105.585 139.06C105.618 139.603 106.257 139.654 107.23 139.231C110.573 137.48 118.715 136.976 121.699 138.244C125.057 139.671 125.606 139.727 125.538 138.642C125.359 135.747 113.396 134.671 108.006 137.094Z" fill="#CE44FF"/>
<path d="M140.092 141.913C136.529 143.042 138.954 144.073 144.473 143.731C150.082 143.384 152.011 142.265 148.772 141.285C147.194 140.747 142.496 141.129 140.092 141.913Z" fill="#CE44FF"/>
<path d="M154.398 142.749C151.157 144.675 149.964 145.93 150.823 146.603C151.116 146.948 152.53 146.316 153.831 145.327C157.304 142.751 160.55 142.368 164.394 144.31C168.322 146.155 168.69 146.223 168.611 144.957C168.539 143.781 161.371 140.955 158.832 141.022C157.837 141.083 155.886 141.84 154.398 142.749Z" fill="#CE44FF"/>
</svg>
