<svg width="100%" height="100%" viewBox="0 0 241 142" fill="none" xmlns="http://www.w3.org/2000/svg">
<path d="M66.9401 39.4893L63.0977 43.1153L63.4224 46.3625L63.7471 49.5555L71.865 54.4804C87.235 63.7349 97.4094 69.3633 98.8165 69.3633C99.953 69.3633 111.156 64.0596 112.292 62.9231C112.509 62.7607 112.779 61.5701 112.942 60.4336C113.05 59.2429 113.321 57.8358 113.537 57.2946C113.754 56.7534 113.862 56.2664 113.754 56.1581C112.779 55.4004 84.1501 39.3811 81.8771 38.3528C79.2253 37.1622 73.5968 35.7551 71.5403 35.8092C71.1073 35.8633 69.0508 37.4869 66.9401 39.4893ZM77.8182 40.3552C90.428 47.1202 102.226 53.6145 103.2 54.3181C104.174 55.0216 104.12 55.2381 101.631 58.9723C100.224 61.1371 98.8707 62.8689 98.7083 62.8689C98.4918 62.8689 97.8424 62.5442 97.3012 62.1113C96.7059 61.6783 93.2963 59.7841 89.7245 57.8899C86.1526 55.9958 79.7123 52.2615 75.4369 49.6638C71.1615 47.0119 66.9401 44.6307 66.0742 44.3601C65.2624 44.0354 64.5589 43.6565 64.5589 43.4942C64.5589 43.0612 71.2697 36.8916 71.5944 37.0539C71.7568 37.1081 74.571 38.6234 77.8182 40.3552ZM84.1501 40.5176C85.7196 41.3835 90.8068 44.2518 95.407 46.9037C100.007 49.5014 105.04 52.3698 106.502 53.1815C108.883 54.5345 109.045 54.751 107.746 54.751C106.88 54.751 101.035 51.8286 93.4587 47.6614C86.369 43.7648 79.4959 40.0305 78.2511 39.4352C77.0064 38.8399 76.0863 38.1363 76.2487 37.9198C76.6275 37.3245 80.7947 38.6775 84.1501 40.5176ZM66.8319 45.8754C67.8061 46.3625 72.0815 48.9061 76.4111 51.4497C80.7947 54.0475 87.5597 57.9441 91.5104 60.1088C95.4611 62.2736 98.8707 64.3843 99.033 64.8172C99.1954 65.2502 99.1413 66.2243 98.9789 66.982C98.7083 68.0103 98.3836 68.2809 97.68 68.0103C96.0023 67.415 78.4135 57.3488 71.4862 53.0192C64.7754 48.852 64.5589 48.6896 64.5589 46.8496C64.5589 44.7389 64.613 44.7389 66.8319 45.8754ZM110.398 56.4828C112.13 56.9699 112.184 57.0782 111.859 59.2429C111.426 62.3277 111.264 62.8689 110.506 62.8689C110.128 62.8689 110.019 62.3277 110.128 61.5701C110.615 58.9723 109.857 58.81 105.744 60.7042L101.901 62.4901V64.7631C101.901 66.062 101.577 67.3609 101.144 67.6856C100.494 68.2268 100.332 67.9562 100.007 66.1161C99.6824 64.0596 99.8448 63.5725 101.955 60.5418C105.906 54.751 105.473 54.9675 110.398 56.4828ZM109.045 62.1654C108.558 64.7631 106.772 65.3584 106.772 62.9772C106.772 61.1912 107.151 60.7042 108.396 60.7042C109.099 60.7042 109.262 61.0289 109.045 62.1654ZM105.69 63.5725C105.69 64.9796 105.365 65.5208 104.337 66.0079C103.038 66.6032 102.984 66.5491 102.984 64.7631C102.984 63.5725 103.308 62.7066 103.958 62.3819C105.419 61.516 105.69 61.6783 105.69 63.5725Z" fill="white"/>
<path d="M73.4917 41.5477C70.3527 43.1171 70.1904 43.6583 72.4093 45.0113C73.4917 45.6607 74.4117 46.1478 74.5199 46.0396C75.3317 45.1196 76.4682 42.0347 76.2518 41.4394C75.8729 40.4653 75.4941 40.4653 73.4917 41.5477ZM75.3859 42.8465C75.3859 43.5501 75.007 43.9289 74.4117 43.9289C72.8964 43.9289 72.5716 43.3336 73.654 42.5218C74.9529 41.4935 75.3859 41.6018 75.3859 42.8465Z" fill="#FFB84D"/>
<path d="M83.7756 46.2001C80.4744 47.3366 79.3378 49.339 81.2861 50.4214C82.9639 51.2873 83.3427 51.125 84.8039 48.4731C86.6981 45.1177 86.6981 45.1718 83.7756 46.2001ZM83.2886 48.5814C81.665 49.7179 80.9073 49.4473 82.3685 48.2025C83.0721 47.6072 83.8298 47.2825 83.9921 47.499C84.1545 47.6613 83.8298 48.1484 83.2886 48.5814Z" fill="#FFB84D"/>
<path d="M91.3528 51.7257C89.2962 52.5916 88.1056 53.9987 88.9174 54.4858C89.2421 54.7022 89.8915 54.5399 90.3245 54.1611C90.9739 53.6199 91.028 53.674 90.7574 54.4316C90.2704 55.6764 92.0022 56.1635 93.1928 55.0811C93.7881 54.5399 94.3293 53.4575 94.4376 52.5375C94.7082 50.7515 94.0046 50.535 91.3528 51.7257ZM93.2469 52.4292C93.1928 53.4034 92.2728 54.3234 91.9481 53.7281C91.7316 53.4034 91.7316 52.8622 91.8939 52.5916C92.2728 51.9422 93.2469 51.888 93.2469 52.4292Z" fill="#FFB84D"/>
<path d="M67.2128 48.7997C68.4576 49.8821 69.4317 50.2068 69.4317 49.5574C69.4317 48.9621 67.5917 47.7715 66.7258 47.7715C66.1846 47.7715 66.2928 48.0962 67.2128 48.7997Z" fill="#FFB84D"/>
<path d="M72.2477 51.5553C72.5183 52.4212 77.0102 54.9648 77.0102 54.2613C77.0102 53.7201 73.1136 50.96 72.356 50.96C72.1936 50.96 72.1395 51.2306 72.2477 51.5553Z" fill="#FFB84D"/>
<path d="M80.7996 56.5975C81.1243 57.0305 82.2609 57.8964 83.3432 58.5459C85.7245 59.953 85.4539 58.7082 82.9644 57.0305C80.962 55.6775 79.8255 55.461 80.7996 56.5975Z" fill="#FFB84D"/>
<path d="M90.0039 61.7837C90.0039 62.4331 94.3335 64.652 94.7664 64.2732C94.9288 64.0567 94.6041 63.5696 94.0087 63.1367C92.5475 62.0543 90.0039 61.1884 90.0039 61.7837Z" fill="#FFB84D"/>
<path d="M105.156 58.0018C105.156 58.2724 105.535 58.543 105.968 58.543C106.401 58.543 106.78 58.2724 106.78 58.0018C106.78 57.6771 106.401 57.4606 105.968 57.4606C105.535 57.4606 105.156 57.6771 105.156 58.0018Z" fill="white"/>
<path d="M55.5279 51.9895C52.5513 53.6672 47.7888 56.1026 44.9746 57.4015C42.2145 58.7003 39.5626 59.9451 39.1297 60.2157C38.6967 60.4322 36.2613 61.7851 33.7177 63.1923C31.1741 64.5994 27.6022 66.5477 25.708 67.5218C23.8138 68.496 21.8655 69.6325 21.4326 70.0113C20.729 70.6066 20.5126 70.6066 20.2961 70.0113C20.1337 69.4701 19.809 69.5242 18.889 70.336C17.8607 71.2561 3.7355 79.2657 0.921283 80.5105C0.055371 80.8893 -0.161107 81.2682 0.109491 82.0258C0.488327 83.0541 0.542447 83.0541 1.67896 81.9176C2.32839 81.2682 4.06022 80.1317 5.57556 79.374C7.03679 78.6163 10.3381 76.7763 12.9358 75.2609C17.4819 72.5549 19.7008 72.122 18.6184 74.0703C18.1854 74.8821 7.79446 80.4023 1.94955 82.9459C-1.18938 84.2989 -0.594063 85.1107 6.54971 89.1696C9.63453 90.9556 12.9358 92.7956 13.8558 93.3909C14.83 93.9321 20.242 96.9628 25.8704 100.048C31.5529 103.187 36.4237 105.947 36.7484 106.217C37.1272 106.542 38.4802 106.001 40.5368 104.594C42.3227 103.457 45.7864 101.347 48.33 99.9394C55.9608 95.6098 60.128 93.1745 68.3542 88.3037C75.6062 83.9741 90.1103 76.2892 92.3291 75.6397C92.9786 75.4233 93.2492 74.7738 93.2492 73.2044C93.2492 72.0137 93.4115 70.7149 93.5739 70.2278C93.7904 69.6325 93.628 69.3619 92.9786 69.3619C92.4915 69.3619 89.8397 67.8465 87.0796 65.9524C84.3736 64.1123 81.5052 62.2181 80.6935 61.7851C75.0109 58.5921 61.3728 50.0412 61.2104 49.5541C61.1022 49.2294 58.6668 50.2577 55.5279 51.9895ZM59.6951 52.5307C59.6951 53.8837 59.3704 54.2084 56.8809 55.2908C55.3114 55.9402 50.6571 58.1591 46.5982 60.2157C39.6167 63.6793 39.1297 63.8417 39.1297 62.7052C39.1297 61.6769 40.6991 60.7028 49.3041 56.265C54.8784 53.3966 59.4786 51.0154 59.5868 51.0154C59.641 50.9612 59.6951 51.6648 59.6951 52.5307ZM65.9729 54.0461C69.0036 55.8861 70.3025 57.0226 70.4107 57.8344C70.5731 58.9709 70.1401 58.8086 65.7023 56.265C62.4011 54.3708 60.7775 53.126 60.7775 52.4766C60.7775 51.9354 60.9939 51.5024 61.2104 51.5024C61.481 51.5024 63.5917 52.639 65.9729 54.0461ZM65.5941 57.5097C73.3873 62.0557 73.8203 62.3263 80.9641 67.0347C84.7524 69.5242 87.8372 71.7973 87.8372 72.0679C87.8372 72.5008 74.4156 80.1858 73.6579 80.1858C73.4414 80.1858 70.519 81.8635 67.1095 83.92C63.6999 86.0307 59.7492 88.2496 58.288 88.899C54.7702 90.4685 55.149 90.252 46.544 95.664C42.431 98.2076 38.6426 100.372 38.1555 100.426C37.6684 100.426 37.1272 100.643 36.9649 100.859C36.6943 101.184 27.6563 96.0428 26.0327 94.6357C25.5457 94.1486 25.0045 93.9321 24.8421 94.0945C24.6798 94.2569 22.5691 93.2827 20.1337 91.8756C17.6983 90.5226 15.5336 89.3861 15.3171 89.3861C15.1006 89.3861 14.6135 89.0073 14.2347 88.5743C13.8558 88.1413 13.2605 87.7625 12.8276 87.7625C12.1781 87.7625 5.03437 83.5412 5.03437 83.1082C5.03437 83.0541 8.28154 81.2682 12.2323 79.2116C21.5949 74.2868 35.3413 67.0347 36.6943 66.2229C38.9132 64.9241 59.9657 54.7496 60.4528 54.7496C60.7234 54.7496 62.9964 55.9944 65.5941 57.5097ZM75.1191 59.6204C76.3098 60.4322 78.3122 61.731 79.6111 62.5428C80.8558 63.3005 81.8841 64.2205 81.8841 64.4911C81.8841 64.7617 82.2088 64.87 82.6418 64.7076C83.0747 64.5452 84.4818 65.2488 85.7807 66.2229C87.1337 67.1971 88.9196 68.5501 89.7855 69.1454C91.0303 70.1196 91.1926 70.4984 90.7056 71.0396C90.1644 71.5808 89.2443 71.2019 86.1595 69.0372C83.9947 67.5759 81.8841 66.1147 81.397 65.8441C72.3049 60.2698 71.0061 59.2957 71.439 58.2133C71.7637 57.4015 71.872 57.4556 75.1191 59.6204ZM38.0473 63.2464C38.0473 64.2746 37.2355 64.7617 26.7363 70.2278C23.0562 72.1761 19.9172 73.6373 19.809 73.475C18.9431 72.6632 20.8373 71.2561 27.5481 67.7924C31.6612 65.6276 35.5037 63.517 36.099 63.084C37.5602 62.0557 38.0473 62.1099 38.0473 63.2464ZM91.5715 73.5291C91.0844 74.395 88.8655 75.8562 85.1313 77.7504C81.9923 79.3199 77.9334 81.4846 76.0933 82.5129C73.0085 84.2989 72.6838 84.353 72.6838 83.3788C72.6838 82.2423 73.1167 81.9717 82.9665 76.3974C86.9172 74.1244 89.0279 73.2044 89.8938 73.4208C90.8138 73.6373 91.0844 73.475 91.0844 72.7173C91.0844 71.4725 91.788 70.6607 92.0586 71.5267C92.2209 71.9055 91.9503 72.7714 91.5715 73.5291ZM71.6014 83.92C71.6014 85.0024 68.5166 87.1672 60.5069 91.7674C56.2855 94.1486 56.1773 94.2027 55.9067 93.0121C55.6361 91.9838 56.2855 91.4426 61.1563 88.7367C64.2411 87.0048 67.6507 85.0024 68.733 84.2447C71.1684 82.6212 71.6014 82.567 71.6014 83.92ZM7.41563 86.0848C9.25569 87.2213 13.6394 89.6567 17.2113 91.4968C20.729 93.3368 23.9762 95.1228 24.355 95.4475C25.0045 95.9887 25.3833 98.0452 24.788 98.0452C24.1386 98.0452 14.5594 92.4168 13.6394 91.4968C13.1523 91.0097 12.6111 90.685 12.4487 90.7932C12.0699 91.172 2.16603 85.3813 1.89543 84.6236C1.46248 83.3247 4.11434 83.9741 7.41563 86.0848ZM53.9043 95.231C52.6054 96.151 38.4261 104.54 38.1555 104.54C38.0473 104.54 38.0473 103.944 38.1555 103.241C38.2638 102.158 39.8873 100.914 46.4358 96.9628C54.0125 92.4168 54.5537 92.1462 54.7161 93.2827C54.8784 94.0404 54.5537 94.798 53.9043 95.231ZM31.8776 99.4523C35.9366 101.888 36.9649 102.754 36.9649 103.728C36.9649 104.918 36.6402 104.81 31.5529 101.888C27.2234 99.4523 26.141 98.6405 26.141 97.6123C26.141 96.9628 26.3033 96.4216 26.4657 96.4216C26.6281 96.4216 29.0634 97.7746 31.8776 99.4523Z" fill="white"/>
<path d="M50.4413 61.6246C49.7377 62.4364 49.846 62.4905 51.0366 62.1658C51.7943 61.9493 53.2014 61.787 54.1755 61.787C55.0956 61.787 55.9074 61.5164 55.9074 61.2458C55.9074 60.3258 51.2531 60.5964 50.4413 61.6246Z" fill="#CE44FF"/>
<path d="M56.4482 62.654C54.2834 64.4941 54.6081 64.7647 57.3141 63.3575C59.966 61.9504 64.512 62.221 66.785 63.8987C67.5968 64.5482 68.4086 64.8188 68.571 64.5482C69.3286 63.3034 64.6743 61.2469 61.1025 61.2469C58.7212 61.2469 57.8553 61.5175 56.4482 62.654Z" fill="#CE44FF"/>
<path d="M77.5517 70.4447C76.6858 70.9859 76.794 71.04 79.0671 71.2565C79.8789 71.3106 81.286 71.5271 82.1519 71.7977C83.6131 72.1766 83.6672 72.1224 82.9637 71.3648C81.9354 70.2824 78.6341 69.7412 77.5517 70.4447Z" fill="#CE44FF"/>
<path d="M70.1895 71.4751C67.7 72.5575 68.4035 73.0446 71.8672 72.7199C74.519 72.5575 75.6555 72.6657 76.6838 73.3693C78.145 74.2893 79.1733 74.5058 79.1733 73.8022C79.1733 72.3951 72.246 70.6092 70.1895 71.4751Z" fill="#CE44FF"/>
<path d="M38.7509 73.2115C37.019 73.6986 36.0449 74.6186 36.6402 75.1598C36.8025 75.3221 37.2896 75.2139 37.6685 74.8892C38.5885 74.1315 41.0239 73.9692 43.4592 74.4562C45.1911 74.8351 45.2993 74.8351 44.5416 74.0233C43.4592 72.9409 40.9156 72.562 38.7509 73.2115Z" fill="#CE44FF"/>
<path d="M45.7859 75.4238C44.8118 76.0191 44 76.8309 44 77.2639C44 78.238 44 78.238 46.1648 76.6686C47.3554 75.8026 48.7084 75.3156 50.0073 75.3156C51.1979 75.3156 52.7132 75.8568 53.958 76.6686C56.0687 78.0757 56.9887 78.3463 56.9887 77.5345C56.9887 77.2639 55.8522 76.398 54.4992 75.6403C51.4685 73.9626 48.2754 73.8543 45.7859 75.4238Z" fill="#CE44FF"/>
<path d="M25.6531 79.6499C22.5142 81.1111 23.1095 81.5982 26.6272 80.4075C30.0909 79.271 32.5804 79.704 35.0699 81.9229C36.7476 83.33 36.9641 83.4382 36.9641 82.5182C36.9641 81.1111 32.3098 78.5675 29.8744 78.5675C28.8461 78.5675 26.952 79.0546 25.6531 79.6499Z" fill="#CE44FF"/>
<path d="M15.7536 83.0002C14.8877 83.2708 14.2383 83.7579 14.2383 84.0826C14.2383 84.4073 14.6171 84.4614 15.2124 84.245C17.269 83.3249 22.1397 83.3249 23.8716 84.1908C25.8199 85.165 26.1446 85.2191 26.1446 84.5697C26.1446 82.8379 19.0549 81.7555 15.7536 83.0002Z" fill="#CE44FF"/>
<path d="M34.6928 87.0599C32.528 87.6011 33.9351 88.3047 37.2364 88.3047C40.5918 88.3047 41.7824 87.7094 39.8882 87.0058C38.9682 86.627 36.154 86.6811 34.6928 87.0599Z" fill="#CE44FF"/>
<path d="M43.1894 88.0808C41.187 89.1091 40.4293 89.8127 40.9164 90.2456C41.0787 90.4621 41.9447 90.1374 42.7564 89.5962C44.9212 88.1891 46.8695 88.0808 49.0884 89.3797C51.3615 90.6245 51.5779 90.6786 51.5779 89.9209C51.5779 89.2174 47.4107 87.2691 45.8954 87.2149C45.3001 87.2149 44.1094 87.5938 43.1894 88.0808Z" fill="#CE44FF"/>
<path d="M167.912 6.51646C165.044 8.37495 160.442 11.1001 157.713 12.5704C155.039 14.0374 152.469 15.4437 152.053 15.7405C151.635 15.9834 149.287 17.4843 146.836 19.0459C144.384 20.6076 140.939 22.773 139.109 23.8623C137.279 24.9517 135.404 26.2065 134.996 26.6114C134.33 27.249 134.114 27.2624 133.861 26.6816C133.666 26.1515 133.345 26.2256 132.477 27.0927C131.507 28.0745 117.904 36.942 115.172 38.3584C114.332 38.79 114.139 39.1815 114.456 39.921C114.898 40.9239 114.952 40.9205 116.016 39.7159C116.624 39.0276 118.282 37.7862 119.748 36.9363C121.159 36.0898 124.34 34.0492 126.84 32.3761C131.21 29.3943 133.398 28.825 132.438 30.8365C132.056 31.6735 122.026 37.8255 116.349 40.7255C113.3 42.2699 113.944 43.0434 121.325 46.653C124.515 48.2448 127.923 49.8773 128.879 50.4146C129.884 50.8946 135.473 53.5849 141.282 56.3159C147.147 59.0976 152.179 61.5513 152.52 61.8013C152.918 62.102 154.235 61.4782 156.201 59.9467C157.913 58.702 161.24 56.3812 163.692 54.8196C171.04 50.0266 175.049 47.3383 182.958 41.9684C189.929 37.1988 203.93 28.632 206.104 27.8466C206.739 27.5904 206.969 26.9255 206.872 25.359C206.799 24.1707 206.88 22.8643 207.012 22.3681C207.192 21.7605 207.013 21.5005 206.365 21.5406C205.878 21.5707 203.138 20.2222 200.266 18.5023C197.452 16.833 194.472 15.1197 193.635 14.7378C187.766 11.9021 173.625 4.21058 173.433 3.73447C173.305 3.41707 170.938 4.59391 167.912 6.51646ZM172.104 6.79903C172.188 8.14942 171.884 8.49359 169.466 9.7278C167.94 10.473 163.432 12.9754 159.508 15.2789C152.754 19.1674 152.277 19.3596 152.207 18.2253C152.144 17.199 153.65 16.1297 161.964 11.1684C167.35 7.96102 171.795 5.29996 171.903 5.29327C171.953 5.23591 172.051 5.93477 172.104 6.79903ZM178.464 7.92341C181.603 9.57262 182.969 10.6267 183.127 11.4302C183.36 12.5545 182.918 12.4192 178.331 10.1548C174.919 8.4683 173.221 7.32629 173.181 6.6781C173.148 6.13794 173.337 5.69243 173.553 5.67905C173.823 5.66233 176 6.66619 178.464 7.92341ZM178.3 11.4039C186.359 15.4595 186.808 15.7028 194.229 19.9606C198.164 22.2112 201.384 24.2891 201.4 24.5592C201.427 24.9914 188.506 33.4913 187.75 33.5381C187.534 33.5515 184.721 35.4066 181.445 37.67C178.172 39.9874 174.366 42.4463 172.948 43.1848C169.534 44.9687 169.899 44.7292 161.645 50.6627C157.697 53.4557 154.049 55.8505 153.567 55.9346C153.08 55.9648 152.554 56.2143 152.405 56.4404C152.155 56.7812 142.817 52.2083 141.109 50.9043C140.593 50.4483 140.039 50.2656 139.887 50.4377C139.735 50.6098 137.568 49.768 135.051 48.5141C132.536 47.3143 130.305 46.3137 130.089 46.3271C129.873 46.3405 129.364 45.9925 128.959 45.5838C128.554 45.1751 127.936 44.8338 127.504 44.8605C126.856 44.9007 119.465 41.129 119.438 40.6969C119.435 40.6429 122.566 38.6596 126.382 36.3628C135.422 30.8686 148.694 22.7807 149.994 21.8868C152.128 20.4533 172.512 8.99695 172.998 8.96685C173.268 8.95012 175.613 10.052 178.3 11.4039ZM187.937 12.9217C189.176 13.6583 191.255 14.831 192.601 15.5609C193.89 16.2402 194.974 17.0949 194.99 17.365C195.007 17.6351 195.338 17.723 195.76 17.5342C196.182 17.3454 197.63 17.9606 198.986 18.8526C200.397 19.7413 202.263 20.9813 203.164 21.5219C204.467 22.4173 204.652 22.7854 204.2 23.3556C203.693 23.9292 202.751 23.608 199.539 21.638C197.288 20.3134 195.091 18.9855 194.588 18.7455C185.168 13.7439 183.812 12.8519 184.177 11.7448C184.451 10.9145 184.562 10.9618 187.937 12.9217ZM151.16 18.8323C151.224 19.8586 150.444 20.395 140.303 26.4996C136.75 28.6716 133.707 30.3241 133.589 30.1687C132.675 29.412 134.478 27.8905 140.962 24.0187C144.934 21.6038 148.638 19.2596 149.206 18.7907C150.601 17.6741 151.09 17.698 151.16 18.8323ZM205.218 25.7868C204.785 26.6812 202.661 28.2768 199.051 30.3982C196.015 32.1587 192.098 34.5702 190.325 35.7103C187.356 37.6835 187.035 37.7576 186.975 36.7853C186.905 35.6509 187.32 35.3541 196.807 29.1816C200.609 26.6687 202.659 25.62 203.537 25.7825C204.468 25.9417 204.728 25.7629 204.681 25.0067C204.605 23.7643 205.257 22.9106 205.58 23.7581C205.766 24.1262 205.549 25.0072 205.218 25.7868ZM185.928 37.3923C185.995 38.4727 183.05 40.824 175.34 45.9105C171.274 48.5481 171.169 48.6088 170.826 47.4372C170.492 46.4276 171.107 45.8473 175.801 42.8454C178.773 40.9262 182.052 38.7169 183.085 37.8937C185.416 36.1227 185.845 36.0419 185.928 37.3923ZM121.999 43.5206C123.906 44.5412 128.432 46.7009 132.11 48.3167C135.735 49.9358 139.087 51.5176 139.485 51.8182C140.166 52.3183 140.672 54.3474 140.077 54.3842C139.429 54.4244 129.521 49.3988 128.545 48.5374C128.029 48.0814 127.469 47.7908 127.314 47.9088C126.959 48.3104 116.716 43.1429 116.399 42.4034C115.887 41.1337 118.574 41.618 121.999 43.5206ZM168.964 49.7756C167.725 50.7742 154.091 60.0231 153.821 60.0399C153.713 60.0466 153.676 59.4524 153.741 58.7435C153.782 57.6565 155.325 56.3137 161.617 51.9658C168.898 46.9601 169.422 46.6566 169.654 47.7809C169.863 48.527 169.586 49.3033 168.964 49.7756ZM147.241 55.3504C151.442 57.5302 152.522 58.3309 152.582 59.3032C152.656 60.4916 152.325 60.4036 147.067 57.8012C142.595 55.6381 141.465 54.8948 141.401 53.8685C141.361 53.2203 141.49 52.6701 141.652 52.6601C141.814 52.65 144.328 53.8499 147.241 55.3504Z" fill="white"/>
<g filter="url(#filter0_d_939_5004)">
<path d="M163.427 16.4427C162.775 17.2965 162.886 17.3438 164.054 16.9461C164.797 16.6832 166.192 16.4342 167.164 16.374C168.082 16.3171 168.876 15.9968 168.859 15.7267C168.802 14.8085 164.173 15.3662 163.427 16.4427Z" fill="#CE44FF"/>
</g>
<g filter="url(#filter1_d_939_5004)">
<path d="M169.494 17.1012C167.447 19.0716 167.788 19.3216 170.402 17.7499C172.961 16.1816 177.515 16.1707 179.888 17.7046C180.738 18.3027 181.565 18.5226 181.71 18.2424C182.39 16.9532 177.617 15.1883 174.052 15.4091C171.676 15.5563 170.828 15.8799 169.494 17.1012Z" fill="#CE44FF"/>
</g>
<g filter="url(#filter2_d_939_5004)">
<path d="M191.039 23.5652C190.208 24.1589 190.319 24.2062 192.602 24.2818C193.415 24.2856 194.833 24.4147 195.714 24.6313C197.196 24.9191 197.246 24.8617 196.497 24.149C195.404 23.1322 192.076 22.7961 191.039 23.5652Z" fill="#CE44FF"/>
</g>
<g filter="url(#filter3_d_939_5004)">
<path d="M183.755 25.0528C181.337 26.287 182.07 26.7296 185.507 26.1914C188.144 25.8655 189.285 25.9032 190.354 26.5419C191.87 27.3698 192.909 27.5223 192.866 26.8201C192.779 25.4157 185.754 24.0614 183.755 25.0528Z" fill="#CE44FF"/>
</g>
<g filter="url(#filter4_d_939_5004)">
<path d="M152.481 28.7264C150.782 29.3196 149.867 30.2981 150.495 30.8014C150.667 30.9534 151.146 30.8153 151.504 30.4678C152.376 29.6547 154.796 29.3421 157.257 29.6777C159.009 29.9488 159.117 29.9421 158.311 29.1787C157.163 28.1653 154.601 27.9444 152.481 28.7264Z" fill="#CE44FF"/>
</g>
<g filter="url(#filter5_d_939_5004)">
<path d="M159.64 30.5019C158.704 31.1563 157.944 32.0167 157.971 32.4488C158.031 33.4211 158.031 33.4211 160.095 31.7209C161.23 30.783 162.55 30.2132 163.846 30.1329C165.035 30.0593 166.58 30.5058 167.873 31.2391C170.067 32.5131 171.002 32.7263 170.951 31.916C170.935 31.646 169.747 30.852 168.35 30.1794C165.221 28.6922 162.027 28.7816 159.64 30.5019Z" fill="#CE44FF"/>
</g>
<g filter="url(#filter6_d_939_5004)">
<path d="M139.802 35.9638C136.76 37.6162 137.384 38.0656 140.821 36.6598C144.208 35.3113 146.72 35.5896 149.342 37.6503C151.103 38.951 151.326 39.0457 151.269 38.1274C151.182 36.723 146.379 34.472 143.949 34.6225C142.922 34.6861 141.062 35.2893 139.802 35.9638Z" fill="#CE44FF"/>
</g>
<g filter="url(#filter7_d_939_5004)">
<path d="M130.131 39.926C129.283 40.2496 128.665 40.7759 128.685 41.1C128.706 41.4241 129.087 41.4547 129.668 41.2018C131.664 40.1564 136.525 39.8553 138.307 40.6125C140.312 41.4644 140.639 41.4983 140.599 40.8502C140.492 39.1216 133.349 38.4796 130.131 39.926Z" fill="#CE44FF"/>
</g>
<g filter="url(#filter8_d_939_5004)">
<path d="M149.286 42.8029C147.159 43.4769 148.606 44.0921 151.901 43.8881C155.25 43.6807 156.402 43.0129 154.468 42.4278C153.526 42.1065 150.721 42.3345 149.286 42.8029Z" fill="#CE44FF"/>
</g>
<g filter="url(#filter9_d_939_5004)">
<path d="M157.825 43.3032C155.89 44.4532 155.178 45.2023 155.691 45.6043C155.866 45.8103 156.71 45.4327 157.487 44.8424C159.561 43.3041 161.499 43.0757 163.794 44.2349C166.139 45.3368 166.359 45.3774 166.312 44.6212C166.268 43.919 161.989 42.232 160.473 42.2716C159.879 42.3084 158.714 42.7601 157.825 43.3032Z" fill="#CE44FF"/>
</g>
<path d="M197.646 49.4696C194.779 51.3281 190.176 54.0532 187.447 55.5235C184.773 56.9905 182.203 58.3968 181.788 58.6937C181.369 58.9365 179.022 60.4374 176.57 61.9991C174.118 63.5607 170.674 65.7261 168.843 66.8155C167.013 67.9048 165.139 69.1596 164.73 69.5645C164.065 70.2021 163.848 70.2155 163.596 69.6347C163.4 69.1046 163.079 69.1787 162.211 70.0458C161.242 71.0276 147.639 79.8952 144.907 81.3115C144.066 81.7431 143.873 82.1346 144.19 82.8741C144.632 83.877 144.686 83.8736 145.75 82.6691C146.358 81.9807 148.016 80.7393 149.482 79.8894C150.894 79.0429 154.075 77.0023 156.574 75.3293C160.944 72.3474 163.132 71.7782 162.172 73.7896C161.79 74.6266 151.76 80.7786 146.084 83.6786C143.034 85.2231 143.679 85.9965 151.06 89.6061C154.249 91.198 157.658 92.8304 158.613 93.3678C159.619 93.8477 165.208 96.5381 171.016 99.2691C176.882 102.051 181.914 104.504 182.255 104.754C182.653 105.055 183.97 104.431 185.935 102.9C187.648 101.655 190.974 99.3344 193.426 97.7727C200.775 92.9797 204.783 90.2914 212.693 84.9215C219.663 80.1519 233.664 71.5851 235.839 70.7997C236.474 70.5435 236.704 69.8786 236.607 68.3122C236.533 67.1238 236.615 65.8174 236.747 65.3212C236.926 64.7136 236.747 64.4536 236.099 64.4937C235.613 64.5239 232.872 63.1753 230 61.4554C227.186 59.7861 224.206 58.0728 223.369 57.6909C217.5 54.8552 203.359 47.1637 203.167 46.6876C203.039 46.3702 200.672 47.547 197.646 49.4696ZM201.839 49.7522C201.922 51.1025 201.618 51.4467 199.201 52.6809C197.674 53.4261 193.166 55.9285 189.242 58.232C182.488 62.1206 182.012 62.3127 181.942 61.1784C181.878 60.1521 183.384 59.0828 191.698 54.1216C197.085 50.9141 201.529 48.2531 201.637 48.2464C201.688 48.189 201.785 48.8879 201.839 49.7522ZM208.198 50.8765C211.337 52.5257 212.704 53.5798 212.862 54.3833C213.094 55.5076 212.652 55.3724 208.065 53.1079C204.653 51.4214 202.956 50.2794 202.916 49.6312C202.882 49.0911 203.072 48.6456 203.288 48.6322C203.558 48.6155 205.735 49.6193 208.198 50.8765ZM208.034 54.357C216.094 58.4126 216.542 58.6559 223.964 62.9137C227.899 65.1643 231.118 67.2423 231.135 67.5124C231.161 67.9445 218.241 76.4444 217.484 76.4912C217.268 76.5046 214.455 78.3598 211.179 80.6231C207.907 82.9405 204.101 85.3994 202.682 86.1379C199.268 87.9218 199.633 87.6823 191.379 93.6158C187.431 96.4088 183.784 98.8037 183.301 98.8878C182.815 98.9179 182.288 99.1674 182.139 99.3935C181.889 99.7343 172.551 95.1615 170.843 93.8574C170.327 93.4014 169.774 93.2188 169.622 93.3909C169.47 93.5629 167.303 92.7211 164.785 91.4672C162.271 90.2674 160.04 89.2669 159.824 89.2802C159.608 89.2936 159.098 88.9456 158.693 88.5369C158.288 88.1282 157.671 87.7869 157.239 87.8136C156.59 87.8538 149.199 84.0821 149.173 83.65C149.169 83.596 152.3 81.6127 156.116 79.3159C165.156 73.8217 178.428 65.7338 179.728 64.84C181.863 63.4064 202.246 51.9501 202.732 51.92C203.002 51.9032 205.348 53.0051 208.034 54.357ZM217.672 55.8748C218.91 56.6115 220.989 57.7841 222.336 58.514C223.625 59.1933 224.708 60.048 224.725 60.3181C224.741 60.5882 225.072 60.6761 225.494 60.4873C225.916 60.2985 227.364 60.9137 228.721 61.8057C230.131 62.6944 231.998 63.9344 232.899 64.4751C234.201 65.3704 234.387 65.7385 233.934 66.3087C233.427 66.8824 232.486 66.5611 229.273 64.5912C227.022 63.2665 224.825 61.9386 224.322 61.6986C214.903 56.697 213.546 55.805 213.911 54.6979C214.185 53.8676 214.297 53.9149 217.672 55.8748ZM180.895 61.7855C180.958 62.8118 180.178 63.3481 170.037 69.4527C166.484 71.6248 163.442 73.2772 163.324 73.1219C162.409 72.3652 164.213 70.8437 170.697 66.9718C174.668 64.5569 178.373 62.2128 178.94 61.7438C180.335 60.6272 180.824 60.6511 180.895 61.7855ZM234.952 68.74C234.52 69.6343 232.395 71.2299 228.785 73.3513C225.749 75.1118 221.832 77.5233 220.059 78.6634C217.09 80.6366 216.77 80.7107 216.709 79.7384C216.639 78.6041 217.055 78.3072 226.541 72.1347C230.344 69.6218 232.393 68.5731 233.271 68.7356C234.203 68.8948 234.463 68.716 234.416 67.9598C234.339 66.7175 234.991 65.8637 235.315 66.7113C235.5 67.0793 235.283 67.9603 234.952 68.74ZM215.663 80.3455C215.729 81.4258 212.784 83.7771 205.074 88.8636C201.008 91.5012 200.904 91.5619 200.56 90.3903C200.226 89.3807 200.841 88.8004 205.535 85.7985C208.507 83.8793 211.786 81.67 212.82 80.8469C215.15 79.0758 215.579 78.9951 215.663 80.3455ZM151.733 86.4737C153.64 87.4943 158.166 89.654 161.845 91.2698C165.47 92.8889 168.821 94.4707 169.219 94.7714C169.901 95.2714 170.406 97.3006 169.812 97.3374C169.164 97.3775 159.255 92.352 158.28 91.4906C157.763 91.0345 157.203 90.7439 157.048 90.862C156.693 91.2635 146.45 86.096 146.133 85.3565C145.621 84.0869 148.308 84.5711 151.733 86.4737ZM198.698 92.7287C197.459 93.7273 183.825 102.976 183.555 102.993C183.447 103 183.41 102.406 183.475 101.697C183.516 100.61 185.06 99.2669 191.351 94.9189C198.633 89.9132 199.156 89.6097 199.388 90.734C199.597 91.4802 199.32 92.2565 198.698 92.7287ZM176.975 98.3035C181.177 100.483 182.256 101.284 182.317 102.256C182.39 103.445 182.06 103.357 176.801 100.754C172.33 98.5912 171.199 97.8479 171.135 96.8216C171.095 96.1734 171.224 95.6232 171.386 95.6132C171.548 95.6031 174.062 96.803 176.975 98.3035Z" fill="white"/>
<g filter="url(#filter10_d_939_5004)">
<path d="M193.161 59.392C192.509 60.2457 192.62 60.293 193.789 59.8953C194.532 59.6324 195.926 59.3834 196.898 59.3232C197.817 59.2663 198.61 58.946 198.593 58.676C198.536 57.7577 193.908 58.3155 193.161 59.392Z" fill="#CE44FF"/>
</g>
<g filter="url(#filter11_d_939_5004)">
<path d="M199.228 60.0505C197.181 62.0208 197.522 62.2708 200.136 60.6991C202.696 59.1308 207.25 59.1199 209.622 60.6539C210.473 61.2519 211.3 61.4718 211.445 61.1917C212.124 59.9025 207.352 58.1375 203.787 58.3583C201.41 58.5055 200.562 58.8291 199.228 60.0505Z" fill="#CE44FF"/>
</g>
<g filter="url(#filter12_d_939_5004)">
<path d="M220.773 66.5223C219.942 67.1159 220.054 67.1633 222.336 67.2388C223.149 67.2427 224.567 67.3717 225.448 67.5883C226.93 67.8761 226.981 67.8187 226.232 67.106C225.139 66.0892 221.81 65.7531 220.773 66.5223Z" fill="#CE44FF"/>
</g>
<g filter="url(#filter13_d_939_5004)">
<path d="M213.49 68.0059C211.072 69.2401 211.804 69.6828 215.241 69.1446C217.878 68.8186 219.019 68.8564 220.089 69.495C221.604 70.323 222.644 70.4755 222.6 69.7733C222.513 68.3688 215.489 67.0145 213.49 68.0059Z" fill="#CE44FF"/>
</g>
<g filter="url(#filter14_d_939_5004)">
<path d="M182.215 71.6756C180.517 72.2688 179.601 73.2473 180.229 73.7506C180.401 73.9027 180.881 73.7645 181.239 73.417C182.11 72.6039 184.531 72.2913 186.992 72.6269C188.743 72.898 188.851 72.8913 188.045 72.1279C186.898 71.1145 184.336 70.8936 182.215 71.6756Z" fill="#CE44FF"/>
</g>
<g filter="url(#filter15_d_939_5004)">
<path d="M189.374 73.4589C188.439 74.1133 187.678 74.9737 187.705 75.4059C187.765 76.3782 187.765 76.3782 189.829 74.6779C190.964 73.74 192.284 73.1703 193.581 73.09C194.769 73.0164 196.315 73.4629 197.607 74.1962C199.801 75.4701 200.736 75.6833 200.686 74.8731C200.669 74.603 199.481 73.809 198.084 73.1364C194.955 71.6492 191.762 71.7386 189.374 73.4589Z" fill="#CE44FF"/>
</g>
<g filter="url(#filter16_d_939_5004)">
<path d="M169.541 78.9169C166.498 80.5693 167.122 81.0187 170.56 79.6129C173.946 78.2644 176.458 78.5427 179.08 80.6035C180.841 81.9042 181.064 81.9988 181.007 81.0806C180.92 79.6761 176.118 77.4251 173.687 77.5756C172.661 77.6392 170.8 78.2424 169.541 78.9169Z" fill="#CE44FF"/>
</g>
<g filter="url(#filter17_d_939_5004)">
<path d="M159.865 82.8791C159.018 83.2027 158.4 83.729 158.42 84.0531C158.44 84.3772 158.821 84.4078 159.402 84.1549C161.398 83.1095 166.259 82.8085 168.041 83.5657C170.046 84.4175 170.374 84.4515 170.333 83.8033C170.226 82.0748 163.083 81.4327 159.865 82.8791Z" fill="#CE44FF"/>
</g>
<g filter="url(#filter18_d_939_5004)">
<path d="M179.02 85.7561C176.893 86.43 178.341 87.0453 181.636 86.8412C184.985 86.6338 186.136 85.966 184.202 85.3809C183.261 85.0596 180.455 85.2876 179.02 85.7561Z" fill="#CE44FF"/>
</g>
<g filter="url(#filter19_d_939_5004)">
<path d="M187.564 86.2563C185.629 87.4064 184.916 88.1554 185.429 88.5574C185.604 88.7635 186.449 88.3858 187.225 87.7955C189.299 86.2573 191.237 86.0288 193.532 87.188C195.877 88.2899 196.097 88.3305 196.05 87.5743C196.006 86.8721 191.727 85.1851 190.211 85.2248C189.617 85.2616 188.452 85.7133 187.564 86.2563Z" fill="#CE44FF"/>
</g>
<path d="M102.279 84.2547C99.4117 86.1132 94.8088 88.8383 92.0803 90.3087C89.4057 91.7757 86.8359 93.182 86.4205 93.4788C86.0017 93.7216 83.6547 95.2226 81.2029 96.7842C78.7511 98.3459 75.3065 100.511 73.4761 101.601C71.6458 102.69 69.7715 103.945 69.3628 104.35C68.6973 104.987 68.4813 105.001 68.2284 104.42C68.0329 103.89 67.7122 103.964 66.8441 104.831C65.8746 105.813 52.2716 114.68 49.5397 116.097C48.6988 116.528 48.5062 116.92 48.8231 117.659C49.2648 118.662 49.3188 118.659 50.3829 117.454C50.9909 116.766 52.6492 115.524 54.1148 114.675C55.5264 113.828 58.7076 111.787 61.2067 110.114C65.5768 107.133 67.7647 106.563 66.8048 108.575C66.4229 109.412 56.393 115.564 50.7165 118.464C47.6672 120.008 48.3116 120.782 55.6926 124.391C58.8819 125.983 62.2906 127.616 63.2457 128.153C64.2514 128.633 69.8404 131.323 75.6487 134.054C81.5145 136.836 86.5465 139.29 86.8873 139.54C87.2855 139.84 88.6025 139.217 90.5681 137.685C92.2804 136.44 95.6069 134.12 98.0587 132.558C105.407 127.765 109.416 125.077 117.325 119.707C124.296 114.937 138.297 106.37 140.472 105.585C141.106 105.329 141.336 104.664 141.239 103.097C141.166 101.909 141.248 100.603 141.38 100.106C141.559 99.4988 141.38 99.2388 140.732 99.2789C140.246 99.309 137.505 97.9605 134.633 96.2405C131.819 94.5713 128.839 92.858 128.002 92.4761C122.133 89.6404 107.992 81.9489 107.8 81.4728C107.672 81.1553 105.305 82.3322 102.279 84.2547ZM106.472 84.5373C106.555 85.8877 106.251 86.2319 103.833 87.4661C102.307 88.2113 97.7988 90.7136 93.8747 93.0172C87.1207 96.9057 86.6446 97.0979 86.5744 95.9635C86.5108 94.9372 88.0171 93.8679 96.3313 88.9067C101.718 85.6993 106.162 83.0382 106.27 83.0315C106.321 82.9742 106.418 83.673 106.472 84.5373ZM112.831 85.6617C115.97 87.3109 117.336 88.3649 117.495 89.1685C117.727 90.2928 117.285 90.1575 112.698 87.8931C109.286 86.2066 107.589 85.0646 107.549 84.4164C107.515 83.8762 107.704 83.4307 107.92 83.4173C108.191 83.4006 110.367 84.4045 112.831 85.6617ZM112.667 89.1421C120.726 93.1978 121.175 93.4411 128.596 97.6989C132.531 99.9494 135.751 102.027 135.768 102.298C135.794 102.73 122.873 111.23 122.117 111.276C121.901 111.29 119.088 113.145 115.812 115.408C112.539 117.726 108.733 120.185 107.315 120.923C103.901 122.707 104.266 122.467 96.0119 128.401C92.0639 131.194 88.4166 133.589 87.9338 133.673C87.4477 133.703 86.9209 133.953 86.7722 134.179C86.5222 134.519 77.1837 129.947 75.4763 128.643C74.96 128.187 74.4065 128.004 74.2544 128.176C74.1024 128.348 71.9356 127.506 69.4179 126.252C66.9035 125.053 64.6726 124.052 64.4566 124.065C64.2405 124.079 63.731 123.731 63.3261 123.322C62.9212 122.913 62.3036 122.572 61.8715 122.599C61.2233 122.639 53.8322 118.867 53.8055 118.435C53.8021 118.381 56.9327 116.398 60.7487 114.101C69.7891 108.607 83.0609 100.519 84.3611 99.6251C86.4955 98.1916 106.879 86.7352 107.365 86.7051C107.635 86.6884 109.981 87.7903 112.667 89.1421ZM122.304 90.66C123.543 91.3966 125.622 92.5692 126.968 93.2992C128.258 93.9785 129.341 94.8332 129.357 95.1033C129.374 95.3733 129.705 95.4613 130.127 95.2725C130.549 95.0837 131.997 95.6989 133.354 96.5909C134.764 97.4796 136.63 98.7196 137.531 99.2602C138.834 100.156 139.02 100.524 138.567 101.094C138.06 101.668 137.118 101.346 133.906 99.3763C131.655 98.0517 129.458 96.7237 128.955 96.4838C119.536 91.4821 118.179 90.5901 118.544 89.483C118.818 88.6527 118.93 88.7001 122.304 90.66ZM85.5275 96.5706C85.5911 97.5969 84.8109 98.1332 74.6697 104.238C71.1171 106.41 68.0744 108.062 67.9564 107.907C67.0419 107.15 68.8455 105.629 75.3294 101.757C79.3008 99.3421 83.0055 96.9979 83.5729 96.529C84.9678 95.4124 85.4573 95.4363 85.5275 96.5706ZM139.585 103.525C139.152 104.419 137.028 106.015 133.418 108.136C130.382 109.897 126.465 112.308 124.692 113.449C121.723 115.422 121.402 115.496 121.342 114.524C121.272 113.389 121.687 113.092 131.174 106.92C134.976 104.407 137.026 103.358 137.904 103.521C138.835 103.68 139.095 103.501 139.049 102.745C138.972 101.503 139.624 100.649 139.947 101.496C140.133 101.864 139.916 102.745 139.585 103.525ZM120.295 115.131C120.362 116.211 117.417 118.562 109.707 123.649C105.641 126.286 105.536 126.347 105.193 125.175C104.859 124.166 105.474 123.586 110.168 120.584C113.14 118.665 116.419 116.455 117.453 115.632C119.783 113.861 120.212 113.78 120.295 115.131ZM56.3662 121.259C58.273 122.279 62.7988 124.439 66.4776 126.055C70.1024 127.674 73.4538 129.256 73.8519 129.557C74.5336 130.057 75.0388 132.086 74.4446 132.123C73.7964 132.163 63.8877 127.137 62.9126 126.276C62.3963 125.82 61.8361 125.529 61.6807 125.647C61.326 126.049 51.0831 120.881 50.7662 120.142C50.2538 118.872 52.9407 119.356 56.3662 121.259ZM103.331 127.514C102.092 128.512 88.4581 137.761 88.188 137.778C88.08 137.785 88.0432 137.191 88.1078 136.482C88.1489 135.395 89.6924 134.052 95.9841 129.704C103.265 124.698 103.789 124.395 104.021 125.519C104.23 126.265 103.953 127.042 103.331 127.514ZM81.6077 133.089C85.8095 135.269 86.8893 136.069 86.9495 137.042C87.0231 138.23 86.6923 138.142 81.4342 135.539C76.9623 133.376 75.8318 132.633 75.7683 131.607C75.7281 130.959 75.8567 130.408 76.0188 130.398C76.1808 130.388 78.6952 131.588 81.6077 133.089Z" fill="white"/>
<path d="M97.794 94.1771C97.1419 95.0308 97.2533 95.0782 98.4216 94.6805C99.1644 94.4176 100.559 94.1685 101.531 94.1083C102.449 94.0515 103.243 93.7312 103.226 93.4611C103.169 92.5428 98.5406 93.1006 97.794 94.1771Z" fill="#CE44FF"/>
<path d="M103.861 94.8356C101.814 96.806 102.155 97.056 104.769 95.4843C107.329 93.916 111.883 93.905 114.255 95.439C115.105 96.037 115.932 96.2569 116.078 95.9768C116.757 94.6876 111.984 92.9227 108.419 93.1435C106.043 93.2907 105.195 93.6143 103.861 94.8356Z" fill="#CE44FF"/>
<path d="M125.406 101.307C124.575 101.901 124.687 101.948 126.969 102.024C127.782 102.028 129.2 102.157 130.081 102.373C131.563 102.661 131.614 102.604 130.865 101.891C129.771 100.874 126.443 100.538 125.406 101.307Z" fill="#CE44FF"/>
<path d="M118.123 102.791C115.705 104.025 116.437 104.468 119.874 103.93C122.511 103.604 123.652 103.642 124.722 104.28C126.237 105.108 127.277 105.261 127.233 104.558C127.146 103.154 120.122 101.8 118.123 102.791Z" fill="#CE44FF"/>
<path d="M86.848 106.461C85.1496 107.054 84.2342 108.032 84.8618 108.536C85.0339 108.688 85.5133 108.55 85.8714 108.202C86.7428 107.389 89.1635 107.076 91.6243 107.412C93.3763 107.683 93.4843 107.676 92.6779 106.913C91.5307 105.9 88.9685 105.679 86.848 106.461Z" fill="#CE44FF"/>
<path d="M94.0068 108.244C93.0713 108.898 92.3113 109.759 92.338 110.191C92.3982 111.163 92.3982 111.163 94.4619 109.463C95.5967 108.525 96.917 107.955 98.2134 107.875C99.4017 107.802 100.948 108.248 102.24 108.981C104.434 110.255 105.369 110.468 105.319 109.658C105.302 109.388 104.114 108.594 102.717 107.922C99.5882 106.434 96.3945 106.524 94.0068 108.244Z" fill="#CE44FF"/>
<path d="M74.1734 113.702C71.1308 115.354 71.7551 115.804 75.1925 114.398C78.5793 113.05 81.0908 113.328 83.7127 115.389C85.4741 116.689 85.6969 116.784 85.64 115.866C85.553 114.461 80.7504 112.21 78.3197 112.361C77.2934 112.424 75.433 113.028 74.1734 113.702Z" fill="#CE44FF"/>
<path d="M64.4982 117.664C63.6507 117.988 63.0326 118.514 63.0527 118.838C63.0727 119.162 63.4542 119.193 64.035 118.94C66.0307 117.895 70.8922 117.594 72.6742 118.351C74.679 119.203 75.0064 119.237 74.9663 118.588C74.8592 116.86 67.7162 116.218 64.4982 117.664Z" fill="#CE44FF"/>
<path d="M83.6529 120.541C81.5257 121.215 82.9736 121.83 86.2686 121.626C89.6176 121.419 90.7691 120.751 88.8351 120.166C87.8934 119.845 85.0879 120.073 83.6529 120.541Z" fill="#CE44FF"/>
<path d="M92.1966 121.041C90.2615 122.192 89.5488 122.941 90.0617 123.343C90.2371 123.549 91.0813 123.171 91.8581 122.581C93.9318 121.042 95.8697 120.814 98.1646 121.973C100.51 123.075 100.73 123.116 100.683 122.359C100.639 121.657 96.3596 119.97 94.8438 120.01C94.2497 120.047 93.0847 120.498 92.1966 121.041Z" fill="#CE44FF"/>
<defs>
<filter id="filter0_d_939_5004" x="158.626" y="15.2656" width="14.6389" height="10.7326" filterUnits="userSpaceOnUse" color-interpolation-filters="sRGB">
<feFlood flood-opacity="0" result="BackgroundImageFix"/>
<feColorMatrix in="SourceAlpha" type="matrix" values="0 0 0 0 0 0 0 0 0 0 0 0 0 0 0 0 0 0 127 0" result="hardAlpha"/>
<feOffset dy="4.40537"/>
<feGaussianBlur stdDeviation="2.20268"/>
<feComposite in2="hardAlpha" operator="out"/>
<feColorMatrix type="matrix" values="0 0 0 0 0 0 0 0 0 0 0 0 0 0 0 0 0 0 0.25 0"/>
<feBlend mode="normal" in2="BackgroundImageFix" result="effect1_dropShadow_939_5004"/>
<feBlend mode="normal" in="SourceGraphic" in2="effect1_dropShadow_939_5004" result="shape"/>
</filter>
<filter id="filter1_d_939_5004" x="163.763" y="15.3906" width="22.4201" height="12.1935" filterUnits="userSpaceOnUse" color-interpolation-filters="sRGB">
<feFlood flood-opacity="0" result="BackgroundImageFix"/>
<feColorMatrix in="SourceAlpha" type="matrix" values="0 0 0 0 0 0 0 0 0 0 0 0 0 0 0 0 0 0 127 0" result="hardAlpha"/>
<feOffset dy="4.40537"/>
<feGaussianBlur stdDeviation="2.20268"/>
<feComposite in2="hardAlpha" operator="out"/>
<feColorMatrix type="matrix" values="0 0 0 0 0 0 0 0 0 0 0 0 0 0 0 0 0 0 0.25 0"/>
<feBlend mode="normal" in2="BackgroundImageFix" result="effect1_dropShadow_939_5004"/>
<feBlend mode="normal" in="SourceGraphic" in2="effect1_dropShadow_939_5004" result="shape"/>
</filter>
<filter id="filter2_d_939_5004" x="186.161" y="23.1445" width="15.217" height="10.4592" filterUnits="userSpaceOnUse" color-interpolation-filters="sRGB">
<feFlood flood-opacity="0" result="BackgroundImageFix"/>
<feColorMatrix in="SourceAlpha" type="matrix" values="0 0 0 0 0 0 0 0 0 0 0 0 0 0 0 0 0 0 127 0" result="hardAlpha"/>
<feOffset dy="4.40537"/>
<feGaussianBlur stdDeviation="2.20268"/>
<feComposite in2="hardAlpha" operator="out"/>
<feColorMatrix type="matrix" values="0 0 0 0 0 0 0 0 0 0 0 0 0 0 0 0 0 0 0.25 0"/>
<feBlend mode="normal" in2="BackgroundImageFix" result="effect1_dropShadow_939_5004"/>
<feBlend mode="normal" in="SourceGraphic" in2="effect1_dropShadow_939_5004" result="shape"/>
</filter>
<filter id="filter3_d_939_5004" x="177.931" y="24.7109" width="19.342" height="11.3654" filterUnits="userSpaceOnUse" color-interpolation-filters="sRGB">
<feFlood flood-opacity="0" result="BackgroundImageFix"/>
<feColorMatrix in="SourceAlpha" type="matrix" values="0 0 0 0 0 0 0 0 0 0 0 0 0 0 0 0 0 0 127 0" result="hardAlpha"/>
<feOffset dy="4.40537"/>
<feGaussianBlur stdDeviation="2.20268"/>
<feComposite in2="hardAlpha" operator="out"/>
<feColorMatrix type="matrix" values="0 0 0 0 0 0 0 0 0 0 0 0 0 0 0 0 0 0 0.25 0"/>
<feBlend mode="normal" in2="BackgroundImageFix" result="effect1_dropShadow_939_5004"/>
<feBlend mode="normal" in="SourceGraphic" in2="effect1_dropShadow_939_5004" result="shape"/>
</filter>
<filter id="filter4_d_939_5004" x="145.892" y="28.2539" width="17.3068" height="11.4201" filterUnits="userSpaceOnUse" color-interpolation-filters="sRGB">
<feFlood flood-opacity="0" result="BackgroundImageFix"/>
<feColorMatrix in="SourceAlpha" type="matrix" values="0 0 0 0 0 0 0 0 0 0 0 0 0 0 0 0 0 0 127 0" result="hardAlpha"/>
<feOffset dy="4.40537"/>
<feGaussianBlur stdDeviation="2.20268"/>
<feComposite in2="hardAlpha" operator="out"/>
<feColorMatrix type="matrix" values="0 0 0 0 0 0 0 0 0 0 0 0 0 0 0 0 0 0 0.25 0"/>
<feBlend mode="normal" in2="BackgroundImageFix" result="effect1_dropShadow_939_5004"/>
<feBlend mode="normal" in="SourceGraphic" in2="effect1_dropShadow_939_5004" result="shape"/>
</filter>
<filter id="filter5_d_939_5004" x="153.563" y="29.1328" width="21.7951" height="12.7834" filterUnits="userSpaceOnUse" color-interpolation-filters="sRGB">
<feFlood flood-opacity="0" result="BackgroundImageFix"/>
<feColorMatrix in="SourceAlpha" type="matrix" values="0 0 0 0 0 0 0 0 0 0 0 0 0 0 0 0 0 0 127 0" result="hardAlpha"/>
<feOffset dy="4.40537"/>
<feGaussianBlur stdDeviation="2.20268"/>
<feComposite in2="hardAlpha" operator="out"/>
<feColorMatrix type="matrix" values="0 0 0 0 0 0 0 0 0 0 0 0 0 0 0 0 0 0 0.25 0"/>
<feBlend mode="normal" in2="BackgroundImageFix" result="effect1_dropShadow_939_5004"/>
<feBlend mode="normal" in="SourceGraphic" in2="effect1_dropShadow_939_5004" result="shape"/>
</filter>
<filter id="filter6_d_939_5004" x="133.438" y="34.6172" width="22.2443" height="12.9279" filterUnits="userSpaceOnUse" color-interpolation-filters="sRGB">
<feFlood flood-opacity="0" result="BackgroundImageFix"/>
<feColorMatrix in="SourceAlpha" type="matrix" values="0 0 0 0 0 0 0 0 0 0 0 0 0 0 0 0 0 0 127 0" result="hardAlpha"/>
<feOffset dy="4.40537"/>
<feGaussianBlur stdDeviation="2.20268"/>
<feComposite in2="hardAlpha" operator="out"/>
<feColorMatrix type="matrix" values="0 0 0 0 0 0 0 0 0 0 0 0 0 0 0 0 0 0 0.25 0"/>
<feBlend mode="normal" in2="BackgroundImageFix" result="effect1_dropShadow_939_5004"/>
<feBlend mode="normal" in="SourceGraphic" in2="effect1_dropShadow_939_5004" result="shape"/>
</filter>
<filter id="filter7_d_939_5004" x="124.278" y="39.125" width="20.7287" height="11.0568" filterUnits="userSpaceOnUse" color-interpolation-filters="sRGB">
<feFlood flood-opacity="0" result="BackgroundImageFix"/>
<feColorMatrix in="SourceAlpha" type="matrix" values="0 0 0 0 0 0 0 0 0 0 0 0 0 0 0 0 0 0 127 0" result="hardAlpha"/>
<feOffset dy="4.40537"/>
<feGaussianBlur stdDeviation="2.20268"/>
<feComposite in2="hardAlpha" operator="out"/>
<feColorMatrix type="matrix" values="0 0 0 0 0 0 0 0 0 0 0 0 0 0 0 0 0 0 0.25 0"/>
<feBlend mode="normal" in2="BackgroundImageFix" result="effect1_dropShadow_939_5004"/>
<feBlend mode="normal" in="SourceGraphic" in2="effect1_dropShadow_939_5004" result="shape"/>
</filter>
<filter id="filter8_d_939_5004" x="143.88" y="42.2773" width="15.9318" height="10.4631" filterUnits="userSpaceOnUse" color-interpolation-filters="sRGB">
<feFlood flood-opacity="0" result="BackgroundImageFix"/>
<feColorMatrix in="SourceAlpha" type="matrix" values="0 0 0 0 0 0 0 0 0 0 0 0 0 0 0 0 0 0 127 0" result="hardAlpha"/>
<feOffset dy="4.40537"/>
<feGaussianBlur stdDeviation="2.20268"/>
<feComposite in2="hardAlpha" operator="out"/>
<feColorMatrix type="matrix" values="0 0 0 0 0 0 0 0 0 0 0 0 0 0 0 0 0 0 0.25 0"/>
<feBlend mode="normal" in2="BackgroundImageFix" result="effect1_dropShadow_939_5004"/>
<feBlend mode="normal" in="SourceGraphic" in2="effect1_dropShadow_939_5004" result="shape"/>
</filter>
<filter id="filter9_d_939_5004" x="151.126" y="42.2695" width="19.5959" height="12.2014" filterUnits="userSpaceOnUse" color-interpolation-filters="sRGB">
<feFlood flood-opacity="0" result="BackgroundImageFix"/>
<feColorMatrix in="SourceAlpha" type="matrix" values="0 0 0 0 0 0 0 0 0 0 0 0 0 0 0 0 0 0 127 0" result="hardAlpha"/>
<feOffset dy="4.40537"/>
<feGaussianBlur stdDeviation="2.20268"/>
<feComposite in2="hardAlpha" operator="out"/>
<feColorMatrix type="matrix" values="0 0 0 0 0 0 0 0 0 0 0 0 0 0 0 0 0 0 0.25 0"/>
<feBlend mode="normal" in2="BackgroundImageFix" result="effect1_dropShadow_939_5004"/>
<feBlend mode="normal" in="SourceGraphic" in2="effect1_dropShadow_939_5004" result="shape"/>
</filter>
<filter id="filter10_d_939_5004" x="188.36" y="58.2148" width="14.6389" height="10.7326" filterUnits="userSpaceOnUse" color-interpolation-filters="sRGB">
<feFlood flood-opacity="0" result="BackgroundImageFix"/>
<feColorMatrix in="SourceAlpha" type="matrix" values="0 0 0 0 0 0 0 0 0 0 0 0 0 0 0 0 0 0 127 0" result="hardAlpha"/>
<feOffset dy="4.40537"/>
<feGaussianBlur stdDeviation="2.20268"/>
<feComposite in2="hardAlpha" operator="out"/>
<feColorMatrix type="matrix" values="0 0 0 0 0 0 0 0 0 0 0 0 0 0 0 0 0 0 0.25 0"/>
<feBlend mode="normal" in2="BackgroundImageFix" result="effect1_dropShadow_939_5004"/>
<feBlend mode="normal" in="SourceGraphic" in2="effect1_dropShadow_939_5004" result="shape"/>
</filter>
<filter id="filter11_d_939_5004" x="193.497" y="58.3398" width="22.4201" height="12.1935" filterUnits="userSpaceOnUse" color-interpolation-filters="sRGB">
<feFlood flood-opacity="0" result="BackgroundImageFix"/>
<feColorMatrix in="SourceAlpha" type="matrix" values="0 0 0 0 0 0 0 0 0 0 0 0 0 0 0 0 0 0 127 0" result="hardAlpha"/>
<feOffset dy="4.40537"/>
<feGaussianBlur stdDeviation="2.20268"/>
<feComposite in2="hardAlpha" operator="out"/>
<feColorMatrix type="matrix" values="0 0 0 0 0 0 0 0 0 0 0 0 0 0 0 0 0 0 0.25 0"/>
<feBlend mode="normal" in2="BackgroundImageFix" result="effect1_dropShadow_939_5004"/>
<feBlend mode="normal" in="SourceGraphic" in2="effect1_dropShadow_939_5004" result="shape"/>
</filter>
<filter id="filter12_d_939_5004" x="215.895" y="66.1016" width="15.217" height="10.4592" filterUnits="userSpaceOnUse" color-interpolation-filters="sRGB">
<feFlood flood-opacity="0" result="BackgroundImageFix"/>
<feColorMatrix in="SourceAlpha" type="matrix" values="0 0 0 0 0 0 0 0 0 0 0 0 0 0 0 0 0 0 127 0" result="hardAlpha"/>
<feOffset dy="4.40537"/>
<feGaussianBlur stdDeviation="2.20268"/>
<feComposite in2="hardAlpha" operator="out"/>
<feColorMatrix type="matrix" values="0 0 0 0 0 0 0 0 0 0 0 0 0 0 0 0 0 0 0.25 0"/>
<feBlend mode="normal" in2="BackgroundImageFix" result="effect1_dropShadow_939_5004"/>
<feBlend mode="normal" in="SourceGraphic" in2="effect1_dropShadow_939_5004" result="shape"/>
</filter>
<filter id="filter13_d_939_5004" x="207.665" y="67.6641" width="19.342" height="11.3654" filterUnits="userSpaceOnUse" color-interpolation-filters="sRGB">
<feFlood flood-opacity="0" result="BackgroundImageFix"/>
<feColorMatrix in="SourceAlpha" type="matrix" values="0 0 0 0 0 0 0 0 0 0 0 0 0 0 0 0 0 0 127 0" result="hardAlpha"/>
<feOffset dy="4.40537"/>
<feGaussianBlur stdDeviation="2.20268"/>
<feComposite in2="hardAlpha" operator="out"/>
<feColorMatrix type="matrix" values="0 0 0 0 0 0 0 0 0 0 0 0 0 0 0 0 0 0 0.25 0"/>
<feBlend mode="normal" in2="BackgroundImageFix" result="effect1_dropShadow_939_5004"/>
<feBlend mode="normal" in="SourceGraphic" in2="effect1_dropShadow_939_5004" result="shape"/>
</filter>
<filter id="filter14_d_939_5004" x="175.626" y="71.2031" width="17.3068" height="11.4201" filterUnits="userSpaceOnUse" color-interpolation-filters="sRGB">
<feFlood flood-opacity="0" result="BackgroundImageFix"/>
<feColorMatrix in="SourceAlpha" type="matrix" values="0 0 0 0 0 0 0 0 0 0 0 0 0 0 0 0 0 0 127 0" result="hardAlpha"/>
<feOffset dy="4.40537"/>
<feGaussianBlur stdDeviation="2.20268"/>
<feComposite in2="hardAlpha" operator="out"/>
<feColorMatrix type="matrix" values="0 0 0 0 0 0 0 0 0 0 0 0 0 0 0 0 0 0 0.25 0"/>
<feBlend mode="normal" in2="BackgroundImageFix" result="effect1_dropShadow_939_5004"/>
<feBlend mode="normal" in="SourceGraphic" in2="effect1_dropShadow_939_5004" result="shape"/>
</filter>
<filter id="filter15_d_939_5004" x="183.298" y="72.0898" width="21.7951" height="12.7834" filterUnits="userSpaceOnUse" color-interpolation-filters="sRGB">
<feFlood flood-opacity="0" result="BackgroundImageFix"/>
<feColorMatrix in="SourceAlpha" type="matrix" values="0 0 0 0 0 0 0 0 0 0 0 0 0 0 0 0 0 0 127 0" result="hardAlpha"/>
<feOffset dy="4.40537"/>
<feGaussianBlur stdDeviation="2.20268"/>
<feComposite in2="hardAlpha" operator="out"/>
<feColorMatrix type="matrix" values="0 0 0 0 0 0 0 0 0 0 0 0 0 0 0 0 0 0 0.25 0"/>
<feBlend mode="normal" in2="BackgroundImageFix" result="effect1_dropShadow_939_5004"/>
<feBlend mode="normal" in="SourceGraphic" in2="effect1_dropShadow_939_5004" result="shape"/>
</filter>
<filter id="filter16_d_939_5004" x="163.177" y="77.5703" width="22.2443" height="12.9279" filterUnits="userSpaceOnUse" color-interpolation-filters="sRGB">
<feFlood flood-opacity="0" result="BackgroundImageFix"/>
<feColorMatrix in="SourceAlpha" type="matrix" values="0 0 0 0 0 0 0 0 0 0 0 0 0 0 0 0 0 0 127 0" result="hardAlpha"/>
<feOffset dy="4.40537"/>
<feGaussianBlur stdDeviation="2.20268"/>
<feComposite in2="hardAlpha" operator="out"/>
<feColorMatrix type="matrix" values="0 0 0 0 0 0 0 0 0 0 0 0 0 0 0 0 0 0 0.25 0"/>
<feBlend mode="normal" in2="BackgroundImageFix" result="effect1_dropShadow_939_5004"/>
<feBlend mode="normal" in="SourceGraphic" in2="effect1_dropShadow_939_5004" result="shape"/>
</filter>
<filter id="filter17_d_939_5004" x="154.013" y="82.0781" width="20.7287" height="11.0568" filterUnits="userSpaceOnUse" color-interpolation-filters="sRGB">
<feFlood flood-opacity="0" result="BackgroundImageFix"/>
<feColorMatrix in="SourceAlpha" type="matrix" values="0 0 0 0 0 0 0 0 0 0 0 0 0 0 0 0 0 0 127 0" result="hardAlpha"/>
<feOffset dy="4.40537"/>
<feGaussianBlur stdDeviation="2.20268"/>
<feComposite in2="hardAlpha" operator="out"/>
<feColorMatrix type="matrix" values="0 0 0 0 0 0 0 0 0 0 0 0 0 0 0 0 0 0 0.25 0"/>
<feBlend mode="normal" in2="BackgroundImageFix" result="effect1_dropShadow_939_5004"/>
<feBlend mode="normal" in="SourceGraphic" in2="effect1_dropShadow_939_5004" result="shape"/>
</filter>
<filter id="filter18_d_939_5004" x="173.614" y="85.2305" width="15.9318" height="10.4631" filterUnits="userSpaceOnUse" color-interpolation-filters="sRGB">
<feFlood flood-opacity="0" result="BackgroundImageFix"/>
<feColorMatrix in="SourceAlpha" type="matrix" values="0 0 0 0 0 0 0 0 0 0 0 0 0 0 0 0 0 0 127 0" result="hardAlpha"/>
<feOffset dy="4.40537"/>
<feGaussianBlur stdDeviation="2.20268"/>
<feComposite in2="hardAlpha" operator="out"/>
<feColorMatrix type="matrix" values="0 0 0 0 0 0 0 0 0 0 0 0 0 0 0 0 0 0 0.25 0"/>
<feBlend mode="normal" in2="BackgroundImageFix" result="effect1_dropShadow_939_5004"/>
<feBlend mode="normal" in="SourceGraphic" in2="effect1_dropShadow_939_5004" result="shape"/>
</filter>
<filter id="filter19_d_939_5004" x="180.864" y="85.2227" width="19.5959" height="12.2014" filterUnits="userSpaceOnUse" color-interpolation-filters="sRGB">
<feFlood flood-opacity="0" result="BackgroundImageFix"/>
<feColorMatrix in="SourceAlpha" type="matrix" values="0 0 0 0 0 0 0 0 0 0 0 0 0 0 0 0 0 0 127 0" result="hardAlpha"/>
<feOffset dy="4.40537"/>
<feGaussianBlur stdDeviation="2.20268"/>
<feComposite in2="hardAlpha" operator="out"/>
<feColorMatrix type="matrix" values="0 0 0 0 0 0 0 0 0 0 0 0 0 0 0 0 0 0 0.25 0"/>
<feBlend mode="normal" in2="BackgroundImageFix" result="effect1_dropShadow_939_5004"/>
<feBlend mode="normal" in="SourceGraphic" in2="effect1_dropShadow_939_5004" result="shape"/>
</filter>
</defs>
</svg>
