<svg width="100%" height="100%" viewBox="0 0 225 139" fill="none" xmlns="http://www.w3.org/2000/svg">
<path d="M131.982 7.25744L124.406 14.4064L125.046 20.8084L125.687 27.1038L141.692 36.8135C171.995 55.0594 192.055 66.1562 194.829 66.1562C197.069 66.1562 219.157 55.6996 221.397 53.4589C221.824 53.1388 222.358 50.7913 222.678 48.5506C222.891 46.2032 223.425 43.429 223.851 42.362C224.278 41.295 224.492 40.3347 224.278 40.1213C222.358 38.6275 165.913 7.04404 161.431 5.01673C156.203 2.66931 145.106 -0.104912 141.052 0.00179291C140.198 0.10849 136.143 3.30951 131.982 7.25744ZM153.429 8.96465C178.29 22.3022 201.551 35.1063 203.472 36.4934C205.392 37.8806 205.285 38.3074 200.377 45.6697C197.603 49.9377 194.935 53.3522 194.615 53.3522C194.189 53.3522 192.908 52.712 191.841 51.8584C190.667 51.0047 183.945 47.2702 176.903 43.5357C169.861 39.8012 157.163 32.4388 148.734 27.3172C140.305 22.0888 131.982 17.394 130.275 16.8605C128.674 16.2203 127.287 15.4734 127.287 15.1533C127.287 14.2997 140.518 2.1358 141.158 2.45591C141.478 2.56261 147.027 5.55023 153.429 8.96465ZM165.913 9.28476C169.007 10.992 179.037 16.6471 188.107 21.8754C197.176 26.9971 207.099 32.6522 209.98 34.2527C214.675 36.9202 214.995 37.347 212.434 37.347C210.727 37.347 199.203 31.5852 184.265 23.3693C170.288 15.6868 156.737 8.32445 154.282 7.15074C151.828 5.97703 150.014 4.58992 150.335 4.16312C151.081 2.98941 159.297 5.65693 165.913 9.28476ZM131.769 19.8481C133.689 20.8084 142.119 25.8234 150.655 30.8383C159.297 35.9599 172.635 43.6424 180.424 47.9104C188.213 52.1785 194.935 56.3398 195.256 57.1934C195.576 58.047 195.469 59.9676 195.149 61.4614C194.615 63.4887 193.975 64.0222 192.588 63.4887C189.28 62.315 154.603 42.4687 140.945 33.9326C127.714 25.7167 127.287 25.3966 127.287 21.7687C127.287 17.6074 127.394 17.6074 131.769 19.8481ZM217.663 40.7615C221.077 41.7218 221.184 41.9352 220.544 46.2032C219.69 52.2852 219.37 53.3522 217.876 53.3522C217.129 53.3522 216.916 52.2852 217.129 50.7913C218.09 45.6697 216.596 45.3496 208.486 49.0841L200.911 52.6053V57.0867C200.911 59.6475 200.27 62.2083 199.417 62.8485C198.136 63.9155 197.816 63.382 197.176 59.7542C196.536 55.6996 196.856 54.7393 201.017 48.764C208.807 37.347 207.953 37.7739 217.663 40.7615ZM214.995 51.9651C214.035 57.0867 210.514 58.2604 210.514 53.5656C210.514 50.0444 211.261 49.0841 213.715 49.0841C215.102 49.0841 215.422 49.7243 214.995 51.9651ZM208.38 54.7393C208.38 57.5135 207.74 58.5805 205.712 59.5408C203.151 60.7145 203.045 60.6078 203.045 57.0867C203.045 54.7393 203.685 53.0321 204.965 52.3919C207.846 50.6846 208.38 51.0047 208.38 54.7393Z" fill="white"/>
<path d="M144.894 11.3172C138.706 14.4115 138.386 15.4785 142.76 18.146C144.894 19.4264 146.708 20.3868 146.922 20.1733C148.522 18.3594 150.763 12.2775 150.336 11.1038C149.589 9.18317 148.842 9.18317 144.894 11.3172ZM148.629 13.878C148.629 15.2651 147.882 16.012 146.708 16.012C143.721 16.012 143.081 14.8383 145.215 13.2378C147.775 11.2105 148.629 11.4239 148.629 13.878Z" fill="#FFB84D"/>
<path d="M165.168 20.4906C158.66 22.7313 156.419 26.6792 160.26 28.8132C163.568 30.5204 164.315 30.2003 167.196 24.972C170.93 18.3566 170.93 18.4633 165.168 20.4906ZM164.208 25.1854C161.007 27.4261 159.513 26.8926 162.394 24.4385C163.781 23.2648 165.275 22.6246 165.595 23.0514C165.915 23.3715 165.275 24.3318 164.208 25.1854Z" fill="#FFB84D"/>
<path d="M180.109 31.3801C176.055 33.0874 173.707 35.8616 175.308 36.8219C175.948 37.2487 177.229 36.9286 178.082 36.1817C179.363 35.1147 179.469 35.2214 178.936 36.7152C177.975 39.1693 181.39 40.1296 183.737 37.9956C184.911 36.9286 185.978 34.7946 186.191 32.9807C186.725 29.4595 185.338 29.0327 180.109 31.3801ZM183.844 32.7673C183.737 34.6879 181.923 36.5018 181.283 35.3281C180.856 34.6879 180.856 33.6209 181.176 33.0874C181.923 31.8069 183.844 31.7002 183.844 32.7673Z" fill="#FFB84D"/>
<path d="M132.52 25.6109C134.974 27.745 136.894 28.3852 136.894 27.1048C136.894 25.931 133.267 23.5836 131.559 23.5836C130.492 23.5836 130.706 24.2238 132.52 25.6109Z" fill="#FFB84D"/>
<path d="M142.443 31.0504C142.977 32.7576 151.833 37.7725 151.833 36.3854C151.833 35.3184 144.15 29.8767 142.656 29.8767C142.336 29.8767 142.23 30.4102 142.443 31.0504Z" fill="#FFB84D"/>
<path d="M159.308 40.9827C159.948 41.8363 162.189 43.5435 164.323 44.8239C169.018 47.5981 168.484 45.144 163.576 41.8363C159.628 39.1688 157.387 38.742 159.308 40.9827Z" fill="#FFB84D"/>
<path d="M177.449 51.2175C177.449 52.4979 185.985 56.8726 186.839 56.1257C187.159 55.6989 186.519 54.7386 185.345 53.885C182.464 51.751 177.449 50.0438 177.449 51.2175Z" fill="#FFB84D"/>
<path d="M207.324 43.7494C207.324 44.2829 208.071 44.8164 208.925 44.8164C209.778 44.8164 210.525 44.2829 210.525 43.7494C210.525 43.1092 209.778 42.6824 208.925 42.6824C208.071 42.6824 207.324 43.1092 207.324 43.7494Z" fill="white"/>
<path d="M109.477 31.9058C103.609 35.2135 94.2192 40.0151 88.6708 42.5759C83.2291 45.1367 78.0007 47.5908 77.1471 48.1243C76.2935 48.5511 71.492 51.2186 66.477 53.9929C61.4621 56.7671 54.4199 60.6083 50.6853 62.5289C46.9508 64.4495 43.1096 66.6902 42.256 67.4371C40.8689 68.6109 40.4421 68.6109 40.0153 67.4371C39.6951 66.3701 39.0549 66.4768 37.241 68.0774C35.2137 69.8913 7.36482 85.683 1.81638 88.1371C0.109168 88.884 -0.317635 89.6309 0.215869 91.1247C0.962774 93.152 1.06947 93.152 3.31019 90.9113C4.5906 89.6309 8.00502 87.3902 10.9926 85.8964C13.8736 84.4026 20.3823 80.7747 25.5039 77.7871C34.4668 72.4521 38.8415 71.5985 36.7075 75.4397C35.8539 77.0402 15.3674 87.9237 3.84369 92.9386C-2.34495 95.6061 -1.17124 97.2067 12.9133 105.209C18.9952 108.73 25.5039 112.358 27.3179 113.532C29.2385 114.599 39.9086 120.574 51.0054 126.656C62.209 132.845 71.8121 138.286 72.4523 138.82C73.1992 139.46 75.8667 138.393 79.9213 135.619C83.4425 133.378 90.2713 129.217 95.2862 126.443C110.331 117.907 118.547 113.105 134.766 103.502C149.063 94.9659 177.659 79.8144 182.034 78.534C183.314 78.1072 183.848 76.8268 183.848 73.7325C183.848 71.3851 184.168 68.8243 184.488 67.864C184.915 66.6902 184.595 66.1567 183.314 66.1567C182.354 66.1567 177.126 63.1691 171.684 59.4346C166.349 55.8068 160.694 52.0722 159.093 51.2186C147.89 44.9233 121.001 28.0646 120.681 27.1043C120.468 26.4641 115.666 28.4914 109.477 31.9058ZM117.693 32.9728C117.693 35.6403 117.053 36.2805 112.145 38.4145C109.051 39.695 99.8744 44.0697 91.8718 48.1243C78.1074 54.9532 77.1471 55.2733 77.1471 53.0325C77.1471 51.0052 80.2414 49.0846 97.2069 40.3352C108.197 34.68 117.267 29.9852 117.48 29.9852C117.587 29.8785 117.693 31.2656 117.693 32.9728ZM130.071 35.9604C136.046 39.5883 138.607 41.829 138.82 43.4295C139.14 45.6702 138.287 45.3501 129.537 40.3352C123.028 36.6006 119.827 34.1465 119.827 32.8661C119.827 31.7991 120.254 30.9455 120.681 30.9455C121.215 30.9455 125.376 33.1862 130.071 35.9604ZM129.324 42.7893C144.689 51.7521 145.542 52.2856 159.627 61.5686C167.096 66.4768 173.178 70.9583 173.178 71.4918C173.178 72.3454 146.716 87.4969 145.222 87.4969C144.795 87.4969 139.034 90.8046 132.311 94.8592C125.589 99.0206 117.8 103.395 114.919 104.676C107.984 107.77 108.731 107.343 91.7651 118.013C83.6559 123.028 76.1868 127.296 75.2265 127.403C74.2662 127.403 73.1992 127.83 72.8791 128.257C72.3456 128.897 54.5266 118.76 51.3255 115.986C50.3652 115.026 49.2982 114.599 48.9781 114.919C48.658 115.239 44.4967 113.318 39.6951 110.544C34.8936 107.877 30.6256 105.636 30.1988 105.636C29.772 105.636 28.8117 104.889 28.0648 104.035C27.3179 103.182 26.1442 102.435 25.2905 102.435C24.0101 102.435 9.92564 94.1123 9.92564 93.2587C9.92564 93.152 16.3277 89.6309 24.1168 85.5763C42.5761 75.8665 69.6781 61.5686 72.3456 59.9681C76.7203 57.4073 118.227 37.3475 119.187 37.3475C119.721 37.3475 124.202 39.8017 129.324 42.7893ZM148.103 46.9506C150.451 48.5511 154.398 51.1119 156.959 52.7124C159.413 54.2063 161.441 56.0202 161.441 56.5537C161.441 57.0872 162.081 57.3006 162.935 56.9805C163.788 56.6604 166.562 58.0475 169.123 59.9681C171.791 61.8887 175.312 64.5562 177.019 65.7299C179.473 67.6506 179.793 68.3975 178.833 69.4645C177.766 70.5315 175.952 69.7846 169.87 65.5165C165.602 62.6356 161.441 59.7547 160.48 59.2212C142.555 48.231 139.994 46.3104 140.847 44.1764C141.488 42.5759 141.701 42.6826 148.103 46.9506ZM75.0131 54.0996C75.0131 56.1269 73.4126 57.0872 52.7126 67.864C45.457 71.7052 39.2683 74.5861 39.0549 74.266C37.3477 72.6655 41.0823 69.8913 54.3132 63.0624C62.4224 58.7944 69.9982 54.6331 71.1719 53.7794C74.0528 51.7521 75.0131 51.8588 75.0131 54.0996ZM180.54 74.3727C179.58 76.0799 175.205 78.9608 167.843 82.6954C161.654 85.7897 153.652 90.0577 150.024 92.085C143.942 95.6061 143.302 95.7128 143.302 93.7922C143.302 91.5515 144.155 91.018 163.575 80.0278C171.364 75.5464 175.525 73.7325 177.232 74.1593C179.046 74.5861 179.58 74.266 179.58 72.7722C179.58 70.3181 180.967 68.7176 181.5 70.4248C181.821 71.1717 181.287 72.8789 180.54 74.3727ZM141.168 94.8592C141.168 96.9933 135.086 101.261 119.294 110.331C110.971 115.026 110.758 115.132 110.224 112.785C109.691 110.758 110.971 109.691 120.574 104.356C126.656 100.941 133.378 96.9933 135.512 95.4994C140.314 92.2984 141.168 92.1917 141.168 94.8592ZM14.6205 99.1273C18.2483 101.368 26.8911 106.17 33.9333 109.797C40.8689 113.425 47.2709 116.946 48.0178 117.586C49.2982 118.654 50.0451 122.708 48.8714 122.708C47.591 122.708 28.705 111.611 26.8911 109.797C25.9308 108.837 24.8637 108.197 24.5436 108.41C23.7967 109.157 4.2705 97.7402 3.73699 96.2463C2.88339 93.6855 8.11173 94.9659 14.6205 99.1273ZM106.276 117.16C103.716 118.974 75.76 135.512 75.2265 135.512C75.0131 135.512 75.0131 134.339 75.2265 132.951C75.4399 130.817 78.6409 128.363 91.5517 120.574C106.49 111.611 107.557 111.078 107.877 113.318C108.197 114.812 107.557 116.306 106.276 117.16ZM62.8492 125.482C70.8518 130.284 72.8791 131.991 72.8791 133.912C72.8791 136.259 72.2389 136.046 62.209 130.284C53.6729 125.482 51.5389 123.882 51.5389 121.855C51.5389 120.574 51.859 119.507 52.1791 119.507C52.4992 119.507 57.3008 122.175 62.8492 125.482Z" fill="white"/>
<path d="M99.4444 50.9027C98.0573 52.5032 98.2707 52.6099 100.618 51.9697C102.112 51.5429 104.886 51.2228 106.807 51.2228C108.621 51.2228 110.221 50.6893 110.221 50.1558C110.221 48.3419 101.045 48.8754 99.4444 50.9027Z" fill="#CE44FF"/>
<path d="M111.293 52.9312C107.025 56.559 107.666 57.0925 113.001 54.3183C118.229 51.5441 127.192 52.0776 131.673 55.3853C133.274 56.6657 134.874 57.1992 135.194 56.6657C136.688 54.2116 127.512 50.157 120.47 50.157C115.775 50.157 114.068 50.6905 111.293 52.9312Z" fill="#CE44FF"/>
<path d="M152.898 68.286C151.191 69.353 151.404 69.4597 155.885 69.8865C157.486 69.9932 160.26 70.42 161.967 70.9535C164.848 71.7004 164.955 71.5937 163.568 70.0999C161.541 67.9659 155.032 66.8989 152.898 68.286Z" fill="#CE44FF"/>
<path d="M138.384 70.3173C133.475 72.4513 134.863 73.4116 141.691 72.7714C146.92 72.4513 149.16 72.6647 151.188 74.0518C154.069 75.8657 156.096 76.2925 156.096 74.9054C156.096 72.1312 142.438 68.61 138.384 70.3173Z" fill="#CE44FF"/>
<path d="M76.4016 73.7422C72.9871 74.7025 71.0665 76.5164 72.2402 77.5834C72.5603 77.9035 73.5207 77.6901 74.2676 77.0499C76.0815 75.5561 80.883 75.236 85.6845 76.1963C89.099 76.9432 89.3124 76.9432 87.8186 75.3427C85.6845 73.2087 80.6696 72.4618 76.4016 73.7422Z" fill="#CE44FF"/>
<path d="M90.2711 78.108C88.3505 79.2817 86.75 80.8822 86.75 81.7358C86.75 83.6564 86.75 83.6564 91.018 80.5621C93.3654 78.8549 96.033 77.8946 98.5938 77.8946C100.941 77.8946 103.929 78.9616 106.383 80.5621C110.544 83.3363 112.358 83.8698 112.358 82.2693C112.358 81.7358 110.117 80.0286 107.45 78.5348C101.475 75.2271 95.1794 75.0137 90.2711 78.108Z" fill="#CE44FF"/>
<path d="M50.5723 86.4294C44.3837 89.3103 45.5574 90.2707 52.4929 87.9232C59.3218 85.6825 64.23 86.5361 69.1382 90.9109C72.446 93.6851 72.8728 93.8985 72.8728 92.0846C72.8728 89.3103 63.6965 84.2954 58.895 84.2954C56.8677 84.2954 53.1331 85.2557 50.5723 86.4294Z" fill="#CE44FF"/>
<path d="M31.0579 93.0495C29.3507 93.583 28.0703 94.5433 28.0703 95.1835C28.0703 95.8237 28.8172 95.9304 29.9909 95.5036C34.0456 93.6897 43.6486 93.6897 47.063 95.3969C50.9043 97.3175 51.5445 97.4242 51.5445 96.1438C51.5445 92.7294 37.5667 90.5953 31.0579 93.0495Z" fill="#CE44FF"/>
<path d="M68.3951 101.054C64.1271 102.121 66.9013 103.508 73.4101 103.508C80.0255 103.508 82.3729 102.334 78.6384 100.947C76.8245 100.2 71.276 100.307 68.3951 101.054Z" fill="#CE44FF"/>
<path d="M85.15 103.068C81.2021 105.095 79.7082 106.482 80.6685 107.336C80.9887 107.763 82.6959 107.123 84.2964 106.056C88.5644 103.281 92.4056 103.068 96.7804 105.629C101.262 108.083 101.689 108.19 101.689 106.696C101.689 105.309 93.4726 101.467 90.485 101.361C89.3113 101.361 86.9639 102.108 85.15 103.068Z" fill="#CE44FF"/>
</svg>
