<svg width="100%" height="100%" viewBox="0 0 2007 2007" fill="none" xmlns="http://www.w3.org/2000/svg">
<g clip-path="url(#clip0_311_102)">
<g filter="url(#filter0_f_311_102)">
<circle cx="841.737" cy="838.708" r="235.928" fill="#E849EB"/>
</g>
<g filter="url(#filter1_f_311_102)">
<circle cx="1247.75" cy="948.444" r="235.928" fill="#4EDFFF"/>
</g>
<g filter="url(#filter2_f_311_102)">
<circle cx="1313.59" cy="1339.1" r="235.928" fill="#5DF36C"/>
</g>
<g filter="url(#filter3_f_311_102)">
<circle cx="905.382" cy="1453.22" r="235.928" fill="#FD5B5B"/>
</g>
<g filter="url(#filter4_f_311_102)">
<circle cx="699.083" cy="1200.83" r="235.928" fill="#E458AC"/>
</g>
<g filter="url(#filter5_f_311_102)">
<circle cx="1039.26" cy="608.268" r="235.928" fill="#4D85F1"/>
</g>
<path d="M1002.84 0H1003.88C1009.74 13.9764 1015.15 36.2536 1020.01 51.5066C1027.84 76.0863 1037.48 100.831 1043.76 125.779C1045.29 131.842 1046.14 138.049 1045.89 144.315C1045.3 159.179 1032.66 159.263 1031.96 168.998C1033.91 169.284 1033.28 169.445 1034.95 168.848C1040.68 166.794 1045.86 164.685 1052.09 164.977C1058.28 165.267 1064.14 167.934 1068.29 172.551C1074.48 179.444 1075.16 186.106 1074.92 194.885C1091.89 199.61 1106.18 206.535 1121.33 215.325C1128.6 213.891 1135.71 212.495 1142.73 210.067C1148.17 203.315 1151.7 195.155 1157.7 188.834C1166.1 179.986 1177.75 173.875 1187.22 166.124C1213.58 144.547 1239.23 122.067 1265.91 100.871C1251.31 131.632 1238.54 163.692 1225.27 195.086C1219.92 207.721 1215.63 224.09 1207.66 235.248C1202.42 242.604 1194.02 247.222 1187.57 253.499L1186.69 254.375C1186.78 261.249 1188.81 268.197 1188.37 275.045C1187.4 289.872 1166.68 332.654 1159.61 349.886C1143.51 341.702 1127.63 333.791 1110.52 327.86C1078.7 316.832 1043.36 307.528 1009.59 306.518C958.571 304.995 894.424 326.871 848.751 349.089C843.577 336.563 812.733 272.358 814.173 264.744L815.641 263.871C825.155 266.888 848.122 318.425 854.674 330.11C870.585 322.8 887.26 317 903.669 310.916C903.541 300.088 904.114 291.229 907.232 280.845C893.542 266.255 876.48 254.242 857.829 247.035C856.477 257.098 855.507 267.074 855.816 277.244C856.052 284.998 855.613 296.787 862.218 302.197C864.119 303.753 866.234 304.574 868.686 303.947C873.499 302.716 880.351 300.156 882.844 295.666C883.362 288.608 875.984 284.257 872.196 278.987C870.659 276.844 870.33 275.01 870.702 272.415C872.027 270.055 872.701 269.207 875.153 268.025C877.815 268.056 879.499 268.724 881.5 270.441C893.918 281.096 895.01 291.162 896.074 306.687C885.608 312.451 873.678 315.418 862.082 317.894C859.023 314.83 856.536 311.497 854.429 307.708C841.076 283.702 842.743 251.132 849.817 225.542C868.419 231.954 883.246 241.118 898.675 253.237C905.552 258.638 912.306 264.853 920.117 268.856C907.048 242.506 875.712 228.99 850.366 217.371C849.754 210.496 848.578 204.13 845.168 198.029C835.743 181.164 816.445 176.339 799.232 171.59C794.958 187.988 795.095 207.039 803.317 222.299C810.539 235.709 824.036 238.798 837.487 242.771L835.897 258.55C830.747 254.864 824.7 252.764 818.901 250.307C812.827 247.731 804.483 244.625 800.156 239.484C790.497 228.012 781.697 196.994 775.746 181.594C765.417 154.864 755.118 128.103 744.365 101.54C764.749 118.234 784.948 135.263 805.685 151.516C819.716 162.513 834.661 172.802 848.055 184.55C863.65 198.229 855.718 206.892 879.154 217.048C886.807 213.72 894.081 209.488 901.758 206.135C911.905 201.702 922.641 198.27 933.092 194.579C932.847 190.772 932.808 187.126 933.878 183.421C935.769 176.87 939.781 170.887 945.981 167.771C952.889 164.299 961.423 164.953 968.524 167.477C970.502 168.18 970.557 168.376 972.726 167.995L973.142 166.386C969.825 162.429 966.094 158.344 963.544 153.846C960.749 148.912 959.51 143.553 959.932 137.891C961.008 123.468 968.869 104.833 973.434 90.7766C983.261 60.5177 993.621 30.4564 1002.84 0ZM1002.3 92.7101C987.787 108.179 978.2 127.735 978.869 149.324C979.257 161.89 983.32 173.22 992.661 181.874C995.75 184.736 1000.12 188.29 1003.99 189.874C1015.7 181.481 1023.28 172.019 1025.81 157.392C1028.96 139.225 1023.26 118.257 1012.49 103.449C1009.71 99.6172 1006.29 95.2933 1002.3 92.7101ZM1205.59 172.55C1190.36 176.796 1171.92 185.164 1163.8 199.542C1161.51 203.605 1160.31 208.028 1160.08 212.677C1159.75 219.418 1161.5 226.683 1162.59 233.316C1164.94 247.535 1167.79 263.178 1166.59 277.568C1165.03 296.454 1149.91 310.387 1147.59 328.711C1148.65 331.322 1149.4 331.645 1151.7 333.354L1154.17 333.926C1160.69 327.854 1176.27 287.779 1176.54 278.477C1176.88 266.319 1175 254.066 1174.81 241.891C1187.12 238.927 1195.93 233.482 1202.84 222.493C1210.56 210.218 1214.59 191 1211.14 176.758C1210.75 175.144 1210.27 174.057 1209.12 172.815C1207.96 172.7 1206.75 172.489 1205.59 172.55ZM951.747 175.386C947.421 178.183 944.518 180.385 943.45 185.65C942.831 188.713 943.436 191.77 945.342 194.265C947.468 197.049 950.641 198.675 954.108 198.877C955.545 198.962 956.988 198.936 958.424 198.909C962.131 196.559 965.012 194.625 966.166 190.182C967.05 186.782 966.529 183.633 964.641 180.675C962.977 178.068 959.734 175.971 956.682 175.578C955.049 175.368 953.389 175.391 951.747 175.386ZM1048.53 175.362C1044.48 177.642 1041.08 179.577 1039.7 184.332C1038.93 186.971 1039.3 189.61 1040.71 191.962C1042.29 194.59 1045.29 196.745 1048.29 197.394C1050.32 197.833 1052.49 197.884 1054.56 197.962C1058.11 196.286 1061.37 194.387 1062.78 190.466C1063.89 187.351 1063.91 184.51 1062.36 181.577C1060.92 178.831 1058.05 176.327 1054.97 175.657C1052.92 175.211 1050.62 175.353 1048.53 175.362ZM1003.41 190.817C992.24 198.37 981.411 206.486 971.156 215.251C961.946 223.122 925.277 258.476 922.941 269.502C922.187 273.07 923.512 275.52 925.53 278.348C931.306 286.431 940.073 293.494 947.051 300.621C965.768 295.65 984.308 292.497 1003.68 291.378C1023.25 292.024 1041.22 297.271 1060.44 299.46C1068.89 292.638 1080.76 283.299 1085.06 273.134C1085.05 270.034 1084.18 267.889 1082.51 265.32C1079.54 260.724 1075.17 257.07 1071.6 252.935C1064.19 244.346 1057.64 235.417 1049.55 227.375C1041.65 219.522 1012.62 193.726 1003.41 190.817ZM1149.45 220.429C1133.44 226.718 1097.47 245.215 1090.14 261.271L1090.43 263.362L1093.15 264.601L1094.3 263.638C1104.22 255.305 1114.4 247.586 1125.49 240.86C1131.35 237.298 1153.65 228.635 1155.89 224.48C1155.6 221.96 1155.34 222.111 1153.36 220.451L1149.45 220.429ZM1148.87 245.932C1130.83 256.155 1114.83 266.125 1099.37 280.127C1099.49 289.884 1099.1 299.968 1100.42 309.642C1105.19 312.03 1109.9 314.513 1114.94 316.3C1121.64 319.076 1128.32 321.924 1135.08 324.558C1149.51 288.916 1155.5 287.164 1150.17 246.559L1148.87 245.932ZM917.052 289.665C916.266 295.631 916.185 301.268 916.334 307.273C920.795 306.41 925.332 305.687 929.754 304.656L930.487 303.047C927.639 297.583 921.869 293.373 917.052 289.665ZM1085.4 294.739C1082.09 297.185 1077.46 299.805 1075.4 303.406C1076.62 305.084 1075.77 304.466 1078.2 304.882C1081.64 305.717 1082.61 306.603 1085.79 304.848C1087.3 302.365 1088.02 301.181 1087.2 298.169C1086.77 296.601 1086.62 295.86 1085.4 294.739Z" fill="#EBEBEB"/>
<path d="M1004.15 180.702C1002.77 180.087 1001.51 179.461 1000.3 178.544C992.183 172.381 987.895 162.657 986.752 152.761C984.796 135.853 992.142 119.499 1002.23 106.418C1004.13 107.703 1005.65 109.409 1007.11 111.163C1016.18 122.04 1021.15 137.744 1019.54 151.839C1018.22 163.437 1013.33 173.436 1004.15 180.702Z" fill="#EBEBEB"/>
<path d="M1200.97 289.641C1223.46 289.094 1246.07 289.445 1268.57 289.639C1281.04 289.745 1296.36 291.499 1308.49 288.722C1320.56 285.958 1353.35 262.406 1365.1 254.928C1412.65 224.692 1459.84 193.167 1507.5 163.318C1499.88 176.689 1485.71 190.173 1475.52 202.08C1460.8 219.257 1446.56 236.838 1432.09 254.221C1422.19 266.106 1411.72 277.572 1402.54 290.023L1668.87 289.669L1668.93 1384.45L1668.9 1718.21L1668.95 1819.38C1668.96 1838.38 1670.1 1858.26 1667.91 1877.13C1664.84 1903.56 1653.03 1928.14 1634.28 1947.03C1616.93 1964.51 1590.61 1979.58 1566.06 1983.25C1549.06 1985.78 1531.8 1985.29 1514.66 1985.29H1453.42L1235.71 1985.25L474.283 1985.27C435.341 1985.15 401.719 1974.74 373.704 1946.55C355.741 1928.48 342.007 1903.93 338.993 1878.37C336.829 1860.02 338.032 1840.57 338.042 1822.09L338.109 1723.99L338.07 1400.22L337.693 290.703L604.248 290.845C585.817 266.919 566.19 243.813 546.951 220.529C533.48 204.224 520.268 186.906 505.682 171.621C541.96 193.738 579.037 214.633 615.612 236.262C629.04 244.199 698.314 288.742 709.139 290.631C718.718 292.303 729.446 291.374 739.144 291.346C761.631 291.28 784.523 290.255 806.951 291.601L821.31 322.177L370.427 322.412L370.75 1314.08C411.021 1258.07 486.021 1229.29 507.483 1159.96C512.146 1144.9 513.747 1128.94 511.287 1113.32C506.344 1081.92 488.546 1054.1 473.95 1026.43C463.417 1006.46 453.115 985.627 446.944 963.84C430.646 906.315 444.443 846.452 478.914 798.608C537.884 716.764 637.605 689.585 721.25 641.742C739.905 631.072 756.592 617.85 773.577 604.787C730.599 671.694 644.198 694.228 578.588 732.792C551.543 748.69 526.818 768.409 505.568 791.501C486.533 812.188 471.061 835.751 463.413 862.992C455.808 890.077 453.815 919.351 459.801 946.942C468.734 988.114 492.297 1026.36 512.093 1063.15C538.778 1112.75 564.292 1157.01 530.275 1210.68C493.883 1268.1 429.649 1297.26 393.313 1351.37C385.232 1363.4 374.968 1379.84 372.436 1394.28C369.272 1412.34 370.678 1432.07 370.601 1450.41C370.468 1482.9 370.399 1515.37 370.805 1547.86C371.507 1604.05 371.042 1660.27 370.987 1716.47C370.95 1754.9 371.834 1793.67 370.487 1832.07C383.472 1805 399.064 1779.3 414.714 1753.71C437.892 1715.81 462.104 1678.52 488.793 1642.98C533.321 1583.68 582.23 1529 634.531 1476.52C682.991 1427.89 733.351 1381.08 791.885 1344.66C807.092 1335.2 822.921 1325.25 839.888 1319.34L841.319 1318.84C841.107 1319.09 840.902 1319.33 840.684 1319.57C830.841 1330.35 800.865 1348.28 787.157 1358.76C752.511 1385.25 719.208 1413.56 688.136 1444.18C589.538 1541.36 507.148 1654.61 436.242 1773.21C422.691 1795.88 410.067 1819.26 397.543 1842.51C391.418 1853.88 385.748 1865.77 379.023 1876.78C376.33 1870.96 374.219 1865.18 372.271 1859.07C372.385 1885.17 379.817 1907.43 398.55 1926.2C414.8 1942.49 436.095 1951.51 458.754 1954.3C472.176 1955.95 486.492 1955.09 500.025 1955.1L570.562 1955.09L808.727 1954.84L1532.73 1954.88C1562.03 1954.74 1589.72 1946.41 1610.65 1925.02C1626 1909.34 1634.33 1889.91 1633.77 1867.85C1633.68 1864.08 1633.43 1860.31 1633.17 1856.54C1631.97 1863.96 1630.94 1871.42 1628.71 1878.62C1614.18 1850.76 1599.68 1822.51 1583.81 1795.41C1572.62 1776.3 1560.24 1757.73 1548.32 1739.06C1479.16 1630.82 1399.94 1528.42 1307.57 1438.88C1275.49 1407.78 1240.76 1379.29 1206.62 1350.51C1194.8 1340.55 1180.13 1332.28 1170.05 1320.61C1285.92 1376.75 1416.16 1518.18 1495.16 1619.5C1517.22 1647.8 1537.71 1677.04 1558.25 1706.44C1586.74 1747.22 1616.78 1789.43 1636.86 1835.11C1636.06 1794.9 1636.64 1754.61 1636.72 1714.39L1636.8 1520.11L1636.84 1454.89C1636.86 1434.09 1638.72 1411.96 1633.25 1391.71C1623.6 1355.94 1600.24 1326.2 1573.96 1300.95C1529.61 1258.34 1462.22 1221.15 1460.2 1151.79C1459.52 1128.25 1470.46 1109.58 1481.33 1089.57C1517.49 1023.03 1557.06 968.184 1545.38 887.851C1539.24 845.568 1515.32 805.946 1484.66 776.686C1458.91 752.108 1428.82 733.88 1397.77 716.834C1351.86 691.627 1291.25 672.755 1259.14 629.804C1255.89 625.453 1251.84 620.157 1249.95 615.052C1281.61 641.554 1317.85 658.02 1354.62 675.93C1411.51 703.634 1469.75 735.274 1512.12 783.283C1568.65 847.348 1582.51 929.686 1544.58 1007.42C1523.92 1049.77 1500.82 1070.06 1497.82 1121.08C1492.6 1209.91 1584.4 1251.28 1635.3 1308.68C1636.86 1182.73 1635.74 1056.64 1635.65 930.674L1635.52 321.422L1186.96 321.873C1191.22 310.971 1196.21 300.329 1200.97 289.641ZM522.5 1112.09C528.053 1146.57 519.101 1178.59 498.767 1206.84C465.087 1253.62 398.415 1287.49 371.409 1335.25C371.462 1342.58 369.992 1357.63 372.253 1363.99L373.339 1361.71C382.043 1340.94 394.485 1324.5 410.216 1308.46C454.282 1263.54 533.264 1221.51 531.514 1149.99C531.243 1138.88 529.295 1126.99 525.052 1116.68C524.386 1115.06 523.676 1113.41 522.5 1112.09ZM1483.2 1113.97C1472.66 1135.81 1470.6 1155.44 1478.72 1178.62C1497.96 1233.57 1578.57 1277.88 1615.48 1324.67C1622.62 1333.72 1627.62 1343.3 1632.74 1353.58L1634.38 1356.49C1637.09 1351.24 1635.11 1335.79 1634.98 1329.37C1626.08 1315.23 1611.17 1302.21 1598.7 1291.12C1556.45 1253.54 1502.82 1215.61 1487.39 1158.37C1483.36 1143.39 1485.59 1128.8 1483.2 1113.97Z" fill="#EBEBEB"/>
<path d="M838.776 235.997L838.124 236.766C837.316 236.938 836.865 237.099 835.966 236.921C828.516 235.437 819.077 229.61 814.32 223.873C804.397 211.908 804.616 195.401 805.696 180.801C817.013 184.646 828.263 189.36 835.462 199.487C843.71 211.088 840.909 223.101 838.776 235.997Z" fill="#EBEBEB"/>
<path d="M1167.68 214.008C1168.72 210.721 1170.04 207.448 1171.68 204.414C1177.89 192.942 1188.45 187.118 1200.37 183.283L1202.48 183.862C1202.69 184.238 1202.94 184.593 1203.11 184.988C1205.46 190.471 1203.17 200.186 1201.37 205.788C1195.88 222.898 1189.15 228.445 1173.48 236.553C1170.87 229.15 1169.14 221.708 1167.68 214.008Z" fill="#EBEBEB"/>
<path d="M960.6 273.289C962.376 279.753 964.273 285.668 963.209 292.447C961.286 291.803 960.621 291.369 959.261 289.762C955.159 284.911 948.911 274.535 950.22 268.052C953.673 250.957 988.226 223.178 1001.97 212.32C1009.59 213.583 1021.28 224.888 1026.89 230.064C1035.28 237.81 1058.48 261.372 1057.4 273.718C1056.9 279.335 1050.07 287.175 1046.3 291.193C1045.41 292.142 1045.97 291.767 1044.21 291.822C1042.4 286.115 1045.09 279.961 1044.08 274.147C1040.91 255.896 1017.28 236.608 1003.51 226.126C1003.28 226.207 1003.02 226.25 1002.8 226.369C989.739 233.511 966.503 259.689 960.6 273.289Z" fill="#EBEBEB"/>
<path d="M1002.71 279.184C997.313 279.474 990.148 283.613 984.962 285.581C981.091 287.047 975.977 288.831 972.036 287.024C971.485 285.538 971.191 284.248 971.216 282.651C971.491 265.049 991.533 246.788 1003.05 234.893C1009.07 238.491 1014.76 246.192 1019.12 251.668C1025.01 259.057 1037.15 275.391 1035.22 285.342C1034.92 286.902 1034.09 287.08 1032.91 287.96C1023.58 287.447 1011.59 282.263 1002.71 279.184ZM1001.74 246.525C997.703 249.931 995.249 252.107 994.759 257.622C994.379 261.905 994.787 267.095 997.552 270.619C998.76 272.155 1000.57 272.982 1002.25 273.868L1003.33 273.735C1008.09 270.423 1011.91 267.667 1012.95 261.644C1013.53 258.275 1013 255.206 1010.89 252.469C1008.64 249.545 1005.33 247.36 1001.74 246.525Z" fill="#EBEBEB"/>
<path d="M1121.73 311.73C1117.29 310.007 1112.36 308.216 1109.72 303.979C1107.39 300.227 1107.11 295.919 1108.21 291.709C1111.7 278.358 1124.35 269.334 1135.49 262.523C1136.19 263.272 1136.53 263.556 1137.02 264.589C1143.54 278.519 1141.1 297.434 1134.55 310.835C1134.49 310.968 1133.31 313.279 1133.21 313.553C1132.2 316.305 1133.38 314.543 1131.67 316.612C1128.43 314.801 1125.11 313.269 1121.73 311.73ZM1126.02 278.781C1121.89 283.419 1119.22 288.211 1119.48 294.639C1119.56 296.715 1120.21 298.953 1121.67 300.494C1123.36 302.279 1125.54 302.971 1127.95 302.891C1129.14 302.852 1130.19 302.646 1131.34 302.456C1135.4 299.104 1138.13 295.986 1138.53 290.527C1138.75 287.493 1137.83 284.5 1135.69 282.29C1132.9 279.403 1129.85 278.917 1126.02 278.781Z" fill="#EBEBEB"/>
<path d="M853.146 362.777C890.599 337.758 954.598 324.356 998.83 320.871C1007.12 320.058 1016.21 321.306 1024.52 322.161C1056.61 325.46 1086.21 332.223 1116.24 344.136C1125.58 347.844 1155.91 359.257 1159.45 367.46C1159.33 370.815 1158.71 374.253 1156.01 376.566C1153.89 378.386 1141.75 371.63 1139.26 370.433C1099.78 351.449 1057.19 337.159 1013.05 335.904C960.49 335.148 899.592 348.977 855.765 378.878C854.405 373.477 853.67 368.318 853.146 362.777Z" fill="#EBEBEB"/>
<path d="M382.311 335.159C530.008 333.915 677.783 336.584 825.47 334.653C826.662 334.554 825.874 334.506 827.64 335.606C830.835 343.542 836.832 351.985 838.777 360.166C838.283 361.293 837.693 362.506 837.363 363.704C834.978 372.404 841.999 383.092 845.948 390.475C831.999 417.811 820.4 445.197 811.206 474.508C802.068 503.641 795.297 540.802 779.993 566.919C752.979 613.021 699.108 634.761 652.694 655.736C631.568 665.285 610.325 675.058 589.756 685.745C556.472 703.044 524.883 723.665 497.569 749.477C467.823 777.589 443.921 813.072 430.583 851.877C409.463 913.324 422.575 974.606 453.507 1030.07C470.966 1061.37 494.11 1093.48 492.753 1131.08C491.179 1174.73 461.212 1199.62 431.365 1227.02C414.278 1242.15 398.642 1258.03 383.311 1274.92C381.135 1236.23 382.38 1196.96 382.358 1158.21L382.619 944.323L382.311 335.159ZM643.149 366.223C639.176 385.373 634.627 405.988 616.95 417.534C613.989 419.469 610.58 420.921 607.337 422.325C620.584 426.456 629.674 432.546 636.199 445.236C640.297 453.208 641.591 462.682 643.202 471.416C643.521 473.144 643.41 472.55 644.562 474.312H644.801C647.957 456.463 650.881 438.865 666.825 427.524C670.963 424.582 675.745 422.56 680.418 420.633C667.643 415.827 658.936 408.591 653.294 395.891C649.458 387.259 647.01 377.88 644.458 368.808C644.043 367.334 644.162 367.812 643.149 366.223ZM540.212 483.765C532.897 510.868 528.211 543.236 501.63 558.787C495.627 562.301 489.425 564.006 482.701 565.47C503.17 573.347 517.104 582.934 526.298 603.466C534.606 622.019 534.414 640.821 540.668 658.788C549.522 626.356 550.609 589.284 583.539 570.625C587.678 568.279 592.221 566.756 596.692 565.172C577.69 558.842 564.49 549.775 555.276 531.618C548.383 518.035 544.963 491.541 540.212 483.765Z" fill="#EBEBEB"/>
<path d="M1163.52 388.527C1175.43 378.169 1172.68 363.614 1175.72 349.749C1176.85 344.624 1179.65 339.671 1181.98 334.995L1622.62 334.797L1621.86 970.769C1621.83 1071.09 1621.27 1171.47 1622.84 1271.78C1608.68 1256.96 1592.6 1244 1577.97 1229.62C1562.04 1214.02 1543.96 1198.21 1532.95 1178.58C1515.67 1147.73 1513.63 1112.42 1527.97 1079.97C1535.5 1062.96 1546.07 1046.85 1554.9 1030.45C1565.28 1011.15 1574.12 991.068 1579.92 969.891C1592.15 925.149 1588.1 878.717 1569.61 836.359C1530.86 747.602 1444.68 699.297 1361.59 659.11C1316.62 637.358 1271.17 616.243 1237.11 578.236C1210.57 548.627 1206.21 512.389 1196.22 475.524C1188.07 445.433 1178.96 415.78 1163.52 388.527ZM1361.65 370.141C1358.09 388.482 1354.78 406.265 1338.04 417.537C1333.62 420.508 1328.46 422.795 1323.71 425.169C1335.46 428.783 1345.31 432.656 1351.62 443.998C1357.35 454.27 1360 467.437 1361.91 478.921L1362.58 477.974C1366.82 460.315 1370.41 442.332 1386.98 431.786C1391.57 428.861 1396.78 426.919 1401.88 425.077C1385.18 417.131 1374.05 409.46 1367.66 391.354C1365.2 384.392 1363.98 377.077 1361.65 370.141ZM1458.67 479.003C1455.41 503.24 1451.52 533.168 1430.57 549.097C1420.74 556.574 1408.81 559.708 1397.09 562.854C1412.11 564.171 1425.68 570.378 1435.56 581.995C1454.06 603.745 1455.99 640.549 1459.71 667.792L1460.71 667.886C1463.38 639.828 1465.85 595.499 1488.68 575.947C1497.29 568.569 1506.28 566.139 1516.74 562.678C1498.78 558.136 1484 551.582 1474.1 534.872C1470.09 528.102 1467.39 520.546 1465.46 512.944C1463.78 506.327 1462.05 483.011 1458.67 479.003Z" fill="#EBEBEB"/>
<path d="M1075.97 654.037C1119.2 611.961 1128.53 575.051 1131.03 516.397L1132.42 515.628C1141.78 548.826 1184.7 597.923 1209.67 621.562C1214.91 626.519 1220.45 632.387 1226.49 636.282C1218.57 622.736 1196.97 602.941 1185.68 589.933C1165.85 567.083 1148.02 541.527 1132.42 515.628C1129.87 508.006 1128.95 500.357 1128.53 492.354C1141.72 520.125 1162.06 544.228 1182.84 566.586C1187.38 571.474 1192.4 577.808 1197.91 581.509C1193.57 568.818 1171.99 548.734 1162.83 537.658C1149.76 521.853 1140.21 503.737 1128.43 487.054C1117.3 471.28 1098.9 463.252 1080.2 460.246C1067.91 458.27 1055.59 460.193 1045.53 467.894C1027.47 481.715 1022.07 509.357 1019.32 530.475C1021.41 529.434 1027.37 491.923 1050.87 477.85C1068.1 467.529 1086.35 473.87 1104.04 478.619C1106.05 477.458 1107.48 476.637 1109.79 476.21L1111.1 477.407C1113.43 484.385 1105.06 493.957 1104.34 501.374C1103.68 508.226 1105.81 515.852 1106.46 522.759C1108.07 539.959 1107.84 557.189 1103.98 574.09C1101.58 584.635 1097.87 594.899 1092.46 604.287C1080.96 624.259 1036.76 675.201 1018.17 686.365C1011.38 690.439 1004.59 692.048 996.815 689.983C973.315 683.742 927.601 626.002 915.06 603.294C902.874 581.228 900.824 555.937 902.382 531.261C902.978 521.826 904.295 511.859 903.274 502.434C902.539 495.639 895.193 477.229 896.269 473.427L897.767 473.489C899.278 475.163 900.828 476.672 902.508 478.174C912.292 477.509 921.549 473.313 931.423 472.617C943.185 471.788 953.189 476.19 961.94 483.877C972.047 492.756 982.367 509.87 982.727 523.621C982.743 524.217 982.725 524.813 982.725 525.409C979.766 519.652 975.916 513.063 970.297 509.611C965.791 506.842 960.282 505.425 955.421 503.365C935.939 495.102 930.939 492.646 909.46 497.154C910.863 503.522 911.935 510.225 915.297 515.909C926.835 535.41 955.276 524.105 973.723 528.958C974.154 529.072 974.582 529.193 975.011 529.311C978.56 531.882 982.216 534.307 985.845 536.763C965.697 510.934 958.573 526.898 934.61 521.579C923.019 519.006 917.1 510.292 911.261 500.843C945.976 533.552 947.509 505.227 982.725 525.409L984.728 528.796C986.381 526.279 984.762 519.652 984.13 516.661C980.309 498.549 973.292 477.682 957.103 466.825C946.717 459.862 933.977 459.182 922.057 461.832C911.271 464.231 901.107 469.076 890.399 471.882C875.455 491.26 852.662 507.755 832.514 521.356C851.024 514.974 873.046 498.15 884.065 481.945C875.515 520.319 850.051 525.268 825.918 549.73C846.038 539.426 862.374 526.877 876.084 508.812C876.252 540.271 860.598 563.812 839.099 585.368C835.75 588.725 831.685 591.82 828.637 595.403C841.369 589.266 853.215 574.576 861.696 563.473C848.046 599.601 819.943 616.145 796.127 643.669C807.908 634.737 820.627 626.129 831.62 616.255C856.329 594.066 871.476 563.64 877.113 531.134C887.642 587.539 887.291 608.178 928.903 653.116L928.764 654.135C927.537 663.754 927.652 673.543 926.755 683.209C924.371 708.869 918.356 749.025 896.501 766.149C883.506 776.333 844.274 793.97 827.8 799.654C818.724 802.788 809.324 804.899 799.967 807.012C840.744 783.457 882.971 741.557 896.546 695.188C896.765 694.444 896.922 693.681 897.096 692.925C889.654 706.572 883.488 720.874 874.686 733.755C858.724 757.113 822.781 792.242 797.864 807.251C787.678 813.388 775.412 817.265 764.74 822.813C737.036 837.217 709.734 852.675 682.414 867.802C657.605 881.538 633.031 895.418 611.622 914.257C578.113 943.745 563.025 974.971 560.275 1018.9C557.598 1014.12 555.456 1009.1 553.737 1003.9C541.906 968.093 540.48 927.067 549.368 890.585C556.193 862.571 567.69 839.093 584.055 815.508C598.908 794.106 616.358 773.894 635.904 756.627C650.273 743.933 665.931 732.824 681.207 721.266C718.807 692.823 755.713 662.273 780.783 621.702C805.457 581.771 810.878 544.369 821.816 500.184C829.613 468.689 840.487 434.494 855.441 405.624C868.561 380.297 897.392 371.848 922.942 363.877C1003.59 338.719 1073.54 352.285 1146.74 390.56C1171.87 427.952 1180.53 491.701 1193.52 535.708C1201.92 564.171 1215.7 594.252 1231.68 619.152C1243.66 637.82 1258.15 656.107 1273.86 671.804C1288.54 686.467 1305.41 698.648 1321.3 711.922C1378.93 760.067 1446.14 817.561 1464.85 893.55C1474.72 933.624 1466.01 963.554 1445.12 997.757C1444.54 992.222 1443.74 986.887 1442.13 981.543C1429.38 938.974 1390.75 902.697 1353.8 880.019C1332.89 867.187 1310.39 857.001 1288.51 845.966C1267.92 835.578 1247.83 823.968 1226.45 815.226C1193.05 801.567 1151.72 788.808 1120.48 771.915C1114.42 768.642 1107.95 764.681 1103.35 759.499C1087.36 741.504 1081.89 708.477 1079.75 685.428C1078.85 675.726 1079.15 664.058 1076.24 654.841C1076.16 654.57 1076.06 654.304 1075.97 654.037ZM1078.62 374.992C1091.7 386.904 1109 401.459 1126 407.07C1117.72 399.707 1087.85 377.608 1078.62 374.992ZM1057.09 376.734L1058.96 377.077C1079.15 399.113 1103.55 415.557 1128.79 431.072C1135.08 434.939 1141.62 439.7 1148.44 442.514C1138.91 432.401 1113.36 418.532 1100.68 409.03C1089.42 400.589 1070.97 381.45 1058.96 377.077L1057.09 376.734ZM957.798 385.536C946.76 393.145 935.578 400.275 925.439 409.107C911.363 421.368 898.643 435.247 884.018 446.861C874.651 454.299 860.774 459.819 853.076 468.668C879.612 459.648 912.002 427.272 933.277 408.221C941.397 400.949 950.925 393.946 957.798 385.536ZM1051.52 388.082L1052.2 388.656C1060.01 397.731 1070.96 405.528 1080.09 413.346C1096.58 427.469 1140.94 467.978 1160.73 473.672C1154.89 466.459 1125.95 447.973 1115.57 439.717C1098.73 426.333 1071.99 395.928 1052.2 388.656L1051.52 388.082ZM869.833 413.969C885.015 406.91 896.787 392.849 908.031 380.84C904.938 381.201 901.765 381.74 898.757 382.575C887.442 385.714 875.829 404.097 869.833 413.969ZM862.472 437.601C869.485 435.364 876.505 431.054 882.942 427.446C910.058 412.246 931.086 394.174 952.806 372.154C939.767 377.508 918.895 399.05 906.508 408.474C892.581 419.071 875.856 426.431 862.472 437.601ZM841.849 497.481C856.016 491.805 868.967 479.677 881.844 471.537C904.68 457.106 928.597 444.952 950.901 429.504C969.944 416.315 987.017 400.353 1004.26 384.95C1022.59 402.411 1042.16 420.104 1063.55 433.718C1081.27 444.997 1106.83 457.616 1122.18 470.6C1143.48 488.607 1159.09 518.823 1182.68 532.982C1178.43 528.294 1174.28 523.506 1170.1 518.751C1151.53 496.464 1134.05 472.503 1112.23 453.266C1095.57 438.571 1076.72 426.162 1058.97 412.807C1039.09 397.849 1021.14 381.93 1003.73 364.153C986.02 381.55 967.894 397.921 948.257 413.134C934.7 423.64 920.447 433.23 906.93 443.776C895.315 452.837 884.606 463.098 873.281 472.521C863.15 480.949 851 488.134 841.849 497.481ZM925.402 489.882C927.77 492.201 937.101 490.014 940.643 490.284C951.532 491.117 961.799 497.424 970.828 502.973C968.5 499.206 965.24 496.881 961.458 494.647C950.435 488.134 937.699 486.958 925.402 489.882ZM1034.29 503.994C1046.44 495.582 1055.73 491.791 1070.76 491.564C1075.18 491.497 1079.56 491.729 1083.91 490.786L1083.78 489.763C1074.67 487.699 1064.99 488.156 1055.95 490.37C1047.49 492.44 1038.91 496.311 1034.29 503.994ZM859.865 540.704C852.641 546.376 826.734 573.806 822.471 580.662C832.882 574.629 855.92 551.8 859.865 540.704ZM887.357 626.045C865.89 665.928 851.929 694.957 817.53 726.485C750.456 787.963 651.035 804.19 592.658 876.089C586.194 884.05 578.856 893.934 575.855 903.854C579.346 900.098 582.27 895.436 585.506 891.42C593.579 881.408 602.06 871.93 611.579 863.249C663.03 816.322 732.352 793.085 789.791 754.707C825.705 730.709 853.382 697.821 873.604 659.864C879.202 649.359 884.992 637.791 887.357 626.045ZM891.162 636.211C874.818 669.768 864.342 696.97 838.797 726.128C800.153 770.243 758.09 787.846 708.327 814.579C671.628 834.295 634.867 858.065 606.503 888.866C597.946 898.16 588.146 909.093 582.779 920.6C589.73 914.396 595.349 905.196 601.385 897.993C612.1 885.209 625.252 873.757 638.572 863.772C660.717 847.172 684.392 832.717 708.905 819.897C740.456 803.398 773.209 788.88 801.938 767.554C840.165 739.178 884.037 684.534 891.162 636.211ZM1123.61 647.309L1125.58 649.145L1126.1 649.984L1127.36 651.791C1134.15 665.252 1145.84 677.766 1155.4 689.367C1181.02 720.484 1213.52 746.606 1248.73 766.115C1306.08 797.882 1379.57 816.643 1421.79 869.754C1433.26 884.185 1442.25 900.451 1447.97 918.001C1450.09 924.506 1451.32 932.508 1454.37 938.551C1454.58 938.974 1454.81 939.392 1455.02 939.813C1454.48 920.527 1446.78 901.907 1437.01 885.506C1389.83 806.295 1300.41 794.053 1229.23 746.698C1201.77 728.429 1175.92 706.854 1153.61 682.547C1144.71 672.853 1137.18 661.826 1128 652.436L1127.36 651.791L1126.1 649.984L1125.58 649.145L1123.61 647.309ZM837.343 663.018L837.057 663.312L836.396 663.856C827.867 670.995 820.525 679.613 812.309 687.133C799.408 698.944 784.508 709.935 769.799 719.41C744.555 735.669 717.568 749.168 690.989 763.07C658.136 780.255 606.178 803.121 583.92 832.378C598.44 821.192 613.292 809.834 629.276 800.809C693.735 764.402 765.526 741.273 818.308 686.431C824.646 679.846 832.961 671.467 837.057 663.312L837.343 663.018C839.052 661.775 839.297 661.603 840.079 659.658C838.403 660.26 838.207 661.518 837.343 663.018ZM1133.5 543.938C1133.91 548.309 1135.64 553.072 1137.22 557.164C1153.52 599.311 1191.82 635.553 1227.89 661.318C1235.38 666.667 1243.45 672.811 1251.86 676.524C1241.3 665.954 1228.19 657.42 1216.92 647.524C1190.57 624.383 1164.26 597.718 1145.89 567.683C1141.39 560.339 1138.27 552.199 1133.96 544.734L1133.5 543.938ZM1139.63 688.042L1140.33 689.22C1145.77 702.74 1157.49 715.946 1167.43 726.364C1222.86 784.404 1278.42 797.12 1344.1 834.375C1379.49 854.445 1417.03 881.594 1433 920.453C1437 930.172 1438.52 939.946 1441.28 949.946C1441.62 933.139 1435.41 916.862 1427.07 902.511C1383.33 827.243 1286.47 804.887 1217.15 760.549C1186.92 741.216 1162.2 717.526 1140.33 689.22L1139.63 688.042ZM743.845 698.169C759.323 693.338 776.48 680.696 789.8 671.163C820.358 649.29 847.39 622.925 865.286 589.531C869.345 581.958 873.81 573.069 875.212 564.547C869.473 572.422 864.912 581.681 859.377 589.848C839.723 618.86 817.532 645.102 789.728 666.655C775.295 677.841 758.635 686.227 744.557 697.581C744.318 697.776 744.082 697.973 743.845 698.169ZM1104.13 701.733C1105.61 719.588 1127.04 757.26 1140.57 769.408C1141.69 770.414 1142.87 771.074 1144.18 771.797C1143.14 769.892 1143.58 770.449 1142.4 769.049C1124.32 747.574 1116.17 726.412 1104.13 701.733ZM748.3 716.63C760.552 713.363 782.384 699.538 793.003 692.203C824.815 670.23 851.964 639.216 869.761 604.985C873.54 597.716 877.969 589.535 879.418 581.424C872.221 590.272 867.417 602.363 861.002 612.027C845.105 635.982 825.086 658.094 803.651 677.265C792.503 687.233 779.942 695.398 767.402 703.471C761.691 707.148 754.341 710.829 749.506 715.445C749.098 715.833 748.702 716.234 748.3 716.63ZM1141.65 583.469C1143.43 590.72 1146.89 597.782 1150.46 604.313C1177.86 654.474 1229.04 686.876 1278.83 711.776C1291.41 718.065 1304.97 725.47 1318.48 729.427C1309.67 721.193 1284.44 710.021 1272.71 703.742C1210.6 670.499 1180.05 642.395 1141.65 583.469ZM888.869 738.803C884.074 743.578 874.771 761.845 872.713 768.199C879.706 761.727 886.454 747.823 888.869 738.803ZM663.442 759.806C663.881 759.72 664.322 759.642 664.759 759.546C669.884 758.436 687.522 750.934 689.819 747.257C684.727 747.21 667.72 756.282 663.442 759.806ZM1128.78 577.263C1130.94 590.438 1135.43 602.992 1141.78 614.703C1179.39 684.022 1246.81 724.337 1317.33 753.66C1330.12 758.979 1342.92 765.767 1356.18 769.734C1348.48 762.527 1312.4 747.417 1300.59 741.681C1238.24 711.397 1183.54 672.819 1146.66 612.723C1140.01 601.888 1135.69 590.093 1129.71 578.98L1128.78 577.263ZM1095.79 636.425C1094.8 651.562 1105.67 679.213 1111.61 693.62C1126.62 730.019 1152.33 757.888 1182.83 782.062C1191.14 788.651 1200.32 796.068 1210.17 800.17C1168.03 762.08 1134.28 740.285 1111.85 684.205C1108.81 676.586 1097.66 638.673 1095.79 636.425ZM652.221 872.524C668.269 864.59 683.422 853.904 699.26 845.361C748.188 818.97 799.741 796.62 840.783 757.956C871.493 729.025 901.82 676.145 903.212 633.24C897.943 641.485 896.528 656.105 893.267 665.683C885.276 689.158 871.989 714.077 857.174 734.052C817.105 788.085 752.475 811.735 695.736 843.071C681.526 850.919 663.246 860.672 652.221 872.524ZM1124.12 608.276C1123.04 618.758 1135.12 635.713 1140.49 644.488C1174.72 700.384 1229.71 736.093 1288.17 762.491C1322.02 777.777 1355.74 791.515 1386.64 812.521C1413.45 830.747 1426.76 849.843 1445.98 874.827C1440.86 860.554 1430.1 847.234 1419.73 836.38C1374.2 788.688 1316.63 770.915 1259.63 741.743C1239.52 731.448 1219.99 719.4 1202.22 705.408C1177.1 685.618 1155.71 660.691 1138.75 633.589C1134.01 626.012 1130.66 616.617 1125.22 609.65C1124.86 609.187 1124.49 608.734 1124.12 608.276ZM1102.63 629.195C1102.63 629.743 1102.63 630.29 1102.64 630.839C1102.99 649.515 1112.98 668.978 1121.01 685.524C1157.75 761.151 1222.36 796.134 1294.48 830.161C1318.98 841.721 1344.34 853.112 1366.87 868.292C1380.03 877.155 1391.56 887.855 1403.12 898.656L1403.21 899.516L1404.54 900.475L1404.5 899.687L1403.12 898.656C1384.49 863.606 1286.35 821.041 1249.99 800.189C1229.13 788.224 1209.31 774.563 1190.68 759.34C1158.11 732.727 1132.95 700.853 1116.18 662.224C1112.6 653.966 1109.02 637.166 1103.67 630.439C1103.34 630.016 1102.98 629.61 1102.63 629.195ZM929.655 374.288C920.902 380.521 911.379 387.378 904.019 395.248L904.68 395.83C914.197 389.962 922.133 383.484 930.081 375.654L929.967 374.504L929.655 374.288ZM1083.63 495.3C1066.08 496.152 1041.41 502.904 1029.13 516.375C1026.28 519.507 1024.19 523.141 1022.09 526.798C1058.79 503.894 1061.96 533.762 1095.95 498.549C1092.6 504.184 1088.6 509.376 1083.99 514.049C1061.76 531.169 1047.46 511.413 1021.76 531.902C1028.95 529.627 1035.4 527.592 1042.96 527.128C1062.13 525.95 1083.03 533.415 1093.82 511.638C1096.56 506.097 1097.22 500.629 1097.86 494.59C1093.16 494.769 1088.29 494.688 1083.63 495.3ZM984.119 554.442C979.785 559.048 973.935 565.741 974.654 572.626C974.858 574.58 975.513 575.566 976.614 577.122C979.193 578.675 980.648 579.225 983.635 579.576C985.816 578.827 987.819 578.012 989.883 576.981C994.893 580.127 997.693 586.865 1004.23 587.087C1008.44 585.237 1010.9 581.413 1014.84 579.494C1020.75 576.613 1027.28 580.621 1030.73 573.265C1030.68 569.725 1029.95 566.911 1028.63 563.624C1025.83 559.753 1023.08 555.994 1019.82 552.489C1021.64 558.15 1024.84 565.286 1024.82 571.201C1023.07 573.104 1022.79 573.624 1020.04 573.745C1018.65 573.806 1017.01 573.42 1015.63 573.2C1009.54 576.219 1009.43 583.908 1000.68 581.352C992.4 578.937 993.231 570.57 982.992 574.082L981.014 573.218C978.174 565.49 985.955 561.072 984.119 554.442ZM1001.46 554.859C1000.84 558.266 999.883 561.325 1001.31 564.641C1002.86 565.831 1003.31 566.172 1005.3 566.584C1006.28 563.622 1006.82 561.768 1006.28 558.581C1004.57 556.331 1004.05 556.023 1001.46 554.859ZM995.04 596.634C997.243 598.999 999.048 601.657 1002.42 602.169C1004.97 601.426 1006.79 600.558 1009.04 599.221L1010.11 598.233C1005.63 596.632 999.793 596.924 995.04 596.634ZM879.614 603.499C864.144 633.589 848.029 663.5 825.378 688.93C802.377 714.753 773.866 736.581 744.535 754.767C692.506 787.028 598.438 825.181 567.819 876.951C557.094 895.085 555.36 916.611 552.465 936.912L553.705 936.879L553.272 938.692L553.331 938.67C565.016 883.911 570.506 863.784 619.946 831.819C637.245 820.636 655.776 811.23 673.924 801.512C743.206 764.416 806.846 731.244 851.951 663.69C863.554 646.311 875.662 626.125 880.425 605.657C879.88 603.682 880.354 604.285 879.614 603.499ZM988.554 611.58C984.344 613.009 973.896 617.801 969.713 616.913C967.843 616.517 965.85 615.536 963.955 615.026C969.882 625.255 979.721 633.755 991.241 636.872C999.687 639.157 1008.79 638.669 1017.17 636.346C1027 632.031 1034.09 627.07 1040.26 618.093C1028.64 613.58 1018 609.844 1005.48 613.505C998.209 615.634 995.049 610.369 988.554 611.58Z" fill="#EBEBEB"/>
<path d="M644.297 426.671C642.788 426.008 641.43 425.34 640.124 424.315C638.527 423.057 637.378 421.03 637.32 419.003C637.186 414.419 639.619 412.173 642.565 409.051C644.501 409.48 646.151 410.427 647.602 411.795C649.154 413.259 649.697 415.346 649.667 417.392C649.611 421.499 646.978 423.933 644.297 426.671Z" fill="#EBEBEB"/>
<path d="M1363.26 434.101C1361.66 431.704 1358.11 427.431 1357.79 424.579C1357.3 420.264 1359.96 417.386 1362.36 414.146C1364.1 415.895 1366.18 418.288 1366.85 420.699C1368.12 425.293 1365.17 430.087 1363.26 434.101Z" fill="#EBEBEB"/>
<path d="M1451.37 563.206C1453.91 557.252 1456.82 551.415 1459.57 545.555C1462.55 550.811 1464.37 557.804 1466.51 563.498L1459.07 583.366C1456.76 576.491 1454.35 569.823 1451.37 563.206Z" fill="#EBEBEB"/>
<path d="M540.925 576.661C537.265 575.994 534.045 575.177 531.785 571.892C530.296 569.726 530.092 567.555 530.541 565.026C531.293 560.779 534.655 558.541 538.036 556.404C539.474 556.647 540.903 556.92 542.291 557.384C544.925 558.266 546.84 560.307 548.027 562.76C549.205 565.189 549.176 567.831 548.216 570.33C546.808 573.989 544.28 575.144 540.925 576.661Z" fill="#EBEBEB"/>
<path d="M972.572 620.144C991.725 615.757 998.673 623.852 1018.85 617.574C1024.62 618.064 1030.32 618.405 1036.11 618.501C1034.84 619.424 1033.57 620.344 1032.27 621.232C1019.82 629.753 1006.76 631.617 992.115 628.873C984.634 627.202 978.942 624.203 972.572 620.144Z" fill="#EBEBEB"/>
<path d="M1054.52 911.246C1059.2 916.454 1066.69 921.711 1066.03 929.284C1065.73 932.72 1065.44 936.21 1066.23 939.607C1068.55 949.536 1078.16 959.042 1086.63 964.4C1099.61 972.615 1117.25 974.202 1132.05 970.612C1165.01 962.611 1166.71 931.679 1175.31 905.029C1179.84 890.99 1186.58 875.183 1194.37 862.643C1194.52 862.4 1194.68 862.161 1194.83 861.92C1192.47 876.435 1188.6 890.635 1185.67 905.029C1182.75 919.361 1180.73 933.837 1177.32 948.074C1159.95 1020.59 1133.48 1091.43 1100.76 1158.36C1091.43 1177.46 1082.32 1196.86 1072.06 1215.47C1063.42 1231.14 1053.52 1246.39 1045.75 1262.48L1034.46 1264.04C1053.37 1230.79 1065.97 1194.62 1077.34 1158.26C1095.41 1100.46 1108.45 1042.04 1122.56 983.257C1117.47 983.185 1112.38 983.167 1107.29 982.908C1098.63 1020.22 1089.23 1057.04 1079.34 1094.03C1065.8 1144.7 1051.23 1194.84 1030.04 1242.94C1027.62 1248.45 1023.37 1261.54 1018.57 1264.6C1018.35 1264.74 1018.1 1264.82 1017.86 1264.93L1016.66 1264.06C1018.54 1247.16 1023.33 1229.95 1025.93 1213.03C1030.94 1180.41 1034.5 1147.34 1037.86 1114.52C1040.65 1087.3 1043.86 1059.38 1043.62 1032.01C1037.83 1038.43 1031.46 1044.75 1026.34 1051.71C1021.62 1118.27 1014.36 1184 1004.58 1250.02C999.484 1202.48 991.915 1155.08 986.121 1107.6C984.005 1090.25 984.369 1062.52 979.295 1046.63C976.488 1037.85 968.492 1028.95 963.019 1021.49C964.615 1040.33 965.559 1059.19 967.423 1078.01C969.944 1103.46 973.487 1128.75 976.455 1154.14C979.508 1180.27 982.301 1206.27 986.866 1232.2C988.448 1241.19 994.089 1258.29 993.105 1266.51C989.322 1265.79 987.73 1264.54 985.631 1261.31C978.205 1249.89 974.493 1234.52 969.589 1221.81C940.29 1145.92 913.746 1062.9 903.166 982.064L890.136 983.124C896.908 1052.46 920.455 1133.82 944.419 1199.25C948.433 1210.21 952.753 1221.05 957.447 1231.74C960.714 1239.18 971.422 1257.43 972.172 1263.65C970.11 1264.04 970.007 1263.9 968.343 1262.71C959.101 1256.13 945.139 1228.54 939.174 1218.03C902.229 1152.88 868.922 1086.13 847.484 1014.15C841.766 994.96 836.28 975.359 833.687 955.463C832.613 947.212 828.321 926.365 831.008 918.918C833.182 912.889 845.945 894.081 840.508 889.647C834.414 894.275 832.48 905.339 825.312 908.271C824.076 906.211 822.031 905.21 820.489 903.287C825.009 899.579 830.949 889.238 832.119 883.499C831.324 881.357 831.876 881.584 829.591 880.518C825.261 882.415 821.971 888.24 818.38 891.553C816.14 893.62 812.459 896.882 809.431 896.707C809.219 896.394 808.98 896.096 808.798 895.765C804.157 887.394 821.134 881.012 823.049 873.213L822.041 871.614C814.958 871.588 808.441 880.638 800.515 880.244C797.751 880.104 796.967 878.981 795.19 877.151C795.356 875.009 797.795 874.187 799.631 873.186C807.445 868.927 811.058 865.373 816.428 858.441C808.686 860.74 800.923 865.242 792.901 866.263C789.765 866.663 788.165 866.224 785.721 864.284C786.979 860.722 798.163 855.199 801.879 852.834C797.358 844.976 784.802 856.279 775.918 852.984C774.465 848.725 789.914 843.859 791.915 838.62C788.955 836.195 775.139 839.588 770.826 839.964L770.457 839.224C775.927 835.743 781.878 833.059 787.697 830.218C819.709 864.893 859.239 902.767 907.733 909.943C925.615 912.589 948.494 912.412 963.474 901.337C951.734 903.616 940.409 905.176 928.424 904.281C877.491 900.474 828.568 861.734 796.321 824.224C805.333 820.867 814.427 817.721 823.494 814.51C861.83 843.151 917.493 879.648 963.48 892.013C944.096 874.597 921.468 860.822 899.554 846.858C878.857 833.669 858.136 820.353 836.853 808.127C863.643 797.214 897.168 786.514 919.565 767.936C946.434 745.649 940.194 697.908 942.892 666.492C958.164 680.477 976.292 698.571 997.946 701.107C1023.12 704.057 1044.83 682.362 1062.97 667.876C1063.69 693.653 1065.15 723.243 1074.09 747.507C1076.45 753.903 1079.83 759.688 1084.74 764.463C1105.38 784.545 1148.76 797.572 1175.59 809.969C1161.14 818.009 1147.6 828.052 1133.57 836.832C1104.41 855.086 1073.55 871.304 1048.14 894.902C1084.03 891.698 1152.95 836.223 1182.73 813.289C1189.7 816.086 1196.89 818.446 1203.96 820.976C1194.85 835.858 1185.1 851.808 1173.59 864.964C1143.11 899.784 1087.61 901.635 1044.6 904.631C1053.76 909.286 1062.34 910.864 1072.5 910.517C1102.73 909.478 1140.43 900.329 1165.61 882.984C1173.34 877.66 1179.5 871.365 1185.91 864.536C1177.1 882.427 1169.41 894.24 1151.25 903.875C1151.14 912.799 1153.23 922.683 1151.03 931.402C1148.43 941.71 1140.79 950.671 1131.47 955.602C1121.52 960.87 1109.8 961.223 1099.24 957.556C1091.92 955.018 1085.71 950.455 1082.51 943.249C1079.13 935.646 1079.93 928.245 1082.86 920.707L1083.21 919.805L1082.41 918.363L1080.14 918.577C1074.57 922.783 1075.45 931.065 1072.63 936.916C1068.97 933.117 1069.76 925.403 1069.69 920.405C1064.81 916.799 1059.92 914.004 1054.52 911.246ZM878.465 914.439C882.22 924.209 887.069 923.373 894.378 929.241L895.24 929.948C896.294 933.768 897.261 937.58 897.664 941.535C898.252 947.276 897.006 953.472 893.102 957.889C889.685 961.754 884.656 964.046 879.498 964.104C873.606 964.171 868.067 961.164 864.18 956.87C859.965 952.209 857.464 946.104 857.822 939.775C858.463 928.412 867.212 920.233 875.123 913.13C873.645 912.189 874.117 912.314 872.745 911.94C868.775 910.858 864.096 906.725 860.631 907.034C855.39 912.795 851.1 923.849 849.806 931.499C847.768 943.539 853.12 951.408 859.598 960.825C826.7 937.614 856.07 910.127 853.557 900.472C851.349 899.151 851.725 899.487 849.404 899.884C843.62 904.645 841.672 915.39 840.561 922.561C838.215 937.71 842.656 949.852 851.425 961.886C860.445 971.456 870.613 977.307 884.015 977.789C895.687 978.21 909.989 973.883 918.487 965.678C924.436 959.938 928.361 951.533 928.34 943.209C928.32 935.23 924.173 923.845 918.287 918.198C915.759 918.038 915.424 917.745 913.399 919.192L913.47 919.018C913.238 928.257 922.148 936.208 920.529 947.564C919.712 953.295 916.584 957.29 912.184 960.804C916.807 949.652 917.879 942.829 912.878 931.177C910.265 925.086 907.405 919.984 901.075 917.579L899.762 918.224C901.827 928.721 912.172 933.911 910.688 946.629C909.804 954.211 905.391 961.425 899.552 966.192L897.809 965.915C897.319 960.361 903.141 954.43 904.728 948.852C906.561 942.408 906.2 934.995 902.739 929.154C897.184 919.78 888.292 917.081 878.465 914.439ZM967.251 748.446C967.155 765.082 968.919 804.276 977.072 817.339C978.893 818.372 978.954 818.442 980.873 818.417C980.533 801.724 977.182 761.529 967.251 748.446ZM1043.12 748.372C1037.83 761.405 1023.68 804.154 1027.32 817.184C1036.02 806.496 1045.35 764.361 1043.64 750.68C1043.49 749.483 1043.49 749.663 1043.12 748.372ZM1003.74 845.652C992.74 853.567 982.39 859.697 969.897 865.089C974.699 870.293 977.276 875.677 980.077 882.098C985.141 877.157 996.38 863.684 1002.95 862.573L1004.02 863.558C1011.65 869.797 1019.39 875.847 1027.21 881.841C1030.19 875.024 1033.86 870.848 1039.26 865.824C1024.27 861.324 1014.93 856.92 1003.74 845.652ZM1002.48 877.68L1001.57 878.801C992.64 889.696 980.406 896.701 969.842 905.801C952.733 920.538 938.477 946.58 940.907 969.675C944.061 999.635 977.576 1036.32 1001.21 1053.93C1002.02 1054.53 1003.26 1055.34 1004.23 1055.61C1022.78 1034.38 1044.99 1016.44 1065.37 996.991C1060.39 980.194 1060.44 941.353 1060.43 922.832C1043.52 915.403 1028.2 899.379 1014.17 887.352C1010.63 884.311 1006.53 879.816 1002.48 877.68ZM1142.19 906.362C1141.82 906.629 1141.46 906.901 1141.09 907.162C1136.09 910.709 1133.85 909.906 1128.38 911.148C1128.68 911.385 1129.01 911.591 1129.29 911.862C1132.44 915.011 1134.13 920.817 1133.79 925.219C1133.21 932.9 1127.73 939.956 1121.92 944.617C1115.62 949.673 1109.82 951.888 1101.95 953.168L1101.03 953.548C1107.26 955.343 1116.72 955.583 1122.5 952.245C1132.25 946.61 1140.5 934.966 1142.98 924.053C1144.22 918.555 1144.03 913.471 1143.39 907.95L1142.19 906.362ZM950.989 915.101C942.634 915.854 933.177 915.856 925.204 918.445L924.463 919.862C925.525 922.741 925.751 923.469 928.04 925.454C932.093 926.497 935.082 925.021 938.541 922.969C941.599 921.156 944.482 919.078 947.345 916.977L946.74 918.177C944.176 923.135 942.891 924.264 937.624 925.872L936.719 926.14L936.477 926.895L941.117 927.726C942.142 932.335 935.65 943.546 933.602 948.001C931.707 953.924 929.916 959.818 928.393 965.851L936.779 978.459C931.031 946.404 941.164 942.559 952.308 915.139C951.269 914.825 951.699 914.731 950.989 915.101ZM1117.51 913.984C1116.46 924.466 1114.86 931.838 1106.09 938.864C1104.53 940.111 1103.03 940.879 1101.14 941.535C1099.86 941.332 1098.82 941.561 1098 940.41C1096.57 938.402 1096.17 935.115 1096.69 932.741C1097.62 928.49 1101.11 926.706 1104.5 924.625C1106.7 923.269 1108.08 922.873 1109.27 920.419C1107.96 918.243 1107.86 918.181 1105.51 917.201C1099.65 917.589 1094.69 920.409 1090.89 924.901C1090.64 925.189 1090.44 925.507 1090.21 925.809C1087.57 931.046 1085.41 937.298 1087.1 943.217C1087.86 945.847 1089.63 948.007 1092.07 949.25C1096.05 951.28 1100.65 950.781 1104.67 949.134C1113.06 945.695 1119.58 936.906 1122.65 928.621C1123.36 926.701 1123.96 924.737 1124.54 922.773C1122.35 919.633 1120.34 916.593 1117.51 913.984ZM870.392 935.371C869.51 939.234 869.102 943.686 871.448 947.19C873.41 950.12 875.921 951.52 879.176 952.707L880.744 952.256L880.556 953.65L882.096 954.154L875.242 954.226C875.946 955.694 878.704 956.478 880.203 957.198C883.992 956.331 887.582 955.567 889.928 952.119C891.373 949.995 891.418 947.894 890.665 945.51C889.464 941.712 884.656 937.929 881.064 936.534C877.82 935.273 873.831 935.45 870.392 935.371Z" fill="#EBEBEB"/>
<path d="M573.184 789.22C569.576 788.438 566.652 787.623 564.355 784.532C562.452 781.972 562.065 779.271 562.751 776.159C563.68 771.947 566.922 770.065 570.374 768.104C574.16 768.907 577.302 769.997 579.519 773.39C581.075 775.771 581.277 778.264 580.669 781.008C579.756 785.138 576.524 787.184 573.184 789.22Z" fill="#EBEBEB"/>
<path d="M1442.73 793.08C1441.05 793.041 1439.28 793.023 1437.63 792.686C1434.43 792.033 1431.28 789.258 1429.55 786.585C1427.8 783.876 1427.2 780.713 1428.13 777.6C1429.35 773.541 1432.06 771.979 1435.58 770.168C1440.38 770.411 1444.45 771.048 1447.75 774.891C1449.79 777.261 1450.83 780.268 1450.31 783.406C1449.51 788.137 1446.51 790.55 1442.73 793.08Z" fill="#EBEBEB"/>
<path d="M1138.07 1207.33C1144.15 1196.96 1150.99 1187.1 1156.97 1176.66C1171.24 1151.76 1214.21 1072.24 1212.87 1045.68C1212.35 1035.33 1210.05 1025.01 1208.79 1014.72C1205.76 989.827 1205.56 964.087 1209.25 939.293C1214.15 995.562 1221.7 1051.66 1239.54 1105.38C1241.81 1112.21 1244.79 1124.85 1250.26 1129.68C1254.02 1132.99 1261.4 1131.03 1266 1130.38C1225.58 1056.25 1210.19 983.765 1213.88 899.712C1214.72 880.657 1215.16 858.919 1220.47 840.596C1220.9 839.139 1221.37 837.701 1221.85 836.262C1220.96 848.416 1219.77 860.344 1220.54 872.551C1224.47 935.042 1253.97 1003.87 1286.47 1056.65C1294.78 1070.14 1303.28 1085.25 1313.64 1097.26C1314.53 1098.3 1315.47 1099.23 1316.46 1100.18C1310.85 1067.7 1292.61 1035.61 1277.82 1006.4C1271.25 993.424 1264.35 980.519 1258.56 967.174C1244.73 935.277 1225.72 878.29 1225.75 844.086C1235.66 863.811 1246.33 881.255 1260.99 897.885C1272.52 911.493 1284.5 924.633 1296.65 937.688C1324.33 967.454 1365.68 1007.5 1361.66 1051.76C1360.49 1064.66 1355.26 1076.66 1350.66 1088.63C1366.97 1064.54 1373.81 1038.96 1368.06 1009.99C1352.21 930.18 1258.8 908.747 1228.22 829.984C1243.21 840.65 1260.48 847.724 1276.65 856.381C1291.75 864.472 1306.05 874.152 1320.9 882.727C1368.04 909.951 1421.18 939.211 1431.02 998.188C1434.85 1021.15 1429.81 1045.97 1415.96 1064.86C1389.97 1100.3 1313.77 1123.12 1271.57 1132.81C1264.96 1134.33 1258.21 1136.41 1251.5 1137.38C1248.76 1137.77 1246.51 1137.92 1243.81 1137.3C1243.2 1134.9 1243.48 1133.34 1243.77 1130.93C1241.04 1123.84 1236.09 1118.1 1233 1111.22C1226.64 1097.06 1222.25 1081.07 1218.1 1066.13C1213.29 1078.3 1208.64 1090.62 1203.06 1102.47C1191.8 1126.4 1157.54 1190.45 1138.07 1207.33Z" fill="#EBEBEB"/>
<path d="M1495.19 863.819C1493.12 863.671 1491.03 863.474 1489.04 862.869C1485.8 861.883 1483.16 859.59 1481.6 856.603C1480.16 853.845 1479.96 850.662 1481.03 847.754C1482.76 843.048 1486.12 840.774 1490.54 838.863C1492 839.057 1493.46 839.255 1494.9 839.559C1498.39 840.302 1501.09 842.45 1502.84 845.564C1504.65 848.771 1504.85 852.291 1503.62 855.731C1502.04 860.131 1499.24 861.883 1495.19 863.819Z" fill="#EBEBEB"/>
<path d="M594.898 1078.42C586.698 1046.34 568.137 1021.28 578.346 986.988C599.171 917.049 693.612 875.135 753.153 842.594C756.83 843.499 770.383 864.963 773.629 869.414C746.783 895.301 715.802 914.138 686.907 937.307C640.914 974.182 629.327 996.114 639.481 1055.35C642.106 1070.65 645.608 1086.5 643.791 1102.09L643.615 1103.56C630.025 1099.03 617.222 1093.49 604.361 1087.26C598.356 1084.39 585.535 1079.79 582.427 1074.1C586.157 1073.02 591.652 1076.75 594.898 1078.42Z" fill="#EBEBEB"/>
<path d="M1065.44 1259.36L1063.62 1259.71C1063.5 1255.97 1077.55 1235.04 1080.49 1230.07C1097.74 1200.88 1116.59 1165.28 1129.31 1134.02C1154.12 1073.04 1174.22 1015.62 1187.22 950.717C1192.31 925.298 1195.41 899.452 1200.02 873.92C1201.66 864.802 1202.92 855.304 1205.51 846.419C1205.6 846.098 1205.7 845.777 1205.8 845.455C1207.4 856.656 1204.03 871.348 1203.1 882.826C1201.73 899.693 1200.98 916.627 1200.2 933.532C1199.24 954.55 1199.17 975.304 1200.42 996.309C1201.19 1009.17 1203.41 1022.42 1202.92 1035.28C1201.65 1068.87 1159.19 1153.76 1141.36 1184.17C1130.61 1202.51 1110.56 1240.51 1092.16 1250.84C1084.23 1255.29 1074.21 1257.06 1065.44 1259.36Z" fill="#EBEBEB"/>
<path d="M514.367 868.375C513.062 868.32 512.962 868.351 511.52 868.105C508.341 867.56 505.52 865.868 503.676 863.212C501.914 860.672 501.324 857.568 502.108 854.561C503.19 850.41 505.887 848.556 509.442 846.537C513.529 847.156 518.037 848.156 520.445 851.915C522.031 854.387 522.384 856.496 521.87 859.375C521.106 863.651 517.67 866.045 514.367 868.375Z" fill="#EBEBEB"/>
<path d="M646.855 1105.31C656.573 1086.55 650.666 1059.43 651.334 1038.78C653.094 984.333 698.896 950.874 736.224 917.814C751.182 904.566 765.07 890.878 778.482 876.07C781.272 878.644 783.59 882.07 785.975 885.037C774.966 915.375 767.903 940.21 751.184 968.902C736.23 994.566 709.872 1014.62 701.868 1043.86C700.035 1050.56 699.128 1057.62 698.724 1064.54C698.34 1071.11 698.085 1119.92 699.58 1122.5L701.268 1122.2C712.044 1107.72 708.243 1078.85 715.027 1061.57C722.51 1042.5 734.738 1025.62 745.214 1008.15C751.974 996.869 757.701 984.897 763.348 973.032C769.925 959.216 776.36 945.053 781.865 930.775C785.866 920.401 787.726 908.067 793.851 898.778L795.291 898.539C799.764 908.986 794.503 938.029 792.614 949.51C786.991 985.995 780.934 1022.11 772.791 1058.14C767.15 1083.12 758.036 1110.37 755.449 1135.66C718.839 1129.7 680.675 1120.88 646.855 1105.31Z" fill="#EBEBEB"/>
<path d="M1002.86 1041.12C989.871 1028.88 976.725 1015.77 966.257 1001.3C956.367 987.633 948.559 972.512 951.644 955.08C956.694 926.539 980.637 906.322 1003.09 890.633C1014.01 896.083 1040.95 921.236 1050.83 930.416C1052.48 951.35 1051.77 972.242 1053.84 993.252C1042.75 1002.88 1031.84 1012.68 1021.31 1022.92C1015.17 1028.89 1009.46 1035.73 1002.86 1041.12ZM1002.42 906.064C987.76 921.706 966.355 939.996 966.955 963.428C967.764 995.011 995.725 1001.76 1003.13 1023.21C1013.36 1008.29 1026.72 997.251 1038.11 983.484C1037.19 968.39 1036.46 953.314 1035.93 938.201C1030.85 933.309 1005.85 907.445 1002.42 906.064Z" fill="#EBEBEB"/>
<path d="M1134.5 959.835C1135.72 958.436 1135.15 958.932 1136.61 957.866L1138.01 956.864C1150.69 947.629 1160.34 935.344 1159.25 918.878C1158.97 914.774 1157.18 910.464 1157.82 906.446L1161.68 905.129C1162.71 905.301 1163.56 905.695 1164.52 906.083C1165.76 917.739 1162.05 933.893 1155.93 943.899C1150.61 952.615 1144.34 957.391 1134.5 959.835Z" fill="#EBEBEB"/>
<path d="M489.831 935.956C487.926 935.83 485.924 935.683 484.102 935.06C481.201 934.068 478.675 931.432 477.524 928.629C476.303 925.658 476.558 922.097 477.877 919.198C479.67 915.26 482.526 913.839 486.365 912.266C487.485 912.424 488.604 912.589 489.707 912.838C492.922 913.567 495.924 915.421 497.621 918.308C499.207 921.003 499.519 924.09 498.594 927.085C497.108 931.895 494.125 933.766 489.831 935.956Z" fill="#EBEBEB"/>
<path d="M873.66 1211.77C865.145 1204.58 858.027 1193.6 851.594 1184.49C821.597 1141.99 802.258 1097.19 791.604 1046.29C788.097 1054.52 786.541 1063.97 785.193 1072.77C779.742 1108.35 785.036 1142.32 798.352 1175.65C803.752 1189.17 810.425 1202.93 818.559 1215.02C823.937 1223.01 830.772 1230.38 835.554 1238.71C845.82 1256.59 842.51 1284.76 837.779 1303.85C846.347 1304.64 855.634 1307 864.14 1306.51L865.328 1305.41L864.534 1302.79C869.84 1302.16 928.121 1329.53 940.379 1332.82C919.797 1318.54 895.158 1311.37 873.036 1300.02C863.922 1295.35 857.378 1288.18 847.669 1284.31C858.444 1284.68 870.096 1283.12 880.549 1285.86C891.84 1288.83 930.24 1309.32 938.183 1308.07C931.106 1300.04 886.985 1285.38 873.926 1278.65C865.204 1274.16 858.192 1266.86 849.726 1261.84C883.671 1263.48 915.542 1277.8 947.495 1288.22C957.642 1291.53 968.079 1295.11 978.655 1296.68C939.044 1272.25 881.999 1267.82 846.632 1238.04C868.403 1248.42 892.41 1254.41 915.812 1260.02C938.197 1265.38 963.212 1271.52 986.15 1273.14C1035.78 1276.63 1108.67 1258.71 1155.84 1241.97C1157.71 1241.31 1159.56 1240.65 1161.45 1240.07C1140.01 1255.43 1097.11 1267.72 1071.08 1277.49C1059.88 1281.7 1046.33 1285.59 1037.44 1293.89L1037.36 1295.27C1046.79 1294.65 1056.55 1288.64 1065.48 1285.51C1083.52 1279.18 1102.06 1272.59 1120.5 1267.61C1135.54 1263.55 1146.32 1265.5 1160.76 1263.2C1148.89 1270.64 1136.2 1277.51 1123.36 1283.11C1103.55 1291.76 1082.44 1298.85 1064.4 1310.95L1066 1310.49C1081.57 1305.97 1127 1283.95 1136.74 1283.16C1137.73 1284.66 1137.8 1285.31 1138.06 1287.04C1144.47 1288.19 1151.29 1287.13 1157.94 1288.12C1145.39 1292.17 1135.92 1299.16 1124.27 1304.99C1106.79 1313.74 1088.27 1320.28 1072.1 1331.49L1071.5 1332.73C1079.05 1332.62 1123.55 1305.72 1137.68 1306.77L1138.78 1309.06C1148.94 1308.79 1158.59 1308.28 1168.58 1306.3C1167.26 1288.45 1165.85 1269.62 1166.51 1251.73C1173.48 1240.5 1182.04 1230.39 1188.96 1219.11C1206.53 1190.49 1218.91 1160.25 1230.51 1128.86C1231.36 1126.56 1230.65 1127.45 1232.56 1126.14C1236.36 1131.64 1236.85 1141.25 1237.7 1147.76C1256.65 1147.23 1275.08 1142.54 1293.22 1137.41C1341.8 1123.69 1375.61 1107.01 1417.8 1080.05C1423.96 1090.36 1432.07 1099.99 1437.3 1110.75C1430.97 1118.45 1422.24 1124.19 1414.02 1129.68C1369.92 1159.12 1306.81 1181.18 1254.15 1186.24C1248.14 1186.82 1243.71 1186.54 1237.93 1184.89C1236.44 1184.47 1235.71 1183.46 1234.51 1184.83C1233.57 1185.92 1233.47 1186.52 1233.26 1187.89C1235.23 1192.06 1240.06 1193.76 1244.17 1195.22C1246.78 1196.14 1249.21 1196.35 1251.93 1196.64C1252.43 1196.7 1252.94 1196.79 1253.45 1196.83C1254.86 1196.96 1254.5 1196.87 1256.09 1196.32L1255.6 1196.83L1256.02 1196.87C1260.46 1235.56 1262.62 1274.75 1265.72 1313.59C1266.68 1325.69 1267.04 1354.5 1271.17 1364.8C1273.81 1371.34 1283.43 1378.25 1288.84 1382.55C1294.3 1386.9 1299.92 1391.09 1305.27 1395.57C1299.55 1328.18 1279.86 1262.55 1268.31 1196.07C1312.34 1187.73 1385.15 1165.9 1420.22 1137.88C1423.6 1217.58 1437.9 1244.15 1496.25 1297.77C1557.78 1354.32 1621.11 1407.37 1624.78 1498.56C1626.52 1541.92 1613.45 1584.45 1593.46 1622.54C1581.46 1645.39 1568.76 1667.71 1562.01 1692.86C1549.33 1668.95 1532.5 1647.65 1516.18 1626.17C1471.52 1567.35 1422.05 1511.07 1368.83 1459.84C1352.53 1444.15 1335.32 1429.43 1318.5 1414.31C1303.18 1400.54 1288.51 1386.07 1272 1373.7C1239.36 1349.26 1206.09 1326.06 1168.92 1309C1123.92 1319.85 1072.47 1349.26 1044.7 1386.79C1061.08 1424.61 1075.84 1463.07 1085.45 1503.22C1089.49 1520.13 1091.46 1537.37 1095.23 1554.26C1097.14 1514.67 1073.25 1423.25 1056.91 1385.42C1065.32 1378.5 1073.6 1371.32 1082.69 1365.29C1127.14 1435.54 1171.64 1507.18 1207.28 1582.39C1256.74 1686.76 1295.72 1829.79 1310.6 1944.19L691.27 1944.73C723.552 1814.9 752.409 1683.05 810.31 1561.58C843.292 1492.38 885.517 1427.5 925.111 1361.98C933.448 1369.3 943.252 1376.35 950.684 1384.55C930.593 1425.15 914.685 1505.25 912.786 1550.73C915.395 1544.81 915.448 1535.82 916.798 1529.33C920.544 1511.36 924.464 1493.53 929.503 1475.87C932.46 1465.52 935.228 1454.96 938.952 1444.85C946.643 1423.97 956.162 1403.58 963.251 1382.53C954.773 1372.48 945.676 1363.61 935.245 1355.59C913.153 1338.6 863.946 1310.74 837.14 1306.54C826.738 1313.95 814.637 1319.19 803.597 1325.64C778.748 1340.14 753.971 1355.99 731.664 1374.22C734.489 1347.75 735.296 1321.18 736.462 1294.61C737.07 1280.76 737.08 1266.42 739.094 1252.74C741.885 1233.79 748.042 1215 753.855 1196.8C757.685 1195.88 763.265 1195.08 765.55 1191.44C769.111 1185.76 771.665 1147.29 773.053 1137.69C769.799 1137.51 765.92 1137.76 763.098 1136.03C763.282 1135.7 763.473 1135.37 763.653 1135.04C770.315 1122.79 772.283 1105.68 775.368 1092.06C778.321 1079.01 781.861 1066.07 784.43 1052.94C793.532 1006.41 799.822 959.307 809.31 912.82C815.2 928.759 816.895 945.179 819.902 961.798C822.748 977.525 826.289 993.151 830.38 1008.6C848.705 1077.81 880.815 1143.41 915.622 1205.69C925.92 1224.12 936.566 1244.38 949.879 1260.84C940.118 1258.83 928.954 1257.47 919.901 1253.26C904.282 1245.99 886.252 1213.98 876.629 1199.36C846.185 1153.1 822.356 1102.92 812.234 1048.14C808.973 1030.49 808.06 1012.68 805.204 995.047C790.547 1042.15 814.506 1111.74 836.73 1154.05C843.617 1167.16 851.861 1179.76 860.224 1191.97C864.646 1198.42 869.963 1204.91 873.66 1211.77ZM1306.36 1267.52C1306.16 1271.68 1307.42 1275.55 1309.11 1279.3C1312.86 1287.6 1319.5 1294.75 1328.13 1297.91C1324.32 1292.51 1319.67 1287.64 1315.83 1282.17C1312.51 1277.45 1310.21 1271.76 1306.36 1267.52ZM1307.11 1302.93C1307.13 1306.78 1308.55 1310.71 1309.9 1314.28C1313.64 1324.15 1319.57 1336.32 1329.59 1340.91C1328.84 1339.82 1328.12 1338.72 1327.36 1337.64C1319.63 1326.6 1314.82 1313.83 1307.11 1302.93ZM1445.47 1354.33L1446.07 1355.46C1449.49 1365.97 1459.69 1382.62 1467.67 1390.57L1469.01 1392.55C1468.73 1391.86 1468.11 1391.18 1467.67 1390.57C1465.2 1382.11 1452.22 1362.28 1446.07 1355.46L1445.47 1354.33ZM1359.86 1373.95C1360.09 1376.9 1360.65 1379.63 1361.53 1382.46C1364.16 1390.95 1369.42 1399.33 1377.38 1403.64C1375.5 1400.29 1372.79 1397.21 1370.75 1393.88C1366.78 1387.43 1363.37 1380.67 1359.86 1373.95ZM1483.24 1417.51L1483.88 1419.59L1485.65 1421.95L1486.95 1423.36L1487.82 1425.5L1488.75 1425.85C1494.65 1437.57 1505.64 1447.42 1512.82 1458.6C1535.62 1494.1 1548.38 1539.41 1548.94 1581.46C1549.12 1594.48 1548.18 1607.96 1546.56 1620.89C1545.72 1627.62 1543.08 1635.94 1543.73 1642.6L1544.64 1642.41C1550.44 1617.67 1553.55 1593.63 1551.65 1568.2C1548.18 1521.67 1525.12 1457.1 1488.75 1425.85C1488.61 1424.27 1488.12 1424.34 1486.95 1423.36L1485.65 1421.95C1485.19 1421.05 1484.52 1420.36 1483.88 1419.59L1483.24 1417.51ZM1495.09 1463.59L1496.26 1464.66C1497.57 1469.16 1500.07 1473.57 1501.82 1477.95C1506.37 1489.34 1509.37 1500.33 1510.63 1512.55C1512.63 1532.11 1503.91 1579.67 1509.8 1593.87C1513.36 1575.09 1513.79 1549.04 1513.84 1529.75C1513.89 1510.49 1510.65 1479.12 1496.26 1464.66L1495.09 1463.59ZM1392.64 1429.79C1392.54 1431.21 1392.51 1431.28 1392.56 1432.94C1392.87 1444.97 1396.88 1456.08 1405.64 1464.51C1402.75 1454.71 1396.87 1439.04 1392.64 1429.79ZM1428.63 1480.23C1428.79 1482.56 1429.22 1484.53 1429.94 1486.76C1432.18 1493.64 1435.16 1499.83 1441.84 1503.27C1438 1495.51 1433.51 1487.38 1428.63 1480.23ZM1560.75 1655.1C1575.65 1635.71 1594.25 1588.9 1601.09 1564.91C1628.05 1470.42 1585.47 1399.73 1517.85 1337.31C1485.87 1307.79 1451.21 1281.39 1429.67 1242.56C1425.35 1233.59 1421.06 1224.65 1416.25 1215.92C1417.07 1228.25 1417.85 1240.53 1420.23 1252.68C1435.56 1331.04 1490.26 1393.16 1531.17 1459.25C1557.44 1501.7 1578.18 1559.68 1572.05 1609.98C1570.14 1625.66 1564.33 1639.89 1560.75 1655.1ZM1409.18 1097.44C1405.4 1099.44 1402.59 1101.13 1401.13 1105.35C1400.04 1108.52 1399.93 1112.25 1401.62 1115.24C1402.84 1117.4 1405.42 1119.2 1407.86 1119.72C1409.23 1120 1410.78 1119.84 1412.15 1119.69C1416.13 1116.81 1420.8 1113.54 1421.5 1108.22C1421.85 1105.54 1421.5 1103.64 1419.77 1101.51C1417.38 1098.56 1412.73 1097.63 1409.18 1097.44ZM1374.9 1118.29C1371.3 1121.21 1368.73 1123.61 1368.32 1128.51C1368.07 1131.61 1369.1 1134.28 1371.21 1136.57C1373.44 1138.99 1376.61 1140.05 1379.84 1139.85C1381.31 1139.76 1382.77 1139.58 1384.24 1139.4C1387.88 1136.83 1390.77 1134.56 1391.41 1129.84C1391.83 1126.7 1390.76 1123.97 1388.65 1121.64C1386.25 1118.99 1382.76 1117.7 1379.25 1117.87C1377.79 1117.94 1376.35 1118.11 1374.9 1118.29ZM1338.71 1133.84C1333.86 1135.81 1330.52 1138.9 1328.59 1143.87C1327.6 1146.43 1327.52 1149.24 1328.69 1151.78C1329.8 1154.17 1331.51 1155.79 1334.03 1156.54C1336.65 1157.32 1340.01 1157.17 1342.73 1157.08C1346.4 1155.89 1350.67 1154.47 1352.46 1150.68C1353.66 1148.12 1353.87 1145.71 1352.89 1143.06C1351.61 1139.61 1348.39 1136.43 1344.92 1135.18C1342.96 1134.47 1340.76 1134.13 1338.71 1133.84ZM1292.52 1148.53C1288.3 1151.64 1284.58 1154.96 1283.96 1160.49C1283.66 1163.22 1284.45 1165.84 1286.3 1167.91C1289.52 1171.49 1294.21 1171.78 1298.68 1171.48C1299.43 1171.43 1300.17 1171.35 1300.91 1171.24C1304.53 1169.61 1308.47 1167.81 1309.65 1163.62C1310.53 1160.51 1310.17 1157.62 1308.4 1154.92C1306.32 1151.76 1302.57 1149.07 1298.8 1148.49C1296.72 1148.17 1294.6 1148.3 1292.52 1148.53ZM1398.54 1152.96C1394.53 1164.26 1394.77 1184.18 1393.7 1196.53C1394.48 1198.09 1393.95 1197.72 1394.74 1198.16C1400.07 1186.24 1402.34 1167.79 1400.36 1154.95L1398.54 1152.96ZM1245.29 1156.33C1241.81 1158.34 1238.47 1160.27 1237.48 1164.49C1236.85 1167.13 1237.59 1169.65 1239.19 1171.76C1241.44 1174.71 1245.25 1177.12 1248.95 1177.63C1251.31 1177.96 1253.93 1177.88 1256.3 1177.61C1259.71 1175.45 1263.11 1173.36 1264.17 1169.19C1264.82 1166.64 1264.12 1164.34 1262.48 1162.36C1259.44 1158.69 1254.4 1156.71 1249.74 1156.42C1248.26 1156.32 1246.78 1156.32 1245.29 1156.33ZM1371.4 1208.77C1371.74 1215.04 1372.89 1223.7 1377.96 1228.11C1378.44 1228.52 1378.94 1228.92 1379.46 1229.29C1377.59 1222.68 1375.41 1214.35 1371.4 1208.77ZM1403.64 1214.9C1400.58 1226.69 1397.94 1236.07 1404.1 1247.48C1406.53 1243.97 1404.48 1219.66 1403.64 1214.9ZM1285.48 1221.74C1288.24 1232.74 1292.38 1242.54 1302.54 1248.62C1303.81 1249.39 1303.61 1249.22 1305.22 1249.85C1300.77 1243.6 1290.19 1225.14 1285.48 1221.74ZM1325.17 1234.25C1326.57 1241.84 1330.82 1250.26 1337.62 1254.46C1338.89 1255.25 1339.02 1255.23 1340.23 1255.64C1336.13 1249.69 1330.78 1238.21 1325.17 1234.25ZM1361.48 1246.01C1362.47 1253.89 1365.14 1261.14 1371.55 1266.21C1372.94 1267.31 1374.24 1267.78 1375.9 1268.31C1371.44 1261.96 1367.37 1255.97 1363.84 1249.05C1363.09 1247.58 1362.77 1246.97 1361.48 1246.01ZM1388.82 1264.78C1388.29 1271.98 1390.03 1278.63 1394.75 1284.21C1396.3 1286.04 1397.69 1287 1399.81 1288.07C1397.05 1282.64 1392.48 1267.72 1388.82 1264.78ZM1002.14 1282.59C985.085 1292.21 958.698 1320.16 949.308 1337.28C953.893 1357.32 989.19 1418.77 1004.47 1431.4L1006.05 1431.09C1024.06 1410.08 1051.73 1365.75 1059.9 1339.94C1052.96 1323.92 1023.34 1291.22 1007.77 1284.37C1005.99 1283.59 1004.04 1283.03 1002.14 1282.59ZM1363.6 1289.22C1364.41 1297.89 1368.57 1307.8 1375.57 1313.34C1376.92 1314.41 1378.16 1314.99 1379.77 1315.62C1373.94 1307.83 1370.41 1295.67 1363.6 1289.22ZM1395.59 1320.78C1395.94 1330.97 1398.74 1342.19 1406.66 1349.24C1409.73 1351.98 1412.97 1353.97 1417.02 1354.75C1410.19 1347.4 1405.17 1340.51 1400.64 1331.53C1398.94 1328.15 1397.88 1323.7 1395.59 1320.78ZM1362.24 1331.46C1362.3 1336.57 1362.68 1341.17 1363.57 1346.21C1366.89 1350.01 1370.04 1354.23 1375 1355.89C1372.01 1350.99 1365.03 1333.66 1362.24 1331.46ZM1319.93 1356.9C1321.89 1365.97 1325.72 1377.23 1334.28 1382.09C1335.32 1382.68 1336.44 1383.03 1337.59 1383.3C1332.23 1376.83 1325.54 1360.8 1319.93 1356.9ZM1393.37 1364.82C1394.92 1372.68 1397.75 1382.43 1405.14 1386.84C1406.51 1387.65 1406.66 1387.64 1407.97 1388.1C1404.1 1381.79 1398.97 1368.92 1393.37 1364.82ZM1430.22 1391.08C1431.63 1398.91 1433.02 1407.44 1440.17 1412.21C1442.16 1413.54 1444.42 1414.11 1446.72 1414.67C1440.86 1408.57 1435.13 1394.68 1430.22 1391.08ZM1358.8 1402.02C1360.45 1408.13 1362.38 1413.22 1368.16 1416.49C1369.53 1417.26 1370.92 1417.84 1372.39 1418.36C1368.42 1413.98 1363.4 1404.78 1358.8 1402.02ZM1397.34 1402.07C1398.62 1409.21 1400.18 1416.3 1406.71 1420.49C1408.21 1421.46 1409.85 1421.93 1411.55 1422.46C1406.99 1417.01 1402 1405.73 1397.34 1402.07ZM1428.66 1432.41C1429.62 1441.88 1431.53 1450.84 1439.19 1457.3C1440.09 1458.06 1441.04 1458.76 1442 1459.46C1438.95 1452.17 1434.42 1437.47 1428.66 1432.41ZM1003.13 1473.68L981.193 1546.44C977.13 1559.87 969.206 1576.82 969.039 1590.74C972.495 1595.02 977.796 1597.18 981.109 1601.58C993.127 1617.54 996.2 1638.89 1004.71 1656.52C1012.8 1648.24 1018.11 1598.33 1034.7 1593.39C1035.46 1593.17 1036.2 1592.9 1036.95 1592.66C1036.88 1583.38 1007.79 1483.19 1003.13 1473.68ZM1454.98 1482.47C1456.76 1487.55 1458.35 1492.48 1459.16 1497.81C1460.69 1507.75 1461.59 1548.54 1466.96 1552.7C1467.06 1536.58 1467.72 1494.36 1455.7 1483.03C1455.48 1482.82 1455.22 1482.66 1454.98 1482.47ZM1469.29 1494.23C1469.27 1506.78 1466.99 1553.96 1474.75 1562.62C1474.99 1562.9 1475.31 1563.1 1475.59 1563.33C1474.84 1542.16 1475.64 1515.57 1470.23 1495.1L1469.29 1494.23ZM1453.12 1498.98C1454.5 1510.74 1454.56 1534.58 1460.11 1543.79C1460 1533.88 1459.56 1506.62 1453.12 1498.98ZM948.036 1588.6C941.462 1590.51 936.231 1593.92 933.05 1600.23C931.531 1603.24 931.039 1606.58 932.204 1609.8C933.072 1612.2 934.618 1614.02 936.433 1615.78C942.76 1621.91 950.455 1626.82 957.332 1632.32C965.848 1639.14 973.755 1646.85 981.651 1654.37C983.998 1656.65 985.401 1658.77 988.627 1659.52C989.509 1658.79 990.316 1658.56 990.403 1657.31C990.834 1651.1 979.695 1627.99 977.081 1620.2C974.931 1613.78 973.782 1606.46 971.113 1600.33C970.192 1598.22 968.592 1596.08 966.918 1594.51C961.611 1589.51 955.02 1588.66 948.036 1588.6ZM1048.69 1589.72C1044.29 1591.78 1040.47 1593.87 1036.5 1596.72C1032.68 1614.71 1028.23 1631.96 1022.21 1649.34C1021.17 1652.34 1018.97 1656.21 1019.89 1659.32L1021.51 1660.15C1026.28 1658.05 1030.27 1652.59 1033.82 1648.8C1043.6 1638.69 1062.47 1625.1 1069.4 1616.41C1072.08 1613.04 1074.13 1608.99 1073.97 1604.6C1073.82 1600.19 1071.38 1596.43 1068.07 1593.65C1063.17 1589.54 1056.4 1588.73 1050.23 1589.51C1049.72 1589.57 1049.21 1589.65 1048.69 1589.72ZM907.14 1612.29C900.689 1613.87 895.211 1615.51 891.48 1621.37C888.765 1625.63 886.889 1630.67 888.189 1635.74C889.655 1641.45 894.621 1645.85 899.635 1648.56C915.119 1656.91 944.892 1657.86 965.521 1667.97C968.557 1669.49 972.469 1672.14 975.909 1672.12C976.136 1669.85 975.327 1668.78 973.863 1667.11C966.816 1659.03 957.548 1653.15 950.365 1645.09C942.574 1636.34 935.543 1622.79 926.053 1616.24C921.347 1612.99 914.368 1612.49 908.766 1612.3C908.223 1612.28 907.681 1612.29 907.14 1612.29ZM1090.04 1612.2C1086.72 1613.48 1082.99 1614.72 1080.26 1617.08C1071.17 1624.94 1064.5 1636.59 1056.56 1645.68C1048.28 1655.16 1037.81 1663.7 1030.75 1674.06C1039.22 1670.31 1047.38 1665.42 1056.18 1662.54C1071.55 1657.19 1111.09 1651.13 1118.13 1637.1C1119.78 1633.82 1119.84 1630.3 1118.55 1626.91C1116.47 1621.48 1111.54 1616.14 1106.18 1613.85C1100.95 1611.61 1095.6 1611.64 1090.04 1612.2ZM1109.38 1653.29C1099.38 1657.96 1042.06 1680.54 1038.9 1685.07L1039.45 1687.07C1047.19 1689.44 1056.21 1688.74 1064.28 1689.25C1078.27 1690.15 1101.93 1692.8 1113.26 1701.27L1111.65 1703.87L1113.39 1703.38L1113.59 1701.59L1113.21 1701.33L1111.69 1703.95C1107.44 1704.69 1103.23 1705.29 1098.91 1705.17C1089.15 1704.91 1043.41 1698.38 1038.21 1701.68C1040.15 1706.49 1071.97 1718.71 1078.2 1721.35L1080.67 1722.39C1090.95 1726.69 1101.35 1730.83 1112.26 1733.23C1116.06 1729.5 1120.34 1723.61 1124.68 1720.9C1133.95 1715.11 1146.4 1712.13 1156.83 1708.91C1178.08 1702.36 1199.99 1696.84 1220.65 1688.6C1183.92 1675.41 1146.34 1665.66 1109.38 1653.29ZM895.719 1655.26L790.745 1689C814.498 1697.55 883.55 1719.14 901.385 1733.6C912.657 1729.79 923.562 1724.6 934.479 1719.88C940.51 1717.26 969.719 1706.04 972.091 1702.32C962.291 1695.45 903.663 1714.25 900.064 1701.85C901.558 1698.96 904.162 1697.95 907.095 1696.95C920.975 1692.21 937.376 1690.16 951.925 1688.16C957.117 1687.45 962.924 1687.47 967.945 1686.1C969.952 1685.56 970.454 1685.13 971.728 1683.61C970.201 1681.95 902.093 1655.1 898.584 1654.92C897.103 1654.84 896.96 1654.96 895.719 1655.26ZM998.768 1667.09C991.259 1670.49 985.301 1673.99 982.245 1682.16C979.899 1688.43 980.622 1695.64 983.655 1701.55C986.738 1707.56 992.139 1711.96 998.637 1713.79C1002.92 1715 1006.98 1714.73 1011.3 1713.98C1018.37 1711.26 1023.78 1707.27 1026.85 1700.09C1029.49 1693.91 1029.63 1686.63 1026.89 1680.46C1024.37 1674.76 1019.5 1670.53 1013.69 1668.38C1008.57 1666.49 1004.12 1666.46 998.768 1667.09ZM974.304 1712.81C949.328 1727.46 927.333 1730.51 899.819 1737.42C895.002 1743.69 863.056 1785.02 862.176 1788.97L864.63 1788.54C880.97 1782.2 915.744 1771.87 929.15 1763.41C940.23 1756.41 948.505 1743.51 957.656 1734.21C963.837 1727.93 970.932 1722.63 976.953 1716.13L977.514 1714C976.021 1712.89 976.32 1712.75 974.304 1712.81ZM1032.85 1712.65C1038.82 1721.43 1048.35 1727.45 1055.51 1735.25C1062.24 1742.59 1066.38 1752.25 1073.17 1759.4C1082 1768.71 1133.4 1785.74 1147.76 1790.6C1138.8 1778.38 1115.79 1744.01 1103.29 1738.39C1090.57 1732.66 1076.2 1730.22 1063.08 1725.44C1053.59 1721.99 1043.7 1714.9 1034.05 1712.82C1033.65 1712.74 1033.25 1712.71 1032.85 1712.65ZM1023.07 1719.44C1021.69 1720.97 1019.56 1722.43 1019.62 1724.53C1019.69 1727.02 1031.64 1770.47 1033.42 1775.04C1034.83 1778.71 1036.8 1782.22 1039.67 1784.95C1043.66 1788.73 1048.71 1790.26 1054.15 1789.91C1059.69 1789.55 1065.05 1788.41 1070.03 1785.95C1073.45 1782.56 1077.14 1778.78 1077.05 1773.59C1076.94 1767.36 1069.55 1761.62 1065.09 1757.94C1050.52 1745.91 1034.73 1734.51 1023.07 1719.44ZM988.025 1721.65C982.796 1727.88 977.722 1733.24 971.289 1738.23C960.603 1746.51 930.785 1761.12 932.309 1776.56C932.756 1781.08 936.731 1784.96 939.949 1787.76C946.617 1790.93 954.212 1792.94 961.476 1790.49C969.037 1787.93 973.62 1781.26 976.759 1774.29C979.37 1768.49 990.781 1731.4 991.794 1724.48C990.563 1723.31 989.534 1722.44 988.025 1721.65ZM1005.01 1725.25C1004.89 1725.54 1004.76 1725.82 1004.63 1726.12C1001.4 1733.69 999.662 1742.01 997.31 1749.9C992.353 1766.53 982.347 1780.74 968.345 1790.98C974.521 1814.31 982.41 1837.11 989.217 1860.25C992.043 1869.86 999.938 1903.97 1003.9 1910.19C1013.59 1870.14 1026.66 1829.79 1039.92 1790.77C1032.39 1784.25 1026.63 1777.96 1021.87 1769.14C1016.74 1759.65 1013.55 1749.16 1010.53 1738.86C1009.53 1735.45 1008.78 1730.38 1007.17 1727.3C1006.65 1726.32 1005.93 1725.77 1005.01 1725.25Z" fill="#EBEBEB"/>
<path d="M1004.56 1003.89C993.657 992.631 982.187 980.698 980.688 964.223C978.994 945.588 992.299 931.539 1003.26 918.248C1003.47 918.444 1003.69 918.628 1003.89 918.836C1022.41 938.6 1025.5 947.342 1025.55 974.021C1020.31 984.491 1011.51 994.445 1004.56 1003.89ZM1002.44 938.408C997.098 945.97 994.505 952.824 992.314 961.71C993.892 967.976 996.922 978.901 1002.64 982.401C1002.9 982.558 1003.19 982.647 1003.46 982.77C1008.37 975.689 1012.44 969.711 1014.41 961.163C1012.36 951.879 1010.07 944.696 1002.44 938.408Z" fill="#EBEBEB"/>
<path d="M1523.32 940.271C1523.01 940.239 1522.69 940.22 1522.38 940.175C1518.72 939.638 1515.2 938.732 1513.03 935.449C1511.49 933.131 1510.92 930.52 1511.54 927.766C1512.6 923.066 1515.81 920.45 1519.76 918.113C1520.65 918.276 1521.54 918.427 1522.41 918.637C1525.74 919.438 1528.3 921.118 1530.03 924.138C1531.62 926.923 1531.92 929.871 1530.84 932.917C1529.43 936.915 1526.92 938.491 1523.32 940.271Z" fill="#EBEBEB"/>
<path d="M878.476 948.648L877.231 948.603L876.496 947.748L878.405 943.152C880.073 944.221 879.277 943.505 880.624 945.473L878.476 948.648Z" fill="#EBEBEB"/>
<path d="M890.411 968.449L888.457 967.314L888.565 966.359L893.796 964.164L895.709 964.64C895.09 966.645 892.248 967.459 890.411 968.449Z" fill="#EBEBEB"/>
<path d="M515.802 1014.59C513.113 1015 510.293 1015.05 507.906 1013.53C505.622 1012.08 504.789 1010.13 504.503 1007.53C504.046 1003.38 506.193 1000.51 508.647 997.494C511.479 997.436 514.667 997.483 517.019 999.29C519.021 1000.83 520.302 1002.47 520.461 1005.08C520.712 1009.23 518.433 1011.78 515.802 1014.59Z" fill="#EBEBEB"/>
<path d="M1467.08 1055.72C1465.84 1055.72 1464.85 1055.75 1463.58 1055.58C1459.54 1055.05 1456.16 1052.93 1454.01 1049.45C1452.13 1046.4 1451.89 1042.7 1452.94 1039.32C1454.47 1034.34 1457.84 1032.18 1462.26 1029.89C1463.59 1029.93 1464.87 1030.04 1466.18 1030.32C1470.07 1031.17 1473.35 1032.95 1475.46 1036.44C1477.13 1039.22 1477.42 1042.44 1476.62 1045.54C1475.28 1050.73 1471.56 1053.31 1467.08 1055.72Z" fill="#EBEBEB"/>
<path d="M545.875 1056.57C544.337 1056.72 542.823 1056.74 541.287 1056.58C537.735 1056.19 533.649 1054.17 531.62 1051.12C529.647 1048.16 528.986 1045.06 529.907 1041.6C531.095 1037.14 534.215 1035.23 537.973 1032.98C540.458 1032.64 542.763 1032.39 545.256 1032.84C548.351 1033.41 551.439 1035.21 553.199 1037.86C554.909 1040.43 555.33 1043.5 554.581 1046.48C553.356 1051.35 549.895 1053.97 545.875 1056.57Z" fill="#EBEBEB"/>
<path d="M577.972 1093.61C578.049 1089.85 579.16 1086.1 580.001 1082.44C590.804 1087.36 600.957 1093.89 611.74 1098.98C639.215 1111.93 669.33 1122.95 698.459 1131.54C720.599 1138.06 743.416 1140.95 765.576 1147.08C765.45 1159.6 764.466 1170.88 761.762 1183.12C757.795 1184.44 753.695 1184.97 749.579 1185.64C709.154 1186.44 639.09 1159.14 601.572 1142.04C591.03 1137.24 577.682 1132.15 569.311 1123.97C566.428 1121.14 564.558 1117.75 564.684 1113.62C564.933 1105.4 572.473 1098.88 577.972 1093.61ZM581.21 1098.56C576.794 1102.12 573.278 1105.48 572.684 1111.41C572.353 1114.71 573.186 1117.98 575.307 1120.56C578.082 1123.95 582.21 1125.58 586.514 1125.82C588.174 1125.91 589.861 1125.78 591.518 1125.66C595.718 1123.13 598.82 1120.86 600.051 1115.88C600.949 1112.25 600.051 1108.53 597.909 1105.5C595.581 1102.2 591.108 1099.07 587.017 1098.62C585.108 1098.4 583.125 1098.5 581.21 1098.56ZM617.103 1116.24C613.03 1119.55 610.059 1122.5 609.63 1127.99C609.32 1131.94 610.435 1135.61 613.044 1138.6C615.478 1141.4 619.453 1143.76 623.239 1143.83C625.049 1143.86 626.891 1143.62 628.684 1143.4C632.792 1140.04 636.026 1136.79 636.597 1131.26C636.987 1127.45 635.791 1123.91 633.21 1121.09C630.631 1118.27 626.673 1116.15 622.812 1116.01C620.915 1115.94 618.994 1116.1 617.103 1116.24ZM658.309 1132.01C654.499 1134.7 651.314 1137.3 650.569 1142.18C650.079 1145.38 650.875 1148.74 652.825 1151.33C655.42 1154.77 659.514 1157.2 663.805 1157.73C665.82 1157.98 667.905 1157.71 669.91 1157.49C673.689 1155.15 676.803 1152.38 678.048 1147.95C678.879 1145 678.542 1141.82 676.997 1139.16C674.845 1135.45 670.896 1132.51 666.655 1131.72C663.971 1131.22 660.996 1131.69 658.309 1132.01ZM703.159 1143.68C698.48 1145.41 694.078 1146.97 691.77 1151.74C690.394 1154.58 690.243 1157.8 691.448 1160.75C693.145 1164.89 697.455 1167.98 701.66 1169.2C702.896 1169.56 704.155 1169.75 705.421 1169.96C710.093 1168.04 713.574 1166.11 715.669 1161.28C717.192 1157.77 717.335 1153.66 715.477 1150.23C713.739 1147.02 710.603 1144.95 707.102 1144.13C705.811 1143.83 704.474 1143.77 703.159 1143.68ZM736.839 1153.45C732.958 1155.9 730.185 1158.09 729.215 1162.79C728.58 1165.87 729.205 1168.97 731.041 1171.51C733.046 1174.29 736.206 1176.08 739.589 1176.48C741.302 1176.69 742.966 1176.67 744.687 1176.6C748.601 1174.29 751.468 1171.65 752.599 1167.08C753.357 1164.01 752.84 1160.88 751.007 1158.29C749.194 1155.72 746.368 1153.82 743.226 1153.44C741.115 1153.18 738.952 1153.28 736.839 1153.45Z" fill="#EBEBEB"/>
<path d="M1410.71 1109.89L1409.51 1110.21L1410.2 1109.02L1411.74 1108.52L1410.71 1109.89Z" fill="#EBEBEB"/>
<path d="M586.985 1117.27L584.576 1116.34C582.571 1113.9 582.691 1112.88 582.279 1109.82C584.435 1110.05 585.574 1110.45 587.422 1111.58C588.142 1114.07 587.72 1114.74 586.985 1117.27Z" fill="#EBEBEB"/>
<path d="M1381.45 1128.86L1379.59 1128.74L1380.3 1127.31L1382.21 1126.99L1381.45 1128.86Z" fill="#EBEBEB"/>
<path d="M623.63 1134.31C622.199 1133.71 620.972 1132.94 619.649 1132.14C619.128 1129.39 619.927 1128.88 621.286 1126.52C622.366 1127 623.455 1127.81 624.467 1128.44C625.166 1131.24 624.745 1131.6 623.63 1134.31Z" fill="#EBEBEB"/>
<path d="M591.84 1197.98C574.487 1260.67 532.051 1307.93 485.461 1350.91C460.062 1374.35 435.398 1397.13 418.481 1427.83C391.475 1476.84 390.221 1526.53 405.895 1579.66C412.443 1601.85 434.973 1655.6 455.417 1666.83L445.407 1682.39C405.32 1626.64 375.978 1572.67 379.776 1501.6C384.313 1416.71 434.79 1374.68 493.305 1322.1C536.847 1282.97 578.579 1222.37 581.811 1162.27C574.283 1154.9 570.643 1149.38 568.468 1139.01C586.327 1148.79 604.913 1157.45 623.521 1165.7C661.093 1182.39 704.45 1193.88 745.411 1197.7C737.583 1227.85 724.61 1256.97 714.487 1286.43C711.006 1296.56 705.998 1308.12 705.31 1318.87C704.589 1330.17 708.511 1342.93 710.032 1354.18C711.641 1366.07 711.723 1377.73 711.621 1389.69C682.58 1415.93 652.93 1441.31 624.818 1468.58C586.777 1505.49 551.945 1545.46 518.145 1586.22C496.506 1612.31 474.495 1638.77 455.417 1666.83C454.076 1661.27 450.023 1655.51 447.362 1650.46C440.545 1637.51 434.835 1623.42 432.944 1608.81C422.96 1531.66 473.697 1463.91 513.99 1403.63C526.609 1384.75 538.265 1365.24 550.185 1345.92C557.894 1333.43 567.546 1320.64 573.593 1307.33C583.124 1286.34 583.981 1261.47 588.641 1239.02C592.785 1219.07 598.398 1199.59 603.28 1179.84C602.353 1177.1 601.544 1176.93 599.233 1175.32L597.653 1176.16C594.582 1182.63 593.863 1191 591.84 1197.98ZM683.184 1214.65C679.037 1222.68 676.689 1232.8 675.209 1241.7C679.74 1235.69 683.325 1222.2 683.184 1214.65ZM587.591 1303.75C592.655 1300 599.223 1292.35 602.416 1286.94C596.177 1290.23 589.982 1297.2 587.591 1303.75ZM683.304 1337.81C681.726 1340.79 681.056 1342.66 680.946 1346.04C682.633 1343.12 683.047 1341.16 683.304 1337.81ZM523.506 1472.41C514.104 1483.1 514.41 1498.91 499.122 1503.45C499.057 1503.47 498.995 1503.5 498.93 1503.53L507.252 1518.12C509.531 1517.84 510.104 1517.99 511.635 1516.11C513.953 1513.26 515.217 1506.18 517.561 1504.21C519.059 1502.95 520.999 1503.63 520.991 1501.35C518.771 1500.58 516.462 1500.45 515.358 1498.3C517.254 1489.47 522.622 1481.43 523.506 1472.41ZM523.212 1523.13C523.784 1528.08 524.208 1530.18 528.243 1533.44C526.908 1529.71 525.85 1526.17 523.212 1523.13ZM466.706 1568.43C461.244 1575.12 458.067 1582.2 456.183 1590.55C453.159 1603.96 453.308 1624.56 460.803 1636.46C458.649 1620.32 456.591 1602.64 461.42 1586.78C463.227 1580.84 467.032 1574.18 468.008 1568.25L466.706 1568.43ZM618.656 1186.81C614.776 1209.45 601.136 1266.51 610.989 1285.75C611.432 1275.81 612.041 1265.91 613.227 1256.02C614.497 1245.42 624.342 1194.64 621.633 1188.22L618.656 1186.81ZM642.097 1198.13C636.39 1219 632.182 1242.4 629.757 1263.92L630.663 1265.37C635.13 1253.67 644.232 1211.26 643.387 1199.57L642.097 1198.13ZM659.621 1216.81C656.603 1226.82 641.439 1279.58 643.483 1286.04C647.238 1274.98 662.209 1226.35 659.621 1216.81ZM692.384 1284.59C687.823 1291.73 682.01 1298.66 677.91 1305.97L678.856 1306.72C684.293 1302.2 692.161 1294.39 693.139 1287.1C693.362 1285.42 693.415 1286.07 692.384 1284.59ZM617.782 1295.36C606.838 1306.16 597.875 1315.63 597.694 1331.99C597.681 1333.26 597.722 1334.53 597.773 1335.8C598.937 1336.95 598.349 1336.78 599.225 1336.92C600.431 1324.62 603.363 1313.99 611.916 1304.59C614.282 1301.98 617.421 1299.46 618.68 1296.13L617.782 1295.36ZM651.85 1322.63C649.961 1334.35 647.913 1348.88 650.568 1360.54C652.712 1350.2 655.117 1332.67 651.85 1322.63ZM625.271 1326.47C624.538 1330.63 623.313 1334.35 625.508 1338.25C625.951 1334.24 626.849 1330.31 625.271 1326.47ZM688.721 1332.4C686.783 1338.88 691.584 1369.93 691.798 1380.24L692.5 1380.74C695.316 1368.38 696.453 1345.89 690.424 1334.44C689.866 1333.38 689.595 1333.25 688.721 1332.4ZM583.855 1349.53C575.525 1354.64 565.326 1362.88 562.701 1372.8C562.137 1374.94 562.296 1376.56 562.668 1378.7L564.193 1380.31C568.148 1368.32 573.789 1361.09 582.616 1352.25C583.869 1351 584.649 1351.17 583.855 1349.53ZM612.102 1356.17C599.782 1365.64 585.515 1384.75 583.765 1400.52C583.469 1403.18 583.681 1404.65 585.098 1406.96C596.221 1390.78 599.074 1374.51 612.961 1357.72L612.102 1356.17ZM624.595 1387.23C622.145 1398.82 620.51 1410.46 622.962 1422.21C623.517 1415.56 627.021 1392.12 624.595 1387.23ZM559.326 1396.39C547.465 1407.74 535.27 1430.68 534.521 1447.35C534.421 1449.54 534.039 1450.93 535.505 1452.59C540.432 1433.78 547.457 1416.64 558.286 1400.44C559.446 1398.71 560.279 1398.71 559.465 1396.53C559.444 1396.47 559.373 1396.44 559.326 1396.39ZM656.885 1399.07C655.335 1404.2 650.905 1414.3 652.44 1419.36C655.607 1413.15 659.135 1406.17 656.885 1399.07ZM580.774 1418.91C568.677 1431.06 558.413 1457.58 558.966 1474.73C559.02 1476.4 559.526 1477.82 560.097 1479.37C560.267 1478.85 560.445 1478.34 560.608 1477.82C561.194 1475.94 561.378 1474.18 561.615 1472.24C562.766 1462.82 565.965 1450.53 569.834 1441.9C572.309 1436.38 581.08 1424.53 580.774 1418.91ZM510.341 1443.39C502.981 1452.35 482.129 1480.69 482.627 1491.72C488.076 1482.87 509.676 1451.44 510.341 1443.39ZM549.85 1490.59C545.806 1492.86 542.874 1494.76 541.681 1499.54C540.91 1502.63 541.334 1505.87 543.004 1508.59C544.772 1511.48 547.639 1513.83 550.967 1514.59C552.478 1514.93 554.019 1515.08 555.557 1515.23C559.618 1513.34 561.933 1511.78 563.568 1507.48C564.798 1504.24 564.914 1500.83 563.489 1497.62C562.211 1494.75 559.767 1492.12 556.725 1491.13C554.571 1490.43 552.082 1490.5 549.85 1490.59ZM477.392 1507.92C470.324 1519.49 463.549 1534.35 465.705 1548.32C465.885 1549.49 466.044 1549.75 466.44 1550.71C468.408 1542.49 478.756 1513.48 477.392 1507.92ZM501.313 1532.44C496.506 1539.71 487.139 1560.23 489.128 1569.05C489.426 1570.38 489.477 1570.35 489.985 1571.52C494.457 1562.71 502.644 1542.09 501.313 1532.44Z" fill="#EBEBEB"/>
<path d="M665.273 1149.55L662.531 1147.39C661.476 1144.83 661.751 1144.83 662.707 1142.19L666.086 1144.01C666.858 1146.55 666.266 1147.05 665.273 1149.55Z" fill="#EBEBEB"/>
<path d="M1342.4 1150.34C1341.09 1149.66 1339.82 1148.76 1338.57 1147.97C1337.63 1145.15 1338.13 1144.94 1339.3 1142.15C1340.51 1142.67 1341.71 1143.46 1342.86 1144.11C1343.87 1147.01 1343.34 1147.52 1342.4 1150.34Z" fill="#EBEBEB"/>
<path d="M706.347 1159.81C704.148 1159.29 703.676 1159.44 701.979 1157.82L702.026 1153.78C702.666 1153.93 703.807 1154.18 704.366 1154.49C706.581 1155.73 706.134 1157.58 706.347 1159.81Z" fill="#EBEBEB"/>
<path d="M1296.97 1162.85C1295.53 1162.5 1294.6 1162.04 1293.3 1161.35C1292.62 1158.96 1293.1 1158.33 1293.87 1155.93C1296.34 1156.99 1296.87 1156.95 1298.2 1159.24L1296.97 1162.85Z" fill="#EBEBEB"/>
<path d="M741.528 1169.11L739.395 1166.16C739.34 1163.33 740.14 1162.97 741.851 1160.8C743.09 1161.92 743.425 1162.75 744.132 1164.23C743.682 1166.75 743.231 1167.14 741.528 1169.11Z" fill="#EBEBEB"/>
<path d="M1250.8 1170.21L1247.21 1169.01C1245.28 1166.85 1245.59 1166.57 1245.54 1163.62C1247.08 1163.91 1248.04 1164.05 1249.31 1165.05C1250.65 1166.1 1250.54 1168.57 1250.8 1170.21Z" fill="#EBEBEB"/>
<path d="M1135.73 1210.18C1136.53 1208.06 1136.39 1208.45 1138.07 1207.32C1137.31 1209.22 1137.7 1208.96 1135.73 1210.18Z" fill="#EBEBEB"/>
<path d="M874.309 1212.42C875.126 1213.44 875.959 1214.4 876.625 1215.53C875.735 1214.57 875.051 1213.49 874.309 1212.42Z" fill="#EBEBEB"/>
<path d="M973.623 1331.13C981.541 1320.03 992.688 1309.86 1003.02 1301.02C1012.52 1303.57 1027.76 1322.82 1034.69 1330.53C1025.18 1328.84 1015.67 1328.02 1006.02 1327.77C994.879 1327.64 984.564 1329.04 973.623 1331.13Z" fill="#EBEBEB"/>
<path d="M468.542 1326.06C467.257 1326.14 465.771 1326.32 464.471 1326.19C461.931 1325.96 460.069 1325.05 458.478 1323C456.571 1320.54 456.118 1317.53 456.792 1314.57C457.894 1309.71 460.281 1307.64 464.383 1305.11C468.344 1305.64 472.076 1306.21 474.557 1309.75C476.033 1311.86 476.174 1314.03 475.775 1316.49C475.065 1320.84 471.8 1323.49 468.542 1326.06Z" fill="#EBEBEB"/>
<path d="M1544.81 1323.45C1541.96 1323.22 1538.66 1322.66 1536.4 1320.72C1534.55 1319.12 1533.07 1317.17 1533.07 1314.61C1533.07 1310.71 1535.68 1308.48 1538.43 1306.25C1541.7 1306.2 1544.69 1306.18 1547.39 1308.42C1549.2 1309.94 1550.5 1312.29 1550.4 1314.7C1550.24 1318.64 1547.72 1321.19 1544.81 1323.45Z" fill="#EBEBEB"/>
<path d="M1533.23 1944.99C1487.52 1816.74 1433.27 1692.53 1357.95 1578.6C1325.64 1529.72 1289.56 1483.46 1252.27 1438.32C1231.63 1413.34 1209.61 1389.92 1186.17 1367.56C1175.76 1357.64 1154.64 1341.23 1146.86 1330.86L1147.82 1327.4C1148.41 1327.56 1149.01 1327.71 1149.59 1327.88C1166.97 1333.02 1203.51 1363.57 1219.38 1376.03C1275.34 1419.97 1328.53 1470.14 1375.32 1523.76C1391.36 1542.13 1406.08 1561.62 1420.94 1580.94C1469.38 1643.98 1513.49 1710.24 1554.54 1778.3C1576.95 1815.46 1599.09 1852.52 1619.02 1891.1C1612.83 1903.91 1606.06 1913.09 1595.69 1922.83C1576.61 1938.22 1557.18 1943.11 1533.23 1944.99Z" fill="#EBEBEB"/>
<path d="M387 1892.58C391.888 1881.93 398.189 1871.74 403.713 1861.38C416.85 1836.74 430.154 1812.29 444.07 1788.08C544.014 1614.17 677.897 1433.11 852.94 1329.6C853.247 1329.56 853.555 1329.48 853.865 1329.49C856.099 1329.54 858.522 1330.53 860.213 1331.91C856.946 1336.94 844.586 1343.98 839.292 1348.36C803.647 1377.8 770.119 1413.57 740.073 1448.61C676.937 1522.25 627.368 1605.59 582.3 1691.11C552.244 1748.14 523.854 1807.01 501.348 1867.46C491.926 1892.76 484.024 1918.55 476.617 1944.51C454.009 1944 435.123 1938.83 416.46 1925.89C404.075 1916.75 395.114 1905.53 387 1892.58Z" fill="#EBEBEB"/>
<path d="M1004.92 1411.74L983.406 1374.27C977.775 1364.68 970.966 1354.65 966.782 1344.33C965.653 1341.54 965.445 1341.35 966.611 1338.61C971.699 1334.35 977.491 1334.01 983.82 1333.13C1002.29 1331.47 1028.85 1330.74 1045.33 1340.02C1034.73 1358.99 1025.02 1378.44 1013.77 1397.04L1004.92 1411.74ZM995.536 1339.04C994.86 1342.48 995.282 1343.7 992.175 1345.72C990.795 1346.61 989.253 1347.36 987.799 1348.13C987.587 1350.72 987.267 1352.98 987.771 1355.56L989.049 1356.49C989.4 1356.08 989.743 1355.66 990.105 1355.26C991.207 1354.04 991.909 1353.43 993.304 1352.66C996.22 1353.9 999.905 1357.27 1001.15 1360.24C1002.19 1362.72 1001.41 1365.6 1000.02 1367.76C997.575 1371.58 993.063 1375.31 989.931 1378.75C994.21 1376.58 998.425 1374.58 1002.25 1371.64L1005.28 1385.12C1007.73 1380.92 1011.76 1375.67 1013.28 1371.19C1010.72 1369.15 1008.46 1367.15 1008.2 1363.64C1008 1361.01 1008.63 1359.67 1010.51 1357.87C1012.42 1356.04 1014.38 1354.98 1017.04 1354.86C1018.83 1356.12 1020.43 1357.29 1022.44 1358.19C1022.75 1354.39 1020.82 1350.62 1022.22 1347.04C1021.13 1344.64 1020.15 1343.87 1017.98 1342.43L1015.6 1342.17C1014.34 1344.16 1015.41 1346.51 1015.86 1348.76C1013.15 1353.32 1008.39 1355.7 1004.67 1359.36L996.707 1350.43C996.963 1346.36 997.624 1342.74 995.536 1339.04Z" fill="#EBEBEB"/>
<path d="M650.432 1753.97C656.512 1743.11 660.687 1729.98 665.504 1718.46C674.699 1696.46 684.138 1674.62 694.498 1653.13C707.938 1625.26 721.532 1597.35 736.79 1570.42C762.464 1525.11 792.079 1482.17 823.26 1440.53C846.244 1409.83 870.438 1379.5 897.444 1352.22C898.362 1351.29 899.702 1350.04 901.062 1350.25C903.357 1350.61 906.323 1352.05 907.677 1353.97C909.753 1356.91 900.245 1369.23 898.393 1371.85C866.395 1417.08 840.262 1464.8 815.663 1514.35C748.848 1648.93 715.789 1797.86 688.965 1944.79L494.851 1944.59C492.246 1944.71 490.251 1944.81 487.75 1943.87L487.27 1942.12C498.4 1902.36 515.256 1863.59 530.981 1825.46C606.212 1643.05 716.326 1456.57 876.208 1336.38L888.093 1343.35C866.783 1363.69 845.221 1384.46 825.898 1406.72C759.624 1483.06 709.794 1575.19 675.996 1670.1C667.392 1694.26 654.811 1729.13 650.432 1753.97Z" fill="#EBEBEB"/>
<path d="M1107.82 1350.03C1121.56 1367.86 1137.56 1384.01 1151.55 1401.7C1201.67 1465.05 1249.34 1532.11 1287.91 1603.22C1305.15 1635.01 1322.89 1667.76 1337.48 1700.85C1344.36 1716.47 1350.83 1732.29 1357.45 1748.02C1360.78 1755.91 1363.75 1764.54 1368.05 1771.94C1368.18 1772.17 1368.32 1772.4 1368.46 1772.63C1366.23 1756.49 1347.36 1710.33 1340.68 1692.58C1300.87 1586.74 1246.47 1487.02 1173.96 1399.94C1157.32 1379.95 1137.56 1362.9 1120.78 1343.15C1123.69 1341.18 1126.76 1339.42 1129.77 1337.6C1142.24 1347.46 1154.96 1357.17 1166.84 1367.74C1205.68 1402.33 1239.85 1440.5 1272.5 1480.87C1383.61 1618.25 1464.27 1777.01 1520.5 1944.12L1508.62 1944.12L1314.83 1943.97C1292.64 1794.34 1261.56 1664.75 1196.49 1526.91C1185.56 1503.75 1174.51 1480.61 1162.06 1458.21C1151.19 1438.67 1139.9 1418.97 1127.49 1400.36C1117.77 1385.8 1106.83 1371.91 1097.76 1356.95L1107.82 1350.03Z" fill="#EBEBEB"/>
<path d="M1533.3 1412.1C1531.29 1411.78 1529.48 1411.42 1527.6 1410.6C1524.21 1409.12 1521.13 1406.37 1519.97 1402.75C1518.98 1399.65 1519.15 1396.48 1520.58 1393.54C1522.87 1388.85 1526.43 1387.35 1531.15 1385.73C1533.28 1386.02 1535.24 1386.3 1537.23 1387.19C1540.66 1388.71 1543.74 1391.52 1544.96 1395.14C1546.04 1398.31 1545.7 1401.85 1544.08 1404.78C1541.65 1409.18 1537.84 1410.61 1533.3 1412.1Z" fill="#EBEBEB"/>
<path d="M475.067 1417.2C473.276 1417.14 472.986 1417.17 471.212 1416.97C467.929 1416.6 464.909 1414.71 462.986 1412.04C460.997 1409.28 460.559 1405.92 461.232 1402.63C462.39 1396.95 465.753 1394.39 470.461 1391.52C472.619 1391.48 474.663 1391.37 476.753 1392.05C479.716 1393.01 482.427 1395.26 483.934 1397.98C485.674 1401.12 485.743 1404.87 484.604 1408.23C482.942 1413.13 479.446 1414.96 475.067 1417.2Z" fill="#EBEBEB"/>
<path d="M1574.04 1488.18C1571.09 1487.31 1568.29 1486.29 1566.38 1483.72C1564.71 1481.47 1564.14 1479.13 1564.43 1476.37C1564.86 1472.23 1567.55 1470.04 1570.68 1467.81C1574.77 1468.73 1577.7 1469.46 1579.98 1473.34C1581.59 1476.07 1581.85 1478.74 1580.84 1481.72C1579.6 1485.4 1577.28 1486.61 1574.04 1488.18Z" fill="#EBEBEB"/>
<path d="M427.259 1494.67C425.904 1494.63 424.209 1494.69 422.859 1494.39C419.548 1493.65 416.377 1491.5 414.805 1488.43C413.594 1486.06 413.517 1483.3 414.333 1480.8C415.683 1476.66 418.79 1474.83 422.4 1472.82C423.629 1472.88 425.075 1472.87 426.29 1473.15C429.34 1473.85 432.204 1475.47 433.975 1478.12C435.753 1480.77 435.859 1483.62 435.024 1486.62C433.893 1490.7 430.64 1492.65 427.259 1494.67Z" fill="#EBEBEB"/>
<path d="M393.676 1669.07C392.13 1668.79 390.522 1668.53 389.037 1668.01C386.163 1667.01 383.723 1664.4 382.667 1661.57C381.571 1658.64 381.867 1655.58 383.278 1652.82C385.287 1648.9 388.121 1647.71 392.171 1646.49C396.302 1647.18 399.742 1648.55 402.018 1652.29C403.78 1655.18 403.529 1658.42 402.398 1661.48C400.885 1665.57 397.39 1667.36 393.676 1669.07Z" fill="#EBEBEB"/>
<path d="M1610.43 1671.44C1606.75 1670.48 1603.16 1669.03 1600.57 1666.12C1598.54 1663.84 1597.4 1660.92 1597.77 1657.84C1598.37 1652.76 1602.2 1649.75 1606.18 1647.13C1607.93 1647.25 1609.79 1647.27 1611.49 1647.74C1614.1 1648.46 1616.51 1650.88 1617.8 1653.19C1619.4 1656.05 1619.55 1659.45 1618.68 1662.57C1617.42 1667.06 1614.42 1669.4 1610.43 1671.44Z" fill="#EBEBEB"/>
<path d="M401.435 1738.97C400.682 1739.05 399.932 1739.12 399.177 1739.17C395.249 1739.42 391.651 1738.58 388.772 1735.73C386.469 1733.46 385.354 1730.39 385.52 1727.17C385.775 1722.26 388.392 1719.09 391.959 1716.02C394.034 1715.85 396.359 1715.52 398.428 1715.7C401.419 1715.96 404.43 1718.03 406.272 1720.36C408.352 1722.99 409.055 1726.08 408.463 1729.36C407.632 1733.97 405.032 1736.27 401.435 1738.97Z" fill="#EBEBEB"/>
<path d="M1611.38 1739.82C1609.56 1739.87 1607.77 1739.9 1605.96 1739.69C1602.76 1739.32 1599.73 1737.49 1597.87 1734.86C1595.96 1732.17 1595.7 1728.81 1596.5 1725.68C1597.82 1720.56 1601.22 1718.42 1605.54 1715.85C1606.15 1715.95 1606.75 1716.03 1607.35 1716.14C1611.59 1716.89 1615.44 1719.05 1617.75 1722.79C1619.44 1725.52 1619.95 1728.57 1619.03 1731.67C1617.8 1735.85 1614.99 1737.76 1611.38 1739.82Z" fill="#EBEBEB"/>
</g>
<defs>
<filter id="filter0_f_311_102" x="166.872" y="163.843" width="1349.73" height="1349.73" filterUnits="userSpaceOnUse" color-interpolation-filters="sRGB">
<feFlood flood-opacity="0" result="BackgroundImageFix"/>
<feBlend mode="normal" in="SourceGraphic" in2="BackgroundImageFix" result="shape"/>
<feGaussianBlur stdDeviation="219.468" result="effect1_foregroundBlur_311_102"/>
</filter>
<filter id="filter1_f_311_102" x="572.888" y="273.579" width="1349.73" height="1349.73" filterUnits="userSpaceOnUse" color-interpolation-filters="sRGB">
<feFlood flood-opacity="0" result="BackgroundImageFix"/>
<feBlend mode="normal" in="SourceGraphic" in2="BackgroundImageFix" result="shape"/>
<feGaussianBlur stdDeviation="219.468" result="effect1_foregroundBlur_311_102"/>
</filter>
<filter id="filter2_f_311_102" x="638.727" y="664.235" width="1349.73" height="1349.73" filterUnits="userSpaceOnUse" color-interpolation-filters="sRGB">
<feFlood flood-opacity="0" result="BackgroundImageFix"/>
<feBlend mode="normal" in="SourceGraphic" in2="BackgroundImageFix" result="shape"/>
<feGaussianBlur stdDeviation="219.468" result="effect1_foregroundBlur_311_102"/>
</filter>
<filter id="filter3_f_311_102" x="230.516" y="778.354" width="1349.73" height="1349.73" filterUnits="userSpaceOnUse" color-interpolation-filters="sRGB">
<feFlood flood-opacity="0" result="BackgroundImageFix"/>
<feBlend mode="normal" in="SourceGraphic" in2="BackgroundImageFix" result="shape"/>
<feGaussianBlur stdDeviation="219.468" result="effect1_foregroundBlur_311_102"/>
</filter>
<filter id="filter4_f_311_102" x="24.2177" y="525.968" width="1349.73" height="1349.73" filterUnits="userSpaceOnUse" color-interpolation-filters="sRGB">
<feFlood flood-opacity="0" result="BackgroundImageFix"/>
<feBlend mode="normal" in="SourceGraphic" in2="BackgroundImageFix" result="shape"/>
<feGaussianBlur stdDeviation="219.468" result="effect1_foregroundBlur_311_102"/>
</filter>
<filter id="filter5_f_311_102" x="364.393" y="-66.5968" width="1349.73" height="1349.73" filterUnits="userSpaceOnUse" color-interpolation-filters="sRGB">
<feFlood flood-opacity="0" result="BackgroundImageFix"/>
<feBlend mode="normal" in="SourceGraphic" in2="BackgroundImageFix" result="shape"/>
<feGaussianBlur stdDeviation="219.468" result="effect1_foregroundBlur_311_102"/>
</filter>
<clipPath id="clip0_311_102">
<rect width="2007" height="2007" fill="white"/>
</clipPath>
</defs>
</svg>
