<svg width="19" height="19" viewBox="0 0 19 19" fill="none" xmlns="http://www.w3.org/2000/svg">
<path d="M9.5 0C4.25331 0 0 4.25331 0 9.5C0 14.7467 4.25331 19 9.5 19C14.7467 19 19 14.7467 19 9.5C19 4.25331 14.7467 0 9.5 0ZM9.5 2.06421C13.6067 2.06421 16.9346 5.39435 16.9346 9.5C16.9346 13.6056 13.6067 16.9346 9.5 16.9346C5.39331 16.9346 2.06536 13.6057 2.06536 9.5C2.06538 5.39435 5.39331 2.06421 9.5 2.06421ZM13.1402 4.98889L7.63409 10.4962L5.8482 8.71027L4.09594 10.4614L5.88183 12.2473L7.64568 14.0111L9.3968 12.2588L14.904 6.75274L13.1402 4.98889Z" fill="white"/>
</svg>
