<svg width="149" height="195" viewBox="0 0 149 195" fill="none" xmlns="http://www.w3.org/2000/svg">
<path d="M79.5128 13.2827C79.5128 26.2334 79.3468 26.5654 75.3619 26.5654C73.2035 26.5654 70.713 27.8937 69.7168 29.388C68.2225 32.2106 68.0564 32.2106 64.9018 29.222C60.5849 25.4032 53.9436 26.2334 53.2794 30.7163C52.2832 35.8634 50.2908 37.0256 46.472 34.5351C43.4834 32.7087 42.6532 32.7087 41.325 34.8671C38.6684 39.018 39.4986 48.648 42.9853 53.1309C45.4758 56.2855 46.306 59.9383 46.306 69.2362C46.306 80.3605 45.9739 81.3567 41.657 84.5113C37.3402 87.4999 36.676 87.666 34.1855 85.1755C32.0271 83.017 31.0309 82.851 29.0385 84.5113C27.2121 86.0056 25.7178 86.1717 23.2273 84.6774C19.4085 82.6849 14.0954 84.6774 12.6011 88.3301C12.103 89.8244 11.1068 89.6584 9.44645 87.4999C6.62387 83.6811 1.80889 85.3415 0.480614 90.6546C-1.01369 96.4658 1.14475 105.432 4.63146 108.586C7.12197 110.911 7.45404 112.571 6.2918 118.382C5.62767 122.201 4.96353 132.993 4.7975 142.291C4.7975 160.887 5.62767 162.547 18.2463 167.694C25.5517 170.849 26.714 168.192 25.5517 151.589C24.8876 143.121 25.2197 137.642 26.2159 136.978C28.7064 135.484 34.6836 139.137 34.6836 142.291C34.6836 144.284 35.1817 144.45 36.8421 142.955C39.1665 141.129 49.6267 143.951 49.6267 146.442C49.6267 147.106 50.955 147.77 52.6153 147.77C54.2756 147.77 56.9322 148.766 58.7585 150.095C60.5849 151.257 64.0716 152.751 66.7282 153.415C71.2111 154.412 71.2111 154.578 71.3771 169.853C71.5432 184.796 71.3771 189.611 70.3809 190.607C70.2149 190.773 68.0564 190.109 65.5659 189.113C61.4151 187.12 61.2491 186.456 61.2491 175C61.2491 163.876 60.917 162.713 56.7661 159.559C52.7813 156.238 52.2832 156.238 49.2946 158.729C47.1362 160.887 46.306 163.876 46.306 171.181V180.977L36.8421 176.66C22.3971 170.185 22.5631 170.185 23.3933 172.675C23.7254 174.004 32.1931 178.487 42.3212 182.637C52.2832 186.954 63.0754 191.603 66.3961 193.264C73.0375 196.418 71.3771 197.082 100.267 179.151C109.399 173.506 111.059 173.173 119.361 173.838C130.651 174.834 139.949 171.015 145.262 163.211L148.749 158.064L145.594 142.457C139.617 112.571 139.451 109.915 142.938 106.926C146.258 103.771 146.757 97.1299 144.266 90.6546C142.44 85.8396 137.459 85.0094 134.304 88.8282C132.478 90.9866 131.98 90.9866 130.319 88.9942C129.323 87.666 126.999 86.3377 125.172 86.0056C122.184 85.5075 121.851 84.3453 122.35 75.0474C122.848 68.7381 122.184 63.7571 121.021 62.2628C119.527 60.6024 119.693 59.1081 121.851 55.7874C125.338 50.4743 123.678 37.1916 119.195 34.8671C115.376 32.7087 109.399 32.7087 109.399 34.8671C109.399 37.8558 105.746 36.5275 104.916 33.3728C103.754 28.8899 94.6219 26.8975 91.9653 30.5503C90.8031 32.0446 89.3088 33.2068 88.6447 33.2068C86.1542 33.2068 82.9995 27.3956 82.8335 23.0787C82.8335 19.2599 83.6636 18.5958 92.4634 16.7694C97.6105 15.6072 102.924 14.2789 103.92 13.9469C106.742 13.2827 104.75 8.3017 101.595 8.3017C97.4445 8.3017 82.8335 2.98862 82.8335 1.49431C82.8335 0.664139 82.1693 0 81.1731 0C80.1769 0 79.5128 5.47913 79.5128 13.2827ZM95.12 10.1281C95.9502 10.9583 94.7879 12.2865 92.1314 13.2827C84.9919 15.9393 82.8335 15.4412 82.8335 10.7922C82.8335 7.13947 83.3316 6.8074 88.3126 7.8036C91.1352 8.3017 94.2898 9.29791 95.12 10.1281ZM81.3392 44.8292C82.1693 44.8292 82.8335 42.6707 82.8335 39.8482C82.8335 35.3652 83.1655 35.0332 87.4824 35.8634C90.6371 36.5275 92.7955 36.0294 94.2898 34.203C96.6143 31.5465 101.097 32.3766 101.097 35.5313C101.097 36.6935 103.09 38.6859 105.414 40.0142C109.233 42.0066 109.897 41.8406 112.055 39.184C113.882 36.6935 114.712 36.3615 116.704 38.0218C118.365 39.5161 118.697 41.0104 117.701 42.8368C116.87 44.4971 115.874 47.1537 115.21 48.814C114.546 51.3045 113.882 51.6366 112.388 50.1423C109.233 46.9876 102.425 47.8178 98.2746 51.8026L94.2898 55.4554L93.2936 51.6366C92.4634 48.1499 91.6333 47.8178 85.8221 48.648C82.1693 49.1461 77.8525 50.8064 76.0261 52.4668C72.8714 55.2893 72.7054 55.2893 71.8752 52.1347C71.3771 50.3083 68.5546 47.8178 65.732 46.8216C60.917 44.9952 60.0868 45.1613 57.7623 48.4819L54.9398 51.9686L52.1172 46.6556C49.4606 41.3425 49.4606 41.0104 52.7813 37.5237C54.7737 35.5313 56.268 32.8747 56.268 31.8785C56.268 28.8899 60.4189 29.5541 63.7396 33.2068C66.5621 36.3615 66.7282 36.3615 72.7054 32.2106L78.6826 28.2258L79.1807 36.5275C79.5128 41.0104 80.343 44.8292 81.3392 44.8292ZM46.306 37.3577C46.306 37.8558 45.9739 38.1878 45.4758 38.1878C44.9777 38.1878 44.6457 37.8558 44.6457 37.3577C44.6457 36.8596 44.9777 36.5275 45.4758 36.5275C45.9739 36.5275 46.306 36.8596 46.306 37.3577ZM47.9663 44.8292C47.9663 48.1499 53.4455 54.7912 56.102 54.7912C56.9322 54.7912 58.2604 53.2969 58.7585 51.4706C60.2529 46.9876 64.2377 47.3197 66.3961 52.1347C69.0527 57.6138 76.0261 58.776 80.675 54.4592C84.1618 51.1385 84.6599 51.1385 88.4786 53.795C93.7917 57.1157 100.433 57.2817 101.761 53.9611C102.758 51.1385 107.905 50.6404 110.561 53.2969C112.886 55.6214 119.361 51.6366 119.361 47.8178C119.361 46.1575 120.191 44.8292 121.187 44.8292C124.342 44.8292 122.017 51.9686 117.701 54.9573C108.569 61.7647 72.5394 63.7571 57.2642 58.444C48.4644 55.4554 41.8231 48.4819 43.4834 44.1651C44.9777 40.3463 47.9663 40.8444 47.9663 44.8292ZM63.7396 63.425C73.8676 65.5834 105.248 64.2552 111.557 61.2666C114.048 60.1043 116.538 59.6062 117.036 60.2704C117.535 60.7684 118.365 67.2438 118.863 74.5493C119.527 84.0132 119.195 88.6622 117.701 90.4885C114.878 93.9753 112.72 93.6432 112.72 89.6584C112.72 86.1717 109.067 86.6698 104.252 90.8206C101.927 92.813 101.263 92.813 100.599 90.9866C100.101 89.3263 99.1048 89.6584 97.2784 91.9828C95.4521 94.4734 95.286 96.6318 96.4483 101.115C97.4445 104.435 98.9388 108.088 99.7689 109.084C100.765 110.413 100.931 111.243 99.935 111.243C99.1048 111.243 93.2936 105.93 86.9843 99.4544C79.1807 91.4847 74.8638 88.1641 73.0375 88.8282C71.5432 89.3263 65.2339 92.813 59.0906 96.6318C52.9474 100.285 47.4682 103.107 47.1362 102.609C46.6381 102.277 47.1362 99.2883 47.9663 96.1337C48.9625 93.1451 49.6267 83.5151 49.6267 74.8813C49.6267 60.7684 49.9587 59.4402 52.4493 60.6024C54.1096 61.1005 59.0906 62.4288 63.7396 63.425ZM34.6836 87.666C34.6836 88.4961 32.8572 90.8206 30.6988 92.813C27.2121 95.9677 26.2159 96.2997 23.2273 94.4734C20.4047 92.4809 19.4085 92.813 15.9218 95.9677L12.103 99.6204L8.45025 95.8016C3.80129 90.8206 3.46923 86.1717 8.11818 90.4885C11.2728 93.3111 16.4199 92.979 16.4199 89.6584C16.4199 87.4999 21.899 87.4999 24.0574 89.6584C25.2197 90.8206 26.88 90.4885 29.0385 88.8282C32.6912 86.1717 34.6836 85.6736 34.6836 87.666ZM46.306 87.666C46.306 89.4923 39.4986 93.3111 38.3364 92.1489C37.6722 91.4847 38.6684 89.9904 40.3288 88.6622C43.9815 86.1717 46.306 85.6736 46.306 87.666ZM114.712 96.2997C115.874 96.2997 118.365 94.6394 120.523 92.647C124.01 89.3263 124.508 89.3263 127.331 91.8168C131.149 95.3035 132.478 95.3035 136.296 91.8168C137.957 90.3225 139.285 89.9904 139.285 90.9866C139.285 91.9828 138.455 93.3111 137.459 93.8092C136.628 94.4734 134.968 96.7978 134.138 99.1223C132.644 103.107 132.312 103.107 128.825 100.783C124.342 97.794 116.206 98.9563 113.218 102.775C111.391 105.1 111.059 105.1 108.735 102.111C105.912 98.4582 105.58 96.2997 107.074 92.1489C108.071 89.8244 108.403 89.9904 110.561 92.979C111.889 94.8054 113.716 96.2997 114.712 96.2997ZM32.6912 102.277C29.5366 105.598 11.937 108.254 7.95214 106.262C4.7975 104.435 2.14095 98.4582 3.80129 96.6318C4.46543 96.1337 5.95974 97.2959 7.45404 99.2883C10.6087 103.771 12.7671 103.937 17.25 99.6204C20.5707 96.6318 21.0688 96.4658 23.0612 98.7902C26.0498 102.443 28.8724 101.779 31.529 96.7978C33.8534 92.4809 33.8534 92.4809 34.3515 96.2997C34.6836 98.2921 33.8534 101.115 32.6912 102.277ZM43.8155 99.9525C43.1514 103.937 41.657 108.254 40.3288 109.582C38.3364 111.575 38.0043 110.911 38.0043 104.435C38.0043 97.462 40.1627 92.979 43.4834 92.979C44.3136 92.979 44.4796 96.1337 43.8155 99.9525ZM84.9919 102.609C90.139 107.922 94.4559 112.571 94.4559 113.235C94.4559 114.397 73.5356 126.186 71.3771 126.186C69.7168 126.186 52.4493 104.601 53.2794 103.605C54.9398 101.945 72.2073 92.979 73.7016 92.979C74.6978 92.979 79.6788 97.2959 84.9919 102.609ZM142.274 99.9525C141.443 105.598 132.312 109.915 119.527 110.911C108.735 111.575 108.237 111.575 102.924 106.096C96.2822 99.4544 99.1048 97.1299 105.912 103.605C111.391 108.918 113.716 109.084 117.535 104.435C120.357 100.949 120.523 100.949 124.84 103.605C130.319 107.258 135.632 105.764 136.961 100.285C138.289 95.1375 143.104 94.8054 142.274 99.9525ZM32.3591 117.054C30.2007 118.714 30.3667 119.378 33.5214 122.533C36.1779 125.356 36.51 126.684 35.1817 128.012C33.6874 129.507 32.5252 129.507 30.5328 127.846C28.5404 126.186 27.5442 126.186 25.5517 127.846C23.5593 129.507 23.0612 133.989 23.0612 147.936C23.0612 157.898 22.7292 166.034 22.2311 166.034C21.733 166.034 18.4123 164.208 14.7595 161.883C7.28801 157.068 7.12197 156.238 9.11438 126.684L10.2766 111.575L22.065 109.416L33.8534 107.092L34.3515 111.243C34.6836 113.401 33.8534 116.058 32.3591 117.054ZM56.6001 114.231C64.2377 124.193 65.898 128.676 65.0678 136.48L64.2377 142.457L53.2794 138.306C47.1362 136.148 41.491 133.657 40.8269 132.993C40.1627 132.329 39.1665 128.178 38.5024 123.695C37.6722 116.058 37.8383 115.394 43.1514 111.077C46.306 108.42 49.1286 106.262 49.6267 106.262C50.1248 106.262 53.2794 109.915 56.6001 114.231ZM136.462 114.065C136.961 115.726 138.953 126.186 141.111 137.31C144.764 156.57 144.764 157.566 141.942 161.883C138.455 167.196 129.987 171.015 122.017 171.015H116.372L115.376 155.574C114.878 147.272 114.214 137.642 113.882 134.488C113.55 129.673 112.72 128.51 108.569 127.348C104.086 126.02 103.588 125.19 103.588 119.877V113.733L115.708 114.397C123.346 114.729 128.659 114.231 129.821 113.069C132.478 110.413 135.632 110.911 136.462 114.065ZM99.2708 128.842C98.2746 130.005 96.7803 130.669 95.9502 130.171C93.2936 128.676 94.2898 118.216 97.4445 115.228C100.101 112.405 100.267 112.571 100.765 119.378C101.097 123.197 100.433 127.514 99.2708 128.842ZM92.6295 129.839C92.7955 133.325 90.9691 135.65 85.158 140.299C76.5242 146.774 74.8638 147.106 70.547 143.951C67.0602 141.295 67.3923 132.993 71.2111 131.001C72.5394 130.171 77.5204 127.348 82.0033 124.692C91.1352 119.212 92.4634 119.877 92.6295 129.839ZM32.1931 131.499C35.6798 132.993 38.0043 136.148 35.5138 136.148C33.5214 136.148 26.3819 132.163 26.3819 130.835C26.3819 129.008 27.0461 129.174 32.1931 131.499ZM108.403 131.665C110.727 132.993 112.221 134.488 111.557 134.986C110.395 136.148 110.727 156.57 112.055 163.377C112.554 166.366 111.557 168.358 107.905 170.849C105.248 172.841 102.592 174.336 101.927 174.336C101.429 174.336 97.7765 176.494 93.9577 178.985C90.139 181.641 84.3278 185.294 81.0071 187.286L75.1959 190.773V173.007L75.3619 155.242L80.8411 153.581C83.6637 152.751 86.1542 151.091 86.1542 150.095C86.1542 148.933 87.8145 147.438 89.8069 146.774C91.7993 146.276 94.954 144.284 96.7803 142.457C98.7727 140.631 101.927 138.472 104.086 137.642C108.569 135.816 108.901 132.827 104.418 132.827C102.592 132.827 101.097 131.997 101.097 131.167C101.097 128.842 103.256 129.008 108.403 131.665ZM99.4369 135.982C99.4369 136.812 98.2746 137.974 96.7803 138.472C92.7955 139.967 92.1314 139.635 94.4559 136.978C96.7803 134.155 99.4369 133.657 99.4369 135.982ZM43.8155 137.808C44.3136 138.638 43.9815 139.469 43.1514 139.469C42.1552 139.469 41.325 138.638 41.325 137.808C41.325 136.812 41.657 136.148 41.9891 136.148C42.4872 136.148 43.3174 136.812 43.8155 137.808ZM49.6267 141.295C49.6267 142.291 48.9625 142.457 47.9663 141.959C47.1362 141.461 46.306 140.133 46.306 139.303C46.306 138.306 47.1362 138.14 47.9663 138.638C48.9625 139.137 49.6267 140.465 49.6267 141.295ZM87.1504 145.446C85.324 146.608 83.4976 147.438 82.9995 146.94C82.6674 146.442 83.6636 144.948 85.49 143.785C87.1504 142.457 88.9767 141.793 89.4748 142.291C89.9729 142.623 88.8107 144.118 87.1504 145.446ZM64.5697 145.612C64.9018 145.944 64.2377 146.94 62.9094 147.77C60.4189 149.265 56.268 147.106 56.268 144.118C56.268 142.789 62.5773 143.785 64.5697 145.612ZM76.6902 151.423C74.6978 153.581 73.3695 153.914 71.0451 152.585C66.064 150.095 67.3923 147.936 73.5356 148.268C78.8487 148.6 79.0147 148.766 76.6902 151.423ZM58.7585 164.374C59.2567 165.204 58.5925 166.034 57.2642 166.034C55.7699 166.034 54.6077 165.204 54.6077 164.374C54.6077 163.377 55.2718 162.713 56.102 162.713C57.0982 162.713 58.2604 163.377 58.7585 164.374ZM52.4493 169.687C51.9512 171.015 51.4531 170.517 51.4531 168.691C51.287 166.864 51.7851 165.868 52.2832 166.532C52.7813 167.03 52.9474 168.525 52.4493 169.687ZM59.5887 171.015C59.5887 171.845 58.9246 172.675 58.0944 172.675C57.0982 172.675 55.936 171.845 55.4379 171.015C54.9398 170.019 55.6039 169.355 56.9322 169.355C58.4265 169.355 59.5887 170.019 59.5887 171.015ZM52.9474 175.166C52.9474 176.494 52.2832 177.656 51.287 177.656C50.4568 177.656 49.6267 176.494 49.6267 175.166C49.6267 173.838 50.4568 172.675 51.287 172.675C52.2832 172.675 52.9474 173.838 52.9474 175.166ZM59.5887 178.653C59.5887 180.977 57.5963 181.807 55.7699 179.981C54.2756 178.487 56.4341 174.17 58.0944 175.332C58.9246 175.83 59.5887 177.324 59.5887 178.653ZM52.1172 182.637C52.6153 183.468 52.7813 184.298 52.2832 184.298C51.7851 184.298 50.955 183.468 50.4568 182.637C49.9587 181.641 49.7927 180.977 50.2908 180.977C50.7889 180.977 51.6191 181.641 52.1172 182.637ZM59.0906 185.46C58.4265 185.958 57.4303 185.958 56.7661 185.46C56.268 184.796 56.7661 184.298 57.9284 184.298C59.0906 184.298 59.5887 184.796 59.0906 185.46Z" fill="#FFF8B2"/>
<path d="M56.6067 74.2095C57.2708 80.6848 61.2557 81.1829 61.2557 74.8736C61.2557 71.3869 60.4255 69.7266 58.5991 69.7266C56.7727 69.7266 56.2746 71.0549 56.6067 74.2095Z" fill="#FFF8B2"/>
<path d="M49.624 122.025C49.624 124.349 50.4542 126.176 51.2844 126.176C52.2806 126.176 52.9447 124.349 52.9447 122.025C52.9447 119.7 52.2806 117.874 51.2844 117.874C50.4542 117.874 49.624 119.7 49.624 122.025Z" fill="#FFF8B2"/>
<path d="M85.3272 128.013C83.6669 130.503 85.8253 132.163 87.9838 130.005C89.146 128.843 89.146 127.846 88.1498 127.182C87.1536 126.684 85.8253 127.016 85.3272 128.013Z" fill="#FFF8B2"/>
<path d="M73.7003 134.649C72.0399 137.14 74.1984 138.8 76.3568 136.642C77.519 135.479 77.519 134.483 76.5228 133.819C75.5266 133.321 74.1984 133.653 73.7003 134.649Z" fill="#FFF8B2"/>
<path d="M101.101 150.259C101.101 153.414 101.931 156.07 102.761 156.07C103.757 156.07 104.421 153.414 104.421 150.259C104.421 147.104 103.757 144.448 102.761 144.448C101.931 144.448 101.101 147.104 101.101 150.259Z" fill="#FFF8B2"/>
<path d="M81.1797 163.541C81.1797 166.197 82.1759 167.691 83.6702 167.691C85.1645 167.691 86.1607 166.197 86.1607 163.541C86.1607 160.884 85.1645 159.39 83.6702 159.39C82.1759 159.39 81.1797 160.884 81.1797 163.541Z" fill="#FFF8B2"/>
<path d="M59.5918 146.943C59.5918 147.441 59.9239 147.773 60.422 147.773C60.9201 147.773 61.2521 147.441 61.2521 146.943C61.2521 146.445 60.9201 146.113 60.422 146.113C59.9239 146.113 59.5918 146.445 59.5918 146.943Z" fill="#FFF8B2"/>
<path d="M34.3529 153.579C34.685 156.734 35.3491 159.391 35.6812 159.391C36.0133 159.391 36.3453 156.734 36.3453 153.579C36.3453 150.425 35.6812 147.768 35.0171 147.768C34.3529 147.768 34.0209 150.425 34.3529 153.579Z" fill="#FFF8B2"/>
<path d="M31.3633 156.891C31.3633 157.389 31.6953 157.721 32.1935 157.721C32.6916 157.721 33.0236 157.389 33.0236 156.891C33.0236 156.392 32.6916 156.06 32.1935 156.06C31.6953 156.06 31.3633 156.392 31.3633 156.891Z" fill="#FFF8B2"/>
</svg>
