<svg width="34" height="32" viewBox="0 0 34 32" fill="none" xmlns="http://www.w3.org/2000/svg">
<path d="M26.2846 3.33073V0.164062H8.34013V3.33073H0.863281V11.2474H2.35865V14.4141H3.85402V15.9974H5.34939V17.5807H6.84476V19.1641H8.34013V20.7474H12.8262V22.3307H15.817V27.0807H9.8355V31.8307H24.7892V27.0807H18.8077V22.3307H21.7985V20.7474H26.2846V19.1641H27.7799V17.5807H29.2753V15.9974H30.7707V14.4141H32.2661V11.2474H33.7614V3.33073H26.2846ZM6.84476 15.9974V14.4141H5.34939V11.2474H3.85402V6.4974H6.84476V8.08073H8.34013V11.2474H9.8355V15.9974H11.3309V17.5807H8.34013V15.9974H6.84476ZM30.7707 11.2474H29.2753V14.4141H27.7799V15.9974H26.2846V17.5807H23.2938V15.9974H24.7892V12.8307H26.2846V8.08073H27.7799V6.4974H30.7707V11.2474Z" fill="white"/>
</svg>
