<svg width="33" height="32" viewBox="0 0 33 32" fill="none" xmlns="http://www.w3.org/2000/svg">
<path d="M0.257812 11.6367V30.5456H1.71234V32.0002H30.803V30.5456H32.2575V11.6367H0.257812ZM17.7122 27.6366V30.5456H14.8031V27.6366H11.8941V24.7275H17.7122V23.273H13.3486V21.8184H11.8941V16.0003H14.8031V13.0913H17.7122V16.0003H20.6213V18.9094H14.8031V20.3639H19.1667V21.8184H20.6213V27.6366H17.7122Z" fill="white"/>
<path d="M14.8031 0V8.72719H0.257812V7.27266H1.71234V4.3636H3.16688V2.90906H4.62141V1.45453H6.07594V0H14.8031Z" fill="white"/>
<path d="M32.2602 7.27266V8.72719H17.7148V0H26.442V1.45453H27.8966V2.90906H29.3511V4.3636H30.8056V7.27266H32.2602Z" fill="white"/>
</svg>
