<svg width="20" height="20" viewBox="0 0 20 20" fill="none" xmlns="http://www.w3.org/2000/svg">
<circle cx="9.9707" cy="9.9707" r="9.6004" fill="black" stroke="white" stroke-width="0.740606"/>
<path d="M9.78856 2.30541C9.73019 2.34918 9.68642 2.75775 9.68642 3.18091C9.68642 4.50876 8.86928 5.83661 7.7749 6.30355C7.38092 6.47865 6.98694 6.7413 6.91399 6.88722C6.82644 7.03313 6.76807 7.57303 6.76807 8.09833C6.76807 8.97384 6.79725 9.06139 7.22041 9.397L7.65817 9.7472L7.48306 10.6811C7.39551 11.1918 7.14745 12.2716 6.94317 13.0741C6.38868 15.3504 6.37409 15.438 6.84103 15.9195C8.25643 17.4079 11.8606 17.3787 13.1301 15.8757C13.5678 15.3504 13.5678 15.2921 12.9112 12.7093C12.1087 9.51373 12.1232 9.80557 12.6923 9.28026C13.1301 8.8571 13.1738 8.74037 13.1738 7.99619C13.1593 7.39793 13.0717 7.06232 12.8674 6.79967C12.5902 6.43487 12.167 6.30355 12.167 6.58079C12.167 6.65375 12.2692 6.72671 12.3859 6.72671C12.5756 6.72671 12.9842 7.2666 12.8674 7.38334C12.7361 7.51466 12.1232 6.87262 12.0941 6.5662C12.0795 6.34732 11.9627 6.2014 11.7876 6.15763C11.4666 6.09926 11.3061 5.90957 10.6349 4.786C9.93448 3.61866 9.96366 3.44356 10.8538 3.22469C11.2623 3.12254 11.5833 3.00581 11.5833 2.94744C11.5833 2.78693 10.8975 2.4951 10.5619 2.4951C10.416 2.4951 10.2409 2.42214 10.1971 2.34918C10.095 2.17408 9.91989 2.15949 9.78856 2.30541ZM10.7662 2.94744C10.6495 3.15173 10.1242 3.09336 10.1242 2.87448C10.1242 2.74316 10.2409 2.69938 10.489 2.75775C10.6933 2.78693 10.81 2.87448 10.7662 2.94744ZM10.4014 5.03406C10.6495 5.47182 11.2331 6.25977 11.7147 6.77048C12.2108 7.28119 12.561 7.74813 12.5026 7.7919C12.4589 7.85027 12.4151 8.02537 12.4005 8.20047C12.3859 8.63823 12.0211 8.74037 11.919 8.34639C11.8314 8.02537 11.6563 7.95241 11.5104 8.18588C11.4666 8.25884 11.204 8.3318 10.9267 8.3318C10.5327 8.3318 10.4306 8.40476 10.3576 8.69659C10.2263 9.2219 9.24867 9.16353 9.24867 8.63823C9.24867 8.47772 9.02979 8.34639 8.4899 8.21507C8.08133 8.12751 7.70194 8.06915 7.65817 8.11292C7.51225 8.27343 7.92082 8.5069 8.50449 8.57986C8.94224 8.63823 9.10275 8.72578 9.10275 8.91547C9.10275 9.2219 9.37999 9.35322 9.99285 9.35322C10.3139 9.35322 10.4598 9.26567 10.5619 9.00302C10.737 8.52149 11.5104 8.40476 11.7876 8.82792C11.9627 9.09057 12.0065 9.10516 12.24 8.91547C12.3713 8.79874 12.561 8.53608 12.6485 8.3318L12.8091 7.96701L12.8674 8.30262C12.9258 8.71119 12.4005 9.35322 12.0065 9.35322C11.8606 9.35322 11.7001 9.41159 11.6563 9.49914C11.525 9.71802 8.69418 9.67424 8.03755 9.44077C7.4247 9.23649 6.94317 8.82792 7.10368 8.682C7.16205 8.62363 7.32255 8.682 7.46847 8.81333C7.80408 9.11975 7.93541 9.11975 7.93541 8.8571C7.93541 8.75496 7.81867 8.62363 7.67276 8.57986C7.27878 8.49231 7.17664 7.95241 7.48306 7.58762C7.71653 7.28119 7.74572 7.28119 8.41694 7.51466C9.20489 7.77731 9.39458 7.8065 9.39458 7.6168C9.39458 7.54385 9.10275 7.41252 8.75255 7.32497C8.38775 7.23742 8.05214 7.0915 8.00837 7.01854C7.87704 6.79967 8.35857 6.65375 8.56285 6.85803C8.76714 7.06232 9.39458 7.07691 9.39458 6.87262C9.39458 6.78507 9.23407 6.72671 9.04438 6.72671C8.6504 6.72671 8.27102 6.3765 8.50449 6.21599C8.59204 6.17222 8.78173 6.2014 8.94224 6.28895C9.40918 6.52242 9.64264 6.44946 9.29244 6.17222L8.97142 5.92416L9.39458 5.23835C9.64264 4.84437 9.83234 4.47958 9.83234 4.39203C9.83234 4.11478 9.94907 4.24611 10.4014 5.03406ZM7.61439 6.97477C7.39551 7.19364 7.17664 7.32497 7.13286 7.28119C7.01613 7.17905 7.64357 6.58079 7.84786 6.58079C7.93541 6.58079 7.81867 6.75589 7.61439 6.97477ZM9.86152 9.95148C10.6933 9.93689 11.4958 9.9223 11.6563 9.89312C11.8898 9.86393 11.9627 10.0099 12.1378 10.9437L12.3567 12.0235L11.7876 12.4904C11.4812 12.7531 11.2623 13.0303 11.3353 13.0887C11.3937 13.1471 11.6271 13.0158 11.846 12.8115C12.3129 12.3591 12.4589 12.3299 12.4589 12.6364C12.4589 12.7531 12.3275 12.9136 12.167 13.0012C12.0065 13.0887 11.8752 13.2346 11.8752 13.3222C11.8752 13.4097 12.0357 13.366 12.24 13.2346C12.7361 12.899 12.7215 13.2346 12.2108 13.7016C11.9481 13.9496 11.8752 14.0955 11.9919 14.1393C12.0941 14.1685 12.2983 14.0372 12.4443 13.8475C12.6048 13.6724 12.7799 13.5556 12.8382 13.614C12.8966 13.687 12.8236 13.8621 12.6777 14.0226C12.4151 14.2998 12.4297 14.3144 12.7069 14.3144C13.0133 14.3144 13.1884 14.5771 13.1884 15.044C13.1884 15.4672 12.5172 16.153 11.846 16.4302C11.058 16.7366 9.43836 16.868 8.91306 16.6637C8.57745 16.5324 8.51908 16.4302 8.54826 16.0071C8.57745 15.4818 8.19806 14.7522 7.89163 14.7522C7.55602 14.7522 7.35174 15.0878 7.35174 15.6277C7.33715 16.1092 7.32255 16.1238 7.13286 15.8611C6.84103 15.4672 6.85562 15.0148 7.26419 13.2638C7.45388 12.4467 7.70194 11.2939 7.80408 10.7103C7.95 9.89312 8.03755 9.68883 8.18347 9.82016C8.28561 9.90771 9.00061 9.96608 9.86152 9.95148ZM8.15428 15.3504C8.34398 15.6423 8.32939 16.2113 8.13969 16.3719C7.97918 16.5032 7.93541 16.4594 7.93541 16.0946C7.93541 15.8466 7.89163 15.5547 7.84786 15.4234C7.74572 15.1607 8.00837 15.1024 8.15428 15.3504Z" fill="url(#paint0_linear_939_4177)"/>
<path d="M7.7068 13.5079C7.59015 13.8141 7.75054 14.1641 7.9984 14.1641C8.29001 14.1641 8.42123 13.9308 8.30459 13.5808C8.20253 13.2455 7.82344 13.1872 7.7068 13.5079Z" fill="url(#paint1_linear_939_4177)"/>
<defs>
<linearGradient id="paint0_linear_939_4177" x1="9.97149" y1="17.0195" x2="9.97149" y2="2.20592" gradientUnits="userSpaceOnUse">
<stop stop-color="#9EFFBF"/>
<stop offset="0.507725" stop-color="#C0FBFF"/>
<stop offset="1" stop-color="#96FF65"/>
</linearGradient>
<linearGradient id="paint1_linear_939_4177" x1="8.00747" y1="14.1641" x2="8.00747" y2="13.2959" gradientUnits="userSpaceOnUse">
<stop stop-color="#9EFFBF"/>
<stop offset="0.507725" stop-color="#C0FBFF"/>
<stop offset="1" stop-color="#96FF65"/>
</linearGradient>
</defs>
</svg>
