<svg width="67" height="67" viewBox="0 0 67 67" fill="none" xmlns="http://www.w3.org/2000/svg">
<g filter="url(#filter0_f_1528_6203)">
<path d="M60.5417 4H21.2083C20.5563 4 19.9311 4.259 19.47 4.72003C19.009 5.18106 18.75 5.80634 18.75 6.45833V18.75H6.45833C5.80634 18.75 5.18106 19.009 4.72003 19.47C4.259 19.9311 4 20.5563 4 21.2083V60.5417C4 61.1937 4.259 61.8189 4.72003 62.28C5.18106 62.741 5.80634 63 6.45833 63H45.7917C46.4437 63 47.0689 62.741 47.53 62.28C47.991 61.8189 48.25 61.1937 48.25 60.5417V48.25H60.5417C61.1937 48.25 61.8189 47.991 62.28 47.53C62.741 47.0689 63 46.4437 63 45.7917V6.45833C63 5.80634 62.741 5.18106 62.28 4.72003C61.8189 4.259 61.1937 4 60.5417 4ZM43.3333 58.0833H8.91667V23.6667H43.3333V58.0833ZM58.0833 43.3333H48.25V21.2083C48.25 20.5563 47.991 19.9311 47.53 19.47C47.0689 19.009 46.4437 18.75 45.7917 18.75H23.6667V8.91667H58.0833V43.3333Z" fill="url(#paint0_linear_1528_6203)"/>
</g>
<path d="M60.5417 4H21.2083C20.5563 4 19.9311 4.259 19.47 4.72003C19.009 5.18106 18.75 5.80634 18.75 6.45833V18.75H6.45833C5.80634 18.75 5.18106 19.009 4.72003 19.47C4.259 19.9311 4 20.5563 4 21.2083V60.5417C4 61.1937 4.259 61.8189 4.72003 62.28C5.18106 62.741 5.80634 63 6.45833 63H45.7917C46.4437 63 47.0689 62.741 47.53 62.28C47.991 61.8189 48.25 61.1937 48.25 60.5417V48.25H60.5417C61.1937 48.25 61.8189 47.991 62.28 47.53C62.741 47.0689 63 46.4437 63 45.7917V6.45833C63 5.80634 62.741 5.18106 62.28 4.72003C61.8189 4.259 61.1937 4 60.5417 4ZM43.3333 58.0833H8.91667V23.6667H43.3333V58.0833ZM58.0833 43.3333H48.25V21.2083C48.25 20.5563 47.991 19.9311 47.53 19.47C47.0689 19.009 46.4437 18.75 45.7917 18.75H23.6667V8.91667H58.0833V43.3333Z" fill="white"/>
<path d="M60.5417 4H21.2083C20.5563 4 19.9311 4.259 19.47 4.72003C19.009 5.18106 18.75 5.80634 18.75 6.45833V18.75H6.45833C5.80634 18.75 5.18106 19.009 4.72003 19.47C4.259 19.9311 4 20.5563 4 21.2083V60.5417C4 61.1937 4.259 61.8189 4.72003 62.28C5.18106 62.741 5.80634 63 6.45833 63H45.7917C46.4437 63 47.0689 62.741 47.53 62.28C47.991 61.8189 48.25 61.1937 48.25 60.5417V48.25H60.5417C61.1937 48.25 61.8189 47.991 62.28 47.53C62.741 47.0689 63 46.4437 63 45.7917V6.45833C63 5.80634 62.741 5.18106 62.28 4.72003C61.8189 4.259 61.1937 4 60.5417 4ZM43.3333 58.0833H8.91667V23.6667H43.3333V58.0833ZM58.0833 43.3333H48.25V21.2083C48.25 20.5563 47.991 19.9311 47.53 19.47C47.0689 19.009 46.4437 18.75 45.7917 18.75H23.6667V8.91667H58.0833V43.3333Z" fill="white"/>
<defs>
<filter id="filter0_f_1528_6203" x="0" y="0" width="67" height="67" filterUnits="userSpaceOnUse" color-interpolation-filters="sRGB">
<feFlood flood-opacity="0" result="BackgroundImageFix"/>
<feBlend mode="normal" in="SourceGraphic" in2="BackgroundImageFix" result="shape"/>
<feGaussianBlur stdDeviation="2" result="effect1_foregroundBlur_1528_6203"/>
</filter>
<linearGradient id="paint0_linear_1528_6203" x1="33.5" y1="4" x2="33.5" y2="63" gradientUnits="userSpaceOnUse">
<stop stop-color="#7593FF"/>
<stop offset="1" stop-color="#FC51FF"/>
</linearGradient>
</defs>
</svg>
