<svg width="100%" height="100%" viewBox="0 0 60 60" fill="none" xmlns="http://www.w3.org/2000/svg">
<rect width="60" height="60" rx="18" fill="url(#paint0_linear_1716_6555)"/>
<g opacity="0.25" filter="url(#filter0_f_1716_6555)">
<rect x="9.03906" y="30" width="40.8734" height="25.5459" rx="12.7729" fill="url(#paint1_linear_1716_6555)"/>
</g>
<rect x="7.80078" y="7.80078" width="44.2795" height="44.2795" rx="18" fill="url(#paint2_linear_1716_6555)"/>
<g filter="url(#filter1_i_1716_6555)">
<path d="M19.4714 28.5384C19.4714 28.5384 30.086 23.8309 33.7673 22.1733C35.1786 21.5103 39.9643 19.3885 39.9643 19.3885C39.9643 19.3885 42.1732 18.4603 41.9891 20.7146C41.9277 21.6429 41.4369 24.8917 40.9461 28.4058C40.2097 33.3785 39.4121 38.8153 39.4121 38.8153C39.4121 38.8153 39.2894 40.3403 38.2464 40.6055C37.2033 40.8707 35.4853 39.6773 35.1786 39.4121C34.9331 39.2132 30.5768 36.2295 28.9816 34.7708C28.5521 34.373 28.0613 33.5775 29.0429 32.6492C31.2518 30.4612 33.8901 27.7428 35.4853 26.0189C36.2216 25.2232 36.9579 23.3667 33.8901 25.621C29.5338 28.8699 25.2389 31.9198 25.2389 31.9198C25.2389 31.9198 24.2572 32.5828 22.4165 31.9861C20.5757 31.3894 18.4283 30.5938 18.4283 30.5938C18.4283 30.5938 16.9558 29.5992 19.4714 28.5384Z" fill="white"/>
</g>
<defs>
<filter id="filter0_f_1716_6555" x="5.76306" y="26.724" width="47.427" height="32.0989" filterUnits="userSpaceOnUse" color-interpolation-filters="sRGB">
<feFlood flood-opacity="0" result="BackgroundImageFix"/>
<feBlend mode="normal" in="SourceGraphic" in2="BackgroundImageFix" result="shape"/>
<feGaussianBlur stdDeviation="1.638" result="effect1_foregroundBlur_1716_6555"/>
</filter>
<filter id="filter1_i_1716_6555" x="16.1992" y="16.1992" width="27" height="27.3" filterUnits="userSpaceOnUse" color-interpolation-filters="sRGB">
<feFlood flood-opacity="0" result="BackgroundImageFix"/>
<feBlend mode="normal" in="SourceGraphic" in2="BackgroundImageFix" result="shape"/>
<feColorMatrix in="SourceAlpha" type="matrix" values="0 0 0 0 0 0 0 0 0 0 0 0 0 0 0 0 0 0 127 0" result="hardAlpha"/>
<feOffset dy="0.3"/>
<feGaussianBlur stdDeviation="0.75"/>
<feComposite in2="hardAlpha" operator="arithmetic" k2="-1" k3="1"/>
<feColorMatrix type="matrix" values="0 0 0 0 0 0 0 0 0 0 0 0 0 0 0 0 0 0 0.1 0"/>
<feBlend mode="normal" in2="shape" result="effect1_innerShadow_1716_6555"/>
</filter>
<linearGradient id="paint0_linear_1716_6555" x1="5.04367" y1="3.93013" x2="49.5852" y2="60" gradientUnits="userSpaceOnUse">
<stop stop-color="#FBFBFC"/>
<stop offset="1" stop-color="#DBDDE8"/>
</linearGradient>
<linearGradient id="paint1_linear_1716_6555" x1="12.6391" y1="31.9038" x2="31.1423" y2="63.9159" gradientUnits="userSpaceOnUse">
<stop stop-color="#0088CC"/>
<stop offset="1" stop-color="#0083C5"/>
</linearGradient>
<linearGradient id="paint2_linear_1716_6555" x1="11.7008" y1="11.1008" x2="48.6008" y2="51.0008" gradientUnits="userSpaceOnUse">
<stop stop-color="#0088CC"/>
<stop offset="1" stop-color="#0083C5"/>
</linearGradient>
</defs>
</svg>
