<svg width="100%" height="100%" viewBox="0 0 222 168" fill="none" xmlns="http://www.w3.org/2000/svg">
<path d="M39.7031 78.6719C48.2013 78.6719 47.5055 112.976 66.6263 110.852C81.923 109.152 97.0781 113.684 102.744 116.163" stroke="white" stroke-width="1.06227" stroke-linecap="round"/>
<g filter="url(#filter0_f_939_3483)">
<path d="M39.1992 78.168C47.6974 78.168 47.5049 112.976 66.6258 110.851C81.9225 109.151 97.0775 113.684 102.743 116.162" stroke="#FFC46C" stroke-width="1.06227" stroke-linecap="round"/>
</g>
<g filter="url(#filter1_f_939_3483)">
<path d="M159.095 20.945C159.095 30.6414 158.971 30.89 155.987 30.89C154.371 30.89 152.507 31.8845 151.761 33.0033C150.642 35.1167 150.518 35.1167 148.156 32.879C144.924 30.0198 139.951 30.6414 139.454 33.9978C138.708 37.8515 137.216 38.7217 134.357 36.857C132.119 35.4896 131.498 35.4896 130.503 37.1057C128.514 40.2135 129.136 47.4236 131.746 50.7801C133.611 53.142 134.233 55.8769 134.233 62.8384C134.233 71.1673 133.984 71.9132 130.752 74.2751C127.52 76.5128 127.022 76.6371 125.158 74.7724C123.542 73.1563 122.796 73.032 121.304 74.2751C119.937 75.394 118.818 75.5183 116.953 74.3995C114.094 72.9077 110.116 74.3995 108.997 77.1343C108.624 78.2531 107.878 78.1288 106.635 76.5128C104.522 73.6536 100.917 74.8967 99.9223 78.8747C98.8035 83.2256 100.42 89.9385 103.03 92.3005C104.895 94.0408 105.143 95.284 104.273 99.6349C103.776 102.494 103.279 110.574 103.154 117.536C103.154 131.459 103.776 132.702 113.224 136.556C118.694 138.918 119.564 136.929 118.694 124.497C118.196 118.157 118.445 114.055 119.191 113.558C121.055 112.439 125.531 115.174 125.531 117.536C125.531 119.028 125.904 119.152 127.147 118.033C128.887 116.666 136.719 118.779 136.719 120.644C136.719 121.141 137.713 121.638 138.957 121.638C140.2 121.638 142.189 122.384 143.556 123.379C144.924 124.249 147.534 125.368 149.523 125.865C152.88 126.611 152.88 126.735 153.004 138.172C153.128 149.36 153.004 152.965 152.258 153.711C152.134 153.835 150.518 153.338 148.653 152.592C145.545 151.1 145.421 150.603 145.421 142.026C145.421 133.697 145.172 132.826 142.064 130.464C139.081 127.978 138.708 127.978 136.47 129.843C134.854 131.459 134.233 133.697 134.233 139.166V146.501L127.147 143.269C116.332 138.42 116.456 138.42 117.077 140.285C117.326 141.28 123.666 144.636 131.249 147.744C138.708 150.976 146.788 154.457 149.274 155.7C154.247 158.062 153.004 158.559 174.634 145.133C181.471 140.907 182.715 140.658 188.93 141.155C197.383 141.901 204.345 139.042 208.323 133.199L210.934 129.346L208.572 117.66C204.096 95.284 203.972 93.295 206.583 91.0573C209.069 88.6954 209.442 83.7229 207.577 78.8747C206.21 75.2696 202.48 74.6481 200.118 77.5073C198.751 79.1233 198.378 79.1233 197.135 77.6316C196.389 76.6371 194.649 75.6426 193.281 75.394C191.044 75.021 190.795 74.1508 191.168 67.1893C191.541 62.4654 191.044 58.7361 190.173 57.6172C189.054 56.3741 189.179 55.2553 190.795 52.7691C193.405 48.791 192.162 38.846 188.806 37.1057C185.947 35.4896 181.471 35.4896 181.471 37.1057C181.471 39.3433 178.737 38.3488 178.115 35.9868C177.245 32.6304 170.408 31.1386 168.419 33.8735C167.548 34.9923 166.43 35.8625 165.932 35.8625C164.068 35.8625 161.706 31.5116 161.581 28.2795C161.581 25.4203 162.203 24.923 168.792 23.5556C172.645 22.6854 176.623 21.6909 177.369 21.4423C179.482 20.945 177.991 17.2156 175.629 17.2156C172.521 17.2156 161.581 13.2376 161.581 12.1188C161.581 11.4973 161.084 11 160.338 11C159.592 11 159.095 15.1023 159.095 20.945ZM170.781 18.5831C171.402 19.2046 170.532 20.1991 168.543 20.945C163.197 22.934 161.581 22.5611 161.581 19.0803C161.581 16.3454 161.954 16.0968 165.684 16.8427C167.797 17.2156 170.159 17.9615 170.781 18.5831ZM160.463 44.5644C161.084 44.5644 161.581 42.9483 161.581 40.835C161.581 37.4786 161.83 37.23 165.062 37.8515C167.424 38.3488 169.04 37.9758 170.159 36.6084C171.899 34.6194 175.256 35.241 175.256 37.6029C175.256 38.4731 176.748 39.9649 178.488 40.9594C181.347 42.4511 181.844 42.3268 183.46 40.3378C184.828 38.4731 185.449 38.2245 186.941 39.4676C188.184 40.5864 188.433 41.7052 187.687 43.0727C187.065 44.3158 186.32 46.3048 185.822 47.5479C185.325 49.4126 184.828 49.6612 183.709 48.5424C181.347 46.1805 176.25 46.802 173.142 49.7855L170.159 52.5204L169.413 49.6612C168.792 47.0507 168.17 46.802 163.819 47.4236C161.084 47.7965 157.852 49.0397 156.485 50.2828C154.123 52.3961 153.998 52.3961 153.377 50.0342C153.004 48.6667 150.891 46.802 148.777 46.0562C145.172 44.6887 144.551 44.813 142.81 47.2993L140.697 49.9099L138.584 45.9319C136.595 41.9538 136.595 41.7052 139.081 39.0947C140.573 37.6029 141.691 35.6139 141.691 34.868C141.691 32.6304 144.799 33.1277 147.285 35.8625C149.399 38.2245 149.523 38.2245 153.998 35.1167L158.474 32.1331L158.847 38.3488C159.095 41.7052 159.717 44.5644 160.463 44.5644ZM134.233 38.9703C134.233 39.3433 133.984 39.5919 133.611 39.5919C133.238 39.5919 132.99 39.3433 132.99 38.9703C132.99 38.5974 133.238 38.3488 133.611 38.3488C133.984 38.3488 134.233 38.5974 134.233 38.9703ZM135.476 44.5644C135.476 47.0507 139.578 52.0232 141.567 52.0232C142.189 52.0232 143.183 50.9044 143.556 49.5369C144.675 46.1805 147.658 46.4291 149.274 50.0342C151.263 54.1365 156.485 55.0067 159.965 51.7746C162.576 49.2883 162.949 49.2883 165.808 51.2773C169.786 53.7635 174.759 53.8879 175.753 51.4016C176.499 49.2883 180.353 48.9154 182.342 50.9044C184.082 52.6447 188.93 49.6612 188.93 46.802C188.93 45.5589 189.552 44.5644 190.298 44.5644C192.66 44.5644 190.919 49.9099 187.687 52.1475C180.85 57.2443 153.874 58.7361 142.437 54.7581C135.849 52.5204 130.876 47.2993 132.119 44.0672C133.238 41.208 135.476 41.5809 135.476 44.5644ZM147.285 58.4874C154.869 60.1035 178.364 59.109 183.087 56.8714C184.952 56.0012 186.817 55.6282 187.19 56.1255C187.563 56.4984 188.184 61.3466 188.557 66.8164C189.054 73.9022 188.806 77.383 187.687 78.7504C185.574 81.361 183.958 81.1123 183.958 78.1288C183.958 75.5183 181.223 75.8912 177.618 78.999C175.877 80.4908 175.38 80.4908 174.883 79.1233C174.51 77.8802 173.764 78.1288 172.397 79.8692C171.029 81.7339 170.905 83.35 171.775 86.7064C172.521 89.1927 173.64 91.9275 174.261 92.6734C175.007 93.6679 175.131 94.2895 174.386 94.2895C173.764 94.2895 169.413 90.3115 164.689 85.4633C158.847 79.4963 155.614 77.01 154.247 77.5073C153.128 77.8802 148.404 80.4908 143.805 83.35C139.205 86.0848 135.103 88.1982 134.854 87.8252C134.481 87.5766 134.854 85.339 135.476 82.977C136.222 80.7394 136.719 73.5293 136.719 67.065C136.719 56.4984 136.968 55.5039 138.832 56.3741C140.075 56.7471 143.805 57.7416 147.285 58.4874ZM125.531 76.6371C125.531 77.2586 124.163 78.999 122.547 80.4908C119.937 82.8527 119.191 83.1013 116.953 81.7339C114.84 80.2421 114.094 80.4908 111.483 82.8527L108.624 85.5876L105.889 82.7284C102.409 78.999 102.16 75.5183 105.641 78.7504C108.003 80.8637 111.856 80.6151 111.856 78.1288C111.856 76.5128 115.959 76.5128 117.575 78.1288C118.445 78.999 119.688 78.7504 121.304 77.5073C124.039 75.5183 125.531 75.1453 125.531 76.6371ZM134.233 76.6371C134.233 78.0045 129.136 80.8637 128.266 79.9935C127.768 79.4963 128.514 78.3775 129.757 77.383C132.492 75.5183 134.233 75.1453 134.233 76.6371ZM185.449 83.1013C186.32 83.1013 188.184 81.8582 189.8 80.3665C192.411 77.8802 192.784 77.8802 194.897 79.7449C197.756 82.3555 198.751 82.3555 201.61 79.7449C202.853 78.6261 203.848 78.3775 203.848 79.1233C203.848 79.8692 203.226 80.8637 202.48 81.2366C201.859 81.7339 200.616 83.4743 199.994 85.2147C198.875 88.1982 198.627 88.1982 196.016 86.4578C192.66 84.2202 186.568 85.0903 184.331 87.9495C182.963 89.6899 182.715 89.6899 180.974 87.4523C178.861 84.7174 178.612 83.1013 179.731 79.9935C180.477 78.2531 180.726 78.3775 182.342 80.6151C183.336 81.9825 184.704 83.1013 185.449 83.1013ZM124.039 87.5766C121.677 90.0628 108.5 92.0518 105.516 90.5601C103.154 89.1927 101.165 84.7174 102.409 83.35C102.906 82.977 104.025 83.8472 105.143 85.339C107.505 88.6954 109.121 88.8197 112.478 85.5876C114.964 83.35 115.337 83.2256 116.829 84.966C119.066 87.7009 121.18 87.2037 123.169 83.4743C124.909 80.2421 124.909 80.2421 125.282 83.1013C125.531 84.5931 124.909 86.7064 124.039 87.5766ZM132.368 85.8362C131.871 88.8197 130.752 92.0518 129.757 93.0463C128.266 94.5381 128.017 94.0408 128.017 89.1927C128.017 83.9715 129.633 80.6151 132.119 80.6151C132.741 80.6151 132.865 82.977 132.368 85.8362ZM163.197 87.8252C167.051 91.8032 170.283 95.284 170.283 95.7812C170.283 96.6514 154.62 105.478 153.004 105.478C151.761 105.478 138.832 89.317 139.454 88.5711C140.697 87.328 153.625 80.6151 154.744 80.6151C155.49 80.6151 159.219 83.8472 163.197 87.8252ZM206.085 85.8362C205.464 90.0628 198.627 93.295 189.054 94.0408C180.974 94.5381 180.601 94.5381 176.623 90.4358C171.651 85.4633 173.764 83.7229 178.861 88.5711C182.963 92.5491 184.704 92.6734 187.563 89.1927C189.676 86.5821 189.8 86.5821 193.033 88.5711C197.135 91.306 201.113 90.1872 202.107 86.0848C203.102 82.2311 206.707 81.9825 206.085 85.8362ZM123.79 98.6404C122.174 99.8835 122.299 100.381 124.661 102.743C126.65 104.856 126.898 105.851 125.904 106.845C124.785 107.964 123.915 107.964 122.423 106.721C120.931 105.478 120.185 105.478 118.694 106.721C117.202 107.964 116.829 111.32 116.829 121.763C116.829 129.221 116.58 135.313 116.207 135.313C115.834 135.313 113.348 133.945 110.613 132.205C105.019 128.6 104.895 127.978 106.387 105.851L107.257 94.5381L116.083 92.922L124.909 91.1817L125.282 94.2895C125.531 95.9055 124.909 97.8945 123.79 98.6404ZM141.94 96.5271C147.658 103.986 148.902 107.342 148.28 113.185L147.658 117.66L139.454 114.552C134.854 112.936 130.628 111.072 130.13 110.574C129.633 110.077 128.887 106.969 128.39 103.613C127.768 97.8945 127.893 97.3973 131.871 94.1652C134.233 92.1762 136.346 90.5601 136.719 90.5601C137.092 90.5601 139.454 93.295 141.94 96.5271ZM201.734 96.4028C202.107 97.6459 203.599 105.478 205.215 113.807C207.95 128.227 207.95 128.973 205.837 132.205C203.226 136.183 196.886 139.042 190.919 139.042H186.693L185.947 127.481C185.574 121.265 185.076 114.055 184.828 111.693C184.579 108.088 183.958 107.218 180.85 106.348C177.493 105.353 177.12 104.732 177.12 100.754V96.1542L186.195 96.6514C191.914 96.9 195.892 96.5271 196.762 95.6569C198.751 93.6679 201.113 94.0408 201.734 96.4028ZM173.888 107.467C173.142 108.337 172.024 108.834 171.402 108.461C169.413 107.342 170.159 99.5106 172.521 97.273C174.51 95.1597 174.634 95.284 175.007 100.381C175.256 103.24 174.759 106.472 173.888 107.467ZM168.916 108.212C169.04 110.823 167.673 112.563 163.322 116.044C156.858 120.892 155.614 121.141 152.382 118.779C149.772 116.79 150.02 110.574 152.88 109.083C153.874 108.461 157.603 106.348 160.96 104.359C167.797 100.256 168.792 100.754 168.916 108.212ZM123.666 109.456C126.277 110.574 128.017 112.936 126.152 112.936C124.661 112.936 119.315 109.953 119.315 108.958C119.315 107.591 119.812 107.715 123.666 109.456ZM180.726 109.58C182.466 110.574 183.585 111.693 183.087 112.066C182.217 112.936 182.466 128.227 183.46 133.324C183.833 135.561 183.087 137.053 180.353 138.918C178.364 140.409 176.375 141.528 175.877 141.528C175.504 141.528 172.77 143.144 169.91 145.009C167.051 146.998 162.7 149.733 160.214 151.225L155.863 153.835V140.534L155.987 127.232L160.09 125.989C162.203 125.368 164.068 124.125 164.068 123.379C164.068 122.508 165.311 121.39 166.803 120.892C168.294 120.519 170.656 119.028 172.024 117.66C173.515 116.293 175.877 114.677 177.493 114.055C180.85 112.688 181.098 110.45 177.742 110.45C176.375 110.45 175.256 109.829 175.256 109.207C175.256 107.467 176.872 107.591 180.726 109.58ZM174.013 112.812C174.013 113.434 173.142 114.304 172.024 114.677C169.04 115.796 168.543 115.547 170.283 113.558C172.024 111.445 174.013 111.072 174.013 112.812ZM132.368 114.179C132.741 114.801 132.492 115.423 131.871 115.423C131.125 115.423 130.503 114.801 130.503 114.179C130.503 113.434 130.752 112.936 131.001 112.936C131.373 112.936 131.995 113.434 132.368 114.179ZM136.719 116.79C136.719 117.536 136.222 117.66 135.476 117.287C134.854 116.914 134.233 115.92 134.233 115.298C134.233 114.552 134.854 114.428 135.476 114.801C136.222 115.174 136.719 116.168 136.719 116.79ZM164.814 119.898C163.446 120.768 162.079 121.39 161.706 121.017C161.457 120.644 162.203 119.525 163.57 118.655C164.814 117.66 166.181 117.163 166.554 117.536C166.927 117.785 166.057 118.903 164.814 119.898ZM147.907 120.022C148.156 120.271 147.658 121.017 146.664 121.638C144.799 122.757 141.691 121.141 141.691 118.903C141.691 117.909 146.415 118.655 147.907 120.022ZM156.982 124.373C155.49 125.989 154.496 126.238 152.755 125.243C149.026 123.379 150.02 121.763 154.62 122.011C158.598 122.26 158.722 122.384 156.982 124.373ZM143.556 134.07C143.929 134.691 143.432 135.313 142.437 135.313C141.318 135.313 140.448 134.691 140.448 134.07C140.448 133.324 140.946 132.826 141.567 132.826C142.313 132.826 143.183 133.324 143.556 134.07ZM138.832 138.048C138.459 139.042 138.086 138.669 138.086 137.302C137.962 135.934 138.335 135.188 138.708 135.686C139.081 136.059 139.205 137.177 138.832 138.048ZM144.178 139.042C144.178 139.664 143.68 140.285 143.059 140.285C142.313 140.285 141.443 139.664 141.07 139.042C140.697 138.296 141.194 137.799 142.189 137.799C143.307 137.799 144.178 138.296 144.178 139.042ZM139.205 142.15C139.205 143.144 138.708 144.015 137.962 144.015C137.34 144.015 136.719 143.144 136.719 142.15C136.719 141.155 137.34 140.285 137.962 140.285C138.708 140.285 139.205 141.155 139.205 142.15ZM144.178 144.76C144.178 146.501 142.686 147.122 141.318 145.755C140.2 144.636 141.816 141.404 143.059 142.274C143.68 142.647 144.178 143.766 144.178 144.76ZM138.584 147.744C138.957 148.365 139.081 148.987 138.708 148.987C138.335 148.987 137.713 148.365 137.34 147.744C136.968 146.998 136.843 146.501 137.216 146.501C137.589 146.501 138.211 146.998 138.584 147.744ZM143.805 149.857C143.307 150.23 142.562 150.23 142.064 149.857C141.691 149.36 142.064 148.987 142.935 148.987C143.805 148.987 144.178 149.36 143.805 149.857Z" fill="#FFD464"/>
<path d="M141.943 66.5646C142.44 71.4128 145.424 71.7857 145.424 67.0618C145.424 64.4513 144.802 63.2082 143.435 63.2082C142.067 63.2082 141.694 64.2027 141.943 66.5646Z" fill="#FFD464"/>
<path d="M136.719 102.365C136.719 104.105 137.34 105.473 137.962 105.473C138.708 105.473 139.205 104.105 139.205 102.365C139.205 100.624 138.708 99.257 137.962 99.257C137.34 99.257 136.719 100.624 136.719 102.365Z" fill="#FFD464"/>
<path d="M163.453 106.848C162.21 108.712 163.826 109.956 165.442 108.339C166.312 107.469 166.312 106.723 165.566 106.226C164.82 105.853 163.826 106.102 163.453 106.848Z" fill="#FFD464"/>
<path d="M154.742 111.813C153.499 113.677 155.115 114.92 156.731 113.304C157.601 112.434 157.601 111.688 156.855 111.191C156.109 110.818 155.115 111.067 154.742 111.813Z" fill="#FFD464"/>
<path d="M175.25 123.505C175.25 125.866 175.872 127.855 176.493 127.855C177.239 127.855 177.736 125.866 177.736 123.505C177.736 121.143 177.239 119.154 176.493 119.154C175.872 119.154 175.25 121.143 175.25 123.505Z" fill="#FFD464"/>
<path d="M160.34 133.447C160.34 135.436 161.086 136.555 162.205 136.555C163.323 136.555 164.069 135.436 164.069 133.447C164.069 131.458 163.323 130.339 162.205 130.339C161.086 130.339 160.34 131.458 160.34 133.447Z" fill="#FFD464"/>
<path d="M144.18 121.019C144.18 121.392 144.428 121.641 144.801 121.641C145.174 121.641 145.423 121.392 145.423 121.019C145.423 120.646 145.174 120.397 144.801 120.397C144.428 120.397 144.18 120.646 144.18 121.019Z" fill="#FFD464"/>
<path d="M125.285 125.989C125.534 128.351 126.031 130.34 126.28 130.34C126.528 130.34 126.777 128.351 126.777 125.989C126.777 123.627 126.28 121.638 125.782 121.638C125.285 121.638 125.036 123.627 125.285 125.989Z" fill="#FFD464"/>
<path d="M123.047 128.472C123.047 128.845 123.296 129.094 123.668 129.094C124.041 129.094 124.29 128.845 124.29 128.472C124.29 128.099 124.041 127.851 123.668 127.851C123.296 127.851 123.047 128.099 123.047 128.472Z" fill="#FFD464"/>
</g>
<path d="M159.095 20.945C159.095 30.6414 158.971 30.89 155.987 30.89C154.371 30.89 152.507 31.8845 151.761 33.0033C150.642 35.1167 150.518 35.1167 148.156 32.879C144.924 30.0198 139.951 30.6414 139.454 33.9978C138.708 37.8515 137.216 38.7217 134.357 36.857C132.119 35.4896 131.498 35.4896 130.503 37.1057C128.514 40.2135 129.136 47.4236 131.746 50.7801C133.611 53.142 134.233 55.8769 134.233 62.8384C134.233 71.1673 133.984 71.9132 130.752 74.2751C127.52 76.5128 127.022 76.6371 125.158 74.7724C123.542 73.1563 122.796 73.032 121.304 74.2751C119.937 75.394 118.818 75.5183 116.953 74.3995C114.094 72.9077 110.116 74.3995 108.997 77.1343C108.624 78.2531 107.878 78.1288 106.635 76.5128C104.522 73.6536 100.917 74.8967 99.9223 78.8747C98.8035 83.2256 100.42 89.9385 103.03 92.3005C104.895 94.0408 105.143 95.284 104.273 99.6349C103.776 102.494 103.279 110.574 103.154 117.536C103.154 131.459 103.776 132.702 113.224 136.556C118.694 138.918 119.564 136.929 118.694 124.497C118.196 118.157 118.445 114.055 119.191 113.558C121.055 112.439 125.531 115.174 125.531 117.536C125.531 119.028 125.904 119.152 127.147 118.033C128.887 116.666 136.719 118.779 136.719 120.644C136.719 121.141 137.713 121.638 138.957 121.638C140.2 121.638 142.189 122.384 143.556 123.379C144.924 124.249 147.534 125.368 149.523 125.865C152.88 126.611 152.88 126.735 153.004 138.172C153.128 149.36 153.004 152.965 152.258 153.711C152.134 153.835 150.518 153.338 148.653 152.592C145.545 151.1 145.421 150.603 145.421 142.026C145.421 133.697 145.172 132.826 142.064 130.464C139.081 127.978 138.708 127.978 136.47 129.843C134.854 131.459 134.233 133.697 134.233 139.166V146.501L127.147 143.269C116.332 138.42 116.456 138.42 117.077 140.285C117.326 141.28 123.666 144.636 131.249 147.744C138.708 150.976 146.788 154.457 149.274 155.7C154.247 158.062 153.004 158.559 174.634 145.133C181.471 140.907 182.715 140.658 188.93 141.155C197.383 141.901 204.345 139.042 208.323 133.199L210.934 129.346L208.572 117.66C204.096 95.284 203.972 93.295 206.583 91.0573C209.069 88.6954 209.442 83.7229 207.577 78.8747C206.21 75.2696 202.48 74.6481 200.118 77.5073C198.751 79.1233 198.378 79.1233 197.135 77.6316C196.389 76.6371 194.649 75.6426 193.281 75.394C191.044 75.021 190.795 74.1508 191.168 67.1893C191.541 62.4654 191.044 58.7361 190.173 57.6172C189.054 56.3741 189.179 55.2553 190.795 52.7691C193.405 48.791 192.162 38.846 188.806 37.1057C185.947 35.4896 181.471 35.4896 181.471 37.1057C181.471 39.3433 178.737 38.3488 178.115 35.9868C177.245 32.6304 170.408 31.1386 168.419 33.8735C167.548 34.9923 166.43 35.8625 165.932 35.8625C164.068 35.8625 161.706 31.5116 161.581 28.2795C161.581 25.4203 162.203 24.923 168.792 23.5556C172.645 22.6854 176.623 21.6909 177.369 21.4423C179.482 20.945 177.991 17.2156 175.629 17.2156C172.521 17.2156 161.581 13.2376 161.581 12.1188C161.581 11.4973 161.084 11 160.338 11C159.592 11 159.095 15.1023 159.095 20.945ZM170.781 18.5831C171.402 19.2046 170.532 20.1991 168.543 20.945C163.197 22.934 161.581 22.5611 161.581 19.0803C161.581 16.3454 161.954 16.0968 165.684 16.8427C167.797 17.2156 170.159 17.9615 170.781 18.5831ZM160.463 44.5644C161.084 44.5644 161.581 42.9483 161.581 40.835C161.581 37.4786 161.83 37.23 165.062 37.8515C167.424 38.3488 169.04 37.9758 170.159 36.6084C171.899 34.6194 175.256 35.241 175.256 37.6029C175.256 38.4731 176.748 39.9649 178.488 40.9594C181.347 42.4511 181.844 42.3268 183.46 40.3378C184.828 38.4731 185.449 38.2245 186.941 39.4676C188.184 40.5864 188.433 41.7052 187.687 43.0727C187.065 44.3158 186.32 46.3048 185.822 47.5479C185.325 49.4126 184.828 49.6612 183.709 48.5424C181.347 46.1805 176.25 46.802 173.142 49.7855L170.159 52.5204L169.413 49.6612C168.792 47.0507 168.17 46.802 163.819 47.4236C161.084 47.7965 157.852 49.0397 156.485 50.2828C154.123 52.3961 153.998 52.3961 153.377 50.0342C153.004 48.6667 150.891 46.802 148.777 46.0562C145.172 44.6887 144.551 44.813 142.81 47.2993L140.697 49.9099L138.584 45.9319C136.595 41.9538 136.595 41.7052 139.081 39.0947C140.573 37.6029 141.691 35.6139 141.691 34.868C141.691 32.6304 144.799 33.1277 147.285 35.8625C149.399 38.2245 149.523 38.2245 153.998 35.1167L158.474 32.1331L158.847 38.3488C159.095 41.7052 159.717 44.5644 160.463 44.5644ZM134.233 38.9703C134.233 39.3433 133.984 39.5919 133.611 39.5919C133.238 39.5919 132.99 39.3433 132.99 38.9703C132.99 38.5974 133.238 38.3488 133.611 38.3488C133.984 38.3488 134.233 38.5974 134.233 38.9703ZM135.476 44.5644C135.476 47.0507 139.578 52.0232 141.567 52.0232C142.189 52.0232 143.183 50.9044 143.556 49.5369C144.675 46.1805 147.658 46.4291 149.274 50.0342C151.263 54.1365 156.485 55.0067 159.965 51.7746C162.576 49.2883 162.949 49.2883 165.808 51.2773C169.786 53.7635 174.759 53.8879 175.753 51.4016C176.499 49.2883 180.353 48.9154 182.342 50.9044C184.082 52.6447 188.93 49.6612 188.93 46.802C188.93 45.5589 189.552 44.5644 190.298 44.5644C192.66 44.5644 190.919 49.9099 187.687 52.1475C180.85 57.2443 153.874 58.7361 142.437 54.7581C135.849 52.5204 130.876 47.2993 132.119 44.0672C133.238 41.208 135.476 41.5809 135.476 44.5644ZM147.285 58.4874C154.869 60.1035 178.364 59.109 183.087 56.8714C184.952 56.0012 186.817 55.6282 187.19 56.1255C187.563 56.4984 188.184 61.3466 188.557 66.8164C189.054 73.9022 188.806 77.383 187.687 78.7504C185.574 81.361 183.958 81.1123 183.958 78.1288C183.958 75.5183 181.223 75.8912 177.618 78.999C175.877 80.4908 175.38 80.4908 174.883 79.1233C174.51 77.8802 173.764 78.1288 172.397 79.8692C171.029 81.7339 170.905 83.35 171.775 86.7064C172.521 89.1927 173.64 91.9275 174.261 92.6734C175.007 93.6679 175.131 94.2895 174.386 94.2895C173.764 94.2895 169.413 90.3115 164.689 85.4633C158.847 79.4963 155.614 77.01 154.247 77.5073C153.128 77.8802 148.404 80.4908 143.805 83.35C139.205 86.0848 135.103 88.1982 134.854 87.8252C134.481 87.5766 134.854 85.339 135.476 82.977C136.222 80.7394 136.719 73.5293 136.719 67.065C136.719 56.4984 136.968 55.5039 138.832 56.3741C140.075 56.7471 143.805 57.7416 147.285 58.4874ZM125.531 76.6371C125.531 77.2586 124.163 78.999 122.547 80.4908C119.937 82.8527 119.191 83.1013 116.953 81.7339C114.84 80.2421 114.094 80.4908 111.483 82.8527L108.624 85.5876L105.889 82.7284C102.409 78.999 102.16 75.5183 105.641 78.7504C108.003 80.8637 111.856 80.6151 111.856 78.1288C111.856 76.5128 115.959 76.5128 117.575 78.1288C118.445 78.999 119.688 78.7504 121.304 77.5073C124.039 75.5183 125.531 75.1453 125.531 76.6371ZM134.233 76.6371C134.233 78.0045 129.136 80.8637 128.266 79.9935C127.768 79.4963 128.514 78.3775 129.757 77.383C132.492 75.5183 134.233 75.1453 134.233 76.6371ZM185.449 83.1013C186.32 83.1013 188.184 81.8582 189.8 80.3665C192.411 77.8802 192.784 77.8802 194.897 79.7449C197.756 82.3555 198.751 82.3555 201.61 79.7449C202.853 78.6261 203.848 78.3775 203.848 79.1233C203.848 79.8692 203.226 80.8637 202.48 81.2366C201.859 81.7339 200.616 83.4743 199.994 85.2147C198.875 88.1982 198.627 88.1982 196.016 86.4578C192.66 84.2202 186.568 85.0903 184.331 87.9495C182.963 89.6899 182.715 89.6899 180.974 87.4523C178.861 84.7174 178.612 83.1013 179.731 79.9935C180.477 78.2531 180.726 78.3775 182.342 80.6151C183.336 81.9825 184.704 83.1013 185.449 83.1013ZM124.039 87.5766C121.677 90.0628 108.5 92.0518 105.516 90.5601C103.154 89.1927 101.165 84.7174 102.409 83.35C102.906 82.977 104.025 83.8472 105.143 85.339C107.505 88.6954 109.121 88.8197 112.478 85.5876C114.964 83.35 115.337 83.2256 116.829 84.966C119.066 87.7009 121.18 87.2037 123.169 83.4743C124.909 80.2421 124.909 80.2421 125.282 83.1013C125.531 84.5931 124.909 86.7064 124.039 87.5766ZM132.368 85.8362C131.871 88.8197 130.752 92.0518 129.757 93.0463C128.266 94.5381 128.017 94.0408 128.017 89.1927C128.017 83.9715 129.633 80.6151 132.119 80.6151C132.741 80.6151 132.865 82.977 132.368 85.8362ZM163.197 87.8252C167.051 91.8032 170.283 95.284 170.283 95.7812C170.283 96.6514 154.62 105.478 153.004 105.478C151.761 105.478 138.832 89.317 139.454 88.5711C140.697 87.328 153.625 80.6151 154.744 80.6151C155.49 80.6151 159.219 83.8472 163.197 87.8252ZM206.085 85.8362C205.464 90.0628 198.627 93.295 189.054 94.0408C180.974 94.5381 180.601 94.5381 176.623 90.4358C171.651 85.4633 173.764 83.7229 178.861 88.5711C182.963 92.5491 184.704 92.6734 187.563 89.1927C189.676 86.5821 189.8 86.5821 193.033 88.5711C197.135 91.306 201.113 90.1872 202.107 86.0848C203.102 82.2311 206.707 81.9825 206.085 85.8362ZM123.79 98.6404C122.174 99.8835 122.299 100.381 124.661 102.743C126.65 104.856 126.898 105.851 125.904 106.845C124.785 107.964 123.915 107.964 122.423 106.721C120.931 105.478 120.185 105.478 118.694 106.721C117.202 107.964 116.829 111.32 116.829 121.763C116.829 129.221 116.58 135.313 116.207 135.313C115.834 135.313 113.348 133.945 110.613 132.205C105.019 128.6 104.895 127.978 106.387 105.851L107.257 94.5381L116.083 92.922L124.909 91.1817L125.282 94.2895C125.531 95.9055 124.909 97.8945 123.79 98.6404ZM141.94 96.5271C147.658 103.986 148.902 107.342 148.28 113.185L147.658 117.66L139.454 114.552C134.854 112.936 130.628 111.072 130.13 110.574C129.633 110.077 128.887 106.969 128.39 103.613C127.768 97.8945 127.893 97.3973 131.871 94.1652C134.233 92.1762 136.346 90.5601 136.719 90.5601C137.092 90.5601 139.454 93.295 141.94 96.5271ZM201.734 96.4028C202.107 97.6459 203.599 105.478 205.215 113.807C207.95 128.227 207.95 128.973 205.837 132.205C203.226 136.183 196.886 139.042 190.919 139.042H186.693L185.947 127.481C185.574 121.265 185.076 114.055 184.828 111.693C184.579 108.088 183.958 107.218 180.85 106.348C177.493 105.353 177.12 104.732 177.12 100.754V96.1542L186.195 96.6514C191.914 96.9 195.892 96.5271 196.762 95.6569C198.751 93.6679 201.113 94.0408 201.734 96.4028ZM173.888 107.467C173.142 108.337 172.024 108.834 171.402 108.461C169.413 107.342 170.159 99.5106 172.521 97.273C174.51 95.1597 174.634 95.284 175.007 100.381C175.256 103.24 174.759 106.472 173.888 107.467ZM168.916 108.212C169.04 110.823 167.673 112.563 163.322 116.044C156.858 120.892 155.614 121.141 152.382 118.779C149.772 116.79 150.02 110.574 152.88 109.083C153.874 108.461 157.603 106.348 160.96 104.359C167.797 100.256 168.792 100.754 168.916 108.212ZM123.666 109.456C126.277 110.574 128.017 112.936 126.152 112.936C124.661 112.936 119.315 109.953 119.315 108.958C119.315 107.591 119.812 107.715 123.666 109.456ZM180.726 109.58C182.466 110.574 183.585 111.693 183.087 112.066C182.217 112.936 182.466 128.227 183.46 133.324C183.833 135.561 183.087 137.053 180.353 138.918C178.364 140.409 176.375 141.528 175.877 141.528C175.504 141.528 172.77 143.144 169.91 145.009C167.051 146.998 162.7 149.733 160.214 151.225L155.863 153.835V140.534L155.987 127.232L160.09 125.989C162.203 125.368 164.068 124.125 164.068 123.379C164.068 122.508 165.311 121.39 166.803 120.892C168.294 120.519 170.656 119.028 172.024 117.66C173.515 116.293 175.877 114.677 177.493 114.055C180.85 112.688 181.098 110.45 177.742 110.45C176.375 110.45 175.256 109.829 175.256 109.207C175.256 107.467 176.872 107.591 180.726 109.58ZM174.013 112.812C174.013 113.434 173.142 114.304 172.024 114.677C169.04 115.796 168.543 115.547 170.283 113.558C172.024 111.445 174.013 111.072 174.013 112.812ZM132.368 114.179C132.741 114.801 132.492 115.423 131.871 115.423C131.125 115.423 130.503 114.801 130.503 114.179C130.503 113.434 130.752 112.936 131.001 112.936C131.373 112.936 131.995 113.434 132.368 114.179ZM136.719 116.79C136.719 117.536 136.222 117.66 135.476 117.287C134.854 116.914 134.233 115.92 134.233 115.298C134.233 114.552 134.854 114.428 135.476 114.801C136.222 115.174 136.719 116.168 136.719 116.79ZM164.814 119.898C163.446 120.768 162.079 121.39 161.706 121.017C161.457 120.644 162.203 119.525 163.57 118.655C164.814 117.66 166.181 117.163 166.554 117.536C166.927 117.785 166.057 118.903 164.814 119.898ZM147.907 120.022C148.156 120.271 147.658 121.017 146.664 121.638C144.799 122.757 141.691 121.141 141.691 118.903C141.691 117.909 146.415 118.655 147.907 120.022ZM156.982 124.373C155.49 125.989 154.496 126.238 152.755 125.243C149.026 123.379 150.02 121.763 154.62 122.011C158.598 122.26 158.722 122.384 156.982 124.373ZM143.556 134.07C143.929 134.691 143.432 135.313 142.437 135.313C141.318 135.313 140.448 134.691 140.448 134.07C140.448 133.324 140.946 132.826 141.567 132.826C142.313 132.826 143.183 133.324 143.556 134.07ZM138.832 138.048C138.459 139.042 138.086 138.669 138.086 137.302C137.962 135.934 138.335 135.188 138.708 135.686C139.081 136.059 139.205 137.177 138.832 138.048ZM144.178 139.042C144.178 139.664 143.68 140.285 143.059 140.285C142.313 140.285 141.443 139.664 141.07 139.042C140.697 138.296 141.194 137.799 142.189 137.799C143.307 137.799 144.178 138.296 144.178 139.042ZM139.205 142.15C139.205 143.144 138.708 144.015 137.962 144.015C137.34 144.015 136.719 143.144 136.719 142.15C136.719 141.155 137.34 140.285 137.962 140.285C138.708 140.285 139.205 141.155 139.205 142.15ZM144.178 144.76C144.178 146.501 142.686 147.122 141.318 145.755C140.2 144.636 141.816 141.404 143.059 142.274C143.68 142.647 144.178 143.766 144.178 144.76ZM138.584 147.744C138.957 148.365 139.081 148.987 138.708 148.987C138.335 148.987 137.713 148.365 137.34 147.744C136.968 146.998 136.843 146.501 137.216 146.501C137.589 146.501 138.211 146.998 138.584 147.744ZM143.805 149.857C143.307 150.23 142.562 150.23 142.064 149.857C141.691 149.36 142.064 148.987 142.935 148.987C143.805 148.987 144.178 149.36 143.805 149.857Z" fill="white"/>
<path d="M141.943 66.5646C142.44 71.4128 145.424 71.7857 145.424 67.0618C145.424 64.4513 144.802 63.2082 143.435 63.2082C142.067 63.2082 141.694 64.2027 141.943 66.5646Z" fill="white"/>
<path d="M136.719 102.365C136.719 104.105 137.34 105.473 137.962 105.473C138.708 105.473 139.205 104.105 139.205 102.365C139.205 100.624 138.708 99.257 137.962 99.257C137.34 99.257 136.719 100.624 136.719 102.365Z" fill="white"/>
<path d="M163.453 106.848C162.21 108.712 163.826 109.956 165.442 108.339C166.312 107.469 166.312 106.723 165.566 106.226C164.82 105.853 163.826 106.102 163.453 106.848Z" fill="white"/>
<path d="M154.742 111.813C153.499 113.677 155.115 114.92 156.731 113.304C157.601 112.434 157.601 111.688 156.855 111.191C156.109 110.818 155.115 111.067 154.742 111.813Z" fill="white"/>
<path d="M175.25 123.505C175.25 125.866 175.872 127.855 176.493 127.855C177.239 127.855 177.736 125.866 177.736 123.505C177.736 121.143 177.239 119.154 176.493 119.154C175.872 119.154 175.25 121.143 175.25 123.505Z" fill="white"/>
<path d="M160.34 133.447C160.34 135.436 161.086 136.555 162.205 136.555C163.323 136.555 164.069 135.436 164.069 133.447C164.069 131.458 163.323 130.339 162.205 130.339C161.086 130.339 160.34 131.458 160.34 133.447Z" fill="white"/>
<path d="M144.18 121.019C144.18 121.392 144.428 121.641 144.801 121.641C145.174 121.641 145.423 121.392 145.423 121.019C145.423 120.646 145.174 120.397 144.801 120.397C144.428 120.397 144.18 120.646 144.18 121.019Z" fill="white"/>
<path d="M125.285 125.989C125.534 128.351 126.031 130.34 126.28 130.34C126.528 130.34 126.777 128.351 126.777 125.989C126.777 123.627 126.28 121.638 125.782 121.638C125.285 121.638 125.036 123.627 125.285 125.989Z" fill="white"/>
<path d="M123.047 128.472C123.047 128.845 123.296 129.094 123.668 129.094C124.041 129.094 124.29 128.845 124.29 128.472C124.29 128.099 124.041 127.851 123.668 127.851C123.296 127.851 123.047 128.099 123.047 128.472Z" fill="white"/>
<path d="M26.1841 51.9871C25.8093 52.3619 25.497 52.9241 25.497 53.2365C25.497 54.3922 24.31 56.9535 23.3417 57.9531C22.8107 58.4841 22.1235 59.3587 21.8736 59.9209C21.2489 61.1391 19.5622 62.9195 19.0312 62.9195C18.3128 62.9195 18.0941 63.9815 17.9067 68.2608C17.7505 71.5405 17.813 72.8836 18.1566 74.1955C19.1561 77.7876 19.1561 77.7876 17.7505 78.506C16.1575 79.3182 16.1575 79.3182 15.9076 81.7233C15.689 83.8473 15.5328 84.066 13.4088 85.0967C11.7845 85.9089 11.5034 86.6898 11.4722 90.8753C11.4722 95.0297 11.1911 96.9663 10.6288 96.9663C10.3789 96.9663 10.1915 97.1224 10.1915 97.2786C10.1915 97.466 9.87918 97.7471 9.50435 97.9033C8.8484 98.1532 8.8484 98.1844 9.41064 98.2157C10.1291 98.2469 11.1286 98.9341 11.1286 99.3714C11.1286 99.8712 12.1281 100.652 13.0652 100.871C13.5025 100.996 14.1272 101.37 14.4396 101.683C15.0643 102.37 17.5007 103.526 18.3128 103.526C18.6251 103.526 19.1874 103.276 19.5934 102.932C20.2494 102.401 20.3743 102.401 21.0303 102.807C21.4988 103.12 22.4046 103.276 23.5603 103.245C24.5287 103.213 25.497 103.182 25.6531 103.182C25.8405 103.182 26.7464 103.276 27.7147 103.401C29.0578 103.557 29.6825 103.494 30.4634 103.057C31.7128 102.432 32.1501 102.651 30.9007 103.338C30.4322 103.588 30.1511 103.807 30.276 103.838C30.4322 103.838 30.807 103.682 31.1506 103.526C31.5879 103.276 31.9315 103.307 32.4312 103.682C33.4308 104.369 34.2117 104.275 34.6177 103.37C34.8051 102.932 35.18 102.589 35.4611 102.589C35.8984 102.589 35.8984 102.526 35.4923 102.276C35.1487 102.058 35.1487 101.964 35.4299 101.964C35.6485 101.964 36.242 102.276 36.773 102.651C37.7101 103.338 37.7101 103.338 39.1781 102.776C40.5213 102.245 41.0835 102.151 43.7073 101.995C44.8318 101.964 44.7381 101.183 43.4886 100.121C42.6765 99.4026 42.6453 99.3402 43.1763 99.0903C43.676 98.8716 43.676 98.8404 43.0826 98.9653C42.5516 99.059 42.1767 98.8404 41.7082 98.1844C41.3334 97.6222 40.8024 97.2786 40.3338 97.2786C39.9278 97.2786 39.1781 96.9038 38.6159 96.4665C38.0224 95.9355 37.3977 95.6856 36.9604 95.7793C36.3357 95.9042 36.2732 95.7793 36.2732 94.5299C36.2732 93.4054 36.4606 92.9993 37.1478 92.4059C38.4285 91.3126 38.8033 90.0944 39.3655 85.4091C39.6779 83.0977 40.0215 80.5988 40.1777 79.8492C40.5525 78.1937 40.5837 77.0067 40.2089 75.851C40.0527 75.3513 39.7716 74.3205 39.553 73.5396C39.3343 72.7587 38.9282 71.6342 38.6159 71.0407C38.0536 69.9787 37.2103 63.513 36.8355 57.6719L36.648 55.0794L35.3986 54.4547C33.9306 53.6738 31.5254 52.9241 30.6196 52.9241C30.2448 52.9241 29.745 52.643 29.5263 52.3307C28.8392 51.3936 27.0275 51.2062 26.1841 51.9871ZM28.7767 52.9241C29.089 53.2677 29.6513 53.5488 29.9949 53.5801C30.6196 53.5801 30.6196 53.6113 29.9636 53.8924C28.5893 54.4547 27.8396 54.8295 28.3706 54.6733C28.683 54.5796 28.9953 54.6421 29.1203 54.8295C29.214 55.0169 29.6825 55.0794 30.1198 54.9857C30.5883 54.892 31.6504 54.7358 32.4937 54.6109C33.8681 54.4547 33.993 54.5171 33.6182 54.9232C33.2746 55.3605 33.3371 55.423 33.8993 55.423C34.2429 55.423 34.6177 55.3917 34.649 55.3293C34.7114 55.298 34.9926 55.4542 35.2424 55.6729C35.8047 56.1102 36.3045 59.0775 36.7418 64.4813C37.1791 69.7601 37.1791 69.885 36.4294 69.479C35.4611 68.948 35.6797 69.3853 37.0541 70.6347C37.8662 71.3219 38.2098 71.8841 38.0224 72.0715C37.8662 72.2277 38.0224 72.9774 38.5222 74.0394C38.9282 74.9764 39.2406 75.9135 39.1469 76.1321C39.0844 76.3196 38.8345 75.9135 38.6159 75.1638C38.3972 74.4454 38.0849 73.8519 37.9599 73.8519C37.835 73.8519 37.9599 74.5079 38.2098 75.32C38.5222 76.2571 38.7096 78.1 38.7408 80.2552C38.7721 83.2851 38.6784 83.8473 38.0536 85.0967C37.6476 85.8776 37.0853 86.7522 36.8042 87.0646C36.3357 87.5956 36.2732 87.5644 35.3986 86.7522C34.1804 85.5653 33.056 83.3163 32.4937 80.7862C32.0877 79.0058 32.0877 78.506 32.4312 77.444C32.8685 76.1634 33.3995 75.851 34.7114 76.1634C35.6485 76.4133 36.6168 78.4436 36.8979 80.7238C37.0853 82.2231 37.0229 82.5667 36.4606 83.2226L35.8047 84.0035L35.18 83.2226C34.3679 82.1918 33.5557 79.7242 33.8056 79.0371C34.2117 77.9438 35.0238 78.6622 35.3049 80.3489C35.4611 81.2235 35.711 81.9732 35.8359 81.9732C36.4919 81.9732 35.7735 78.5685 34.9926 78.0063C34.6177 77.7252 34.3054 77.7252 33.8368 77.9438C32.931 78.4436 33.2121 81.4734 34.3366 83.1914C35.8984 85.534 37.3665 84.5033 37.3665 81.0986C37.3665 77.6939 35.9609 75.4137 33.8993 75.4137C32.3063 75.4137 31.7441 76.2571 31.7441 78.5685C31.7441 81.6296 33.3683 85.7839 35.2737 87.5331C36.2732 88.4702 37.0853 88.2515 37.8662 86.8147C38.1786 86.2212 38.4909 85.7839 38.5222 85.8464C38.8033 86.0963 37.6476 90.8129 37.2103 91.2501C36.7418 91.6874 36.648 91.6874 35.9296 91.0003C35.5236 90.6254 34.8051 89.5322 34.3679 88.6264C33.8993 87.7205 33.4933 86.9709 33.462 86.9709C33.1809 86.9709 33.993 89.0324 34.8364 90.5317C36.0546 92.6245 36.0858 93.3117 35.0238 93.0306C34.0867 92.8119 34.0243 92.9993 34.8676 93.8427C35.2737 94.2488 35.4923 94.8735 35.4923 95.5919C35.4923 96.7788 34.9926 99.3402 34.5865 100.09C34.4616 100.34 34.3679 101.058 34.3991 101.652C34.4303 102.245 34.3054 102.901 34.1804 103.088C33.8993 103.463 32.6811 103.307 32.6811 102.932C32.6811 102.37 33.1184 102.339 33.4933 102.839C33.7744 103.213 33.8993 103.245 33.9306 102.963C33.9306 102.714 33.6494 102.183 33.3058 101.745L32.6811 100.933V101.777C32.6811 102.214 32.5562 102.589 32.4 102.589C31.7441 102.589 31.7753 101.964 32.4312 100.496C33.056 99.0903 33.4933 96.2791 33.6494 92.156L33.7119 90.5942L34.649 91.6874C35.6797 92.8744 35.4923 92.4059 34.1804 90.5942C33.7119 89.9383 33.3058 89.1261 33.3058 88.8138C33.3058 88.5014 33.0247 87.783 32.6499 87.2208C32.2751 86.6585 32.0877 86.4711 32.2126 86.8147C32.8373 88.6888 33.0247 90.7816 32.931 94.5299C32.8061 98.1532 32.7124 98.8716 32.0564 100.184C31.5879 101.089 31.1506 101.62 30.9007 101.527C30.6821 101.433 30.4946 101.527 30.4946 101.745C30.4946 101.964 30.1198 102.308 29.6513 102.495C28.6205 102.995 28.3082 102.995 28.3082 102.557C28.3082 102.37 28.4956 102.276 28.7142 102.37C28.9016 102.432 29.2452 102.339 29.4639 102.12C29.9012 101.62 29.5888 101.214 29.1203 101.652C28.8704 101.839 28.7142 101.652 28.683 100.964C28.558 99.59 28.3082 99.4339 28.3082 100.746C28.2769 101.652 28.2457 101.714 27.9646 101.246C27.7771 100.902 27.7147 100.121 27.8396 99.3714C28.0895 97.8721 27.7459 97.997 27.3711 99.5276L27.1212 100.558L27.09 99.4026C27.0587 98.7467 27.2461 97.6847 27.496 97.06C28.1207 95.3732 28.7142 92.1872 28.5268 91.4688C28.4331 91.0315 28.3706 91.094 28.3394 91.7187C28.3394 92.1872 28.152 92.6558 27.9958 92.7495C27.8084 92.8744 27.7459 93.2492 27.8709 93.6241C28.027 94.1863 27.9958 94.2488 27.6834 93.9364C27.3711 93.6241 27.3711 93.2805 27.6834 92.0623C27.9021 91.2501 28.2769 90.1881 28.5268 89.7196C29.4326 87.8455 28.7142 83.941 27.1212 82.1918C26.559 81.5671 24.8722 80.2865 24.8722 80.4739C24.8722 80.5364 25.372 81.1611 25.9967 81.8482C28.1207 84.1284 28.9016 87.4082 27.8396 89.4697C27.5897 89.9383 27.3399 91.1877 27.2461 92.2185C27.1837 93.2805 26.9963 94.3112 26.8713 94.5299C26.7151 94.811 26.8088 94.7798 27.2149 94.4674C27.7147 94.0301 27.7459 94.0613 27.5897 94.6236C27.496 94.9672 27.2461 95.8418 27.0275 96.5602C26.8088 97.3098 26.559 97.9033 26.434 97.9033C26.0592 97.9033 24.5599 94.1863 24.5599 93.2805C24.5287 92.6245 24.4662 92.5308 24.2475 92.9369C23.9039 93.5303 24.5599 96.1854 25.3408 97.4036C25.8718 98.2157 26.8401 102.276 26.5902 102.557C26.4965 102.62 25.9343 102.276 25.3095 101.808C24.31 101.058 24.2163 101.027 24.5287 101.62C24.7473 101.964 24.7785 102.276 24.6536 102.276C24.5287 102.276 24.0914 102.37 23.7165 102.464C23.1231 102.62 22.9981 102.526 22.9669 101.933C22.9356 101.402 22.8732 101.339 22.7795 101.714C22.717 102.026 22.5296 102.276 22.3734 102.276C22.2172 102.276 22.186 102.058 22.2797 101.745C22.4359 101.37 22.3734 101.308 22.061 101.495C21.7487 101.683 21.6862 101.62 21.8424 101.246C22.0923 100.59 20.9678 99.8712 20.6867 100.496C20.593 100.683 20.6242 100.465 20.7179 99.9649C20.8429 99.3402 20.7804 99.1215 20.5617 99.2777C20.3119 99.4339 20.2494 99.3402 20.3743 99.0278C20.468 98.7467 20.4056 98.528 20.1869 98.528C19.9995 98.528 19.9058 98.4031 19.9995 98.2469C20.0932 98.0907 19.6247 97.3723 18.9063 96.6227L17.6568 95.2483L18.469 96.6851C18.9375 97.5597 19.1874 98.3719 19.0624 98.7154C18.9063 99.2152 18.9375 99.2465 19.2498 98.8404C19.5622 98.4343 19.5934 98.4656 19.4373 98.9341C19.3435 99.2465 19.2498 99.7462 19.2498 100.027C19.2186 100.402 19.0937 100.34 18.7813 99.7775C18.344 99.0278 18.3128 99.0903 18.4377 100.871C18.5002 101.901 18.469 102.308 18.3752 101.808L18.2191 100.871L17.9692 101.652C17.7818 102.214 17.7193 102.058 17.8442 101.027C17.9379 100.09 17.8755 99.8399 17.7193 100.246L17.4382 100.871L17.3132 100.246C17.2195 99.9024 17.2195 100.09 17.282 100.652C17.4382 101.808 16.8759 102.026 16.4699 100.933L16.1888 100.246L15.9076 100.996C15.6265 101.683 15.5953 101.683 15.0955 101.183C14.4083 100.527 14.3771 97.6847 15.033 96.1229C15.5953 94.811 15.6265 94.3425 15.0955 95.3108C14.8769 95.6856 14.5957 95.998 14.4083 95.998C14.2522 95.998 13.8773 96.7164 13.565 97.6534C13.1901 98.9029 13.034 99.1215 13.0027 98.528C12.9403 97.9658 12.8466 98.122 12.7216 98.9966L12.5342 100.246L11.972 99.4339C11.5034 98.7154 11.4722 98.4031 11.7845 97.2474C11.972 96.4977 12.2218 93.8739 12.3155 91.4376C12.5342 86.6585 12.7528 86.0963 14.502 85.5653C15.1892 85.3779 15.2205 85.4091 15.158 87.8142C15.158 89.1574 15.3454 90.8753 15.564 91.6562C16.0326 93.0306 16.0326 93.0306 15.8764 90.0944C15.7827 88.0329 15.9076 86.4711 16.2512 85.003C16.5323 83.8161 16.751 82.348 16.751 81.7233C16.751 80.4114 17.4694 79.162 18.2191 79.162C18.5627 79.162 18.6564 79.4119 18.5627 80.0991C18.469 80.6613 18.5314 80.9424 18.6876 80.7862C18.9375 80.5364 19.1249 79.7242 19.2186 78.4436C19.2811 78.0375 19.9058 78.1937 21.5613 79.0058L23.1543 79.8179L21.6862 78.5373C19.4373 76.6007 18.8438 74.7578 18.7501 69.479C18.6251 64.044 18.7188 63.6379 19.8746 63.6379C20.4368 63.6379 20.8116 63.8253 20.8741 64.1065C20.9678 64.5125 21.0303 64.4813 21.4051 64.044C21.8112 63.5755 21.7799 63.4817 21.1552 63.3256L20.468 63.1382L21.2177 62.326C21.655 61.8887 22.2172 61.0141 22.4671 60.4207C22.7482 59.8272 23.248 58.9838 23.6228 58.5465L24.2475 57.7656L23.9352 58.6402C23.2792 60.5144 23.6228 60.8892 24.4349 59.1712C25.4345 57.0472 26.1217 55.1106 26.1217 54.4234C26.1217 54.1423 26.2466 53.5488 26.434 53.1115C26.8088 52.112 27.9646 52.0183 28.7767 52.9241ZM30.3385 54.4859C30.2448 54.6421 29.9012 54.7983 29.62 54.7983C29.1515 54.7983 29.1515 54.7358 29.5576 54.4859C30.1823 54.0798 30.5883 54.0798 30.3385 54.4859ZM39.8028 98.653C41.2397 100.027 41.3646 99.9649 40.615 98.4343C40.2089 97.6222 40.4275 97.7471 41.7082 99.1527C42.5516 100.09 43.27 100.964 43.3012 101.089C43.3012 101.246 42.8952 101.339 42.3642 101.339C41.677 101.339 41.4271 101.183 41.4271 100.777C41.3958 100.277 41.3958 100.277 41.0835 100.808C40.8961 101.089 40.6462 101.277 40.4588 101.183C40.3026 101.089 40.2714 101.183 40.3651 101.433C40.5525 101.964 40.0215 102.214 38.9282 102.151C38.4909 102.12 38.0536 102.214 37.9599 102.37C37.6163 102.87 37.0541 102.276 37.0229 101.402L36.9916 100.558L36.7418 101.339C36.5231 101.995 36.4919 102.026 36.4606 101.495C36.4294 100.996 36.3669 100.964 36.1483 101.308C35.6173 102.12 35.3986 100.277 35.8047 98.4031C36.3357 95.8418 36.8355 95.873 39.8028 98.653Z" fill="white"/>
<path d="M29.3707 56.9562C28.09 57.7371 27.5903 59.2989 27.7464 61.7665C27.9338 64.5465 29.0583 66.5768 32.5567 70.5749C36.18 74.6668 37.6481 76.8845 38.2103 79.0085L38.6164 80.5703L38.429 79.0085C38.1791 76.9158 37.1483 75.1041 34.0248 71.2934C30.0579 66.4518 29.6206 65.8271 28.9021 63.8905C27.9651 61.3917 28.215 59.049 29.5581 57.8308C31.401 56.1754 34.0872 57.2374 34.8369 59.9861C35.3991 61.9852 35.6178 66.1395 35.2117 66.9204C34.6807 67.8887 33.2127 67.8262 32.4005 66.8267C31.6196 65.8271 31.0886 63.3595 31.3385 61.8602C31.5572 60.4234 31.8071 60.2672 32.6816 60.9856C33.2439 61.4229 33.4313 61.9852 33.5562 63.3908C33.65 64.7027 33.6187 65.14 33.3376 64.9838C33.1502 64.8588 32.994 64.2966 32.994 63.7031C32.994 63.1096 32.8691 62.5474 32.6816 62.4537C32.0882 62.0789 32.3381 64.9838 32.9315 65.5148C33.7749 66.2644 34.2434 65.6397 34.2434 63.7656C34.2434 60.9544 32.5255 58.8928 31.2136 60.1735C30.0579 61.3292 30.4952 65.5772 31.9632 67.3264C32.5879 68.0449 32.994 68.2323 33.9311 68.2323C36.0863 68.2323 36.4924 66.8579 35.774 61.7665C35.5866 60.4234 35.2117 58.9241 34.9306 58.4555C33.7749 56.4877 31.2448 55.8005 29.3707 56.9562Z" fill="#FFEF63"/>
<path d="M26.6503 57.9877C26.213 58.5499 25.6508 59.7993 25.3384 60.7364C25.0261 61.7047 24.4638 62.7667 23.9953 63.1728C23.5268 63.5476 23.3706 63.7975 23.6517 63.7038C24.3389 63.4539 24.6825 64.391 24.0265 64.7345C23.683 64.922 23.6517 65.0781 23.9016 65.2343C24.089 65.3593 24.2452 65.2968 24.2452 65.1406C24.2452 64.9532 24.4638 64.797 24.7137 64.797C24.9636 64.797 25.1823 64.5159 25.1823 64.2035C25.1823 63.0478 26.1818 59.6432 26.9002 58.3C27.7748 56.7382 27.6811 56.6133 26.6503 57.9877Z" fill="white"/>
<path d="M21.9061 62.6071C21.8124 62.7945 21.9373 62.8257 22.1872 62.732C22.4684 62.6383 22.687 62.7008 22.687 62.9194C22.687 63.1068 22.8432 63.1693 23.0306 63.0444C23.2805 62.9194 23.2492 62.7633 22.9681 62.5758C22.4059 62.2322 22.156 62.2322 21.9061 62.6071Z" fill="white"/>
<path d="M26.0311 63.762C25.9062 63.8557 25.8125 64.2305 25.8125 64.5741C25.8125 65.355 26.2186 65.0114 26.281 64.1681C26.3435 63.4809 26.3123 63.4496 26.0311 63.762Z" fill="white"/>
<path d="M24.7802 65.3211C24.7178 65.4461 25.0926 65.9146 25.6236 66.3207L26.5919 67.1016L25.811 66.1645C25.3737 65.6647 24.9989 65.2274 24.9989 65.165C24.9677 65.1025 24.8739 65.165 24.7802 65.3211Z" fill="white"/>
<path d="M20.6287 66.2962C19.5355 67.0146 19.2231 70.0445 19.9415 72.8557C20.3476 74.5112 21.8781 76.1979 24.783 78.1657C26.5635 79.3839 27.2507 80.0711 28.219 81.5392C28.5625 82.1014 28.5938 82.1014 28.5938 81.5704C28.625 80.8208 26.3761 78.4469 24.7518 77.4786C22.8777 76.3853 20.9098 74.1364 20.4725 72.5433C19.9728 70.8879 19.9728 68.2641 20.4725 67.3582C21.2847 65.8277 24.2833 66.9522 25.1579 69.0762C25.8451 70.7941 26.3761 73.8552 26.1574 74.7298C25.7826 76.073 24.8143 75.9792 23.5024 74.4487C22.0655 72.762 21.4408 70.6692 21.9406 69.3573C22.4404 68.0767 23.9084 69.4198 24.1583 71.3876C24.377 72.9182 23.8147 72.8869 23.4711 71.3564C23.19 70.0757 22.6903 69.8571 22.6903 71.044C22.6903 72.3559 24.0646 73.7928 24.7518 73.1993C25.6889 72.4496 24.6581 69.0762 23.315 68.389C22.5966 68.0142 22.3779 68.0142 21.7844 68.4202C20.9723 69.0137 20.8786 71.1065 21.597 72.8557C22.8464 75.7918 25.8763 77.4161 26.6884 75.5732C27.2194 74.4175 27.1569 73.4492 26.4073 70.6692C25.8451 68.6701 25.5327 68.0767 24.5332 67.1396C23.5961 66.2962 23.0339 66.0463 22.128 66.0463C21.5033 66.0463 20.8161 66.1713 20.6287 66.2962Z" fill="#FFEF63"/>
<path d="M27.4036 69.0693C28.3719 71.162 28.903 71.7868 28.1221 69.9439C27.5598 68.5695 27.5598 68.1947 28.1533 68.9756C28.6531 69.6627 28.778 69.2879 28.3095 68.5383C28.1533 68.2884 27.9346 68.1947 27.8097 68.2884C27.716 68.4133 27.3412 68.1947 27.0288 67.8198C26.6852 67.3825 26.8102 67.8511 27.4036 69.0693Z" fill="white"/>
<path d="M36.0505 71.6939C36.3628 72.4435 37.1749 72.5685 37.8309 71.9438C38.0495 71.7251 37.9558 71.6939 37.581 71.8501C37.2374 71.975 36.8001 71.8501 36.3941 71.4752C35.8006 70.9442 35.7693 70.9442 36.0505 71.6939Z" fill="white"/>
<path d="M28.5254 73.3823C28.6191 74.413 28.744 75.3189 28.8065 75.3814C29.0251 75.6312 28.869 73.0699 28.6191 72.289C28.4629 71.7893 28.4317 72.2266 28.5254 73.3823Z" fill="white"/>
<path d="M18.7492 81.7563C17.3748 83.3805 16.9688 84.6924 16.9688 87.6285C16.9688 91.2831 17.6559 93.2197 19.655 94.9064C20.4671 95.6248 21.5604 96.8118 22.0601 97.5614C23.2783 99.3731 23.2471 98.8421 22.0289 96.7181C21.5291 95.8123 20.7795 94.9377 20.4047 94.8127C18.2806 94.0006 17.1562 90.4397 17.6872 86.1917C17.9371 84.1614 19.1552 81.6626 19.8737 81.6626C20.2485 81.6626 20.6545 82.6309 20.9357 84.3176C21.1543 85.5358 21.1543 85.5358 20.6545 84.8486C20.3734 84.4738 19.9361 84.1614 19.6862 84.1614C17.9058 84.1614 17.9371 92.595 19.7487 92.8449C20.0923 92.9074 20.6545 92.6262 20.9981 92.2514C21.5291 91.6579 21.5916 91.1269 21.5916 87.6285C21.5916 83.443 21.1855 81.5688 20.186 81.0378C19.7175 80.788 19.4364 80.9129 18.7492 81.7563ZM20.4984 86.0668C20.4984 86.1917 20.311 86.5041 20.0923 86.7227C19.4364 87.3787 19.2177 88.222 19.5613 88.878C19.9674 89.6276 20.717 89.6589 20.9044 88.9092C20.9981 88.6281 20.9669 89.0654 20.9044 89.94C20.5921 92.6575 19.7799 93.0635 19.2802 90.7209C18.8429 88.6906 18.8429 86.629 19.2802 85.5045C19.5925 84.6612 19.6238 84.6612 20.0611 85.2234C20.311 85.567 20.4984 85.9418 20.4984 86.0668Z" fill="#FFEF63"/>
<path d="M22.1874 81.504C22.3124 82.0662 22.8746 82.8159 23.5618 83.3781C24.1865 83.8779 25.2485 84.8462 25.8732 85.4709C26.4979 86.1268 27.0914 86.5329 27.1851 86.3767C27.4975 85.877 26.4042 83.3156 25.4984 82.4411C24.9674 81.9413 24.4676 81.6289 24.3739 81.7539C24.2802 81.8476 24.655 82.3473 25.186 82.8471C25.7483 83.3156 26.1543 83.9091 26.0919 84.1278C25.9044 84.6588 23.4681 82.8471 22.6559 81.5665L22 80.5669L22.1874 81.504Z" fill="white"/>
<path d="M29.7187 85.0657C29.5313 85.4092 29.9998 85.7841 30.3122 85.503C30.5933 85.2218 30.5308 84.7845 30.2185 84.7845C30.031 84.7845 29.8436 84.9095 29.7187 85.0657Z" fill="white"/>
<path d="M24.2786 86.4408C24.6846 86.8469 25.0907 87.128 25.1532 87.0655C25.3718 86.9094 24.1849 85.7224 23.8413 85.7224C23.6539 85.7224 23.8725 86.0348 24.2786 86.4408Z" fill="white"/>
<path d="M25.5 87.22C25.5 87.3761 25.7186 87.6885 25.9685 87.9071C26.2184 88.1258 26.4371 88.1883 26.4371 88.0946C26.4371 87.9696 26.2184 87.6573 25.9685 87.4074C25.7186 87.1262 25.5 87.0638 25.5 87.22Z" fill="white"/>
<path d="M24.8672 88.8413C24.8672 88.9975 24.9921 89.1537 25.1171 89.1537C25.242 89.1537 25.6168 89.591 25.9292 90.122C26.2416 90.653 26.5539 90.9966 26.6164 90.9341C26.8038 90.7467 25.3982 88.5602 25.1171 88.529C24.9609 88.529 24.8672 88.6539 24.8672 88.8413Z" fill="white"/>
<path d="M26.7461 88.8051C26.7461 88.9925 26.9023 89.2111 27.0584 89.3048C27.2459 89.3985 27.3708 89.2736 27.3708 89.0237C27.3708 88.7426 27.2459 88.5239 27.0584 88.5239C26.9023 88.5239 26.7461 88.6489 26.7461 88.8051Z" fill="white"/>
<path d="M24.936 90.9339C24.9672 91.2463 25.2796 91.7773 25.5919 92.1209C26.1854 92.7456 26.1854 92.7456 25.6544 91.6523C24.9672 90.278 24.9047 90.2155 24.936 90.9339Z" fill="white"/>
<g filter="url(#filter2_f_939_3483)">
<path d="M26.1841 51.9871C25.8093 52.3619 25.497 52.9241 25.497 53.2365C25.497 54.3922 24.31 56.9535 23.3417 57.9531C22.8107 58.4841 22.1235 59.3587 21.8736 59.9209C21.2489 61.1391 19.5622 62.9195 19.0312 62.9195C18.3128 62.9195 18.0941 63.9815 17.9067 68.2608C17.7505 71.5405 17.813 72.8836 18.1566 74.1955C19.1561 77.7876 19.1561 77.7876 17.7505 78.506C16.1575 79.3182 16.1575 79.3182 15.9076 81.7233C15.689 83.8473 15.5328 84.066 13.4088 85.0967C11.7845 85.9089 11.5034 86.6898 11.4722 90.8753C11.4722 95.0297 11.1911 96.9663 10.6288 96.9663C10.3789 96.9663 10.1915 97.1224 10.1915 97.2786C10.1915 97.466 9.87918 97.7471 9.50435 97.9033C8.8484 98.1532 8.8484 98.1844 9.41064 98.2157C10.1291 98.2469 11.1286 98.9341 11.1286 99.3714C11.1286 99.8712 12.1281 100.652 13.0652 100.871C13.5025 100.996 14.1272 101.37 14.4396 101.683C15.0643 102.37 17.5007 103.526 18.3128 103.526C18.6251 103.526 19.1874 103.276 19.5934 102.932C20.2494 102.401 20.3743 102.401 21.0303 102.807C21.4988 103.12 22.4046 103.276 23.5603 103.245C24.5287 103.213 25.497 103.182 25.6531 103.182C25.8405 103.182 26.7464 103.276 27.7147 103.401C29.0578 103.557 29.6825 103.494 30.4634 103.057C31.7128 102.432 32.1501 102.651 30.9007 103.338C30.4322 103.588 30.1511 103.807 30.276 103.838C30.4322 103.838 30.807 103.682 31.1506 103.526C31.5879 103.276 31.9315 103.307 32.4312 103.682C33.4308 104.369 34.2117 104.275 34.6177 103.37C34.8051 102.932 35.18 102.589 35.4611 102.589C35.8984 102.589 35.8984 102.526 35.4923 102.276C35.1487 102.058 35.1487 101.964 35.4299 101.964C35.6485 101.964 36.242 102.276 36.773 102.651C37.7101 103.338 37.7101 103.338 39.1781 102.776C40.5213 102.245 41.0835 102.151 43.7073 101.995C44.8318 101.964 44.7381 101.183 43.4886 100.121C42.6765 99.4026 42.6453 99.3402 43.1763 99.0903C43.676 98.8716 43.676 98.8404 43.0826 98.9653C42.5516 99.059 42.1767 98.8404 41.7082 98.1844C41.3334 97.6222 40.8024 97.2786 40.3338 97.2786C39.9278 97.2786 39.1781 96.9038 38.6159 96.4665C38.0224 95.9355 37.3977 95.6856 36.9604 95.7793C36.3357 95.9042 36.2732 95.7793 36.2732 94.5299C36.2732 93.4054 36.4606 92.9993 37.1478 92.4059C38.4285 91.3126 38.8033 90.0944 39.3655 85.4091C39.6779 83.0977 40.0215 80.5988 40.1777 79.8492C40.5525 78.1937 40.5837 77.0067 40.2089 75.851C40.0527 75.3513 39.7716 74.3205 39.553 73.5396C39.3343 72.7587 38.9282 71.6342 38.6159 71.0407C38.0536 69.9787 37.2103 63.513 36.8355 57.6719L36.648 55.0794L35.3986 54.4547C33.9306 53.6738 31.5254 52.9241 30.6196 52.9241C30.2448 52.9241 29.745 52.643 29.5263 52.3307C28.8392 51.3936 27.0275 51.2062 26.1841 51.9871ZM28.7767 52.9241C29.089 53.2677 29.6513 53.5488 29.9949 53.5801C30.6196 53.5801 30.6196 53.6113 29.9636 53.8924C28.5893 54.4547 27.8396 54.8295 28.3706 54.6733C28.683 54.5796 28.9953 54.6421 29.1203 54.8295C29.214 55.0169 29.6825 55.0794 30.1198 54.9857C30.5883 54.892 31.6504 54.7358 32.4937 54.6109C33.8681 54.4547 33.993 54.5171 33.6182 54.9232C33.2746 55.3605 33.3371 55.423 33.8993 55.423C34.2429 55.423 34.6177 55.3917 34.649 55.3293C34.7114 55.298 34.9926 55.4542 35.2424 55.6729C35.8047 56.1102 36.3045 59.0775 36.7418 64.4813C37.1791 69.7601 37.1791 69.885 36.4294 69.479C35.4611 68.948 35.6797 69.3853 37.0541 70.6347C37.8662 71.3219 38.2098 71.8841 38.0224 72.0715C37.8662 72.2277 38.0224 72.9774 38.5222 74.0394C38.9282 74.9764 39.2406 75.9135 39.1469 76.1321C39.0844 76.3196 38.8345 75.9135 38.6159 75.1638C38.3972 74.4454 38.0849 73.8519 37.9599 73.8519C37.835 73.8519 37.9599 74.5079 38.2098 75.32C38.5222 76.2571 38.7096 78.1 38.7408 80.2552C38.7721 83.2851 38.6784 83.8473 38.0536 85.0967C37.6476 85.8776 37.0853 86.7522 36.8042 87.0646C36.3357 87.5956 36.2732 87.5644 35.3986 86.7522C34.1804 85.5653 33.056 83.3163 32.4937 80.7862C32.0877 79.0058 32.0877 78.506 32.4312 77.444C32.8685 76.1634 33.3995 75.851 34.7114 76.1634C35.6485 76.4133 36.6168 78.4436 36.8979 80.7238C37.0853 82.2231 37.0229 82.5667 36.4606 83.2226L35.8047 84.0035L35.18 83.2226C34.3679 82.1918 33.5557 79.7242 33.8056 79.0371C34.2117 77.9438 35.0238 78.6622 35.3049 80.3489C35.4611 81.2235 35.711 81.9732 35.8359 81.9732C36.4919 81.9732 35.7735 78.5685 34.9926 78.0063C34.6177 77.7252 34.3054 77.7252 33.8368 77.9438C32.931 78.4436 33.2121 81.4734 34.3366 83.1914C35.8984 85.534 37.3665 84.5033 37.3665 81.0986C37.3665 77.6939 35.9609 75.4137 33.8993 75.4137C32.3063 75.4137 31.7441 76.2571 31.7441 78.5685C31.7441 81.6296 33.3683 85.7839 35.2737 87.5331C36.2732 88.4702 37.0853 88.2515 37.8662 86.8147C38.1786 86.2212 38.4909 85.7839 38.5222 85.8464C38.8033 86.0963 37.6476 90.8129 37.2103 91.2501C36.7418 91.6874 36.648 91.6874 35.9296 91.0003C35.5236 90.6254 34.8051 89.5322 34.3679 88.6264C33.8993 87.7205 33.4933 86.9709 33.462 86.9709C33.1809 86.9709 33.993 89.0324 34.8364 90.5317C36.0546 92.6245 36.0858 93.3117 35.0238 93.0306C34.0867 92.8119 34.0243 92.9993 34.8676 93.8427C35.2737 94.2488 35.4923 94.8735 35.4923 95.5919C35.4923 96.7788 34.9926 99.3402 34.5865 100.09C34.4616 100.34 34.3679 101.058 34.3991 101.652C34.4303 102.245 34.3054 102.901 34.1804 103.088C33.8993 103.463 32.6811 103.307 32.6811 102.932C32.6811 102.37 33.1184 102.339 33.4933 102.839C33.7744 103.213 33.8993 103.245 33.9306 102.963C33.9306 102.714 33.6494 102.183 33.3058 101.745L32.6811 100.933V101.777C32.6811 102.214 32.5562 102.589 32.4 102.589C31.7441 102.589 31.7753 101.964 32.4312 100.496C33.056 99.0903 33.4933 96.2791 33.6494 92.156L33.7119 90.5942L34.649 91.6874C35.6797 92.8744 35.4923 92.4059 34.1804 90.5942C33.7119 89.9383 33.3058 89.1261 33.3058 88.8138C33.3058 88.5014 33.0247 87.783 32.6499 87.2208C32.2751 86.6585 32.0877 86.4711 32.2126 86.8147C32.8373 88.6888 33.0247 90.7816 32.931 94.5299C32.8061 98.1532 32.7124 98.8716 32.0564 100.184C31.5879 101.089 31.1506 101.62 30.9007 101.527C30.6821 101.433 30.4946 101.527 30.4946 101.745C30.4946 101.964 30.1198 102.308 29.6513 102.495C28.6205 102.995 28.3082 102.995 28.3082 102.557C28.3082 102.37 28.4956 102.276 28.7142 102.37C28.9016 102.432 29.2452 102.339 29.4639 102.12C29.9012 101.62 29.5888 101.214 29.1203 101.652C28.8704 101.839 28.7142 101.652 28.683 100.964C28.558 99.59 28.3082 99.4339 28.3082 100.746C28.2769 101.652 28.2457 101.714 27.9646 101.246C27.7771 100.902 27.7147 100.121 27.8396 99.3714C28.0895 97.8721 27.7459 97.997 27.3711 99.5276L27.1212 100.558L27.09 99.4026C27.0587 98.7467 27.2461 97.6847 27.496 97.06C28.1207 95.3732 28.7142 92.1872 28.5268 91.4688C28.4331 91.0315 28.3706 91.094 28.3394 91.7187C28.3394 92.1872 28.152 92.6558 27.9958 92.7495C27.8084 92.8744 27.7459 93.2492 27.8709 93.6241C28.027 94.1863 27.9958 94.2488 27.6834 93.9364C27.3711 93.6241 27.3711 93.2805 27.6834 92.0623C27.9021 91.2501 28.2769 90.1881 28.5268 89.7196C29.4326 87.8455 28.7142 83.941 27.1212 82.1918C26.559 81.5671 24.8722 80.2865 24.8722 80.4739C24.8722 80.5364 25.372 81.1611 25.9967 81.8482C28.1207 84.1284 28.9016 87.4082 27.8396 89.4697C27.5897 89.9383 27.3399 91.1877 27.2461 92.2185C27.1837 93.2805 26.9963 94.3112 26.8713 94.5299C26.7151 94.811 26.8088 94.7798 27.2149 94.4674C27.7147 94.0301 27.7459 94.0613 27.5897 94.6236C27.496 94.9672 27.2461 95.8418 27.0275 96.5602C26.8088 97.3098 26.559 97.9033 26.434 97.9033C26.0592 97.9033 24.5599 94.1863 24.5599 93.2805C24.5287 92.6245 24.4662 92.5308 24.2475 92.9369C23.9039 93.5303 24.5599 96.1854 25.3408 97.4036C25.8718 98.2157 26.8401 102.276 26.5902 102.557C26.4965 102.62 25.9343 102.276 25.3095 101.808C24.31 101.058 24.2163 101.027 24.5287 101.62C24.7473 101.964 24.7785 102.276 24.6536 102.276C24.5287 102.276 24.0914 102.37 23.7165 102.464C23.1231 102.62 22.9981 102.526 22.9669 101.933C22.9356 101.402 22.8732 101.339 22.7795 101.714C22.717 102.026 22.5296 102.276 22.3734 102.276C22.2172 102.276 22.186 102.058 22.2797 101.745C22.4359 101.37 22.3734 101.308 22.061 101.495C21.7487 101.683 21.6862 101.62 21.8424 101.246C22.0923 100.59 20.9678 99.8712 20.6867 100.496C20.593 100.683 20.6242 100.465 20.7179 99.9649C20.8429 99.3402 20.7804 99.1215 20.5617 99.2777C20.3119 99.4339 20.2494 99.3402 20.3743 99.0278C20.468 98.7467 20.4056 98.528 20.1869 98.528C19.9995 98.528 19.9058 98.4031 19.9995 98.2469C20.0932 98.0907 19.6247 97.3723 18.9063 96.6227L17.6568 95.2483L18.469 96.6851C18.9375 97.5597 19.1874 98.3719 19.0624 98.7154C18.9063 99.2152 18.9375 99.2465 19.2498 98.8404C19.5622 98.4343 19.5934 98.4656 19.4373 98.9341C19.3435 99.2465 19.2498 99.7462 19.2498 100.027C19.2186 100.402 19.0937 100.34 18.7813 99.7775C18.344 99.0278 18.3128 99.0903 18.4377 100.871C18.5002 101.901 18.469 102.308 18.3752 101.808L18.2191 100.871L17.9692 101.652C17.7818 102.214 17.7193 102.058 17.8442 101.027C17.9379 100.09 17.8755 99.8399 17.7193 100.246L17.4382 100.871L17.3132 100.246C17.2195 99.9024 17.2195 100.09 17.282 100.652C17.4382 101.808 16.8759 102.026 16.4699 100.933L16.1888 100.246L15.9076 100.996C15.6265 101.683 15.5953 101.683 15.0955 101.183C14.4083 100.527 14.3771 97.6847 15.033 96.1229C15.5953 94.811 15.6265 94.3425 15.0955 95.3108C14.8769 95.6856 14.5957 95.998 14.4083 95.998C14.2522 95.998 13.8773 96.7164 13.565 97.6534C13.1901 98.9029 13.034 99.1215 13.0027 98.528C12.9403 97.9658 12.8466 98.122 12.7216 98.9966L12.5342 100.246L11.972 99.4339C11.5034 98.7154 11.4722 98.4031 11.7845 97.2474C11.972 96.4977 12.2218 93.8739 12.3155 91.4376C12.5342 86.6585 12.7528 86.0963 14.502 85.5653C15.1892 85.3779 15.2205 85.4091 15.158 87.8142C15.158 89.1574 15.3454 90.8753 15.564 91.6562C16.0326 93.0306 16.0326 93.0306 15.8764 90.0944C15.7827 88.0329 15.9076 86.4711 16.2512 85.003C16.5323 83.8161 16.751 82.348 16.751 81.7233C16.751 80.4114 17.4694 79.162 18.2191 79.162C18.5627 79.162 18.6564 79.4119 18.5627 80.0991C18.469 80.6613 18.5314 80.9424 18.6876 80.7862C18.9375 80.5364 19.1249 79.7242 19.2186 78.4436C19.2811 78.0375 19.9058 78.1937 21.5613 79.0058L23.1543 79.8179L21.6862 78.5373C19.4373 76.6007 18.8438 74.7578 18.7501 69.479C18.6251 64.044 18.7188 63.6379 19.8746 63.6379C20.4368 63.6379 20.8116 63.8253 20.8741 64.1065C20.9678 64.5125 21.0303 64.4813 21.4051 64.044C21.8112 63.5755 21.7799 63.4817 21.1552 63.3256L20.468 63.1382L21.2177 62.326C21.655 61.8887 22.2172 61.0141 22.4671 60.4207C22.7482 59.8272 23.248 58.9838 23.6228 58.5465L24.2475 57.7656L23.9352 58.6402C23.2792 60.5144 23.6228 60.8892 24.4349 59.1712C25.4345 57.0472 26.1217 55.1106 26.1217 54.4234C26.1217 54.1423 26.2466 53.5488 26.434 53.1115C26.8088 52.112 27.9646 52.0183 28.7767 52.9241ZM30.3385 54.4859C30.2448 54.6421 29.9012 54.7983 29.62 54.7983C29.1515 54.7983 29.1515 54.7358 29.5576 54.4859C30.1823 54.0798 30.5883 54.0798 30.3385 54.4859ZM39.8028 98.653C41.2397 100.027 41.3646 99.9649 40.615 98.4343C40.2089 97.6222 40.4275 97.7471 41.7082 99.1527C42.5516 100.09 43.27 100.964 43.3012 101.089C43.3012 101.246 42.8952 101.339 42.3642 101.339C41.677 101.339 41.4271 101.183 41.4271 100.777C41.3958 100.277 41.3958 100.277 41.0835 100.808C40.8961 101.089 40.6462 101.277 40.4588 101.183C40.3026 101.089 40.2714 101.183 40.3651 101.433C40.5525 101.964 40.0215 102.214 38.9282 102.151C38.4909 102.12 38.0536 102.214 37.9599 102.37C37.6163 102.87 37.0541 102.276 37.0229 101.402L36.9916 100.558L36.7418 101.339C36.5231 101.995 36.4919 102.026 36.4606 101.495C36.4294 100.996 36.3669 100.964 36.1483 101.308C35.6173 102.12 35.3986 100.277 35.8047 98.4031C36.3357 95.8418 36.8355 95.873 39.8028 98.653Z" fill="#FCFF6D"/>
<path d="M29.3707 56.9562C28.09 57.7371 27.5903 59.2989 27.7464 61.7665C27.9338 64.5465 29.0583 66.5768 32.5567 70.5749C36.18 74.6668 37.6481 76.8845 38.2103 79.0085L38.6164 80.5703L38.429 79.0085C38.1791 76.9158 37.1483 75.1041 34.0248 71.2934C30.0579 66.4518 29.6206 65.8271 28.9021 63.8905C27.9651 61.3917 28.215 59.049 29.5581 57.8308C31.401 56.1754 34.0872 57.2374 34.8369 59.9861C35.3991 61.9852 35.6178 66.1395 35.2117 66.9204C34.6807 67.8887 33.2127 67.8262 32.4005 66.8267C31.6196 65.8271 31.0886 63.3595 31.3385 61.8602C31.5572 60.4234 31.8071 60.2672 32.6816 60.9856C33.2439 61.4229 33.4313 61.9852 33.5562 63.3908C33.65 64.7027 33.6187 65.14 33.3376 64.9838C33.1502 64.8588 32.994 64.2966 32.994 63.7031C32.994 63.1096 32.8691 62.5474 32.6816 62.4537C32.0882 62.0789 32.3381 64.9838 32.9315 65.5148C33.7749 66.2644 34.2434 65.6397 34.2434 63.7656C34.2434 60.9544 32.5255 58.8928 31.2136 60.1735C30.0579 61.3292 30.4952 65.5772 31.9632 67.3264C32.5879 68.0449 32.994 68.2323 33.9311 68.2323C36.0863 68.2323 36.4924 66.8579 35.774 61.7665C35.5866 60.4234 35.2117 58.9241 34.9306 58.4555C33.7749 56.4877 31.2448 55.8005 29.3707 56.9562Z" fill="#FFEF63"/>
<path d="M26.6503 57.9877C26.213 58.5499 25.6508 59.7993 25.3384 60.7364C25.0261 61.7047 24.4638 62.7667 23.9953 63.1728C23.5268 63.5476 23.3706 63.7975 23.6517 63.7038C24.3389 63.4539 24.6825 64.391 24.0265 64.7345C23.683 64.922 23.6517 65.0781 23.9016 65.2343C24.089 65.3593 24.2452 65.2968 24.2452 65.1406C24.2452 64.9532 24.4638 64.797 24.7137 64.797C24.9636 64.797 25.1823 64.5159 25.1823 64.2035C25.1823 63.0478 26.1818 59.6432 26.9002 58.3C27.7748 56.7382 27.6811 56.6133 26.6503 57.9877Z" fill="#FCFF6D"/>
<path d="M21.9061 62.6071C21.8124 62.7945 21.9373 62.8257 22.1872 62.732C22.4684 62.6383 22.687 62.7008 22.687 62.9194C22.687 63.1068 22.8432 63.1693 23.0306 63.0444C23.2805 62.9194 23.2492 62.7633 22.9681 62.5758C22.4059 62.2322 22.156 62.2322 21.9061 62.6071Z" fill="#FCFF6D"/>
<path d="M26.0311 63.762C25.9062 63.8557 25.8125 64.2305 25.8125 64.5741C25.8125 65.355 26.2186 65.0114 26.281 64.1681C26.3435 63.4809 26.3123 63.4496 26.0311 63.762Z" fill="#FCFF6D"/>
<path d="M24.7802 65.3211C24.7178 65.4461 25.0926 65.9146 25.6236 66.3207L26.5919 67.1016L25.811 66.1645C25.3737 65.6647 24.9989 65.2274 24.9989 65.165C24.9677 65.1025 24.8739 65.165 24.7802 65.3211Z" fill="#FCFF6D"/>
<path d="M20.6287 66.2962C19.5355 67.0146 19.2231 70.0445 19.9415 72.8557C20.3476 74.5112 21.8781 76.1979 24.783 78.1657C26.5635 79.3839 27.2507 80.0711 28.219 81.5392C28.5625 82.1014 28.5938 82.1014 28.5938 81.5704C28.625 80.8208 26.3761 78.4469 24.7518 77.4786C22.8777 76.3853 20.9098 74.1364 20.4725 72.5433C19.9728 70.8879 19.9728 68.2641 20.4725 67.3582C21.2847 65.8277 24.2833 66.9522 25.1579 69.0762C25.8451 70.7941 26.3761 73.8552 26.1574 74.7298C25.7826 76.073 24.8143 75.9792 23.5024 74.4487C22.0655 72.762 21.4408 70.6692 21.9406 69.3573C22.4404 68.0767 23.9084 69.4198 24.1583 71.3876C24.377 72.9182 23.8147 72.8869 23.4711 71.3564C23.19 70.0757 22.6903 69.8571 22.6903 71.044C22.6903 72.3559 24.0646 73.7928 24.7518 73.1993C25.6889 72.4496 24.6581 69.0762 23.315 68.389C22.5966 68.0142 22.3779 68.0142 21.7844 68.4202C20.9723 69.0137 20.8786 71.1065 21.597 72.8557C22.8464 75.7918 25.8763 77.4161 26.6884 75.5732C27.2194 74.4175 27.1569 73.4492 26.4073 70.6692C25.8451 68.6701 25.5327 68.0767 24.5332 67.1396C23.5961 66.2962 23.0339 66.0463 22.128 66.0463C21.5033 66.0463 20.8161 66.1713 20.6287 66.2962Z" fill="#FFEF63"/>
<path d="M27.4036 69.0693C28.3719 71.162 28.903 71.7868 28.1221 69.9439C27.5598 68.5695 27.5598 68.1947 28.1533 68.9756C28.6531 69.6627 28.778 69.2879 28.3095 68.5383C28.1533 68.2884 27.9346 68.1947 27.8097 68.2884C27.716 68.4133 27.3412 68.1947 27.0288 67.8198C26.6852 67.3825 26.8102 67.8511 27.4036 69.0693Z" fill="#FCFF6D"/>
<path d="M36.0505 71.6939C36.3628 72.4435 37.1749 72.5685 37.8309 71.9438C38.0495 71.7251 37.9558 71.6939 37.581 71.8501C37.2374 71.975 36.8001 71.8501 36.3941 71.4752C35.8006 70.9442 35.7693 70.9442 36.0505 71.6939Z" fill="#FCFF6D"/>
<path d="M28.5254 73.3823C28.6191 74.413 28.744 75.3189 28.8065 75.3814C29.0251 75.6312 28.869 73.0699 28.6191 72.289C28.4629 71.7893 28.4317 72.2266 28.5254 73.3823Z" fill="#FCFF6D"/>
<path d="M18.7492 81.7563C17.3748 83.3805 16.9688 84.6924 16.9688 87.6285C16.9688 91.2831 17.6559 93.2197 19.655 94.9064C20.4671 95.6248 21.5604 96.8118 22.0601 97.5614C23.2783 99.3731 23.2471 98.8421 22.0289 96.7181C21.5291 95.8123 20.7795 94.9377 20.4047 94.8127C18.2806 94.0006 17.1562 90.4397 17.6872 86.1917C17.9371 84.1614 19.1552 81.6626 19.8737 81.6626C20.2485 81.6626 20.6545 82.6309 20.9357 84.3176C21.1543 85.5358 21.1543 85.5358 20.6545 84.8486C20.3734 84.4738 19.9361 84.1614 19.6862 84.1614C17.9058 84.1614 17.9371 92.595 19.7487 92.8449C20.0923 92.9074 20.6545 92.6262 20.9981 92.2514C21.5291 91.6579 21.5916 91.1269 21.5916 87.6285C21.5916 83.443 21.1855 81.5688 20.186 81.0378C19.7175 80.788 19.4364 80.9129 18.7492 81.7563ZM20.4984 86.0668C20.4984 86.1917 20.311 86.5041 20.0923 86.7227C19.4364 87.3787 19.2177 88.222 19.5613 88.878C19.9674 89.6276 20.717 89.6589 20.9044 88.9092C20.9981 88.6281 20.9669 89.0654 20.9044 89.94C20.5921 92.6575 19.7799 93.0635 19.2802 90.7209C18.8429 88.6906 18.8429 86.629 19.2802 85.5045C19.5925 84.6612 19.6238 84.6612 20.0611 85.2234C20.311 85.567 20.4984 85.9418 20.4984 86.0668Z" fill="#FFEF63"/>
<path d="M22.1874 81.504C22.3124 82.0662 22.8746 82.8159 23.5618 83.3781C24.1865 83.8779 25.2485 84.8462 25.8732 85.4709C26.4979 86.1268 27.0914 86.5329 27.1851 86.3767C27.4975 85.877 26.4042 83.3156 25.4984 82.4411C24.9674 81.9413 24.4676 81.6289 24.3739 81.7539C24.2802 81.8476 24.655 82.3473 25.186 82.8471C25.7483 83.3156 26.1543 83.9091 26.0919 84.1278C25.9044 84.6588 23.4681 82.8471 22.6559 81.5665L22 80.5669L22.1874 81.504Z" fill="#FCFF6D"/>
<path d="M29.7187 85.0657C29.5313 85.4092 29.9998 85.7841 30.3122 85.503C30.5933 85.2218 30.5308 84.7845 30.2185 84.7845C30.031 84.7845 29.8436 84.9095 29.7187 85.0657Z" fill="#FCFF6D"/>
<path d="M24.2786 86.4408C24.6846 86.8469 25.0907 87.128 25.1532 87.0655C25.3718 86.9094 24.1849 85.7224 23.8413 85.7224C23.6539 85.7224 23.8725 86.0348 24.2786 86.4408Z" fill="#FCFF6D"/>
<path d="M25.5 87.22C25.5 87.3761 25.7186 87.6885 25.9685 87.9071C26.2184 88.1258 26.4371 88.1883 26.4371 88.0946C26.4371 87.9696 26.2184 87.6573 25.9685 87.4074C25.7186 87.1262 25.5 87.0638 25.5 87.22Z" fill="#FCFF6D"/>
<path d="M24.8672 88.8413C24.8672 88.9975 24.9921 89.1537 25.1171 89.1537C25.242 89.1537 25.6168 89.591 25.9292 90.122C26.2416 90.653 26.5539 90.9966 26.6164 90.9341C26.8038 90.7467 25.3982 88.5602 25.1171 88.529C24.9609 88.529 24.8672 88.6539 24.8672 88.8413Z" fill="#FCFF6D"/>
<path d="M26.7461 88.8051C26.7461 88.9925 26.9023 89.2111 27.0584 89.3048C27.2459 89.3985 27.3708 89.2736 27.3708 89.0237C27.3708 88.7426 27.2459 88.5239 27.0584 88.5239C26.9023 88.5239 26.7461 88.6489 26.7461 88.8051Z" fill="#FCFF6D"/>
<path d="M24.936 90.9339C24.9672 91.2463 25.2796 91.7773 25.5919 92.1209C26.1854 92.7456 26.1854 92.7456 25.6544 91.6523C24.9672 90.278 24.9047 90.2155 24.936 90.9339Z" fill="#FCFF6D"/>
</g>
<defs>
<filter id="filter0_f_939_3483" x="32.7193" y="71.688" width="76.5029" height="50.956" filterUnits="userSpaceOnUse" color-interpolation-filters="sRGB">
<feFlood flood-opacity="0" result="BackgroundImageFix"/>
<feBlend mode="normal" in="SourceGraphic" in2="BackgroundImageFix" result="shape"/>
<feGaussianBlur stdDeviation="2.97436" result="effect1_foregroundBlur_939_3483"/>
</filter>
<filter id="filter1_f_939_3483" x="89.3647" y="0.802204" width="131.767" height="166.396" filterUnits="userSpaceOnUse" color-interpolation-filters="sRGB">
<feFlood flood-opacity="0" result="BackgroundImageFix"/>
<feBlend mode="normal" in="SourceGraphic" in2="BackgroundImageFix" result="shape"/>
<feGaussianBlur stdDeviation="5.0989" result="effect1_foregroundBlur_939_3483"/>
</filter>
<filter id="filter2_f_939_3483" x="0.501837" y="43.0018" width="52.4885" height="69.6291" filterUnits="userSpaceOnUse" color-interpolation-filters="sRGB">
<feFlood flood-opacity="0" result="BackgroundImageFix"/>
<feBlend mode="normal" in="SourceGraphic" in2="BackgroundImageFix" result="shape"/>
<feGaussianBlur stdDeviation="4.24908" result="effect1_foregroundBlur_939_3483"/>
</filter>
</defs>
</svg>
