<svg width="93" height="103" viewBox="0 0 93 103" fill="none" xmlns="http://www.w3.org/2000/svg">
<g filter="url(#filter0_f_1528_6222)">
<circle cx="39.0027" cy="42.866" r="10.9324" fill="#E849EB"/>
</g>
<g filter="url(#filter1_f_1528_6222)">
<circle cx="57.8191" cy="47.9441" r="10.9324" fill="#4EDFFF"/>
</g>
<g filter="url(#filter2_f_1528_6222)">
<circle cx="60.8699" cy="66.0496" r="10.9324" fill="#5DF36C"/>
</g>
<g filter="url(#filter3_f_1528_6222)">
<circle cx="41.9558" cy="71.3387" r="10.9324" fill="#FD5B5B"/>
</g>
<g filter="url(#filter4_f_1528_6222)">
<circle cx="32.3933" cy="59.6433" r="10.9324" fill="#E458AC"/>
</g>
<g filter="url(#filter5_f_1528_6222)">
<circle cx="48.159" cy="32.1863" r="10.9324" fill="#4D85F1"/>
</g>
<path d="M46.473 4H46.5212C46.7928 4.64764 47.0436 5.67991 47.2688 6.3867C47.6316 7.52567 48.0785 8.67227 48.3694 9.82831C48.4402 10.1093 48.4798 10.3969 48.4682 10.6872C48.4406 11.376 47.8549 11.3799 47.8228 11.831C47.9129 11.8443 47.8838 11.8517 47.9611 11.8241C48.2269 11.7289 48.4666 11.6311 48.7555 11.6447C49.0421 11.6581 49.3136 11.7817 49.5059 11.9956C49.7929 12.3151 49.8246 12.6238 49.8134 13.0305C50.5994 13.2495 51.262 13.5704 51.9638 13.9777C52.3009 13.9112 52.6304 13.8466 52.9556 13.734C53.2074 13.4212 53.3712 13.0431 53.6491 12.7502C54.0382 12.3401 54.578 12.057 55.0168 11.6978C56.2385 10.698 57.4272 9.65632 58.6632 8.67413C57.9869 10.0995 57.3949 11.5851 56.7799 13.0398C56.5325 13.6253 56.3334 14.3838 55.9644 14.9009C55.7212 15.2417 55.3323 15.4557 55.0334 15.7466L54.9923 15.7872C54.9964 16.1057 55.0909 16.4277 55.0703 16.745C55.0254 17.4321 54.0654 19.4145 53.7377 20.213C52.9916 19.8337 52.2559 19.4672 51.4631 19.1923C49.9884 18.6813 48.3508 18.2502 46.7863 18.2034C44.4219 18.1328 41.4495 19.1465 39.3331 20.176C39.0933 19.5956 37.6641 16.6205 37.7308 16.2676L37.7989 16.2272C38.2397 16.367 39.3039 18.7551 39.6075 19.2966C40.3448 18.9578 41.1175 18.6891 41.8779 18.4072C41.872 17.9054 41.8985 17.4949 42.043 17.0137C41.4086 16.3377 40.618 15.781 39.7538 15.4471C39.6911 15.9134 39.6461 16.3756 39.6605 16.8469C39.6714 17.2062 39.6511 17.7525 39.9571 18.0031C40.0452 18.0752 40.1432 18.1133 40.2568 18.0842C40.4799 18.0272 40.7974 17.9086 40.9129 17.7005C40.9369 17.3735 40.595 17.1719 40.4195 16.9276C40.3483 16.8284 40.333 16.7434 40.3503 16.6231C40.4117 16.5138 40.4429 16.4744 40.5565 16.4197C40.6799 16.4211 40.7579 16.4521 40.8506 16.5317C41.426 17.0254 41.4766 17.4918 41.5259 18.2112C41.041 18.4783 40.4881 18.6158 39.9509 18.7305C39.8091 18.5886 39.6938 18.4341 39.5962 18.2585C38.9774 17.1461 39.0547 15.6369 39.3825 14.4511C40.2445 14.7482 40.9315 15.1729 41.6465 15.7344C41.9652 15.9847 42.2781 16.2727 42.64 16.4582C42.0345 15.2372 40.5824 14.6109 39.4079 14.0725C39.3796 13.7539 39.3251 13.4589 39.1671 13.1762C38.7303 12.3947 37.8361 12.1711 37.0385 11.9511C36.8404 12.7109 36.8468 13.5937 37.2278 14.3008C37.5625 14.9222 38.1878 15.0654 38.8111 15.2495L38.7375 15.9807C38.4988 15.8098 38.2186 15.7126 37.9499 15.5987C37.6684 15.4793 37.2818 15.3354 37.0813 15.0972C36.6337 14.5656 36.2259 13.1283 35.9502 12.4147C35.4716 11.1761 34.9943 9.93601 34.4961 8.70515C35.4406 9.47873 36.3766 10.2678 37.3375 11.0209C37.9877 11.5305 38.6802 12.0073 39.3009 12.5516C40.0235 13.1855 39.656 13.5869 40.7419 14.0575C41.0966 13.9033 41.4336 13.7072 41.7893 13.5518C42.2595 13.3464 42.757 13.1874 43.2413 13.0164C43.2299 12.8399 43.2281 12.671 43.2777 12.4993C43.3653 12.1958 43.5512 11.9185 43.8385 11.7741C44.1586 11.6132 44.5541 11.6436 44.8831 11.7605C44.9748 11.7931 44.9773 11.8022 45.0778 11.7845L45.0971 11.71C44.9434 11.5266 44.7705 11.3373 44.6523 11.1289C44.5228 10.9002 44.4654 10.6519 44.485 10.3896C44.5348 9.72124 44.8991 8.85772 45.1106 8.20639C45.566 6.80426 46.0461 5.41128 46.473 4ZM46.4483 8.29598C45.7757 9.01278 45.3315 9.91895 45.3625 10.9193C45.3805 11.5016 45.5687 12.0266 46.0016 12.4276C46.1447 12.5603 46.3474 12.725 46.5265 12.7983C47.0693 12.4095 47.4202 11.971 47.5375 11.2932C47.6834 10.4514 47.4193 9.47976 46.9206 8.7936C46.7915 8.61604 46.6332 8.41568 46.4483 8.29598ZM55.8681 11.9956C55.1623 12.1923 54.3081 12.5801 53.932 13.2463C53.8257 13.4346 53.7701 13.6396 53.7595 13.855C53.7442 14.1673 53.8252 14.504 53.8759 14.8113C53.9845 15.4702 54.1165 16.1951 54.0611 16.8619C53.9886 17.737 53.2884 18.3827 53.1808 19.2317C53.2297 19.3527 53.2645 19.3677 53.371 19.4469L53.4856 19.4734C53.7879 19.1921 54.5098 17.3351 54.522 16.904C54.5378 16.3407 54.4507 15.7729 54.442 15.2087C55.0123 15.0714 55.4205 14.8191 55.7409 14.3098C56.0986 13.741 56.2853 12.8505 56.1255 12.1906C56.1074 12.1158 56.0849 12.0654 56.0319 12.0079C55.9781 12.0025 55.9221 11.9928 55.8681 11.9956ZM44.1057 12.127C43.9053 12.2566 43.7708 12.3586 43.7213 12.6026C43.6926 12.7446 43.7206 12.8862 43.8089 13.0018C43.9074 13.1308 44.0545 13.2062 44.2151 13.2155C44.2817 13.2194 44.3486 13.2183 44.4151 13.217C44.5869 13.1081 44.7204 13.0185 44.7739 12.8126C44.8148 12.6551 44.7907 12.5091 44.7032 12.3721C44.6261 12.2513 44.4758 12.1541 44.3344 12.1359C44.2587 12.1262 44.1818 12.1273 44.1057 12.127ZM48.5906 12.1259C48.4028 12.2315 48.2454 12.3212 48.1811 12.5415C48.1454 12.6638 48.1626 12.7861 48.2281 12.8951C48.3012 13.0169 48.4405 13.1167 48.5795 13.1468C48.6732 13.1671 48.7741 13.1695 48.8698 13.1731C49.0343 13.0955 49.1856 13.0074 49.2507 12.8258C49.3023 12.6814 49.3029 12.5498 49.2315 12.4139C49.1647 12.2866 49.0313 12.1706 48.8887 12.1396C48.7937 12.1189 48.6872 12.1255 48.5906 12.1259ZM46.4997 12.842C45.982 13.192 45.4803 13.5681 45.0051 13.9742C44.5783 14.339 42.8792 15.9772 42.7709 16.4882C42.7359 16.6534 42.7973 16.767 42.8909 16.898C43.1585 17.2726 43.5648 17.5999 43.8881 17.9301C44.7554 17.6998 45.6145 17.5537 46.512 17.5018C47.4188 17.5318 48.2515 17.7749 49.1425 17.8763C49.5339 17.5602 50.0837 17.1274 50.2833 16.6564C50.2828 16.5128 50.2422 16.4134 50.1651 16.2943C50.0272 16.0814 49.8249 15.9121 49.6595 15.7205C49.3161 15.3225 49.0124 14.9087 48.6375 14.5361C48.2717 14.1721 46.9265 12.9768 46.4997 12.842ZM53.2667 14.2142C52.5252 14.5056 50.8583 15.3627 50.5184 16.1067L50.5321 16.2036L50.6582 16.261L50.7114 16.2164C51.1708 15.8303 51.6428 15.4726 52.1564 15.1609C52.4282 14.9959 53.4615 14.5945 53.5653 14.4019C53.5519 14.2851 53.5397 14.2921 53.448 14.2152L53.2667 14.2142ZM53.24 15.396C52.4039 15.8697 51.6627 16.3317 50.9462 16.9805C50.9518 17.4326 50.9337 17.8999 50.9949 18.3482C51.2157 18.4588 51.4344 18.5738 51.6675 18.6567C51.978 18.7853 52.2877 18.9172 52.6008 19.0393C53.2698 17.3877 53.5474 17.3065 53.3003 15.425L53.24 15.396ZM42.498 17.4224C42.4616 17.6989 42.4579 17.9601 42.4648 18.2384C42.6715 18.1984 42.8817 18.1649 43.0866 18.1171L43.1206 18.0425C42.9886 17.7893 42.7212 17.5943 42.498 17.4224ZM50.2988 17.6576C50.1453 17.7709 49.931 17.8923 49.8357 18.0592C49.8921 18.1369 49.8526 18.1083 49.9653 18.1276C50.1247 18.1662 50.1696 18.2073 50.317 18.126C50.387 18.0109 50.4203 17.9561 50.3821 17.8165C50.3623 17.7438 50.3555 17.7095 50.2988 17.6576Z" fill="#EBEBEB"/>
<path d="M46.5316 12.3718C46.4678 12.3433 46.4095 12.3143 46.3535 12.2719C45.9773 11.9863 45.7786 11.5357 45.7256 11.0771C45.635 10.2936 45.9754 9.53583 46.4427 8.92969C46.5307 8.98921 46.6012 9.0683 46.669 9.14955C47.0893 9.65359 47.3193 10.3813 47.2448 11.0344C47.1836 11.5718 46.957 12.0351 46.5316 12.3718Z" fill="#EBEBEB"/>
<path d="M55.6508 17.4238C56.6931 17.3985 57.7407 17.4148 58.7833 17.4237C59.361 17.4286 60.0708 17.5099 60.6328 17.3812C61.1924 17.2532 62.7116 16.1618 63.2564 15.8153C65.4597 14.4142 67.6464 12.9534 69.8548 11.5703C69.5018 12.1899 68.8453 12.8147 68.3726 13.3664C67.6907 14.1624 67.0309 14.977 66.3603 15.7825C65.9018 16.3333 65.4167 16.8646 64.9912 17.4415L77.3323 17.4251L77.3351 68.1551L77.3338 83.6204L77.336 88.3086C77.3363 89.1891 77.3893 90.1102 77.2876 90.9848C77.1453 92.2093 76.5983 93.3484 75.7296 94.2236C74.9253 95.0336 73.7057 95.732 72.5682 95.9019C71.7804 96.019 70.9806 95.9963 70.1866 95.9963H67.3488L57.2605 95.9945L21.9777 95.9954C20.1732 95.99 18.6153 95.5077 17.3171 94.2013C16.4847 93.3641 15.8483 92.2264 15.7087 91.0422C15.6084 90.1917 15.6641 89.2905 15.6646 88.4343L15.6677 83.8886L15.6659 68.8855L15.6484 17.4731L28 17.4796C27.1459 16.371 26.2365 15.3003 25.345 14.2213C24.7208 13.4658 24.1085 12.6633 23.4326 11.9551C25.1137 12.9799 26.8318 13.9481 28.5266 14.9503C29.1488 15.3182 32.3588 17.3822 32.8604 17.4697C33.3043 17.5472 33.8014 17.5041 34.2508 17.5028C35.2928 17.4998 36.3536 17.4523 37.3928 17.5147L38.0582 18.9315L17.1652 18.9424L17.1802 64.894C19.0463 62.2989 22.5216 60.9649 23.5161 57.7526C23.7322 57.0546 23.8064 56.315 23.6924 55.5914C23.4633 54.1363 22.6386 52.8473 21.9623 51.565C21.4742 50.6396 20.9968 49.6743 20.7109 48.6648C19.9557 45.9992 20.595 43.2253 22.1923 41.0082C24.9248 37.2158 29.5457 35.9564 33.4216 33.7394C34.286 33.245 35.0593 32.6323 35.8463 32.027C33.8548 35.1274 29.8512 36.1715 26.811 37.9585C25.5578 38.6951 24.4121 39.6089 23.4274 40.6789C22.5453 41.6375 21.8284 42.7294 21.474 43.9917C21.1216 45.2467 21.0293 46.6032 21.3066 47.8817C21.7206 49.7896 22.8124 51.5616 23.7297 53.2663C24.9662 55.5648 26.1485 57.6157 24.5723 60.1028C22.8859 62.7636 19.9095 64.1145 18.2257 66.6218C17.8513 67.1795 17.3757 67.9412 17.2583 68.6105C17.1117 69.4472 17.1769 70.3614 17.1733 71.2114C17.1671 72.7167 17.164 74.2216 17.1828 75.7269C17.2153 78.3305 17.1937 80.9359 17.1912 83.5398C17.1895 85.3206 17.2304 87.1174 17.168 88.8968C17.7697 87.6423 18.4922 86.4515 19.2174 85.2657C20.2914 83.5093 21.4133 81.7813 22.65 80.1344C24.7134 77.3869 26.9797 74.8528 29.4033 72.421C31.6488 70.1678 33.9823 67.9988 36.6947 66.3111C37.3994 65.8727 38.1328 65.4118 38.9191 65.1377L38.9854 65.1149C38.9755 65.126 38.966 65.1375 38.9559 65.1485C38.4998 65.6479 37.1108 66.4788 36.4756 66.9644C34.8702 68.1918 33.327 69.5037 31.8872 70.9227C27.3184 75.4259 23.5006 80.6735 20.215 86.1692C19.587 87.2194 19.0021 88.3032 18.4217 89.3803C18.1379 89.9072 17.8752 90.4583 17.5636 90.9685C17.4388 90.6989 17.341 90.4309 17.2507 90.1479C17.256 91.3569 17.6003 92.3885 18.4684 93.2586C19.2214 94.0134 20.2082 94.4314 21.2581 94.5606C21.8801 94.6372 22.5434 94.5973 23.1705 94.5975L26.4391 94.597L37.4751 94.5853L71.024 94.5875C72.3816 94.5807 73.6647 94.195 74.6345 93.2039C75.3457 92.477 75.7318 91.5768 75.706 90.5548C75.7016 90.38 75.6898 90.2051 75.6779 90.0306C75.6225 90.3745 75.5747 90.7201 75.4712 91.0536C74.7982 89.7626 74.126 88.4539 73.3907 87.1977C72.8723 86.3121 72.2988 85.4519 71.7462 84.5869C68.5414 79.5709 64.8705 74.8264 60.5904 70.6771C59.104 69.2361 57.4946 67.9156 55.9124 66.5821C55.3651 66.1208 54.6853 65.7373 54.2179 65.1965C59.5872 67.7982 65.6223 74.3516 69.2829 79.0466C70.3052 80.3578 71.2546 81.7131 72.2063 83.0754C73.5265 84.9649 74.9187 86.9207 75.8489 89.0373C75.8117 87.1742 75.8388 85.3071 75.8424 83.4436L75.8463 74.4412L75.8482 71.419C75.849 70.4551 75.9351 69.4296 75.6819 68.4914C75.2344 66.8337 74.1519 65.4555 72.9342 64.2856C70.8793 62.3112 67.7566 60.5878 67.663 57.374C67.6314 56.283 68.1383 55.4178 68.642 54.491C70.3175 51.4075 72.1513 48.866 71.6102 45.1436C71.3254 43.1843 70.217 41.3483 68.7963 39.9924C67.603 38.8535 66.2089 38.0089 64.7702 37.219C62.6427 36.051 59.8343 35.1765 58.3464 33.1863C58.1957 32.9846 58.0079 32.7392 57.9206 32.5026C59.3875 33.7307 61.0668 34.4937 62.7708 35.3236C65.4066 36.6074 68.1054 38.0735 70.0686 40.2981C72.6885 43.2668 73.3303 47.0821 71.573 50.6841C70.6156 52.6468 69.545 53.5868 69.4061 55.9508C69.1642 60.0669 73.4181 61.9839 75.7765 64.6437C75.849 58.8075 75.7969 52.9647 75.7927 47.1279L75.787 18.8965L55.0015 18.9174C55.199 18.4122 55.4301 17.9191 55.6508 17.4238ZM24.212 55.5345C24.4693 57.1321 24.0545 58.6158 23.1122 59.9247C21.5516 62.0924 18.4621 63.6619 17.2107 65.8752C17.2132 66.2145 17.1451 66.9123 17.2499 67.2066L17.3002 67.101C17.7035 66.1388 18.28 65.3769 19.009 64.6337C21.0509 62.552 24.7108 60.6047 24.6297 57.2904C24.6171 56.7758 24.5269 56.2248 24.3302 55.7469C24.2993 55.6718 24.2665 55.5955 24.212 55.5345ZM68.7286 55.6212C68.2401 56.6333 68.145 57.5433 68.5211 58.6173C69.4126 61.1635 73.1481 63.2164 74.8582 65.3847C75.1891 65.8042 75.4208 66.2482 75.6579 66.7243L75.7342 66.8591C75.8595 66.616 75.7681 65.9003 75.7617 65.6024C75.3495 64.9474 74.6586 64.3442 74.0806 63.8301C72.1229 62.0887 69.6378 60.3313 68.9231 57.679C68.7361 56.9849 68.8396 56.3088 68.7286 55.6212Z" fill="#EBEBEB"/>
<path d="M38.8688 14.9366L38.8385 14.9722C38.8011 14.9802 38.7802 14.9876 38.7385 14.9794C38.3933 14.9106 37.9559 14.6406 37.7355 14.3748C37.2757 13.8203 37.2858 13.0554 37.3359 12.3789C37.8603 12.5571 38.3816 12.7755 38.7152 13.2448C39.0973 13.7824 38.9676 14.339 38.8688 14.9366Z" fill="#EBEBEB"/>
<path d="M54.1055 13.9159C54.1538 13.7636 54.2148 13.6119 54.2909 13.4713C54.5788 12.9398 55.0679 12.6699 55.6205 12.4922L55.7181 12.519C55.7278 12.5364 55.7394 12.5529 55.7472 12.5712C55.8562 12.8253 55.7502 13.2754 55.6669 13.535C55.4123 14.3279 55.1003 14.5849 54.3744 14.9606C54.2533 14.6176 54.1731 14.2727 54.1055 13.9159Z" fill="#EBEBEB"/>
<path d="M44.5087 16.6611C44.591 16.9606 44.6789 17.2347 44.6296 17.5489C44.5405 17.519 44.5097 17.4989 44.4467 17.4244C44.2566 17.1996 43.9671 16.7188 44.0277 16.4184C44.1878 15.6263 45.7888 14.3391 46.4259 13.8359C46.7786 13.8944 47.3205 14.4183 47.5804 14.6581C47.9693 15.0171 49.0441 16.1089 48.9941 16.681C48.9713 16.9413 48.6546 17.3045 48.48 17.4907C48.4388 17.5347 48.4648 17.5173 48.3832 17.5199C48.2993 17.2554 48.424 16.9702 48.3771 16.7009C48.2299 15.8551 47.135 14.9614 46.4972 14.4757C46.4863 14.4794 46.4745 14.4814 46.4643 14.4869C45.8589 14.8179 44.7823 16.0309 44.5087 16.6611Z" fill="#EBEBEB"/>
<path d="M46.4593 16.9352C46.2093 16.9486 45.8773 17.1404 45.637 17.2316C45.4576 17.2995 45.2207 17.3822 45.038 17.2985C45.0125 17.2296 44.9989 17.1698 45.0001 17.0958C45.0128 16.2802 45.9415 15.434 46.4754 14.8828C46.7544 15.0496 47.0177 15.4064 47.22 15.6601C47.4929 16.0025 48.0554 16.7594 47.9661 17.2205C47.9521 17.2928 47.9135 17.3011 47.859 17.3419C47.4266 17.3181 46.8708 17.0778 46.4593 16.9352ZM46.4144 15.4218C46.2274 15.5797 46.1137 15.6805 46.091 15.9361C46.0734 16.1345 46.0923 16.375 46.2204 16.5383C46.2764 16.6095 46.3602 16.6478 46.4381 16.6889L46.488 16.6827C46.7085 16.5292 46.8855 16.4015 46.9337 16.1224C46.9607 15.9663 46.9361 15.8241 46.8385 15.6973C46.7344 15.5618 46.5806 15.4605 46.4144 15.4218Z" fill="#EBEBEB"/>
<path d="M51.9834 18.4403C51.7776 18.3605 51.549 18.2775 51.4269 18.0811C51.3188 17.9073 51.3059 17.7076 51.3569 17.5126C51.5184 16.8939 52.1047 16.4758 52.621 16.1602C52.6532 16.1948 52.6693 16.208 52.6918 16.2559C52.994 16.9013 52.8811 17.7778 52.5776 18.3988C52.5746 18.405 52.5197 18.512 52.5151 18.5248C52.4686 18.6523 52.5231 18.5706 52.4438 18.6665C52.2937 18.5826 52.1398 18.5116 51.9834 18.4403ZM52.1823 16.9135C51.9906 17.1284 51.8668 17.3504 51.879 17.6483C51.8829 17.7445 51.9129 17.8482 51.9804 17.9196C52.0587 18.0024 52.1601 18.0344 52.2716 18.0307C52.3266 18.0289 52.3752 18.0193 52.4288 18.0105C52.6166 17.8552 52.7433 17.7107 52.762 17.4578C52.7722 17.3172 52.7294 17.1785 52.6303 17.0761C52.5008 16.9423 52.3596 16.9198 52.1823 16.9135Z" fill="#EBEBEB"/>
<path d="M39.5352 20.8095C41.2706 19.6502 44.2362 19.0292 46.2858 18.8677C46.6697 18.83 47.0911 18.8879 47.476 18.9275C48.9631 19.0803 50.335 19.3937 51.7262 19.9457C52.1594 20.1176 53.5646 20.6464 53.7286 21.0265C53.7229 21.182 53.6942 21.3413 53.5693 21.4484C53.4708 21.5328 52.9083 21.2198 52.7929 21.1643C50.9637 20.2846 48.9902 19.6224 46.9449 19.5643C44.5092 19.5292 41.6873 20.1701 39.6565 21.5556C39.5935 21.3053 39.5594 21.0663 39.5352 20.8095Z" fill="#EBEBEB"/>
<path d="M17.7165 19.5296C24.5604 19.4719 31.408 19.5956 38.2515 19.5061C38.3067 19.5015 38.2702 19.4993 38.352 19.5503C38.5001 19.918 38.778 20.3093 38.8681 20.6883C38.8452 20.7406 38.8178 20.7968 38.8026 20.8523C38.6921 21.2554 39.0174 21.7507 39.2004 22.0928C38.554 23.3595 38.0165 24.6285 37.5905 25.9867C37.1671 27.3367 36.8533 29.0586 36.1442 30.2688C34.8924 32.4051 32.3961 33.4124 30.2454 34.3844C29.2665 34.8269 28.2821 35.2797 27.329 35.775C25.7867 36.5765 24.3229 37.5321 23.0572 38.7282C21.6789 40.0308 20.5713 41.675 19.9533 43.4732C18.9746 46.3205 19.5822 49.1601 21.0155 51.7301C21.8245 53.1808 22.897 54.6687 22.8341 56.411C22.7612 58.4333 21.3725 59.587 19.9895 60.8564C19.1977 61.5578 18.4732 62.2934 17.7628 63.0758C17.662 61.2834 17.7196 59.4634 17.7186 57.668L17.7307 47.7569L17.7165 19.5296ZM29.8031 20.969C29.619 21.8564 29.4082 22.8116 28.5891 23.3467C28.4519 23.4363 28.2939 23.5036 28.1436 23.5686C28.7575 23.7601 29.1787 24.0422 29.4811 24.6303C29.671 24.9997 29.7309 25.4387 29.8056 25.8434C29.8204 25.9235 29.8152 25.896 29.8686 25.9776H29.8797C30.0259 25.1505 30.1614 24.335 30.9002 23.8096C31.0919 23.6732 31.3135 23.5795 31.5301 23.4902C30.9381 23.2675 30.5347 22.9322 30.2732 22.3437C30.0955 21.9437 29.982 21.5092 29.8638 21.0888C29.8445 21.0205 29.8501 21.0426 29.8031 20.969ZM25.0332 26.4156C24.6943 27.6715 24.4771 29.1714 23.2454 29.892C22.9672 30.0548 22.6799 30.1338 22.3683 30.2017C23.3168 30.5667 23.9625 31.0109 24.3885 31.9623C24.7735 32.822 24.7646 33.6933 25.0544 34.5258C25.4646 33.023 25.515 31.3051 27.0409 30.4405C27.2327 30.3318 27.4432 30.2613 27.6504 30.1879C26.7699 29.8945 26.1582 29.4744 25.7313 28.633C25.4119 28.0036 25.2534 26.7759 25.0332 26.4156Z" fill="#EBEBEB"/>
<path d="M53.9141 22.0015C54.4657 21.5215 54.3384 20.847 54.4794 20.2046C54.5315 19.9671 54.6613 19.7376 54.7692 19.5209L75.1875 19.5117L75.1523 48.9813C75.1508 53.6299 75.1251 58.2813 75.1976 62.9294C74.5415 62.2426 73.7967 61.6422 73.1185 60.9761C72.3806 60.2528 71.5425 59.5205 71.0327 58.6107C70.2319 57.1814 70.137 55.5452 70.8018 54.0415C71.1505 53.253 71.6404 52.5067 72.0496 51.7466C72.5308 50.8525 72.9404 49.9219 73.2087 48.9406C73.7756 46.8673 73.5878 44.7158 72.731 42.753C70.9358 38.6402 66.9421 36.4018 63.0922 34.5397C61.0083 33.5317 58.9024 32.5533 57.3239 30.7921C56.0943 29.4201 55.8922 27.7409 55.4293 26.0327C55.0514 24.6383 54.6295 23.2643 53.9141 22.0015ZM63.0948 21.1495C62.9301 21.9994 62.7765 22.8234 62.0008 23.3457C61.7962 23.4834 61.5568 23.5894 61.3365 23.6994C61.8814 23.8668 62.3376 24.0463 62.6303 24.5719C62.8954 25.0479 63.0184 25.658 63.1068 26.1901L63.1377 26.1462C63.3345 25.3279 63.5007 24.4947 64.2684 24.006C64.4812 23.8705 64.7227 23.7805 64.9589 23.6951C64.1853 23.3269 63.6693 22.9714 63.3732 22.1324C63.2593 21.8098 63.2028 21.4709 63.0948 21.1495ZM67.5903 26.1939C67.4395 27.317 67.259 28.7038 66.2886 29.4419C65.833 29.7884 65.2801 29.9336 64.7369 30.0794C65.433 30.1404 66.0619 30.428 66.5197 30.9663C67.3767 31.9742 67.4664 33.6796 67.6389 34.942L67.6851 34.9464C67.8087 33.6462 67.923 31.5921 68.9809 30.6861C69.38 30.3442 69.7965 30.2316 70.2813 30.0712C69.4493 29.8608 68.7645 29.5571 68.3056 28.7827C68.1197 28.4691 67.9946 28.1189 67.9051 27.7667C67.8272 27.46 67.7469 26.3796 67.5903 26.1939Z" fill="#EBEBEB"/>
<path d="M49.8588 34.3035C51.8621 32.3538 52.2944 30.6435 52.41 27.9256L52.4748 27.89C52.9084 29.4283 54.8971 31.7034 56.0542 32.7987C56.2968 33.0284 56.5539 33.3003 56.8334 33.4808C56.4665 32.8531 55.4656 31.9359 54.9425 31.3331C54.0237 30.2743 53.1974 29.0901 52.4748 27.89C52.3563 27.5368 52.3136 27.1823 52.2942 26.8115C52.9055 28.0983 53.848 29.2152 54.8107 30.2512C55.0213 30.4777 55.2539 30.7713 55.5092 30.9427C55.3081 30.3547 54.3081 29.424 53.8836 28.9108C53.2781 28.1784 52.8355 27.339 52.2898 26.5659C51.7738 25.835 50.9214 25.463 50.0548 25.3237C49.4854 25.2321 48.9146 25.3212 48.4482 25.6781C47.6112 26.3185 47.361 27.5994 47.2339 28.578C47.3304 28.5297 47.6066 26.7915 48.6955 26.1394C49.494 25.6612 50.3398 25.955 51.1594 26.175C51.2526 26.1213 51.3188 26.0832 51.4261 26.0634L51.4867 26.1189C51.5947 26.4422 51.2066 26.8858 51.1736 27.2295C51.1431 27.547 51.2416 27.9003 51.2716 28.2204C51.3462 29.0174 51.3356 29.8158 51.1569 30.599C51.0456 31.0876 50.8738 31.5632 50.6231 31.9982C50.0899 32.9237 48.042 35.2842 47.1803 35.8015C46.8658 35.9903 46.5511 36.0649 46.191 35.9692C45.102 35.68 42.9838 33.0044 42.4026 31.9522C41.838 30.9297 41.743 29.7578 41.8152 28.6144C41.8428 28.1772 41.9038 27.7153 41.8565 27.2786C41.8224 26.9637 41.482 26.1106 41.5319 25.9344L41.6013 25.9374C41.6713 26.0149 41.7432 26.0848 41.821 26.1544C42.2744 26.1236 42.7033 25.9292 43.1609 25.8969C43.7059 25.8585 44.1694 26.0625 44.5749 26.4187C45.0433 26.8301 45.5215 27.6232 45.5382 28.2604C45.5389 28.288 45.5381 28.3156 45.5381 28.3432C45.4009 28.0764 45.2226 27.7711 44.9622 27.6112C44.7534 27.4828 44.4981 27.4172 44.2729 27.3217C43.3701 26.9388 43.1384 26.825 42.1431 27.0339C42.2082 27.329 42.2578 27.6396 42.4136 27.903C42.9482 28.8066 44.2661 28.2828 45.1209 28.5077C45.1409 28.5129 45.1607 28.5186 45.1806 28.524C45.3451 28.6432 45.5145 28.7555 45.6827 28.8693C44.749 27.6725 44.4189 28.4122 43.3085 28.1657C42.7714 28.0465 42.4971 27.6427 42.2266 27.2048C43.8352 28.7205 43.9062 27.408 45.5381 28.3432L45.6309 28.5001C45.7075 28.3835 45.6324 28.0764 45.6032 27.9379C45.4261 27.0986 45.101 26.1316 44.3508 25.6286C43.8695 25.3059 43.2792 25.2744 42.7268 25.3972C42.227 25.5083 41.756 25.7328 41.2599 25.8629C40.5674 26.7608 39.5112 27.5252 38.5776 28.1554C39.4353 27.8597 40.4558 27.0801 40.9664 26.3292C40.5702 28.1073 39.3903 28.3366 38.272 29.4702C39.2043 28.9927 39.9613 28.4112 40.5965 27.5741C40.6044 29.0319 39.879 30.1227 38.8828 31.1216C38.7276 31.2771 38.5392 31.4205 38.398 31.5866C38.9879 31.3022 39.5369 30.6215 39.9298 30.107C39.2974 31.7811 37.9951 32.5477 36.8915 33.8231C37.4375 33.4092 38.0268 33.0103 38.5362 32.5528C39.6812 31.5246 40.383 30.1147 40.6442 28.6085C41.1321 31.2222 41.1159 32.1785 43.0441 34.2609L43.0376 34.3081C42.9808 34.7538 42.9861 35.2074 42.9445 35.6553C42.8341 36.8443 42.5554 38.7051 41.5426 39.4986C40.9405 39.9705 39.1225 40.7877 38.3592 41.0511C37.9386 41.1963 37.503 41.2942 37.0694 41.3921C38.959 40.3006 40.9157 38.359 41.5447 36.2104C41.5549 36.1759 41.5621 36.1406 41.5702 36.1055C41.2254 36.7379 40.9397 37.4006 40.5318 37.9975C39.7922 39.0799 38.1266 40.7076 36.972 41.4031C36.5 41.6875 35.9317 41.8671 35.4371 42.1243C34.1534 42.7917 32.8883 43.508 31.6223 44.209C30.4727 44.8454 29.334 45.4886 28.342 46.3616C26.7892 47.728 26.0901 49.1749 25.9627 51.2106C25.8386 50.989 25.7393 50.7564 25.6597 50.5153C25.1115 48.8562 25.0454 46.9552 25.4573 45.2646C25.7735 43.9665 26.3062 42.8786 27.0646 41.7858C27.7528 40.794 28.5614 39.8575 29.4672 39.0573C30.133 38.4691 30.8585 37.9543 31.5664 37.4188C33.3087 36.1008 35.0188 34.6852 36.1805 32.8052C37.3238 30.9549 37.575 29.2218 38.0819 27.1743C38.4432 25.7149 38.9471 24.1304 39.64 22.7926C40.248 21.619 41.5839 21.2275 42.7679 20.8581C46.5051 19.6924 49.7461 20.321 53.1382 22.0946C54.3024 23.8272 54.7038 26.7813 55.3056 28.8204C55.695 30.1393 56.3335 31.5332 57.0742 32.687C57.6294 33.5521 58.3005 34.3994 59.0288 35.1268C59.709 35.8063 60.4904 36.3707 61.2267 36.9858C63.8972 39.2167 67.0115 41.8809 67.8787 45.4021C68.3361 47.259 67.9323 48.6459 66.9646 50.2308C66.9373 49.9743 66.9003 49.7271 66.8261 49.4794C66.235 47.5069 64.4449 45.8259 62.7327 44.775C61.764 44.1804 60.7213 43.7084 59.7076 43.1971C58.7533 42.7158 57.8223 42.1777 56.8318 41.7727C55.284 41.1398 53.369 40.5485 51.9213 39.7657C51.6407 39.6141 51.3408 39.4305 51.1274 39.1904C50.3866 38.3566 50.1331 36.8262 50.0339 35.7581C49.9921 35.3086 50.0061 34.7679 49.8714 34.3408C49.8675 34.3282 49.8629 34.3159 49.8588 34.3035ZM49.9817 21.3732C50.5876 21.9252 51.3894 22.5996 52.1773 22.8596C51.7933 22.5184 50.4091 21.4944 49.9817 21.3732ZM48.9842 21.4539L49.0705 21.4698C50.0062 22.4909 51.1367 23.2529 52.3063 23.9718C52.5978 24.151 52.9008 24.3716 53.217 24.502C52.7753 24.0334 51.5914 23.3908 51.0038 22.9505C50.4819 22.5593 49.6272 21.6724 49.0705 21.4698L48.9842 21.4539ZM44.383 21.8618C43.8715 22.2144 43.3534 22.5448 42.8836 22.954C42.2313 23.5222 41.6419 24.1653 40.9642 24.7035C40.5302 25.0481 39.8871 25.3039 39.5304 25.7139C40.76 25.296 42.2609 23.7957 43.2468 22.9129C43.623 22.576 44.0645 22.2515 44.383 21.8618ZM48.7259 21.9798L48.7573 22.0064C49.1194 22.4269 49.6267 22.7882 50.0496 23.1504C50.8136 23.8049 52.8692 25.682 53.7864 25.9458C53.5159 25.6116 52.1747 24.755 51.6936 24.3724C50.9135 23.7522 49.6743 22.3433 48.7573 22.0064L48.7259 21.9798ZM40.3069 23.1793C41.0104 22.8522 41.5559 22.2006 42.0769 21.6442C41.9336 21.6609 41.7866 21.6859 41.6472 21.7246C41.1229 21.8701 40.5847 22.7219 40.3069 23.1793ZM39.9658 24.2743C40.2908 24.1707 40.6161 23.971 40.9143 23.8038C42.1708 23.0995 43.1452 22.262 44.1517 21.2417C43.5475 21.4898 42.5803 22.488 42.0063 22.9247C41.361 23.4157 40.586 23.7568 39.9658 24.2743ZM39.0102 27.0491C39.6666 26.7861 40.2668 26.2241 40.8635 25.8469C41.9216 25.1782 43.0299 24.615 44.0634 23.8992C44.9458 23.288 45.737 22.5484 46.5361 21.8346C47.3855 22.6438 48.2921 23.4636 49.2833 24.0944C50.1044 24.6171 51.2888 25.2018 52.0003 25.8035C52.9869 26.6378 53.7106 28.038 54.8035 28.6941C54.6064 28.4769 54.4141 28.255 54.2205 28.0347C53.3602 27.0019 52.5502 25.8917 51.5392 25.0003C50.7669 24.3193 49.8935 23.7443 49.071 23.1255C48.15 22.4323 47.318 21.6947 46.5115 20.8709C45.6907 21.6771 44.8508 22.4357 43.9409 23.1406C43.3127 23.6274 42.6523 24.0718 42.0259 24.5605C41.4877 24.9804 40.9914 25.4558 40.4667 25.8925C39.9972 26.283 39.4342 26.616 39.0102 27.0491ZM42.8819 26.697C42.9916 26.8044 43.424 26.7031 43.5881 26.7156C44.0927 26.7542 44.5684 27.0464 44.9868 27.3036C44.8789 27.129 44.7279 27.0213 44.5526 26.9178C44.0418 26.616 43.4517 26.5615 42.8819 26.697ZM47.9277 27.3509C48.4905 26.9611 48.9209 26.7854 49.6173 26.7749C49.8223 26.7718 50.0251 26.7825 50.2266 26.7388L50.2208 26.6914C49.7985 26.5958 49.3499 26.617 48.931 26.7196C48.5392 26.8155 48.1417 26.9949 47.9277 27.3509ZM39.845 29.0519C39.5102 29.3148 38.3098 30.5858 38.1122 30.9035C38.5947 30.624 39.6622 29.5661 39.845 29.0519ZM41.1189 33.0064C40.1242 34.8545 39.4773 36.1997 37.8833 37.6606C34.7752 40.5094 30.1683 41.2613 27.4632 44.5929C27.1637 44.9618 26.8236 45.4199 26.6846 45.8795C26.8463 45.7055 26.9819 45.4894 27.1318 45.3033C27.5059 44.8394 27.8989 44.4002 28.34 43.998C30.7241 41.8235 33.9363 40.7467 36.5979 38.9683C38.2621 37.8563 39.5446 36.3324 40.4817 34.5735C40.741 34.0867 41.0093 33.5507 41.1189 33.0064ZM41.2952 33.4775C40.5379 35.0325 40.0524 36.293 38.8688 37.6441C37.0781 39.6883 35.129 40.5039 32.8231 41.7427C31.1225 42.6563 29.4191 43.7578 28.1048 45.185C27.7082 45.6157 27.2541 46.1223 27.0055 46.6555C27.3275 46.368 27.5879 45.9417 27.8676 45.6079C28.3641 45.0155 28.9735 44.4849 29.5908 44.0222C30.6169 43.253 31.714 42.5832 32.8498 41.9891C34.3119 41.2246 35.8296 40.5519 37.1608 39.5637C38.9322 38.2488 40.9651 35.7167 41.2952 33.4775ZM52.0661 33.9918L52.1577 34.0769L52.1819 34.1157L52.2402 34.1995C52.5546 34.8232 53.0966 35.4031 53.5393 35.9407C54.7267 37.3825 56.2324 38.593 57.8643 39.497C60.5216 40.969 63.9268 41.8384 65.8833 44.2994C66.4149 44.9681 66.8314 45.7218 67.0964 46.535C67.1946 46.8365 67.2519 47.2073 67.3929 47.4873C67.4028 47.5069 67.4132 47.5263 67.4234 47.5458C67.3981 46.6521 67.0414 45.7893 66.5888 45.0293C64.4025 41.3588 60.2587 40.7916 56.9607 38.5973C55.6883 37.7507 54.4902 36.751 53.4563 35.6246C53.0441 35.1754 52.695 34.6645 52.2699 34.2293L52.2402 34.1995L52.1819 34.1157L52.1577 34.0769L52.0661 33.9918ZM38.8014 34.7197L38.7881 34.7333L38.7575 34.7585C38.3623 35.0893 38.0221 35.4887 37.6413 35.8371C37.0436 36.3844 36.3531 36.8937 35.6715 37.3328C34.5018 38.0862 33.2513 38.7117 32.0197 39.3559C30.4973 40.1522 28.0897 41.2118 27.0583 42.5675C27.7311 42.0492 28.4194 41.5228 29.16 41.1046C32.1469 39.4176 35.4736 38.3459 37.9193 35.8046C38.2131 35.4995 38.5983 35.1112 38.7881 34.7333L38.8014 34.7197C38.8806 34.6621 38.8919 34.6541 38.9282 34.564C38.8505 34.5919 38.8414 34.6502 38.8014 34.7197ZM52.5245 29.2018C52.5437 29.4043 52.6236 29.625 52.6969 29.8147C53.4522 31.7677 55.227 33.447 56.8986 34.6409C57.2456 34.8888 57.6196 35.1735 58.0093 35.3455C57.5197 34.8557 56.9125 34.4603 56.3902 34.0017C55.1691 32.9294 53.9502 31.6938 53.0987 30.3021C52.8904 29.9618 52.7456 29.5846 52.5461 29.2387L52.5245 29.2018ZM52.8089 35.8793L52.8413 35.9339C53.0933 36.5603 53.6361 37.1723 54.0971 37.655C56.6653 40.3445 59.2398 40.9337 62.2835 42.66C63.9234 43.59 65.663 44.8481 66.4029 46.6487C66.588 47.099 66.6584 47.552 66.7864 48.0153C66.8024 47.2365 66.5144 46.4823 66.1279 45.8173C64.101 42.3295 59.6128 41.2936 56.4007 39.2391C55.0001 38.3432 53.8546 37.2455 52.8413 35.9339L52.8089 35.8793ZM34.4689 36.3485C35.1861 36.1247 35.9811 35.5389 36.5984 35.0971C38.0143 34.0836 39.2669 32.8619 40.0962 31.3145C40.2843 30.9635 40.4912 30.5517 40.5561 30.1568C40.2902 30.5217 40.0789 30.9507 39.8224 31.3292C38.9116 32.6735 37.8834 33.8895 36.595 34.8882C35.9262 35.4065 35.1542 35.7952 34.5019 36.3213C34.4908 36.3303 34.4799 36.3395 34.4689 36.3485ZM51.1636 36.5136C51.2323 37.341 52.2255 39.0867 52.8523 39.6496C52.9042 39.6962 52.9587 39.7268 53.0194 39.7603C52.9714 39.672 52.9917 39.6978 52.9371 39.633C52.0992 38.6378 51.7216 37.6573 51.1636 36.5136ZM34.6753 37.204C35.2431 37.0526 36.2547 36.4119 36.7468 36.0721C38.2209 35.0539 39.4789 33.6168 40.3036 32.0306C40.4787 31.6937 40.6839 31.3146 40.751 30.9388C40.4175 31.3488 40.1949 31.9091 39.8977 32.3569C39.161 33.4669 38.2334 34.4915 37.2402 35.3799C36.7236 35.8418 36.1415 36.2201 35.5605 36.5942C35.2958 36.7646 34.9552 36.9351 34.7312 37.149C34.7123 37.167 34.694 37.1856 34.6753 37.204ZM52.9025 31.0336C52.9848 31.3696 53.1451 31.6968 53.3105 31.9994C54.5804 34.3238 56.9519 35.8252 59.2591 36.979C59.8419 37.2705 60.4702 37.6136 61.0964 37.7969C60.6882 37.4154 59.519 36.8977 58.9754 36.6067C56.0974 35.0663 54.6818 33.7641 52.9025 31.0336ZM41.189 38.2314C40.9668 38.4527 40.5357 39.2991 40.4403 39.5935C40.7644 39.2937 41.0771 38.6494 41.189 38.2314ZM30.7432 39.2047C30.7635 39.2007 30.784 39.197 30.8042 39.1926C31.0417 39.1412 31.859 38.7935 31.9654 38.6231C31.7295 38.621 30.9414 39.0414 30.7432 39.2047ZM52.3057 30.746C52.4061 31.3565 52.614 31.9382 52.9084 32.4809C54.6513 35.693 57.7751 37.5611 61.0429 38.9198C61.6357 39.1663 62.2287 39.4808 62.843 39.6647C62.4865 39.3307 60.8147 38.6306 60.2673 38.3648C57.3779 36.9615 54.8434 35.1739 53.1347 32.3891C52.8265 31.8871 52.626 31.3405 52.3492 30.8256L52.3057 30.746ZM50.7774 33.4874C50.7314 34.1888 51.2352 35.4701 51.5104 36.1377C52.2057 37.8244 53.3971 39.1157 54.8105 40.2359C55.1956 40.5413 55.621 40.8849 56.0776 41.075C54.1248 39.31 52.5607 38.3001 51.5215 35.7014C51.3804 35.3484 50.8638 33.5916 50.7774 33.4874ZM30.2232 44.4277C30.9669 44.0601 31.669 43.5649 32.4029 43.1691C34.6702 41.9462 37.059 40.9105 38.9608 39.1189C40.3838 37.7783 41.7891 35.328 41.8536 33.3398C41.6095 33.7219 41.5439 34.3994 41.3928 34.8432C41.0225 35.9309 40.4068 37.0856 39.7203 38.0113C37.8636 40.515 34.8688 41.6109 32.2396 43.063C31.5812 43.4266 30.7341 43.8785 30.2232 44.4277ZM52.09 32.1831C52.0401 32.6688 52.5997 33.4545 52.8487 33.8611C54.4346 36.4512 56.9828 38.1058 59.6917 39.3291C61.2603 40.0374 62.8228 40.6739 64.2546 41.6474C65.4969 42.4919 66.1135 43.3768 67.0042 44.5344C66.7669 43.8731 66.2684 43.2559 65.7881 42.7529C63.6782 40.543 61.0103 39.7194 58.3694 38.3677C57.4374 37.8906 56.5323 37.3323 55.7091 36.6839C54.5449 35.7669 53.5537 34.6119 52.768 33.356C52.5483 33.0049 52.3929 32.5696 52.141 32.2467C52.1243 32.2253 52.107 32.2043 52.09 32.1831ZM51.0942 33.1524C51.0943 33.1778 51.094 33.2032 51.0946 33.2286C51.1108 34.094 51.5736 34.9959 51.946 35.7626C53.6481 39.267 56.642 40.888 59.984 42.4647C61.1192 43.0004 62.2943 43.5283 63.3385 44.2317C63.9482 44.6423 64.4826 45.1381 65.018 45.6386L65.0223 45.6785L65.0842 45.7229L65.0821 45.6864L65.018 45.6386C64.1551 44.0145 59.6073 42.0422 57.9226 41.0759C56.9557 40.5215 56.0374 39.8884 55.1742 39.183C53.6652 37.9499 52.4991 36.4729 51.7222 34.6829C51.5561 34.3003 51.3901 33.5218 51.1425 33.2101C51.1269 33.1904 51.1104 33.1716 51.0942 33.1524ZM43.0789 21.3406C42.6733 21.6294 42.232 21.9472 41.891 22.3118L41.9216 22.3388C42.3626 22.0669 42.7304 21.7667 43.0986 21.4039L43.0934 21.3506L43.0789 21.3406ZM50.2139 26.948C49.4008 26.9875 48.2572 27.3004 47.6884 27.9246C47.5561 28.0697 47.4594 28.2381 47.3624 28.4076C49.0625 27.3462 49.2098 28.7303 50.7847 27.0986C50.6296 27.3597 50.444 27.6003 50.2307 27.8168C49.2005 28.6101 48.538 27.6946 47.347 28.6441C47.6799 28.5386 47.9789 28.4444 48.3293 28.4228C49.2176 28.3682 50.186 28.7142 50.6859 27.7051C50.8131 27.4483 50.8435 27.1949 50.8731 26.9151C50.6553 26.9234 50.4298 26.9197 50.2139 26.948ZM45.6026 29.6885C45.4018 29.9019 45.1308 30.2121 45.1641 30.5311C45.1735 30.6217 45.2039 30.6674 45.2549 30.7395C45.3744 30.8114 45.4418 30.8369 45.5802 30.8532C45.6813 30.8185 45.7741 30.7807 45.8698 30.7329C46.1019 30.8787 46.2317 31.1909 46.5347 31.2012C46.7296 31.1155 46.8438 30.9383 47.0262 30.8494C47.3 30.7159 47.6029 30.9016 47.7625 30.5607C47.7603 30.3967 47.7266 30.2663 47.665 30.114C47.5354 29.9346 47.4082 29.7604 47.257 29.598C47.3415 29.8603 47.4896 30.191 47.4888 30.4651C47.4076 30.5533 47.3944 30.5774 47.2673 30.583C47.2027 30.5858 47.1269 30.5679 47.0628 30.5577C46.7808 30.6976 46.7757 31.0539 46.3699 30.9355C45.9864 30.8236 46.0249 30.4359 45.5504 30.5986L45.4588 30.5586C45.3272 30.2005 45.6877 29.9957 45.6026 29.6885ZM46.4061 29.7078C46.3775 29.8657 46.3331 30.0075 46.3991 30.1611C46.4713 30.2163 46.4921 30.2321 46.5841 30.2511C46.6296 30.1139 46.6545 30.028 46.6294 29.8803C46.5502 29.7761 46.5263 29.7618 46.4061 29.7078ZM46.1087 31.6436C46.2108 31.7532 46.2944 31.8764 46.4505 31.9001C46.5687 31.8656 46.6531 31.8254 46.7576 31.7635L46.8069 31.7177C46.5996 31.6435 46.3289 31.657 46.1087 31.6436ZM40.7601 31.9617C40.0433 33.356 39.2965 34.742 38.2469 35.9204C37.1812 37.117 35.86 38.1284 34.5009 38.9712C32.09 40.4661 27.731 42.234 26.3122 44.6329C25.8153 45.4732 25.7349 46.4706 25.6007 47.4114L25.6582 47.4098L25.6382 47.4938L25.6409 47.4928C26.1824 44.9554 26.4368 44.0228 28.7277 42.5416C29.5293 42.0234 30.388 41.5875 31.2289 41.1372C34.4393 39.4183 37.3882 37.8811 39.4783 34.7508C40.0159 33.9455 40.577 33.0102 40.7977 32.0617C40.7725 31.9702 40.7944 31.9982 40.7601 31.9617ZM45.8082 32.3362C45.6131 32.4024 45.1289 32.6245 44.9351 32.5833C44.8485 32.565 44.7561 32.5195 44.6683 32.4959C44.9429 32.9698 45.3988 33.3637 45.9327 33.5081C46.324 33.614 46.7459 33.5914 47.1342 33.4838C47.5898 33.2838 47.9184 33.0539 48.204 32.638C47.6657 32.4288 47.1726 32.2557 46.5924 32.4254C46.2556 32.524 46.1092 32.2801 45.8082 32.3362Z" fill="#EBEBEB"/>
<path d="M29.8548 23.7696C29.7849 23.7389 29.7219 23.7079 29.6615 23.6604C29.5874 23.6021 29.5342 23.5082 29.5315 23.4143C29.5253 23.2019 29.638 23.0978 29.7745 22.9531C29.8643 22.973 29.9407 23.0169 30.0079 23.0803C30.0799 23.1481 30.105 23.2448 30.1037 23.3397C30.101 23.5299 29.9791 23.6427 29.8548 23.7696Z" fill="#EBEBEB"/>
<path d="M63.1665 24.116C63.0924 24.005 62.928 23.807 62.9129 23.6748C62.8901 23.4749 63.0134 23.3415 63.1247 23.1914C63.2053 23.2724 63.3018 23.3833 63.3328 23.495C63.3916 23.7079 63.255 23.93 63.1665 24.116Z" fill="#EBEBEB"/>
<path d="M67.2539 30.0992C67.3712 29.8233 67.5062 29.5528 67.6335 29.2812C67.7717 29.5248 67.8562 29.8489 67.9552 30.1127L67.6105 31.0334C67.5037 30.7148 67.3917 30.4058 67.2539 30.0992Z" fill="#EBEBEB"/>
<path d="M25.0612 30.7199C24.8917 30.689 24.7425 30.6511 24.6377 30.4989C24.5687 30.3986 24.5593 30.2979 24.5801 30.1808C24.6149 29.984 24.7707 29.8802 24.9274 29.7812C24.994 29.7925 25.0602 29.8051 25.1245 29.8267C25.2466 29.8675 25.3353 29.9621 25.3904 30.0758C25.445 30.1883 25.4436 30.3107 25.3991 30.4265C25.3339 30.5961 25.2167 30.6496 25.0612 30.7199Z" fill="#EBEBEB"/>
<path d="M45.0625 32.7363C45.95 32.533 46.272 32.9081 47.2068 32.6172C47.4741 32.6399 47.7385 32.6557 48.0068 32.6601C47.9479 32.7029 47.8889 32.7455 47.8288 32.7867C47.2518 33.1815 46.6468 33.2679 45.9681 33.1408C45.6214 33.0633 45.3577 32.9243 45.0625 32.7363Z" fill="#EBEBEB"/>
<path d="M48.8622 46.2242C49.0789 46.4655 49.4259 46.7091 49.3955 47.06C49.3818 47.2192 49.3681 47.381 49.4048 47.5384C49.5122 47.9984 49.9576 48.4389 50.35 48.6872C50.9513 49.0679 51.769 49.1414 52.4545 48.975C53.9821 48.6043 54.0606 47.171 54.4593 45.9361C54.6693 45.2856 54.9813 44.5531 55.3426 43.972C55.3496 43.9608 55.3568 43.9497 55.3639 43.9385C55.2544 44.6111 55.0753 45.2691 54.9393 45.9361C54.804 46.6002 54.7104 47.271 54.5523 47.9307C53.7477 51.291 52.521 54.5737 51.0049 57.6749C50.5722 58.5599 50.1502 59.4587 49.6747 60.3214C49.2747 61.0471 48.8159 61.7542 48.4556 62.4998L47.9324 62.5718C48.8087 61.0313 49.3925 59.3553 49.9193 57.6702C50.7568 54.9917 51.3611 52.285 52.0151 49.561C51.7791 49.5577 51.543 49.5568 51.3074 49.5448C50.906 51.2736 50.4704 52.98 50.0123 54.694C49.3847 57.0419 48.7096 59.3654 47.7278 61.5943C47.6154 61.8496 47.4185 62.456 47.1963 62.598C47.1861 62.6045 47.1743 62.6082 47.1632 62.6132L47.1079 62.5728C47.1949 61.7898 47.4169 60.9922 47.5374 60.208C47.7693 58.6968 47.9343 57.1644 48.0901 55.6436C48.2194 54.3823 48.3683 53.0885 48.3569 51.8199C48.0887 52.1174 47.7934 52.4105 47.5562 52.7328C47.3374 55.8173 47.0011 58.8631 46.5482 61.9222C46.3118 59.7195 45.9611 57.5229 45.6926 55.3227C45.5945 54.5186 45.6114 53.2339 45.3763 52.4978C45.2462 52.0907 44.8757 51.6783 44.6221 51.3328C44.6961 52.2056 44.7398 53.0797 44.8262 53.9515C44.943 55.1308 45.1072 56.3029 45.2447 57.4795C45.3862 58.6902 45.5156 59.895 45.7271 61.0966C45.8004 61.5129 46.0618 62.3053 46.0162 62.6864C45.8409 62.6529 45.7672 62.5951 45.6699 62.4454C45.3258 61.9162 45.1538 61.2039 44.9266 60.6152C43.5689 57.0986 42.3389 53.2514 41.8487 49.5057L41.2449 49.5548C41.5587 52.7677 42.6498 56.5376 43.7602 59.5698C43.9462 60.0776 44.1464 60.58 44.3639 61.0751C44.5153 61.4199 45.0115 62.2654 45.0463 62.5536C44.9507 62.5718 44.9459 62.5654 44.8688 62.5104C44.4406 62.2056 43.7936 60.9268 43.5172 60.4397C41.8052 57.421 40.2619 54.3277 39.2685 50.9927C39.0035 50.1033 38.7493 49.195 38.6292 48.2731C38.5794 47.8907 38.3805 46.9248 38.505 46.5797C38.6057 46.3003 39.1972 45.4288 38.9452 45.2233C38.6629 45.4378 38.5732 45.9504 38.2411 46.0863C38.1838 45.9909 38.0891 45.9445 38.0176 45.8554C38.227 45.6835 38.5023 45.2044 38.5565 44.9384C38.5196 44.8392 38.5453 44.8497 38.4394 44.8003C38.2387 44.8882 38.0863 45.1581 37.9199 45.3116C37.8161 45.4074 37.6455 45.5586 37.5052 45.5505C37.4954 45.5359 37.4843 45.5221 37.4758 45.5068C37.2608 45.1189 38.0475 44.8232 38.1362 44.4618L38.0895 44.3877C37.7613 44.3865 37.4593 44.8058 37.092 44.7876C36.964 44.7811 36.9277 44.7291 36.8453 44.6443C36.853 44.545 36.966 44.507 37.0511 44.4605C37.4132 44.2632 37.5806 44.0985 37.8294 43.7773C37.4707 43.8838 37.1109 44.0924 36.7392 44.1398C36.5939 44.1583 36.5198 44.1379 36.4065 44.048C36.4648 43.883 36.9831 43.6271 37.1553 43.5175C36.9457 43.1534 36.3639 43.6771 35.9522 43.5245C35.8849 43.3271 36.6008 43.1016 36.6935 42.8588C36.5564 42.7465 35.9162 42.9037 35.7163 42.9211L35.6992 42.8868C35.9527 42.7255 36.2284 42.6012 36.4981 42.4695C37.9814 44.0763 39.8132 45.8313 42.0603 46.1638C42.8889 46.2864 43.9491 46.2782 44.6432 45.765C44.0992 45.8706 43.5744 45.9429 43.0191 45.9014C40.6589 45.725 38.392 43.9299 36.8977 42.1918C37.3153 42.0362 37.7367 41.8904 38.1568 41.7417C39.9333 43.0688 42.5126 44.76 44.6435 45.333C43.7453 44.5259 42.6967 43.8876 41.6813 43.2406C40.7222 42.6294 39.7621 42.0124 38.7758 41.4459C40.0173 40.9402 41.5708 40.4444 42.6086 39.5835C43.8536 38.5508 43.5644 36.3386 43.6895 34.8828C44.3972 35.5308 45.2372 36.3693 46.2405 36.4868C47.407 36.6235 48.4132 35.6182 49.2538 34.9469C49.2872 36.1414 49.3547 37.5125 49.769 38.6369C49.8782 38.9332 50.035 39.2013 50.2623 39.4226C51.2188 40.3531 53.229 40.9568 54.4723 41.5312C53.8028 41.9038 53.1753 42.3691 52.5251 42.776C51.1738 43.6218 49.7439 44.3734 48.5663 45.4668C50.2296 45.3183 53.423 42.7478 54.8031 41.6851C55.1259 41.8147 55.459 41.924 55.7866 42.0413C55.3645 42.7309 54.9128 43.47 54.3794 44.0796C52.9673 45.6931 50.3955 45.7788 48.4026 45.9177C48.8267 46.1334 49.2243 46.2065 49.6951 46.1904C51.0958 46.1423 52.8428 45.7183 54.01 44.9146C54.3682 44.6679 54.6536 44.3762 54.9506 44.0598C54.5423 44.8888 54.1858 45.4361 53.3445 45.8826C53.3391 46.2961 53.4361 46.7541 53.3343 47.1582C53.2138 47.6358 52.8594 48.051 52.4279 48.2795C51.9666 48.5237 51.4238 48.54 50.9341 48.3701C50.5953 48.2525 50.3075 48.041 50.1591 47.7071C50.0024 47.3548 50.0393 47.0119 50.1751 46.6626L50.1917 46.6208L50.1543 46.5539L50.0491 46.5639C49.7914 46.7587 49.8318 47.1426 49.7013 47.4137C49.5316 47.2376 49.5682 46.8802 49.565 46.6486C49.3388 46.4815 49.1122 46.352 48.8622 46.2242ZM40.7041 46.3721C40.8781 46.8249 41.1028 46.7861 41.4414 47.058L41.4814 47.0908C41.5302 47.2678 41.575 47.4444 41.5937 47.6277C41.621 47.8937 41.5632 48.1808 41.3823 48.3855C41.224 48.5646 40.991 48.6708 40.7519 48.6735C40.4789 48.6766 40.2223 48.5373 40.0422 48.3383C39.8468 48.1223 39.7309 47.8394 39.7475 47.5462C39.7772 47.0196 40.1827 46.6406 40.5492 46.3115C40.4807 46.2679 40.5026 46.2737 40.439 46.2563C40.255 46.2062 40.0382 46.0147 39.8777 46.029C39.6348 46.2959 39.436 46.8082 39.3761 47.1626C39.2816 47.7205 39.5297 48.0852 39.8298 48.5216C38.3054 47.446 39.6663 46.1723 39.5499 45.7249C39.4476 45.6637 39.465 45.6793 39.3575 45.6977C39.0894 45.9183 38.9992 46.4162 38.9477 46.7485C38.839 47.4504 39.0448 48.0131 39.4511 48.5707C39.8691 49.0142 40.3402 49.2853 40.9613 49.3076C41.5021 49.3271 42.1648 49.1266 42.5586 48.7464C42.8342 48.4804 43.0162 48.091 43.0152 47.7053C43.0143 47.3355 42.8221 46.808 42.5493 46.5463C42.4322 46.5389 42.4167 46.5253 42.3228 46.5924L42.3261 46.5843C42.3154 47.0124 42.7283 47.3809 42.6532 47.9071C42.6154 48.1726 42.4704 48.3577 42.2665 48.5206C42.4808 48.0038 42.5305 47.6877 42.2987 47.1477C42.1776 46.8655 42.0451 46.6291 41.7518 46.5176L41.6909 46.5475C41.7866 47.0339 42.266 47.2744 42.1972 47.8638C42.1563 48.2151 41.9517 48.5494 41.6812 48.7702L41.6005 48.7574C41.5777 48.5 41.8475 48.2252 41.921 47.9668C42.006 47.6681 41.9893 47.3247 41.8289 47.054C41.5715 46.6196 41.1594 46.4946 40.7041 46.3721ZM44.8182 38.6804C44.8138 39.4513 44.8955 41.2674 45.2733 41.8727C45.3577 41.9206 45.3605 41.9238 45.4494 41.9227C45.4337 41.1491 45.2784 39.2866 44.8182 38.6804ZM48.3338 38.6769C48.0889 39.2809 47.4331 41.2618 47.6018 41.8655C48.0049 41.3703 48.4372 39.4178 48.358 38.7839C48.3511 38.7284 48.3508 38.7368 48.3338 38.6769ZM46.5088 43.1847C45.9993 43.5514 45.5197 43.8355 44.9408 44.0854C45.1633 44.3265 45.2828 44.576 45.4125 44.8735C45.6472 44.6445 46.168 44.0202 46.4724 43.9688L46.5222 44.0144C46.8756 44.3035 47.2341 44.5839 47.5964 44.8616C47.7348 44.5457 47.9047 44.3522 48.1549 44.1194C47.4605 43.9109 47.0277 43.7068 46.5088 43.1847ZM46.4507 44.6688L46.4085 44.7207C45.9947 45.2256 45.4278 45.5502 44.9383 45.9719C44.1455 46.6548 43.4849 47.8615 43.5975 48.9316C43.7436 50.3199 45.2967 52.0198 46.3918 52.8356C46.4293 52.8636 46.4867 52.9013 46.5316 52.9137C47.3913 51.9301 48.4205 51.0987 49.3648 50.1974C49.1342 49.4191 49.1363 47.6193 49.1358 46.761C48.3523 46.4168 47.6425 45.6743 46.9925 45.117C46.8282 44.976 46.6384 44.7678 46.4507 44.6688ZM52.9243 45.9979C52.9074 46.0102 52.8906 46.0228 52.8735 46.0349C52.6419 46.1993 52.538 46.1621 52.2847 46.2196C52.2987 46.2306 52.314 46.2402 52.3266 46.2527C52.4729 46.3986 52.5509 46.6677 52.5355 46.8716C52.5086 47.2276 52.2543 47.5545 51.9851 47.7705C51.6931 48.0048 51.4248 48.1074 51.0599 48.1667L51.0174 48.1844C51.3061 48.2675 51.7444 48.2786 52.012 48.124C52.4639 47.8629 52.8462 47.3233 52.9609 46.8176C53.0187 46.5629 53.0098 46.3273 52.98 46.0714L52.9243 45.9979ZM44.0647 46.4028C43.6775 46.4377 43.2393 46.4378 42.8698 46.5578L42.8355 46.6234C42.8847 46.7568 42.8952 46.7905 43.0013 46.8825C43.1891 46.9309 43.3276 46.8625 43.4879 46.7674C43.6296 46.6834 43.7632 46.5871 43.8958 46.4897L43.8678 46.5453C43.749 46.7751 43.6894 46.8274 43.4454 46.9019L43.4034 46.9143L43.3922 46.9493L43.6072 46.9878C43.6547 47.2014 43.3539 47.7209 43.259 47.9273C43.1712 48.2018 43.0882 48.4749 43.0176 48.7544L43.4062 49.3387C43.1399 47.8533 43.6094 47.6751 44.1258 46.4046C44.0777 46.39 44.0976 46.3857 44.0647 46.4028ZM51.781 46.3511C51.7321 46.8368 51.658 47.1783 51.2516 47.5039C51.1796 47.5617 51.11 47.5973 51.0225 47.6277C50.9628 47.6183 50.915 47.6289 50.877 47.5756C50.8107 47.4825 50.7921 47.3302 50.8162 47.2202C50.8593 47.0232 51.021 46.9406 51.1778 46.8441C51.2801 46.7813 51.3439 46.7629 51.3992 46.6492C51.3383 46.5484 51.3338 46.5455 51.2249 46.5001C50.9533 46.5181 50.7234 46.6488 50.5472 46.8569C50.5359 46.8703 50.5264 46.885 50.5159 46.899C50.3937 47.1416 50.2933 47.4314 50.3719 47.7056C50.4068 47.8275 50.4889 47.9276 50.6019 47.9852C50.7863 48.0793 50.9997 48.0561 51.1859 47.9798C51.5746 47.8204 51.8766 47.4132 52.019 47.0293C52.0521 46.9403 52.0796 46.8493 52.1065 46.7583C52.0053 46.6128 51.9119 46.4719 51.781 46.3511ZM40.33 47.3421C40.2891 47.5211 40.2702 47.7273 40.3789 47.8897C40.4698 48.0255 40.5862 48.0904 40.737 48.1454L40.8097 48.1245L40.801 48.1891L40.8723 48.2124L40.5547 48.2158C40.5874 48.2838 40.7151 48.3201 40.7846 48.3535C40.9602 48.3133 41.1265 48.2779 41.2353 48.1181C41.3022 48.0197 41.3043 47.9223 41.2694 47.8119C41.2137 47.6359 40.991 47.4606 40.8245 47.3959C40.6742 47.3376 40.4894 47.3457 40.33 47.3421Z" fill="#EBEBEB"/>
<path d="M26.5606 40.5683C26.3934 40.5321 26.2579 40.4943 26.1514 40.3511C26.0632 40.2325 26.0454 40.1073 26.0771 39.9631C26.1202 39.7679 26.2704 39.6808 26.4303 39.5898C26.6058 39.6271 26.7514 39.6776 26.8541 39.8348C26.9262 39.9451 26.9356 40.0607 26.9074 40.1878C26.8651 40.3792 26.7153 40.474 26.5606 40.5683Z" fill="#EBEBEB"/>
<path d="M66.8529 40.7492C66.7749 40.7474 66.693 40.7466 66.6163 40.7309C66.4682 40.7007 66.3221 40.5721 66.242 40.4482C66.161 40.3227 66.1333 40.1761 66.1765 40.0319C66.2328 39.8438 66.3586 39.7714 66.5213 39.6875C66.744 39.6988 66.9324 39.7283 67.0856 39.9064C67.18 40.0162 67.2283 40.1555 67.2039 40.3009C67.1671 40.5201 67.0279 40.6319 66.8529 40.7492Z" fill="#EBEBEB"/>
<path d="M52.7344 59.9461C53.0164 59.466 53.3331 59.0088 53.6103 58.5251C54.2718 57.3713 56.2629 53.6866 56.2007 52.4558C56.1765 51.976 56.0698 51.4982 56.0117 51.0213C55.8711 49.8677 55.8619 48.675 56.0328 47.5261C56.2598 50.1334 56.6099 52.7327 57.4365 55.2223C57.5417 55.5389 57.6797 56.1246 57.9331 56.348C58.1076 56.5018 58.4496 56.4108 58.6623 56.3805C56.7894 52.9454 56.0765 49.5868 56.2474 45.692C56.2862 44.809 56.3069 43.8017 56.553 42.9526C56.5726 42.8852 56.5943 42.8185 56.6167 42.7518C56.5757 43.315 56.5202 43.8677 56.5558 44.4334C56.7382 47.3291 58.105 50.5186 59.6111 52.964C59.9962 53.5892 60.3902 54.2892 60.8699 54.8457C60.9115 54.8941 60.9549 54.9372 61.0009 54.9812C60.7406 53.4764 59.8955 51.9892 59.2103 50.6355C58.906 50.0344 58.5859 49.4364 58.3178 48.818C57.6768 47.34 56.7962 44.6993 56.7976 43.1144C57.2568 44.0284 57.7512 44.8367 58.4305 45.6073C58.9645 46.2379 59.5199 46.8467 60.0826 47.4517C61.3656 48.831 63.2817 50.6868 63.0952 52.7374C63.0409 53.3354 62.7985 53.8911 62.5855 54.446C63.3415 53.3298 63.6584 52.1443 63.3919 50.8019C62.6574 47.1038 58.3287 46.1106 56.9118 42.4609C57.6063 42.9552 58.4066 43.283 59.1558 43.6841C59.8559 44.059 60.5183 44.5076 61.2064 44.9049C63.391 46.1664 65.8535 47.5223 66.309 50.2551C66.4865 51.3193 66.2532 52.4691 65.6112 53.3446C64.407 54.9868 60.8762 56.0444 58.9206 56.4933C58.6144 56.5636 58.3015 56.6599 57.9908 56.7049C57.8639 56.7233 57.7594 56.7302 57.6342 56.7015C57.6061 56.5899 57.6189 56.5177 57.6324 56.406C57.5062 56.0776 57.2768 55.8115 57.1335 55.4927C56.8385 54.8365 56.6353 54.0959 56.4431 53.4032C56.2199 53.9672 56.0044 54.5383 55.7462 55.0874C55.2245 56.1963 53.6369 59.1642 52.7344 59.9461Z" fill="#EBEBEB"/>
<path d="M69.285 44.0275C69.1893 44.0206 69.0925 44.0115 69.0001 43.9835C68.8503 43.9378 68.7277 43.8315 68.6554 43.6931C68.5886 43.5653 68.5796 43.4178 68.6291 43.2831C68.7093 43.065 68.8652 42.9596 69.0699 42.8711C69.1374 42.8801 69.2049 42.8893 69.2716 42.9033C69.4337 42.9378 69.5586 43.0373 69.6398 43.1816C69.7234 43.3302 69.733 43.4933 69.6757 43.6527C69.6026 43.8566 69.4731 43.9378 69.285 44.0275Z" fill="#EBEBEB"/>
<path d="M27.5695 53.9706C27.1895 52.484 26.3295 51.3229 26.8026 49.7339C27.7675 46.4931 32.1437 44.5509 34.9027 43.043C35.0731 43.0849 35.7011 44.0795 35.8515 44.2858C34.6076 45.4853 33.172 46.3582 31.833 47.4318C29.7018 49.1405 29.1649 50.1567 29.6354 52.9014C29.757 53.6107 29.9193 54.3451 29.8351 55.0675L29.827 55.1354C29.1972 54.9257 28.604 54.6692 28.008 54.3803C27.7297 54.2475 27.1357 54.0341 26.9916 53.7703C27.1645 53.7204 27.4191 53.8932 27.5695 53.9706Z" fill="#EBEBEB"/>
<path d="M49.3696 62.3553L49.2852 62.3714C49.2794 62.1981 49.9307 61.2281 50.0666 60.9982C50.8662 59.6454 51.7396 57.9959 52.329 56.5471C53.4785 53.7217 54.4098 51.061 55.0124 48.0534C55.2484 46.8755 55.3917 45.6779 55.6054 44.4948C55.6817 44.0723 55.74 43.6322 55.8599 43.2205C55.8642 43.2056 55.8688 43.1907 55.8734 43.1758C55.9476 43.6948 55.7915 44.3756 55.7483 44.9075C55.6849 45.6891 55.6499 46.4737 55.6139 47.2571C55.5692 48.231 55.566 49.1927 55.624 50.166C55.6595 50.7621 55.7624 51.3759 55.7398 51.972C55.6808 53.5282 53.7136 57.4621 52.8874 58.8711C52.3891 59.7209 51.4602 61.482 50.6077 61.9602C50.2402 62.1665 49.7758 62.2489 49.3696 62.3553Z" fill="#EBEBEB"/>
<path d="M23.8339 44.2424C23.7734 44.2398 23.7687 44.2413 23.7019 44.2299C23.5546 44.2046 23.4239 44.1262 23.3384 44.0032C23.2568 43.8855 23.2294 43.7416 23.2658 43.6023C23.3159 43.4099 23.4409 43.324 23.6056 43.2305C23.795 43.2592 24.0039 43.3055 24.1155 43.4797C24.189 43.5942 24.2053 43.6919 24.1815 43.8253C24.1461 44.0235 23.9869 44.1344 23.8339 44.2424Z" fill="#EBEBEB"/>
<path d="M29.9727 55.2161C30.4229 54.3471 30.1492 53.0903 30.1802 52.1333C30.2617 49.6104 32.3841 48.06 34.1138 46.528C34.8069 45.9142 35.4505 45.2799 36.072 44.5938C36.2012 44.713 36.3086 44.8718 36.4192 45.0093C35.909 46.4151 35.5817 47.5658 34.807 48.8954C34.1141 50.0846 32.8927 51.0139 32.5218 52.3688C32.4369 52.679 32.3948 53.0064 32.3761 53.327C32.3583 53.6316 32.3465 55.8932 32.4158 56.0129L32.494 55.999C32.9933 55.328 32.8172 53.9901 33.1316 53.1893C33.4783 52.3058 34.0449 51.5235 34.5304 50.7139C34.8436 50.1913 35.109 49.6365 35.3707 49.0867C35.6754 48.4465 35.9736 47.7903 36.2287 47.1286C36.4141 46.6479 36.5003 46.0764 36.7841 45.646L36.8508 45.6349C37.0581 46.119 36.8143 47.4648 36.7268 47.9968C36.4662 49.6874 36.1856 51.3608 35.8082 53.0307C35.5468 54.1879 35.1245 55.4507 35.0046 56.6225C33.3082 56.3465 31.5398 55.9378 29.9727 55.2161Z" fill="#EBEBEB"/>
<path d="M46.4711 52.2427C45.8694 51.6758 45.2603 51.0682 44.7752 50.3978C44.3169 49.7643 43.9551 49.0636 44.098 48.2559C44.3321 46.9334 45.4415 45.9965 46.4821 45.2695C46.9881 45.5221 48.2363 46.6876 48.6943 47.113C48.7707 48.0831 48.7379 49.0511 48.8335 50.0247C48.3197 50.4707 47.8141 50.9251 47.3262 51.3994C47.0419 51.6759 46.7771 51.9931 46.4711 52.2427ZM46.4511 45.9846C45.7716 46.7094 44.7797 47.5569 44.8075 48.6427C44.845 50.1062 46.1407 50.4189 46.484 51.413C46.9577 50.7215 47.5771 50.21 48.1047 49.5721C48.0623 48.8726 48.0281 48.1741 48.0038 47.4737C47.7683 47.2471 46.6097 46.0486 46.4511 45.9846Z" fill="#EBEBEB"/>
<path d="M52.5703 48.4803C52.6268 48.4154 52.6003 48.4384 52.668 48.389L52.733 48.3426C53.3202 47.9147 53.7674 47.3454 53.7168 46.5824C53.7042 46.3922 53.6209 46.1925 53.6508 46.0063L53.8295 45.9453C53.8771 45.9533 53.9166 45.9716 53.9611 45.9895C54.0184 46.5297 53.8467 47.2782 53.5633 47.7418C53.3165 48.1457 53.026 48.367 52.5703 48.4803Z" fill="#EBEBEB"/>
<path d="M22.6967 47.3712C22.6084 47.3654 22.5157 47.3586 22.4312 47.3297C22.2968 47.2837 22.1797 47.1616 22.1264 47.0317C22.0699 46.894 22.0817 46.729 22.1428 46.5947C22.2259 46.4122 22.3582 46.3464 22.5361 46.2734C22.588 46.2808 22.6398 46.2884 22.691 46.3C22.8399 46.3337 22.9791 46.4197 23.0577 46.5534C23.1312 46.6783 23.1456 46.8214 23.1028 46.9601C23.0339 47.183 22.8957 47.2697 22.6967 47.3712Z" fill="#EBEBEB"/>
<path d="M40.4828 60.1497C40.0883 59.8162 39.7584 59.3077 39.4604 58.8853C38.0703 56.916 37.1742 54.8402 36.6805 52.4816C36.518 52.8629 36.4459 53.3008 36.3834 53.7085C36.1309 55.3574 36.3762 56.9315 36.9932 58.476C37.2434 59.1021 37.5527 59.7401 37.9296 60.3002C38.1788 60.6705 38.4955 61.0121 38.7171 61.398C39.1928 62.2264 39.0394 63.5319 38.8202 64.4164C39.2172 64.4529 39.6475 64.5625 40.0417 64.5397L40.0967 64.4886L40.0599 64.3673C40.3058 64.3382 43.0064 65.6064 43.5744 65.7586C42.6207 65.097 41.479 64.7648 40.4539 64.2391C40.0316 64.0225 39.7284 63.6902 39.2784 63.5107C39.7778 63.528 40.3177 63.4557 40.802 63.5829C41.3253 63.7202 43.1046 64.6699 43.4727 64.6121C43.1447 64.2396 41.1003 63.5603 40.4952 63.2488C40.091 63.0408 39.7661 62.7025 39.3738 62.4699C40.9467 62.5454 42.4235 63.2091 43.9042 63.692C44.3744 63.8454 44.858 64.0115 45.3481 64.0843C43.5126 62.952 40.8692 62.7467 39.2304 61.367C40.2392 61.8479 41.3517 62.1256 42.4361 62.3852C43.4733 62.6335 44.6325 62.9184 45.6953 62.9933C47.9949 63.1551 51.3726 62.3246 53.5587 61.5491C53.645 61.5184 53.7308 61.4879 53.8184 61.4611C52.8248 62.1726 50.837 62.7422 49.631 63.1949C49.1118 63.3899 48.484 63.5702 48.0719 63.9546L48.0684 64.0188C48.5054 63.9902 48.9575 63.7118 49.3713 63.5666C50.2074 63.2734 51.0664 62.9679 51.9209 62.7372C52.6177 62.5491 53.1172 62.6394 53.7864 62.5326C53.2364 62.8773 52.6483 63.1959 52.0533 63.4555C51.1354 63.8561 50.1573 64.1847 49.3213 64.7451L49.3954 64.724C50.1171 64.5144 52.2219 63.4942 52.6735 63.4575C52.7193 63.5273 52.7226 63.557 52.7344 63.6375C53.0315 63.6905 53.3478 63.6416 53.6557 63.6872C53.0744 63.8752 52.6354 64.1991 52.0955 64.4693C51.2853 64.8746 50.4275 65.1777 49.6783 65.6969L49.6501 65.7547C50.0001 65.7496 52.0623 64.5031 52.7171 64.5515L52.7681 64.6577C53.2385 64.6454 53.6858 64.6217 54.1488 64.5299C54.0877 63.7029 54.0225 62.83 54.0531 62.0012C54.3757 61.4807 54.7724 61.0123 55.0931 60.4898C55.9075 59.1633 56.4808 57.7623 57.0186 56.3078C57.058 56.2013 57.0248 56.2422 57.1133 56.1817C57.2895 56.4366 57.3122 56.8819 57.3519 57.1833C58.2296 57.1587 59.0835 56.9416 59.9244 56.704C62.1752 56.068 63.7421 55.295 65.6969 54.0459C65.9824 54.5237 66.3584 54.97 66.6006 55.4685C66.3075 55.8253 65.9028 56.0914 65.5218 56.3457C63.4782 57.7098 60.5543 58.7322 58.114 58.9665C57.8352 58.9933 57.6302 58.9805 57.3625 58.9041C57.2932 58.8844 57.2594 58.8376 57.204 58.901C57.1601 58.9515 57.1557 58.9795 57.1459 59.0431C57.2372 59.2362 57.461 59.3148 57.6514 59.3825C57.7724 59.4254 57.885 59.435 58.0109 59.4485C58.0344 59.451 58.0576 59.4554 58.0812 59.4574C58.147 59.4632 58.1303 59.4592 58.204 59.4337L58.181 59.4574L58.2006 59.4589C58.4063 61.252 58.5066 63.0679 58.6499 64.8676C58.6945 65.4284 58.711 66.7632 58.9028 67.2406C59.0247 67.5438 59.4706 67.8641 59.7212 68.0633C59.9743 68.2647 60.2349 68.4588 60.4827 68.6664C60.2174 65.5436 59.3053 62.5026 58.77 59.4222C60.8104 59.0354 64.1842 58.024 65.8091 56.7256C65.9658 60.4188 66.6285 61.65 69.3322 64.1348C72.1834 66.7551 75.118 69.2134 75.2881 73.4389C75.3689 75.4478 74.7629 77.4188 73.8366 79.1836C73.2808 80.2426 72.6921 81.2768 72.3793 82.4422C71.792 81.3341 71.0119 80.3472 70.256 79.3517C68.1863 76.6264 65.8941 74.0184 63.4279 71.6446C62.6728 70.9175 61.8753 70.2353 61.0958 69.5346C60.3861 68.8965 59.7062 68.2263 58.9409 67.6531C57.4285 66.5207 55.8871 65.4455 54.1647 64.6551C52.0795 65.1578 49.6954 66.5207 48.4082 68.2596C49.1676 70.0121 49.8512 71.7941 50.2965 73.6547C50.484 74.4381 50.5753 75.2373 50.75 76.02C50.8384 74.1852 49.7314 69.9491 48.9742 68.1963C49.364 67.8755 49.7476 67.5428 50.1687 67.2633C52.2287 70.5187 54.2904 73.8381 55.9421 77.3233C58.234 82.1597 60.04 88.7874 60.7296 94.0884L32.0312 94.1135C33.5272 88.0972 34.8643 81.9878 37.5473 76.3589C39.0756 73.1524 41.0323 70.1459 42.8669 67.1098C43.2533 67.4492 43.7076 67.7758 44.052 68.1559C43.121 70.0373 42.3839 73.7486 42.2959 75.8563C42.4167 75.5817 42.4192 75.1651 42.4818 74.8646C42.6553 74.0317 42.837 73.2058 43.0705 72.3875C43.2075 71.9077 43.3357 71.4182 43.5083 70.9498C43.8647 69.9825 44.3058 69.0378 44.6343 68.0621C44.2414 67.5963 43.8199 67.1856 43.3366 66.8138C42.3128 66.0264 40.0327 64.7355 38.7906 64.5409C38.3086 64.8845 37.7478 65.1272 37.2363 65.4258C36.0848 66.0978 34.9367 66.8324 33.9031 67.677C34.0339 66.4504 34.0713 65.2194 34.1254 63.9879C34.1535 63.3466 34.154 62.6819 34.2474 62.0478C34.3767 61.1699 34.6619 60.2993 34.9313 59.4557C35.1088 59.4134 35.3674 59.3763 35.4732 59.2075C35.6383 58.9445 35.7566 57.1617 35.8209 56.7167C35.6701 56.7087 35.4904 56.7199 35.3596 56.6399C35.3682 56.6246 35.377 56.6093 35.3853 56.594C35.694 56.0265 35.7852 55.2336 35.9282 54.6026C36.065 53.9979 36.2291 53.3981 36.3481 52.7898C36.7699 50.6336 37.0613 48.451 37.501 46.2969C37.7739 47.0354 37.8525 47.7963 37.9918 48.5664C38.1237 49.2951 38.2878 50.0192 38.4773 50.7351C39.3265 53.9423 40.8144 56.9818 42.4273 59.8679C42.9044 60.7218 43.3978 61.6607 44.0146 62.4235C43.5623 62.3302 43.045 62.2672 42.6255 62.072C41.9018 61.7352 41.0663 60.2521 40.6204 59.5744C39.2097 57.4308 38.1055 55.1056 37.6365 52.5673C37.4854 51.7494 37.443 50.9243 37.3107 50.1071C36.6316 52.2896 37.7418 55.5143 38.7716 57.4748C39.0907 58.0823 39.4727 58.6661 39.8602 59.2319C40.0651 59.5309 40.3115 59.8316 40.4828 60.1497ZM60.5334 62.7329C60.5239 62.9255 60.5822 63.105 60.6606 63.2787C60.8345 63.6634 61.1422 63.9948 61.5421 64.141C61.3653 63.8909 61.1501 63.6654 60.972 63.4119C60.8182 63.1931 60.7115 62.9293 60.5334 62.7329ZM60.5682 64.3739C60.569 64.5521 60.6347 64.7343 60.6972 64.8995C60.8706 65.3571 61.1454 65.9211 61.6096 66.1334C61.5749 66.0832 61.5413 66.032 61.5063 65.9821C61.148 65.4705 60.9253 64.8787 60.5682 64.3739ZM66.9793 66.7555L67.007 66.8078C67.1657 67.295 67.6382 68.0664 68.0082 68.4347L68.0701 68.5263C68.0569 68.4946 68.0284 68.4628 68.0082 68.4347C67.8936 68.0429 67.2919 67.1239 67.007 66.8078L66.9793 66.7555ZM63.0123 67.6648C63.0228 67.8011 63.0491 67.928 63.0896 68.0589C63.2114 68.4526 63.4554 68.8407 63.8239 69.0406C63.7368 68.885 63.6115 68.7423 63.5167 68.5883C63.3327 68.2893 63.1748 67.9758 63.0123 67.6648ZM68.7296 69.6832L68.7592 69.7796L68.8411 69.8888L68.9012 69.9542L68.9414 70.0533L68.9849 70.0697C69.2583 70.6126 69.7675 71.0691 70.1003 71.5872C71.1565 73.2321 71.748 75.3316 71.774 77.28C71.782 77.8834 71.7387 78.5081 71.6636 79.1073C71.6245 79.4193 71.5021 79.8045 71.5322 80.1132L71.5748 80.1044C71.8433 78.9582 71.9875 77.844 71.8996 76.6656C71.7387 74.5095 70.67 71.5174 68.9849 70.0697C68.9783 69.9963 68.9554 69.9996 68.9012 69.9542L68.8411 69.8888C68.8196 69.8473 68.789 69.8153 68.7592 69.7796L68.7296 69.6832ZM69.2787 71.8184L69.3327 71.8677C69.3935 72.0763 69.5092 72.2809 69.5903 72.4838C69.8013 73.0118 69.9403 73.5208 69.9984 74.0873C70.0914 74.9933 69.6871 77.1973 69.9604 77.8551C70.125 76.985 70.1449 75.7777 70.1474 74.8841C70.1499 73.9917 69.9997 72.5379 69.3327 71.8677L69.2787 71.8184ZM64.5313 70.2522C64.5268 70.3178 64.5253 70.3212 64.5273 70.3981C64.542 70.9555 64.7277 71.4705 65.1334 71.8608C64.9997 71.4067 64.7273 70.6807 64.5313 70.2522ZM66.199 72.5894C66.2065 72.6973 66.2261 72.7886 66.2596 72.8919C66.3633 73.2108 66.5014 73.4977 66.8112 73.6569C66.6333 73.2972 66.4252 72.9209 66.199 72.5894ZM72.3211 80.6927C73.0117 79.7939 73.8733 77.6251 74.1905 76.5131C75.4396 72.1346 73.4666 68.8592 70.3332 65.9669C68.8511 64.5989 67.2453 63.3754 66.2469 61.5765C66.0469 61.1608 65.848 60.7463 65.6254 60.3421C65.6634 60.9133 65.6994 61.4822 65.8096 62.0453C66.5202 65.6764 69.0547 68.5548 70.9504 71.6173C72.1677 73.5841 73.1288 76.2709 72.8448 78.6017C72.7563 79.3283 72.4869 79.9879 72.3211 80.6927ZM65.2978 54.8518C65.1224 54.9446 64.9923 55.0225 64.9248 55.2181C64.8741 55.3652 64.8692 55.5379 64.9474 55.6766C65.0038 55.7765 65.1234 55.8601 65.2367 55.884C65.2999 55.8973 65.3719 55.8896 65.4351 55.8826C65.6199 55.7492 65.836 55.5978 65.8684 55.3514C65.8847 55.2271 65.8685 55.1389 65.7883 55.0401C65.6775 54.9038 65.4622 54.8607 65.2978 54.8518ZM63.7093 55.8178C63.5424 55.9531 63.4233 56.0645 63.4045 56.2915C63.3926 56.4351 63.4404 56.559 63.5381 56.6649C63.6416 56.7771 63.7885 56.826 63.938 56.8168C64.0062 56.8126 64.074 56.8043 64.1418 56.7961C64.3105 56.6772 64.4448 56.572 64.4743 56.3533C64.4939 56.2075 64.4443 56.0813 64.3462 55.9731C64.235 55.8504 64.0733 55.7906 63.9108 55.7984C63.8433 55.8017 63.7762 55.8097 63.7093 55.8178ZM62.032 56.5384C61.8075 56.6298 61.6526 56.773 61.5634 57.0033C61.5174 57.122 61.5138 57.2523 61.5681 57.3699C61.6191 57.4804 61.6988 57.5558 61.8153 57.5903C61.9368 57.6263 62.0923 57.6195 62.2185 57.6152C62.3887 57.5604 62.5865 57.4945 62.6692 57.3186C62.725 57.2003 62.7349 57.0887 62.6893 56.9659C62.6299 56.8058 62.4809 56.6586 62.32 56.6005C62.2293 56.5677 62.1274 56.552 62.032 56.5384ZM59.8917 57.2192C59.6964 57.3631 59.5237 57.5173 59.4954 57.7732C59.4813 57.8998 59.5179 58.0213 59.6038 58.117C59.7529 58.2832 59.9701 58.2963 60.1773 58.2825C60.2119 58.2802 60.2464 58.2764 60.2807 58.2715C60.4486 58.1961 60.6309 58.1127 60.6856 57.9186C60.7264 57.7741 60.7098 57.6402 60.6277 57.5152C60.5315 57.3688 60.3574 57.2444 60.1828 57.2174C60.0863 57.2025 59.9882 57.2085 59.8917 57.2192ZM64.8047 57.4245C64.6186 57.9478 64.6301 58.8709 64.5803 59.4434C64.6166 59.5156 64.5921 59.4986 64.6287 59.5187C64.8755 58.9667 64.9805 58.1117 64.8889 57.5165L64.8047 57.4245ZM57.7035 57.5804C57.542 57.6738 57.3874 57.7632 57.3413 57.9585C57.3125 58.0808 57.3465 58.1976 57.4209 58.2955C57.5248 58.4321 57.7017 58.5441 57.8729 58.5677C57.9824 58.5828 58.1039 58.579 58.2136 58.5664C58.3716 58.4665 58.529 58.3698 58.5784 58.1764C58.6085 58.0583 58.5758 57.9518 58.5001 57.8602C58.3592 57.6898 58.1255 57.598 57.9095 57.5846C57.8409 57.5802 57.7722 57.5802 57.7035 57.5804ZM63.5469 60.0106C63.5626 60.3012 63.6161 60.7023 63.8509 60.9065C63.8732 60.9259 63.8963 60.9443 63.9203 60.9614C63.8338 60.6552 63.733 60.269 63.5469 60.0106ZM65.0407 60.2944C64.899 60.8409 64.7767 61.2754 65.0622 61.8043C65.1748 61.6417 65.0798 60.5152 65.0407 60.2944ZM59.5659 60.6114C59.6934 61.1211 59.8852 61.5752 60.3561 61.8573C60.415 61.8926 60.4058 61.8849 60.4804 61.9142C60.2741 61.6245 59.7838 60.7689 59.5659 60.6114ZM61.4046 61.1914C61.4695 61.5427 61.6666 61.933 61.9819 62.1279C62.0405 62.1641 62.0467 62.1635 62.1028 62.1825C61.9128 61.9065 61.6647 61.375 61.4046 61.1914ZM63.0874 61.736C63.1334 62.1012 63.2571 62.4374 63.5541 62.6724C63.6183 62.7234 63.6784 62.7451 63.7555 62.7695C63.5491 62.4754 63.3603 62.1977 63.1969 61.8771C63.1621 61.8088 63.1469 61.7807 63.0874 61.736ZM64.3541 62.606C64.3298 62.9396 64.4101 63.2478 64.629 63.5061C64.7009 63.5909 64.7654 63.6356 64.8635 63.6851C64.7357 63.4335 64.5238 62.7423 64.3541 62.606ZM46.4364 63.4311C45.646 63.8771 44.4233 65.1722 43.9882 65.9656C44.2006 66.8942 45.8362 69.7414 46.5442 70.3268L46.6173 70.3124C47.4519 69.3386 48.7341 67.2848 49.1128 66.0889C48.791 65.3463 47.4187 63.8313 46.6972 63.5139C46.6145 63.4775 46.5244 63.4514 46.4364 63.4311ZM63.1854 63.7385C63.2233 64.14 63.4159 64.5995 63.7401 64.856C63.8028 64.9056 63.8604 64.9328 63.9347 64.9617C63.6649 64.6008 63.5009 64.0372 63.1854 63.7385ZM64.6677 65.2009C64.684 65.6729 64.8139 66.193 65.1808 66.5198C65.3233 66.6468 65.4731 66.739 65.6608 66.7749C65.3442 66.4343 65.1116 66.1151 64.9021 65.699C64.8233 65.5424 64.7739 65.3363 64.6677 65.2009ZM63.1224 65.6958C63.1253 65.9325 63.1428 66.1457 63.1843 66.3794C63.3379 66.5551 63.4841 66.7506 63.7138 66.8276C63.5751 66.6008 63.2518 65.7976 63.1224 65.6958ZM61.162 66.8745C61.2526 67.295 61.4302 67.8167 61.8271 68.0417C61.8752 68.069 61.9271 68.0855 61.9805 68.0977C61.732 67.7982 61.4219 67.0554 61.162 66.8745ZM64.5652 67.2414C64.6368 67.6058 64.7682 68.0574 65.1106 68.2618C65.1738 68.2995 65.1809 68.2991 65.2417 68.3201C65.0622 68.0281 64.8246 67.4314 64.5652 67.2414ZM66.2724 68.4583C66.3379 68.821 66.4025 69.2164 66.7335 69.4373C66.8257 69.4989 66.9307 69.5257 67.0373 69.5513C66.7657 69.269 66.5003 68.6254 66.2724 68.4583ZM62.9634 68.9652C63.0395 69.2486 63.129 69.4845 63.3969 69.6357C63.4602 69.6715 63.5248 69.6982 63.593 69.7227C63.409 69.5195 63.1763 69.0934 62.9634 68.9652ZM64.7489 68.9678C64.8084 69.2986 64.8807 69.6273 65.183 69.8213C65.2528 69.8661 65.3288 69.8881 65.4073 69.9124C65.1964 69.6601 64.9648 69.1373 64.7489 68.9678ZM66.2001 70.3736C66.2448 70.8125 66.3334 71.2274 66.6883 71.5267C66.7302 71.562 66.774 71.5945 66.8182 71.6268C66.6769 71.2892 66.4673 70.6079 66.2001 70.3736ZM46.4821 72.2859L45.4657 75.6573C45.2774 76.2798 44.9102 77.065 44.9025 77.7103C45.0626 77.9085 45.3083 78.0088 45.4618 78.2125C46.0187 78.9519 46.1611 79.9415 46.5555 80.7582C46.9301 80.3746 47.1764 78.0617 47.9451 77.8331C47.9801 77.8227 48.0146 77.8103 48.0495 77.7991C48.0459 77.3691 46.6979 72.7266 46.4821 72.2859ZM67.4199 72.6932C67.5022 72.9284 67.576 73.1571 67.6137 73.404C67.6844 73.8648 67.7262 75.7548 67.9751 75.9475C67.9798 75.2003 68.0103 73.244 67.4533 72.7191C67.443 72.7094 67.431 72.7018 67.4199 72.6932ZM68.0831 73.2383C68.0822 73.8196 67.9765 76.0061 68.3359 76.4074C68.3472 76.4201 68.3619 76.4292 68.3749 76.4401C68.3404 75.4592 68.3772 74.2268 68.1268 73.2782L68.0831 73.2383ZM67.3339 73.4582C67.3978 74.0032 67.4003 75.1081 67.6575 75.5348C67.6524 75.0753 67.6321 73.8122 67.3339 73.4582ZM43.9293 77.6111C43.6246 77.6997 43.3822 77.8578 43.2348 78.1499C43.1645 78.2894 43.1417 78.4444 43.1956 78.5936C43.2358 78.7048 43.3075 78.7889 43.3916 78.8704C43.6848 79.1545 44.0413 79.3819 44.36 79.637C44.7546 79.9528 45.121 80.31 45.4869 80.6585C45.5956 80.7643 45.6607 80.8625 45.8101 80.8975C45.851 80.8635 45.8884 80.8526 45.8924 80.7951C45.9124 80.5073 45.3963 79.4364 45.2751 79.0751C45.1755 78.778 45.1223 78.4386 44.9986 78.1546C44.9559 78.0567 44.8818 77.9577 44.8042 77.8847C44.5583 77.6531 44.2528 77.6136 43.9293 77.6111ZM48.5935 77.6631C48.3894 77.7582 48.2124 77.8553 48.0285 77.9873C47.8516 78.8208 47.6451 79.62 47.3662 80.4258C47.3181 80.5646 47.2162 80.7441 47.2586 80.8881L47.334 80.9264C47.555 80.8292 47.74 80.5762 47.9042 80.4005C48.3574 79.932 49.2319 79.3022 49.553 78.8995C49.6773 78.7437 49.772 78.5561 49.7648 78.3523C49.7576 78.148 49.6448 77.9738 49.4913 77.8452C49.2641 77.6548 48.9505 77.6173 48.6648 77.653C48.641 77.656 48.6173 77.6598 48.5935 77.6631ZM42.0342 78.7088C41.7353 78.782 41.4815 78.858 41.3085 79.1294C41.1828 79.3269 41.0958 79.5606 41.1561 79.7952C41.224 80.0601 41.4541 80.264 41.6864 80.3893C42.4039 80.7762 43.7836 80.8202 44.7395 81.2887C44.8801 81.3594 45.0614 81.4821 45.2208 81.4809C45.2313 81.3758 45.1938 81.3265 45.126 81.2488C44.7995 80.8745 44.37 80.6022 44.0372 80.2284C43.6761 79.8231 43.3504 79.1953 42.9106 78.8918C42.6926 78.7413 42.3691 78.7179 42.1096 78.7092C42.0844 78.7083 42.0593 78.7089 42.0342 78.7088ZM50.5095 78.7045C50.3557 78.764 50.1825 78.8214 50.0563 78.9306C49.6352 79.2949 49.3258 79.8347 48.958 80.2559C48.5743 80.6953 48.0892 81.091 47.762 81.5711C48.1544 81.3972 48.5325 81.1708 48.9402 81.0371C49.6524 80.7894 51.4849 80.5083 51.811 79.8584C51.8873 79.7065 51.8902 79.5434 51.8303 79.3864C51.7343 79.1345 51.5058 78.8872 51.2575 78.7809C51.015 78.6772 50.7669 78.6789 50.5095 78.7045ZM51.4058 80.6084C50.9421 80.8252 48.2859 81.8711 48.1398 82.0814L48.1653 82.1741C48.5238 82.2838 48.9419 82.2511 49.3155 82.2751C49.9639 82.3166 51.0604 82.4393 51.5854 82.8321L51.5106 82.9526L51.5915 82.9297L51.6007 82.847L51.5832 82.8348L51.5127 82.9563C51.3158 82.9905 51.1206 83.0183 50.9202 83.0128C50.468 83.0005 48.3485 82.6978 48.1079 82.8507C48.1977 83.074 49.6723 83.6401 49.9606 83.7625L50.0754 83.8108C50.5517 84.0097 51.0335 84.2015 51.539 84.3127C51.7152 84.14 51.9134 83.867 52.1144 83.7415C52.5443 83.4733 53.1212 83.335 53.6043 83.186C54.5889 82.8824 55.6044 82.6266 56.5615 82.245C54.8595 81.6337 53.1183 81.182 51.4058 80.6084ZM41.505 80.7001L36.6407 82.2634C37.7414 82.6595 40.9411 83.6601 41.7675 84.3302C42.2899 84.1537 42.7952 83.913 43.3011 83.6941C43.5805 83.573 44.934 83.0528 45.0439 82.8808C44.5898 82.5624 41.8731 83.4335 41.7063 82.859C41.7755 82.7248 41.8962 82.6779 42.0321 82.6316C42.6753 82.4123 43.4353 82.3172 44.1094 82.2245C44.35 82.1913 44.6191 82.1926 44.8518 82.1291C44.9448 82.1038 44.9681 82.0841 45.0271 82.0135C44.9563 81.9366 41.8003 80.6925 41.6378 80.6841C41.5691 80.6805 41.5625 80.6858 41.505 80.7001ZM46.28 81.2483C45.9321 81.4055 45.656 81.5679 45.5144 81.9462C45.4057 82.2367 45.4392 82.5711 45.5797 82.845C45.7226 83.1231 45.9729 83.3274 46.274 83.4121C46.4723 83.468 46.6605 83.4557 46.8606 83.4209C47.1882 83.2946 47.4392 83.1099 47.5812 82.7773C47.7036 82.4909 47.7101 82.1537 47.5833 81.8676C47.4663 81.6035 47.2406 81.4073 46.9716 81.308C46.7343 81.2205 46.5282 81.2188 46.28 81.2483ZM45.1464 83.3666C43.9891 84.0456 42.9699 84.1868 41.695 84.5071C41.4717 84.7978 39.9915 86.7129 39.9507 86.8959L40.0644 86.8758C40.8216 86.582 42.4329 86.1032 43.0541 85.7112C43.5675 85.387 43.951 84.7893 44.375 84.3584C44.6614 84.0673 44.9902 83.8216 45.2692 83.5207L45.2952 83.422C45.226 83.3703 45.2399 83.3641 45.1464 83.3666ZM47.8592 83.3591C48.1358 83.7662 48.5777 84.0451 48.9092 84.4063C49.2214 84.7464 49.4133 85.194 49.7278 85.5257C50.1366 85.9569 52.5184 86.7459 53.184 86.9713C52.7688 86.4049 51.7027 84.8126 51.1232 84.5518C50.5338 84.2866 49.8683 84.1735 49.26 83.9521C48.8206 83.7921 48.3623 83.4634 47.9149 83.3672C47.8966 83.3632 47.8778 83.3618 47.8592 83.3591ZM47.4061 83.6738C47.3422 83.7445 47.2434 83.8124 47.2463 83.9097C47.2496 84.0251 47.8035 86.0386 47.8856 86.2505C47.9513 86.4204 48.0424 86.5831 48.1756 86.7095C48.3605 86.8848 48.5943 86.9556 48.8463 86.9392C49.1029 86.9226 49.3513 86.8697 49.5823 86.7556C49.7407 86.5989 49.9118 86.4234 49.9075 86.1831C49.9024 85.8945 49.5598 85.6284 49.353 85.4578C48.678 84.9004 47.9463 84.3721 47.4061 83.6738ZM45.7823 83.7761C45.54 84.065 45.3048 84.3134 45.0067 84.5445C44.5116 84.9284 43.1299 85.6053 43.2005 86.3208C43.2212 86.5303 43.4054 86.71 43.5545 86.8398C43.8635 86.9865 44.2154 87.0799 44.552 86.9661C44.9024 86.8477 45.1147 86.5386 45.2602 86.2154C45.3812 85.9466 45.91 84.228 45.9569 83.9076C45.8999 83.853 45.8522 83.813 45.7823 83.7761ZM46.5695 83.943C46.5636 83.9564 46.5575 83.9697 46.5517 83.9832C46.4018 84.3341 46.3215 84.7198 46.2125 85.0852C45.9828 85.8558 45.5192 86.5143 44.8703 86.9891C45.1565 88.0698 45.5221 89.1266 45.8375 90.1988C45.9684 90.644 46.3343 92.2244 46.5181 92.5128C46.9671 90.6572 47.5727 88.7873 48.1868 86.9789C47.8379 86.6771 47.5712 86.3854 47.3505 85.9768C47.1131 85.5372 46.9651 85.051 46.8251 84.5737C46.7787 84.4158 46.7439 84.1808 46.6693 84.0381C46.6455 83.9926 46.6121 83.9671 46.5695 83.943Z" fill="#EBEBEB"/>
<path d="M46.5505 50.5194C46.0453 49.9975 45.5138 49.4446 45.4443 48.6812C45.3658 47.8176 45.9823 47.1666 46.4905 46.5508C46.5001 46.5599 46.5103 46.5684 46.5194 46.578C47.3774 47.4939 47.521 47.8989 47.5231 49.1352C47.2802 49.6203 46.8727 50.0816 46.5505 50.5194ZM46.4521 47.485C46.2047 47.8353 46.0846 48.1529 45.983 48.5647C46.0562 48.8551 46.1966 49.3613 46.4615 49.5235C46.4734 49.5308 46.4868 49.5349 46.4995 49.5406C46.727 49.2125 46.9157 48.9354 47.007 48.5394C46.912 48.1092 46.8057 47.7763 46.4521 47.485Z" fill="#EBEBEB"/>
<path d="M70.5845 47.5697C70.5699 47.5682 70.5553 47.5673 70.5409 47.5652C70.3711 47.5404 70.2084 47.4984 70.1076 47.3463C70.0364 47.2388 70.01 47.1179 70.0388 46.9903C70.0879 46.7725 70.2363 46.6512 70.4194 46.543C70.4606 46.5505 70.5019 46.5575 70.5425 46.5672C70.6967 46.6044 70.8154 46.6822 70.8953 46.8222C70.9689 46.9512 70.9831 47.0878 70.9331 47.2289C70.8675 47.4142 70.7511 47.4872 70.5845 47.5697Z" fill="#EBEBEB"/>
<path d="M40.705 47.9578L40.6473 47.9557L40.6133 47.9161L40.7017 47.7031C40.779 47.7526 40.7422 47.7195 40.8046 47.8107L40.705 47.9578Z" fill="#EBEBEB"/>
<path d="M41.2585 48.8782L41.168 48.8256L41.173 48.7814L41.4154 48.6797L41.504 48.7018C41.4753 48.7947 41.3436 48.8324 41.2585 48.8782Z" fill="#EBEBEB"/>
<path d="M23.9014 51.0155C23.7768 51.0346 23.6461 51.037 23.5355 50.9664C23.4297 50.899 23.3911 50.809 23.3779 50.6883C23.3567 50.4959 23.4561 50.363 23.5699 50.2233C23.7011 50.2206 23.8489 50.2228 23.9578 50.3065C24.0506 50.3778 24.11 50.4539 24.1173 50.5748C24.1289 50.7671 24.0233 50.8854 23.9014 51.0155Z" fill="#EBEBEB"/>
<path d="M67.9847 52.9192C67.9271 52.9192 67.8812 52.9208 67.8226 52.913C67.6353 52.8883 67.4785 52.7901 67.379 52.6286C67.292 52.4875 67.2809 52.3161 67.3293 52.1595C67.4006 51.9288 67.5566 51.8285 67.7614 51.7227C67.8232 51.7244 67.8825 51.7294 67.943 51.7425C68.1231 51.7817 68.2754 51.8642 68.3729 52.026C68.4503 52.1547 68.4636 52.304 68.4268 52.4474C68.3648 52.6884 68.1923 52.8076 67.9847 52.9192Z" fill="#EBEBEB"/>
<path d="M25.294 52.9585C25.2227 52.9654 25.1526 52.9667 25.0814 52.959C24.9169 52.9411 24.7275 52.8473 24.6335 52.7062C24.542 52.5691 24.5114 52.4251 24.5541 52.2649C24.6092 52.0584 24.7537 51.9696 24.9278 51.8656C25.043 51.8495 25.1498 51.8381 25.2653 51.8591C25.4087 51.8853 25.5519 51.9689 25.6334 52.0916C25.7126 52.2106 25.7322 52.3528 25.6975 52.4911C25.6407 52.7168 25.4803 52.8383 25.294 52.9585Z" fill="#EBEBEB"/>
<path d="M26.784 54.6738C26.7876 54.4994 26.839 54.3257 26.878 54.1562C27.3786 54.3839 27.8491 54.6868 28.3487 54.9224C29.6219 55.5228 31.0173 56.0333 32.3671 56.4312C33.393 56.7336 34.4503 56.8673 35.4771 57.1513C35.4713 57.7314 35.4257 58.2544 35.3004 58.8214C35.1166 58.8827 34.9266 58.9073 34.7359 58.9381C32.8627 58.9754 29.6161 57.7104 27.8776 56.918C27.3891 56.6953 26.7706 56.4595 26.3827 56.0804C26.2491 55.9497 26.1624 55.7923 26.1682 55.601C26.1798 55.22 26.5292 54.918 26.784 54.6738ZM26.934 54.9032C26.7294 55.0682 26.5665 55.2237 26.539 55.4985C26.5236 55.6514 26.5622 55.8028 26.6605 55.9226C26.7891 56.0795 26.9804 56.155 27.1798 56.1661C27.2567 56.1704 27.3349 56.1646 27.4117 56.1591C27.6063 56.0418 27.7501 55.9364 27.8071 55.7056C27.8487 55.5375 27.8071 55.3652 27.7078 55.2248C27.5999 55.072 27.3927 54.9269 27.2031 54.9058C27.1147 54.8959 27.0228 54.9003 26.934 54.9032ZM28.5972 55.7223C28.4085 55.8756 28.2708 56.0123 28.2509 56.2669C28.2366 56.4497 28.2883 56.62 28.4091 56.7586C28.5219 56.888 28.7061 56.9975 28.8816 57.0008C28.9654 57.0024 29.0508 56.9911 29.1339 56.981C29.3243 56.8254 29.4741 56.6748 29.5005 56.4182C29.5186 56.2418 29.4632 56.0778 29.3436 55.9471C29.2241 55.8165 29.0407 55.7181 28.8618 55.7116C28.7739 55.7085 28.6849 55.7157 28.5972 55.7223ZM30.5066 56.453C30.3301 56.5779 30.1825 56.6985 30.148 56.9245C30.1253 57.0728 30.1622 57.2282 30.2525 57.3482C30.3728 57.5078 30.5625 57.6205 30.7613 57.645C30.8547 57.6565 30.9513 57.6442 31.0442 57.6337C31.2193 57.5255 31.3636 57.3971 31.4213 57.1916C31.4598 57.055 31.4442 56.9078 31.3726 56.7843C31.2729 56.6124 31.0899 56.4764 30.8934 56.4398C30.769 56.4166 30.6312 56.4384 30.5066 56.453ZM32.5849 56.9939C32.3681 57.074 32.1641 57.1461 32.0571 57.3672C31.9934 57.499 31.9864 57.6484 32.0422 57.7847C32.1209 57.9767 32.3206 58.1199 32.5154 58.1764C32.5727 58.193 32.631 58.202 32.6897 58.2117C32.9062 58.1227 33.0675 58.0333 33.1646 57.8097C33.2352 57.6469 33.2418 57.4564 33.1557 57.2974C33.0751 57.1489 32.9298 57.0529 32.7676 57.0148C32.7078 57.0007 32.6458 56.9981 32.5849 56.9939ZM34.1455 57.4465C33.9657 57.5601 33.8372 57.6617 33.7922 57.8794C33.7628 58.022 33.7918 58.1656 33.8769 58.2834C33.9698 58.4121 34.1162 58.4954 34.273 58.514C34.3523 58.5235 34.4294 58.5227 34.5092 58.5193C34.6906 58.4125 34.8234 58.2899 34.8758 58.0781C34.911 57.9358 34.887 57.7909 34.8021 57.6707C34.7181 57.5517 34.5871 57.4638 34.4415 57.4459C34.3437 57.434 34.2434 57.4389 34.1455 57.4465Z" fill="#EBEBEB"/>
<path d="M65.3722 55.4307L65.3164 55.4456L65.3483 55.3904L65.4198 55.3672L65.3722 55.4307Z" fill="#EBEBEB"/>
<path d="M27.1985 55.771L27.0869 55.7278C26.994 55.6147 26.9995 55.5676 26.9805 55.4258C27.0804 55.4363 27.1331 55.4547 27.2188 55.5071C27.2521 55.6224 27.2326 55.6537 27.1985 55.771Z" fill="#EBEBEB"/>
<path d="M64.0122 56.3058L63.9258 56.3L63.9588 56.2336L64.0473 56.2188L64.0122 56.3058Z" fill="#EBEBEB"/>
<path d="M28.895 56.5562C28.8287 56.5287 28.7719 56.4927 28.7106 56.4557C28.6864 56.3285 28.7235 56.3048 28.7864 56.1953C28.8365 56.2177 28.8869 56.2551 28.9338 56.2843C28.9662 56.4138 28.9467 56.4305 28.895 56.5562Z" fill="#EBEBEB"/>
<path d="M27.4239 59.514C26.6198 62.4188 24.6535 64.6085 22.4946 66.6006C21.3176 67.6866 20.1748 68.7421 19.3909 70.1646C18.1395 72.4355 18.0813 74.7382 18.8076 77.1999C19.1111 78.2286 20.155 80.7192 21.1024 81.2394L20.6386 81.9605C18.781 79.3773 17.4214 76.8762 17.5974 73.5831C17.8076 69.6493 20.1466 67.7019 22.858 65.2654C24.8757 63.4524 26.8094 60.6439 26.9592 57.8591C26.6104 57.5175 26.4417 57.2619 26.3409 56.7812C27.1685 57.2345 28.0297 57.6356 28.892 58.018C30.633 58.7913 32.642 59.3241 34.5401 59.501C34.1773 60.8979 33.5762 62.2475 33.1071 63.6126C32.9458 64.0818 32.7138 64.6174 32.6819 65.1157C32.6485 65.6391 32.8302 66.2306 32.9007 66.7518C32.9752 67.3028 32.9791 67.8429 32.9743 68.3972C31.6286 69.6131 30.2547 70.7893 28.9521 72.0531C27.1893 73.7634 25.5753 75.6155 24.0091 77.5041C23.0063 78.7132 21.9864 79.939 21.1024 81.2394C21.0403 80.9819 20.8525 80.7149 20.7291 80.4806C20.4132 79.8809 20.1487 79.2278 20.061 78.551C19.5984 74.9757 21.9495 71.8365 23.8166 69.0434C24.4013 68.1686 24.9414 67.2645 25.4937 66.3691C25.8509 65.7903 26.2982 65.1978 26.5784 64.5808C27.0201 63.6084 27.0598 62.4558 27.2757 61.4157C27.4677 60.4913 27.7278 59.5886 27.9541 58.6733C27.9111 58.5464 27.8736 58.5386 27.7665 58.4637L27.6933 58.5029C27.551 58.8025 27.5177 59.1903 27.4239 59.514ZM31.6566 60.2864C31.4644 60.6586 31.3556 61.1273 31.2871 61.54C31.4971 61.2611 31.6632 60.6361 31.6566 60.2864ZM27.227 64.415C27.4617 64.2413 27.7661 63.8868 27.914 63.6362C27.6249 63.7888 27.3378 64.1114 27.227 64.415ZM31.6622 65.9933C31.5891 66.1315 31.558 66.2178 31.5529 66.3747C31.6311 66.2395 31.6503 66.1484 31.6622 65.9933ZM24.2575 72.2306C23.8218 72.7257 23.836 73.4585 23.1276 73.6689C23.1246 73.6698 23.1217 73.6711 23.1187 73.6722L23.5043 74.3484C23.6099 74.3357 23.6365 74.3425 23.7074 74.2553C23.8148 74.1232 23.8734 73.7951 23.982 73.7038C24.0514 73.6456 24.1413 73.6768 24.141 73.5716C24.0381 73.5357 23.9311 73.5296 23.8799 73.4302C23.9678 73.0209 24.2165 72.6485 24.2575 72.2306ZM24.2439 74.5805C24.2704 74.8102 24.29 74.9075 24.477 75.0582C24.4152 74.8856 24.3661 74.7217 24.2439 74.5805ZM21.6255 76.6798C21.3724 76.9896 21.2252 77.3176 21.1379 77.7047C20.9978 78.3262 21.0047 79.2808 21.352 79.8322C21.2522 79.0841 21.1568 78.2649 21.3806 77.5301C21.4643 77.255 21.6406 76.9463 21.6858 76.6716L21.6255 76.6798ZM28.6665 58.9964C28.4867 60.0454 27.8547 62.6892 28.3113 63.5811C28.3318 63.1201 28.36 62.6615 28.415 62.2031C28.4738 61.7122 28.93 59.359 28.8045 59.0615L28.6665 58.9964ZM29.7528 59.521C29.4883 60.4879 29.2933 61.5721 29.181 62.5695L29.2229 62.6365C29.4299 62.0944 29.8517 60.1292 29.8125 59.5876L29.7528 59.521ZM30.5648 60.3865C30.4249 60.8504 29.7222 63.2951 29.817 63.5946C29.991 63.0821 30.6847 60.8285 30.5648 60.3865ZM32.0829 63.5271C31.8716 63.8581 31.6022 64.1793 31.4122 64.518L31.4561 64.5527C31.708 64.3431 32.0726 63.9815 32.1179 63.6434C32.1282 63.5659 32.1307 63.5959 32.0829 63.5271ZM28.626 64.0263C28.1189 64.5266 27.7036 64.9653 27.6952 65.7235C27.6946 65.7824 27.6965 65.8411 27.6989 65.9C27.7528 65.9535 27.7256 65.9456 27.7662 65.9521C27.822 65.3819 27.9579 64.8896 28.3542 64.4538C28.4638 64.3332 28.6093 64.2164 28.6676 64.0619L28.626 64.0263ZM30.2047 65.2898C30.1171 65.8328 30.0222 66.5061 30.1453 67.0465C30.2446 66.5676 30.3561 65.7551 30.2047 65.2898ZM28.9731 65.4679C28.9391 65.6607 28.8823 65.8329 28.9841 66.0137C29.0046 65.8278 29.0462 65.6456 28.9731 65.4679ZM31.9132 65.7426C31.8234 66.0427 32.0459 67.4819 32.0558 67.9595L32.0883 67.9828C32.2188 67.4099 32.2715 66.3678 31.9921 65.8369C31.9662 65.7878 31.9537 65.7822 31.9132 65.7426ZM27.0539 66.5362C26.668 66.7734 26.1953 67.1552 26.0737 67.6148C26.0476 67.7136 26.0549 67.7889 26.0722 67.8882L26.1428 67.9626C26.3261 67.4069 26.5875 67.0719 26.9965 66.6626C27.0546 66.6045 27.0907 66.6125 27.0539 66.5362ZM28.3628 66.844C27.7919 67.283 27.1309 68.1684 27.0498 68.8991C27.036 69.0224 27.0459 69.0908 27.1115 69.1975C27.6269 68.4477 27.7592 67.6939 28.4026 66.9158L28.3628 66.844ZM28.9417 68.2831C28.8282 68.8205 28.7525 69.3599 28.8661 69.9041C28.8918 69.5959 29.0542 68.5097 28.9417 68.2831ZM25.9173 68.7078C25.3677 69.2338 24.8026 70.2965 24.7679 71.0693C24.7633 71.1705 24.7456 71.235 24.8135 71.312C25.0418 70.4404 25.3673 69.6462 25.8691 68.8956C25.9229 68.8152 25.9615 68.8153 25.9238 68.7143C25.9228 68.7115 25.9195 68.7099 25.9173 68.7078ZM30.438 68.8319C30.3662 69.0696 30.1609 69.5375 30.232 69.7721C30.3788 69.4845 30.5423 69.161 30.438 68.8319ZM26.9112 69.7511C26.3506 70.3142 25.875 71.5434 25.9006 72.3378C25.9032 72.4151 25.9266 72.4809 25.953 72.5527C25.9609 72.5288 25.9692 72.505 25.9767 72.4809C26.0039 72.3938 26.0124 72.3125 26.0234 72.2225C26.0767 71.7862 26.2249 71.2167 26.4042 70.8168C26.5189 70.5609 26.9253 70.0116 26.9112 69.7511ZM23.6474 70.8855C23.3064 71.3011 22.3402 72.614 22.3632 73.1253C22.6157 72.7149 23.6167 71.2586 23.6474 70.8855ZM25.4782 73.0727C25.2908 73.1781 25.155 73.266 25.0997 73.4876C25.064 73.6309 25.0836 73.7807 25.161 73.9071C25.2429 74.0407 25.3758 74.1495 25.53 74.1847C25.6 74.2007 25.6714 74.2078 25.7427 74.2144C25.9309 74.1269 26.0381 74.0547 26.1139 73.8556C26.1709 73.7053 26.1763 73.5471 26.1102 73.3987C26.051 73.2658 25.9378 73.1436 25.7968 73.0977C25.697 73.0652 25.5816 73.0687 25.4782 73.0727ZM22.1207 73.8757C21.7932 74.4121 21.4792 75.1003 21.5791 75.7481C21.5875 75.802 21.5948 75.8142 21.6132 75.8586C21.7043 75.4778 22.1839 74.1336 22.1207 73.8757ZM23.2291 75.0122C23.0063 75.3487 22.5723 76.2996 22.6645 76.7087C22.6783 76.77 22.6807 76.7689 22.7042 76.8231C22.9114 76.4146 23.2908 75.4591 23.2291 75.0122Z" fill="#EBEBEB"/>
<path d="M30.8302 57.2633L30.7032 57.1627C30.6543 57.0442 30.667 57.0445 30.7113 56.9219L30.8679 57.0063C30.9037 57.1241 30.8763 57.147 30.8302 57.2633Z" fill="#EBEBEB"/>
<path d="M62.2044 57.3015C62.1434 57.2699 62.0844 57.2281 62.0266 57.1915C61.9832 57.0607 62.0061 57.051 62.0607 56.9219C62.1167 56.9459 62.1723 56.9825 62.2255 57.0128C62.2722 57.1469 62.2479 57.1705 62.2044 57.3015Z" fill="#EBEBEB"/>
<path d="M32.7298 57.7408C32.6279 57.7164 32.606 57.7235 32.5273 57.6482L32.5295 57.4609C32.5592 57.4683 32.6121 57.4796 32.638 57.494C32.7406 57.5513 32.7199 57.6373 32.7298 57.7408Z" fill="#EBEBEB"/>
<path d="M60.0992 57.8834C60.0322 57.8671 59.9895 57.8458 59.9293 57.8137C59.8978 57.7032 59.9196 57.6738 59.9552 57.5625C60.07 57.6118 60.0947 57.6099 60.156 57.7161L60.0992 57.8834Z" fill="#EBEBEB"/>
<path d="M34.3646 58.1738L34.2657 58.0373C34.2632 57.9061 34.3003 57.8893 34.3795 57.7891C34.4369 57.8406 34.4525 57.8792 34.4853 57.9476C34.4644 58.0647 34.4435 58.0825 34.3646 58.1738Z" fill="#EBEBEB"/>
<path d="M57.9587 58.2272L57.7924 58.1712C57.703 58.0714 57.7172 58.0584 57.7148 57.9219C57.7863 57.9352 57.831 57.9416 57.8899 57.9878C57.9519 58.0364 57.9466 58.1511 57.9587 58.2272Z" fill="#EBEBEB"/>
<path d="M52.6289 60.078C52.6661 59.9795 52.6592 59.9978 52.7371 59.9453C52.7019 60.0336 52.72 60.0214 52.6289 60.078Z" fill="#EBEBEB"/>
<path d="M40.5156 60.1836C40.5535 60.2308 40.5921 60.2753 40.623 60.3275C40.5817 60.2831 40.55 60.2333 40.5156 60.1836Z" fill="#EBEBEB"/>
<path d="M45.1172 65.6845C45.4841 65.1699 46.0006 64.6988 46.4794 64.2891C46.9195 64.4074 47.6258 65.2994 47.9468 65.6564C47.5061 65.5781 47.0656 65.5404 46.6185 65.5284C46.1021 65.5227 45.6241 65.5875 45.1172 65.6845Z" fill="#EBEBEB"/>
<path d="M21.7144 65.4474C21.6548 65.4512 21.5859 65.4592 21.5257 65.4536C21.408 65.4427 21.3217 65.4005 21.248 65.3054C21.1596 65.1914 21.1386 65.0522 21.1699 64.9148C21.2209 64.6898 21.3315 64.5938 21.5216 64.4766C21.7052 64.5013 21.8781 64.5275 21.9931 64.6916C22.0615 64.7893 22.068 64.8897 22.0495 65.0038C22.0166 65.2056 21.8653 65.3285 21.7144 65.4474Z" fill="#EBEBEB"/>
<path d="M71.5869 65.3289C71.4548 65.3183 71.3016 65.2923 71.1973 65.2023C71.1115 65.1282 71.0429 65.038 71.043 64.919C71.043 64.7383 71.1636 64.6354 71.291 64.5318C71.4429 64.5296 71.5814 64.5285 71.7062 64.6324C71.7904 64.7027 71.8504 64.8118 71.8458 64.9235C71.8384 65.106 71.7216 65.2241 71.5869 65.3289Z" fill="#EBEBEB"/>
<path d="M71.0481 94.1294C68.9297 88.1866 66.416 82.4313 62.9259 77.1517C61.4286 74.8869 59.757 72.7431 58.0288 70.6516C57.0724 69.4942 56.0519 68.4088 54.9659 67.3729C54.4837 66.9129 53.5049 66.1525 53.1445 65.6719L53.1888 65.5117C53.2162 65.5192 53.2438 65.5261 53.271 65.5342C54.0762 65.7722 55.7693 67.1877 56.505 67.7654C59.098 69.8014 61.5626 72.1262 63.7308 74.6105C64.4738 75.4618 65.1562 76.3648 65.8445 77.2603C68.0895 80.1815 70.1334 83.2517 72.0355 86.4057C73.0739 88.1272 74.0995 89.8449 75.0231 91.6325C74.7365 92.2261 74.4226 92.6516 73.9423 93.1029C73.0579 93.8159 72.1576 94.0426 71.0481 94.1294Z" fill="#EBEBEB"/>
<path d="M17.9336 91.7017C18.1601 91.2083 18.4521 90.7361 18.708 90.256C19.3168 89.1143 19.9333 87.9816 20.5781 86.8596C25.2093 78.801 31.4131 70.411 39.5242 65.6146C39.5385 65.6128 39.5527 65.6091 39.5671 65.6094C39.6706 65.6117 39.7829 65.6578 39.8613 65.7218C39.7099 65.9546 39.1371 66.2811 38.8918 66.4838C37.2401 67.8482 35.6865 69.5057 34.2942 71.1294C31.3686 74.5415 29.0717 78.4033 26.9834 82.3661C25.5907 85.009 24.2751 87.7368 23.2322 90.5379C22.7957 91.7103 22.4295 92.9054 22.0863 94.1081C21.0386 94.0846 20.1635 93.8452 19.2987 93.2456C18.7248 92.8218 18.3096 92.302 17.9336 91.7017Z" fill="#EBEBEB"/>
<path d="M46.5652 69.4201L45.5683 67.6836C45.3074 67.2393 44.9919 66.7745 44.798 66.2964C44.7457 66.1672 44.7361 66.1582 44.7901 66.0313C45.0259 65.8338 45.2943 65.8184 45.5875 65.7776C46.4435 65.7005 47.674 65.6666 48.4378 66.0968C47.9465 66.9756 47.4967 67.8768 46.9752 68.7387L46.5652 69.4201ZM46.1304 66.051C46.0991 66.2106 46.1186 66.2673 45.9747 66.3607C45.9107 66.4023 45.8393 66.4366 45.7719 66.4725C45.7621 66.5924 45.7473 66.6974 45.7706 66.8166L45.8298 66.8596C45.8461 66.8406 45.862 66.8213 45.8788 66.8027C45.9298 66.7461 45.9623 66.7181 46.027 66.6822C46.1621 66.7396 46.3329 66.896 46.3905 67.0338C46.4386 67.1486 46.4026 67.2818 46.3384 67.3819C46.2249 67.5591 46.0158 67.7319 45.8707 67.8914C46.0689 67.7909 46.2643 67.6979 46.4414 67.562L46.582 68.1865C46.6956 67.992 46.8823 67.7488 46.9528 67.541C46.8338 67.4464 46.7293 67.3539 46.7171 67.1913C46.708 67.0695 46.7371 67.007 46.8241 66.9239C46.9129 66.8392 47.0034 66.79 47.1268 66.7845C47.2098 66.8426 47.2839 66.897 47.3769 66.9385C47.3916 66.7623 47.3022 66.5879 47.3669 66.4218C47.3165 66.3107 47.2711 66.2752 47.1705 66.2082L47.06 66.1962C47.0017 66.2885 47.0514 66.3973 47.0722 66.5019C46.9467 66.7129 46.726 66.8235 46.5538 66.993L46.1847 66.5791C46.1966 66.3903 46.2272 66.2226 46.1304 66.051Z" fill="#EBEBEB"/>
<path d="M30.1426 85.2757C30.4244 84.7726 30.6178 84.1642 30.841 83.6301C31.2671 82.6107 31.7045 81.5988 32.1846 80.6033C32.8073 79.3118 33.4372 78.0181 34.1443 76.7704C35.3339 74.6711 36.7062 72.681 38.1511 70.7516C39.2161 69.3292 40.3372 67.9236 41.5886 66.6596C41.6311 66.6167 41.6933 66.5587 41.7563 66.5684C41.8626 66.585 42 66.6517 42.0628 66.7406C42.159 66.8769 41.7184 67.4478 41.6326 67.5692C40.1499 69.6649 38.939 71.8764 37.7991 74.1723C34.703 80.4083 33.1711 87.3097 31.9282 94.118L22.9333 94.1089C22.8126 94.1141 22.7202 94.1189 22.6043 94.0754L22.582 93.9941C23.0978 92.1517 23.8789 90.3553 24.6075 88.5884C28.0936 80.1361 33.196 71.4951 40.6046 65.9258L41.1553 66.2485C40.1678 67.1913 39.1687 68.1537 38.2733 69.1851C35.2023 72.7222 32.8933 76.9915 31.3272 81.3896C30.9285 82.509 30.3455 84.1249 30.1426 85.2757Z" fill="#EBEBEB"/>
<path d="M51.337 66.5603C51.9737 67.3863 52.7151 68.1345 53.3637 68.9543C55.686 71.8899 57.8948 74.9974 59.6819 78.2924C60.481 79.7656 61.3032 81.283 61.979 82.8166C62.2979 83.5404 62.5977 84.2734 62.9047 85.0023C63.0586 85.3679 63.1963 85.7676 63.3956 86.1107C63.4018 86.1213 63.4082 86.1319 63.4146 86.1424C63.3112 85.3948 62.4369 83.2559 62.1275 82.4333C60.2827 77.529 57.7618 72.9082 54.402 68.8728C53.6308 67.9465 52.7155 67.1567 51.9378 66.2412C52.0726 66.1499 52.2148 66.0684 52.3543 65.9844C52.9321 66.4412 53.5217 66.891 54.0719 67.3809C55.8717 68.9835 57.4554 70.7524 58.9683 72.6231C64.1167 78.9891 67.8545 86.3455 70.46 94.0888L69.9095 94.0891L60.9294 94.082C59.9013 87.1484 58.461 81.1436 55.4461 74.7563C54.9395 73.683 54.4275 72.6108 53.8505 71.5731C53.347 70.6673 52.8236 69.7549 52.2485 68.8923C51.7985 68.2176 51.2911 67.5741 50.8711 66.8808L51.337 66.5603Z" fill="#EBEBEB"/>
<path d="M71.0491 69.4366C70.9559 69.4221 70.8721 69.4053 70.7852 69.3674C70.628 69.2987 70.4853 69.1711 70.4315 69.0034C70.3853 68.8597 70.3934 68.7127 70.4597 68.5768C70.5658 68.3593 70.731 68.29 70.9493 68.2148C71.0484 68.2281 71.1392 68.2413 71.2313 68.2823C71.39 68.3531 71.5329 68.4833 71.5895 68.6508C71.6393 68.7979 71.6235 68.9618 71.5485 69.0976C71.436 69.3012 71.2596 69.3677 71.0491 69.4366Z" fill="#EBEBEB"/>
<path d="M22.0141 69.6718C21.9311 69.6693 21.9177 69.6706 21.8355 69.6614C21.6833 69.6443 21.5434 69.5566 21.4543 69.4329C21.3621 69.3051 21.3419 69.1491 21.373 68.9966C21.4267 68.7335 21.5825 68.6149 21.8007 68.4819C21.9007 68.4801 21.9954 68.4752 22.0922 68.5065C22.2295 68.551 22.3551 68.6552 22.425 68.7815C22.5056 68.927 22.5088 69.1007 22.456 69.2563C22.379 69.4831 22.217 69.5683 22.0141 69.6718Z" fill="#EBEBEB"/>
<path d="M72.9367 72.9596C72.8002 72.9192 72.6707 72.8718 72.5822 72.7528C72.5046 72.6486 72.4782 72.5398 72.4916 72.4121C72.5118 72.2204 72.636 72.1191 72.7811 72.0156C72.9707 72.0582 73.1067 72.0921 73.2123 72.2716C73.2867 72.3981 73.2988 72.522 73.2521 72.6602C73.1944 72.8306 73.0869 72.8866 72.9367 72.9596Z" fill="#EBEBEB"/>
<path d="M19.7958 73.2585C19.733 73.2568 19.6544 73.2596 19.5919 73.2456C19.4385 73.2112 19.2915 73.1119 19.2187 72.9694C19.1626 72.8597 19.159 72.7315 19.1968 72.6156C19.2594 72.4241 19.4033 72.3393 19.5706 72.2461C19.6276 72.2486 19.6946 72.2482 19.7509 72.2612C19.8922 72.2937 20.0249 72.3687 20.107 72.4915C20.1894 72.6146 20.1943 72.7467 20.1556 72.8857C20.1032 73.0745 19.9524 73.1649 19.7958 73.2585Z" fill="#EBEBEB"/>
<path d="M18.2441 81.339C18.1724 81.3265 18.0979 81.3143 18.0291 81.2904C17.896 81.2439 17.7829 81.1231 17.7339 80.9919C17.6832 80.8559 17.6969 80.7142 17.7623 80.5864C17.8554 80.4045 17.9867 80.3493 18.1743 80.293C18.3658 80.3248 18.5252 80.3882 18.6306 80.5615C18.7123 80.6956 18.7006 80.846 18.6482 80.9877C18.5781 81.177 18.4162 81.26 18.2441 81.339Z" fill="#EBEBEB"/>
<path d="M74.6253 81.4505C74.4545 81.4061 74.288 81.3386 74.1681 81.204C74.074 81.0983 74.0213 80.9631 74.0383 80.8201C74.0663 80.5848 74.2439 80.4453 74.4281 80.3242C74.5091 80.3296 74.5953 80.3307 74.674 80.3523C74.7953 80.3857 74.9068 80.4976 74.9668 80.6048C75.0409 80.7374 75.0477 80.8949 75.0072 81.0394C74.9489 81.2476 74.8098 81.356 74.6253 81.4505Z" fill="#EBEBEB"/>
<path d="M18.6015 84.5808C18.5666 84.5843 18.5318 84.5878 18.4969 84.59C18.3149 84.6014 18.1481 84.5624 18.0147 84.4307C17.908 84.3255 17.8563 84.183 17.864 84.0338C17.8758 83.8062 17.9971 83.6595 18.1624 83.5171C18.2586 83.5093 18.3663 83.4941 18.4622 83.5024C18.6008 83.5146 18.7403 83.6105 18.8256 83.7183C18.922 83.84 18.9546 83.9835 18.9272 84.1355C18.8887 84.3491 18.7682 84.4558 18.6015 84.5808Z" fill="#EBEBEB"/>
<path d="M74.67 84.6186C74.5858 84.6208 74.503 84.6223 74.4192 84.6126C74.2708 84.5955 74.1304 84.5107 74.0439 84.3886C73.9556 84.264 73.9435 84.1086 73.9808 83.9635C74.0418 83.7261 74.1993 83.6271 74.3996 83.5078C74.4276 83.5123 74.4557 83.5163 74.4835 83.5213C74.68 83.556 74.8584 83.6563 74.9653 83.8292C75.0435 83.9557 75.0672 84.0973 75.0246 84.2411C74.9674 84.4344 74.8374 84.5233 74.67 84.6186Z" fill="#EBEBEB"/>
<defs>
<filter id="filter0_f_1528_6222" x="7.73094" y="11.5942" width="62.542" height="62.542" filterUnits="userSpaceOnUse" color-interpolation-filters="sRGB">
<feFlood flood-opacity="0" result="BackgroundImageFix"/>
<feBlend mode="normal" in="SourceGraphic" in2="BackgroundImageFix" result="shape"/>
<feGaussianBlur stdDeviation="10.1697" result="effect1_foregroundBlur_1528_6222"/>
</filter>
<filter id="filter1_f_1528_6222" x="26.5473" y="16.6723" width="62.542" height="62.542" filterUnits="userSpaceOnUse" color-interpolation-filters="sRGB">
<feFlood flood-opacity="0" result="BackgroundImageFix"/>
<feBlend mode="normal" in="SourceGraphic" in2="BackgroundImageFix" result="shape"/>
<feGaussianBlur stdDeviation="10.1697" result="effect1_foregroundBlur_1528_6222"/>
</filter>
<filter id="filter2_f_1528_6222" x="29.5981" y="34.7778" width="62.542" height="62.542" filterUnits="userSpaceOnUse" color-interpolation-filters="sRGB">
<feFlood flood-opacity="0" result="BackgroundImageFix"/>
<feBlend mode="normal" in="SourceGraphic" in2="BackgroundImageFix" result="shape"/>
<feGaussianBlur stdDeviation="10.1697" result="effect1_foregroundBlur_1528_6222"/>
</filter>
<filter id="filter3_f_1528_6222" x="10.6841" y="40.0669" width="62.542" height="62.542" filterUnits="userSpaceOnUse" color-interpolation-filters="sRGB">
<feFlood flood-opacity="0" result="BackgroundImageFix"/>
<feBlend mode="normal" in="SourceGraphic" in2="BackgroundImageFix" result="shape"/>
<feGaussianBlur stdDeviation="10.1697" result="effect1_foregroundBlur_1528_6222"/>
</filter>
<filter id="filter4_f_1528_6222" x="1.12157" y="28.3716" width="62.542" height="62.542" filterUnits="userSpaceOnUse" color-interpolation-filters="sRGB">
<feFlood flood-opacity="0" result="BackgroundImageFix"/>
<feBlend mode="normal" in="SourceGraphic" in2="BackgroundImageFix" result="shape"/>
<feGaussianBlur stdDeviation="10.1697" result="effect1_foregroundBlur_1528_6222"/>
</filter>
<filter id="filter5_f_1528_6222" x="16.8872" y="0.914537" width="62.542" height="62.542" filterUnits="userSpaceOnUse" color-interpolation-filters="sRGB">
<feFlood flood-opacity="0" result="BackgroundImageFix"/>
<feBlend mode="normal" in="SourceGraphic" in2="BackgroundImageFix" result="shape"/>
<feGaussianBlur stdDeviation="10.1697" result="effect1_foregroundBlur_1528_6222"/>
</filter>
</defs>
</svg>
