<svg width="25" height="25" viewBox="0 0 25 25" fill="none" xmlns="http://www.w3.org/2000/svg">
<path d="M12.5 0C13.6475 0 14.7542 0.146484 15.8203 0.439453C16.8864 0.732422 17.8833 1.15153 18.811 1.69678C19.7388 2.24202 20.5811 2.89307 21.3379 3.6499C22.0947 4.40674 22.7458 5.25309 23.291 6.18896C23.8363 7.12484 24.2554 8.12175 24.5483 9.17969C24.8413 10.2376 24.9919 11.3444 25 12.5C25 13.6475 24.8535 14.7542 24.5605 15.8203C24.2676 16.8864 23.8485 17.8833 23.3032 18.811C22.758 19.7388 22.1069 20.5811 21.3501 21.3379C20.5933 22.0947 19.7469 22.7458 18.811 23.291C17.8752 23.8363 16.8783 24.2554 15.8203 24.5483C14.7624 24.8413 13.6556 24.9919 12.5 25C11.3525 25 10.2458 24.8535 9.17969 24.5605C8.11361 24.2676 7.1167 23.8485 6.18896 23.3032C5.26123 22.758 4.41895 22.1069 3.66211 21.3501C2.90527 20.5933 2.25423 19.7469 1.70898 18.811C1.16374 17.8752 0.744629 16.8823 0.45166 15.8325C0.158691 14.7827 0.00813802 13.6719 0 12.5C0 11.3525 0.146484 10.2458 0.439453 9.17969C0.732422 8.11361 1.15153 7.1167 1.69678 6.18896C2.24202 5.26123 2.89307 4.41895 3.6499 3.66211C4.40674 2.90527 5.25309 2.25423 6.18896 1.70898C7.12484 1.16374 8.11768 0.744629 9.16748 0.45166C10.2173 0.158691 11.3281 0.00813802 12.5 0ZM12.5 23.4375C13.501 23.4375 14.4653 23.3073 15.3931 23.0469C16.3208 22.7865 17.1916 22.4202 18.0054 21.9482C18.8192 21.4762 19.5597 20.9025 20.2271 20.2271C20.8944 19.5516 21.464 18.8151 21.936 18.0176C22.408 17.2201 22.7783 16.3493 23.0469 15.4053C23.3154 14.4613 23.4456 13.4928 23.4375 12.5C23.4375 11.499 23.3073 10.5347 23.0469 9.60693C22.7865 8.6792 22.4202 7.80843 21.9482 6.99463C21.4762 6.18083 20.9025 5.44027 20.2271 4.77295C19.5516 4.10563 18.8151 3.53597 18.0176 3.06396C17.2201 2.59196 16.3493 2.22168 15.4053 1.95312C14.4613 1.68457 13.4928 1.55436 12.5 1.5625C11.499 1.5625 10.5347 1.69271 9.60693 1.95312C8.6792 2.21354 7.80843 2.57975 6.99463 3.05176C6.18083 3.52376 5.44027 4.09749 4.77295 4.77295C4.10563 5.4484 3.53597 6.1849 3.06396 6.98242C2.59196 7.77995 2.22168 8.65072 1.95312 9.59473C1.68457 10.5387 1.55436 11.5072 1.5625 12.5C1.5625 13.501 1.69271 14.4653 1.95312 15.3931C2.21354 16.3208 2.57975 17.1916 3.05176 18.0054C3.52376 18.8192 4.09749 19.5597 4.77295 20.2271C5.4484 20.8944 6.1849 21.464 6.98242 21.936C7.77995 22.408 8.65072 22.7783 9.59473 23.0469C10.5387 23.3154 11.5072 23.4456 12.5 23.4375ZM19.7876 12.6953L20.3735 10.9375H21.2891L20.2515 14.0625H19.3359L18.75 12.3047L18.1641 14.0625H17.2485L16.2109 10.9375H17.1265L17.7124 12.6953L18.2983 10.9375H19.2017L19.7876 12.6953ZM14.1235 10.9375H15.0391L14.0015 14.0625H13.0859L12.5 12.3047L11.9141 14.0625H10.9985L9.96094 10.9375H10.8765L11.4624 12.6953L12.0483 10.9375H12.9517L13.5376 12.6953L14.1235 10.9375ZM7.87354 10.9375H8.78906L7.75146 14.0625H6.83594L6.25 12.3047L5.66406 14.0625H4.74854L3.71094 10.9375H4.62646L5.2124 12.6953L5.79834 10.9375H6.70166L7.2876 12.6953L7.87354 10.9375Z" fill="white"/>
</svg>
