<svg width="100%" height="100%" viewBox="0 0 218 218" fill="none" xmlns="http://www.w3.org/2000/svg">
<path fill-rule="evenodd" clip-rule="evenodd" d="M43.4892 0L173.957 0V21.7446L43.4892 21.7446V0ZM21.7446 43.4892L21.7446 21.7446L43.4892 21.7446V43.4892H21.7446ZM21.7446 173.957L21.7446 43.4892H0L0 173.957H21.7446ZM43.4892 195.701L43.4892 173.957H21.7446V195.701H43.4892ZM173.957 195.701V217.446H43.4892V195.701H173.957ZM195.701 173.957V195.701H173.957V173.957H195.701ZM195.701 43.4892H217.446V173.957H195.701V43.4892ZM195.701 43.4892V21.7446H173.957V43.4892L195.701 43.4892ZM97.8507 32.6169H119.595V54.3615H152.212V76.1061L119.595 76.1061H97.8507H86.9784V97.8507L130.468 97.8507H152.212V119.595V141.34V163.084H130.468H119.595V184.829H97.8507V163.084H65.2338V141.34H97.8507H119.595H130.468V119.595L86.9784 119.595H65.2338V97.8507V76.1061V54.3615H86.9784H97.8507V32.6169Z" fill="#FF30B3"/>
</svg>
