<svg width="100%" height="100%" viewBox="0 0 208 183" fill="none" xmlns="http://www.w3.org/2000/svg">
<path d="M177.125 76.25V83.875H169.5V91.5H161.875V99.125H154.25V106.75H146.625V114.375H139V122H131.375V129.625H123.75V137.25H116.125V144.875H108.5V152.5H100.875V160.125H93.25V167.75H85.625V175.375H78V160.125H85.625V137.25H93.25V106.75H39.875V99.125H47.5V91.5H55.125V83.875H62.75V76.25H70.375V68.625H78V61H85.625V53.375H93.25V45.75H100.875V38.125H108.5V30.5H116.125V22.875H123.75V15.25H131.375V7.625H139V22.875H131.375V45.75H123.75V76.25H177.125Z" fill="#FEF164"/>
<path d="M202.75 29.5V31.25H201V33H199.25V34.75H197.5V36.5H195.75V38.25H194V40H192.25V41.75H190.5V43.5H188.75V45.25H187V47H185.25V48.75H183.5V50.5H181.75V52.25H180V48.75H181.75V43.5H183.5V36.5H171.25V34.75H173V33H174.75V31.25H176.5V29.5H178.25V27.75H180V26H181.75V24.25H183.5V22.5H185.25V20.75H187V19H188.75V17.25H190.5V15.5H192.25V13.75H194V17.25H192.25V22.5H190.5V29.5H202.75Z" fill="#FC63FF"/>
<path d="M36.75 129.5V131.25H35V133H33.25V134.75H31.5V136.5H29.75V138.25H28V140H26.25V141.75H24.5V143.5H22.75V145.25H21V147H19.25V148.75H17.5V150.5H15.75V152.25H14V148.75H15.75V143.5H17.5V136.5H5.25V134.75H7V133H8.75V131.25H10.5V129.5H12.25V127.75H14V126H15.75V124.25H17.5V122.5H19.25V120.75H21V119H22.75V117.25H24.5V115.5H26.25V113.75H28V117.25H26.25V122.5H24.5V129.5H36.75Z" fill="#FE6464"/>
<path d="M36.75 29.5V31.25H35V33H33.25V34.75H31.5V36.5H29.75V38.25H28V40H26.25V41.75H24.5V43.5H22.75V45.25H21V47H19.25V48.75H17.5V50.5H15.75V52.25H14V48.75H15.75V43.5H17.5V36.5H5.25V34.75H7V33H8.75V31.25H10.5V29.5H12.25V27.75H14V26H15.75V24.25H17.5V22.5H19.25V20.75H21V19H22.75V17.25H24.5V15.5H26.25V13.75H28V17.25H26.25V22.5H24.5V29.5H36.75Z" fill="#3FFFDC"/>
<path d="M202.75 129.5V131.25H201V133H199.25V134.75H197.5V136.5H195.75V138.25H194V140H192.25V141.75H190.5V143.5H188.75V145.25H187V147H185.25V148.75H183.5V150.5H181.75V152.25H180V148.75H181.75V143.5H183.5V136.5H171.25V134.75H173V133H174.75V131.25H176.5V129.5H178.25V127.75H180V126H181.75V124.25H183.5V122.5H185.25V120.75H187V119H188.75V117.25H190.5V115.5H192.25V113.75H194V117.25H192.25V122.5H190.5V129.5H202.75Z" fill="#64FE86"/>
</svg>
