<svg width="100%" height="100%" viewBox="0 0 205 205" fill="none" xmlns="http://www.w3.org/2000/svg">
<path d="M102.5 124.541H107.458V179.083H97.5414V144.374H77.708V139.416H67.7914V134.458H62.833V129.499H57.8747V119.583H52.9163V109.666H47.958V94.791H72.7497V99.7494H82.6664V104.708H92.583V109.666H97.5414V114.624H102.5V124.541Z" fill="#83FA79"/>
<path d="M157.042 79.916V99.7494H152.083V109.666H147.125V114.624H142.167V119.583H132.25V124.541H122.333V129.499H112.417V119.583H107.458V109.666H102.5V99.7494H107.458V94.791H112.417V89.8327H122.333V84.8744H132.25V79.916H157.042Z" fill="#83FA79"/>
<path fill-rule="evenodd" clip-rule="evenodd" d="M186.364 27.9545H195.682V46.5909H205V195.682H195.682V205H9.31818V195.682H0V46.5909H9.31818V27.9545H18.6364V18.6364H27.9545V9.31818H37.2727V0H167.727V9.31818H177.045V18.6364H186.364V27.9545ZM158.409 18.6364H111.818V55.9091H177.045V37.2727H167.727V27.9545H158.409V18.6364ZM37.2727 37.2727H27.9545V55.9091H93.1818V18.6364H46.5909V27.9545H37.2727V37.2727ZM18.6364 186.001V186.364H79.5925L102.5 186.5L125.407 186.364H186.364V186.001L186.5 186V74.5H18.7868L18.7867 74.5455H18.6364V132.933L18.4997 186L18.6364 186.001Z" fill="#83FA79"/>
</svg>
