<svg width="100%" height="100%" viewBox="0 0 247 247" fill="none" xmlns="http://www.w3.org/2000/svg">
<path d="M205.834 113.209H195.542V133.792H205.834V113.209Z" fill="#FF9C40"/>
<path d="M236.709 113.209H226.417V133.792H236.709V113.209Z" fill="#FF9C40"/>
<path d="M226.416 102.916H205.833V113.208H226.416V102.916Z" fill="#FF9C40"/>
<path d="M226.416 133.791H205.833V144.083H226.416V133.791Z" fill="#FF9C40"/>
<path d="M185.25 41.166H174.958V61.7493H185.25V41.166Z" fill="#FF9C40"/>
<path d="M205.833 61.75H185.25V72.0417H205.833V61.75Z" fill="#FF9C40"/>
<path d="M216.125 41.166H205.833V61.7493H216.125V41.166Z" fill="#FF9C40"/>
<path d="M205.833 30.875H185.25V41.1667H205.833V30.875Z" fill="#FF9C40"/>
<path d="M205.833 174.959H185.25V185.251H205.833V174.959Z" fill="#FF9C40"/>
<path d="M216.125 185.25H205.833V205.833H216.125V185.25Z" fill="#FF9C40"/>
<path d="M185.25 185.25H174.958V205.833H185.25V185.25Z" fill="#FF9C40"/>
<path d="M205.833 205.834H185.25V216.126H205.833V205.834Z" fill="#FF9C40"/>
<path d="M133.791 195.541H113.208V205.833H133.791V195.541Z" fill="#FF9C40"/>
<path d="M133.791 226.416H113.208V236.708H133.791V226.416Z" fill="#FF9C40"/>
<path d="M144.084 205.834H133.792V226.417H144.084V205.834Z" fill="#FF9C40"/>
<path d="M113.209 205.834H102.917V226.417H113.209V205.834Z" fill="#FF9C40"/>
<path d="M144.084 20.584H133.792V41.1673H144.084V20.584Z" fill="#FF9C40"/>
<path d="M113.209 20.584H102.917V41.1673H113.209V20.584Z" fill="#FF9C40"/>
<path d="M133.791 10.291H113.208V20.5827H133.791V10.291Z" fill="#FF9C40"/>
<path d="M133.791 41.166H113.208V51.4577H133.791V41.166Z" fill="#FF9C40"/>
<path d="M164.667 102.916V82.3327H144.084V72.041H102.917V82.3327H82.3337V102.916H72.042V144.083H82.3337V164.666H102.917V174.958H144.084V164.666H164.667V144.083H174.959V102.916H164.667ZM144.084 144.083V154.374H102.917V144.083H92.6253V102.916H102.917V92.6243H144.084V102.916H154.375V144.083H144.084Z" fill="#FF9C40"/>
<path d="M41.1667 185.25H30.875V205.833H41.1667V185.25Z" fill="#FF9C40"/>
<path d="M61.7503 205.834H41.167V216.126H61.7503V205.834Z" fill="#FF9C40"/>
<path d="M61.7503 174.959H41.167V185.251H61.7503V174.959Z" fill="#FF9C40"/>
<path d="M72.0417 185.25H61.75V205.833H72.0417V185.25Z" fill="#FF9C40"/>
<path d="M72.0417 41.166H61.75V61.7493H72.0417V41.166Z" fill="#FF9C40"/>
<path d="M61.7503 30.875H41.167V41.1667H61.7503V30.875Z" fill="#FF9C40"/>
<path d="M61.7503 61.75H41.167V72.0417H61.7503V61.75Z" fill="#FF9C40"/>
<path d="M41.1667 41.166H30.875V61.7493H41.1667V41.166Z" fill="#FF9C40"/>
<path d="M41.1663 133.791H20.583V144.083H41.1663V133.791Z" fill="#FF9C40"/>
<path d="M41.1663 102.916H20.583V113.208H41.1663V102.916Z" fill="#FF9C40"/>
<path d="M20.5837 113.209H10.292V133.792H20.5837V113.209Z" fill="#FF9C40"/>
<path d="M51.4587 113.209H41.167V133.792H51.4587V113.209Z" fill="#FF9C40"/>
</svg>
