<svg width="19" height="17" viewBox="0 0 19 17" fill="none" xmlns="http://www.w3.org/2000/svg">
<path d="M14.1654 9.66667V6.33333H14.9987V5.5H15.832V4.66667H17.4987V3.83333H18.332V2.16667H17.4987V1.33333H15.832V2.16667H14.9987V3.83333H14.1654V4.66667H13.332V5.5H11.6654V4.66667H8.33203V3.83333H7.4987V3H6.66536V1.33333H5.83203V0.5H4.16536V1.33333H3.33203V3H4.16536V3.83333H5.83203V4.66667H6.66536V5.5H7.4987V7.16667H6.66536V8H4.9987V7.16667H4.16536V6.33333H1.66536V7.16667H0.832031V9.66667H1.66536V10.5H4.16536V9.66667H7.4987V10.5H8.33203V11.3333H9.16536V12.1667H11.6654V11.3333H12.4987V12.1667H13.332V13H14.1654V15.5H14.9987V16.3333H17.4987V15.5H18.332V13H17.4987V12.1667H14.9987V11.3333H14.1654V10.5H13.332V9.66667H14.1654ZM11.6654 9.66667H9.16536V7.16667H11.6654V9.66667Z" fill="#7CB1FF"/>
</svg>
