<svg width="100%" height="100%" viewBox="0 0 43 39" fill="none" xmlns="http://www.w3.org/2000/svg">
<path d="M32.2904 22.4167V14.5833H34.2487V12.625H36.207V10.6667H40.1237V8.70833H42.082V4.79167H40.1237V2.83333H36.207V4.79167H34.2487V8.70833H32.2904V10.6667H30.332V12.625H26.4154V10.6667H18.582V8.70833H16.6237V6.75H14.6654V2.83333H12.707V0.875H8.79037V2.83333H6.83203V6.75H8.79037V8.70833H12.707V10.6667H14.6654V12.625H16.6237V16.5417H14.6654V18.5H10.7487V16.5417H8.79037V14.5833H2.91536V16.5417H0.957031V22.4167H2.91536V24.375H8.79037V22.4167H16.6237V24.375H18.582V26.3333H20.5404V28.2917H26.4154V26.3333H28.3737V28.2917H30.332V30.25H32.2904V36.125H34.2487V38.0833H40.1237V36.125H42.082V30.25H40.1237V28.2917H34.2487V26.3333H32.2904V24.375H30.332V22.4167H32.2904ZM26.4154 22.4167H20.5404V16.5417H26.4154V22.4167Z" fill="#7CB1FF"/>
</svg>
