<svg width="100%" height="100%" viewBox="0 0 23 23" fill="none" xmlns="http://www.w3.org/2000/svg">
<g clip-path="url(#clip0_947_4458)">
<path d="M20.125 9.58203V10.5404H19.1667V11.4987H18.2083V12.457H17.25V13.4154H16.2917V14.3737H15.3333V15.332H14.375V16.2904H13.4167V17.2487H12.4583V18.207H11.5V19.1654H10.5417V20.1237H9.58333V21.082H8.625V22.0404H7.66667V20.1237H8.625V17.2487H9.58333V13.4154H2.875V12.457H3.83333V11.4987H4.79167V10.5404H5.75V9.58203H6.70833V8.6237H7.66667V7.66536H8.625V6.70703H9.58333V5.7487H10.5417V4.79036H11.5V3.83203H12.4583V2.8737H13.4167V1.91536H14.375V0.957031H15.3333V2.8737H14.375V5.7487H13.4167V9.58203H20.125Z" fill="#C852FF"/>
</g>
<defs>
<clipPath id="clip0_947_4458">
<rect width="23" height="23" fill="white"/>
</clipPath>
</defs>
</svg>
