<svg width="100%" height="100%" viewBox="0 0 24 24" fill="none" xmlns="http://www.w3.org/2000/svg">
<path d="M20 11H19V13H20V11Z" fill="#FFCE4F"/>
<path d="M23 11H22V13H23V11Z" fill="#FFCE4F"/>
<path d="M22 10H20V11H22V10Z" fill="#FFCE4F"/>
<path d="M22 13H20V14H22V13Z" fill="#FFCE4F"/>
<path d="M18 4H17V6H18V4Z" fill="#FFCE4F"/>
<path d="M20 6H18V7H20V6Z" fill="#FFCE4F"/>
<path d="M21 4H20V6H21V4Z" fill="#FFCE4F"/>
<path d="M20 3H18V4H20V3Z" fill="#FFCE4F"/>
<path d="M20 17H18V18H20V17Z" fill="#FFCE4F"/>
<path d="M21 18H20V20H21V18Z" fill="#FFCE4F"/>
<path d="M18 18H17V20H18V18Z" fill="#FFCE4F"/>
<path d="M20 20H18V21H20V20Z" fill="#FFCE4F"/>
<path d="M13 19H11V20H13V19Z" fill="#FFCE4F"/>
<path d="M13 22H11V23H13V22Z" fill="#FFCE4F"/>
<path d="M14 20H13V22H14V20Z" fill="#FFCE4F"/>
<path d="M11 20H10V22H11V20Z" fill="#FFCE4F"/>
<path d="M14 2H13V4H14V2Z" fill="#FFCE4F"/>
<path d="M11 2H10V4H11V2Z" fill="#FFCE4F"/>
<path d="M13 1H11V2H13V1Z" fill="#FFCE4F"/>
<path d="M13 4H11V5H13V4Z" fill="#FFCE4F"/>
<path d="M16 10V8H14V7H10V8H8V10H7V14H8V16H10V17H14V16H16V14H17V10H16ZM14 14V15H10V14H9V10H10V9H14V10H15V14H14Z" fill="#FFCE4F"/>
<path d="M4 18H3V20H4V18Z" fill="#FFCE4F"/>
<path d="M6 20H4V21H6V20Z" fill="#FFCE4F"/>
<path d="M6 17H4V18H6V17Z" fill="#FFCE4F"/>
<path d="M7 18H6V20H7V18Z" fill="#FFCE4F"/>
<path d="M7 4H6V6H7V4Z" fill="#FFCE4F"/>
<path d="M6 3H4V4H6V3Z" fill="#FFCE4F"/>
<path d="M6 6H4V7H6V6Z" fill="#FFCE4F"/>
<path d="M4 4H3V6H4V4Z" fill="#FFCE4F"/>
<path d="M4 13H2V14H4V13Z" fill="#FFCE4F"/>
<path d="M4 10H2V11H4V10Z" fill="#FFCE4F"/>
<path d="M2 11H1V13H2V11Z" fill="#FFCE4F"/>
<path d="M5 11H4V13H5V11Z" fill="#FFCE4F"/>
</svg>
