<svg width="115" height="125" viewBox="0 0 115 125" fill="none" xmlns="http://www.w3.org/2000/svg">
<g filter="url(#filter0_f_1528_5384)">
<path d="M100.575 25.0992V48.4742H95.9V53.1492H91.225V57.8242H86.55V62.4992H81.875V67.1742H77.2V71.8492H72.525V76.5242H67.85V81.1992H63.175V85.8742H58.5V90.5492H53.825V95.2242H39.8V90.5492H35.125V85.8742H30.45V71.8492H35.125V67.1742H39.8V62.4992H44.475V57.8242H49.15V53.1492H53.825V48.4742H58.5V43.7992H63.175V39.1242H67.85V34.4492H72.525V29.7742H77.2V34.4492H81.875V43.7992H77.2V48.4742H72.525V53.1492H67.85V57.8242H63.175V62.4992H58.5V67.1742H53.825V71.8492H49.15V76.5242H44.475V81.1992H53.825V76.5242H58.5V71.8492H63.175V67.1742H67.85V62.4992H72.525V57.8242H77.2V53.1492H81.875V48.4742H86.55V29.7742H81.875V25.0992H67.85V29.7742H63.175V34.4492H58.5V39.1242H53.825V43.7992H49.15V48.4742H44.475V53.1492H39.8V57.8242H35.125V62.4992H30.45V67.1742H25.775V90.5492H30.45V95.2242H35.125V99.8992H58.5V95.2242H63.175V90.5492H67.85V85.8742H72.525V81.1992H77.2V76.5242H81.875V71.8492H86.55V67.1742H91.225V62.4992H95.9V67.1742H100.575V76.5242H95.9V81.1992H91.225V85.8742H86.55V90.5492H81.875V95.2242H77.2V99.8992H72.525V104.574H67.85V109.249H63.175V113.924H35.125V109.249H25.775V104.574H21.1V99.8992H16.425V90.5492H11.75V62.4992H16.425V57.8242H21.1V53.1492H25.775V48.4742H30.45V43.7992H35.125V39.1242H39.8V34.4492H44.475V29.7742H49.15V25.0992H53.825V20.4242H58.5V15.7492H67.85V11.0742H86.55V15.7492H91.225V20.4242H95.9V25.0992H100.575Z" fill="url(#paint0_linear_1528_5384)"/>
</g>
<defs>
<filter id="filter0_f_1528_5384" x="-8.57299" y="-4.57299" width="134.142" height="134.142" filterUnits="userSpaceOnUse" color-interpolation-filters="sRGB">
<feFlood flood-opacity="0" result="BackgroundImageFix"/>
<feBlend mode="normal" in="SourceGraphic" in2="BackgroundImageFix" result="shape"/>
<feGaussianBlur stdDeviation="5.48571" result="effect1_foregroundBlur_1528_5384"/>
</filter>
<linearGradient id="paint0_linear_1528_5384" x1="56.1625" y1="11.0742" x2="56.1625" y2="113.924" gradientUnits="userSpaceOnUse">
<stop stop-color="#D678E6"/>
<stop offset="0.47" stop-color="#FFDD66"/>
<stop offset="1" stop-color="#E18AFF"/>
</linearGradient>
</defs>
</svg>
