<svg width="119" height="119" viewBox="0 0 119 119" fill="none" xmlns="http://www.w3.org/2000/svg">
<path d="M104.126 19.832V44.6237H99.168V49.582H94.2096V54.5404H89.2513V59.4987H84.293V64.457H79.3346V69.4154H74.3763V74.3737H69.418V79.332H64.4596V84.2904H59.5013V89.2487H54.543V94.207H39.668V89.2487H34.7096V84.2904H29.7513V69.4154H34.7096V64.457H39.668V59.4987H44.6263V54.5404H49.5846V49.582H54.543V44.6237H59.5013V39.6654H64.4596V34.707H69.418V29.7487H74.3763V24.7904H79.3346V29.7487H84.293V39.6654H79.3346V44.6237H74.3763V49.582H69.418V54.5404H64.4596V59.4987H59.5013V64.457H54.543V69.4154H49.5846V74.3737H44.6263V79.332H54.543V74.3737H59.5013V69.4154H64.4596V64.457H69.418V59.4987H74.3763V54.5404H79.3346V49.582H84.293V44.6237H89.2513V24.7904H84.293V19.832H69.418V24.7904H64.4596V29.7487H59.5013V34.707H54.543V39.6654H49.5846V44.6237H44.6263V49.582H39.668V54.5404H34.7096V59.4987H29.7513V64.457H24.793V89.2487H29.7513V94.207H34.7096V99.1654H59.5013V94.207H64.4596V89.2487H69.418V84.2904H74.3763V79.332H79.3346V74.3737H84.293V69.4154H89.2513V64.457H94.2096V59.4987H99.168V64.457H104.126V74.3737H99.168V79.332H94.2096V84.2904H89.2513V89.2487H84.293V94.207H79.3346V99.1654H74.3763V104.124H69.418V109.082H64.4596V114.04H34.7096V109.082H24.793V104.124H19.8346V99.1654H14.8763V89.2487H9.91797V59.4987H14.8763V54.5404H19.8346V49.582H24.793V44.6237H29.7513V39.6654H34.7096V34.707H39.668V29.7487H44.6263V24.7904H49.5846V19.832H54.543V14.8737H59.5013V9.91536H69.418V4.95703H89.2513V9.91536H94.2096V14.8737H99.168V19.832H104.126Z" fill="white"/>
</svg>
