<svg width="119" height="125" viewBox="0 0 119 125" fill="none" xmlns="http://www.w3.org/2000/svg">
<g filter="url(#filter0_f_1528_6186)">
<path d="M101.575 25.0992V48.4742H96.9V53.1492H92.225V57.8242H87.55V62.4992H82.875V67.1742H78.2V71.8492H73.525V76.5242H68.85V81.1992H64.175V85.8742H59.5V90.5492H54.825V95.2242H40.8V90.5492H36.125V85.8742H31.45V71.8492H36.125V67.1742H40.8V62.4992H45.475V57.8242H50.15V53.1492H54.825V48.4742H59.5V43.7992H64.175V39.1242H68.85V34.4492H73.525V29.7742H78.2V34.4492H82.875V43.7992H78.2V48.4742H73.525V53.1492H68.85V57.8242H64.175V62.4992H59.5V67.1742H54.825V71.8492H50.15V76.5242H45.475V81.1992H54.825V76.5242H59.5V71.8492H64.175V67.1742H68.85V62.4992H73.525V57.8242H78.2V53.1492H82.875V48.4742H87.55V29.7742H82.875V25.0992H68.85V29.7742H64.175V34.4492H59.5V39.1242H54.825V43.7992H50.15V48.4742H45.475V53.1492H40.8V57.8242H36.125V62.4992H31.45V67.1742H26.775V90.5492H31.45V95.2242H36.125V99.8992H59.5V95.2242H64.175V90.5492H68.85V85.8742H73.525V81.1992H78.2V76.5242H82.875V71.8492H87.55V67.1742H92.225V62.4992H96.9V67.1742H101.575V76.5242H96.9V81.1992H92.225V85.8742H87.55V90.5492H82.875V95.2242H78.2V99.8992H73.525V104.574H68.85V109.249H64.175V113.924H36.125V109.249H26.775V104.574H22.1V99.8992H17.425V90.5492H12.75V62.4992H17.425V57.8242H22.1V53.1492H26.775V48.4742H31.45V43.7992H36.125V39.1242H40.8V34.4492H45.475V29.7742H50.15V25.0992H54.825V20.4242H59.5V15.7492H68.85V11.0742H87.55V15.7492H92.225V20.4242H96.9V25.0992H101.575Z" fill="url(#paint0_linear_1528_6186)"/>
</g>
<path d="M104.126 22.832V47.6237H99.168V52.582H94.2096V57.5404H89.2513V62.4987H84.293V67.457H79.3346V72.4154H74.3763V77.3737H69.418V82.332H64.4596V87.2904H59.5013V92.2487H54.543V97.207H39.668V92.2487H34.7096V87.2904H29.7513V72.4154H34.7096V67.457H39.668V62.4987H44.6263V57.5404H49.5846V52.582H54.543V47.6237H59.5013V42.6654H64.4596V37.707H69.418V32.7487H74.3763V27.7904H79.3346V32.7487H84.293V42.6654H79.3346V47.6237H74.3763V52.582H69.418V57.5404H64.4596V62.4987H59.5013V67.457H54.543V72.4154H49.5846V77.3737H44.6263V82.332H54.543V77.3737H59.5013V72.4154H64.4596V67.457H69.418V62.4987H74.3763V57.5404H79.3346V52.582H84.293V47.6237H89.2513V27.7904H84.293V22.832H69.418V27.7904H64.4596V32.7487H59.5013V37.707H54.543V42.6654H49.5846V47.6237H44.6263V52.582H39.668V57.5404H34.7096V62.4987H29.7513V67.457H24.793V92.2487H29.7513V97.207H34.7096V102.165H59.5013V97.207H64.4596V92.2487H69.418V87.2904H74.3763V82.332H79.3346V77.3737H84.293V72.4154H89.2513V67.457H94.2096V62.4987H99.168V67.457H104.126V77.3737H99.168V82.332H94.2096V87.2904H89.2513V92.2487H84.293V97.207H79.3346V102.165H74.3763V107.124H69.418V112.082H64.4596V117.04H34.7096V112.082H24.793V107.124H19.8346V102.165H14.8763V92.2487H9.91797V62.4987H14.8763V57.5404H19.8346V52.582H24.793V47.6237H29.7513V42.6654H34.7096V37.707H39.668V32.7487H44.6263V27.7904H49.5846V22.832H54.543V17.8737H59.5013V12.9154H69.418V7.95703H89.2513V12.9154H94.2096V17.8737H99.168V22.832H104.126Z" fill="white"/>
<defs>
<filter id="filter0_f_1528_6186" x="-7.57299" y="-4.57299" width="134.142" height="134.142" filterUnits="userSpaceOnUse" color-interpolation-filters="sRGB">
<feFlood flood-opacity="0" result="BackgroundImageFix"/>
<feBlend mode="normal" in="SourceGraphic" in2="BackgroundImageFix" result="shape"/>
<feGaussianBlur stdDeviation="5.48571" result="effect1_foregroundBlur_1528_6186"/>
</filter>
<linearGradient id="paint0_linear_1528_6186" x1="57.1625" y1="11.0742" x2="57.1625" y2="113.924" gradientUnits="userSpaceOnUse">
<stop stop-color="#D678E6"/>
<stop offset="0.47" stop-color="#FFDD66"/>
<stop offset="1" stop-color="#E18AFF"/>
</linearGradient>
</defs>
</svg>
