<svg width="202" height="146" viewBox="0 0 202 146" fill="none" xmlns="http://www.w3.org/2000/svg">
<path d="M30.7021 67.6699C39.2003 67.6699 38.5045 101.974 57.6254 99.8497C72.9221 98.1501 88.0771 102.682 93.7426 105.161" stroke="#FFFBD5" stroke-width="1.06227" stroke-linecap="round"/>
<mask id="path-2-inside-1_2747_8200" fill="white">
<path d="M150.093 9.94501C150.093 19.6414 149.969 19.89 146.985 19.89C145.369 19.89 143.505 20.8845 142.759 22.0033C141.64 24.1167 141.516 24.1167 139.154 21.879C135.922 19.0198 130.949 19.6414 130.452 22.9978C129.706 26.8515 128.214 27.7217 125.355 25.857C123.117 24.4896 122.496 24.4896 121.501 26.1057C119.512 29.2135 120.134 36.4236 122.744 39.7801C124.609 42.142 125.231 44.8769 125.231 51.8384C125.231 60.1673 124.982 60.9132 121.75 63.2751C118.518 65.5128 118.021 65.6371 116.156 63.7724C114.54 62.1563 113.794 62.032 112.302 63.2751C110.935 64.394 109.816 64.5183 107.951 63.3995C105.092 61.9077 101.114 63.3995 99.9952 66.1343C99.6223 67.2531 98.8764 67.1288 97.6333 65.5128C95.52 62.6536 91.9149 63.8967 90.9204 67.8747C89.8016 72.2256 91.4176 78.9385 94.0282 81.3005C95.8929 83.0408 96.1415 84.284 95.2713 88.6349C94.7741 91.4941 94.2768 99.5744 94.1525 106.536C94.1525 120.459 94.7741 121.702 104.222 125.556C109.692 127.918 110.562 125.929 109.692 113.497C109.194 107.157 109.443 103.055 110.189 102.558C112.054 101.439 116.529 104.174 116.529 106.536C116.529 108.028 116.902 108.152 118.145 107.033C119.885 105.666 127.717 107.779 127.717 109.644C127.717 110.141 128.711 110.638 129.955 110.638C131.198 110.638 133.187 111.384 134.554 112.379C135.922 113.249 138.532 114.368 140.521 114.865C143.878 115.611 143.878 115.735 144.002 127.172C144.126 138.36 144.002 141.965 143.256 142.711C143.132 142.835 141.516 142.338 139.651 141.592C136.543 140.1 136.419 139.603 136.419 131.026C136.419 122.697 136.17 121.826 133.062 119.464C130.079 116.978 129.706 116.978 127.468 118.843C125.852 120.459 125.231 122.697 125.231 128.166V135.501L118.145 132.269C107.33 127.42 107.454 127.42 108.076 129.285C108.324 130.28 114.664 133.636 122.247 136.744C129.706 139.976 137.786 143.457 140.273 144.7C145.245 147.062 144.002 147.559 165.632 134.133C172.469 129.907 173.713 129.658 179.928 130.155C188.381 130.901 195.343 128.042 199.321 122.199L201.932 118.346L199.57 106.66C195.094 84.284 194.97 82.295 197.581 80.0573C200.067 77.6954 200.44 72.7229 198.575 67.8747C197.208 64.2696 193.478 63.6481 191.116 66.5073C189.749 68.1233 189.376 68.1233 188.133 66.6316C187.387 65.6371 185.647 64.6426 184.279 64.394C182.042 64.021 181.793 63.1508 182.166 56.1893C182.539 51.4654 182.042 47.7361 181.171 46.6172C180.053 45.3741 180.177 44.2553 181.793 41.7691C184.403 37.791 183.16 27.846 179.804 26.1057C176.945 24.4896 172.469 24.4896 172.469 26.1057C172.469 28.3433 169.735 27.3488 169.113 24.9868C168.243 21.6304 161.406 20.1386 159.417 22.8735C158.546 23.9923 157.428 24.8625 156.93 24.8625C155.066 24.8625 152.704 20.5116 152.579 17.2795C152.579 14.4203 153.201 13.923 159.79 12.5556C163.643 11.6854 167.621 10.6909 168.367 10.4423C170.48 9.94501 168.989 6.21564 166.627 6.21564C163.519 6.21564 152.579 2.23763 152.579 1.11882C152.579 0.497253 152.082 0 151.336 0C150.59 0 150.093 4.10233 150.093 9.94501ZM161.779 7.58307C162.4 8.20464 161.53 9.19914 159.541 9.94501C154.196 11.934 152.579 11.5611 152.579 8.08032C152.579 5.34544 152.952 5.09682 156.682 5.8427C158.795 6.21564 161.157 6.9615 161.779 7.58307ZM151.461 33.5644C152.082 33.5644 152.579 31.9483 152.579 29.835C152.579 26.4786 152.828 26.23 156.06 26.8515C158.422 27.3488 160.038 26.9758 161.157 25.6084C162.897 23.6194 166.254 24.241 166.254 26.6029C166.254 27.4731 167.746 28.9649 169.486 29.9594C172.345 31.4511 172.842 31.3268 174.458 29.3378C175.826 27.4731 176.447 27.2245 177.939 28.4676C179.182 29.5864 179.431 30.7052 178.685 32.0727C178.064 33.3158 177.318 35.3048 176.82 36.5479C176.323 38.4126 175.826 38.6612 174.707 37.5424C172.345 35.1805 167.248 35.802 164.141 38.7855L161.157 41.5204L160.411 38.6612C159.79 36.0507 159.168 35.802 154.817 36.4236C152.082 36.7965 148.85 38.0397 147.483 39.2828C145.121 41.3961 144.996 41.3961 144.375 39.0342C144.002 37.6667 141.889 35.802 139.775 35.0562C136.17 33.6887 135.549 33.813 133.808 36.2993L131.695 38.9099L129.582 34.9319C127.593 30.9538 127.593 30.7052 130.079 28.0947C131.571 26.6029 132.689 24.6139 132.689 23.868C132.689 21.6304 135.797 22.1277 138.284 24.8625C140.397 27.2245 140.521 27.2245 144.996 24.1167L149.472 21.1331L149.845 27.3488C150.093 30.7052 150.715 33.5644 151.461 33.5644ZM125.231 27.9703C125.231 28.3433 124.982 28.5919 124.609 28.5919C124.236 28.5919 123.988 28.3433 123.988 27.9703C123.988 27.5974 124.236 27.3488 124.609 27.3488C124.982 27.3488 125.231 27.5974 125.231 27.9703ZM126.474 33.5644C126.474 36.0507 130.576 41.0232 132.565 41.0232C133.187 41.0232 134.181 39.9044 134.554 38.5369C135.673 35.1805 138.656 35.4291 140.273 39.0342C142.262 43.1365 147.483 44.0067 150.963 40.7746C153.574 38.2883 153.947 38.2883 156.806 40.2773C160.784 42.7635 165.757 42.8879 166.751 40.4016C167.497 38.2883 171.351 37.9154 173.34 39.9044C175.08 41.6447 179.928 38.6612 179.928 35.802C179.928 34.5589 180.55 33.5644 181.296 33.5644C183.658 33.5644 181.917 38.9099 178.685 41.1475C171.848 46.2443 144.872 47.7361 133.435 43.7581C126.847 41.5204 121.874 36.2993 123.117 33.0672C124.236 30.208 126.474 30.5809 126.474 33.5644ZM138.284 47.4874C145.867 49.1035 169.362 48.109 174.086 45.8714C175.95 45.0012 177.815 44.6282 178.188 45.1255C178.561 45.4984 179.182 50.3466 179.555 55.8164C180.053 62.9022 179.804 66.383 178.685 67.7504C176.572 70.361 174.956 70.1123 174.956 67.1288C174.956 64.5183 172.221 64.8912 168.616 67.999C166.875 69.4908 166.378 69.4908 165.881 68.1233C165.508 66.8802 164.762 67.1288 163.395 68.8692C162.027 70.7339 161.903 72.35 162.773 75.7064C163.519 78.1927 164.638 80.9275 165.259 81.6734C166.005 82.6679 166.13 83.2895 165.384 83.2895C164.762 83.2895 160.411 79.3115 155.687 74.4633C149.845 68.4963 146.612 66.01 145.245 66.5073C144.126 66.8802 139.402 69.4908 134.803 72.35C130.203 75.0848 126.101 77.1982 125.852 76.8252C125.479 76.5766 125.852 74.339 126.474 71.977C127.22 69.7394 127.717 62.5293 127.717 56.065C127.717 45.4984 127.966 44.5039 129.83 45.3741C131.073 45.7471 134.803 46.7416 138.284 47.4874ZM116.529 65.6371C116.529 66.2586 115.161 67.999 113.545 69.4908C110.935 71.8527 110.189 72.1013 107.951 70.7339C105.838 69.2421 105.092 69.4908 102.481 71.8527L99.6223 74.5876L96.8874 71.7284C93.4066 67.999 93.158 64.5183 96.6388 67.7504C99.0007 69.8637 102.854 69.6151 102.854 67.1288C102.854 65.5128 106.957 65.5128 108.573 67.1288C109.443 67.999 110.686 67.7504 112.302 66.5073C115.037 64.5183 116.529 64.1453 116.529 65.6371ZM125.231 65.6371C125.231 67.0045 120.134 69.8637 119.264 68.9935C118.766 68.4963 119.512 67.3775 120.755 66.383C123.49 64.5183 125.231 64.1453 125.231 65.6371ZM176.447 72.1013C177.318 72.1013 179.182 70.8582 180.798 69.3665C183.409 66.8802 183.782 66.8802 185.895 68.7449C188.754 71.3555 189.749 71.3555 192.608 68.7449C193.851 67.6261 194.846 67.3775 194.846 68.1233C194.846 68.8692 194.224 69.8637 193.478 70.2366C192.857 70.7339 191.614 72.4743 190.992 74.2147C189.873 77.1982 189.625 77.1982 187.014 75.4578C183.658 73.2202 177.566 74.0903 175.329 76.9495C173.961 78.6899 173.713 78.6899 171.972 76.4523C169.859 73.7174 169.61 72.1013 170.729 68.9935C171.475 67.2531 171.724 67.3775 173.34 69.6151C174.334 70.9825 175.702 72.1013 176.447 72.1013ZM115.037 76.5766C112.675 79.0628 99.498 81.0518 96.5145 79.5601C94.1525 78.1927 92.1635 73.7174 93.4066 72.35C93.9039 71.977 95.0227 72.8472 96.1415 74.339C98.5035 77.6954 100.12 77.8197 103.476 74.5876C105.962 72.35 106.335 72.2256 107.827 73.966C110.065 76.7009 112.178 76.2037 114.167 72.4743C115.907 69.2421 115.907 69.2421 116.28 72.1013C116.529 73.5931 115.907 75.7064 115.037 76.5766ZM123.366 74.8362C122.869 77.8197 121.75 81.0518 120.755 82.0463C119.264 83.5381 119.015 83.0408 119.015 78.1927C119.015 72.9715 120.631 69.6151 123.117 69.6151C123.739 69.6151 123.863 71.977 123.366 74.8362ZM154.196 76.8252C158.049 80.8032 161.281 84.284 161.281 84.7812C161.281 85.6514 145.618 94.4776 144.002 94.4776C142.759 94.4776 129.83 78.317 130.452 77.5711C131.695 76.328 144.623 69.6151 145.742 69.6151C146.488 69.6151 150.218 72.8472 154.196 76.8252ZM197.083 74.8362C196.462 79.0628 189.625 82.295 180.053 83.0408C171.972 83.5381 171.599 83.5381 167.621 79.4358C162.649 74.4633 164.762 72.7229 169.859 77.5711C173.961 81.5491 175.702 81.6734 178.561 78.1927C180.674 75.5821 180.798 75.5821 184.031 77.5711C188.133 80.306 192.111 79.1872 193.105 75.0848C194.1 71.2311 197.705 70.9825 197.083 74.8362ZM114.788 87.6404C113.172 88.8835 113.297 89.3808 115.659 91.7427C117.648 93.856 117.896 94.8505 116.902 95.845C115.783 96.9639 114.913 96.9639 113.421 95.7207C111.929 94.4776 111.183 94.4776 109.692 95.7207C108.2 96.9639 107.827 100.32 107.827 110.763C107.827 118.221 107.578 124.313 107.205 124.313C106.832 124.313 104.346 122.945 101.611 121.205C96.0172 117.6 95.8929 116.978 97.3846 94.8505L98.2548 83.5381L107.081 81.922L115.907 80.1817L116.28 83.2895C116.529 84.9055 115.907 86.8945 114.788 87.6404ZM132.938 85.5271C138.656 92.9859 139.9 96.3423 139.278 102.185L138.656 106.66L130.452 103.552C125.852 101.936 121.626 100.072 121.128 99.5744C120.631 99.0772 119.885 95.9694 119.388 92.6129C118.766 86.8945 118.891 86.3973 122.869 83.1652C125.231 81.1762 127.344 79.5601 127.717 79.5601C128.09 79.5601 130.452 82.295 132.938 85.5271ZM192.732 85.4028C193.105 86.6459 194.597 94.4776 196.213 102.807C198.948 117.227 198.948 117.973 196.835 121.205C194.224 125.183 187.884 128.042 181.917 128.042H177.691L176.945 116.481C176.572 110.265 176.075 103.055 175.826 100.693C175.577 97.0882 174.956 96.218 171.848 95.3478C168.491 94.3533 168.119 93.7317 168.119 89.7537V85.1542L177.193 85.6514C182.912 85.9 186.89 85.5271 187.76 84.6569C189.749 82.6679 192.111 83.0408 192.732 85.4028ZM164.886 96.4666C164.141 97.3368 163.022 97.834 162.4 97.4611C160.411 96.3423 161.157 88.5106 163.519 86.273C165.508 84.1597 165.632 84.284 166.005 89.3808C166.254 92.24 165.757 95.4721 164.886 96.4666ZM159.914 97.2125C160.038 99.8231 158.671 101.563 154.32 105.044C147.856 109.892 146.612 110.141 143.38 107.779C140.77 105.79 141.018 99.5744 143.878 98.0827C144.872 97.4611 148.601 95.3478 151.958 93.3588C158.795 89.2565 159.79 89.7537 159.914 97.2125ZM114.664 98.4556C117.275 99.5744 119.015 101.936 117.15 101.936C115.659 101.936 110.313 98.9529 110.313 97.9584C110.313 96.5909 110.81 96.7152 114.664 98.4556ZM171.724 98.5799C173.464 99.5744 174.583 100.693 174.086 101.066C173.215 101.936 173.464 117.227 174.458 122.324C174.831 124.561 174.086 126.053 171.351 127.918C169.362 129.409 167.373 130.528 166.875 130.528C166.502 130.528 163.768 132.144 160.908 134.009C158.049 135.998 153.698 138.733 151.212 140.225L146.861 142.835V129.534L146.985 116.232L151.088 114.989C153.201 114.368 155.066 113.125 155.066 112.379C155.066 111.508 156.309 110.39 157.801 109.892C159.292 109.519 161.654 108.028 163.022 106.66C164.513 105.293 166.875 103.677 168.491 103.055C171.848 101.688 172.097 99.4501 168.74 99.4501C167.373 99.4501 166.254 98.8286 166.254 98.207C166.254 96.4666 167.87 96.5909 171.724 98.5799ZM165.011 101.812C165.011 102.434 164.141 103.304 163.022 103.677C160.038 104.796 159.541 104.547 161.281 102.558C163.022 100.445 165.011 100.072 165.011 101.812ZM123.366 103.179C123.739 103.801 123.49 104.423 122.869 104.423C122.123 104.423 121.501 103.801 121.501 103.179C121.501 102.434 121.75 101.936 121.999 101.936C122.371 101.936 122.993 102.434 123.366 103.179ZM127.717 105.79C127.717 106.536 127.22 106.66 126.474 106.287C125.852 105.914 125.231 104.92 125.231 104.298C125.231 103.552 125.852 103.428 126.474 103.801C127.22 104.174 127.717 105.168 127.717 105.79ZM155.812 108.898C154.444 109.768 153.077 110.39 152.704 110.017C152.455 109.644 153.201 108.525 154.568 107.655C155.812 106.66 157.179 106.163 157.552 106.536C157.925 106.785 157.055 107.903 155.812 108.898ZM138.905 109.022C139.154 109.271 138.656 110.017 137.662 110.638C135.797 111.757 132.689 110.141 132.689 107.903C132.689 106.909 137.413 107.655 138.905 109.022ZM147.98 113.373C146.488 114.989 145.494 115.238 143.753 114.243C140.024 112.379 141.018 110.763 145.618 111.011C149.596 111.26 149.72 111.384 147.98 113.373ZM134.554 123.07C134.927 123.691 134.43 124.313 133.435 124.313C132.316 124.313 131.446 123.691 131.446 123.07C131.446 122.324 131.944 121.826 132.565 121.826C133.311 121.826 134.181 122.324 134.554 123.07ZM129.83 127.048C129.457 128.042 129.084 127.669 129.084 126.302C128.96 124.934 129.333 124.188 129.706 124.686C130.079 125.059 130.203 126.177 129.83 127.048ZM135.176 128.042C135.176 128.664 134.678 129.285 134.057 129.285C133.311 129.285 132.441 128.664 132.068 128.042C131.695 127.296 132.192 126.799 133.187 126.799C134.306 126.799 135.176 127.296 135.176 128.042ZM130.203 131.15C130.203 132.144 129.706 133.015 128.96 133.015C128.338 133.015 127.717 132.144 127.717 131.15C127.717 130.155 128.338 129.285 128.96 129.285C129.706 129.285 130.203 130.155 130.203 131.15ZM135.176 133.76C135.176 135.501 133.684 136.122 132.316 134.755C131.198 133.636 132.814 130.404 134.057 131.274C134.678 131.647 135.176 132.766 135.176 133.76ZM129.582 136.744C129.955 137.365 130.079 137.987 129.706 137.987C129.333 137.987 128.711 137.365 128.338 136.744C127.966 135.998 127.841 135.501 128.214 135.501C128.587 135.501 129.209 135.998 129.582 136.744ZM134.803 138.857C134.306 139.23 133.56 139.23 133.062 138.857C132.689 138.36 133.062 137.987 133.933 137.987C134.803 137.987 135.176 138.36 134.803 138.857Z"/>
</mask>
<path d="M150.093 9.94501C150.093 19.6414 149.969 19.89 146.985 19.89C145.369 19.89 143.505 20.8845 142.759 22.0033C141.64 24.1167 141.516 24.1167 139.154 21.879C135.922 19.0198 130.949 19.6414 130.452 22.9978C129.706 26.8515 128.214 27.7217 125.355 25.857C123.117 24.4896 122.496 24.4896 121.501 26.1057C119.512 29.2135 120.134 36.4236 122.744 39.7801C124.609 42.142 125.231 44.8769 125.231 51.8384C125.231 60.1673 124.982 60.9132 121.75 63.2751C118.518 65.5128 118.021 65.6371 116.156 63.7724C114.54 62.1563 113.794 62.032 112.302 63.2751C110.935 64.394 109.816 64.5183 107.951 63.3995C105.092 61.9077 101.114 63.3995 99.9952 66.1343C99.6223 67.2531 98.8764 67.1288 97.6333 65.5128C95.52 62.6536 91.9149 63.8967 90.9204 67.8747C89.8016 72.2256 91.4176 78.9385 94.0282 81.3005C95.8929 83.0408 96.1415 84.284 95.2713 88.6349C94.7741 91.4941 94.2768 99.5744 94.1525 106.536C94.1525 120.459 94.7741 121.702 104.222 125.556C109.692 127.918 110.562 125.929 109.692 113.497C109.194 107.157 109.443 103.055 110.189 102.558C112.054 101.439 116.529 104.174 116.529 106.536C116.529 108.028 116.902 108.152 118.145 107.033C119.885 105.666 127.717 107.779 127.717 109.644C127.717 110.141 128.711 110.638 129.955 110.638C131.198 110.638 133.187 111.384 134.554 112.379C135.922 113.249 138.532 114.368 140.521 114.865C143.878 115.611 143.878 115.735 144.002 127.172C144.126 138.36 144.002 141.965 143.256 142.711C143.132 142.835 141.516 142.338 139.651 141.592C136.543 140.1 136.419 139.603 136.419 131.026C136.419 122.697 136.17 121.826 133.062 119.464C130.079 116.978 129.706 116.978 127.468 118.843C125.852 120.459 125.231 122.697 125.231 128.166V135.501L118.145 132.269C107.33 127.42 107.454 127.42 108.076 129.285C108.324 130.28 114.664 133.636 122.247 136.744C129.706 139.976 137.786 143.457 140.273 144.7C145.245 147.062 144.002 147.559 165.632 134.133C172.469 129.907 173.713 129.658 179.928 130.155C188.381 130.901 195.343 128.042 199.321 122.199L201.932 118.346L199.57 106.66C195.094 84.284 194.97 82.295 197.581 80.0573C200.067 77.6954 200.44 72.7229 198.575 67.8747C197.208 64.2696 193.478 63.6481 191.116 66.5073C189.749 68.1233 189.376 68.1233 188.133 66.6316C187.387 65.6371 185.647 64.6426 184.279 64.394C182.042 64.021 181.793 63.1508 182.166 56.1893C182.539 51.4654 182.042 47.7361 181.171 46.6172C180.053 45.3741 180.177 44.2553 181.793 41.7691C184.403 37.791 183.16 27.846 179.804 26.1057C176.945 24.4896 172.469 24.4896 172.469 26.1057C172.469 28.3433 169.735 27.3488 169.113 24.9868C168.243 21.6304 161.406 20.1386 159.417 22.8735C158.546 23.9923 157.428 24.8625 156.93 24.8625C155.066 24.8625 152.704 20.5116 152.579 17.2795C152.579 14.4203 153.201 13.923 159.79 12.5556C163.643 11.6854 167.621 10.6909 168.367 10.4423C170.48 9.94501 168.989 6.21564 166.627 6.21564C163.519 6.21564 152.579 2.23763 152.579 1.11882C152.579 0.497253 152.082 0 151.336 0C150.59 0 150.093 4.10233 150.093 9.94501ZM161.779 7.58307C162.4 8.20464 161.53 9.19914 159.541 9.94501C154.196 11.934 152.579 11.5611 152.579 8.08032C152.579 5.34544 152.952 5.09682 156.682 5.8427C158.795 6.21564 161.157 6.9615 161.779 7.58307ZM151.461 33.5644C152.082 33.5644 152.579 31.9483 152.579 29.835C152.579 26.4786 152.828 26.23 156.06 26.8515C158.422 27.3488 160.038 26.9758 161.157 25.6084C162.897 23.6194 166.254 24.241 166.254 26.6029C166.254 27.4731 167.746 28.9649 169.486 29.9594C172.345 31.4511 172.842 31.3268 174.458 29.3378C175.826 27.4731 176.447 27.2245 177.939 28.4676C179.182 29.5864 179.431 30.7052 178.685 32.0727C178.064 33.3158 177.318 35.3048 176.82 36.5479C176.323 38.4126 175.826 38.6612 174.707 37.5424C172.345 35.1805 167.248 35.802 164.141 38.7855L161.157 41.5204L160.411 38.6612C159.79 36.0507 159.168 35.802 154.817 36.4236C152.082 36.7965 148.85 38.0397 147.483 39.2828C145.121 41.3961 144.996 41.3961 144.375 39.0342C144.002 37.6667 141.889 35.802 139.775 35.0562C136.17 33.6887 135.549 33.813 133.808 36.2993L131.695 38.9099L129.582 34.9319C127.593 30.9538 127.593 30.7052 130.079 28.0947C131.571 26.6029 132.689 24.6139 132.689 23.868C132.689 21.6304 135.797 22.1277 138.284 24.8625C140.397 27.2245 140.521 27.2245 144.996 24.1167L149.472 21.1331L149.845 27.3488C150.093 30.7052 150.715 33.5644 151.461 33.5644ZM125.231 27.9703C125.231 28.3433 124.982 28.5919 124.609 28.5919C124.236 28.5919 123.988 28.3433 123.988 27.9703C123.988 27.5974 124.236 27.3488 124.609 27.3488C124.982 27.3488 125.231 27.5974 125.231 27.9703ZM126.474 33.5644C126.474 36.0507 130.576 41.0232 132.565 41.0232C133.187 41.0232 134.181 39.9044 134.554 38.5369C135.673 35.1805 138.656 35.4291 140.273 39.0342C142.262 43.1365 147.483 44.0067 150.963 40.7746C153.574 38.2883 153.947 38.2883 156.806 40.2773C160.784 42.7635 165.757 42.8879 166.751 40.4016C167.497 38.2883 171.351 37.9154 173.34 39.9044C175.08 41.6447 179.928 38.6612 179.928 35.802C179.928 34.5589 180.55 33.5644 181.296 33.5644C183.658 33.5644 181.917 38.9099 178.685 41.1475C171.848 46.2443 144.872 47.7361 133.435 43.7581C126.847 41.5204 121.874 36.2993 123.117 33.0672C124.236 30.208 126.474 30.5809 126.474 33.5644ZM138.284 47.4874C145.867 49.1035 169.362 48.109 174.086 45.8714C175.95 45.0012 177.815 44.6282 178.188 45.1255C178.561 45.4984 179.182 50.3466 179.555 55.8164C180.053 62.9022 179.804 66.383 178.685 67.7504C176.572 70.361 174.956 70.1123 174.956 67.1288C174.956 64.5183 172.221 64.8912 168.616 67.999C166.875 69.4908 166.378 69.4908 165.881 68.1233C165.508 66.8802 164.762 67.1288 163.395 68.8692C162.027 70.7339 161.903 72.35 162.773 75.7064C163.519 78.1927 164.638 80.9275 165.259 81.6734C166.005 82.6679 166.13 83.2895 165.384 83.2895C164.762 83.2895 160.411 79.3115 155.687 74.4633C149.845 68.4963 146.612 66.01 145.245 66.5073C144.126 66.8802 139.402 69.4908 134.803 72.35C130.203 75.0848 126.101 77.1982 125.852 76.8252C125.479 76.5766 125.852 74.339 126.474 71.977C127.22 69.7394 127.717 62.5293 127.717 56.065C127.717 45.4984 127.966 44.5039 129.83 45.3741C131.073 45.7471 134.803 46.7416 138.284 47.4874ZM116.529 65.6371C116.529 66.2586 115.161 67.999 113.545 69.4908C110.935 71.8527 110.189 72.1013 107.951 70.7339C105.838 69.2421 105.092 69.4908 102.481 71.8527L99.6223 74.5876L96.8874 71.7284C93.4066 67.999 93.158 64.5183 96.6388 67.7504C99.0007 69.8637 102.854 69.6151 102.854 67.1288C102.854 65.5128 106.957 65.5128 108.573 67.1288C109.443 67.999 110.686 67.7504 112.302 66.5073C115.037 64.5183 116.529 64.1453 116.529 65.6371ZM125.231 65.6371C125.231 67.0045 120.134 69.8637 119.264 68.9935C118.766 68.4963 119.512 67.3775 120.755 66.383C123.49 64.5183 125.231 64.1453 125.231 65.6371ZM176.447 72.1013C177.318 72.1013 179.182 70.8582 180.798 69.3665C183.409 66.8802 183.782 66.8802 185.895 68.7449C188.754 71.3555 189.749 71.3555 192.608 68.7449C193.851 67.6261 194.846 67.3775 194.846 68.1233C194.846 68.8692 194.224 69.8637 193.478 70.2366C192.857 70.7339 191.614 72.4743 190.992 74.2147C189.873 77.1982 189.625 77.1982 187.014 75.4578C183.658 73.2202 177.566 74.0903 175.329 76.9495C173.961 78.6899 173.713 78.6899 171.972 76.4523C169.859 73.7174 169.61 72.1013 170.729 68.9935C171.475 67.2531 171.724 67.3775 173.34 69.6151C174.334 70.9825 175.702 72.1013 176.447 72.1013ZM115.037 76.5766C112.675 79.0628 99.498 81.0518 96.5145 79.5601C94.1525 78.1927 92.1635 73.7174 93.4066 72.35C93.9039 71.977 95.0227 72.8472 96.1415 74.339C98.5035 77.6954 100.12 77.8197 103.476 74.5876C105.962 72.35 106.335 72.2256 107.827 73.966C110.065 76.7009 112.178 76.2037 114.167 72.4743C115.907 69.2421 115.907 69.2421 116.28 72.1013C116.529 73.5931 115.907 75.7064 115.037 76.5766ZM123.366 74.8362C122.869 77.8197 121.75 81.0518 120.755 82.0463C119.264 83.5381 119.015 83.0408 119.015 78.1927C119.015 72.9715 120.631 69.6151 123.117 69.6151C123.739 69.6151 123.863 71.977 123.366 74.8362ZM154.196 76.8252C158.049 80.8032 161.281 84.284 161.281 84.7812C161.281 85.6514 145.618 94.4776 144.002 94.4776C142.759 94.4776 129.83 78.317 130.452 77.5711C131.695 76.328 144.623 69.6151 145.742 69.6151C146.488 69.6151 150.218 72.8472 154.196 76.8252ZM197.083 74.8362C196.462 79.0628 189.625 82.295 180.053 83.0408C171.972 83.5381 171.599 83.5381 167.621 79.4358C162.649 74.4633 164.762 72.7229 169.859 77.5711C173.961 81.5491 175.702 81.6734 178.561 78.1927C180.674 75.5821 180.798 75.5821 184.031 77.5711C188.133 80.306 192.111 79.1872 193.105 75.0848C194.1 71.2311 197.705 70.9825 197.083 74.8362ZM114.788 87.6404C113.172 88.8835 113.297 89.3808 115.659 91.7427C117.648 93.856 117.896 94.8505 116.902 95.845C115.783 96.9639 114.913 96.9639 113.421 95.7207C111.929 94.4776 111.183 94.4776 109.692 95.7207C108.2 96.9639 107.827 100.32 107.827 110.763C107.827 118.221 107.578 124.313 107.205 124.313C106.832 124.313 104.346 122.945 101.611 121.205C96.0172 117.6 95.8929 116.978 97.3846 94.8505L98.2548 83.5381L107.081 81.922L115.907 80.1817L116.28 83.2895C116.529 84.9055 115.907 86.8945 114.788 87.6404ZM132.938 85.5271C138.656 92.9859 139.9 96.3423 139.278 102.185L138.656 106.66L130.452 103.552C125.852 101.936 121.626 100.072 121.128 99.5744C120.631 99.0772 119.885 95.9694 119.388 92.6129C118.766 86.8945 118.891 86.3973 122.869 83.1652C125.231 81.1762 127.344 79.5601 127.717 79.5601C128.09 79.5601 130.452 82.295 132.938 85.5271ZM192.732 85.4028C193.105 86.6459 194.597 94.4776 196.213 102.807C198.948 117.227 198.948 117.973 196.835 121.205C194.224 125.183 187.884 128.042 181.917 128.042H177.691L176.945 116.481C176.572 110.265 176.075 103.055 175.826 100.693C175.577 97.0882 174.956 96.218 171.848 95.3478C168.491 94.3533 168.119 93.7317 168.119 89.7537V85.1542L177.193 85.6514C182.912 85.9 186.89 85.5271 187.76 84.6569C189.749 82.6679 192.111 83.0408 192.732 85.4028ZM164.886 96.4666C164.141 97.3368 163.022 97.834 162.4 97.4611C160.411 96.3423 161.157 88.5106 163.519 86.273C165.508 84.1597 165.632 84.284 166.005 89.3808C166.254 92.24 165.757 95.4721 164.886 96.4666ZM159.914 97.2125C160.038 99.8231 158.671 101.563 154.32 105.044C147.856 109.892 146.612 110.141 143.38 107.779C140.77 105.79 141.018 99.5744 143.878 98.0827C144.872 97.4611 148.601 95.3478 151.958 93.3588C158.795 89.2565 159.79 89.7537 159.914 97.2125ZM114.664 98.4556C117.275 99.5744 119.015 101.936 117.15 101.936C115.659 101.936 110.313 98.9529 110.313 97.9584C110.313 96.5909 110.81 96.7152 114.664 98.4556ZM171.724 98.5799C173.464 99.5744 174.583 100.693 174.086 101.066C173.215 101.936 173.464 117.227 174.458 122.324C174.831 124.561 174.086 126.053 171.351 127.918C169.362 129.409 167.373 130.528 166.875 130.528C166.502 130.528 163.768 132.144 160.908 134.009C158.049 135.998 153.698 138.733 151.212 140.225L146.861 142.835V129.534L146.985 116.232L151.088 114.989C153.201 114.368 155.066 113.125 155.066 112.379C155.066 111.508 156.309 110.39 157.801 109.892C159.292 109.519 161.654 108.028 163.022 106.66C164.513 105.293 166.875 103.677 168.491 103.055C171.848 101.688 172.097 99.4501 168.74 99.4501C167.373 99.4501 166.254 98.8286 166.254 98.207C166.254 96.4666 167.87 96.5909 171.724 98.5799ZM165.011 101.812C165.011 102.434 164.141 103.304 163.022 103.677C160.038 104.796 159.541 104.547 161.281 102.558C163.022 100.445 165.011 100.072 165.011 101.812ZM123.366 103.179C123.739 103.801 123.49 104.423 122.869 104.423C122.123 104.423 121.501 103.801 121.501 103.179C121.501 102.434 121.75 101.936 121.999 101.936C122.371 101.936 122.993 102.434 123.366 103.179ZM127.717 105.79C127.717 106.536 127.22 106.66 126.474 106.287C125.852 105.914 125.231 104.92 125.231 104.298C125.231 103.552 125.852 103.428 126.474 103.801C127.22 104.174 127.717 105.168 127.717 105.79ZM155.812 108.898C154.444 109.768 153.077 110.39 152.704 110.017C152.455 109.644 153.201 108.525 154.568 107.655C155.812 106.66 157.179 106.163 157.552 106.536C157.925 106.785 157.055 107.903 155.812 108.898ZM138.905 109.022C139.154 109.271 138.656 110.017 137.662 110.638C135.797 111.757 132.689 110.141 132.689 107.903C132.689 106.909 137.413 107.655 138.905 109.022ZM147.98 113.373C146.488 114.989 145.494 115.238 143.753 114.243C140.024 112.379 141.018 110.763 145.618 111.011C149.596 111.26 149.72 111.384 147.98 113.373ZM134.554 123.07C134.927 123.691 134.43 124.313 133.435 124.313C132.316 124.313 131.446 123.691 131.446 123.07C131.446 122.324 131.944 121.826 132.565 121.826C133.311 121.826 134.181 122.324 134.554 123.07ZM129.83 127.048C129.457 128.042 129.084 127.669 129.084 126.302C128.96 124.934 129.333 124.188 129.706 124.686C130.079 125.059 130.203 126.177 129.83 127.048ZM135.176 128.042C135.176 128.664 134.678 129.285 134.057 129.285C133.311 129.285 132.441 128.664 132.068 128.042C131.695 127.296 132.192 126.799 133.187 126.799C134.306 126.799 135.176 127.296 135.176 128.042ZM130.203 131.15C130.203 132.144 129.706 133.015 128.96 133.015C128.338 133.015 127.717 132.144 127.717 131.15C127.717 130.155 128.338 129.285 128.96 129.285C129.706 129.285 130.203 130.155 130.203 131.15ZM135.176 133.76C135.176 135.501 133.684 136.122 132.316 134.755C131.198 133.636 132.814 130.404 134.057 131.274C134.678 131.647 135.176 132.766 135.176 133.76ZM129.582 136.744C129.955 137.365 130.079 137.987 129.706 137.987C129.333 137.987 128.711 137.365 128.338 136.744C127.966 135.998 127.841 135.501 128.214 135.501C128.587 135.501 129.209 135.998 129.582 136.744ZM134.803 138.857C134.306 139.23 133.56 139.23 133.062 138.857C132.689 138.36 133.062 137.987 133.933 137.987C134.803 137.987 135.176 138.36 134.803 138.857Z" fill="#FFF8B3" stroke="#FFFBD5" stroke-width="0.103133" mask="url(#path-2-inside-1_2747_8200)"/>
<path d="M132.966 55.5619L132.966 55.562C133.09 56.7717 133.369 57.7005 133.716 58.3396C134.064 58.9798 134.478 59.3244 134.87 59.3772C135.259 59.4295 135.639 59.1954 135.924 58.6469C136.209 58.0985 136.395 57.2407 136.395 56.0618C136.395 54.7577 136.24 53.7993 135.916 53.1678C135.755 52.8525 135.552 52.6194 135.306 52.465C135.06 52.3107 134.77 52.2339 134.432 52.2339C134.093 52.2339 133.818 52.2956 133.6 52.4227C133.382 52.5497 133.218 52.7432 133.104 53.0108C132.873 53.548 132.841 54.3811 132.966 55.5619Z" fill="#FFF8B3" stroke="#FFFBD5" stroke-width="0.0515665"/>
<path d="M127.744 91.3648C127.744 92.2322 127.898 93.0057 128.13 93.5615C128.246 93.8394 128.38 94.0618 128.523 94.2142C128.666 94.3668 128.815 94.4469 128.961 94.4469C129.139 94.4469 129.303 94.3656 129.451 94.2138C129.6 94.0617 129.73 93.8398 129.838 93.562C130.054 93.0065 130.178 92.233 130.178 91.3648C130.178 90.4967 130.054 89.7232 129.838 89.1676C129.73 88.8898 129.6 88.6679 129.451 88.5159C129.303 88.3641 129.139 88.2828 128.961 88.2828C128.815 88.2828 128.666 88.3629 128.523 88.5155C128.38 88.6679 128.246 88.8903 128.13 89.1682C127.898 89.7239 127.744 90.4974 127.744 91.3648Z" fill="#FFF8B3" stroke="#FFFBD5" stroke-width="0.0515665"/>
<path d="M154.472 95.8592L154.472 95.8593L154.47 95.862C153.852 96.7899 153.952 97.5489 154.387 97.8783C154.822 98.2085 155.615 98.1256 156.42 97.3212C156.853 96.888 157.065 96.4898 157.08 96.1418C157.095 95.7963 156.916 95.4935 156.549 95.2485C155.814 94.8819 154.837 95.1286 154.472 95.8592Z" fill="#FFF8B3" stroke="#FFFBD5" stroke-width="0.0515665"/>
<path d="M145.761 100.824L145.761 100.824L145.759 100.827C145.141 101.755 145.241 102.514 145.676 102.843C146.111 103.173 146.904 103.09 147.709 102.286C148.142 101.853 148.354 101.455 148.369 101.107C148.384 100.761 148.205 100.458 147.838 100.213C147.103 99.8467 146.126 100.093 145.761 100.824Z" fill="#FFF8B3" stroke="#FFFBD5" stroke-width="0.0515665"/>
<path d="M166.276 112.503C166.276 113.682 166.431 114.767 166.663 115.556C166.779 115.952 166.915 116.271 167.058 116.492C167.203 116.714 167.352 116.828 167.493 116.828C167.667 116.828 167.831 116.712 167.981 116.491C168.13 116.271 168.261 115.952 168.37 115.557C168.586 114.767 168.71 113.682 168.71 112.503C168.71 111.323 168.586 110.238 168.37 109.448C168.261 109.053 168.13 108.734 167.981 108.514C167.831 108.293 167.667 108.177 167.493 108.177C167.352 108.177 167.203 108.291 167.058 108.513C166.915 108.734 166.779 109.054 166.663 109.449C166.431 110.238 166.276 111.324 166.276 112.503Z" fill="#FFF8B3" stroke="#FFFBD5" stroke-width="0.0515665"/>
<path d="M151.365 122.447C151.365 123.439 151.551 124.21 151.874 124.733C152.196 125.255 152.654 125.529 153.204 125.529C153.753 125.529 154.211 125.255 154.534 124.733C154.856 124.21 155.042 123.439 155.042 122.447C155.042 121.455 154.856 120.683 154.534 120.161C154.211 119.639 153.753 119.365 153.204 119.365C152.654 119.365 152.196 119.639 151.874 120.161C151.551 120.683 151.365 121.455 151.365 122.447Z" fill="#FFF8B3" stroke="#FFFBD5" stroke-width="0.0515665"/>
<path d="M135.204 110.017C135.204 110.198 135.264 110.346 135.367 110.45C135.47 110.553 135.619 110.613 135.799 110.613C135.98 110.613 136.128 110.553 136.232 110.45C136.335 110.346 136.395 110.198 136.395 110.017C136.395 109.836 136.335 109.688 136.232 109.585C136.128 109.481 135.98 109.421 135.799 109.421C135.619 109.421 135.47 109.481 135.367 109.585C135.264 109.688 135.204 109.836 135.204 110.017Z" fill="#FFF8B3" stroke="#FFFBD5" stroke-width="0.0515665"/>
<path d="M116.308 114.986C116.432 116.166 116.618 117.253 116.804 118.044C116.898 118.44 116.991 118.761 117.075 118.983C117.118 119.094 117.158 119.179 117.194 119.236C117.213 119.264 117.229 119.285 117.244 119.298C117.259 119.311 117.27 119.314 117.277 119.314C117.283 119.314 117.292 119.311 117.305 119.299C117.318 119.286 117.332 119.266 117.346 119.238C117.376 119.181 117.405 119.097 117.434 118.986C117.492 118.764 117.546 118.443 117.593 118.047C117.686 117.256 117.748 116.169 117.748 114.989C117.748 113.81 117.624 112.724 117.438 111.934C117.345 111.538 117.237 111.218 117.122 110.998C117.064 110.887 117.005 110.803 116.947 110.747C116.889 110.69 116.832 110.664 116.779 110.664C116.727 110.664 116.675 110.69 116.624 110.745C116.573 110.801 116.525 110.885 116.481 110.995C116.393 111.216 116.323 111.535 116.277 111.931C116.184 112.721 116.184 113.807 116.308 114.986Z" fill="#FFF8B3" stroke="#FFFBD5" stroke-width="0.0515665"/>
<path d="M114.069 117.474C114.069 117.655 114.129 117.803 114.232 117.907C114.335 118.01 114.484 118.07 114.665 118.07C114.845 118.07 114.994 118.01 115.097 117.907C115.2 117.803 115.26 117.655 115.26 117.474C115.26 117.294 115.2 117.145 115.097 117.042C114.994 116.938 114.845 116.878 114.665 116.878C114.484 116.878 114.335 116.938 114.232 117.042C114.129 117.145 114.069 117.294 114.069 117.474Z" fill="#FFF8B3" stroke="#FFFBD5" stroke-width="0.0515665"/>
<mask id="path-12-inside-2_2747_8200" fill="white">
<path d="M17.1841 40.9871C16.8093 41.3619 16.497 41.9241 16.497 42.2365C16.497 43.3922 15.31 45.9535 14.3417 46.9531C13.8107 47.4841 13.1235 48.3587 12.8736 48.9209C12.2489 50.1391 10.5622 51.9195 10.0312 51.9195C9.31278 51.9195 9.09413 52.9815 8.90671 57.2608C8.75054 60.5405 8.81301 61.8836 9.1566 63.1955C10.1561 66.7876 10.1561 66.7876 8.75054 67.506C7.15752 68.3182 7.15752 68.3182 6.90764 70.7233C6.68899 72.8473 6.53281 73.066 4.40879 74.0967C2.78454 74.9089 2.50343 75.6898 2.47219 79.8753C2.47219 84.0297 2.19107 85.9663 1.62883 85.9663C1.37895 85.9663 1.19153 86.1224 1.19153 86.2786C1.19153 86.466 0.879176 86.7471 0.50435 86.9033C-0.151597 87.1532 -0.151597 87.1844 0.410643 87.2157C1.12906 87.2469 2.1286 87.9341 2.1286 88.3714C2.1286 88.8712 3.12814 89.6521 4.0652 89.8707C4.5025 89.9956 5.12721 90.3705 5.43957 90.6828C6.06428 91.37 8.50065 92.5257 9.31278 92.5257C9.62513 92.5257 10.1874 92.2758 10.5934 91.9322C11.2494 91.4012 11.3743 91.4012 12.0303 91.8073C12.4988 92.1197 13.4046 92.2758 14.5603 92.2446C15.5287 92.2134 16.497 92.1821 16.6531 92.1821C16.8405 92.1821 17.7464 92.2758 18.7147 92.4008C20.0578 92.557 20.6825 92.4945 21.4634 92.0572C22.7128 91.4325 23.1501 91.6511 21.9007 92.3383C21.4322 92.5882 21.1511 92.8068 21.276 92.8381C21.4322 92.8381 21.807 92.6819 22.1506 92.5257C22.5879 92.2758 22.9315 92.3071 23.4312 92.6819C24.4308 93.3691 25.2117 93.2754 25.6177 92.3695C25.8051 91.9322 26.18 91.5887 26.4611 91.5887C26.8984 91.5887 26.8984 91.5262 26.4923 91.2763C26.1487 91.0577 26.1487 90.9639 26.4299 90.9639C26.6485 90.9639 27.242 91.2763 27.773 91.6511C28.7101 92.3383 28.7101 92.3383 30.1781 91.7761C31.5213 91.2451 32.0835 91.1514 34.7073 90.9952C35.8318 90.9639 35.7381 90.1831 34.4886 89.121C33.6765 88.4026 33.6453 88.3402 34.1763 88.0903C34.676 87.8716 34.676 87.8404 34.0826 87.9653C33.5516 88.059 33.1767 87.8404 32.7082 87.1844C32.3334 86.6222 31.8024 86.2786 31.3338 86.2786C30.9278 86.2786 30.1781 85.9038 29.6159 85.4665C29.0224 84.9355 28.3977 84.6856 27.9604 84.7793C27.3357 84.9042 27.2732 84.7793 27.2732 83.5299C27.2732 82.4054 27.4606 81.9993 28.1478 81.4059C29.4285 80.3126 29.8033 79.0944 30.3655 74.4091C30.6779 72.0977 31.0215 69.5988 31.1777 68.8492C31.5525 67.1937 31.5837 66.0067 31.2089 64.851C31.0527 64.3513 30.7716 63.3205 30.553 62.5396C30.3343 61.7587 29.9282 60.6342 29.6159 60.0407C29.0536 58.9787 28.2103 52.513 27.8355 46.6719L27.648 44.0794L26.3986 43.4547C24.9306 42.6738 22.5254 41.9241 21.6196 41.9241C21.2448 41.9241 20.745 41.643 20.5263 41.3307C19.8392 40.3936 18.0275 40.2062 17.1841 40.9871ZM19.7767 41.9241C20.089 42.2677 20.6513 42.5488 20.9949 42.5801C21.6196 42.5801 21.6196 42.6113 20.9636 42.8924C19.5893 43.4547 18.8396 43.8295 19.3706 43.6733C19.683 43.5796 19.9953 43.6421 20.1203 43.8295C20.214 44.0169 20.6825 44.0794 21.1198 43.9857C21.5883 43.892 22.6504 43.7358 23.4937 43.6109C24.8681 43.4547 24.993 43.5171 24.6182 43.9232C24.2746 44.3605 24.3371 44.423 24.8993 44.423C25.2429 44.423 25.6177 44.3917 25.649 44.3293C25.7114 44.298 25.9926 44.4542 26.2424 44.6729C26.8047 45.1102 27.3045 48.0775 27.7418 53.4813C28.1791 58.7601 28.1791 58.885 27.4294 58.479C26.4611 57.948 26.6797 58.3853 28.0541 59.6347C28.8662 60.3219 29.2098 60.8841 29.0224 61.0715C28.8662 61.2277 29.0224 61.9774 29.5222 63.0394C29.9282 63.9764 30.2406 64.9135 30.1469 65.1321C30.0844 65.3196 29.8345 64.9135 29.6159 64.1638C29.3972 63.4454 29.0849 62.8519 28.9599 62.8519C28.835 62.8519 28.9599 63.5079 29.2098 64.32C29.5222 65.2571 29.7096 67.1 29.7408 69.2552C29.7721 72.2851 29.6784 72.8473 29.0536 74.0967C28.6476 74.8776 28.0853 75.7522 27.8042 76.0646C27.3357 76.5956 27.2732 76.5644 26.3986 75.7522C25.1804 74.5653 24.056 72.3163 23.4937 69.7862C23.0877 68.0058 23.0877 67.506 23.4312 66.444C23.8685 65.1634 24.3995 64.851 25.7114 65.1634C26.6485 65.4133 27.6168 67.4436 27.8979 69.7238C28.0853 71.2231 28.0229 71.5667 27.4606 72.2226L26.8047 73.0035L26.18 72.2226C25.3679 71.1918 24.5557 68.7242 24.8056 68.0371C25.2117 66.9438 26.0238 67.6622 26.3049 69.3489C26.4611 70.2235 26.711 70.9732 26.8359 70.9732C27.4919 70.9732 26.7735 67.5685 25.9926 67.0063C25.6177 66.7252 25.3054 66.7252 24.8368 66.9438C23.931 67.4436 24.2121 70.4734 25.3366 72.1914C26.8984 74.534 28.3665 73.5033 28.3665 70.0986C28.3665 66.6939 26.9609 64.4137 24.8993 64.4137C23.3063 64.4137 22.7441 65.2571 22.7441 67.5685C22.7441 70.6296 24.3683 74.7839 26.2737 76.5331C27.2732 77.4702 28.0853 77.2515 28.8662 75.8147C29.1786 75.2212 29.4909 74.7839 29.5222 74.8464C29.8033 75.0963 28.6476 79.8129 28.2103 80.2501C27.7418 80.6874 27.648 80.6874 26.9296 80.0003C26.5236 79.6254 25.8051 78.5322 25.3679 77.6264C24.8993 76.7205 24.4933 75.9709 24.462 75.9709C24.1809 75.9709 24.993 78.0324 25.8364 79.5317C27.0546 81.6245 27.0858 82.3117 26.0238 82.0306C25.0867 81.8119 25.0243 81.9993 25.8676 82.8427C26.2737 83.2488 26.4923 83.8735 26.4923 84.5919C26.4923 85.7788 25.9926 88.3402 25.5865 89.0898C25.4616 89.3397 25.3679 90.0581 25.3991 90.6516C25.4303 91.2451 25.3054 91.901 25.1804 92.0884C24.8993 92.4632 23.6811 92.3071 23.6811 91.9322C23.6811 91.37 24.1184 91.3388 24.4933 91.8385C24.7744 92.2134 24.8993 92.2446 24.9306 91.9635C24.9306 91.7136 24.6494 91.1826 24.3058 90.7453L23.6811 89.9332V90.7765C23.6811 91.2138 23.5562 91.5887 23.4 91.5887C22.7441 91.5887 22.7753 90.9639 23.4312 89.4959C24.056 88.0903 24.4933 85.2791 24.6494 81.156L24.7119 79.5942L25.649 80.6874C26.6797 81.8744 26.4923 81.4059 25.1804 79.5942C24.7119 78.9383 24.3058 78.1261 24.3058 77.8138C24.3058 77.5014 24.0247 76.783 23.6499 76.2208C23.2751 75.6585 23.0877 75.4711 23.2126 75.8147C23.8373 77.6888 24.0247 79.7816 23.931 83.5299C23.8061 87.1532 23.7124 87.8716 23.0564 89.1835C22.5879 90.0893 22.1506 90.6204 21.9007 90.5266C21.6821 90.4329 21.4946 90.5266 21.4946 90.7453C21.4946 90.9639 21.1198 91.3075 20.6513 91.4949C19.6205 91.9947 19.3082 91.9947 19.3082 91.5574C19.3082 91.37 19.4956 91.2763 19.7142 91.37C19.9016 91.4325 20.2452 91.3388 20.4639 91.1201C20.9012 90.6204 20.5888 90.2143 20.1203 90.6516C19.8704 90.839 19.7142 90.6516 19.683 89.9644C19.558 88.59 19.3082 88.4339 19.3082 89.7458C19.2769 90.6516 19.2457 90.7141 18.9646 90.2455C18.7771 89.9019 18.7147 89.121 18.8396 88.3714C19.0895 86.8721 18.7459 86.997 18.3711 88.5276L18.1212 89.5583L18.09 88.4026C18.0587 87.7467 18.2461 86.6847 18.496 86.06C19.1207 84.3732 19.7142 81.1872 19.5268 80.4688C19.4331 80.0315 19.3706 80.094 19.3394 80.7187C19.3394 81.1872 19.152 81.6558 18.9958 81.7495C18.8084 81.8744 18.7459 82.2492 18.8709 82.6241C19.027 83.1863 18.9958 83.2488 18.6834 82.9364C18.3711 82.6241 18.3711 82.2805 18.6834 81.0623C18.9021 80.2501 19.2769 79.1881 19.5268 78.7196C20.4326 76.8455 19.7142 72.941 18.1212 71.1918C17.559 70.5671 15.8722 69.2865 15.8722 69.4739C15.8722 69.5364 16.372 70.1611 16.9967 70.8482C19.1207 73.1284 19.9016 76.4082 18.8396 78.4697C18.5897 78.9383 18.3399 80.1877 18.2461 81.2185C18.1837 82.2805 17.9963 83.3112 17.8713 83.5299C17.7151 83.811 17.8088 83.7798 18.2149 83.4674C18.7147 83.0301 18.7459 83.0613 18.5897 83.6236C18.496 83.9672 18.2461 84.8418 18.0275 85.5602C17.8088 86.3098 17.559 86.9033 17.434 86.9033C17.0592 86.9033 15.5599 83.1863 15.5599 82.2805C15.5287 81.6245 15.4662 81.5308 15.2475 81.9369C14.9039 82.5303 15.5599 85.1854 16.3408 86.4036C16.8718 87.2157 17.8401 91.2763 17.5902 91.5574C17.4965 91.6199 16.9343 91.2763 16.3095 90.8078C15.31 90.0581 15.2163 90.0269 15.5287 90.6204C15.7473 90.9639 15.7785 91.2763 15.6536 91.2763C15.5287 91.2763 15.0914 91.37 14.7165 91.4637C14.1231 91.6199 13.9981 91.5262 13.9669 90.9327C13.9356 90.4017 13.8732 90.3392 13.7795 90.7141C13.717 91.0264 13.5296 91.2763 13.3734 91.2763C13.2172 91.2763 13.186 91.0577 13.2797 90.7453C13.4359 90.3705 13.3734 90.308 13.061 90.4954C12.7487 90.6828 12.6862 90.6204 12.8424 90.2455C13.0923 89.5896 11.9678 88.8712 11.6867 89.4959C11.593 89.6833 11.6242 89.4646 11.7179 88.9649C11.8429 88.3402 11.7804 88.1215 11.5617 88.2777C11.3119 88.4339 11.2494 88.3402 11.3743 88.0278C11.468 87.7467 11.4056 87.528 11.1869 87.528C10.9995 87.528 10.9058 87.4031 10.9995 87.2469C11.0932 87.0907 10.6247 86.3723 9.90625 85.6227L8.65683 84.2483L9.46895 85.6851C9.93749 86.5597 10.1874 87.3719 10.0624 87.7154C9.90625 88.2152 9.93749 88.2465 10.2498 87.8404C10.5622 87.4343 10.5934 87.4656 10.4373 87.9341C10.3435 88.2465 10.2498 88.7462 10.2498 89.0273C10.2186 89.4022 10.0937 89.3397 9.78131 88.7775C9.34401 88.0278 9.31278 88.0903 9.43772 89.8707C9.50019 90.9015 9.46895 91.3075 9.37525 90.8078L9.21907 89.8707L8.96918 90.6516C8.78177 91.2138 8.7193 91.0577 8.84424 90.0269C8.93795 89.0898 8.87548 88.8399 8.7193 89.246L8.43818 89.8707L8.31324 89.246C8.21953 88.9024 8.21953 89.0898 8.282 89.6521C8.43818 90.8078 7.87594 91.0264 7.46988 89.9332L7.18876 89.246L6.90764 89.9956C6.62652 90.6828 6.59528 90.6828 6.09551 90.1831C5.40833 89.5271 5.3771 86.6847 6.03304 85.1229C6.59528 83.811 6.62652 83.3425 6.09551 84.3108C5.87686 84.6856 5.59574 84.998 5.40833 84.998C5.25215 84.998 4.87733 85.7164 4.56497 86.6534C4.19015 87.9029 4.03397 88.1215 4.00273 87.528C3.94026 86.9658 3.84655 87.122 3.72161 87.9966L3.5342 89.246L2.97196 88.4339C2.50343 87.7154 2.47219 87.4031 2.78454 86.2474C2.97196 85.4977 3.22184 82.8739 3.31555 80.4376C3.5342 75.6585 3.75285 75.0963 5.50204 74.5653C6.18922 74.3779 6.22046 74.4091 6.15798 76.8142C6.15798 78.1574 6.3454 79.8753 6.56405 80.6562C7.03258 82.0306 7.03258 82.0306 6.8764 79.0944C6.7827 77.0329 6.90764 75.4711 7.25123 74.003C7.53235 72.8161 7.751 71.348 7.751 70.7233C7.751 69.4114 8.46942 68.162 9.21907 68.162C9.56266 68.162 9.65637 68.4119 9.56266 69.0991C9.46895 69.6613 9.53143 69.9424 9.6876 69.7862C9.93749 69.5364 10.1249 68.7242 10.2186 67.4436C10.2811 67.0375 10.9058 67.1937 12.5613 68.0058L14.1543 68.8179L12.6862 67.5373C10.4373 65.6007 9.84378 63.7578 9.75007 58.479C9.62513 53.044 9.71884 52.6379 10.8746 52.6379C11.4368 52.6379 11.8116 52.8253 11.8741 53.1065C11.9678 53.5125 12.0303 53.4813 12.4051 53.044C12.8112 52.5755 12.7799 52.4817 12.1552 52.3256L11.468 52.1382L12.2177 51.326C12.655 50.8887 13.2172 50.0141 13.4671 49.4207C13.7482 48.8272 14.248 47.9838 14.6228 47.5465L15.2475 46.7656L14.9352 47.6402C14.2792 49.5144 14.6228 49.8892 15.4349 48.1712C16.4345 46.0472 17.1217 44.1106 17.1217 43.4234C17.1217 43.1423 17.2466 42.5488 17.434 42.1115C17.8088 41.112 18.9646 41.0183 19.7767 41.9241ZM21.3385 43.4859C21.2448 43.6421 20.9012 43.7983 20.62 43.7983C20.1515 43.7983 20.1515 43.7358 20.5576 43.4859C21.1823 43.0798 21.5883 43.0798 21.3385 43.4859ZM30.8028 87.653C32.2397 89.0273 32.3646 88.9649 31.615 87.4343C31.2089 86.6222 31.4275 86.7471 32.7082 88.1527C33.5516 89.0898 34.27 89.9644 34.3012 90.0893C34.3012 90.2455 33.8952 90.3392 33.3642 90.3392C32.677 90.3392 32.4271 90.1831 32.4271 89.777C32.3958 89.2772 32.3958 89.2772 32.0835 89.8082C31.8961 90.0893 31.6462 90.2768 31.4588 90.1831C31.3026 90.0893 31.2714 90.1831 31.3651 90.4329C31.5525 90.9639 31.0215 91.2138 29.9282 91.1514C29.4909 91.1201 29.0536 91.2138 28.9599 91.37C28.6163 91.8698 28.0541 91.2763 28.0229 90.4017L27.9916 89.5583L27.7418 90.3392C27.5231 90.9952 27.4919 91.0264 27.4606 90.4954C27.4294 89.9956 27.3669 89.9644 27.1483 90.308C26.6173 91.1201 26.3986 89.2772 26.8047 87.4031C27.3357 84.8418 27.8355 84.873 30.8028 87.653Z"/>
</mask>
<path d="M17.1841 40.9871C16.8093 41.3619 16.497 41.9241 16.497 42.2365C16.497 43.3922 15.31 45.9535 14.3417 46.9531C13.8107 47.4841 13.1235 48.3587 12.8736 48.9209C12.2489 50.1391 10.5622 51.9195 10.0312 51.9195C9.31278 51.9195 9.09413 52.9815 8.90671 57.2608C8.75054 60.5405 8.81301 61.8836 9.1566 63.1955C10.1561 66.7876 10.1561 66.7876 8.75054 67.506C7.15752 68.3182 7.15752 68.3182 6.90764 70.7233C6.68899 72.8473 6.53281 73.066 4.40879 74.0967C2.78454 74.9089 2.50343 75.6898 2.47219 79.8753C2.47219 84.0297 2.19107 85.9663 1.62883 85.9663C1.37895 85.9663 1.19153 86.1224 1.19153 86.2786C1.19153 86.466 0.879176 86.7471 0.50435 86.9033C-0.151597 87.1532 -0.151597 87.1844 0.410643 87.2157C1.12906 87.2469 2.1286 87.9341 2.1286 88.3714C2.1286 88.8712 3.12814 89.6521 4.0652 89.8707C4.5025 89.9956 5.12721 90.3705 5.43957 90.6828C6.06428 91.37 8.50065 92.5257 9.31278 92.5257C9.62513 92.5257 10.1874 92.2758 10.5934 91.9322C11.2494 91.4012 11.3743 91.4012 12.0303 91.8073C12.4988 92.1197 13.4046 92.2758 14.5603 92.2446C15.5287 92.2134 16.497 92.1821 16.6531 92.1821C16.8405 92.1821 17.7464 92.2758 18.7147 92.4008C20.0578 92.557 20.6825 92.4945 21.4634 92.0572C22.7128 91.4325 23.1501 91.6511 21.9007 92.3383C21.4322 92.5882 21.1511 92.8068 21.276 92.8381C21.4322 92.8381 21.807 92.6819 22.1506 92.5257C22.5879 92.2758 22.9315 92.3071 23.4312 92.6819C24.4308 93.3691 25.2117 93.2754 25.6177 92.3695C25.8051 91.9322 26.18 91.5887 26.4611 91.5887C26.8984 91.5887 26.8984 91.5262 26.4923 91.2763C26.1487 91.0577 26.1487 90.9639 26.4299 90.9639C26.6485 90.9639 27.242 91.2763 27.773 91.6511C28.7101 92.3383 28.7101 92.3383 30.1781 91.7761C31.5213 91.2451 32.0835 91.1514 34.7073 90.9952C35.8318 90.9639 35.7381 90.1831 34.4886 89.121C33.6765 88.4026 33.6453 88.3402 34.1763 88.0903C34.676 87.8716 34.676 87.8404 34.0826 87.9653C33.5516 88.059 33.1767 87.8404 32.7082 87.1844C32.3334 86.6222 31.8024 86.2786 31.3338 86.2786C30.9278 86.2786 30.1781 85.9038 29.6159 85.4665C29.0224 84.9355 28.3977 84.6856 27.9604 84.7793C27.3357 84.9042 27.2732 84.7793 27.2732 83.5299C27.2732 82.4054 27.4606 81.9993 28.1478 81.4059C29.4285 80.3126 29.8033 79.0944 30.3655 74.4091C30.6779 72.0977 31.0215 69.5988 31.1777 68.8492C31.5525 67.1937 31.5837 66.0067 31.2089 64.851C31.0527 64.3513 30.7716 63.3205 30.553 62.5396C30.3343 61.7587 29.9282 60.6342 29.6159 60.0407C29.0536 58.9787 28.2103 52.513 27.8355 46.6719L27.648 44.0794L26.3986 43.4547C24.9306 42.6738 22.5254 41.9241 21.6196 41.9241C21.2448 41.9241 20.745 41.643 20.5263 41.3307C19.8392 40.3936 18.0275 40.2062 17.1841 40.9871ZM19.7767 41.9241C20.089 42.2677 20.6513 42.5488 20.9949 42.5801C21.6196 42.5801 21.6196 42.6113 20.9636 42.8924C19.5893 43.4547 18.8396 43.8295 19.3706 43.6733C19.683 43.5796 19.9953 43.6421 20.1203 43.8295C20.214 44.0169 20.6825 44.0794 21.1198 43.9857C21.5883 43.892 22.6504 43.7358 23.4937 43.6109C24.8681 43.4547 24.993 43.5171 24.6182 43.9232C24.2746 44.3605 24.3371 44.423 24.8993 44.423C25.2429 44.423 25.6177 44.3917 25.649 44.3293C25.7114 44.298 25.9926 44.4542 26.2424 44.6729C26.8047 45.1102 27.3045 48.0775 27.7418 53.4813C28.1791 58.7601 28.1791 58.885 27.4294 58.479C26.4611 57.948 26.6797 58.3853 28.0541 59.6347C28.8662 60.3219 29.2098 60.8841 29.0224 61.0715C28.8662 61.2277 29.0224 61.9774 29.5222 63.0394C29.9282 63.9764 30.2406 64.9135 30.1469 65.1321C30.0844 65.3196 29.8345 64.9135 29.6159 64.1638C29.3972 63.4454 29.0849 62.8519 28.9599 62.8519C28.835 62.8519 28.9599 63.5079 29.2098 64.32C29.5222 65.2571 29.7096 67.1 29.7408 69.2552C29.7721 72.2851 29.6784 72.8473 29.0536 74.0967C28.6476 74.8776 28.0853 75.7522 27.8042 76.0646C27.3357 76.5956 27.2732 76.5644 26.3986 75.7522C25.1804 74.5653 24.056 72.3163 23.4937 69.7862C23.0877 68.0058 23.0877 67.506 23.4312 66.444C23.8685 65.1634 24.3995 64.851 25.7114 65.1634C26.6485 65.4133 27.6168 67.4436 27.8979 69.7238C28.0853 71.2231 28.0229 71.5667 27.4606 72.2226L26.8047 73.0035L26.18 72.2226C25.3679 71.1918 24.5557 68.7242 24.8056 68.0371C25.2117 66.9438 26.0238 67.6622 26.3049 69.3489C26.4611 70.2235 26.711 70.9732 26.8359 70.9732C27.4919 70.9732 26.7735 67.5685 25.9926 67.0063C25.6177 66.7252 25.3054 66.7252 24.8368 66.9438C23.931 67.4436 24.2121 70.4734 25.3366 72.1914C26.8984 74.534 28.3665 73.5033 28.3665 70.0986C28.3665 66.6939 26.9609 64.4137 24.8993 64.4137C23.3063 64.4137 22.7441 65.2571 22.7441 67.5685C22.7441 70.6296 24.3683 74.7839 26.2737 76.5331C27.2732 77.4702 28.0853 77.2515 28.8662 75.8147C29.1786 75.2212 29.4909 74.7839 29.5222 74.8464C29.8033 75.0963 28.6476 79.8129 28.2103 80.2501C27.7418 80.6874 27.648 80.6874 26.9296 80.0003C26.5236 79.6254 25.8051 78.5322 25.3679 77.6264C24.8993 76.7205 24.4933 75.9709 24.462 75.9709C24.1809 75.9709 24.993 78.0324 25.8364 79.5317C27.0546 81.6245 27.0858 82.3117 26.0238 82.0306C25.0867 81.8119 25.0243 81.9993 25.8676 82.8427C26.2737 83.2488 26.4923 83.8735 26.4923 84.5919C26.4923 85.7788 25.9926 88.3402 25.5865 89.0898C25.4616 89.3397 25.3679 90.0581 25.3991 90.6516C25.4303 91.2451 25.3054 91.901 25.1804 92.0884C24.8993 92.4632 23.6811 92.3071 23.6811 91.9322C23.6811 91.37 24.1184 91.3388 24.4933 91.8385C24.7744 92.2134 24.8993 92.2446 24.9306 91.9635C24.9306 91.7136 24.6494 91.1826 24.3058 90.7453L23.6811 89.9332V90.7765C23.6811 91.2138 23.5562 91.5887 23.4 91.5887C22.7441 91.5887 22.7753 90.9639 23.4312 89.4959C24.056 88.0903 24.4933 85.2791 24.6494 81.156L24.7119 79.5942L25.649 80.6874C26.6797 81.8744 26.4923 81.4059 25.1804 79.5942C24.7119 78.9383 24.3058 78.1261 24.3058 77.8138C24.3058 77.5014 24.0247 76.783 23.6499 76.2208C23.2751 75.6585 23.0877 75.4711 23.2126 75.8147C23.8373 77.6888 24.0247 79.7816 23.931 83.5299C23.8061 87.1532 23.7124 87.8716 23.0564 89.1835C22.5879 90.0893 22.1506 90.6204 21.9007 90.5266C21.6821 90.4329 21.4946 90.5266 21.4946 90.7453C21.4946 90.9639 21.1198 91.3075 20.6513 91.4949C19.6205 91.9947 19.3082 91.9947 19.3082 91.5574C19.3082 91.37 19.4956 91.2763 19.7142 91.37C19.9016 91.4325 20.2452 91.3388 20.4639 91.1201C20.9012 90.6204 20.5888 90.2143 20.1203 90.6516C19.8704 90.839 19.7142 90.6516 19.683 89.9644C19.558 88.59 19.3082 88.4339 19.3082 89.7458C19.2769 90.6516 19.2457 90.7141 18.9646 90.2455C18.7771 89.9019 18.7147 89.121 18.8396 88.3714C19.0895 86.8721 18.7459 86.997 18.3711 88.5276L18.1212 89.5583L18.09 88.4026C18.0587 87.7467 18.2461 86.6847 18.496 86.06C19.1207 84.3732 19.7142 81.1872 19.5268 80.4688C19.4331 80.0315 19.3706 80.094 19.3394 80.7187C19.3394 81.1872 19.152 81.6558 18.9958 81.7495C18.8084 81.8744 18.7459 82.2492 18.8709 82.6241C19.027 83.1863 18.9958 83.2488 18.6834 82.9364C18.3711 82.6241 18.3711 82.2805 18.6834 81.0623C18.9021 80.2501 19.2769 79.1881 19.5268 78.7196C20.4326 76.8455 19.7142 72.941 18.1212 71.1918C17.559 70.5671 15.8722 69.2865 15.8722 69.4739C15.8722 69.5364 16.372 70.1611 16.9967 70.8482C19.1207 73.1284 19.9016 76.4082 18.8396 78.4697C18.5897 78.9383 18.3399 80.1877 18.2461 81.2185C18.1837 82.2805 17.9963 83.3112 17.8713 83.5299C17.7151 83.811 17.8088 83.7798 18.2149 83.4674C18.7147 83.0301 18.7459 83.0613 18.5897 83.6236C18.496 83.9672 18.2461 84.8418 18.0275 85.5602C17.8088 86.3098 17.559 86.9033 17.434 86.9033C17.0592 86.9033 15.5599 83.1863 15.5599 82.2805C15.5287 81.6245 15.4662 81.5308 15.2475 81.9369C14.9039 82.5303 15.5599 85.1854 16.3408 86.4036C16.8718 87.2157 17.8401 91.2763 17.5902 91.5574C17.4965 91.6199 16.9343 91.2763 16.3095 90.8078C15.31 90.0581 15.2163 90.0269 15.5287 90.6204C15.7473 90.9639 15.7785 91.2763 15.6536 91.2763C15.5287 91.2763 15.0914 91.37 14.7165 91.4637C14.1231 91.6199 13.9981 91.5262 13.9669 90.9327C13.9356 90.4017 13.8732 90.3392 13.7795 90.7141C13.717 91.0264 13.5296 91.2763 13.3734 91.2763C13.2172 91.2763 13.186 91.0577 13.2797 90.7453C13.4359 90.3705 13.3734 90.308 13.061 90.4954C12.7487 90.6828 12.6862 90.6204 12.8424 90.2455C13.0923 89.5896 11.9678 88.8712 11.6867 89.4959C11.593 89.6833 11.6242 89.4646 11.7179 88.9649C11.8429 88.3402 11.7804 88.1215 11.5617 88.2777C11.3119 88.4339 11.2494 88.3402 11.3743 88.0278C11.468 87.7467 11.4056 87.528 11.1869 87.528C10.9995 87.528 10.9058 87.4031 10.9995 87.2469C11.0932 87.0907 10.6247 86.3723 9.90625 85.6227L8.65683 84.2483L9.46895 85.6851C9.93749 86.5597 10.1874 87.3719 10.0624 87.7154C9.90625 88.2152 9.93749 88.2465 10.2498 87.8404C10.5622 87.4343 10.5934 87.4656 10.4373 87.9341C10.3435 88.2465 10.2498 88.7462 10.2498 89.0273C10.2186 89.4022 10.0937 89.3397 9.78131 88.7775C9.34401 88.0278 9.31278 88.0903 9.43772 89.8707C9.50019 90.9015 9.46895 91.3075 9.37525 90.8078L9.21907 89.8707L8.96918 90.6516C8.78177 91.2138 8.7193 91.0577 8.84424 90.0269C8.93795 89.0898 8.87548 88.8399 8.7193 89.246L8.43818 89.8707L8.31324 89.246C8.21953 88.9024 8.21953 89.0898 8.282 89.6521C8.43818 90.8078 7.87594 91.0264 7.46988 89.9332L7.18876 89.246L6.90764 89.9956C6.62652 90.6828 6.59528 90.6828 6.09551 90.1831C5.40833 89.5271 5.3771 86.6847 6.03304 85.1229C6.59528 83.811 6.62652 83.3425 6.09551 84.3108C5.87686 84.6856 5.59574 84.998 5.40833 84.998C5.25215 84.998 4.87733 85.7164 4.56497 86.6534C4.19015 87.9029 4.03397 88.1215 4.00273 87.528C3.94026 86.9658 3.84655 87.122 3.72161 87.9966L3.5342 89.246L2.97196 88.4339C2.50343 87.7154 2.47219 87.4031 2.78454 86.2474C2.97196 85.4977 3.22184 82.8739 3.31555 80.4376C3.5342 75.6585 3.75285 75.0963 5.50204 74.5653C6.18922 74.3779 6.22046 74.4091 6.15798 76.8142C6.15798 78.1574 6.3454 79.8753 6.56405 80.6562C7.03258 82.0306 7.03258 82.0306 6.8764 79.0944C6.7827 77.0329 6.90764 75.4711 7.25123 74.003C7.53235 72.8161 7.751 71.348 7.751 70.7233C7.751 69.4114 8.46942 68.162 9.21907 68.162C9.56266 68.162 9.65637 68.4119 9.56266 69.0991C9.46895 69.6613 9.53143 69.9424 9.6876 69.7862C9.93749 69.5364 10.1249 68.7242 10.2186 67.4436C10.2811 67.0375 10.9058 67.1937 12.5613 68.0058L14.1543 68.8179L12.6862 67.5373C10.4373 65.6007 9.84378 63.7578 9.75007 58.479C9.62513 53.044 9.71884 52.6379 10.8746 52.6379C11.4368 52.6379 11.8116 52.8253 11.8741 53.1065C11.9678 53.5125 12.0303 53.4813 12.4051 53.044C12.8112 52.5755 12.7799 52.4817 12.1552 52.3256L11.468 52.1382L12.2177 51.326C12.655 50.8887 13.2172 50.0141 13.4671 49.4207C13.7482 48.8272 14.248 47.9838 14.6228 47.5465L15.2475 46.7656L14.9352 47.6402C14.2792 49.5144 14.6228 49.8892 15.4349 48.1712C16.4345 46.0472 17.1217 44.1106 17.1217 43.4234C17.1217 43.1423 17.2466 42.5488 17.434 42.1115C17.8088 41.112 18.9646 41.0183 19.7767 41.9241ZM21.3385 43.4859C21.2448 43.6421 20.9012 43.7983 20.62 43.7983C20.1515 43.7983 20.1515 43.7358 20.5576 43.4859C21.1823 43.0798 21.5883 43.0798 21.3385 43.4859ZM30.8028 87.653C32.2397 89.0273 32.3646 88.9649 31.615 87.4343C31.2089 86.6222 31.4275 86.7471 32.7082 88.1527C33.5516 89.0898 34.27 89.9644 34.3012 90.0893C34.3012 90.2455 33.8952 90.3392 33.3642 90.3392C32.677 90.3392 32.4271 90.1831 32.4271 89.777C32.3958 89.2772 32.3958 89.2772 32.0835 89.8082C31.8961 90.0893 31.6462 90.2768 31.4588 90.1831C31.3026 90.0893 31.2714 90.1831 31.3651 90.4329C31.5525 90.9639 31.0215 91.2138 29.9282 91.1514C29.4909 91.1201 29.0536 91.2138 28.9599 91.37C28.6163 91.8698 28.0541 91.2763 28.0229 90.4017L27.9916 89.5583L27.7418 90.3392C27.5231 90.9952 27.4919 91.0264 27.4606 90.4954C27.4294 89.9956 27.3669 89.9644 27.1483 90.308C26.6173 91.1201 26.3986 89.2772 26.8047 87.4031C27.3357 84.8418 27.8355 84.873 30.8028 87.653Z" fill="#FFF8B3" stroke="#FFFBD5" stroke-width="0.0155225" mask="url(#path-12-inside-2_2747_8200)"/>
<path d="M22.3357 50.8596C22.3903 50.5004 22.447 50.2209 22.5149 50.0152C22.5828 49.8095 22.6622 49.6766 22.763 49.6114C22.8641 49.546 22.9856 49.5494 23.1361 49.6136C23.2864 49.6777 23.4664 49.803 23.685 49.9826C24.2487 50.421 24.4361 50.9848 24.5611 52.3904L24.5611 52.3905C24.6079 53.0463 24.6236 53.484 24.5923 53.7383C24.5845 53.8019 24.5737 53.8541 24.5597 53.8955C24.5457 53.9369 24.5283 53.9677 24.5072 53.988C24.486 54.0085 24.4611 54.0183 24.4325 54.0179C24.404 54.0174 24.3721 54.0069 24.3367 53.9872L24.3367 53.9872L24.3364 53.987C24.2888 53.9552 24.2435 53.896 24.2024 53.8162C24.1612 53.7363 24.124 53.6355 24.0928 53.5202C24.0302 53.2894 23.9911 53.0002 23.9911 52.7031C23.9911 52.4066 23.9599 52.118 23.9053 51.8919C23.878 51.7788 23.8449 51.6815 23.807 51.6067C23.7691 51.5318 23.7266 51.48 23.6809 51.4572L23.6809 51.4572L23.6806 51.457C23.6439 51.4338 23.6108 51.4236 23.5812 51.4243C23.5517 51.4251 23.5251 51.4369 23.5012 51.4587C23.4534 51.5024 23.417 51.5862 23.3916 51.7C23.341 51.9274 23.3351 52.2715 23.3663 52.6442C23.3975 53.0169 23.4658 53.4178 23.5634 53.7587C23.6121 53.9291 23.6682 54.0845 23.7305 54.2137C23.7929 54.343 23.8615 54.446 23.9351 54.5119L23.9351 54.5119C24.1457 54.6991 24.3324 54.8 24.4937 54.8174C24.6546 54.8348 24.791 54.7692 24.9016 54.6218C25.0124 54.4741 25.0971 54.2444 25.1542 53.9343C25.2112 53.6242 25.2405 53.234 25.2405 52.7656C25.2405 51.3607 24.8112 50.1434 24.2185 49.4376C23.9221 49.0847 23.5851 48.8599 23.2408 48.803C22.8967 48.7461 22.5445 48.8568 22.2173 49.1762C21.9292 49.4643 21.74 49.9456 21.6415 50.5334C21.543 51.1211 21.5352 51.8147 21.6093 52.527C21.7577 53.9518 22.2338 55.4502 22.9672 56.3239C23.2794 56.683 23.5366 56.9089 23.8326 57.0452C24.1286 57.1815 24.4637 57.2284 24.932 57.2284C25.4705 57.2284 25.8992 57.1425 26.2282 56.9347C26.5571 56.7269 26.787 56.3969 26.9274 55.9076C27.0678 55.4182 27.1186 54.7695 27.0893 53.9249C27.06 53.0802 26.9507 52.0399 26.7711 50.7671C26.6774 50.0956 26.5369 49.3852 26.3846 48.784C26.2324 48.1827 26.0685 47.6913 25.9283 47.4575L25.9282 47.4575C24.7735 45.4914 22.2458 44.805 20.3737 45.9595L20.3737 45.9596C19.095 46.7393 18.5951 48.299 18.7513 50.7663C18.9386 53.5449 20.0623 55.5744 23.5606 59.5724C27.1839 63.6642 28.6526 65.8825 29.2151 68.0075L29.2151 68.0076L29.6067 69.5138L29.4261 68.009C29.1764 65.9174 28.1463 64.1066 25.0228 60.2958C21.0559 55.4544 20.6182 54.8292 19.8995 52.8919C18.9622 50.3924 19.2116 48.0477 20.5565 46.828L20.5565 46.8279C21.479 45.9992 22.6129 45.8506 23.6099 46.2533C24.6068 46.656 25.4665 47.6097 25.8416 48.985C26.1228 49.985 26.3181 51.5236 26.3923 52.9098C26.4294 53.603 26.4362 54.2581 26.4084 54.7888C26.3945 55.0541 26.3719 55.2884 26.3401 55.4808C26.3083 55.6732 26.2672 55.824 26.2161 55.9222L26.2161 55.9222C25.9498 56.4079 25.4485 56.6349 24.9124 56.6153C24.3763 56.5958 23.8052 56.3297 23.3985 55.8291L23.3984 55.8291C23.0075 55.3286 22.6793 54.4611 22.4802 53.5317C22.281 52.6022 22.2106 51.6099 22.3357 50.8596ZM22.3357 50.8596C22.3357 50.8596 22.3357 50.8596 22.3357 50.8596L22.3395 50.8602L22.3357 50.8596C22.3357 50.8596 22.3357 50.8596 22.3357 50.8596ZM26.2127 55.9204C25.6817 56.8887 24.2136 56.8262 23.4015 55.8267L26.2127 55.9204Z" fill="#FFEF64" stroke="#FFFBD5" stroke-width="0.00776124"/>
<path d="M17.6544 46.9881L17.6544 46.988C17.9121 46.6445 18.1111 46.3947 18.2511 46.2377C18.3211 46.1591 18.3762 46.1039 18.4164 46.0718C18.4365 46.0557 18.4526 46.0456 18.4648 46.0412C18.4709 46.039 18.4757 46.0383 18.4795 46.0387C18.483 46.0392 18.4857 46.0407 18.4877 46.0432C18.4898 46.0459 18.4914 46.05 18.4922 46.0559C18.4929 46.0618 18.4929 46.0691 18.4918 46.0781C18.4898 46.096 18.4841 46.1197 18.4746 46.1493C18.4555 46.2085 18.4216 46.2906 18.3726 46.3955C18.2745 46.6052 18.1164 46.9058 17.8978 47.2962L17.8978 47.2962C17.5384 47.9682 17.1088 49.1554 16.7691 50.319C16.4294 51.4825 16.1794 52.6231 16.1794 53.2016C16.1794 53.3569 16.125 53.5044 16.0396 53.6131C15.9542 53.7217 15.8381 53.7912 15.7147 53.7912C15.589 53.7912 15.4711 53.8305 15.3845 53.8934C15.2979 53.9564 15.2423 54.0433 15.2423 54.1387C15.2423 54.2153 15.2041 54.2683 15.1435 54.2872C15.0825 54.3063 14.9979 54.2912 14.9047 54.2291L14.9046 54.2291L14.9046 54.2291C14.7798 54.1511 14.7274 54.0744 14.7463 53.9951C14.7558 53.9551 14.7835 53.9138 14.8305 53.8706C14.8776 53.8275 14.9436 53.7828 15.0294 53.736C15.3591 53.5633 15.4379 53.241 15.3474 52.9933C15.3022 52.8695 15.2147 52.7642 15.0951 52.7057C14.9755 52.6471 14.8241 52.6354 14.6514 52.6982C14.6514 52.6982 14.6514 52.6982 14.6514 52.6982L17.6544 46.9881ZM17.6544 46.9881C17.2175 47.5498 16.6554 48.7987 16.3431 49.7357L17.6544 46.9881Z" fill="#FFF8B3" stroke="#FFFBD5" stroke-width="0.00776124"/>
<path d="M13.1849 51.7284L13.1849 51.7284L13.185 51.7283C13.326 51.6813 13.4519 51.6733 13.5428 51.7049C13.5884 51.7208 13.6252 51.7466 13.6506 51.7825C13.6761 51.8184 13.6899 51.8641 13.6899 51.9194C13.6899 52.0121 13.7284 52.0727 13.7889 52.0954C13.8497 52.1182 13.9343 52.1033 14.0275 52.0411L14.0274 52.0411L14.0279 52.0409C14.1525 51.9786 14.205 51.9095 14.1937 51.8341C14.188 51.7961 14.166 51.7558 14.1278 51.7131C14.0895 51.6705 14.0352 51.6258 13.9651 51.5791C13.684 51.4073 13.4818 51.3221 13.3191 51.3259C13.157 51.3298 13.0331 51.4222 12.9085 51.609C12.8853 51.6556 12.8759 51.6918 12.8783 51.7185C12.8794 51.7318 12.8835 51.7427 12.8901 51.7513C12.8967 51.76 12.9061 51.7667 12.9182 51.7713C12.9427 51.7807 12.978 51.7818 13.0231 51.7746C13.0682 51.7673 13.1226 51.7518 13.1849 51.7284Z" fill="#FFF8B3" stroke="#FFFBD5" stroke-width="0.00776124"/>
<path d="M17.034 52.7646L17.0341 52.7646L17.0335 52.7651C17.003 52.788 16.974 52.8283 16.9478 52.8818C16.9215 52.9352 16.8982 53.0013 16.8787 53.0753C16.8398 53.2234 16.8164 53.4026 16.8164 53.5741C16.8164 53.7693 16.8418 53.8933 16.8802 53.9567C16.8994 53.9883 16.9215 54.0044 16.9448 54.0073C16.9681 54.0103 16.9939 54.0003 17.0208 53.9772C17.0747 53.9311 17.131 53.8343 17.1778 53.6959C17.2245 53.5576 17.2616 53.3783 17.2772 53.1678L17.2772 53.1678L17.2772 53.1677C17.2928 52.9959 17.3025 52.8652 17.304 52.7707C17.3047 52.7235 17.3034 52.6853 17.2997 52.6557C17.296 52.626 17.29 52.6052 17.2817 52.5923C17.2776 52.5859 17.273 52.5816 17.2679 52.5789C17.2629 52.5763 17.2572 52.5753 17.2506 52.5759C17.2372 52.5771 17.2205 52.5851 17.1999 52.6002C17.1588 52.6301 17.1044 52.6864 17.034 52.7646Z" fill="#FFF8B3" stroke="#FFFBD5" stroke-width="0.00776124"/>
<path d="M16.626 55.3177L17.5638 56.0739L16.8081 55.1671C16.8081 55.167 16.8081 55.167 16.8081 55.167C16.5894 54.9171 16.3864 54.6829 16.238 54.5032C16.1638 54.4134 16.1032 54.3372 16.0611 54.2795C16.0401 54.2507 16.0237 54.2264 16.0125 54.2073C16.0069 54.1978 16.0026 54.1895 15.9996 54.1825C15.9969 54.1761 15.9952 54.1705 15.995 54.1659C15.9878 54.1519 15.9774 54.1453 15.9646 54.1449C15.9512 54.1445 15.9345 54.1508 15.9152 54.1642C15.8768 54.1911 15.8304 54.2452 15.7836 54.323C15.7764 54.3375 15.7754 54.3574 15.7806 54.3825C15.7858 54.4076 15.7972 54.4374 15.8144 54.4712C15.8489 54.5386 15.9063 54.6214 15.9823 54.713C16.1344 54.8963 16.3607 55.1147 16.626 55.3176L16.626 55.3176L16.626 55.3177Z" fill="#FFF8B3" stroke="#FFFBD5" stroke-width="0.00776124"/>
<path d="M15.1632 60.3852C15.2178 60.7679 15.2237 61.0534 15.1963 61.2423C15.1826 61.3367 15.1606 61.4073 15.1319 61.454C15.1031 61.5007 15.0673 61.5239 15.0264 61.5218C14.9858 61.5198 14.9415 61.493 14.8953 61.4431C14.8491 61.3931 14.8006 61.3193 14.7517 61.222C14.6539 61.0274 14.5543 60.7381 14.4683 60.3553L14.4683 60.3553C14.3981 60.0353 14.3142 59.7818 14.228 59.6001C14.1849 59.5092 14.1412 59.4364 14.0985 59.3823C14.0556 59.328 14.0139 59.2927 13.9748 59.2765C13.9358 59.2603 13.8994 59.263 13.8663 59.2849C13.833 59.3069 13.8028 59.3486 13.7773 59.4115C13.7264 59.5372 13.6951 59.7455 13.6951 60.0421C13.6951 60.6968 14.0382 61.3831 14.4671 61.8315C14.6816 62.0558 14.9173 62.2203 15.1419 62.2917C15.3665 62.3632 15.5797 62.3417 15.7502 62.1944L15.7504 62.1943C15.9833 62.008 16.0945 61.658 16.1086 61.226C16.1227 60.7941 16.0399 60.2811 15.8857 59.7699C15.7316 59.2587 15.5062 58.7495 15.2356 58.3252C14.9649 57.9009 14.6491 57.5619 14.3142 57.3905L14.3142 57.3905C13.9549 57.2031 13.7214 57.1098 13.5039 57.1137C13.2865 57.1176 13.0843 57.2185 12.7876 57.4215C12.5855 57.5692 12.4277 57.8105 12.3161 58.1171C12.2045 58.4236 12.1392 58.7951 12.1216 59.2028C12.0865 60.0182 12.2426 60.9782 12.6016 61.8523C13.226 63.3196 14.2952 64.459 15.3095 65.0012C15.8167 65.2723 16.3097 65.394 16.7264 65.3332C17.1428 65.2723 17.4833 65.0292 17.6858 64.5697L17.6859 64.5696C18.2162 63.4153 18.1542 62.4483 17.4045 59.6683C17.1234 58.6688 16.9049 58.021 16.6318 57.506C16.3587 56.9911 16.0311 56.6088 15.5315 56.1405C15.0631 55.7189 14.6886 55.4459 14.3183 55.2783C13.948 55.1107 13.5815 55.0483 13.129 55.0483C12.8169 55.0483 12.4891 55.0795 12.216 55.1263C12.0795 55.1497 11.9566 55.177 11.8563 55.2062C11.7558 55.2355 11.6782 55.2666 11.6318 55.2975L11.6318 55.2975C11.3594 55.4765 11.1353 55.7998 10.9637 56.2284C10.7921 56.657 10.673 57.1905 10.6106 57.7896C10.4857 58.9878 10.5872 60.4476 10.9463 61.8528L10.9463 61.8528C11.352 63.5068 12.8814 65.1928 15.7862 67.1606L15.7862 67.1606C16.6765 67.7697 17.2936 68.2462 17.8092 68.754C18.3249 69.2619 18.7389 69.8009 19.2232 70.5351L19.2232 70.5352C19.3091 70.6758 19.3754 70.7811 19.4266 70.8517C19.4522 70.887 19.4739 70.9135 19.4922 70.9314C19.5108 70.9495 19.5253 70.9581 19.5365 70.9589C19.5419 70.9594 19.5466 70.958 19.551 70.9548C19.5554 70.9515 19.5595 70.9462 19.5633 70.9385C19.5708 70.923 19.5765 70.899 19.5807 70.8662C19.5889 70.8006 19.5909 70.7013 19.5909 70.5685L19.5909 70.5683C19.5947 70.4755 19.5633 70.357 19.5017 70.2187C19.4402 70.0804 19.3487 69.9226 19.2328 69.7512C19.0011 69.4083 18.6723 69.0112 18.2918 68.6072C17.5305 67.7991 16.5625 66.9639 15.7508 66.48C14.8133 65.9331 13.8525 65.0972 13.0714 64.199C12.2904 63.3008 11.6887 62.3398 11.4698 61.5425C11.2198 60.7143 11.0948 59.6441 11.0948 58.6677C11.0948 58.1795 11.1261 57.7147 11.1886 57.3152C11.2511 56.9158 11.3448 56.5815 11.4701 56.3544C11.6738 55.9706 12.0145 55.7533 12.4245 55.6765C12.8344 55.5997 13.3134 55.6633 13.7941 55.8412C14.7555 56.1968 15.7247 57.0096 16.1624 58.0728L16.1624 58.0728C16.5062 58.9321 16.8108 60.1272 17.0021 61.2166C17.0978 61.7614 17.1652 62.2799 17.195 62.7168C17.2247 63.1537 17.217 63.5095 17.1621 63.7288L17.1621 63.7289C17.0683 64.0651 16.9373 64.3118 16.7726 64.4686C16.6077 64.6256 16.4094 64.6923 16.1819 64.6688C15.9545 64.6453 15.6981 64.5316 15.4167 64.3284C15.1352 64.1251 14.8285 63.8321 14.5004 63.4493L14.5004 63.4493C13.7817 62.6055 13.266 61.6602 12.9925 60.7616C12.7191 59.8631 12.6877 59.011 12.938 58.354L12.938 58.3539C13.0632 58.033 13.2496 57.8754 13.4634 57.8517C13.6768 57.8281 13.9161 57.9383 14.1468 58.1495C14.6083 58.5719 15.0381 59.4005 15.1632 60.3852ZM15.1632 60.3852C15.1632 60.3851 15.1632 60.3851 15.1631 60.3851L15.1593 60.3857M15.1632 60.3852C15.1632 60.3852 15.1632 60.3852 15.1632 60.3852L15.1593 60.3857M15.1593 60.3857C14.9094 58.4178 13.4414 57.0747 12.9416 58.3554L12.598 61.8537C11.8796 60.1046 11.9733 58.0118 12.7854 57.4183C13.3789 57.0122 13.5975 57.0122 14.3159 57.3871C15.6591 58.0742 16.6898 61.4477 15.7528 62.1973C15.0656 62.7908 13.6912 61.354 13.6912 60.0421C13.6912 58.8551 14.191 59.0738 14.4721 60.3544C14.8157 61.885 15.378 61.9162 15.1593 60.3857Z" fill="#FFEF64" stroke="#FFFBD5" stroke-width="0.00776124"/>
<path d="M18.4052 58.0676L18.4052 58.0676C18.6473 58.5908 18.862 59.0222 19.0357 59.3461C19.2094 59.6702 19.342 59.8866 19.4198 59.98C19.4393 60.0033 19.4551 60.0187 19.467 60.0261C19.473 60.0299 19.4776 60.0313 19.4808 60.0313C19.4838 60.0312 19.4861 60.0299 19.488 60.0268C19.49 60.0234 19.4915 60.018 19.492 60.0099C19.4925 60.002 19.4921 59.9919 19.4907 59.9796C19.4878 59.955 19.4809 59.9219 19.4697 59.88C19.4249 59.7124 19.3118 59.4061 19.1165 58.9454L19.1165 58.9453C18.9759 58.6017 18.8705 58.3205 18.8006 58.1041C18.7309 57.888 18.6965 57.7361 18.6985 57.6514C18.6989 57.6302 18.7017 57.6129 18.707 57.5998C18.7122 57.5866 18.7201 57.5773 18.7309 57.5728C18.7416 57.5683 18.7545 57.5688 18.7691 57.5736C18.7837 57.5784 18.8004 57.5876 18.8193 57.601C18.8945 57.6546 19.0061 57.778 19.1544 57.9732L19.1545 57.9733C19.2794 58.145 19.3805 58.2499 19.4546 58.2993C19.4917 58.3241 19.5215 58.3345 19.5437 58.333C19.5547 58.3322 19.5638 58.3286 19.5712 58.3222C19.5787 58.3159 19.5847 58.3067 19.5889 58.2945C19.5974 58.2699 19.5987 58.2341 19.5919 58.1878C19.5852 58.1417 19.5705 58.0855 19.5474 58.0208C19.5012 57.8913 19.4213 57.7276 19.3042 57.5403C19.2264 57.4158 19.1332 57.3305 19.0443 57.288C18.9555 57.2455 18.8714 57.2458 18.8105 57.2912C18.7858 57.3237 18.7431 57.3333 18.6895 57.3244C18.6356 57.3155 18.5697 57.2879 18.4973 57.2449C18.3524 57.1587 18.1803 57.01 18.0239 56.8223L18.0238 56.8222C17.9809 56.7676 17.9454 56.7273 17.9173 56.7008C17.9033 56.6876 17.8912 56.6779 17.881 56.6717C17.8707 56.6654 17.8629 56.6628 17.8572 56.6631C17.8545 56.6633 17.8523 56.6641 17.8505 56.6655C17.8486 56.6669 17.8469 56.669 17.8456 56.6721C17.8427 56.6784 17.8414 56.6881 17.8419 56.7017C17.8428 56.7287 17.851 56.769 17.8666 56.8227C17.929 57.037 18.1084 57.4585 18.4052 58.0676Z" fill="#FFF8B3" stroke="#FFFBD5" stroke-width="0.00776124"/>
<path d="M28.5835 60.8517L28.5835 60.8517L28.5833 60.8517C28.2378 60.9774 27.7991 60.8515 27.3924 60.4761C27.244 60.3434 27.1309 60.2439 27.0491 60.1811C27.0081 60.1496 26.9752 60.1275 26.9497 60.1149C26.9369 60.1086 26.9262 60.1048 26.9174 60.1034C26.9086 60.1019 26.902 60.1029 26.8972 60.1057C26.8925 60.1085 26.8888 60.1134 26.8865 60.1213C26.8842 60.1291 26.8833 60.1397 26.884 60.1531C26.8855 60.1799 26.8932 60.2173 26.9068 60.2658C26.9341 60.3627 26.9848 60.5031 27.0551 60.6905C27.2108 61.0642 27.4908 61.2818 27.8134 61.3284C28.136 61.3751 28.5018 61.2507 28.8292 60.939C28.8838 60.8844 28.9185 60.8418 28.9343 60.8112C28.9423 60.7958 28.9451 60.784 28.9439 60.7754C28.9427 60.7674 28.9378 60.7616 28.9282 60.758C28.9182 60.7544 28.9035 60.7534 28.8838 60.7553C28.8641 60.7573 28.8398 60.7621 28.8109 60.7699C28.7531 60.7854 28.6771 60.8127 28.5835 60.8517Z" fill="#FFF8B3" stroke="#FFFBD5" stroke-width="0.00776124"/>
<path d="M19.8083 64.3806L19.8083 64.3806L19.8084 64.3807C19.8151 64.3883 19.821 64.3929 19.8264 64.395C19.8315 64.3971 19.8361 64.3969 19.8405 64.3948C19.845 64.3927 19.8496 64.3882 19.8541 64.3812C19.8586 64.3741 19.8628 64.3647 19.8668 64.353C19.8828 64.3059 19.8936 64.2237 19.8997 64.1151C19.9119 63.8982 19.9051 63.5772 19.8836 63.2239C19.8407 62.5172 19.7392 61.6821 19.6144 61.2922L19.6144 61.2921C19.5949 61.2297 19.5774 61.1821 19.5619 61.1487C19.5541 61.132 19.5469 61.119 19.5402 61.1095C19.5335 61.0999 19.5277 61.0943 19.5227 61.0919C19.5203 61.0908 19.5182 61.0905 19.5164 61.0907C19.5146 61.0909 19.5127 61.0917 19.5108 61.0933C19.5067 61.0967 19.5026 61.1033 19.4988 61.1139C19.4911 61.1349 19.4853 61.1693 19.4814 61.2171C19.4658 61.4081 19.4814 61.806 19.5283 62.3839C19.5751 62.8992 19.6298 63.3833 19.6805 63.7463C19.7059 63.9279 19.7303 64.0791 19.7522 64.1888C19.7632 64.2436 19.7735 64.2881 19.7831 64.3207C19.7878 64.337 19.7924 64.3502 19.7967 64.3604C19.801 64.3706 19.8049 64.3772 19.8083 64.3806Z" fill="#FFF8B3" stroke="#FFFBD5" stroke-width="0.00776124"/>
<path d="M9.75116 70.7607L9.75121 70.7607C10.0948 70.3389 10.3364 70.0975 10.5503 69.9925C10.6571 69.9401 10.7569 69.9217 10.8591 69.9319C10.9614 69.9421 11.0663 69.9809 11.1832 70.0432L11.185 70.0398L11.1832 70.0432C11.6814 70.3079 12.0325 70.9077 12.2589 71.9655C12.4852 73.0232 12.5868 74.5378 12.5868 76.6305C12.5868 78.3798 12.5711 79.3868 12.4892 80.0308C12.4482 80.3527 12.3907 80.5836 12.3103 80.7711C12.23 80.9585 12.1268 81.1026 11.9943 81.2508C11.8228 81.4378 11.5968 81.6015 11.3708 81.7106C11.1446 81.8198 10.919 81.874 10.7484 81.843L10.7483 81.843C10.5234 81.812 10.3256 81.6539 10.1551 81.3998C9.98467 81.1458 9.84193 80.7963 9.72705 80.3836C9.49729 79.5582 9.3792 78.481 9.37335 77.4114C9.36749 76.3418 9.47388 75.2801 9.69289 74.486C9.8024 74.089 9.94 73.759 10.1056 73.5285C10.2712 73.2979 10.4645 73.1672 10.6853 73.1672C10.8089 73.1672 10.9799 73.2447 11.1555 73.3695C11.3308 73.4943 11.5101 73.6658 11.6504 73.8528C11.6505 73.8528 11.6505 73.8529 11.6505 73.8529L11.6506 73.853C11.7754 74.0246 11.8692 74.1536 11.9361 74.2313C11.9696 74.2701 11.9967 74.2965 12.0178 74.309C12.0284 74.3153 12.0381 74.3184 12.0466 74.3172C12.0554 74.3161 12.0622 74.3104 12.067 74.3014C12.0717 74.2924 12.0748 74.2798 12.0764 74.2638C12.0781 74.2476 12.0784 74.2277 12.0775 74.2039C12.0756 74.1563 12.0686 74.0928 12.0571 74.0125C12.0342 73.8519 11.9932 73.6234 11.9385 73.3189C11.9385 73.3189 11.9385 73.3189 11.9385 73.3189L11.9385 73.3188L11.9347 73.3195M9.75116 70.7607L11.4037 83.8147C9.27967 83.0025 8.15519 79.4417 8.68619 75.1937C8.93608 73.1634 10.1543 70.6645 10.8727 70.6645C11.2475 70.6645 11.6536 71.6328 11.9347 73.3195M9.75116 70.7607C9.06422 71.5726 8.61943 72.3061 8.34631 73.2035C8.07317 74.101 7.97165 75.1626 7.97165 76.6305C7.97165 78.4576 8.14344 79.8548 8.56489 81.006C8.98631 82.1571 9.65744 83.0624 10.6565 83.9054L10.6566 83.9055C11.4689 84.624 12.5624 85.8112 13.0624 86.5612L9.75116 70.7607ZM11.9347 73.3195C12.0545 73.9872 12.1087 74.2889 12.0509 74.3121C12.0032 74.3313 11.8794 74.1611 11.6536 73.8505C11.3724 73.4757 10.9352 73.1634 10.6853 73.1634C8.90484 73.1634 8.93608 81.5969 10.7477 81.8468M11.9347 73.3195L10.7477 81.8468M10.7477 81.8468C11.0913 81.9093 11.6536 81.6282 11.9972 81.2534L10.7477 81.8468ZM11.8997 77.9102L11.8997 77.9102C11.8063 78.2838 11.5733 78.4616 11.314 78.4539C11.0543 78.4461 10.7664 78.2522 10.5637 77.8781C10.2212 77.2241 10.4389 76.3826 11.0941 75.7274C11.2036 75.6179 11.3053 75.4849 11.3797 75.3636C11.4168 75.3029 11.4472 75.2452 11.4683 75.1947C11.4893 75.1443 11.5013 75.1007 11.5013 75.0687C11.5013 75.0368 11.4893 74.9893 11.4678 74.9312C11.4463 74.8729 11.415 74.8035 11.3759 74.7273C11.2977 74.5748 11.1883 74.395 11.0632 74.2231L11.0632 74.223C10.9539 74.0825 10.8698 73.9768 10.8002 73.9107C10.7309 73.8448 10.6746 73.8168 10.6215 73.8352C10.5952 73.8443 10.5702 73.8647 10.5452 73.8963C10.5202 73.9279 10.4949 73.971 10.468 74.026L11.8997 77.9102ZM11.8997 77.9102L11.8998 77.9099C11.9115 77.8748 11.9214 77.8505 11.9296 77.8369C11.9317 77.8334 11.9337 77.8306 11.9357 77.8283C11.9377 77.8261 11.9398 77.8244 11.9421 77.8234C11.9445 77.8223 11.9471 77.8222 11.9496 77.8233C11.9519 77.8244 11.9537 77.8264 11.9551 77.8286C11.9578 77.833 11.9598 77.84 11.9614 77.8488C11.963 77.8578 11.9641 77.8692 11.965 77.8829C11.9666 77.9103 11.9669 77.9473 11.9659 77.9932C11.962 78.1768 11.9386 78.5049 11.9073 78.942L11.9073 78.9422L11.9073 78.9424C11.8292 79.6219 11.7198 80.1571 11.5919 80.541C11.5279 80.733 11.4592 80.8873 11.3873 81.003C11.3155 81.1186 11.2404 81.1959 11.1633 81.2334C11.086 81.2711 11.0071 81.2686 10.9285 81.2252C10.8502 81.1819 10.7724 81.098 10.6966 80.9733C10.545 80.7238 10.4004 80.3094 10.2754 79.7236L10.2792 79.7228L10.2754 79.7236C10.0567 78.7082 9.94735 77.685 9.94735 76.775C9.94735 75.865 10.0567 75.068 10.2756 74.5051L11.8997 77.9102Z" fill="#FFEF64" stroke="#FFFBD5" stroke-width="0.00776124"/>
<path d="M15.3729 70.7539C15.4666 70.6289 15.9664 70.9413 16.4974 71.4411C17.4032 72.3156 18.4965 74.877 18.1841 75.3767L15.3729 70.7539ZM15.3729 70.7539C15.2792 70.8476 15.654 71.3473 16.185 71.8471L15.3729 70.7539ZM17.794 73.551C17.4466 72.739 16.9471 71.8806 16.4947 71.4439C16.2294 71.1941 15.9719 70.9913 15.7691 70.8665C15.6677 70.8041 15.5802 70.7614 15.5124 70.742C15.4785 70.7323 15.4497 70.7285 15.4268 70.7309C15.4039 70.7332 15.3869 70.7417 15.376 70.7562L15.3761 70.7562L15.3757 70.7566C15.3651 70.7672 15.3607 70.7838 15.363 70.8069C15.3653 70.8299 15.3741 70.8586 15.3892 70.8924C15.4192 70.9598 15.4737 71.0464 15.5478 71.1459C15.696 71.3448 15.9223 71.5945 16.1876 71.8442C16.4689 72.0787 16.7112 72.3444 16.8754 72.5789C16.9575 72.6962 17.0201 72.8058 17.0584 72.8999C17.0965 72.9937 17.1106 73.0729 17.0946 73.1288L17.0946 73.1288L17.0945 73.1291C17.0825 73.1631 17.0614 73.1879 17.0322 73.204C17.0031 73.22 16.9662 73.2272 16.9227 73.2266C16.8358 73.2253 16.7215 73.1929 16.5876 73.1352C16.3198 73.0199 15.972 72.803 15.6049 72.5296C14.8707 71.9828 14.0581 71.2094 13.6517 70.5685L13.0068 69.5858L13.1902 70.5031C13.1902 70.5032 13.1902 70.5032 13.1902 70.5032C13.2525 70.7836 13.424 71.111 13.6659 71.4387C13.9078 71.7664 14.2199 72.0942 14.5632 72.3751C15.1881 72.875 16.2502 73.8434 16.875 74.4682L16.875 74.4682C17.1873 74.7961 17.4916 75.0614 17.7295 75.2252C17.8485 75.3071 17.9506 75.3635 18.0287 75.3896C18.0677 75.4027 18.1005 75.4082 18.1261 75.4057C18.1516 75.4032 18.1699 75.393 18.1808 75.3747L18.1808 75.3747C18.2193 75.3132 18.2364 75.2194 18.2346 75.1001C18.2328 74.9808 18.2123 74.8367 18.1759 74.6748C18.1033 74.351 17.9677 73.9569 17.794 73.551Z" fill="#FFF8B3" stroke="#FFFBD5" stroke-width="0.00776124"/>
<path d="M20.721 74.0659C20.6286 74.2355 20.6979 74.413 20.8294 74.5135C20.9609 74.6141 21.154 74.6372 21.3085 74.4982C21.4482 74.3584 21.5024 74.18 21.483 74.0369C21.4734 73.9653 21.4454 73.9027 21.4007 73.858C21.3561 73.8134 21.2946 73.7865 21.2175 73.7865C21.0318 73.7865 20.8455 73.9103 20.721 74.0659Z" fill="#FFF8B3" stroke="#FFFBD5" stroke-width="0.00776124"/>
<path d="M16.1485 76.0647L16.1484 76.0647L16.149 76.0643C16.1743 76.0463 16.1801 76.0129 16.168 75.9659C16.1559 75.9191 16.1264 75.8603 16.0835 75.7938C15.9978 75.6609 15.8594 75.4981 15.7034 75.3401C15.5473 75.1821 15.3737 75.029 15.2177 74.9154C15.1397 74.8586 15.0662 74.8118 15.0016 74.7791C14.9368 74.7464 14.8813 74.7282 14.8393 74.7282C14.8163 74.7282 14.8003 74.733 14.7901 74.7415C14.7801 74.7499 14.7751 74.7625 14.7754 74.7794C14.7756 74.7965 14.7811 74.8179 14.7918 74.8431C14.8025 74.8683 14.8183 74.8971 14.8387 74.9292C14.9205 75.0577 15.0764 75.237 15.2794 75.44C15.4823 75.6429 15.6851 75.8146 15.845 75.9277C15.925 75.9842 15.994 76.026 16.0469 76.0498C16.0734 76.0617 16.0956 76.069 16.1129 76.0714C16.1304 76.0738 16.142 76.0712 16.1485 76.0647Z" fill="#FFF8B3" stroke="#FFFBD5" stroke-width="0.00776124"/>
<path d="M16.9677 76.4082L16.9677 76.4082L16.9676 76.408C16.8428 76.2676 16.7262 76.1823 16.6412 76.1514C16.5986 76.1359 16.5647 76.1343 16.5417 76.1454C16.5191 76.1562 16.5058 76.1799 16.5058 76.218C16.5058 76.2563 16.5193 76.3045 16.5436 76.3589C16.5678 76.4133 16.6029 76.4736 16.6457 76.536C16.7314 76.6606 16.8483 76.7932 16.973 76.9023C17.0977 77.0114 17.2145 77.0814 17.2998 77.1124C17.3425 77.1279 17.3769 77.1335 17.4003 77.1298C17.412 77.1279 17.4206 77.1238 17.4263 77.1177C17.432 77.1118 17.4351 77.1035 17.4351 77.0926C17.4351 77.0623 17.4218 77.02 17.3975 76.9693C17.3732 76.9188 17.3381 76.8604 17.2953 76.7981C17.2095 76.6733 17.0925 76.5329 16.9677 76.4082Z" fill="#FFF8B3" stroke="#FFFBD5" stroke-width="0.00776124"/>
<path d="M15.873 77.8433C15.873 77.9204 15.9039 77.9976 15.9503 78.0556C15.9967 78.1136 16.0582 78.1517 16.119 78.1517C16.1357 78.1517 16.1559 78.159 16.1789 78.1721C16.202 78.1852 16.2283 78.2046 16.2572 78.2293C16.315 78.2788 16.3835 78.3502 16.4578 78.4381C16.6063 78.614 16.7782 78.8563 16.9345 79.122C17.0906 79.3873 17.2466 79.6058 17.3714 79.75C17.4338 79.8222 17.4882 79.8756 17.5308 79.9071C17.5522 79.9228 17.5703 79.9329 17.5848 79.9371C17.5993 79.9414 17.6092 79.9397 17.6156 79.9333C17.6262 79.9227 17.6317 79.9045 17.6316 79.8785C17.6315 79.8527 17.626 79.8199 17.6155 79.7812C17.5945 79.7037 17.554 79.6031 17.4992 79.4872C17.3894 79.2556 17.2226 78.9639 17.0411 78.677C16.8596 78.3901 16.6635 78.1081 16.4952 77.8959C16.4111 77.7899 16.3339 77.7013 16.2691 77.6383C16.2367 77.6068 16.2075 77.5818 16.182 77.5642C16.1566 77.5466 16.1354 77.5367 16.1188 77.5348C16.042 77.5348 15.9807 77.5656 15.9386 77.6192C15.8963 77.673 15.873 77.7502 15.873 77.8433Z" fill="#FFF8B3" stroke="#FFFBD5" stroke-width="0.00776124"/>
<path d="M17.751 77.807C17.751 77.8997 17.7896 78.0005 17.8479 78.0899C17.9062 78.1793 17.9838 78.2569 18.0613 78.3034C18.154 78.3497 18.2301 78.3415 18.2832 78.2922C18.3368 78.2425 18.3679 78.1501 18.3679 78.0257C18.3679 77.8856 18.3368 77.7614 18.2826 77.6724C18.2284 77.5834 18.1514 77.5298 18.0594 77.5298C17.9823 77.5298 17.9051 77.5606 17.8472 77.6108C17.7893 77.661 17.751 77.7303 17.751 77.807Z" fill="#FFF8B3" stroke="#FFFBD5" stroke-width="0.00776124"/>
<path d="M15.9442 79.5505C15.9321 79.6237 15.934 79.754 15.9418 79.9336C15.9574 80.089 16.0429 80.2992 16.1639 80.5138C16.2848 80.7283 16.4408 80.9467 16.5967 81.1182C16.7451 81.2744 16.8563 81.3915 16.9313 81.4621C16.9689 81.4975 16.9972 81.521 17.0164 81.532C17.0262 81.5377 17.0327 81.5395 17.0367 81.539C17.0385 81.5388 17.0397 81.5381 17.0406 81.5369C17.0416 81.5356 17.0425 81.5336 17.0429 81.5303C17.0438 81.5237 17.0427 81.5136 17.0394 81.4996C17.036 81.4857 17.0305 81.4682 17.0228 81.4471C17.0073 81.4048 16.9832 81.3482 16.9505 81.2762C16.8852 81.1323 16.7856 80.9274 16.6529 80.6541C16.4811 80.3105 16.3483 80.0489 16.2464 79.8611C16.1954 79.7672 16.1521 79.6917 16.1155 79.6337C16.0789 79.5756 16.0491 79.5352 16.025 79.5111C16.0129 79.499 16.0025 79.4913 15.9937 79.4874C15.9849 79.4836 15.9779 79.4836 15.9721 79.4866C15.9661 79.4896 15.9606 79.4962 15.9558 79.507C15.9511 79.5177 15.9472 79.5322 15.9442 79.5505Z" fill="#FFF8B3" stroke="#FFFBD5" stroke-width="0.00776124"/>
</svg>
