<svg width="100%" height="100%" viewBox="0 0 16 20" fill="none" xmlns="http://www.w3.org/2000/svg">
<path d="M15.5 8.33203V9.16536H14.6667V9.9987H13.8333V10.832H13V11.6654H12.1667V12.4987H11.3333V13.332H10.5V14.1654H9.66667V14.9987H8.83333V15.832H8V16.6654H7.16667V17.4987H6.33333V18.332H5.5V19.1654H4.66667V17.4987H5.5V14.9987H6.33333V11.6654H0.5V10.832H1.33333V9.9987H2.16667V9.16536H3V8.33203H3.83333V7.4987H4.66667V6.66536H5.5V5.83203H6.33333V4.9987H7.16667V4.16536H8V3.33203H8.83333V2.4987H9.66667V1.66536H10.5V0.832031H11.3333V2.4987H10.5V4.9987H9.66667V8.33203H15.5Z" fill="#C852FF"/>
</svg>
