<svg width="100%" height="100%" viewBox="0 0 55 55" fill="none" xmlns="http://www.w3.org/2000/svg">
<path d="M48.125 22.918V25.2096H45.8333V27.5013H43.5417V29.793H41.25V32.0846H38.9583V34.3763H36.6667V36.668H34.375V38.9596H32.0833V41.2513H29.7917V43.543H27.5V45.8346H25.2083V48.1263H22.9167V50.418H20.625V52.7096H18.3333V48.1263H20.625V41.2513H22.9167V32.0846H6.875V29.793H9.16667V27.5013H11.4583V25.2096H13.75V22.918H16.0417V20.6263H18.3333V18.3346H20.625V16.043H22.9167V13.7513H25.2083V11.4596H27.5V9.16797H29.7917V6.8763H32.0833V4.58464H34.375V2.29297H36.6667V6.8763H34.375V13.7513H32.0833V22.918H48.125Z" fill="#C852FF"/>
</svg>
