<svg width="277" height="100%" viewBox="0 0 277 185" fill="none" xmlns="http://www.w3.org/2000/svg">
<path d="M58.0371 39.4997C57.0152 40.6493 54.9715 44.3535 53.5664 47.6746C51.7781 51.8898 49.9899 53.9335 47.6907 54.5722C46.0301 54.9554 43.0923 57.3823 41.304 59.937C39.5157 62.6194 36.8333 65.4295 35.4283 66.3237C34.0232 67.2178 32.8736 68.6229 32.8736 69.6447C32.8736 70.5389 31.8517 71.6885 30.7021 72.1994C29.4248 72.5826 22.144 76.5424 14.3523 81.013C-7.23468 93.2754 -6.59602 94.5528 30.9576 114.862C41.5595 120.483 51.2672 126.103 52.6723 127.125C54.9715 128.785 55.9933 128.53 64.6792 123.804C69.9163 120.866 77.708 116.395 81.9232 113.713C96.868 104.516 117.05 93.4032 118.966 93.4032C120.499 93.4032 121.01 92.1258 121.01 88.9325C121.01 85.356 120.371 84.2064 118.072 83.3122C114.878 82.0349 96.4848 70.5389 95.463 69.1338C94.4411 67.601 89.0763 66.3237 89.0763 67.4733C89.0763 67.9842 90.2259 69.2616 91.631 70.1557C94.1856 71.6885 95.0798 74.2432 93.1638 74.2432C92.6528 74.2432 90.2259 72.5826 87.799 70.5389C83.456 66.8346 83.456 66.7069 86.1384 65.685C88.9486 64.6631 88.9486 64.5354 83.3283 55.0831C80.2627 49.8461 77.1971 44.7367 76.5584 43.7149C75.6643 42.1821 74.2592 42.4375 68.2558 45.2477C62.2523 47.9301 60.9749 48.1855 60.9749 46.6527C60.9749 45.5031 62.1245 44.3535 63.5296 43.9703C66.9784 43.0762 66.723 40.5215 63.0187 38.7333C60.5917 37.5837 59.5699 37.8391 58.0371 39.4997ZM60.5917 42.5653C60.2085 43.5871 59.8253 43.2039 59.8253 41.7989C59.6976 40.3938 60.0808 39.6274 60.464 40.1383C60.8472 40.5215 60.9749 41.6711 60.5917 42.5653ZM59.0589 46.0141C59.6976 47.1637 55.9933 51.8898 55.0992 50.9957C54.8437 50.7402 54.9715 49.2074 55.4824 47.6746C56.2488 44.7367 57.7816 43.9703 59.0589 46.0141ZM77.4526 50.2293C78.3467 52.5285 80.3904 56.6159 82.1787 59.2983C85.6275 64.6631 85.372 66.9623 81.7955 63.769C78.3467 60.7034 65.9566 54.8277 65.0624 55.7218C64.5515 56.2327 64.0406 61.2143 63.9128 66.8346C63.7851 72.4549 63.5296 77.181 63.2741 77.3088C63.0187 77.4365 61.2304 78.5861 59.3144 79.8634C57.2707 81.1408 55.4824 81.9072 55.3547 81.6517C54.9715 80.7576 51.6504 72.0717 49.3512 65.4295C47.9461 61.5975 47.3075 58.1487 47.6907 57.7655C49.0957 56.2327 71.8323 46.2695 74.0038 46.2695C75.1534 46.1418 76.6862 47.8023 77.4526 50.2293ZM74.1315 61.5975C76.6862 62.4917 78.8576 63.6413 78.8576 64.1522C78.8576 64.6631 76.9416 67.9842 74.5147 71.5607C72.0878 75.1373 70.6827 78.3306 71.3214 78.7138C72.5987 79.608 72.9819 88.2938 71.5768 88.2938C71.0659 88.2938 69.4054 87.1442 68.0003 85.7392L65.1901 83.0568L60.7195 85.7392C54.9715 89.0602 49.9899 88.4216 41.8149 83.1845C35.6837 79.2248 35.3005 78.7138 36.1947 75.0096C36.9611 71.5607 44.1141 62.7471 46.2856 62.7471C46.6688 62.7471 46.9243 64.1522 46.9243 65.9405C46.9243 67.7287 48.0739 71.433 49.4789 74.2432C50.884 77.0533 52.0336 80.3744 52.0336 81.7794C52.0336 85.9946 54.2051 86.1224 60.9749 82.2904C67.2339 78.7138 70.044 75.3928 67.4894 74.4986C66.723 74.2432 66.0843 70.6666 66.0843 66.3237C66.0843 60.7034 66.4675 58.9151 67.7448 59.4261C68.5112 59.6815 71.4491 60.7034 74.1315 61.5975ZM83.5838 71.944C86.6494 74.7541 87.5435 81.1408 85.2443 82.5458C84.4779 83.0568 83.967 81.9072 83.967 79.9912C83.967 76.7978 80.9014 74.2432 79.2408 76.0314C78.7299 76.4146 78.0912 79.2248 77.708 82.1626C77.3248 85.1005 76.303 87.6552 75.5366 87.9106C73.4928 88.5493 74.8979 75.6482 77.3248 71.944C79.624 68.4951 79.8795 68.4951 83.5838 71.944ZM34.1509 75.1373C34.1509 77.0533 31.724 79.8634 30.8299 79.097C30.3189 78.5861 28.4029 79.2248 26.6147 80.5021C18.0565 86.3778 5.79412 92.3813 4.51679 91.104C3.75039 90.3376 5.79412 88.677 10.1371 86.2501C34.1509 73.4767 34.1509 73.4767 34.1509 75.1373ZM102.872 82.6736C107.853 85.2282 112.068 87.7829 112.068 88.1661C112.068 89.0602 98.6563 96.9797 87.1603 102.983C82.9451 105.282 75.1534 109.498 69.6608 112.435C64.296 115.373 58.6757 118.056 57.0152 118.311C53.6941 118.95 9.49839 95.1914 10.5203 93.2754C10.9035 92.6368 16.1405 89.5712 22.0163 86.3778L32.8736 80.3744L36.8333 83.3122C39.0048 84.845 43.7309 87.6552 47.3075 89.6989L53.6941 93.1477L59.3144 89.9544C64.5515 87.0165 65.1902 87.0165 67.2339 88.8048C70.4272 91.6149 74.6424 91.2317 82.051 87.1442C87.799 84.0786 88.4376 83.1845 88.8208 78.8416C89.204 74.3709 89.4595 74.1154 91.3755 75.9037C92.5251 77.0533 97.7622 79.9912 102.872 82.6736ZM106.959 79.608C111.941 82.4181 115.9 85.356 115.9 85.9946C115.9 87.5274 97.6344 77.4365 96.9958 75.6482C96.2294 73.4767 97.6344 73.9877 106.959 79.608ZM82.6896 81.1408C82.6896 82.1626 82.1787 83.44 81.4123 83.8232C80.7736 84.2064 80.135 83.44 80.135 82.0349C80.135 80.5021 80.7736 79.3525 81.4123 79.3525C82.1787 79.3525 82.6896 80.1189 82.6896 81.1408ZM106.831 96.341C100.956 99.4066 94.5688 102.855 92.6528 104.133C90.6091 105.41 89.0763 105.921 89.0763 105.41C89.204 103.75 112.196 90.9762 115.134 90.8485C116.539 90.8485 112.835 93.2754 106.831 96.341ZM2.21759 94.0418C2.21759 94.425 1.96212 94.6805 1.57892 94.6805C1.19572 94.6805 0.940254 94.425 0.940254 94.0418C0.940254 93.6586 1.19572 93.4032 1.57892 93.4032C1.96212 93.4032 2.21759 93.6586 2.21759 94.0418ZM22.5272 104.388C23.5491 105.41 24.06 106.432 23.6768 106.943C22.5272 107.965 4.77226 96.9797 5.53866 95.7024C6.17732 94.6805 19.3339 101.45 22.5272 104.388ZM54.4605 123.548C54.8437 125.464 54.4605 125.464 51.2672 123.165C49.2235 121.76 42.8368 118.183 37.0888 115.118C31.2131 112.052 26.4869 108.859 26.4869 107.965C26.4869 105.666 53.8219 120.866 54.4605 123.548ZM84.7334 108.603C84.2224 109.37 79.7518 112.308 74.6424 115.246C69.5331 118.183 63.6573 121.632 61.3581 123.037C58.9312 124.442 57.0152 124.953 56.632 124.187C56.1211 123.548 58.548 121.377 61.8691 119.461C65.3179 117.545 71.7046 113.841 76.303 111.286C84.4779 106.56 86.3939 105.921 84.7334 108.603Z" fill="white"/>
<path d="M40.5381 75.3923C40.5381 77.5638 40.7936 79.352 41.049 79.352C41.3045 79.352 42.5818 79.7352 43.7314 80.1184C45.5197 80.8848 45.7752 80.2462 45.392 76.6696C44.881 70.7939 40.5381 69.6443 40.5381 75.3923Z" fill="white"/>
<g filter="url(#filter0_f_2118_7281)">
<path d="M40.5381 75.3923C40.5381 77.5638 40.7936 79.352 41.049 79.352C41.3045 79.352 42.5818 79.7352 43.7314 80.1184C45.5197 80.8848 45.7752 80.2462 45.392 76.6696C44.881 70.7939 40.5381 69.6443 40.5381 75.3923Z" fill="#FDFF85"/>
</g>
<path d="M66.7229 81.9063C67.1061 82.5449 68.3835 83.1836 69.4053 83.1836C70.4272 83.1836 70.9381 82.5449 70.5549 81.9063C70.1717 81.1399 68.8944 80.6289 67.8725 80.6289C66.8507 80.6289 66.3397 81.1399 66.7229 81.9063Z" fill="#FDFF86"/>
<g filter="url(#filter1_f_2118_7281)">
<path d="M66.7229 81.9063C67.1061 82.5449 68.3835 83.1836 69.4053 83.1836C70.4272 83.1836 70.9381 82.5449 70.5549 81.9063C70.1717 81.1399 68.8944 80.6289 67.8725 80.6289C66.8507 80.6289 66.3397 81.1399 66.7229 81.9063Z" fill="#FDFF86"/>
</g>
<path d="M94.1865 84.716C94.1865 85.6101 95.5916 86.5043 97.3799 86.5043C99.2959 86.632 100.573 86.1211 100.573 84.9715C100.573 83.9496 99.2959 83.1832 97.3799 83.1832C95.5916 83.1832 94.1865 83.9496 94.1865 84.716Z" fill="#A5FF97"/>
<g filter="url(#filter2_f_2118_7281)">
<path d="M94.1865 84.716C94.1865 85.6101 95.5916 86.5043 97.3799 86.5043C99.2959 86.632 100.573 86.1211 100.573 84.9715C100.573 83.9496 99.2959 83.1832 97.3799 83.1832C95.5916 83.1832 94.1865 83.9496 94.1865 84.716Z" fill="#A5FF97"/>
</g>
<path d="M31.5977 89.5708C31.5977 90.2095 32.1086 90.8482 32.7473 90.8482C33.3859 90.8482 34.9187 91.2314 35.9406 91.6146C37.4734 92.2532 37.8566 91.87 37.2179 90.3372C36.3238 88.1658 31.5977 87.5271 31.5977 89.5708Z" fill="#A5FF97"/>
<g filter="url(#filter3_f_2118_7281)">
<path d="M31.5977 89.5708C31.5977 90.2095 32.1086 90.8482 32.7473 90.8482C33.3859 90.8482 34.9187 91.2314 35.9406 91.6146C37.4734 92.2532 37.8566 91.87 37.2179 90.3372C36.3238 88.1658 31.5977 87.5271 31.5977 89.5708Z" fill="#A5FF97"/>
</g>
<path d="M89.0752 93.4004C89.0752 94.0391 90.9912 94.6777 93.2904 94.6777C96.356 94.6777 96.8669 94.2945 95.4619 93.4004C92.9072 91.7399 89.0752 91.7399 89.0752 93.4004Z" fill="#A5FF97"/>
<g filter="url(#filter4_f_2118_7281)">
<path d="M89.0752 93.4004C89.0752 94.0391 90.9912 94.6777 93.2904 94.6777C96.356 94.6777 96.8669 94.2945 95.4619 93.4004C92.9072 91.7399 89.0752 91.7399 89.0752 93.4004Z" fill="#A5FF97"/>
</g>
<path d="M18.1853 94.6792C17.8021 95.3179 17.8021 95.9565 18.4408 95.9565C18.9517 95.9565 20.8677 96.3397 22.656 96.8507C25.4662 97.6171 25.7216 97.4893 24.0611 95.5733C22.1451 93.1464 19.3349 92.7632 18.1853 94.6792Z" fill="#A5FF97"/>
<g filter="url(#filter5_f_2118_7281)">
<path d="M18.1853 94.6792C17.8021 95.3179 17.8021 95.9565 18.4408 95.9565C18.9517 95.9565 20.8677 96.3397 22.656 96.8507C25.4662 97.6171 25.7216 97.4893 24.0611 95.5733C22.1451 93.1464 19.3349 92.7632 18.1853 94.6792Z" fill="#A5FF97"/>
</g>
<path d="M56.7607 96.2116C56.3775 97.3612 57.6548 97.9998 60.5927 98.1276C64.2969 98.2553 64.6801 97.9998 63.4028 96.467C61.6145 94.2956 57.6548 94.1678 56.7607 96.2116Z" fill="#A5FF97"/>
<g filter="url(#filter6_f_2118_7281)">
<path d="M56.7607 96.2116C56.3775 97.3612 57.6548 97.9998 60.5927 98.1276C64.2969 98.2553 64.6801 97.9998 63.4028 96.467C61.6145 94.2956 57.6548 94.1678 56.7607 96.2116Z" fill="#A5FF97"/>
</g>
<path d="M40.0258 100.811C39.6426 101.322 41.0477 102.472 43.2191 103.238C47.0511 104.771 47.9453 103.877 45.3906 101.322C43.6023 99.5338 40.9199 99.2783 40.0258 100.811Z" fill="#A5FF97"/>
<g filter="url(#filter7_f_2118_7281)">
<path d="M40.0258 100.811C39.6426 101.322 41.0477 102.472 43.2191 103.238C47.0511 104.771 47.9453 103.877 45.3906 101.322C43.6023 99.5338 40.9199 99.2783 40.0258 100.811Z" fill="#A5FF97"/>
</g>
<path d="M73.11 101.066C73.4932 101.705 75.2814 102.344 77.0697 102.344C78.7302 102.344 80.1353 101.705 80.1353 101.066C80.1353 100.3 78.347 99.7891 76.1756 99.7891C74.0041 99.7891 72.599 100.3 73.11 101.066Z" fill="#A5FF97"/>
<g filter="url(#filter8_f_2118_7281)">
<path d="M73.11 101.066C73.4932 101.705 75.2814 102.344 77.0697 102.344C78.7302 102.344 80.1353 101.705 80.1353 101.066C80.1353 100.3 78.347 99.7891 76.1756 99.7891C74.0041 99.7891 72.599 100.3 73.11 101.066Z" fill="#A5FF97"/>
</g>
<path d="M54.5889 107.451C54.5889 108.09 55.9939 108.729 57.7822 108.729C59.5705 108.729 60.9755 108.09 60.9755 107.451C60.9755 106.685 59.5705 106.174 57.7822 106.174C55.9939 106.174 54.5889 106.685 54.5889 107.451Z" fill="#A5FF97"/>
<g filter="url(#filter9_f_2118_7281)">
<path d="M54.5889 107.451C54.5889 108.09 55.9939 108.729 57.7822 108.729C59.5705 108.729 60.9755 108.09 60.9755 107.451C60.9755 106.685 59.5705 106.174 57.7822 106.174C55.9939 106.174 54.5889 106.685 54.5889 107.451Z" fill="#A5FF97"/>
</g>
<path d="M102.781 13.6163L88.5703 27.0262L89.7712 39.035L90.9721 50.8437L120.994 69.0571C177.836 103.282 215.464 124.098 220.668 124.098C224.871 124.098 266.301 104.483 270.504 100.28C271.305 99.6797 272.306 95.2764 272.906 91.0733C273.306 86.6701 274.307 81.4663 275.108 79.4648C275.908 77.4633 276.309 75.662 275.908 75.2617C272.306 72.4596 166.428 13.216 158.021 9.41319C148.214 5.00995 127.399 -0.193886 119.793 0.00626373C118.192 0.206413 110.587 6.21084 102.781 13.6163ZM143.01 16.8186C189.645 41.8371 233.277 65.8548 236.88 68.4567C240.482 71.0586 240.282 71.8592 231.075 85.6694C225.871 93.6753 220.868 100.08 220.267 100.08C219.467 100.08 217.065 98.8791 215.063 97.2779C212.862 95.6767 200.253 88.6716 187.043 81.6664C173.833 74.6612 150.016 60.8511 134.204 51.244C118.392 41.4368 102.781 32.6303 99.5784 31.6296C96.5762 30.4287 93.9743 29.0276 93.9743 28.4272C93.9743 26.826 118.793 4.00922 119.993 4.60966C120.594 4.8098 131.002 10.4139 143.01 16.8186ZM166.428 17.4191C172.232 20.6214 191.046 31.2293 208.058 41.0365C225.071 50.6436 243.685 61.2514 249.089 64.2536C257.895 69.2573 258.495 70.0579 253.692 70.0579C250.49 70.0579 228.874 59.2499 200.853 43.8385C174.634 29.4279 149.215 15.6178 144.612 13.4161C140.008 11.2145 136.606 8.6126 137.206 7.81201C138.607 5.61039 154.019 10.6141 166.428 17.4191ZM102.38 37.2337C105.983 39.035 121.795 48.4419 137.807 57.8489C154.019 67.4559 179.037 81.8666 193.648 89.8725C208.258 97.8783 220.868 105.684 221.468 107.285C222.069 108.886 221.868 112.489 221.268 115.291C220.267 119.094 219.066 120.095 216.464 119.094C210.26 116.892 145.212 79.6649 119.593 63.6531C94.7749 48.2418 93.9743 47.6413 93.9743 40.8363C93.9743 33.0306 94.1744 33.0306 102.38 37.2337ZM263.499 76.4626C269.904 78.2639 270.104 78.6642 268.903 86.6701C267.302 98.0785 266.701 100.08 263.899 100.08C262.498 100.08 262.098 98.0785 262.498 95.2764C264.3 85.6694 261.498 85.0689 246.286 92.0741L232.076 98.6789V107.085C232.076 111.889 230.875 116.692 229.274 117.893C226.872 119.895 226.272 118.894 225.071 112.089C223.87 104.483 224.47 102.682 232.276 91.4736C246.887 70.0579 245.286 70.8584 263.499 76.4626ZM258.495 97.4781C256.694 107.085 250.089 109.287 250.089 100.48C250.089 93.8754 251.49 92.0741 256.094 92.0741C258.696 92.0741 259.296 93.275 258.495 97.4781ZM246.086 102.682C246.086 107.886 244.885 109.887 241.083 111.689C236.279 113.89 236.079 113.69 236.079 107.085C236.079 102.682 237.28 99.4795 239.682 98.2786C245.086 95.0763 246.086 95.6767 246.086 102.682Z" fill="white"/>
<path d="M126.999 21.2206C115.391 27.0249 114.79 29.0263 122.996 34.03C126.999 36.4318 130.402 38.2331 130.802 37.8328C133.804 34.4303 138.008 23.0219 137.207 20.8203C135.806 17.2176 134.405 17.2176 126.999 21.2206ZM134.005 26.0241C134.005 28.626 132.604 30.0271 130.402 30.0271C124.798 30.0271 123.597 27.8254 127.6 24.8232C132.403 21.0204 134.005 21.4207 134.005 26.0241Z" fill="#FDFF85"/>
<g filter="url(#filter10_f_2118_7281)">
<path d="M126.999 21.2206C115.391 27.0249 114.79 29.0263 122.996 34.03C126.999 36.4318 130.402 38.2331 130.802 37.8328C133.804 34.4303 138.008 23.0219 137.207 20.8203C135.806 17.2176 134.405 17.2176 126.999 21.2206ZM134.005 26.0241C134.005 28.626 132.604 30.0271 130.402 30.0271C124.798 30.0271 123.597 27.8254 127.6 24.8232C132.403 21.0204 134.005 21.4207 134.005 26.0241Z" fill="#FDFF85"/>
</g>
<path d="M165.026 38.4345C152.817 42.6376 148.614 50.0431 155.82 54.046C162.024 57.2484 163.425 56.648 168.829 46.8407C175.834 34.4316 175.834 34.6317 165.026 38.4345ZM163.225 47.241C157.221 51.4441 154.419 50.4434 159.823 45.84C162.424 43.6384 165.227 42.4375 165.827 43.2381C166.427 43.8385 165.227 45.6399 163.225 47.241Z" fill="#FDFF85"/>
<g filter="url(#filter11_f_2118_7281)">
<path d="M165.026 38.4345C152.817 42.6376 148.614 50.0431 155.82 54.046C162.024 57.2484 163.425 56.648 168.829 46.8407C175.834 34.4316 175.834 34.6317 165.026 38.4345ZM163.225 47.241C157.221 51.4441 154.419 50.4434 159.823 45.84C162.424 43.6384 165.227 42.4375 165.827 43.2381C166.427 43.8385 165.227 45.6399 163.225 47.241Z" fill="#FDFF85"/>
</g>
<path d="M193.047 58.8497C185.441 62.0521 181.038 67.2559 184.04 69.0572C185.241 69.8578 187.643 69.2574 189.244 67.8564C191.646 65.8549 191.846 66.055 190.845 68.8571C189.044 73.4605 195.449 75.2618 199.852 71.2589C202.053 69.2574 204.055 65.2544 204.455 61.8519C205.456 55.2471 202.854 54.4465 193.047 58.8497ZM200.052 61.4516C199.852 65.0543 196.449 68.4568 195.248 66.2552C194.448 65.0543 194.448 63.0528 195.048 62.0521C196.449 59.6503 200.052 59.4502 200.052 61.4516Z" fill="#FDFF85"/>
<g filter="url(#filter12_f_2118_7281)">
<path d="M193.047 58.8497C185.441 62.0521 181.038 67.2559 184.04 69.0572C185.241 69.8578 187.643 69.2574 189.244 67.8564C191.646 65.8549 191.846 66.055 190.845 68.8571C189.044 73.4605 195.449 75.2618 199.852 71.2589C202.053 69.2574 204.055 65.2544 204.455 61.8519C205.456 55.2471 202.854 54.4465 193.047 58.8497ZM200.052 61.4516C199.852 65.0543 196.449 68.4568 195.248 66.2552C194.448 65.0543 194.448 63.0528 195.048 62.0521C196.449 59.6503 200.052 59.4502 200.052 61.4516Z" fill="#FDFF85"/>
</g>
<path d="M103.78 48.0398C108.384 52.0428 111.986 53.2437 111.986 50.8419C111.986 48.6403 105.181 44.237 101.979 44.237C99.9776 44.237 100.378 45.4379 103.78 48.0398Z" fill="#FDFF85"/>
<g filter="url(#filter13_f_2118_7281)">
<path d="M103.78 48.0398C108.384 52.0428 111.986 53.2437 111.986 50.8419C111.986 48.6403 105.181 44.237 101.979 44.237C99.9776 44.237 100.378 45.4379 103.78 48.0398Z" fill="#FDFF85"/>
</g>
<path d="M122.395 58.2483C123.396 61.4507 140.008 70.8576 140.008 68.2557C140.008 66.2542 125.597 56.0467 122.795 56.0467C122.195 56.0467 121.994 57.0474 122.395 58.2483Z" fill="#FDFF85"/>
<g filter="url(#filter14_f_2118_7281)">
<path d="M122.395 58.2483C123.396 61.4507 140.008 70.8576 140.008 68.2557C140.008 66.2542 125.597 56.0467 122.795 56.0467C122.195 56.0467 121.994 57.0474 122.395 58.2483Z" fill="#FDFF85"/>
</g>
<path d="M154.017 76.8615C155.218 78.4627 159.421 81.665 163.424 84.0668C172.231 89.2706 171.23 84.6673 162.023 78.4627C154.618 73.459 150.415 72.6584 154.017 76.8615Z" fill="#FDFF85"/>
<g filter="url(#filter15_f_2118_7281)">
<path d="M154.017 76.8615C155.218 78.4627 159.421 81.665 163.424 84.0668C172.231 89.2706 171.23 84.6673 162.023 78.4627C154.618 73.459 150.415 72.6584 154.017 76.8615Z" fill="#FDFF85"/>
</g>
<path d="M188.044 96.0768C188.044 98.4785 204.056 106.685 205.657 105.284C206.257 104.483 205.056 102.682 202.855 101.08C197.451 97.0775 188.044 93.8751 188.044 96.0768Z" fill="#FDFF85"/>
<g filter="url(#filter16_f_2118_7281)">
<path d="M188.044 96.0768C188.044 98.4785 204.056 106.685 205.657 105.284C206.257 104.483 205.056 102.682 202.855 101.08C197.451 97.0775 188.044 93.8751 188.044 96.0768Z" fill="#FDFF85"/>
</g>
<path d="M244.083 82.0669C244.083 83.0676 245.484 84.0684 247.085 84.0684C248.686 84.0684 250.087 83.0676 250.087 82.0669C250.087 80.866 248.686 80.0654 247.085 80.0654C245.484 80.0654 244.083 80.866 244.083 82.0669Z" fill="#FDFF85"/>
<g filter="url(#filter17_f_2118_7281)">
<path d="M244.083 82.0669C244.083 83.0676 245.484 84.0684 247.085 84.0684C248.686 84.0684 250.087 83.0676 250.087 82.0669C250.087 80.866 248.686 80.0654 247.085 80.0654C245.484 80.0654 244.083 80.866 244.083 82.0669Z" fill="#FDFF85"/>
</g>
<path d="M129.374 94.8449C124.828 97.7017 117.536 101.882 113.216 104.132C108.982 106.378 104.913 108.53 104.254 108.988C103.59 109.36 99.8693 111.666 95.9826 114.066C92.0958 116.465 86.6357 119.791 83.7358 121.463C80.8358 123.134 77.8631 125.064 77.212 125.691C76.1524 126.678 75.8127 126.695 75.4282 125.776C75.1327 124.939 74.6271 125.049 73.244 126.392C71.6991 127.913 50.1299 141.545 45.8062 143.71C44.4755 144.37 44.1642 144.981 44.6458 146.15C45.3176 147.735 45.4025 147.731 47.101 145.862C48.0716 144.794 50.7045 142.88 53.0261 141.577C55.2627 140.278 60.3062 137.142 64.2698 134.569C71.202 129.98 74.6522 129.134 73.0996 132.273C72.481 133.58 56.586 143.024 47.603 147.456C42.7777 149.815 43.7731 151.044 55.2905 156.879C60.2664 159.45 65.5862 162.091 67.0749 162.956C68.6446 163.732 77.3666 168.083 86.4324 172.502C95.5872 177.002 103.439 180.969 103.969 181.369C104.588 181.851 106.671 180.9 109.794 178.537C112.512 176.619 117.79 173.046 121.676 170.646C133.329 163.278 139.686 159.143 152.232 150.88C163.29 143.54 185.478 130.389 188.912 129.203C189.915 128.814 190.291 127.775 190.173 125.311C190.084 123.443 190.241 121.392 190.46 120.615C190.755 119.664 190.48 119.252 189.46 119.301C188.696 119.337 184.42 117.158 179.945 114.392C175.56 111.707 170.916 108.949 169.609 108.331C160.45 103.746 138.402 91.3481 138.111 90.5958C137.916 90.0943 134.171 91.891 129.374 94.8449ZM135.956 95.3815C136.057 97.5051 135.572 98.0392 131.746 99.925C129.331 101.062 122.192 104.894 115.976 108.427C105.278 114.387 104.526 114.679 104.44 112.895C104.363 111.281 106.754 109.634 119.927 102.023C128.461 97.1022 135.502 93.0193 135.672 93.0112C135.753 92.9222 135.891 94.0224 135.956 95.3815ZM145.923 97.2887C150.818 99.9493 152.942 101.636 153.173 102.902C153.513 104.673 152.821 104.451 145.665 100.792C140.341 98.0665 137.699 96.2347 137.65 95.2153C137.61 94.3659 137.917 93.6701 138.257 93.6538C138.682 93.6335 142.08 95.2589 145.923 97.2887ZM145.588 102.754C158.162 109.304 158.862 109.696 170.428 116.55C176.561 120.173 181.573 123.509 181.594 123.934C181.626 124.613 161.137 137.683 159.948 137.74C159.608 137.756 155.147 140.609 149.95 144.093C144.756 147.662 138.722 151.441 136.477 152.57C131.074 155.297 131.652 154.929 118.552 164.07C112.287 168.371 106.504 172.053 105.743 172.175C104.979 172.211 104.146 172.592 103.907 172.944C103.507 173.474 88.9349 166.082 86.2809 163.996C85.4799 163.268 84.6142 162.969 84.3715 163.236C84.1289 163.503 80.7429 162.132 76.8148 160.106C72.8907 158.166 69.4076 156.544 69.0678 156.56C68.728 156.577 67.9351 156.019 67.3079 155.368C66.6808 154.716 65.718 154.166 65.0384 154.199C64.0191 154.248 52.4895 148.158 52.457 147.479C52.4529 147.394 57.4155 144.347 63.4621 140.822C77.7878 132.39 98.8194 119.975 100.882 118.599C104.267 116.394 136.547 98.8439 137.311 98.8074C137.736 98.7871 141.397 100.57 145.588 102.754ZM160.697 105.351C162.627 106.536 165.867 108.424 167.967 109.601C169.978 110.697 171.661 112.064 171.681 112.489C171.701 112.913 172.219 113.059 172.886 112.771C173.554 112.484 175.815 113.483 177.927 114.914C180.124 116.342 183.028 118.331 184.432 119.201C186.459 120.636 186.742 121.219 186.018 122.105C185.21 122.995 183.737 122.469 178.733 119.303C175.225 117.172 171.803 115.037 171.018 114.649C156.329 106.582 154.217 105.15 154.815 103.419C155.264 102.121 155.438 102.197 160.697 105.351ZM102.782 113.826C102.859 115.44 101.622 116.265 85.5529 125.633C79.9229 128.967 75.1058 131.496 74.9237 131.249C73.5036 130.04 76.3711 127.69 86.6442 121.749C92.9375 118.043 98.8101 114.441 99.712 113.717C101.928 111.994 102.697 112.042 102.782 113.826ZM187.564 125.947C186.865 127.343 183.492 129.803 177.773 133.056C172.964 135.755 166.756 139.458 163.945 141.21C159.237 144.245 158.731 144.354 158.658 142.825C158.573 141.041 159.232 140.584 174.274 131.095C180.304 127.231 183.548 125.628 184.923 125.903C186.383 126.174 186.796 125.899 186.739 124.709C186.646 122.756 187.689 121.429 188.179 122.768C188.462 123.35 188.102 124.729 187.564 125.947ZM157 143.756C157.081 145.455 152.402 149.084 140.175 156.905C133.728 160.96 133.563 161.053 133.049 159.205C132.547 157.611 133.525 156.713 140.967 152.1C145.679 149.15 150.88 145.751 152.522 144.481C156.223 141.749 156.898 141.632 157 143.756ZM56.418 151.972C59.3915 153.618 66.4548 157.111 72.1993 159.731C77.8588 162.355 83.0896 164.915 83.7086 165.396C84.7686 166.196 85.5176 169.396 84.5832 169.441C83.5638 169.489 68.1061 161.374 66.5929 159.999C65.7919 159.271 64.9181 158.802 64.6713 158.984C64.1052 159.607 48.1256 151.262 47.644 150.093C46.8669 148.087 51.0779 148.907 56.418 151.972ZM130.072 162.838C128.103 164.379 106.477 178.61 106.052 178.63C105.882 178.639 105.837 177.704 105.955 176.592C106.043 174.885 108.498 172.809 118.48 166.117C130.031 158.412 130.86 157.947 131.2 159.719C131.512 160.896 131.059 162.109 130.072 162.838ZM95.8166 171.117C102.37 174.635 104.049 175.917 104.122 177.446C104.212 179.314 103.694 179.169 95.4897 174.964C88.5113 171.466 86.7515 170.273 86.6743 168.659C86.6255 167.64 86.8397 166.778 87.0946 166.766C87.3494 166.754 91.2735 168.695 95.8166 171.117Z" fill="white"/>
<path d="M122.112 110.348C121.069 111.675 121.243 111.751 123.087 111.152C124.26 110.756 126.457 110.395 127.986 110.322C129.43 110.253 130.684 109.767 130.663 109.343C130.594 107.899 123.309 108.673 122.112 110.348Z" fill="#A5FF97"/>
<g filter="url(#filter18_f_2118_7281)">
<path d="M122.112 110.348C121.069 111.675 121.243 111.751 123.087 111.152C124.26 110.756 126.457 110.395 127.986 110.322C129.43 110.253 130.684 109.767 130.663 109.343C130.594 107.899 123.309 108.673 122.112 110.348Z" fill="#A5FF97"/>
</g>
<path d="M131.619 111.511C128.36 114.561 128.889 114.962 133.031 112.55C137.088 110.142 144.243 110.226 147.937 112.688C149.26 113.647 150.554 114.011 150.789 113.574C151.885 111.563 144.425 108.685 138.819 108.953C135.081 109.131 133.742 109.621 131.619 111.511Z" fill="#A5FF97"/>
<g filter="url(#filter19_f_2118_7281)">
<path d="M131.619 111.511C128.36 114.561 128.889 114.962 133.031 112.55C137.088 110.142 144.243 110.226 147.937 112.688C149.26 113.647 150.554 114.011 150.789 113.574C151.885 111.563 144.425 108.685 138.819 108.953C135.081 109.131 133.742 109.621 131.619 111.511Z" fill="#A5FF97"/>
</g>
<path d="M165.332 122.16C164.014 123.074 164.188 123.151 167.772 123.32C169.05 123.344 171.275 123.579 172.654 123.938C174.976 124.423 175.057 124.334 173.896 123.198C172.201 121.576 166.979 120.974 165.332 122.16Z" fill="#A5FF97"/>
<g filter="url(#filter20_f_2118_7281)">
<path d="M165.332 122.16C164.014 123.074 164.188 123.151 167.772 123.32C169.05 123.344 171.275 123.579 172.654 123.938C174.976 124.423 175.057 124.334 173.896 123.198C172.201 121.576 166.979 120.974 165.332 122.16Z" fill="#A5FF97"/>
</g>
<path d="M153.858 124.326C150.032 126.212 151.173 126.924 156.585 126.154C160.735 125.7 162.527 125.785 164.194 126.812C166.556 128.146 168.186 128.409 168.134 127.305C168.028 125.096 157.021 122.813 153.858 124.326Z" fill="#A5FF97"/>
<g filter="url(#filter21_f_2118_7281)">
<path d="M153.858 124.326C150.032 126.212 151.173 126.924 156.585 126.154C160.735 125.7 162.527 125.785 164.194 126.812C166.556 128.146 168.186 128.409 168.134 127.305C168.028 125.096 157.021 122.813 153.858 124.326Z" fill="#A5FF97"/>
</g>
<path d="M104.634 129.405C101.953 130.3 100.493 131.817 101.468 132.622C101.735 132.864 102.491 132.658 103.061 132.12C104.449 130.861 108.259 130.424 112.118 131.006C114.865 131.47 115.035 131.462 113.784 130.245C112.004 128.627 107.983 128.223 104.634 129.405Z" fill="#A5FF97"/>
<g filter="url(#filter22_f_2118_7281)">
<path d="M104.634 129.405C101.953 130.3 100.493 131.817 101.468 132.622C101.735 132.864 102.491 132.658 103.061 132.12C104.449 130.861 108.259 130.424 112.118 131.006C114.865 131.47 115.035 131.462 113.784 130.245C112.004 128.627 107.983 128.223 104.634 129.405Z" fill="#A5FF97"/>
</g>
<path d="M115.845 132.358C114.361 133.366 113.147 134.701 113.18 135.381C113.253 136.91 113.253 136.91 116.533 134.284C118.337 132.835 120.424 131.969 122.463 131.872C124.331 131.782 126.75 132.518 128.765 133.699C132.184 135.749 133.648 136.104 133.587 134.83C133.567 134.405 131.718 133.132 129.537 132.044C124.655 129.638 119.635 129.708 115.845 132.358Z" fill="#A5FF97"/>
<g filter="url(#filter23_f_2118_7281)">
<path d="M115.845 132.358C114.361 133.366 113.147 134.701 113.18 135.381C113.253 136.91 113.253 136.91 116.533 134.284C118.337 132.835 120.424 131.969 122.463 131.872C124.331 131.782 126.75 132.518 128.765 133.699C132.184 135.749 133.648 136.104 133.587 134.83C133.567 134.405 131.718 133.132 129.537 132.044C124.655 129.638 119.635 129.708 115.845 132.358Z" fill="#A5FF97"/>
</g>
<path d="M84.561 140.496C79.7439 143.026 80.7149 143.745 86.1469 141.613C91.4981 139.569 95.438 140.061 99.5121 143.357C102.251 145.44 102.599 145.593 102.53 144.149C102.424 141.941 94.928 138.298 91.1055 138.481C89.4915 138.558 86.555 139.465 84.561 140.496Z" fill="#A5FF97"/>
<g filter="url(#filter24_f_2118_7281)">
<path d="M84.561 140.496C79.7439 143.026 80.7149 143.745 86.1469 141.613C91.4981 139.569 95.438 140.061 99.5121 143.357C102.251 145.44 102.599 145.593 102.53 144.149C102.424 141.941 94.928 138.298 91.1055 138.481C89.4915 138.558 86.555 139.465 84.561 140.496Z" fill="#A5FF97"/>
</g>
<path d="M69.2703 146.507C67.9315 146.997 66.9487 147.81 66.9731 148.32C66.9975 148.83 67.5962 148.886 68.5143 148.502C71.6731 146.903 79.3182 146.537 82.1014 147.767C85.2325 149.149 85.7463 149.21 85.6975 148.191C85.5675 145.472 74.3585 144.306 69.2703 146.507Z" fill="#A5FF97"/>
<g filter="url(#filter25_f_2118_7281)">
<path d="M69.2703 146.507C67.9315 146.997 66.9487 147.81 66.9731 148.32C66.9975 148.83 67.5962 148.886 68.5143 148.502C71.6731 146.903 79.3182 146.537 82.1014 147.767C85.2325 149.149 85.7463 149.21 85.6975 148.191C85.5675 145.472 74.3585 144.306 69.2703 146.507Z" fill="#A5FF97"/>
</g>
<path d="M99.3049 151.453C95.9478 152.465 98.2091 153.463 103.391 153.216C108.657 152.964 110.481 151.94 107.456 150.978C105.983 150.452 101.57 150.749 99.3049 151.453Z" fill="#A5FF97"/>
<g filter="url(#filter26_f_2118_7281)">
<path d="M99.3049 151.453C95.9478 152.465 98.2091 153.463 103.391 153.216C108.657 152.964 110.481 151.94 107.456 150.978C105.983 150.452 101.57 150.749 99.3049 151.453Z" fill="#A5FF97"/>
</g>
<path d="M112.719 152.432C109.653 154.196 108.517 155.357 109.314 156C109.585 156.328 110.92 155.753 112.153 154.843C115.445 152.471 118.495 152.155 122.076 154.027C125.737 155.81 126.081 155.879 126.024 154.69C125.971 153.586 119.284 150.841 116.901 150.869C115.967 150.914 114.127 151.598 112.719 152.432Z" fill="#A5FF97"/>
<g filter="url(#filter27_f_2118_7281)">
<path d="M112.719 152.432C109.653 154.196 108.517 155.357 109.314 156C109.585 156.328 110.92 155.753 112.153 154.843C115.445 152.471 118.495 152.155 122.076 154.027C125.737 155.81 126.081 155.879 126.024 154.69C125.971 153.586 119.284 150.841 116.901 150.869C115.967 150.914 114.127 151.598 112.719 152.432Z" fill="#A5FF97"/>
</g>
<defs>
<filter id="filter0_f_2118_7281" x="38.5366" y="69.6235" width="9.01076" height="12.7842" filterUnits="userSpaceOnUse" color-interpolation-filters="sRGB">
<feFlood flood-opacity="0" result="BackgroundImageFix"/>
<feBlend mode="normal" in="SourceGraphic" in2="BackgroundImageFix" result="shape"/>
<feGaussianBlur stdDeviation="1.00074" result="effect1_foregroundBlur_2118_7281"/>
</filter>
<filter id="filter1_f_2118_7281" x="64.5942" y="78.6274" width="8.08986" height="6.55764" filterUnits="userSpaceOnUse" color-interpolation-filters="sRGB">
<feFlood flood-opacity="0" result="BackgroundImageFix"/>
<feBlend mode="normal" in="SourceGraphic" in2="BackgroundImageFix" result="shape"/>
<feGaussianBlur stdDeviation="1.00074" result="effect1_foregroundBlur_2118_7281"/>
</filter>
<filter id="filter2_f_2118_7281" x="92.185" y="81.1821" width="10.3897" height="7.34279" filterUnits="userSpaceOnUse" color-interpolation-filters="sRGB">
<feFlood flood-opacity="0" result="BackgroundImageFix"/>
<feBlend mode="normal" in="SourceGraphic" in2="BackgroundImageFix" result="shape"/>
<feGaussianBlur stdDeviation="1.00074" result="effect1_foregroundBlur_2118_7281"/>
</filter>
<filter id="filter3_f_2118_7281" x="29.5962" y="86.3286" width="9.91896" height="7.58303" filterUnits="userSpaceOnUse" color-interpolation-filters="sRGB">
<feFlood flood-opacity="0" result="BackgroundImageFix"/>
<feBlend mode="normal" in="SourceGraphic" in2="BackgroundImageFix" result="shape"/>
<feGaussianBlur stdDeviation="1.00074" result="effect1_foregroundBlur_2118_7281"/>
</filter>
<filter id="filter4_f_2118_7281" x="87.0737" y="90.1528" width="11.1338" height="6.52639" filterUnits="userSpaceOnUse" color-interpolation-filters="sRGB">
<feFlood flood-opacity="0" result="BackgroundImageFix"/>
<feBlend mode="normal" in="SourceGraphic" in2="BackgroundImageFix" result="shape"/>
<feGaussianBlur stdDeviation="1.00074" result="effect1_foregroundBlur_2118_7281"/>
</filter>
<filter id="filter5_f_2118_7281" x="15.9224" y="91.4614" width="11.1729" height="7.82912" filterUnits="userSpaceOnUse" color-interpolation-filters="sRGB">
<feFlood flood-opacity="0" result="BackgroundImageFix"/>
<feBlend mode="normal" in="SourceGraphic" in2="BackgroundImageFix" result="shape"/>
<feGaussianBlur stdDeviation="1.00074" result="effect1_foregroundBlur_2118_7281"/>
</filter>
<filter id="filter6_f_2118_7281" x="54.6929" y="92.7544" width="11.374" height="7.40334" filterUnits="userSpaceOnUse" color-interpolation-filters="sRGB">
<feFlood flood-opacity="0" result="BackgroundImageFix"/>
<feBlend mode="normal" in="SourceGraphic" in2="BackgroundImageFix" result="shape"/>
<feGaussianBlur stdDeviation="1.00074" result="effect1_foregroundBlur_2118_7281"/>
</filter>
<filter id="filter7_f_2118_7281" x="37.9614" y="97.8032" width="10.877" height="8.1885" filterUnits="userSpaceOnUse" color-interpolation-filters="sRGB">
<feFlood flood-opacity="0" result="BackgroundImageFix"/>
<feBlend mode="normal" in="SourceGraphic" in2="BackgroundImageFix" result="shape"/>
<feGaussianBlur stdDeviation="1.00074" result="effect1_foregroundBlur_2118_7281"/>
</filter>
<filter id="filter8_f_2118_7281" x="71.0034" y="97.7876" width="11.1338" height="6.55764" filterUnits="userSpaceOnUse" color-interpolation-filters="sRGB">
<feFlood flood-opacity="0" result="BackgroundImageFix"/>
<feBlend mode="normal" in="SourceGraphic" in2="BackgroundImageFix" result="shape"/>
<feGaussianBlur stdDeviation="1.00074" result="effect1_foregroundBlur_2118_7281"/>
</filter>
<filter id="filter9_f_2118_7281" x="52.5874" y="104.172" width="10.3897" height="6.55764" filterUnits="userSpaceOnUse" color-interpolation-filters="sRGB">
<feFlood flood-opacity="0" result="BackgroundImageFix"/>
<feBlend mode="normal" in="SourceGraphic" in2="BackgroundImageFix" result="shape"/>
<feGaussianBlur stdDeviation="1.00074" result="effect1_foregroundBlur_2118_7281"/>
</filter>
<filter id="filter10_f_2118_7281" x="115.465" y="16.1645" width="23.8428" height="23.7256" filterUnits="userSpaceOnUse" color-interpolation-filters="sRGB">
<feFlood flood-opacity="0" result="BackgroundImageFix"/>
<feBlend mode="normal" in="SourceGraphic" in2="BackgroundImageFix" result="shape"/>
<feGaussianBlur stdDeviation="1.00074" result="effect1_foregroundBlur_2118_7281"/>
</filter>
<filter id="filter11_f_2118_7281" x="150.29" y="34.147" width="25.3965" height="23.6358" filterUnits="userSpaceOnUse" color-interpolation-filters="sRGB">
<feFlood flood-opacity="0" result="BackgroundImageFix"/>
<feBlend mode="normal" in="SourceGraphic" in2="BackgroundImageFix" result="shape"/>
<feGaussianBlur stdDeviation="1.00074" result="effect1_foregroundBlur_2118_7281"/>
</filter>
<filter id="filter12_f_2118_7281" x="181.087" y="54.0981" width="25.5694" height="21.376" filterUnits="userSpaceOnUse" color-interpolation-filters="sRGB">
<feFlood flood-opacity="0" result="BackgroundImageFix"/>
<feBlend mode="normal" in="SourceGraphic" in2="BackgroundImageFix" result="shape"/>
<feGaussianBlur stdDeviation="1.00074" result="effect1_foregroundBlur_2118_7281"/>
</filter>
<filter id="filter13_f_2118_7281" x="98.7671" y="42.2349" width="15.2207" height="11.8408" filterUnits="userSpaceOnUse" color-interpolation-filters="sRGB">
<feFlood flood-opacity="0" result="BackgroundImageFix"/>
<feBlend mode="normal" in="SourceGraphic" in2="BackgroundImageFix" result="shape"/>
<feGaussianBlur stdDeviation="1.00074" result="effect1_foregroundBlur_2118_7281"/>
</filter>
<filter id="filter14_f_2118_7281" x="120.185" y="54.0454" width="21.8242" height="16.6612" filterUnits="userSpaceOnUse" color-interpolation-filters="sRGB">
<feFlood flood-opacity="0" result="BackgroundImageFix"/>
<feBlend mode="normal" in="SourceGraphic" in2="BackgroundImageFix" result="shape"/>
<feGaussianBlur stdDeviation="1.00074" result="effect1_foregroundBlur_2118_7281"/>
</filter>
<filter id="filter15_f_2118_7281" x="150.706" y="72.1489" width="20.8047" height="16.1768" filterUnits="userSpaceOnUse" color-interpolation-filters="sRGB">
<feFlood flood-opacity="0" result="BackgroundImageFix"/>
<feBlend mode="normal" in="SourceGraphic" in2="BackgroundImageFix" result="shape"/>
<feGaussianBlur stdDeviation="1.00074" result="effect1_foregroundBlur_2118_7281"/>
</filter>
<filter id="filter16_f_2118_7281" x="186.042" y="93.3579" width="21.7695" height="14.0869" filterUnits="userSpaceOnUse" color-interpolation-filters="sRGB">
<feFlood flood-opacity="0" result="BackgroundImageFix"/>
<feBlend mode="normal" in="SourceGraphic" in2="BackgroundImageFix" result="shape"/>
<feGaussianBlur stdDeviation="1.00074" result="effect1_foregroundBlur_2118_7281"/>
</filter>
<filter id="filter17_f_2118_7281" x="242.082" y="78.063" width="10.0078" height="8.00685" filterUnits="userSpaceOnUse" color-interpolation-filters="sRGB">
<feFlood flood-opacity="0" result="BackgroundImageFix"/>
<feBlend mode="normal" in="SourceGraphic" in2="BackgroundImageFix" result="shape"/>
<feGaussianBlur stdDeviation="1.00074" result="effect1_foregroundBlur_2118_7281"/>
</filter>
<filter id="filter18_f_2118_7281" x="119.472" y="106.583" width="13.1934" height="6.93068" filterUnits="userSpaceOnUse" color-interpolation-filters="sRGB">
<feFlood flood-opacity="0" result="BackgroundImageFix"/>
<feBlend mode="normal" in="SourceGraphic" in2="BackgroundImageFix" result="shape"/>
<feGaussianBlur stdDeviation="1.00074" result="effect1_foregroundBlur_2118_7281"/>
</filter>
<filter id="filter19_f_2118_7281" x="127.5" y="106.934" width="25.3985" height="9.18068" filterUnits="userSpaceOnUse" color-interpolation-filters="sRGB">
<feFlood flood-opacity="0" result="BackgroundImageFix"/>
<feBlend mode="normal" in="SourceGraphic" in2="BackgroundImageFix" result="shape"/>
<feGaussianBlur stdDeviation="1.00074" result="effect1_foregroundBlur_2118_7281"/>
</filter>
<filter id="filter20_f_2118_7281" x="162.577" y="119.538" width="14.0537" height="6.68068" filterUnits="userSpaceOnUse" color-interpolation-filters="sRGB">
<feFlood flood-opacity="0" result="BackgroundImageFix"/>
<feBlend mode="normal" in="SourceGraphic" in2="BackgroundImageFix" result="shape"/>
<feGaussianBlur stdDeviation="1.00074" result="effect1_foregroundBlur_2118_7281"/>
</filter>
<filter id="filter21_f_2118_7281" x="149.605" y="121.836" width="20.5313" height="8.1592" filterUnits="userSpaceOnUse" color-interpolation-filters="sRGB">
<feFlood flood-opacity="0" result="BackgroundImageFix"/>
<feBlend mode="normal" in="SourceGraphic" in2="BackgroundImageFix" result="shape"/>
<feGaussianBlur stdDeviation="1.00074" result="effect1_foregroundBlur_2118_7281"/>
</filter>
<filter id="filter22_f_2118_7281" x="99.1626" y="126.723" width="17.3701" height="8.001" filterUnits="userSpaceOnUse" color-interpolation-filters="sRGB">
<feFlood flood-opacity="0" result="BackgroundImageFix"/>
<feBlend mode="normal" in="SourceGraphic" in2="BackgroundImageFix" result="shape"/>
<feGaussianBlur stdDeviation="1.00074" result="effect1_foregroundBlur_2118_7281"/>
</filter>
<filter id="filter23_f_2118_7281" x="111.178" y="128.301" width="24.4121" height="10.1182" filterUnits="userSpaceOnUse" color-interpolation-filters="sRGB">
<feFlood flood-opacity="0" result="BackgroundImageFix"/>
<feBlend mode="normal" in="SourceGraphic" in2="BackgroundImageFix" result="shape"/>
<feGaussianBlur stdDeviation="1.00074" result="effect1_foregroundBlur_2118_7281"/>
</filter>
<filter id="filter24_f_2118_7281" x="79.4497" y="136.473" width="25.0889" height="10.6279" filterUnits="userSpaceOnUse" color-interpolation-filters="sRGB">
<feFlood flood-opacity="0" result="BackgroundImageFix"/>
<feBlend mode="normal" in="SourceGraphic" in2="BackgroundImageFix" result="shape"/>
<feGaussianBlur stdDeviation="1.00074" result="effect1_foregroundBlur_2118_7281"/>
</filter>
<filter id="filter25_f_2118_7281" x="64.9712" y="143.352" width="22.7305" height="7.5381" filterUnits="userSpaceOnUse" color-interpolation-filters="sRGB">
<feFlood flood-opacity="0" result="BackgroundImageFix"/>
<feBlend mode="normal" in="SourceGraphic" in2="BackgroundImageFix" result="shape"/>
<feGaussianBlur stdDeviation="1.00074" result="effect1_foregroundBlur_2118_7281"/>
</filter>
<filter id="filter26_f_2118_7281" x="95.7183" y="148.709" width="15.2002" height="6.54592" filterUnits="userSpaceOnUse" color-interpolation-filters="sRGB">
<feFlood flood-opacity="0" result="BackgroundImageFix"/>
<feBlend mode="normal" in="SourceGraphic" in2="BackgroundImageFix" result="shape"/>
<feGaussianBlur stdDeviation="1.00074" result="effect1_foregroundBlur_2118_7281"/>
</filter>
<filter id="filter27_f_2118_7281" x="107.066" y="148.868" width="20.9649" height="9.22756" filterUnits="userSpaceOnUse" color-interpolation-filters="sRGB">
<feFlood flood-opacity="0" result="BackgroundImageFix"/>
<feBlend mode="normal" in="SourceGraphic" in2="BackgroundImageFix" result="shape"/>
<feGaussianBlur stdDeviation="1.00074" result="effect1_foregroundBlur_2118_7281"/>
</filter>
</defs>
</svg>
