<svg width="242" height="160" viewBox="0 0 242 180" fill="none" xmlns="http://www.w3.org/2000/svg">
<path d="M115.989 2.94228C113.946 5.23978 109.862 12.6429 107.054 19.2801C103.48 27.7043 99.9061 31.7888 95.3111 33.0652C91.9925 33.831 86.1211 38.6813 82.5472 43.7868C78.9733 49.1477 73.6124 54.7638 70.8044 56.5508C67.9963 58.3377 65.6988 61.1458 65.6988 63.188C65.6988 64.975 63.6566 67.2725 61.359 68.2936C58.8063 69.0594 44.2554 76.9731 28.6834 85.9078C-14.4587 110.415 -13.1823 112.967 61.8696 153.557C83.0577 164.789 102.459 176.021 105.267 178.063C109.862 181.382 111.904 180.871 129.263 171.426C139.73 165.555 155.302 156.62 163.726 151.259C193.593 132.879 233.927 110.67 237.757 110.67C240.82 110.67 241.841 108.117 241.841 101.735C241.841 94.5873 240.565 92.2898 235.97 90.5028C229.588 87.9501 192.828 64.975 190.785 62.1669C188.743 59.1036 178.021 56.5508 178.021 58.8483C178.021 59.8694 180.319 62.4222 183.127 64.2091C188.233 67.2725 190.019 72.3781 186.19 72.3781C185.169 72.3781 180.319 69.0594 175.469 64.975C166.789 57.5719 166.789 57.3166 172.15 55.2744C177.766 53.2322 177.766 52.9769 166.534 34.0863C160.407 23.6198 154.28 13.4087 153.004 11.3665C151.217 8.30312 148.409 8.81367 136.411 14.4298C124.413 19.7907 121.86 20.3012 121.86 17.2379C121.86 14.9404 124.158 12.6429 126.966 11.877C133.858 10.0901 133.348 4.9845 125.945 1.4106C121.094 -0.886902 119.052 -0.376358 115.989 2.94228ZM121.094 9.06895C120.328 11.1112 119.563 10.3454 119.563 7.53729C119.307 4.72922 120.073 3.19756 120.839 4.21866C121.605 4.9845 121.86 7.28201 121.094 9.06895ZM118.031 15.9615C119.307 18.259 111.904 27.7043 110.117 25.9173C109.607 25.4068 109.862 22.3434 110.883 19.2801C112.415 13.4087 115.478 11.877 118.031 15.9615ZM154.791 24.3857C156.578 28.9807 160.662 37.1496 164.236 42.5105C171.129 53.2322 170.618 57.8272 163.471 51.4452C156.578 45.3185 131.816 33.5757 130.029 35.3627C129.008 36.3838 127.987 46.3396 127.731 57.5719C127.476 68.8042 126.966 78.2495 126.455 78.5048C125.945 78.76 122.371 81.0575 118.541 83.6103C114.457 86.1631 110.883 87.6948 110.628 87.1842C109.862 85.3973 103.225 68.0383 98.6297 54.7638C95.8217 47.1055 94.5453 40.213 95.3111 39.4471C98.1192 36.3838 143.559 16.472 147.899 16.472C150.196 16.2168 153.259 19.5354 154.791 24.3857ZM148.154 47.1055C153.259 48.8924 157.599 51.1899 157.599 52.2111C157.599 53.2322 153.77 59.8694 148.92 67.0172C144.069 74.165 141.261 80.547 142.538 81.3128C145.09 83.0998 145.856 100.459 143.048 100.459C142.027 100.459 138.708 98.1612 135.9 95.3531L130.284 89.9923L121.35 95.3531C109.862 101.99 99.9061 100.714 83.5683 90.2476C71.3149 82.3339 70.5491 81.3128 72.336 73.9097C73.8677 67.0172 88.1633 49.403 92.503 49.403C93.2689 49.403 93.7794 52.2111 93.7794 55.785C93.7794 59.3589 96.0769 66.7619 98.885 72.3781C101.693 77.9942 103.991 84.6314 103.991 87.4395C103.991 95.8637 108.33 96.119 121.86 88.4606C134.369 81.3128 139.985 74.6756 134.879 72.8886C133.348 72.3781 132.071 65.2303 132.071 56.5508C132.071 45.3185 132.837 41.7446 135.39 42.7657C136.922 43.2763 142.793 45.3185 148.154 47.1055ZM167.044 67.7831C173.171 73.3992 174.958 86.1631 170.363 88.9712C168.831 89.9923 167.81 87.6948 167.81 83.8656C167.81 77.4836 161.684 72.3781 158.365 75.952C157.344 76.7178 156.067 82.3339 155.302 88.2053C154.536 94.0768 152.494 99.1823 150.962 99.6929C146.877 100.969 149.685 75.1861 154.536 67.7831C159.131 60.8905 159.641 60.8905 167.044 67.7831ZM68.2516 74.165C68.2516 77.9942 63.4013 83.6103 61.6143 82.0787C60.5932 81.0575 56.764 82.3339 53.1901 84.8867C36.0865 96.6295 11.5797 108.628 9.02693 106.075C7.49525 104.543 11.5797 101.225 20.2592 96.3743C68.2516 70.8464 68.2516 70.8464 68.2516 74.165ZM205.591 89.2265C215.547 94.332 223.972 99.4376 223.972 100.203C223.972 101.99 197.167 117.818 174.192 129.816C165.768 134.411 150.196 142.835 139.219 148.706C128.497 154.578 117.265 159.939 113.946 160.449C107.309 161.726 18.9828 114.244 21.025 110.415C21.7909 109.138 32.2573 103.011 44.0001 96.6295L65.6988 84.6314L73.6124 90.5028C77.9522 93.5662 87.3975 99.1823 94.5453 103.267L107.309 110.159L118.541 103.777C129.008 97.9059 130.284 97.9059 134.369 101.48C140.751 107.096 149.175 106.33 163.981 98.1612C175.469 92.0345 176.745 90.2476 177.511 81.5681C178.277 72.6333 178.787 72.1228 182.616 75.6967C184.914 77.9942 195.38 83.8656 205.591 89.2265ZM213.76 83.0998C223.716 88.7159 231.63 94.5873 231.63 95.8637C231.63 98.927 195.125 78.76 193.849 75.1861C192.317 70.8464 195.125 71.8675 213.76 83.0998ZM165.257 86.1631C165.257 88.2053 164.236 90.7581 162.705 91.524C161.428 92.2898 160.152 90.7581 160.152 87.9501C160.152 84.8867 161.428 82.5892 162.705 82.5892C164.236 82.5892 165.257 84.1209 165.257 86.1631ZM213.505 116.541C201.762 122.668 188.998 129.56 185.169 132.113C181.085 134.666 178.021 135.687 178.021 134.666C178.277 131.347 224.227 105.82 230.098 105.564C232.906 105.564 225.503 110.415 213.505 116.541ZM4.43191 111.946C4.43191 112.712 3.92135 113.223 3.15552 113.223C2.38968 113.223 1.87912 112.712 1.87912 111.946C1.87912 111.18 2.38968 110.67 3.15552 110.67C3.92135 110.67 4.43191 111.18 4.43191 111.946ZM45.0212 132.624C47.0634 134.666 48.0846 136.708 47.3187 137.729C45.0212 139.772 9.53748 117.818 11.0692 115.265C12.3455 113.223 38.6392 126.752 45.0212 132.624ZM108.841 170.916C109.607 174.745 108.841 174.745 102.459 170.15C98.3745 167.342 85.6105 160.194 74.123 154.067C62.3802 147.941 52.9349 141.559 52.9349 139.772C52.9349 135.177 107.564 165.555 108.841 170.916ZM169.342 141.048C168.321 142.58 159.386 148.451 149.175 154.323C138.964 160.194 127.221 167.086 122.626 169.895C117.776 172.703 113.946 173.724 113.181 172.192C112.159 170.916 117.01 166.576 123.647 162.747C130.54 158.918 143.303 151.514 152.494 146.409C168.831 136.964 172.661 135.687 169.342 141.048Z" fill="white"/>
<path d="M81.0166 74.6728C81.0166 79.0126 81.5272 82.5865 82.0377 82.5865C82.5483 82.5865 85.1011 83.3523 87.3986 84.1181C90.9725 85.6498 91.483 84.3734 90.7172 77.2256C89.6961 65.4828 81.0166 63.1853 81.0166 74.6728Z" fill="#FDFF86"/>
<g filter="url(#filter0_f_2118_7230)">
<path d="M81.0156 74.6748C81.0156 79.0145 81.5262 82.5884 82.0367 82.5884C82.5473 82.5884 85.1001 83.3542 87.3976 84.1201C90.9715 85.6518 91.4821 84.3754 90.7162 77.2276C89.6951 65.4847 81.0156 63.1872 81.0156 74.6748Z" fill="#FDFF86"/>
</g>
<path d="M133.348 87.6933C134.114 88.9697 136.667 90.2461 138.709 90.2461C140.751 90.2461 141.772 88.9697 141.006 87.6933C140.241 86.1616 137.688 85.1405 135.646 85.1405C133.603 85.1405 132.582 86.1616 133.348 87.6933Z" fill="#FDFF86"/>
<g filter="url(#filter1_f_2118_7230)">
<path d="M133.348 87.6933C134.114 88.9697 136.667 90.2461 138.709 90.2461C140.751 90.2461 141.772 88.9697 141.006 87.6933C140.241 86.1616 137.688 85.1405 135.646 85.1405C133.603 85.1405 132.582 86.1616 133.348 87.6933Z" fill="#FDFF86"/>
</g>
<path d="M63.1484 103.01C63.1484 104.287 64.1696 105.563 65.4459 105.563C66.7223 105.563 69.7857 106.329 71.8279 107.095C74.8913 108.371 75.6571 107.605 74.3807 104.542C72.5937 100.202 63.1484 98.9259 63.1484 103.01Z" fill="#8EFF8B"/>
<g filter="url(#filter2_f_2118_7230)">
<path d="M63.1484 103.012C63.1484 104.289 64.1696 105.565 65.4459 105.565C66.7223 105.565 69.7857 106.331 71.8279 107.097C74.8913 108.373 75.6571 107.607 74.3807 104.544C72.5937 100.204 63.1484 98.9278 63.1484 103.012Z" fill="#8EFF8B"/>
</g>
<path d="M36.341 113.222C35.5752 114.498 35.5752 115.774 36.8516 115.774C37.8727 115.774 41.7019 116.54 45.2758 117.561C50.8919 119.093 51.4025 118.838 48.0838 115.009C44.2546 110.158 38.6385 109.392 36.341 113.222Z" fill="#8EFF8B"/>
<g filter="url(#filter3_f_2118_7230)">
<path d="M36.343 113.222C35.5771 114.498 35.5771 115.774 36.8535 115.774C37.8746 115.774 41.7038 116.54 45.2777 117.561C50.8938 119.093 51.4044 118.838 48.0858 115.009C44.2566 110.158 38.6405 109.392 36.343 113.222Z" fill="#8EFF8B"/>
</g>
<path d="M113.437 116.287C112.671 118.585 115.224 119.861 121.096 120.117C128.499 120.372 129.265 119.861 126.712 116.798C123.138 112.458 115.224 112.203 113.437 116.287Z" fill="#8EFF8B"/>
<g filter="url(#filter4_f_2118_7230)">
<path d="M113.437 116.285C112.671 118.583 115.224 119.859 121.096 120.115C128.499 120.37 129.265 119.859 126.712 116.796C123.138 112.456 115.224 112.201 113.437 116.285Z" fill="#8EFF8B"/>
</g>
<defs>
<filter id="filter0_f_2118_7230" x="77.0156" y="63.1445" width="18.0078" height="25.5508" filterUnits="userSpaceOnUse" color-interpolation-filters="sRGB">
<feFlood flood-opacity="0" result="BackgroundImageFix"/>
<feBlend mode="normal" in="SourceGraphic" in2="BackgroundImageFix" result="shape"/>
<feGaussianBlur stdDeviation="2" result="effect1_foregroundBlur_2118_7230"/>
</filter>
<filter id="filter1_f_2118_7230" x="129.094" y="81.1406" width="16.167" height="13.1055" filterUnits="userSpaceOnUse" color-interpolation-filters="sRGB">
<feFlood flood-opacity="0" result="BackgroundImageFix"/>
<feBlend mode="normal" in="SourceGraphic" in2="BackgroundImageFix" result="shape"/>
<feGaussianBlur stdDeviation="2" result="effect1_foregroundBlur_2118_7230"/>
</filter>
<filter id="filter2_f_2118_7230" x="59.1484" y="96.5332" width="19.8232" height="15.1543" filterUnits="userSpaceOnUse" color-interpolation-filters="sRGB">
<feFlood flood-opacity="0" result="BackgroundImageFix"/>
<feBlend mode="normal" in="SourceGraphic" in2="BackgroundImageFix" result="shape"/>
<feGaussianBlur stdDeviation="2" result="effect1_foregroundBlur_2118_7230"/>
</filter>
<filter id="filter3_f_2118_7230" x="31.8203" y="106.791" width="22.3281" height="15.6465" filterUnits="userSpaceOnUse" color-interpolation-filters="sRGB">
<feFlood flood-opacity="0" result="BackgroundImageFix"/>
<feBlend mode="normal" in="SourceGraphic" in2="BackgroundImageFix" result="shape"/>
<feGaussianBlur stdDeviation="2" result="effect1_foregroundBlur_2118_7230"/>
</filter>
<filter id="filter4_f_2118_7230" x="109.305" y="109.375" width="22.7305" height="14.7969" filterUnits="userSpaceOnUse" color-interpolation-filters="sRGB">
<feFlood flood-opacity="0" result="BackgroundImageFix"/>
<feBlend mode="normal" in="SourceGraphic" in2="BackgroundImageFix" result="shape"/>
<feGaussianBlur stdDeviation="2" result="effect1_foregroundBlur_2118_7230"/>
</filter>
</defs>
</svg>
