<svg width="286" height="100%" viewBox="0 0 286 191" fill="none" xmlns="http://www.w3.org/2000/svg">
<path d="M59.9268 40.7823C58.8717 41.9693 56.7614 45.7942 55.3106 49.2234C53.4641 53.5759 51.6176 55.6861 49.2435 56.3456C47.5289 56.7413 44.4954 59.2472 42.6489 61.8851C40.8024 64.6548 38.0326 67.5565 36.5818 68.4797C35.131 69.403 33.944 70.8538 33.944 71.9089C33.944 72.8322 32.8888 74.0192 31.7018 74.5468C30.3829 74.9424 22.865 79.0311 14.8196 83.6473C-7.47025 96.309 -6.81079 97.6279 31.9656 118.599C42.9127 124.402 52.9365 130.205 54.3873 131.261C56.7614 132.975 57.8165 132.711 66.7852 127.831C72.1928 124.798 80.2382 120.182 84.5907 117.412C100.022 107.916 120.861 96.4409 122.84 96.4409C124.422 96.4409 124.95 95.122 124.95 91.8247C124.95 88.1317 124.29 86.9446 121.916 86.0214C118.619 84.7025 99.6264 72.8322 98.5713 71.3813C97.5162 69.7986 91.9767 68.4797 91.9767 69.6667C91.9767 70.1943 93.1637 71.5132 94.6145 72.4365C97.2524 74.0192 98.1756 76.657 96.1972 76.657C95.6697 76.657 93.1637 74.9424 90.6577 72.8322C86.1734 69.0073 86.1734 68.8754 88.9431 67.8202C91.8448 66.7651 91.8448 66.6332 86.0415 56.8732C82.8761 51.4656 79.7107 46.1899 79.0512 45.1347C78.128 43.552 76.6771 43.8158 70.4782 46.7174C64.2793 49.4872 62.9603 49.751 62.9603 48.1683C62.9603 46.9812 64.1474 45.7942 65.5982 45.3985C69.1593 44.4753 68.8955 41.8374 65.0706 39.9909C62.5646 38.8039 61.5095 39.0677 59.9268 40.7823ZM62.5646 43.9477C62.169 45.0028 61.7733 44.6072 61.7733 43.1563C61.6414 41.7055 62.0371 40.9142 62.4328 41.4417C62.8284 41.8374 62.9603 43.0245 62.5646 43.9477ZM60.9819 47.5088C61.6414 48.6958 57.8165 53.5759 56.8933 52.6526C56.6295 52.3888 56.7614 50.8061 57.2889 49.2234C58.0803 46.1899 59.663 45.3985 60.9819 47.5088ZM79.9745 51.8613C80.8977 54.2353 83.008 58.4559 84.8545 61.2256C88.4156 66.7651 88.1518 69.1392 84.4588 65.8419C80.8977 62.6764 68.1041 56.6094 67.1809 57.5326C66.6533 58.0602 66.1257 63.204 65.9939 69.0073C65.862 74.8105 65.5982 79.6906 65.3344 79.8225C65.0706 79.9543 63.2241 81.1414 61.2457 82.4603C59.1354 83.7792 57.2889 84.5706 57.1571 84.3068C56.7614 83.3836 53.3322 74.4149 50.9581 67.5565C49.5073 63.5997 48.8478 60.0386 49.2435 59.6429C50.6943 58.0602 74.1712 47.7726 76.4134 47.7726C77.6004 47.6407 79.1831 49.3553 79.9745 51.8613ZM76.5452 63.5997C79.1831 64.5229 81.4253 65.71 81.4253 66.2375C81.4253 66.7651 79.4469 70.1943 76.9409 73.8873C74.435 77.5803 72.9842 80.8776 73.6436 81.2733C74.9625 82.1965 75.3582 91.1652 73.9074 91.1652C73.3798 91.1652 71.6652 89.9782 70.2144 88.5274L67.3128 85.7576L62.6965 88.5274C56.7614 91.9566 51.6176 91.2971 43.1765 85.8895C36.8456 81.8008 36.4499 81.2733 37.3732 77.4484C38.1645 73.8873 45.5505 64.7867 47.7927 64.7867C48.1884 64.7867 48.4522 66.2375 48.4522 68.084C48.4522 69.9305 49.6392 73.7554 51.09 76.657C52.5408 79.5587 53.7279 82.9879 53.7279 84.4387C53.7279 88.7911 55.97 88.923 62.9603 84.9663C69.423 81.2733 72.3247 77.8441 69.6868 76.9208C68.8955 76.657 68.236 72.964 68.236 68.4797C68.236 62.6764 68.6317 60.8299 69.9506 61.3575C70.742 61.6213 73.7755 62.6764 76.5452 63.5997ZM86.3053 74.283C89.4707 77.1846 90.394 83.7792 88.0199 85.23C87.2285 85.7576 86.701 84.5706 86.701 82.5922C86.701 79.2949 83.5356 76.657 81.8209 78.5035C81.2934 78.8992 80.6339 81.8008 80.2382 84.8344C79.8426 87.8679 78.7874 90.5057 77.9961 90.7695C75.8858 91.429 77.3366 78.1079 79.8426 74.283C82.2166 70.7219 82.4804 70.7219 86.3053 74.283ZM35.2629 77.5803C35.2629 79.5587 32.757 82.4603 31.8337 81.6689C31.3061 81.1414 29.3277 81.8008 27.4813 83.1198C18.6445 89.1868 5.98278 95.3858 4.66386 94.0668C3.8725 93.2755 5.98278 91.5609 10.4671 89.0549C35.2629 75.8657 35.2629 75.8657 35.2629 77.5803ZM106.221 85.3619C111.365 87.9998 115.717 90.6376 115.717 91.0333C115.717 91.9566 101.869 100.134 89.9983 106.333C85.6458 108.707 77.6004 113.059 71.929 116.093C66.3895 119.126 60.5863 121.896 58.8717 122.16C55.4425 122.819 9.80766 98.2874 10.8628 96.309C11.2585 95.6496 16.6661 92.4841 22.7331 89.1868L33.944 82.9879L38.0326 86.0214C40.2748 87.6041 45.1548 90.5057 48.8478 92.616L55.4425 96.1771L61.2457 92.8798C66.6533 89.8463 67.3128 89.8463 69.4231 91.6928C72.7204 94.5944 77.0728 94.1987 84.7226 89.9782C90.6577 86.8128 91.3172 85.8895 91.7129 81.4052C92.1086 76.7889 92.3723 76.5251 94.3507 78.3716C95.5378 79.5587 100.945 82.5922 106.221 85.3619ZM110.442 82.1965C115.585 85.0982 119.674 88.1317 119.674 88.7911C119.674 90.3739 100.813 79.9543 100.154 78.1079C99.3626 75.8657 100.813 76.3933 110.442 82.1965ZM85.382 83.7792C85.382 84.8344 84.8545 86.1533 84.0631 86.549C83.4037 86.9446 82.7442 86.1533 82.7442 84.7025C82.7442 83.1198 83.4037 81.9327 84.0631 81.9327C84.8545 81.9327 85.382 82.7241 85.382 83.7792ZM110.31 99.4744C104.243 102.64 97.648 106.201 95.6697 107.52C93.5594 108.839 91.9767 109.366 91.9767 108.839C92.1086 107.124 115.849 93.9349 118.883 93.8031C120.334 93.8031 116.509 96.309 110.31 99.4744ZM2.28979 97.1004C2.28979 97.496 2.02601 97.7598 1.63033 97.7598C1.23465 97.7598 0.970869 97.496 0.970869 97.1004C0.970869 96.7047 1.23465 96.4409 1.63033 96.4409C2.02601 96.4409 2.28979 96.7047 2.28979 97.1004ZM23.2607 107.784C24.3158 108.839 24.8434 109.894 24.4477 110.422C23.2607 111.477 4.92764 100.134 5.719 98.815C6.37846 97.7598 19.9634 104.75 23.2607 107.784ZM56.2338 127.568C56.6295 129.546 56.2338 129.546 52.9365 127.172C50.8262 125.721 44.2316 122.028 38.2964 118.863C32.2294 115.697 27.3494 112.4 27.3494 111.477C27.3494 109.103 55.5743 124.798 56.2338 127.568ZM87.4923 112.136C86.9648 112.927 82.3485 115.961 77.0728 118.995C71.7971 122.028 65.7301 125.589 63.356 127.04C60.85 128.491 58.8717 129.018 58.476 128.227C57.9484 127.568 60.4544 125.325 63.8836 123.347C67.4447 121.369 74.0393 117.544 78.7874 114.906C87.2285 110.026 89.2069 109.366 87.4923 112.136Z" fill="white"/>
<path d="M41.8574 77.8443C41.8574 80.0864 42.1212 81.9329 42.385 81.9329C42.6488 81.9329 43.9677 82.3286 45.1547 82.7243C47.0012 83.5156 47.265 82.8562 46.8693 79.1632C46.3418 73.0961 41.8574 71.9091 41.8574 77.8443Z" fill="white"/>
<g filter="url(#filter0_f_2118_7344)">
<path d="M41.8574 77.8443C41.8574 80.0864 42.1212 81.9329 42.385 81.9329C42.6488 81.9329 43.9677 82.3286 45.1547 82.7243C47.0012 83.5156 47.265 82.8562 46.8693 79.1632C46.3418 73.0961 41.8574 71.9091 41.8574 77.8443Z" fill="#FDFF85"/>
</g>
<path d="M68.896 84.5678C69.2917 85.2273 70.6106 85.8867 71.6658 85.8867C72.7209 85.8867 73.2485 85.2273 72.8528 84.5678C72.4571 83.7764 71.1382 83.2489 70.0831 83.2489C69.0279 83.2489 68.5003 83.7764 68.896 84.5678Z" fill="#FDFF86"/>
<g filter="url(#filter1_f_2118_7344)">
<path d="M68.896 84.5678C69.2917 85.2273 70.6106 85.8867 71.6658 85.8867C72.7209 85.8867 73.2485 85.2273 72.8528 84.5678C72.4571 83.7764 71.1382 83.2489 70.0831 83.2489C69.0279 83.2489 68.5003 83.7764 68.896 84.5678Z" fill="#FDFF86"/>
</g>
<path d="M97.2549 87.4716C97.2549 88.3949 98.7057 89.3181 100.552 89.3181C102.531 89.45 103.85 88.9224 103.85 87.7354C103.85 86.6803 102.531 85.8889 100.552 85.8889C98.7057 85.8889 97.2549 86.6803 97.2549 87.4716Z" fill="#A5FF97"/>
<g filter="url(#filter2_f_2118_7344)">
<path d="M97.2549 87.4716C97.2549 88.3949 98.7057 89.3181 100.552 89.3181C102.531 89.45 103.85 88.9224 103.85 87.7354C103.85 86.6803 102.531 85.8889 100.552 85.8889C98.7057 85.8889 97.2549 86.6803 97.2549 87.4716Z" fill="#A5FF97"/>
</g>
<path d="M32.625 92.4849C32.625 93.1444 33.1526 93.8038 33.812 93.8038C34.4715 93.8038 36.0542 94.1995 37.1093 94.5952C38.6921 95.2546 39.0877 94.859 38.4283 93.2763C37.505 91.0341 32.625 90.3746 32.625 92.4849Z" fill="#A5FF97"/>
<g filter="url(#filter3_f_2118_7344)">
<path d="M32.625 92.4849C32.625 93.1444 33.1526 93.8038 33.812 93.8038C34.4715 93.8038 36.0542 94.1995 37.1093 94.5952C38.6921 95.2546 39.0877 94.859 38.4283 93.2763C37.505 91.0341 32.625 90.3746 32.625 92.4849Z" fill="#A5FF97"/>
</g>
<path d="M91.9766 96.4389C91.9766 97.0984 93.9549 97.7578 96.329 97.7578C99.4944 97.7578 100.022 97.3621 98.5712 96.4389C95.9333 94.7243 91.9766 94.7243 91.9766 96.4389Z" fill="#A5FF97"/>
<g filter="url(#filter4_f_2118_7344)">
<path d="M91.9766 96.4389C91.9766 97.0984 93.9549 97.7578 96.329 97.7578C99.4944 97.7578 100.022 97.3621 98.5712 96.4389C95.9333 94.7243 91.9766 94.7243 91.9766 96.4389Z" fill="#A5FF97"/>
</g>
<path d="M18.7769 97.7602C18.3812 98.4197 18.3812 99.0792 19.0407 99.0792C19.5682 99.0792 21.5466 99.4748 23.3931 100.002C26.2947 100.794 26.5585 100.662 24.8439 98.6835C22.8655 96.1775 19.9639 95.7819 18.7769 97.7602Z" fill="#A5FF97"/>
<g filter="url(#filter5_f_2118_7344)">
<path d="M18.7769 97.7602C18.3812 98.4197 18.3812 99.0792 19.0407 99.0792C19.5682 99.0792 21.5466 99.4748 23.3931 100.002C26.2947 100.794 26.5585 100.662 24.8439 98.6835C22.8655 96.1775 19.9639 95.7819 18.7769 97.7602Z" fill="#A5FF97"/>
</g>
<path d="M58.6085 99.3416C58.2128 100.529 59.5318 101.188 62.5653 101.32C66.3902 101.452 66.7859 101.188 65.4669 99.6054C63.6204 97.3632 59.5318 97.2313 58.6085 99.3416Z" fill="#A5FF97"/>
<g filter="url(#filter6_f_2118_7344)">
<path d="M58.6085 99.3416C58.2128 100.529 59.5318 101.188 62.5653 101.32C66.3902 101.452 66.7859 101.188 65.4669 99.6054C63.6204 97.3632 59.5318 97.2313 58.6085 99.3416Z" fill="#A5FF97"/>
</g>
<path d="M41.3296 104.09C40.9339 104.618 42.3847 105.805 44.6269 106.596C48.5837 108.179 49.5069 107.256 46.8691 104.618C45.0226 102.771 42.2528 102.508 41.3296 104.09Z" fill="#A5FF97"/>
<g filter="url(#filter7_f_2118_7344)">
<path d="M41.3296 104.09C40.9339 104.618 42.3847 105.805 44.6269 106.596C48.5837 108.179 49.5069 107.256 46.8691 104.618C45.0226 102.771 42.2528 102.508 41.3296 104.09Z" fill="#A5FF97"/>
</g>
<path d="M75.4923 104.353C75.888 105.012 77.7345 105.672 79.581 105.672C81.2956 105.672 82.7464 105.012 82.7464 104.353C82.7464 103.562 80.8999 103.034 78.6577 103.034C76.4155 103.034 74.9647 103.562 75.4923 104.353Z" fill="#A5FF97"/>
<g filter="url(#filter8_f_2118_7344)">
<path d="M75.4923 104.353C75.888 105.012 77.7345 105.672 79.581 105.672C81.2956 105.672 82.7464 105.012 82.7464 104.353C82.7464 103.562 80.8999 103.034 78.6577 103.034C76.4155 103.034 74.9647 103.562 75.4923 104.353Z" fill="#A5FF97"/>
</g>
<path d="M56.3672 110.947C56.3672 111.606 57.818 112.266 59.6645 112.266C61.511 112.266 62.9618 111.606 62.9618 110.947C62.9618 110.155 61.511 109.628 59.6645 109.628C57.818 109.628 56.3672 110.155 56.3672 110.947Z" fill="#A5FF97"/>
<g filter="url(#filter9_f_2118_7344)">
<path d="M56.3672 110.947C56.3672 111.606 57.818 112.266 59.6645 112.266C61.511 112.266 62.9618 111.606 62.9618 110.947C62.9618 110.155 61.511 109.628 59.6645 109.628C57.818 109.628 56.3672 110.155 56.3672 110.947Z" fill="#A5FF97"/>
</g>
<path d="M106.122 14.058L91.4492 27.9045L92.6892 40.3044L93.9292 52.4976L124.929 71.304C183.621 106.644 222.474 128.137 227.848 128.137C232.188 128.137 274.967 107.884 279.307 103.544C280.134 102.924 281.167 98.3771 281.787 94.0371C282.2 89.4905 283.234 84.1172 284.06 82.0506C284.887 79.9839 285.3 78.124 284.887 77.7106C281.167 74.8173 171.842 13.6447 163.162 9.71809C153.035 5.17147 131.542 -0.201797 123.689 0.00486755C122.036 0.211533 114.182 6.41146 106.122 14.058ZM147.662 17.3647C195.815 43.1977 240.867 67.9974 244.587 70.684C248.307 73.3707 248.101 74.1973 238.594 88.4572C233.221 96.7237 228.054 103.337 227.434 103.337C226.608 103.337 224.128 102.097 222.061 100.444C219.788 98.7904 206.768 91.5571 193.128 84.3239C179.488 77.0906 154.895 62.8308 138.569 52.9109C122.242 42.7844 106.122 33.6911 102.816 32.6578C99.7158 31.4178 97.0292 29.9712 97.0292 29.3512C97.0292 27.6979 122.656 4.13815 123.896 4.75814C124.516 4.96481 135.262 10.7514 147.662 17.3647ZM171.842 17.9847C177.835 21.2913 197.261 32.2445 214.828 42.371C232.394 52.2909 251.614 63.2441 257.194 66.3441C266.287 71.5107 266.907 72.3374 261.947 72.3374C258.641 72.3374 236.321 61.1775 207.388 45.2643C180.315 30.3845 154.068 16.1247 149.315 13.8514C144.562 11.5781 141.049 8.89143 141.669 8.06477C143.115 5.79147 159.028 10.9581 171.842 17.9847ZM105.709 38.4444C109.429 40.3044 125.755 50.0176 142.289 59.7308C159.028 69.6507 184.861 84.5306 199.948 92.7971C215.034 101.064 228.054 109.124 228.674 110.777C229.294 112.43 229.088 116.15 228.468 119.043C227.434 122.97 226.194 124.003 223.508 122.97C217.101 120.697 149.935 82.2572 123.482 65.7241C97.8558 49.811 97.0292 49.191 97.0292 42.1644C97.0292 34.1045 97.2358 34.1045 105.709 38.4444ZM272.074 78.9506C278.687 80.8106 278.894 81.2239 277.654 89.4905C276 101.27 275.38 103.337 272.487 103.337C271.04 103.337 270.627 101.27 271.04 98.3771C272.9 88.4572 270.007 87.8372 254.301 95.0704L239.628 101.89V110.57C239.628 115.53 238.388 120.49 236.734 121.73C234.254 123.797 233.634 122.763 232.394 115.737C231.154 107.884 231.774 106.024 239.834 94.4504C254.921 72.3374 253.267 73.164 272.074 78.9506ZM266.907 100.65C265.047 110.57 258.227 112.844 258.227 103.75C258.227 96.9304 259.674 95.0704 264.427 95.0704C267.114 95.0704 267.734 96.3104 266.907 100.65ZM254.094 106.024C254.094 111.397 252.854 113.464 248.927 115.324C243.967 117.597 243.761 117.39 243.761 110.57C243.761 106.024 245.001 102.717 247.481 101.477C253.061 98.1704 254.094 98.7904 254.094 106.024Z" fill="white"/>
<path d="M131.129 21.9122C119.143 27.9055 118.523 29.9721 126.996 35.1388C131.129 37.6187 134.642 39.4787 135.056 39.0654C138.156 35.5521 142.496 23.7722 141.669 21.4989C140.222 17.779 138.776 17.779 131.129 21.9122ZM138.362 26.8722C138.362 29.5588 136.916 31.0055 134.642 31.0055C128.856 31.0055 127.616 28.7322 131.749 25.6322C136.709 21.7056 138.362 22.1189 138.362 26.8722Z" fill="#FDFF85"/>
<g filter="url(#filter10_f_2118_7344)">
<path d="M131.129 21.9122C119.143 27.9055 118.523 29.9721 126.996 35.1388C131.129 37.6187 134.642 39.4787 135.056 39.0654C138.156 35.5521 142.496 23.7722 141.669 21.4989C140.222 17.779 138.776 17.779 131.129 21.9122ZM138.362 26.8722C138.362 29.5588 136.916 31.0055 134.642 31.0055C128.856 31.0055 127.616 28.7322 131.749 25.6322C136.709 21.7056 138.362 22.1189 138.362 26.8722Z" fill="#FDFF85"/>
</g>
<path d="M170.394 39.6861C157.788 44.0261 153.448 51.6727 160.888 55.806C167.294 59.1126 168.741 58.4926 174.321 48.366C181.554 35.5528 181.554 35.7595 170.394 39.6861ZM168.534 48.7794C162.334 53.1193 159.441 52.086 165.021 47.3327C167.708 45.0594 170.601 43.8194 171.221 44.6461C171.841 45.2661 170.601 47.1261 168.534 48.7794Z" fill="#FDFF85"/>
<g filter="url(#filter11_f_2118_7344)">
<path d="M170.394 39.6861C157.788 44.0261 153.448 51.6727 160.888 55.806C167.294 59.1126 168.741 58.4926 174.321 48.366C181.554 35.5528 181.554 35.7595 170.394 39.6861ZM168.534 48.7794C162.334 53.1193 159.441 52.086 165.021 47.3327C167.708 45.0594 170.601 43.8194 171.221 44.6461C171.841 45.2661 170.601 47.1261 168.534 48.7794Z" fill="#FDFF85"/>
</g>
<path d="M199.328 60.7642C191.475 64.0709 186.928 69.4441 190.028 71.3041C191.268 72.1308 193.748 71.5108 195.401 70.0641C197.881 67.9975 198.088 68.2041 197.055 71.0974C195.195 75.8507 201.808 77.7107 206.355 73.5774C208.628 71.5108 210.695 67.3775 211.108 63.8642C212.141 57.0443 209.455 56.2176 199.328 60.7642ZM206.561 63.4509C206.355 67.1708 202.841 70.6841 201.601 68.4108C200.775 67.1708 200.775 65.1042 201.395 64.0709C202.841 61.5909 206.561 61.3842 206.561 63.4509Z" fill="#FDFF85"/>
<g filter="url(#filter12_f_2118_7344)">
<path d="M199.328 60.7642C191.475 64.0709 186.928 69.4441 190.028 71.3041C191.268 72.1308 193.748 71.5108 195.401 70.0641C197.881 67.9975 198.088 68.2041 197.055 71.0974C195.195 75.8507 201.808 77.7107 206.355 73.5774C208.628 71.5108 210.695 67.3775 211.108 63.8642C212.141 57.0443 209.455 56.2176 199.328 60.7642ZM206.561 63.4509C206.355 67.1708 202.841 70.6841 201.601 68.4108C200.775 67.1708 200.775 65.1042 201.395 64.0709C202.841 61.5909 206.561 61.3842 206.561 63.4509Z" fill="#FDFF85"/>
</g>
<path d="M107.155 49.6038C111.908 53.7371 115.628 54.9771 115.628 52.4971C115.628 50.2238 108.602 45.6772 105.295 45.6772C103.228 45.6772 103.642 46.9172 107.155 49.6038Z" fill="#FDFF85"/>
<g filter="url(#filter13_f_2118_7344)">
<path d="M107.155 49.6038C111.908 53.7371 115.628 54.9771 115.628 52.4971C115.628 50.2238 108.602 45.6772 105.295 45.6772C103.228 45.6772 103.642 46.9172 107.155 49.6038Z" fill="#FDFF85"/>
</g>
<path d="M126.376 60.1442C127.409 63.4508 144.563 73.164 144.563 70.4774C144.563 68.4107 129.683 57.8708 126.789 57.8708C126.17 57.8708 125.963 58.9042 126.376 60.1442Z" fill="#FDFF85"/>
<g filter="url(#filter14_f_2118_7344)">
<path d="M126.376 60.1442C127.409 63.4508 144.563 73.164 144.563 70.4774C144.563 68.4107 129.683 57.8708 126.789 57.8708C126.17 57.8708 125.963 58.9042 126.376 60.1442Z" fill="#FDFF85"/>
</g>
<path d="M159.029 79.3639C160.269 81.0173 164.609 84.3239 168.742 86.8039C177.835 92.1771 176.802 87.4238 167.295 81.0173C159.649 75.8506 155.309 75.024 159.029 79.3639Z" fill="#FDFF85"/>
<g filter="url(#filter15_f_2118_7344)">
<path d="M159.029 79.3639C160.269 81.0173 164.609 84.3239 168.742 86.8039C177.835 92.1771 176.802 87.4238 167.295 81.0173C159.649 75.8506 155.309 75.024 159.029 79.3639Z" fill="#FDFF85"/>
</g>
<path d="M194.163 99.2015C194.163 101.681 210.696 110.155 212.35 108.708C212.97 107.881 211.73 106.021 209.456 104.368C203.876 100.235 194.163 96.9282 194.163 99.2015Z" fill="#FDFF85"/>
<g filter="url(#filter16_f_2118_7344)">
<path d="M194.163 99.2015C194.163 101.681 210.696 110.155 212.35 108.708C212.97 107.881 211.73 106.021 209.456 104.368C203.876 100.235 194.163 96.9282 194.163 99.2015Z" fill="#FDFF85"/>
</g>
<path d="M252.026 84.738C252.026 85.7714 253.473 86.8047 255.126 86.8047C256.78 86.8047 258.226 85.7714 258.226 84.738C258.226 83.4981 256.78 82.6714 255.126 82.6714C253.473 82.6714 252.026 83.4981 252.026 84.738Z" fill="#FDFF85"/>
<g filter="url(#filter17_f_2118_7344)">
<path d="M252.026 84.738C252.026 85.7714 253.473 86.8047 255.126 86.8047C256.78 86.8047 258.226 85.7714 258.226 84.738C258.226 83.4981 256.78 82.6714 255.126 82.6714C253.473 82.6714 252.026 83.4981 252.026 84.738Z" fill="#FDFF85"/>
</g>
<path d="M133.587 97.9332C128.893 100.883 121.363 105.199 116.903 107.522C112.531 109.841 108.329 112.064 107.648 112.536C106.964 112.921 103.121 115.302 99.1081 117.78C95.0948 120.258 89.457 123.692 86.4626 125.418C83.4682 127.143 80.3988 129.136 79.7264 129.784C78.6324 130.803 78.2815 130.82 77.8845 129.872C77.5794 129.007 77.0574 129.12 75.6292 130.507C74.034 132.078 51.7625 146.154 47.298 148.39C45.924 149.071 45.6025 149.701 46.0998 150.908C46.7935 152.546 46.8812 152.541 48.635 150.611C49.6372 149.508 52.3559 147.532 54.753 146.187C57.0625 144.846 62.2702 141.608 66.3628 138.95C73.5207 134.212 77.0833 133.339 75.4801 136.58C74.8414 137.929 58.4289 147.681 49.1533 152.257C44.171 154.693 45.1987 155.962 57.0911 161.987C62.2291 164.642 67.7221 167.369 69.2593 168.262C70.88 169.064 79.886 173.556 89.247 178.119C98.7 182.766 106.808 186.861 107.355 187.275C107.994 187.772 110.145 186.79 113.369 184.35C116.175 182.37 121.625 178.68 125.639 176.203C137.67 168.594 144.235 164.324 157.189 155.793C168.607 148.214 191.518 134.634 195.064 133.41C196.099 133.009 196.488 131.935 196.366 129.392C196.274 127.462 196.436 125.344 196.661 124.542C196.966 123.561 196.682 123.135 195.629 123.185C194.84 123.223 190.425 120.973 185.805 118.117C181.277 115.344 176.481 112.497 175.132 111.858C165.675 107.124 142.909 94.3225 142.608 93.5457C142.407 93.0278 138.54 94.8831 133.587 97.9332ZM140.383 98.4872C140.488 100.68 139.987 101.231 136.036 103.179C133.542 104.353 126.171 108.31 119.753 111.957C108.706 118.112 107.93 118.413 107.841 116.571C107.762 114.904 110.23 113.204 123.832 105.345C132.644 100.264 139.914 96.0481 140.09 96.0397C140.173 95.9478 140.316 97.0839 140.383 98.4872ZM150.675 100.456C155.729 103.204 157.922 104.945 158.161 106.252C158.512 108.082 157.798 107.852 150.408 104.074C144.911 101.26 142.183 99.3681 142.133 98.3156C142.091 97.4385 142.408 96.72 142.759 96.7033C143.197 96.6823 146.706 98.3606 150.675 100.456ZM150.329 106.099C163.312 112.863 164.035 113.268 175.977 120.345C182.31 124.086 187.486 127.531 187.507 127.969C187.54 128.671 166.384 142.166 165.156 142.225C164.805 142.242 160.199 145.187 154.832 148.785C149.47 152.47 143.239 156.372 140.921 157.538C135.342 160.354 135.939 159.974 122.413 169.412C115.944 173.853 109.972 177.655 109.187 177.781C108.397 177.819 107.537 178.211 107.291 178.575C106.877 179.122 91.831 171.49 89.0906 169.335C88.2635 168.584 87.3696 168.275 87.1191 168.551C86.8685 168.826 83.3723 167.411 79.3162 165.319C75.2644 163.315 71.6679 161.641 71.317 161.658C70.9662 161.675 70.1474 161.099 69.4999 160.426C68.8524 159.754 67.8582 159.186 67.1565 159.22C66.104 159.27 54.1989 152.983 54.1654 152.281C54.1612 152.193 59.2854 149.047 65.5288 145.408C80.321 136.7 102.037 123.881 104.167 122.461C107.663 120.184 140.993 102.062 141.783 102.025C142.221 102.004 146.002 103.845 150.329 106.099ZM165.93 108.782C167.922 110.005 171.268 111.955 173.436 113.17C175.512 114.301 177.25 115.713 177.271 116.151C177.292 116.59 177.827 116.74 178.516 116.443C179.205 116.147 181.54 117.178 183.721 118.656C185.989 120.13 188.988 122.184 190.438 123.082C192.531 124.564 192.823 125.166 192.076 126.08C191.24 126.999 189.72 126.457 184.553 123.188C180.931 120.987 177.397 118.783 176.587 118.382C161.419 110.052 159.239 108.574 159.856 106.786C160.32 105.446 160.499 105.525 165.93 108.782ZM106.129 117.532C106.209 119.198 104.931 120.051 88.3389 129.723C82.5256 133.166 77.5516 135.778 77.3636 135.523C75.8973 134.275 78.8581 131.847 89.4657 125.714C95.9639 121.886 102.028 118.168 102.959 117.42C105.247 115.64 106.041 115.69 106.129 117.532ZM193.672 130.048C192.95 131.489 189.467 134.029 183.562 137.389C178.596 140.176 172.186 143.999 169.283 145.808C164.422 148.941 163.9 149.054 163.825 147.475C163.736 145.633 164.417 145.161 179.948 135.364C186.175 131.374 189.524 129.719 190.945 130.003C192.452 130.282 192.878 129.998 192.82 128.77C192.723 126.753 193.801 125.383 194.306 126.765C194.599 127.366 194.227 128.791 193.672 130.048ZM162.112 148.436C162.196 150.191 157.364 153.938 144.74 162.014C138.083 166.201 137.912 166.297 137.381 164.388C136.863 162.743 137.873 161.815 145.558 157.052C150.423 154.006 155.793 150.497 157.489 149.185C161.31 146.365 162.007 146.244 162.112 148.436ZM58.2554 156.92C61.3256 158.62 68.619 162.227 74.5505 164.932C80.3943 167.642 85.7954 170.284 86.4345 170.781C87.529 171.608 88.3024 174.912 87.3376 174.958C86.2851 175.008 70.324 166.629 68.7616 165.209C67.9345 164.457 67.0322 163.973 66.7774 164.161C66.1928 164.804 49.6929 156.187 49.1956 154.98C48.3933 152.909 52.7414 153.756 58.2554 156.92ZM134.308 168.14C132.274 169.732 109.944 184.426 109.506 184.447C109.33 184.455 109.284 183.49 109.405 182.342C109.496 180.579 112.031 178.436 122.338 171.525C134.265 163.57 135.121 163.09 135.472 164.919C135.794 166.135 135.327 167.388 134.308 168.14ZM98.9368 176.689C105.704 180.321 107.437 181.645 107.513 183.223C107.605 185.153 107.071 185.003 98.5993 180.661C91.3937 177.049 89.5765 175.818 89.4968 174.151C89.4465 173.099 89.6676 172.209 89.9308 172.196C90.1939 172.184 94.2458 174.188 98.9368 176.689Z" fill="white"/>
<path d="M126.091 113.94C125.014 115.311 125.193 115.39 127.098 114.771C128.309 114.362 130.577 113.989 132.156 113.914C133.647 113.843 134.941 113.341 134.92 112.903C134.849 111.412 127.327 112.211 126.091 113.94Z" fill="#A5FF97"/>
<g filter="url(#filter18_f_2118_7344)">
<path d="M126.091 113.94C125.014 115.311 125.193 115.39 127.098 114.771C128.309 114.362 130.577 113.989 132.156 113.914C133.647 113.843 134.941 113.341 134.92 112.903C134.849 111.412 127.327 112.211 126.091 113.94Z" fill="#A5FF97"/>
</g>
<path d="M135.906 115.141C132.54 118.291 133.087 118.705 137.364 116.215C141.552 113.728 148.941 113.815 152.755 116.357C154.121 117.347 155.457 117.723 155.7 117.272C156.831 115.195 149.129 112.223 143.34 112.5C139.48 112.685 138.098 113.19 135.906 115.141Z" fill="#A5FF97"/>
<g filter="url(#filter19_f_2118_7344)">
<path d="M135.906 115.141C132.54 118.291 133.087 118.705 137.364 116.215C141.552 113.728 148.941 113.815 152.755 116.357C154.121 117.347 155.457 117.723 155.7 117.272C156.831 115.195 149.129 112.223 143.34 112.5C139.48 112.685 138.098 113.19 135.906 115.141Z" fill="#A5FF97"/>
</g>
<path d="M170.718 126.136C169.357 127.081 169.537 127.16 173.237 127.335C174.557 127.359 176.854 127.601 178.279 127.973C180.676 128.473 180.76 128.381 179.561 127.208C177.81 125.534 172.418 124.912 170.718 126.136Z" fill="#A5FF97"/>
<g filter="url(#filter20_f_2118_7344)">
<path d="M170.718 126.136C169.357 127.081 169.537 127.16 173.237 127.335C174.557 127.359 176.854 127.601 178.279 127.973C180.676 128.473 180.76 128.381 179.561 127.208C177.81 125.534 172.418 124.912 170.718 126.136Z" fill="#A5FF97"/>
</g>
<path d="M158.87 128.376C154.919 130.323 156.097 131.058 161.685 130.263C165.97 129.795 167.821 129.882 169.542 130.942C171.981 132.32 173.664 132.591 173.61 131.451C173.501 129.171 162.135 126.813 158.87 128.376Z" fill="#A5FF97"/>
<g filter="url(#filter21_f_2118_7344)">
<path d="M158.87 128.376C154.919 130.323 156.097 131.058 161.685 130.263C165.97 129.795 167.821 129.882 169.542 130.942C171.981 132.32 173.664 132.591 173.61 131.451C173.501 129.171 162.135 126.813 158.87 128.376Z" fill="#A5FF97"/>
</g>
<path d="M108.042 133.617C105.273 134.54 103.766 136.107 104.773 136.938C105.048 137.188 105.829 136.975 106.418 136.42C107.85 135.12 111.785 134.668 115.77 135.269C118.606 135.749 118.781 135.74 117.49 134.483C115.652 132.813 111.5 132.396 108.042 133.617Z" fill="#A5FF97"/>
<g filter="url(#filter22_f_2118_7344)">
<path d="M108.042 133.617C105.273 134.54 103.766 136.107 104.773 136.938C105.048 137.188 105.829 136.975 106.418 136.42C107.85 135.12 111.785 134.668 115.77 135.269C118.606 135.749 118.781 135.74 117.49 134.483C115.652 132.813 111.5 132.396 108.042 133.617Z" fill="#A5FF97"/>
</g>
<path d="M119.619 136.668C118.086 137.709 116.833 139.087 116.867 139.789C116.942 141.368 116.942 141.368 120.329 138.656C122.191 137.161 124.346 136.266 126.452 136.166C128.381 136.073 130.879 136.833 132.959 138.052C136.489 140.169 138.001 140.536 137.938 139.221C137.917 138.782 136.008 137.467 133.757 136.344C128.715 133.86 123.532 133.932 119.619 136.668Z" fill="#A5FF97"/>
<g filter="url(#filter23_f_2118_7344)">
<path d="M119.619 136.668C118.086 137.709 116.833 139.087 116.867 139.789C116.942 141.368 116.942 141.368 120.329 138.656C122.191 137.161 124.346 136.266 126.452 136.166C128.381 136.073 130.879 136.833 132.959 138.052C136.489 140.169 138.001 140.536 137.938 139.221C137.917 138.782 136.008 137.467 133.757 136.344C128.715 133.86 123.532 133.932 119.619 136.668Z" fill="#A5FF97"/>
</g>
<path d="M87.3152 145.07C82.3413 147.682 83.3439 148.425 88.9527 146.223C94.4781 144.112 98.5464 144.621 102.753 148.024C105.581 150.175 105.94 150.333 105.869 148.842C105.76 146.562 98.0197 142.8 94.0727 142.989C92.4062 143.069 89.3741 144.005 87.3152 145.07Z" fill="#A5FF97"/>
<g filter="url(#filter24_f_2118_7344)">
<path d="M87.3152 145.07C82.3413 147.682 83.3439 148.425 88.9527 146.223C94.4781 144.112 98.5464 144.621 102.753 148.024C105.581 150.175 105.94 150.333 105.869 148.842C105.76 146.562 98.0197 142.8 94.0727 142.989C92.4062 143.069 89.3741 144.005 87.3152 145.07Z" fill="#A5FF97"/>
</g>
<path d="M71.5274 151.276C70.145 151.782 69.1303 152.622 69.1554 153.148C69.1806 153.674 69.7988 153.733 70.7468 153.336C74.0085 151.685 81.9025 151.308 84.7763 152.577C88.0094 154.004 88.5399 154.067 88.4895 153.014C88.3553 150.208 76.7813 149.003 71.5274 151.276Z" fill="#A5FF97"/>
<g filter="url(#filter25_f_2118_7344)">
<path d="M71.5274 151.276C70.145 151.782 69.1303 152.622 69.1554 153.148C69.1806 153.674 69.7988 153.733 70.7468 153.336C74.0085 151.685 81.9025 151.308 84.7763 152.577C88.0094 154.004 88.5399 154.067 88.4895 153.014C88.3553 150.208 76.7813 149.003 71.5274 151.276Z" fill="#A5FF97"/>
</g>
<path d="M102.54 156.385C99.0739 157.43 101.409 158.461 106.759 158.205C112.197 157.945 114.081 156.888 110.956 155.894C109.436 155.352 104.879 155.657 102.54 156.385Z" fill="#A5FF97"/>
<g filter="url(#filter26_f_2118_7344)">
<path d="M102.54 156.385C99.0739 157.43 101.409 158.461 106.759 158.205C112.197 157.945 114.081 156.888 110.956 155.894C109.436 155.352 104.879 155.657 102.54 156.385Z" fill="#A5FF97"/>
</g>
<path d="M116.39 157.394C113.224 159.216 112.051 160.415 112.874 161.079C113.153 161.417 114.532 160.824 115.805 159.884C119.205 157.435 122.354 157.109 126.051 159.042C129.831 160.883 130.186 160.954 130.127 159.726C130.073 158.586 123.168 155.751 120.708 155.781C119.743 155.827 117.843 156.533 116.39 157.394Z" fill="#A5FF97"/>
<g filter="url(#filter27_f_2118_7344)">
<path d="M116.39 157.394C113.224 159.216 112.051 160.415 112.874 161.079C113.153 161.417 114.532 160.824 115.805 159.884C119.205 157.435 122.354 157.109 126.051 159.042C129.831 160.883 130.186 160.954 130.127 159.726C130.073 158.586 123.168 155.751 120.708 155.781C119.743 155.827 117.843 156.533 116.39 157.394Z" fill="#A5FF97"/>
</g>
<g filter="url(#filter28_f_2118_7344)">
<path d="M185.223 100.745L171.531 79.0454V75.9455L181.606 66.1289L187.548 80.3371L191.164 95.0619H197.881L210.797 89.637L219.839 78.0121L230.947 95.0619L231.722 102.553L236.631 115.212V123.995L235.339 152.411L225.006 159.128L210.797 164.553L196.589 156.545L180.056 141.82L175.665 134.845L171.531 125.545L178.248 122.445L183.156 113.145L185.223 106.687V100.745Z" fill="#0E0E0E" stroke="black" stroke-width="0.516661"/>
<path d="M174.165 70.6152L168.432 78.0819L176.565 89.8154C184.698 101.816 185.898 104.749 183.232 106.482C182.432 106.882 182.032 108.749 182.432 110.482C182.698 112.216 182.298 113.416 181.498 113.282C180.698 113.149 180.165 114.349 180.298 116.082C180.565 118.482 179.632 119.549 175.365 121.149C169.098 123.682 168.832 125.416 173.498 133.416C181.365 146.749 183.632 149.149 197.632 157.949L211.632 166.883L223.899 160.749C230.566 157.416 236.432 154.083 236.832 153.283C237.366 152.616 237.766 145.016 237.899 136.483C238.032 127.949 238.432 119.682 238.832 118.082C239.366 116.216 238.166 112.482 235.499 107.816C232.699 103.016 231.499 99.5488 232.032 97.4155C232.566 95.2821 231.099 91.6821 226.966 85.1487C223.899 80.082 220.565 75.6819 219.765 75.4152C218.965 75.1486 216.299 78.0819 213.899 81.9486C210.299 87.8154 208.432 89.5487 203.499 91.2821C200.032 92.3487 196.432 93.8154 195.232 94.2154C193.365 95.0154 192.432 93.4154 190.165 85.4153C186.298 72.4819 182.832 63.9485 181.365 63.5485C180.565 63.4151 177.365 66.6152 174.165 70.6152ZM183.098 71.6819C185.098 76.0819 185.365 75.1486 180.832 80.882L176.965 85.8153L174.832 82.7486C171.898 78.6153 172.165 76.3486 176.298 72.0819C180.698 67.5485 181.232 67.4152 183.098 71.6819ZM187.765 87.8154C187.898 94.0821 185.632 96.2154 182.032 93.0154C178.565 89.9487 178.698 87.682 182.432 83.1487C185.898 78.7486 187.498 80.2153 187.765 87.8154ZM225.366 87.682C227.899 91.8154 230.032 95.2821 230.032 95.6821C230.032 96.7488 222.032 100.482 220.965 99.8155C220.432 99.5488 218.565 96.4821 216.832 93.2821C213.632 87.5487 213.632 87.1487 215.765 83.8153C217.099 81.9486 218.699 80.3486 219.365 80.3486C220.032 80.3486 222.699 83.682 225.366 87.682ZM218.032 101.816C218.032 102.349 216.832 103.549 215.365 104.349C213.099 105.549 212.165 105.282 210.032 102.749C206.832 99.0155 206.832 98.6155 209.499 93.4154L211.632 89.282L214.832 95.0154C216.565 98.0821 218.032 101.149 218.032 101.816ZM203.499 97.8155C201.632 99.2821 199.632 99.8155 198.032 99.2821C193.765 97.6821 194.432 95.9488 200.032 94.3488C206.299 92.6154 207.899 94.2154 203.499 97.8155ZM191.099 98.0821C191.365 100.615 190.965 101.682 189.499 101.682C186.832 101.682 186.032 100.082 186.965 96.4821C187.898 92.6154 190.565 93.6821 191.099 98.0821ZM208.699 106.616C208.699 109.282 204.699 110.349 202.565 108.216C200.965 106.482 200.965 105.816 202.965 103.149C204.965 100.082 205.232 100.082 206.965 102.349C207.899 103.816 208.699 105.682 208.699 106.616ZM199.099 103.149C198.832 103.949 198.032 104.482 197.365 104.482C196.699 104.482 195.899 103.949 195.632 103.149C195.365 102.349 196.165 101.682 197.365 101.682C198.565 101.682 199.365 102.349 199.099 103.149ZM232.432 107.682C234.032 111.016 235.366 114.482 235.366 115.416C235.366 116.882 219.232 125.016 216.165 125.016C215.499 125.016 213.899 121.682 212.432 117.682C209.765 109.549 209.099 110.616 219.899 104.749C222.966 103.149 226.299 101.816 227.366 101.816C228.432 101.816 230.699 104.482 232.432 107.682ZM194.032 105.149C194.032 107.416 191.099 107.016 190.299 104.616C190.032 103.682 190.699 103.016 191.899 103.016C193.099 103.016 194.032 103.949 194.032 105.149ZM188.699 108.216C188.699 109.816 186.032 111.549 185.098 110.616C184.165 109.682 185.898 107.016 187.498 107.016C188.165 107.016 188.699 107.549 188.699 108.216ZM202.032 112.349C204.965 119.416 198.832 123.416 194.699 117.149C192.965 114.616 192.832 113.282 194.032 111.149C196.165 107.016 200.032 107.682 202.032 112.349ZM189.765 114.482C186.432 117.816 184.165 116.349 186.832 112.616C188.432 110.349 189.365 109.816 190.432 110.882C191.499 111.949 191.365 113.016 189.765 114.482ZM211.232 127.016V130.349L208.032 126.349C204.432 121.949 203.365 113.016 206.299 112.082C208.165 111.416 211.232 121.016 211.232 127.016ZM194.032 121.016C194.032 121.949 193.099 123.416 192.032 124.349C190.432 125.682 189.765 125.282 188.432 122.349C187.098 119.416 187.232 118.616 188.699 117.682C190.832 116.349 194.032 118.349 194.032 121.016ZM188.699 128.349C188.699 129.549 188.032 131.149 187.098 132.082C185.898 133.282 184.832 132.482 182.432 129.016C178.965 123.949 178.698 122.216 181.098 121.282C183.232 120.482 188.699 125.549 188.699 128.349ZM234.699 136.483C234.432 144.483 233.766 151.683 233.366 152.483C232.832 153.149 228.299 155.816 223.232 158.349L214.032 163.016V158.616C214.032 155.149 214.832 153.816 218.032 151.949C220.299 150.616 222.032 148.883 222.032 148.216C222.032 147.416 220.299 144.216 218.165 141.149C215.899 137.949 213.765 133.816 213.232 131.949C212.565 129.016 212.832 128.349 214.965 128.349C216.432 128.349 221.099 126.616 225.499 124.482C229.766 122.349 233.766 120.882 234.432 121.282C234.966 121.549 235.099 128.482 234.699 136.483ZM198.032 126.482C198.032 127.682 199.232 133.816 200.699 140.083C202.299 146.483 203.765 153.016 204.165 154.616C204.432 156.349 205.632 157.683 206.699 157.683C208.965 157.683 209.365 155.549 207.365 154.349C206.699 153.949 206.032 151.683 206.032 149.549C206.032 146.616 206.832 145.283 209.232 144.349C210.965 143.683 212.832 142.483 213.365 141.683C214.032 140.616 214.832 141.016 216.165 142.616C219.099 146.616 218.299 149.016 213.099 151.549C209.765 153.149 208.699 154.216 209.899 154.883C210.832 155.549 211.365 157.549 211.099 159.549L210.699 163.149L197.765 154.883C182.298 145.283 182.032 144.483 190.165 131.682C195.232 123.549 198.032 121.816 198.032 126.482ZM204.432 125.682C206.032 128.349 205.632 131.016 203.499 131.016C202.565 131.016 199.365 125.282 199.365 123.682C199.365 121.816 202.965 123.416 204.432 125.682ZM180.032 130.482C183.365 136.216 183.765 140.349 180.698 140.349C180.032 140.349 179.365 139.549 179.365 138.616C179.365 137.683 177.898 134.749 176.032 131.949C172.832 127.282 172.565 124.349 175.365 124.349C175.898 124.349 178.032 127.149 180.032 130.482ZM212.699 137.949C212.699 139.683 206.165 143.283 204.699 142.349C202.565 141.016 203.099 134.749 205.765 132.882C207.632 131.416 208.299 131.549 210.299 134.082C211.632 135.683 212.699 137.416 212.699 137.949Z" fill="white"/>
<path d="M196.297 112.883C195.497 114.883 196.431 116.35 198.297 116.35C198.831 116.35 199.364 115.15 199.364 113.683C199.364 110.616 197.364 110.083 196.297 112.883Z" fill="white"/>
<path d="M222.298 131.684C220.165 136.218 220.298 137.551 222.565 134.618C223.898 132.884 224.698 132.618 225.365 133.818C226.032 134.751 225.232 136.218 223.632 137.551C219.365 140.751 221.632 143.684 226.432 141.284C228.432 140.218 229.498 139.018 228.965 138.484C228.432 137.951 228.032 136.484 227.898 135.284C227.498 129.284 227.232 128.351 225.632 128.351C224.565 128.351 223.098 129.818 222.298 131.684Z" fill="white"/>
</g>
<path d="M185.223 100.745L171.531 79.0454V75.9455L181.606 66.1289L187.548 80.3371L191.164 95.0619H197.881L210.797 89.637L219.839 78.0121L230.947 95.0619L231.722 102.553L236.631 115.212V123.995L235.339 152.411L225.006 159.128L210.797 164.553L196.589 156.545L180.056 141.82L175.665 134.845L171.531 125.545L178.248 122.445L183.156 113.145L185.223 106.687V100.745Z" fill="#0E0E0E" stroke="black" stroke-width="0.516661"/>
<path d="M174.165 70.6152L168.432 78.0819L176.565 89.8154C184.698 101.816 185.898 104.749 183.232 106.482C182.432 106.882 182.032 108.749 182.432 110.482C182.698 112.216 182.298 113.416 181.498 113.282C180.698 113.149 180.165 114.349 180.298 116.082C180.565 118.482 179.632 119.549 175.365 121.149C169.098 123.682 168.832 125.416 173.498 133.416C181.365 146.749 183.632 149.149 197.632 157.949L211.632 166.883L223.899 160.749C230.566 157.416 236.432 154.083 236.832 153.283C237.366 152.616 237.766 145.016 237.899 136.483C238.032 127.949 238.432 119.682 238.832 118.082C239.366 116.216 238.166 112.482 235.499 107.816C232.699 103.016 231.499 99.5488 232.032 97.4155C232.566 95.2821 231.099 91.6821 226.966 85.1487C223.899 80.082 220.565 75.6819 219.765 75.4152C218.965 75.1486 216.299 78.0819 213.899 81.9486C210.299 87.8154 208.432 89.5487 203.499 91.2821C200.032 92.3487 196.432 93.8154 195.232 94.2154C193.365 95.0154 192.432 93.4154 190.165 85.4153C186.298 72.4819 182.832 63.9485 181.365 63.5485C180.565 63.4151 177.365 66.6152 174.165 70.6152ZM183.098 71.6819C185.098 76.0819 185.365 75.1486 180.832 80.882L176.965 85.8153L174.832 82.7486C171.898 78.6153 172.165 76.3486 176.298 72.0819C180.698 67.5485 181.232 67.4152 183.098 71.6819ZM187.765 87.8154C187.898 94.0821 185.632 96.2154 182.032 93.0154C178.565 89.9487 178.698 87.682 182.432 83.1487C185.898 78.7486 187.498 80.2153 187.765 87.8154ZM225.366 87.682C227.899 91.8154 230.032 95.2821 230.032 95.6821C230.032 96.7488 222.032 100.482 220.965 99.8155C220.432 99.5488 218.565 96.4821 216.832 93.2821C213.632 87.5487 213.632 87.1487 215.765 83.8153C217.099 81.9486 218.699 80.3486 219.365 80.3486C220.032 80.3486 222.699 83.682 225.366 87.682ZM218.032 101.816C218.032 102.349 216.832 103.549 215.365 104.349C213.099 105.549 212.165 105.282 210.032 102.749C206.832 99.0155 206.832 98.6155 209.499 93.4154L211.632 89.282L214.832 95.0154C216.565 98.0821 218.032 101.149 218.032 101.816ZM203.499 97.8155C201.632 99.2821 199.632 99.8155 198.032 99.2821C193.765 97.6821 194.432 95.9488 200.032 94.3488C206.299 92.6154 207.899 94.2154 203.499 97.8155ZM191.099 98.0821C191.365 100.615 190.965 101.682 189.499 101.682C186.832 101.682 186.032 100.082 186.965 96.4821C187.898 92.6154 190.565 93.6821 191.099 98.0821ZM208.699 106.616C208.699 109.282 204.699 110.349 202.565 108.216C200.965 106.482 200.965 105.816 202.965 103.149C204.965 100.082 205.232 100.082 206.965 102.349C207.899 103.816 208.699 105.682 208.699 106.616ZM199.099 103.149C198.832 103.949 198.032 104.482 197.365 104.482C196.699 104.482 195.899 103.949 195.632 103.149C195.365 102.349 196.165 101.682 197.365 101.682C198.565 101.682 199.365 102.349 199.099 103.149ZM232.432 107.682C234.032 111.016 235.366 114.482 235.366 115.416C235.366 116.882 219.232 125.016 216.165 125.016C215.499 125.016 213.899 121.682 212.432 117.682C209.765 109.549 209.099 110.616 219.899 104.749C222.966 103.149 226.299 101.816 227.366 101.816C228.432 101.816 230.699 104.482 232.432 107.682ZM194.032 105.149C194.032 107.416 191.099 107.016 190.299 104.616C190.032 103.682 190.699 103.016 191.899 103.016C193.099 103.016 194.032 103.949 194.032 105.149ZM188.699 108.216C188.699 109.816 186.032 111.549 185.098 110.616C184.165 109.682 185.898 107.016 187.498 107.016C188.165 107.016 188.699 107.549 188.699 108.216ZM202.032 112.349C204.965 119.416 198.832 123.416 194.699 117.149C192.965 114.616 192.832 113.282 194.032 111.149C196.165 107.016 200.032 107.682 202.032 112.349ZM189.765 114.482C186.432 117.816 184.165 116.349 186.832 112.616C188.432 110.349 189.365 109.816 190.432 110.882C191.499 111.949 191.365 113.016 189.765 114.482ZM211.232 127.016V130.349L208.032 126.349C204.432 121.949 203.365 113.016 206.299 112.082C208.165 111.416 211.232 121.016 211.232 127.016ZM194.032 121.016C194.032 121.949 193.099 123.416 192.032 124.349C190.432 125.682 189.765 125.282 188.432 122.349C187.098 119.416 187.232 118.616 188.699 117.682C190.832 116.349 194.032 118.349 194.032 121.016ZM188.699 128.349C188.699 129.549 188.032 131.149 187.098 132.082C185.898 133.282 184.832 132.482 182.432 129.016C178.965 123.949 178.698 122.216 181.098 121.282C183.232 120.482 188.699 125.549 188.699 128.349ZM234.699 136.483C234.432 144.483 233.766 151.683 233.366 152.483C232.832 153.149 228.299 155.816 223.232 158.349L214.032 163.016V158.616C214.032 155.149 214.832 153.816 218.032 151.949C220.299 150.616 222.032 148.883 222.032 148.216C222.032 147.416 220.299 144.216 218.165 141.149C215.899 137.949 213.765 133.816 213.232 131.949C212.565 129.016 212.832 128.349 214.965 128.349C216.432 128.349 221.099 126.616 225.499 124.482C229.766 122.349 233.766 120.882 234.432 121.282C234.966 121.549 235.099 128.482 234.699 136.483ZM198.032 126.482C198.032 127.682 199.232 133.816 200.699 140.083C202.299 146.483 203.765 153.016 204.165 154.616C204.432 156.349 205.632 157.683 206.699 157.683C208.965 157.683 209.365 155.549 207.365 154.349C206.699 153.949 206.032 151.683 206.032 149.549C206.032 146.616 206.832 145.283 209.232 144.349C210.965 143.683 212.832 142.483 213.365 141.683C214.032 140.616 214.832 141.016 216.165 142.616C219.099 146.616 218.299 149.016 213.099 151.549C209.765 153.149 208.699 154.216 209.899 154.883C210.832 155.549 211.365 157.549 211.099 159.549L210.699 163.149L197.765 154.883C182.298 145.283 182.032 144.483 190.165 131.682C195.232 123.549 198.032 121.816 198.032 126.482ZM204.432 125.682C206.032 128.349 205.632 131.016 203.499 131.016C202.565 131.016 199.365 125.282 199.365 123.682C199.365 121.816 202.965 123.416 204.432 125.682ZM180.032 130.482C183.365 136.216 183.765 140.349 180.698 140.349C180.032 140.349 179.365 139.549 179.365 138.616C179.365 137.683 177.898 134.749 176.032 131.949C172.832 127.282 172.565 124.349 175.365 124.349C175.898 124.349 178.032 127.149 180.032 130.482ZM212.699 137.949C212.699 139.683 206.165 143.283 204.699 142.349C202.565 141.016 203.099 134.749 205.765 132.882C207.632 131.416 208.299 131.549 210.299 134.082C211.632 135.683 212.699 137.416 212.699 137.949Z" fill="white"/>
<path d="M196.297 112.883C195.497 114.883 196.431 116.35 198.297 116.35C198.831 116.35 199.364 115.15 199.364 113.683C199.364 110.616 197.364 110.083 196.297 112.883Z" fill="white"/>
<path d="M222.298 131.684C220.165 136.218 220.298 137.551 222.565 134.618C223.898 132.884 224.698 132.618 225.365 133.818C226.032 134.751 225.232 136.218 223.632 137.551C219.365 140.751 221.632 143.684 226.432 141.284C228.432 140.218 229.498 139.018 228.965 138.484C228.432 137.951 228.032 136.484 227.898 135.284C227.498 129.284 227.232 128.351 225.632 128.351C224.565 128.351 223.098 129.818 222.298 131.684Z" fill="white"/>
<defs>
<filter id="filter0_f_2118_7344" x="39.7908" y="71.8884" width="9.30418" height="13.1997" filterUnits="userSpaceOnUse" color-interpolation-filters="sRGB">
<feFlood flood-opacity="0" result="BackgroundImageFix"/>
<feBlend mode="normal" in="SourceGraphic" in2="BackgroundImageFix" result="shape"/>
<feGaussianBlur stdDeviation="1.03332" result="effect1_foregroundBlur_2118_7344"/>
</filter>
<filter id="filter1_f_2118_7344" x="66.698" y="81.1814" width="8.35301" height="6.77196" filterUnits="userSpaceOnUse" color-interpolation-filters="sRGB">
<feFlood flood-opacity="0" result="BackgroundImageFix"/>
<feBlend mode="normal" in="SourceGraphic" in2="BackgroundImageFix" result="shape"/>
<feGaussianBlur stdDeviation="1.03332" result="effect1_foregroundBlur_2118_7344"/>
</filter>
<filter id="filter2_f_2118_7344" x="95.1882" y="83.822" width="10.728" height="7.5825" filterUnits="userSpaceOnUse" color-interpolation-filters="sRGB">
<feFlood flood-opacity="0" result="BackgroundImageFix"/>
<feBlend mode="normal" in="SourceGraphic" in2="BackgroundImageFix" result="shape"/>
<feGaussianBlur stdDeviation="1.03332" result="effect1_foregroundBlur_2118_7344"/>
</filter>
<filter id="filter3_f_2118_7344" x="30.5584" y="89.1365" width="10.2417" height="7.83055" filterUnits="userSpaceOnUse" color-interpolation-filters="sRGB">
<feFlood flood-opacity="0" result="BackgroundImageFix"/>
<feBlend mode="normal" in="SourceGraphic" in2="BackgroundImageFix" result="shape"/>
<feGaussianBlur stdDeviation="1.03332" result="effect1_foregroundBlur_2118_7344"/>
</filter>
<filter id="filter4_f_2118_7344" x="89.9099" y="93.0857" width="11.4956" height="6.73875" filterUnits="userSpaceOnUse" color-interpolation-filters="sRGB">
<feFlood flood-opacity="0" result="BackgroundImageFix"/>
<feBlend mode="normal" in="SourceGraphic" in2="BackgroundImageFix" result="shape"/>
<feGaussianBlur stdDeviation="1.03332" result="effect1_foregroundBlur_2118_7344"/>
</filter>
<filter id="filter5_f_2118_7344" x="16.4402" y="94.4373" width="11.5366" height="8.08446" filterUnits="userSpaceOnUse" color-interpolation-filters="sRGB">
<feFlood flood-opacity="0" result="BackgroundImageFix"/>
<feBlend mode="normal" in="SourceGraphic" in2="BackgroundImageFix" result="shape"/>
<feGaussianBlur stdDeviation="1.03332" result="effect1_foregroundBlur_2118_7344"/>
</filter>
<filter id="filter6_f_2118_7344" x="56.4734" y="95.7712" width="11.7446" height="7.645" filterUnits="userSpaceOnUse" color-interpolation-filters="sRGB">
<feFlood flood-opacity="0" result="BackgroundImageFix"/>
<feBlend mode="normal" in="SourceGraphic" in2="BackgroundImageFix" result="shape"/>
<feGaussianBlur stdDeviation="1.03332" result="effect1_foregroundBlur_2118_7344"/>
</filter>
<filter id="filter7_f_2118_7344" x="39.198" y="100.984" width="11.2309" height="8.45555" filterUnits="userSpaceOnUse" color-interpolation-filters="sRGB">
<feFlood flood-opacity="0" result="BackgroundImageFix"/>
<feBlend mode="normal" in="SourceGraphic" in2="BackgroundImageFix" result="shape"/>
<feGaussianBlur stdDeviation="1.03332" result="effect1_foregroundBlur_2118_7344"/>
</filter>
<filter id="filter8_f_2118_7344" x="73.3171" y="100.967" width="11.4956" height="6.77196" filterUnits="userSpaceOnUse" color-interpolation-filters="sRGB">
<feFlood flood-opacity="0" result="BackgroundImageFix"/>
<feBlend mode="normal" in="SourceGraphic" in2="BackgroundImageFix" result="shape"/>
<feGaussianBlur stdDeviation="1.03332" result="effect1_foregroundBlur_2118_7344"/>
</filter>
<filter id="filter9_f_2118_7344" x="54.3005" y="107.56" width="10.728" height="6.77196" filterUnits="userSpaceOnUse" color-interpolation-filters="sRGB">
<feFlood flood-opacity="0" result="BackgroundImageFix"/>
<feBlend mode="normal" in="SourceGraphic" in2="BackgroundImageFix" result="shape"/>
<feGaussianBlur stdDeviation="1.03332" result="effect1_foregroundBlur_2118_7344"/>
</filter>
<filter id="filter10_f_2118_7344" x="119.219" y="16.6912" width="24.6186" height="24.4985" filterUnits="userSpaceOnUse" color-interpolation-filters="sRGB">
<feFlood flood-opacity="0" result="BackgroundImageFix"/>
<feBlend mode="normal" in="SourceGraphic" in2="BackgroundImageFix" result="shape"/>
<feGaussianBlur stdDeviation="1.03332" result="effect1_foregroundBlur_2118_7344"/>
</filter>
<filter id="filter11_f_2118_7344" x="155.177" y="35.2595" width="26.2231" height="24.4048" filterUnits="userSpaceOnUse" color-interpolation-filters="sRGB">
<feFlood flood-opacity="0" result="BackgroundImageFix"/>
<feBlend mode="normal" in="SourceGraphic" in2="BackgroundImageFix" result="shape"/>
<feGaussianBlur stdDeviation="1.03332" result="effect1_foregroundBlur_2118_7344"/>
</filter>
<filter id="filter12_f_2118_7344" x="186.979" y="55.8572" width="26.4018" height="22.0727" filterUnits="userSpaceOnUse" color-interpolation-filters="sRGB">
<feFlood flood-opacity="0" result="BackgroundImageFix"/>
<feBlend mode="normal" in="SourceGraphic" in2="BackgroundImageFix" result="shape"/>
<feGaussianBlur stdDeviation="1.03332" result="effect1_foregroundBlur_2118_7344"/>
</filter>
<filter id="filter13_f_2118_7344" x="101.978" y="43.6111" width="15.7163" height="12.2251" filterUnits="userSpaceOnUse" color-interpolation-filters="sRGB">
<feFlood flood-opacity="0" result="BackgroundImageFix"/>
<feBlend mode="normal" in="SourceGraphic" in2="BackgroundImageFix" result="shape"/>
<feGaussianBlur stdDeviation="1.03332" result="effect1_foregroundBlur_2118_7344"/>
</filter>
<filter id="filter14_f_2118_7344" x="124.094" y="55.8045" width="22.5347" height="17.2036" filterUnits="userSpaceOnUse" color-interpolation-filters="sRGB">
<feFlood flood-opacity="0" result="BackgroundImageFix"/>
<feBlend mode="normal" in="SourceGraphic" in2="BackgroundImageFix" result="shape"/>
<feGaussianBlur stdDeviation="1.03332" result="effect1_foregroundBlur_2118_7344"/>
</filter>
<filter id="filter15_f_2118_7344" x="155.609" y="74.4978" width="21.4819" height="16.7036" filterUnits="userSpaceOnUse" color-interpolation-filters="sRGB">
<feFlood flood-opacity="0" result="BackgroundImageFix"/>
<feBlend mode="normal" in="SourceGraphic" in2="BackgroundImageFix" result="shape"/>
<feGaussianBlur stdDeviation="1.03332" result="effect1_foregroundBlur_2118_7344"/>
</filter>
<filter id="filter16_f_2118_7344" x="192.096" y="96.3943" width="22.479" height="14.5454" filterUnits="userSpaceOnUse" color-interpolation-filters="sRGB">
<feFlood flood-opacity="0" result="BackgroundImageFix"/>
<feBlend mode="normal" in="SourceGraphic" in2="BackgroundImageFix" result="shape"/>
<feGaussianBlur stdDeviation="1.03332" result="effect1_foregroundBlur_2118_7344"/>
</filter>
<filter id="filter17_f_2118_7344" x="249.96" y="80.6052" width="10.3335" height="8.2661" filterUnits="userSpaceOnUse" color-interpolation-filters="sRGB">
<feFlood flood-opacity="0" result="BackgroundImageFix"/>
<feBlend mode="normal" in="SourceGraphic" in2="BackgroundImageFix" result="shape"/>
<feGaussianBlur stdDeviation="1.03332" result="effect1_foregroundBlur_2118_7344"/>
</filter>
<filter id="filter18_f_2118_7344" x="123.365" y="110.052" width="13.6225" height="7.15477" filterUnits="userSpaceOnUse" color-interpolation-filters="sRGB">
<feFlood flood-opacity="0" result="BackgroundImageFix"/>
<feBlend mode="normal" in="SourceGraphic" in2="BackgroundImageFix" result="shape"/>
<feGaussianBlur stdDeviation="1.03332" result="effect1_foregroundBlur_2118_7344"/>
</filter>
<filter id="filter19_f_2118_7344" x="131.653" y="110.416" width="26.2251" height="9.48094" filterUnits="userSpaceOnUse" color-interpolation-filters="sRGB">
<feFlood flood-opacity="0" result="BackgroundImageFix"/>
<feBlend mode="normal" in="SourceGraphic" in2="BackgroundImageFix" result="shape"/>
<feGaussianBlur stdDeviation="1.03332" result="effect1_foregroundBlur_2118_7344"/>
</filter>
<filter id="filter20_f_2118_7344" x="167.873" y="123.427" width="14.5122" height="6.89891" filterUnits="userSpaceOnUse" color-interpolation-filters="sRGB">
<feFlood flood-opacity="0" result="BackgroundImageFix"/>
<feBlend mode="normal" in="SourceGraphic" in2="BackgroundImageFix" result="shape"/>
<feGaussianBlur stdDeviation="1.03332" result="effect1_foregroundBlur_2118_7344"/>
</filter>
<filter id="filter21_f_2118_7344" x="154.477" y="125.804" width="21.2007" height="8.42625" filterUnits="userSpaceOnUse" color-interpolation-filters="sRGB">
<feFlood flood-opacity="0" result="BackgroundImageFix"/>
<feBlend mode="normal" in="SourceGraphic" in2="BackgroundImageFix" result="shape"/>
<feGaussianBlur stdDeviation="1.03332" result="effect1_foregroundBlur_2118_7344"/>
</filter>
<filter id="filter22_f_2118_7344" x="102.392" y="130.845" width="17.935" height="8.26219" filterUnits="userSpaceOnUse" color-interpolation-filters="sRGB">
<feFlood flood-opacity="0" result="BackgroundImageFix"/>
<feBlend mode="normal" in="SourceGraphic" in2="BackgroundImageFix" result="shape"/>
<feGaussianBlur stdDeviation="1.03332" result="effect1_foregroundBlur_2118_7344"/>
</filter>
<filter id="filter23_f_2118_7344" x="114.8" y="132.478" width="25.2075" height="10.4477" filterUnits="userSpaceOnUse" color-interpolation-filters="sRGB">
<feFlood flood-opacity="0" result="BackgroundImageFix"/>
<feBlend mode="normal" in="SourceGraphic" in2="BackgroundImageFix" result="shape"/>
<feGaussianBlur stdDeviation="1.03332" result="effect1_foregroundBlur_2118_7344"/>
</filter>
<filter id="filter24_f_2118_7344" x="82.0369" y="140.916" width="25.9067" height="10.9751" filterUnits="userSpaceOnUse" color-interpolation-filters="sRGB">
<feFlood flood-opacity="0" result="BackgroundImageFix"/>
<feBlend mode="normal" in="SourceGraphic" in2="BackgroundImageFix" result="shape"/>
<feGaussianBlur stdDeviation="1.03332" result="effect1_foregroundBlur_2118_7344"/>
</filter>
<filter id="filter25_f_2118_7344" x="67.0886" y="148.019" width="23.4702" height="7.78172" filterUnits="userSpaceOnUse" color-interpolation-filters="sRGB">
<feFlood flood-opacity="0" result="BackgroundImageFix"/>
<feBlend mode="normal" in="SourceGraphic" in2="BackgroundImageFix" result="shape"/>
<feGaussianBlur stdDeviation="1.03332" result="effect1_foregroundBlur_2118_7344"/>
</filter>
<filter id="filter26_f_2118_7344" x="98.8367" y="153.551" width="15.6958" height="6.76024" filterUnits="userSpaceOnUse" color-interpolation-filters="sRGB">
<feFlood flood-opacity="0" result="BackgroundImageFix"/>
<feBlend mode="normal" in="SourceGraphic" in2="BackgroundImageFix" result="shape"/>
<feGaussianBlur stdDeviation="1.03332" result="effect1_foregroundBlur_2118_7344"/>
</filter>
<filter id="filter27_f_2118_7344" x="110.552" y="153.715" width="21.647" height="9.52586" filterUnits="userSpaceOnUse" color-interpolation-filters="sRGB">
<feFlood flood-opacity="0" result="BackgroundImageFix"/>
<feBlend mode="normal" in="SourceGraphic" in2="BackgroundImageFix" result="shape"/>
<feGaussianBlur stdDeviation="1.03332" result="effect1_foregroundBlur_2118_7344"/>
</filter>
<filter id="filter28_f_2118_7344" x="165.073" y="60.1866" width="77.241" height="110.054" filterUnits="userSpaceOnUse" color-interpolation-filters="sRGB">
<feFlood flood-opacity="0" result="BackgroundImageFix"/>
<feBlend mode="normal" in="SourceGraphic" in2="BackgroundImageFix" result="shape"/>
<feGaussianBlur stdDeviation="1.67915" result="effect1_foregroundBlur_2118_7344"/>
</filter>
</defs>
</svg>
