<svg width="237" height="100%" viewBox="0 0 237 182" fill="none" xmlns="http://www.w3.org/2000/svg">
<path d="M72.5002 1.83765C71.2236 3.27374 68.6706 7.90113 66.9154 12.0498C64.6815 17.3155 62.4476 19.8685 59.5754 20.6663C57.501 21.145 53.831 24.1768 51.5971 27.3681C49.3632 30.7189 46.0123 34.2294 44.2571 35.3463C42.5019 36.4633 41.0658 38.2185 41.0658 39.495C41.0658 40.612 39.7893 42.048 38.3532 42.6863C36.7576 43.165 27.6624 48.1115 17.9289 53.6963C-9.03759 69.0145 -8.23977 70.6102 38.6724 95.981C51.9163 103.002 64.0432 110.023 65.7984 111.299C68.6706 113.374 69.9471 113.055 80.7975 107.151C87.3397 103.481 97.0732 97.8958 102.339 94.545C121.008 83.0563 146.219 69.1741 148.613 69.1741C150.527 69.1741 151.166 67.5785 151.166 63.5893C151.166 59.1215 150.368 57.6854 147.496 56.5685C143.507 54.9728 120.529 40.612 119.253 38.8568C117.976 36.942 111.274 35.3463 111.274 36.7824C111.274 37.4207 112.711 39.0163 114.466 40.1333C117.657 42.048 118.774 45.2394 116.381 45.2394C115.742 45.2394 112.711 43.165 109.679 40.612C104.254 35.9846 104.254 35.825 107.604 34.5485C111.115 33.272 111.115 33.1124 104.094 21.3046C100.264 14.7624 96.4349 8.37982 95.6371 7.1033C94.5201 5.18852 92.7649 5.50765 85.2654 9.01808C77.7658 12.3689 76.1701 12.6881 76.1701 10.7733C76.1701 9.33721 77.6062 7.90113 79.3615 7.42243C83.6697 6.30548 83.3506 3.11418 78.7232 0.880264C75.6915 -0.555817 74.4149 -0.236687 72.5002 1.83765ZM75.6915 5.66722C75.2128 6.94374 74.7341 6.46504 74.7341 4.70983C74.5745 2.95461 75.0532 1.99722 75.5319 2.63548C76.0106 3.11418 76.1701 4.55026 75.6915 5.66722ZM73.7767 9.97548C74.5745 11.4116 69.9471 17.3155 68.8302 16.1985C68.511 15.8794 68.6706 13.9646 69.3088 12.0498C70.2662 8.37982 72.181 7.42243 73.7767 9.97548ZM96.754 15.2411C97.871 18.1133 100.424 23.2194 102.658 26.5702C106.966 33.272 106.647 36.1441 102.179 32.155C97.871 28.3255 82.3932 20.9855 81.2762 22.1024C80.638 22.7407 79.9997 28.9637 79.8401 35.9846C79.6806 43.0054 79.3615 48.9094 79.0423 49.0689C78.7232 49.2285 76.4893 50.6646 74.0958 52.2602C71.5428 53.8559 69.3088 54.8133 69.1493 54.4941C68.6706 53.3772 64.5219 42.5267 61.6497 34.2294C59.8945 29.4424 59.0967 25.1342 59.5754 24.6555C61.3306 22.7407 89.7332 10.2946 92.4458 10.2946C93.8819 10.135 95.7967 12.2094 96.754 15.2411ZM92.6054 29.4424C95.7967 30.5594 98.5093 31.9955 98.5093 32.6337C98.5093 33.272 96.1158 37.4207 93.084 41.8885C90.0523 46.3563 88.2971 50.3454 89.0949 50.8241C90.6906 51.9411 91.1693 62.7915 89.414 62.7915C88.7758 62.7915 86.7014 61.3554 84.9462 59.6002L81.4358 56.2493L75.851 59.6002C68.6706 63.7489 62.4476 62.9511 52.2354 56.4089C44.5763 51.4624 44.0976 50.8241 45.2145 46.1967C46.1719 41.8885 55.1076 30.8785 57.8202 30.8785C58.2989 30.8785 58.618 32.6337 58.618 34.8676C58.618 37.1015 60.0541 41.7289 61.8093 45.2394C63.5645 48.7498 65.0006 52.8985 65.0006 54.6537C65.0006 59.9193 67.7132 60.0789 76.1701 55.292C83.9888 50.8241 87.4993 46.6754 84.308 45.5585C83.3506 45.2394 82.5527 40.7715 82.5527 35.3463C82.5527 28.3255 83.0314 26.0915 84.6271 26.7298C85.5845 27.0489 89.2545 28.3255 92.6054 29.4424ZM104.413 42.3672C108.243 45.8776 109.36 53.8559 106.488 55.6111C105.53 56.2493 104.892 54.8133 104.892 52.4198C104.892 48.4307 101.062 45.2394 98.988 47.4733C98.3497 47.952 97.5519 51.4624 97.0732 55.1324C96.5945 58.8024 95.318 61.9937 94.3606 62.3128C91.8075 63.1106 93.5627 46.9946 96.5945 42.3672C99.4667 38.0589 99.7858 38.0589 104.413 42.3672ZM42.6615 46.3563C42.6615 48.7498 39.6297 52.2602 38.5128 51.3028C37.8745 50.6646 35.4811 51.4624 33.2471 53.058C22.5563 60.398 7.23804 67.8976 5.64239 66.3019C4.685 65.3446 7.23804 63.2702 12.6633 60.2385C42.6615 44.282 42.6615 44.282 42.6615 46.3563ZM128.507 55.7706C134.731 58.9619 139.996 62.1533 139.996 62.6319C139.996 63.7489 123.242 73.6419 108.881 81.1415C103.615 84.0137 93.8819 89.2793 87.0206 92.9493C80.3188 96.6193 73.298 99.9702 71.2236 100.289C67.0749 101.087 11.8654 71.408 13.1419 69.0145C13.6206 68.2167 20.1628 64.3872 27.5028 60.398L41.0658 52.8985L46.0123 56.5685C48.725 58.4833 54.6289 61.9937 59.0967 64.5467L67.0749 68.855L74.0958 64.8659C80.638 61.1959 81.4358 61.1959 83.9888 63.4298C87.978 66.9402 93.2436 66.4615 102.498 61.3554C109.679 57.5259 110.477 56.4089 110.955 50.9837C111.434 45.3989 111.753 45.0798 114.147 47.3137C115.583 48.7498 122.125 52.4198 128.507 55.7706ZM133.614 51.9411C139.837 55.4515 144.783 59.1215 144.783 59.9193C144.783 61.8341 121.965 49.2285 121.167 46.9946C120.21 44.282 121.965 44.9202 133.614 51.9411ZM103.296 53.8559C103.296 55.1324 102.658 56.728 101.701 57.2067C100.903 57.6854 100.105 56.728 100.105 54.9728C100.105 53.058 100.903 51.622 101.701 51.622C102.658 51.622 103.296 52.5793 103.296 53.8559ZM133.454 72.8441C126.114 76.6737 118.136 80.9819 115.742 82.5776C113.189 84.1732 111.274 84.8115 111.274 84.1732C111.434 82.0989 140.156 66.1424 143.826 65.9828C145.581 65.9828 140.954 69.0145 133.454 72.8441ZM2.77022 69.9719C2.77022 70.4506 2.45109 70.7698 1.97239 70.7698C1.4937 70.7698 1.17457 70.4506 1.17457 69.9719C1.17457 69.4932 1.4937 69.1741 1.97239 69.1741C2.45109 69.1741 2.77022 69.4932 2.77022 69.9719ZM28.1411 82.8967C29.4176 84.1732 30.0558 85.4497 29.5772 86.088C28.1411 87.3645 5.96152 73.6419 6.91891 72.0463C7.71674 70.7698 24.1519 79.2267 28.1411 82.8967ZM68.0323 106.831C68.511 109.225 68.0323 109.225 64.0432 106.353C61.4902 104.598 53.5119 100.13 46.3315 96.3002C38.9915 92.4706 33.0876 88.4815 33.0876 87.3645C33.0876 84.4924 67.2345 103.481 68.0323 106.831ZM105.849 88.1624C105.211 89.1197 99.6262 92.7897 93.2436 96.4597C86.861 100.13 79.521 104.438 76.6488 106.193C73.6171 107.948 71.2236 108.587 70.7449 107.629C70.1067 106.831 73.1384 104.119 77.2871 101.725C81.5954 99.3319 89.5736 94.7045 95.318 91.5132C105.53 85.6093 107.924 84.8115 105.849 88.1624Z" fill="white"/>
<path d="M50.6406 46.6799C50.6406 49.3925 50.9598 51.6264 51.2789 51.6264C51.598 51.6264 53.1937 52.1051 54.6298 52.5838C56.8637 53.5412 57.1828 52.7434 56.7041 48.2755C56.0658 40.9356 50.6406 39.4995 50.6406 46.6799Z" fill="#FDFF86"/>
<g filter="url(#filter0_f_2118_7243)">
<path d="M50.6406 46.6799C50.6406 49.3925 50.9598 51.6264 51.2789 51.6264C51.598 51.6264 53.1937 52.1051 54.6298 52.5838C56.8637 53.5412 57.1828 52.7434 56.7041 48.2755C56.0658 40.9356 50.6406 39.4995 50.6406 46.6799Z" fill="#FDFF86"/>
</g>
<path d="M83.3523 54.8184C83.831 55.6162 85.4266 56.4141 86.7032 56.4141C87.9797 56.4141 88.6179 55.6162 88.1392 54.8184C87.6606 53.861 86.0649 53.2228 84.7884 53.2228C83.5119 53.2228 82.8736 53.861 83.3523 54.8184Z" fill="#FDFF86"/>
<g filter="url(#filter1_f_2118_7243)">
<path d="M83.3523 54.8184C83.831 55.6162 85.4266 56.4141 86.7032 56.4141C87.9797 56.4141 88.6179 55.6162 88.1392 54.8184C87.6606 53.861 86.0649 53.2228 84.7884 53.2228C83.5119 53.2228 82.8736 53.861 83.3523 54.8184Z" fill="#FDFF86"/>
</g>
<path d="M117.66 58.3261C117.66 59.4431 119.415 60.56 121.649 60.56C124.043 60.7196 125.638 60.0814 125.638 58.6453C125.638 57.3687 124.043 56.4114 121.649 56.4114C119.415 56.4114 117.66 57.3687 117.66 58.3261Z" fill="#A5FF97"/>
<g filter="url(#filter2_f_2118_7243)">
<path d="M117.66 58.3261C117.66 59.4431 119.415 60.56 121.649 60.56C124.043 60.7196 125.638 60.0814 125.638 58.6453C125.638 57.3687 124.043 56.4114 121.649 56.4114C119.415 56.4114 117.66 57.3687 117.66 58.3261Z" fill="#A5FF97"/>
</g>
<path d="M39.4717 64.3883C39.4717 65.1861 40.1099 65.9839 40.9078 65.9839C41.7056 65.9839 43.6204 66.4626 44.8969 66.9413C46.8117 67.7391 47.2904 67.2604 46.4925 65.3456C45.3756 62.633 39.4717 61.8352 39.4717 64.3883Z" fill="#A5FF97"/>
<g filter="url(#filter3_f_2118_7243)">
<path d="M39.4717 64.3883C39.4717 65.1861 40.1099 65.9839 40.9078 65.9839C41.7056 65.9839 43.6204 66.4626 44.8969 66.9413C46.8117 67.7391 47.2904 67.2604 46.4925 65.3456C45.3756 62.633 39.4717 61.8352 39.4717 64.3883Z" fill="#A5FF97"/>
</g>
<path d="M111.273 69.1778C111.273 69.9756 113.667 70.7734 116.539 70.7734C120.369 70.7734 121.007 70.2947 119.252 69.1778C116.06 67.1034 111.273 67.1034 111.273 69.1778Z" fill="#A5FF97"/>
<g filter="url(#filter4_f_2118_7243)">
<path d="M111.273 69.1778C111.273 69.9756 113.667 70.7734 116.539 70.7734C120.369 70.7734 121.007 70.2947 119.252 69.1778C116.06 67.1034 111.273 67.1034 111.273 69.1778Z" fill="#A5FF97"/>
</g>
<path d="M22.7193 70.771C22.2406 71.5688 22.2406 72.3667 23.0384 72.3667C23.6767 72.3667 26.0701 72.8454 28.304 73.4836C31.8145 74.441 32.1336 74.2814 30.0593 71.888C27.6658 68.8562 24.1554 68.3775 22.7193 70.771Z" fill="#A5FF97"/>
<g filter="url(#filter5_f_2118_7243)">
<path d="M22.7193 70.771C22.2406 71.5688 22.2406 72.3667 23.0384 72.3667C23.6767 72.3667 26.0701 72.8454 28.304 73.4836C31.8145 74.441 32.1336 74.2814 30.0593 71.888C27.6658 68.8562 24.1554 68.3775 22.7193 70.771Z" fill="#A5FF97"/>
</g>
<path d="M70.9061 72.6898C70.4274 74.1259 72.023 74.9238 75.693 75.0833C80.3204 75.2429 80.7991 74.9238 79.2035 73.009C76.9696 70.2964 72.023 70.1368 70.9061 72.6898Z" fill="#A5FF97"/>
<g filter="url(#filter6_f_2118_7243)">
<path d="M70.9061 72.6898C70.4274 74.1259 72.023 74.9238 75.693 75.0833C80.3204 75.2429 80.7991 74.9238 79.2035 73.009C76.9696 70.2964 72.023 70.1368 70.9061 72.6898Z" fill="#A5FF97"/>
</g>
<path d="M50.0005 78.4329C49.5218 79.0712 51.277 80.5072 53.9896 81.4646C58.7765 83.3794 59.8935 82.2625 56.7022 79.0712C54.4683 76.8372 51.1174 76.5181 50.0005 78.4329Z" fill="#A5FF97"/>
<g filter="url(#filter7_f_2118_7243)">
<path d="M50.0005 78.4329C49.5218 79.0712 51.277 80.5072 53.9896 81.4646C58.7765 83.3794 59.8935 82.2625 56.7022 79.0712C54.4683 76.8372 51.1174 76.5181 50.0005 78.4329Z" fill="#A5FF97"/>
</g>
<path d="M91.3276 78.752C91.8063 79.5498 94.0402 80.3477 96.2741 80.3477C98.3484 80.3477 100.104 79.5498 100.104 78.752C100.104 77.7946 97.8697 77.1564 95.1571 77.1564C92.4445 77.1564 90.6893 77.7946 91.3276 78.752Z" fill="#A5FF97"/>
<g filter="url(#filter8_f_2118_7243)">
<path d="M91.3276 78.752C91.8063 79.5498 94.0402 80.3477 96.2741 80.3477C98.3484 80.3477 100.104 79.5498 100.104 78.752C100.104 77.7946 97.8697 77.1564 95.1571 77.1564C92.4445 77.1564 90.6893 77.7946 91.3276 78.752Z" fill="#A5FF97"/>
</g>
<path d="M68.1924 86.7305C68.1924 87.5283 69.9476 88.3262 72.1815 88.3262C74.4154 88.3262 76.1706 87.5283 76.1706 86.7305C76.1706 85.7731 74.4154 85.1349 72.1815 85.1349C69.9476 85.1349 68.1924 85.7731 68.1924 86.7305Z" fill="#A5FF97"/>
<g filter="url(#filter9_f_2118_7243)">
<path d="M68.1924 86.7305C68.1924 87.5283 69.9476 88.3262 72.1815 88.3262C74.4154 88.3262 76.1706 87.5283 76.1706 86.7305C76.1706 85.7731 74.4154 85.1349 72.1815 85.1349C69.9476 85.1349 68.1924 85.7731 68.1924 86.7305Z" fill="#A5FF97"/>
</g>
<path d="M157.563 71.6472C151.908 75.1473 142.841 80.2633 137.471 83.0137C132.207 85.7597 127.149 88.3919 126.328 88.9527C125.504 89.4082 120.875 92.2337 116.041 95.173C111.206 98.1123 104.415 102.186 100.809 104.232C97.2029 106.277 93.5045 108.643 92.6927 109.414C91.3719 110.628 90.9509 110.645 90.4824 109.505C90.1235 108.465 89.4963 108.596 87.7718 110.248C85.8454 112.12 59.0138 128.823 53.64 131.468C51.9862 132.274 51.5954 133.028 52.1821 134.48C53.0008 136.449 53.1061 136.445 55.2257 134.144C56.4369 132.829 59.7143 130.481 62.6009 128.887C65.3822 127.297 71.6558 123.455 76.587 120.301C85.2122 114.676 89.493 113.657 87.5433 117.532C86.766 119.145 66.9981 130.709 55.8339 136.122C49.8373 139.004 51.0598 140.535 65.2764 147.859C71.4181 151.087 77.9851 154.402 79.8218 155.486C81.7594 156.461 92.5261 161.924 103.718 167.474C115.02 173.125 124.712 178.105 125.365 178.605C126.128 179.207 128.716 178.046 132.603 175.146C135.986 172.793 142.554 168.412 147.388 165.473C161.883 156.444 169.793 151.376 185.403 141.247C199.161 132.249 226.756 116.147 231.019 114.707C232.265 114.234 232.739 112.95 232.614 109.898C232.519 107.582 232.732 105.043 233.008 104.083C233.382 102.908 233.045 102.395 231.782 102.446C230.834 102.485 225.556 99.7497 220.038 96.286C214.628 92.9233 208.899 89.4682 207.286 88.691C195.98 82.9343 168.775 67.3922 168.42 66.4578C168.184 65.835 163.53 68.0289 157.563 71.6472ZM165.711 72.3674C165.819 74.9987 165.213 75.6561 160.458 77.9596C157.457 79.3477 148.583 84.0341 140.853 88.3572C127.552 95.6499 126.618 96.0045 126.527 93.7942C126.445 91.7945 129.42 89.7748 145.8 80.4582C156.413 74.4355 165.169 69.4377 165.379 69.4291C165.48 69.3195 165.642 70.6834 165.711 72.3674ZM178.041 74.8139C184.081 78.1507 186.698 80.2574 186.973 81.8276C187.38 84.0249 186.525 83.7436 177.691 79.1507C171.12 75.7302 167.863 73.4389 167.811 72.1759C167.768 71.1234 168.155 70.2641 168.576 70.2469C169.102 70.2253 173.297 72.2672 178.041 74.8139ZM177.58 81.5801C193.099 89.7997 193.962 90.2915 208.231 98.8786C215.797 103.418 221.977 107.593 221.999 108.119C222.033 108.961 196.544 124.977 195.07 125.037C194.649 125.054 189.1 128.55 182.633 132.821C176.17 137.198 168.664 141.828 165.874 143.208C159.158 146.54 159.877 146.089 143.574 157.3C135.778 162.575 128.583 167.087 127.64 167.231C126.693 167.27 125.658 167.734 125.359 168.168C124.859 168.821 106.872 159.543 103.602 156.936C102.616 156.028 101.546 155.65 101.244 155.979C100.941 156.307 96.7584 154.581 91.91 152.039C87.0659 149.602 82.7652 147.564 82.3442 147.581C81.9232 147.598 80.9458 146.901 80.1745 146.089C79.4032 145.277 78.2153 144.588 77.3733 144.622C76.1103 144.674 61.8807 137.034 61.8461 136.192C61.8418 136.087 68.0144 132.355 75.5337 128.04C93.3493 117.716 119.505 102.516 122.071 100.83C126.283 98.1267 166.414 76.6611 167.361 76.6223C167.887 76.6007 172.407 78.8402 177.58 81.5801ZM196.272 84.9254C198.653 86.4092 202.65 88.7756 205.241 90.2508C207.722 91.625 209.795 93.3323 209.817 93.8585C209.839 94.3848 210.479 94.5694 211.308 94.2191C212.137 93.8688 214.929 95.1249 217.533 96.9158C220.242 98.7025 223.823 101.191 225.555 102.28C228.053 104.075 228.399 104.799 227.495 105.89C226.486 106.986 224.666 106.323 218.494 102.359C214.168 99.6895 209.946 97.016 208.978 96.5286C190.851 86.4128 188.247 84.6219 189.003 82.4823C189.57 80.8777 189.785 80.9743 196.272 84.9254ZM124.465 94.933C124.547 96.9328 123.007 97.9447 103.024 109.412C96.0228 113.495 90.0348 116.587 89.8113 116.279C88.0626 114.77 91.6342 111.882 104.409 104.611C112.235 100.073 119.54 95.6621 120.663 94.7726C123.423 92.6563 124.374 92.7228 124.465 94.933ZM229.377 110.663C228.499 112.386 224.3 115.404 217.189 119.386C211.21 122.688 203.489 127.222 199.992 129.369C194.135 133.088 193.508 133.219 193.43 131.324C193.34 129.114 194.16 128.553 212.871 116.927C220.373 112.192 224.405 110.234 226.106 110.586C227.913 110.934 228.426 110.596 228.365 109.123C228.266 106.702 229.57 105.067 230.165 106.73C230.511 107.454 230.054 109.159 229.377 110.663ZM191.369 132.463C191.455 134.568 185.628 139.024 170.418 148.609C162.398 153.577 162.192 153.691 161.571 151.397C160.963 149.418 162.183 148.314 171.439 142.663C177.301 139.049 183.772 134.883 185.816 133.323C190.423 129.972 191.261 129.832 191.369 132.463ZM66.7145 141.791C70.3836 143.854 79.103 148.241 86.1963 151.535C93.1842 154.833 99.6417 158.047 100.404 158.649C101.71 159.649 102.611 163.619 101.453 163.666C100.19 163.718 81.1124 153.536 79.2498 151.82C78.2637 150.911 77.1853 150.323 76.8782 150.546C76.1716 151.313 56.4491 140.841 55.8625 139.389C54.9169 136.898 60.1259 137.949 66.7145 141.791ZM157.854 155.872C155.401 157.764 128.494 175.209 127.968 175.23C127.758 175.239 127.71 174.081 127.864 172.704C127.989 170.591 131.047 168.04 143.467 159.835C157.84 150.39 158.871 149.821 159.277 152.018C159.653 153.478 159.082 154.978 157.854 155.872ZM115.353 165.837C123.441 170.25 125.51 171.852 125.588 173.746C125.683 176.062 125.043 175.877 114.916 170.599C106.302 166.208 104.132 164.716 104.05 162.716C103.998 161.453 104.271 160.388 104.587 160.375C104.902 160.362 109.747 162.799 115.353 165.837Z" fill="white"/>
<path d="M160.204 92.3109C156.141 96.062 156.794 96.5624 161.945 93.6101C166.99 90.6622 175.852 90.826 180.406 93.9075C182.037 95.1058 183.637 95.5673 183.932 95.0281C185.306 92.5469 176.09 88.9185 169.144 89.2033C164.513 89.3932 162.85 89.9885 160.204 92.3109Z" fill="#A5FF97"/>
<g filter="url(#filter10_f_2118_7243)">
<path d="M160.204 92.3109C156.141 96.062 156.794 96.5624 161.945 93.6101C166.99 90.6622 175.852 90.826 180.406 93.9075C182.037 95.1058 183.637 95.5673 183.932 95.0281C185.306 92.5469 176.09 88.9185 169.144 89.2033C164.513 89.3932 162.85 89.9885 160.204 92.3109Z" fill="#A5FF97"/>
</g>
<path d="M201.873 105.783C200.233 106.904 200.447 107.001 204.885 107.241C206.468 107.281 209.222 107.59 210.928 108.047C213.8 108.667 213.9 108.558 212.472 107.14C210.386 105.117 203.922 104.328 201.873 105.783Z" fill="#A5FF97"/>
<g filter="url(#filter11_f_2118_7243)">
<path d="M201.873 105.783C200.233 106.904 200.447 107.001 204.885 107.241C206.468 107.281 209.222 107.59 210.928 108.047C213.8 108.667 213.9 108.558 212.472 107.14C210.386 105.117 203.922 104.328 201.873 105.783Z" fill="#A5FF97"/>
</g>
<path d="M187.64 108.37C182.885 110.674 184.292 111.565 191.002 110.657C196.146 110.13 198.365 110.25 200.421 111.536C203.336 113.209 205.353 113.548 205.297 112.18C205.185 109.443 191.57 106.522 187.64 108.37Z" fill="#A5FF97"/>
<g filter="url(#filter12_f_2118_7243)">
<path d="M187.64 108.37C182.885 110.674 184.292 111.565 191.002 110.657C196.146 110.13 198.365 110.25 200.421 111.536C203.336 113.209 205.353 113.548 205.297 112.18C205.185 109.443 191.57 106.522 187.64 108.37Z" fill="#A5FF97"/>
</g>
<path d="M101.67 127.812C95.6821 130.904 96.8787 131.804 103.625 129.208C110.27 126.722 115.146 127.365 120.165 131.482C123.54 134.085 123.969 134.278 123.896 132.489C123.784 129.752 114.53 125.177 109.793 125.371C107.794 125.453 104.149 126.551 101.67 127.812Z" fill="white"/>
<path d="M101.67 127.812C95.6821 130.904 96.8787 131.804 103.625 129.208C110.27 126.722 115.146 127.365 120.165 131.482C123.54 134.085 123.969 134.278 123.896 132.489C123.784 129.752 114.53 125.177 109.793 125.371C107.794 125.453 104.149 126.551 101.67 127.812Z" fill="#A5FF97"/>
<g filter="url(#filter13_f_2118_7243)">
<path d="M101.67 127.812C95.6821 130.904 96.8787 131.804 103.625 129.208C110.27 126.722 115.146 127.365 120.165 131.482C123.54 134.085 123.969 134.278 123.896 132.489C123.784 129.752 114.53 125.177 109.793 125.371C107.794 125.453 104.149 126.551 101.67 127.812Z" fill="#A5FF97"/>
</g>
<path d="M82.6762 135.133C81.0138 135.728 79.7896 136.727 79.8155 137.358C79.8414 137.99 80.5825 138.065 81.723 137.597C85.6491 135.643 95.1216 135.255 98.5587 136.801C102.425 138.54 103.061 138.619 103.009 137.356C102.871 133.988 88.9972 132.449 82.6762 135.133Z" fill="#A5FF97"/>
<g filter="url(#filter14_f_2118_7243)">
<path d="M82.6762 135.133C81.0138 135.728 79.7896 136.727 79.8155 137.358C79.8414 137.99 80.5825 138.065 81.723 137.597C85.6491 135.643 95.1216 135.255 98.5587 136.801C102.425 138.54 103.061 138.619 103.009 137.356C102.871 133.988 88.9972 132.449 82.6762 135.133Z" fill="#A5FF97"/>
</g>
<path d="M136.444 142.834C132.632 144.994 131.214 146.423 132.196 147.226C132.529 147.634 134.187 146.933 135.723 145.816C139.82 142.907 143.601 142.541 148.02 144.89C152.539 147.13 152.965 147.218 152.904 145.744C152.848 144.376 144.589 140.919 141.637 140.935C140.48 140.982 138.194 141.814 136.444 142.834Z" fill="#A5FF97"/>
<g filter="url(#filter15_f_2118_7243)">
<path d="M136.444 142.834C132.632 144.994 131.214 146.423 132.196 147.226C132.529 147.634 134.187 146.933 135.723 145.816C139.82 142.907 143.601 142.541 148.02 144.89C152.539 147.13 152.965 147.218 152.904 145.744C152.848 144.376 144.589 140.919 141.637 140.935C140.48 140.982 138.194 141.814 136.444 142.834Z" fill="#A5FF97"/>
</g>
<defs>
<filter id="filter0_f_2118_7243" x="48.1404" y="39.4724" width="11.2564" height="15.9712" filterUnits="userSpaceOnUse" color-interpolation-filters="sRGB">
<feFlood flood-opacity="0" result="BackgroundImageFix"/>
<feBlend mode="normal" in="SourceGraphic" in2="BackgroundImageFix" result="shape"/>
<feGaussianBlur stdDeviation="1.25012" result="effect1_foregroundBlur_2118_7243"/>
</filter>
<filter id="filter1_f_2118_7243" x="80.6931" y="50.7224" width="10.105" height="8.1919" filterUnits="userSpaceOnUse" color-interpolation-filters="sRGB">
<feFlood flood-opacity="0" result="BackgroundImageFix"/>
<feBlend mode="normal" in="SourceGraphic" in2="BackgroundImageFix" result="shape"/>
<feGaussianBlur stdDeviation="1.25012" result="effect1_foregroundBlur_2118_7243"/>
</filter>
<filter id="filter2_f_2118_7243" x="115.16" y="53.9119" width="12.979" height="9.17237" filterUnits="userSpaceOnUse" color-interpolation-filters="sRGB">
<feFlood flood-opacity="0" result="BackgroundImageFix"/>
<feBlend mode="normal" in="SourceGraphic" in2="BackgroundImageFix" result="shape"/>
<feGaussianBlur stdDeviation="1.25012" result="effect1_foregroundBlur_2118_7243"/>
</filter>
<filter id="filter3_f_2118_7243" x="36.9714" y="60.3376" width="12.3901" height="9.47315" filterUnits="userSpaceOnUse" color-interpolation-filters="sRGB">
<feFlood flood-opacity="0" result="BackgroundImageFix"/>
<feBlend mode="normal" in="SourceGraphic" in2="BackgroundImageFix" result="shape"/>
<feGaussianBlur stdDeviation="1.25012" result="effect1_foregroundBlur_2118_7243"/>
</filter>
<filter id="filter4_f_2118_7243" x="108.773" y="65.1208" width="13.9077" height="8.15284" filterUnits="userSpaceOnUse" color-interpolation-filters="sRGB">
<feFlood flood-opacity="0" result="BackgroundImageFix"/>
<feBlend mode="normal" in="SourceGraphic" in2="BackgroundImageFix" result="shape"/>
<feGaussianBlur stdDeviation="1.25012" result="effect1_foregroundBlur_2118_7243"/>
</filter>
<filter id="filter5_f_2118_7243" x="19.8923" y="66.7517" width="13.9566" height="9.7798" filterUnits="userSpaceOnUse" color-interpolation-filters="sRGB">
<feFlood flood-opacity="0" result="BackgroundImageFix"/>
<feBlend mode="normal" in="SourceGraphic" in2="BackgroundImageFix" result="shape"/>
<feGaussianBlur stdDeviation="1.25012" result="effect1_foregroundBlur_2118_7243"/>
</filter>
<filter id="filter6_f_2118_7243" x="68.323" y="68.3708" width="14.2085" height="9.24855" filterUnits="userSpaceOnUse" color-interpolation-filters="sRGB">
<feFlood flood-opacity="0" result="BackgroundImageFix"/>
<feBlend mode="normal" in="SourceGraphic" in2="BackgroundImageFix" result="shape"/>
<feGaussianBlur stdDeviation="1.25012" result="effect1_foregroundBlur_2118_7243"/>
</filter>
<filter id="filter7_f_2118_7243" x="47.4216" y="74.6755" width="13.5874" height="10.229" filterUnits="userSpaceOnUse" color-interpolation-filters="sRGB">
<feFlood flood-opacity="0" result="BackgroundImageFix"/>
<feBlend mode="normal" in="SourceGraphic" in2="BackgroundImageFix" result="shape"/>
<feGaussianBlur stdDeviation="1.25012" result="effect1_foregroundBlur_2118_7243"/>
</filter>
<filter id="filter8_f_2118_7243" x="88.696" y="74.656" width="13.9077" height="8.1919" filterUnits="userSpaceOnUse" color-interpolation-filters="sRGB">
<feFlood flood-opacity="0" result="BackgroundImageFix"/>
<feBlend mode="normal" in="SourceGraphic" in2="BackgroundImageFix" result="shape"/>
<feGaussianBlur stdDeviation="1.25012" result="effect1_foregroundBlur_2118_7243"/>
</filter>
<filter id="filter9_f_2118_7243" x="65.6921" y="82.6345" width="12.979" height="8.1919" filterUnits="userSpaceOnUse" color-interpolation-filters="sRGB">
<feFlood flood-opacity="0" result="BackgroundImageFix"/>
<feBlend mode="normal" in="SourceGraphic" in2="BackgroundImageFix" result="shape"/>
<feGaussianBlur stdDeviation="1.25012" result="effect1_foregroundBlur_2118_7243"/>
</filter>
<filter id="filter10_f_2118_7243" x="155.061" y="86.6873" width="31.5083" height="11.3325" filterUnits="userSpaceOnUse" color-interpolation-filters="sRGB">
<feFlood flood-opacity="0" result="BackgroundImageFix"/>
<feBlend mode="normal" in="SourceGraphic" in2="BackgroundImageFix" result="shape"/>
<feGaussianBlur stdDeviation="1.25012" result="effect1_foregroundBlur_2118_7243"/>
</filter>
<filter id="filter11_f_2118_7243" x="198.433" y="102.537" width="17.439" height="8.36964" filterUnits="userSpaceOnUse" color-interpolation-filters="sRGB">
<feFlood flood-opacity="0" result="BackgroundImageFix"/>
<feBlend mode="normal" in="SourceGraphic" in2="BackgroundImageFix" result="shape"/>
<feGaussianBlur stdDeviation="1.25012" result="effect1_foregroundBlur_2118_7243"/>
</filter>
<filter id="filter12_f_2118_7243" x="182.336" y="105.291" width="25.4624" height="10.2368" filterUnits="userSpaceOnUse" color-interpolation-filters="sRGB">
<feFlood flood-opacity="0" result="BackgroundImageFix"/>
<feBlend mode="normal" in="SourceGraphic" in2="BackgroundImageFix" result="shape"/>
<feGaussianBlur stdDeviation="1.25012" result="effect1_foregroundBlur_2118_7243"/>
</filter>
<filter id="filter13_f_2118_7243" x="95.2996" y="122.865" width="31.104" height="13.2993" filterUnits="userSpaceOnUse" color-interpolation-filters="sRGB">
<feFlood flood-opacity="0" result="BackgroundImageFix"/>
<feBlend mode="normal" in="SourceGraphic" in2="BackgroundImageFix" result="shape"/>
<feGaussianBlur stdDeviation="1.25012" result="effect1_foregroundBlur_2118_7243"/>
</filter>
<filter id="filter14_f_2118_7243" x="77.3152" y="131.263" width="28.1968" height="9.45362" filterUnits="userSpaceOnUse" color-interpolation-filters="sRGB">
<feFlood flood-opacity="0" result="BackgroundImageFix"/>
<feBlend mode="normal" in="SourceGraphic" in2="BackgroundImageFix" result="shape"/>
<feGaussianBlur stdDeviation="1.25012" result="effect1_foregroundBlur_2118_7243"/>
</filter>
<filter id="filter15_f_2118_7243" x="129.394" y="138.435" width="26.0151" height="11.4087" filterUnits="userSpaceOnUse" color-interpolation-filters="sRGB">
<feFlood flood-opacity="0" result="BackgroundImageFix"/>
<feBlend mode="normal" in="SourceGraphic" in2="BackgroundImageFix" result="shape"/>
<feGaussianBlur stdDeviation="1.25012" result="effect1_foregroundBlur_2118_7243"/>
</filter>
</defs>
</svg>
